<?xml version="1.0" encoding="UTF-8" standalone="no"?>
<svg
   xmlns:dc="http://purl.org/dc/elements/1.1/"
   xmlns:cc="http://creativecommons.org/ns#"
   xmlns:rdf="http://www.w3.org/1999/02/22-rdf-syntax-ns#"
   xmlns:svg="http://www.w3.org/2000/svg"
   xmlns="http://www.w3.org/2000/svg"
   xmlns:sodipodi="http://sodipodi.sourceforge.net/DTD/sodipodi-0.dtd"
   xmlns:inkscape="http://www.inkscape.org/namespaces/inkscape"
   version="1.0"
   width="1024pt"
   height="1024pt"
   viewBox="0 0 1024 1024"
   preserveAspectRatio="xMidYMid meet"
   id="svg2211"
   sodipodi:docname="vector.svg"
   inkscape:version="1.0.2-2 (e86c870879, 2021-01-15)">
  <defs
     id="defs2215" />
  <sodipodi:namedview
     pagecolor="#ffffff"
     bordercolor="#666666"
     borderopacity="1"
     objecttolerance="10"
     gridtolerance="10"
     guidetolerance="10"
     inkscape:pageopacity="0"
     inkscape:pageshadow="2"
     inkscape:window-width="1366"
     inkscape:window-height="697"
     id="namedview2213"
     showgrid="false"
     inkscape:zoom="0.1940918"
     inkscape:cx="1052.9361"
     inkscape:cy="760.26375"
     inkscape:window-x="-8"
     inkscape:window-y="-8"
     inkscape:window-maximized="1"
     inkscape:current-layer="svg2211"
     fit-margin-top="0"
     fit-margin-left="0"
     fit-margin-right="0"
     fit-margin-bottom="0" />
  <metadata
     id="metadata2205">
Created by potrace 1.10, written by Peter Selinger 2001-2011
<rdf:RDF>
  <cc:Work
     rdf:about="">
    <dc:format>image/svg+xml</dc:format>
    <dc:type
       rdf:resource="http://purl.org/dc/dcmitype/StillImage" />
    <dc:title></dc:title>
  </cc:Work>
</rdf:RDF>
</metadata>
  <path
     d="m 807.69245,50.023056 v 11.77013 l 8.8276,2.94193 20.5971,5.88507 14.7121,14.71266 5.885,5.88446 5.8851,8.827604 11.7695,8.82759 5.885,5.88447 8.8276,26.48159 8.8271,17.65519 5.885,20.59712 8.827,11.76953 5.8851,17.6546 8.8156,20.59712 11.7695,23.53966 v 26.48159 l -2.9425,8.82759 -11.7696,11.76953 -5.885,5.88507 -2.9426,8.82759 -2.9425,5.88447 -2.9425,14.71266 -2.9426,8.82699 v 11.77013 l -2.9425,17.65459 2.9425,11.77013 v 11.76953 l -5.885,14.71206 -2.9419,2.94253 -5.8851,2.94253 -2.9425,2.94253 5.8851,5.88507 5.8844,8.82759 8.8276,8.83959 2.9425,8.82699 v 11.77013 l -5.8851,8.827 v 5.88506 l -8.8269,23.53966 -5.8851,5.88506 -5.885,8.8276 -5.8851,11.76953 -2.942,8.82699 -5.885,5.88507 v 23.54026 l 5.885,11.76952 2.942,2.94254 5.8851,5.88446 17.6545,8.8276 8.8276,11.77013 5.8851,8.82699 8.8276,5.88507 17.6546,8.82759 -2.9425,17.65459 h 2.9425 l 2.9425,2.94253 2.9419,5.88446 -2.9419,2.94254 -2.9425,8.82759 v 11.77013 l -2.9425,8.827 -2.9426,5.88506 -2.9425,8.8276 v 14.71206 l -2.9425,14.71266 2.9425,8.827 v 5.88506 l 2.9425,8.827 2.9426,5.88506 5.885,2.94253 2.9419,5.88507 v 8.82699 l -2.9419,5.88507 -5.885,11.77013 -2.9426,11.76953 -2.9425,11.77012 -8.827,14.72405 -2.9426,38.25291 h -35.3085 l -5.8851,5.8845 -5.8845,-2.94253 h -5.885 l -2.9426,2.94253 -5.885,5.88507 h -14.7121 l -2.9425,-2.94253 -2.9425,-8.82704 h -52.9524 v 8.82704 l 2.9419,5.88506 v 2.94253 l -20.5846,11.76949 h -2.9425 l -2.9425,14.7121 -2.9426,8.8276 -2.9425,5.88506 -2.9425,11.76954 -2.9426,14.7126 -5.8844,14.7121 -5.885,17.6552 v 5.88444 l 11.7694,5.8851 v 2.9425 L 740.02855,1024 h -2.9425 l -11.7696,-2.9425 -5.88504,-5.8845 -2.94253,-5.8851 v -8.8276 l -5.88507,-2.94254 h -5.88506 l -2.94189,-5.8844 -8.8276,-2.9426 -8.8276,2.9426 h -2.94197 l -5.88504,2.9425 -2.94253,-5.8851 -5.88506,2.9426 h -2.94254 l -2.94253,5.8844 v 8.82764 h -14.71206 l -5.88506,2.9425 v 5.8851 l -2.94254,5.8845 V 1024 h -8.82699 l -2.94253,-2.9425 -2.94254,-2.9425 -2.94253,-2.942 -5.87248,-2.9425 -5.88506,-2.9426 -5.88507,-5.885 -5.88506,-8.82704 v -8.8276 l -2.94193,-5.8851 -2.94253,-5.885 -2.94254,-2.9426 -5.88506,-2.9425 h -2.94253 l -8.827,5.8851 v -5.8851 l -5.88506,-2.942 -5.88507,-2.9425 -2.94253,-2.9425 -2.94253,-5.8851 -2.94253,-5.885 -5.88447,-2.9419 h -8.8276 l -5.88506,2.9419 -5.88446,-2.9419 h -5.88507 l -2.94253,2.9419 -5.88506,2.9425 v -17.65457 l -2.94194,-2.94253 h -5.88506 l -5.88507,2.94253 -8.82759,2.94253 -5.88507,2.94254 -5.88446,2.94253 -2.94253,2.94257 -5.88507,2.9419 -8.81501,2.9425 -8.82759,2.9425 h -5.88507 l -2.94253,2.9425 -2.94193,8.8276 -2.94253,2.942 -2.94254,2.9425 -2.94253,-5.8845 -2.94253,-2.9425 -2.94253,-5.8851 v -5.885 l 2.94253,-2.9425 v -5.88447 l -5.88447,-5.88507 2.94194,-2.94253 v -2.94253 l -2.94194,-2.94253 -8.82759,-5.88507 h -2.94253 l -2.94254,-5.8845 v -8.8276 H 389.9008 v -2.94253 l -2.94253,-2.94253 -2.94253,-5.88443 -5.88506,-2.94253 -5.88506,2.94253 -5.88446,2.9419 v 14.71266 l -2.94254,2.94253 -5.88506,-2.94253 h -2.94253 l -2.94253,-2.94254 -5.88447,-2.94253 -5.88506,-5.88506 -5.88507,-2.94253 -2.94253,-2.9419 v -2.94253 l -5.88506,-2.94253 h -5.88507 l -2.94193,-2.94253 v -5.88507 l -2.94253,-5.8845 -2.94253,-2.94253 -5.88507,-2.94254 h -8.81501 l -5.88506,-2.94253 -11.76953,-5.88506 -2.94254,-5.88506 v -2.94253 l -11.77012,-5.88447 h -5.88447 l -5.88506,-2.94253 v -11.77013 l 2.94253,-2.94193 v -2.94253 l -2.94253,-2.94253 -2.94253,-2.94253 -2.94254,-2.94254 -5.88506,-2.94253 -2.94193,-2.94253 -5.88507,-11.76953 -5.88506,-2.94253 -5.88507,2.94253 -2.94253,5.88446 -2.94253,2.94254 -2.94253,5.88506 h -8.827 l -2.94253,-2.94253 -8.8276,8.8276 -8.82699,5.88506 h -5.88507 l -5.88446,-2.94253 -2.94253,-2.94253 v -5.88507 l -2.94254,-5.88506 -2.94253,-11.76953 -2.94253,-5.88507 -8.8276,-2.94253 -5.88506,5.88507 -8.81501,-2.94254 h -2.94253 l -2.94194,-8.82759 -2.94253,-2.94194 -5.88506,-5.88506 H 107.4489 l -5.88507,-2.94253 -2.94193,-8.8276 -2.94253,-8.82699 -5.88506,-5.88507 h -5.88507 l -8.82699,-2.94253 -2.94253,-8.8276 8.8276,-5.88446 v -17.65519 l 2.94192,-5.88447 2.94253,-8.82759 5.88507,-8.8276 5.88506,-8.827 5.88447,-2.94253 2.94253,-5.88506 8.82759,-5.88507 2.94254,-2.94253 v -11.76953 l 2.94253,-8.82759 v -14.71206 l 2.94253,-2.94253 2.94253,-2.94253 2.94194,-2.94253 h 2.94253 l 2.94253,-2.94254 h 5.88506 l 2.94254,5.88507 2.94253,2.94253 2.94193,5.88506 2.94253,5.88447 8.8276,2.94253 5.88506,-2.94253 8.8276,-2.94253 h 8.827 l 8.82759,-2.94194 5.88447,-2.94253 2.94253,2.94253 v 8.827 h 2.94253 l 2.94253,-8.827 h 2.94254 l 2.94253,-5.88506 -2.94253,-8.8276 5.88506,-8.82699 h 5.88446 l 2.94254,-2.94254 -5.88507,-17.65459 5.88507,-5.88506 5.88506,-2.94253 5.88506,-2.94254 5.88507,-5.88506 5.88446,-11.76953 8.8276,-2.94253 h 2.94253 l 5.88507,-5.88507 5.88446,-2.94253 h 5.87308 l 2.94253,2.94253 5.88447,8.8276 8.82759,2.94253 2.94253,2.94253 -2.94253,8.827 -2.94253,8.8276 v 2.94253 h 2.94253 l 5.88507,-2.94253 11.76953,-2.94253 h 20.59712 l 5.88506,-5.88507 5.88507,-8.827 v -5.88506 l -5.88507,-2.94253 v -5.88507 l -5.88506,-2.94253 2.94253,-11.76953 2.94253,-5.88506 5.88507,-8.8276 8.82759,-2.94253 5.88447,-2.94193 h 5.88506 l 11.76953,-8.8276 h 5.88506 l 11.77013,-2.94253 h 2.94253 l 2.94253,5.88506 5.88447,2.94254 h 5.88506 l 5.88506,-2.94254 5.88447,-5.88506 h 20.56057 l 5.88506,-2.94253 5.88507,-8.827 v -8.83958 l 2.94253,-5.88507 5.88446,-2.94253 2.94253,-2.94253 v -2.94253 l -2.94253,-2.94253 -8.82699,-2.94194 -2.94254,-8.82759 2.94254,-5.88507 v -2.94253 l -2.94254,-5.88506 2.94254,-2.94254 5.88446,-8.82699 8.8276,-2.94253 h 5.88506 v -5.88507 l 2.94253,-5.88446 v -8.8276 l 5.88507,-2.94253 5.88446,-8.8276 v -14.71206 l -2.94193,-8.82759 -2.94253,-2.94194 -5.88507,-5.88506 v -2.94253 l -2.94253,-5.88507 V 320.7402 l -2.94253,-8.82759 v -5.88447 l 11.77013,-5.88506 8.82699,-8.8276 14.71266,-11.76953 8.827,-2.94253 5.88506,-2.94253 8.827,-2.94253 h 5.88507 l 11.77012,-5.88507 h 2.94254 l 5.88506,2.94253 5.88447,-2.94253 2.94253,-2.94253 5.88506,-2.94193 17.65459,-14.71266 11.75755,-11.76953 5.88506,-5.88507 2.94253,-8.82699 5.88507,-2.94253 14.71206,-8.8276 14.71206,-8.8276 11.77013,-14.71206 11.76953,-8.82759 5.88508,-8.827 2.94253,-2.94253 8.82696,-11.77013 v -8.8276 l 2.94253,-5.88446 v -8.8276 l 2.94253,-5.88446 2.94253,-8.8276 5.88507,-8.82759 5.88506,-11.769534 8.82699,-11.78212 8.8276,-2.94253 8.8276,-5.88506 8.827,-8.8276 8.8276,-5.88446 2.9425,-14.712662 2.93,-8.826997 2.9425,-5.885063 v -2.942533 l 5.8851,-8.827596 5.8851,-5.8844653 5.8844,-2.942532 2.9425,-5.885063958789 h 11.7702 l 5.8845,8.827595958789 2.9425,5.8844653 5.8851,5.885064 5.885,11.770128 v 2.942532 l -5.885,5.884465 -5.8851,8.827592 z"
     style="clip-rule:evenodd;fill:#000000;fill-rule:nonzero;stroke:none;stroke-width:6.13077px"
     id="path1358" />
</svg>
