<?xml version="1.0" encoding="UTF-8" standalone="no"?>
<svg
   xmlns:dc="http://purl.org/dc/elements/1.1/"
   xmlns:cc="http://creativecommons.org/ns#"
   xmlns:rdf="http://www.w3.org/1999/02/22-rdf-syntax-ns#"
   xmlns:svg="http://www.w3.org/2000/svg"
   xmlns="http://www.w3.org/2000/svg"
   xmlns:sodipodi="http://sodipodi.sourceforge.net/DTD/sodipodi-0.dtd"
   xmlns:inkscape="http://www.inkscape.org/namespaces/inkscape"
   version="1.0"
   width="1024pt"
   height="1024pt"
   viewBox="0 0 1024 1024"
   preserveAspectRatio="xMidYMid meet"
   id="svg2211"
   sodipodi:docname="vector.svg"
   inkscape:version="1.0.2-2 (e86c870879, 2021-01-15)">
  <defs
     id="defs2215" />
  <sodipodi:namedview
     pagecolor="#ffffff"
     bordercolor="#666666"
     borderopacity="1"
     objecttolerance="10"
     gridtolerance="10"
     guidetolerance="10"
     inkscape:pageopacity="0"
     inkscape:pageshadow="2"
     inkscape:window-width="1366"
     inkscape:window-height="697"
     id="namedview2213"
     showgrid="false"
     inkscape:zoom="0.1940918"
     inkscape:cx="1266.7524"
     inkscape:cy="760.26375"
     inkscape:window-x="-8"
     inkscape:window-y="-8"
     inkscape:window-maximized="1"
     inkscape:current-layer="svg2211"
     fit-margin-top="0"
     fit-margin-left="0"
     fit-margin-right="0"
     fit-margin-bottom="0" />
  <metadata
     id="metadata2205">
Created by potrace 1.10, written by Peter Selinger 2001-2011
<rdf:RDF>
  <cc:Work
     rdf:about="">
    <dc:format>image/svg+xml</dc:format>
    <dc:type
       rdf:resource="http://purl.org/dc/dcmitype/StillImage" />
    <dc:title></dc:title>
  </cc:Work>
</rdf:RDF>
</metadata>
  <path
     d="m 49.368085,271.51601 3.6576,1.82877 10.9722,-5.4863 h 12.801 l 9.1438,-1.82877 5.486,-1.82877 h 5.4863 l 3.657495,1.82877 1.8288,5.4863 3.6571,3.65753 h 3.6576 l 1.8209,3.65717 1.8288,5.4863 3.6575,-1.82877 h 9.1438 l 5.486,-3.65753 5.4863,-1.82877 5.4859,-1.8284 5.4863,3.65717 5.4863,3.65753 h 5.4859 l 7.3151,3.65753 5.4863,1.82877 3.6572,3.65716 h 9.1438 l 3.6571,-5.48593 -1.8287,-3.65753 1.8287,-3.65753 h 3.6576 l 5.4863,3.65753 5.4863,3.65753 12.7932,1.82877 9.1434,-1.82877 10.9726,-3.65753 5.486,-3.65753 h 7.315 l 7.3147,1.82876 7.3151,3.65754 5.4863,3.65753 1.8287,3.65716 h 3.6572 l 1.8288,3.65754 3.6575,3.65753 1.8288,1.82876 5.4859,1.82877 h 5.4863 l 1.8288,3.65753 3.6571,5.48593 1.8288,1.82877 3.6575,1.82876 3.6576,-1.82876 3.6497,-1.82877 h 3.6575 l 1.8288,1.82877 5.4859,-1.82877 3.6575,3.65753 5.4863,-1.82876 3.6576,-1.82877 3.6575,-5.48593 10.9722,-3.65753 h 10.9723 l 5.4859,3.65753 3.6575,1.8284 3.6575,-3.65716 3.6576,-1.82877 7.3147,-1.82877 h 7.3151 l 5.4859,1.82877 1.8287,3.65753 v 3.65716 l 1.8288,1.82877 h 5.4863 l 3.6497,-1.82877 3.6576,-1.82876 h 7.3146 l 3.6576,-1.8284 1.8287,-3.65753 1.8288,-3.65753 1.8288,-1.82877 1.8284,-1.82876 h 1.8288 l 1.8287,1.82876 h 3.6576 l 7.315,-1.82876 1.8288,-5.48631 v -1.82839 l 5.4859,-5.4863 7.3151,-1.82877 7.3147,-3.65753 5.4859,5.4863 3.6575,1.82877 3.6576,-3.65754 5.4863,-1.82876 v -10.97223 l 3.6575,-3.65754 h 3.6572 l 3.6575,1.82877 1.8288,1.82877 3.6575,-1.82877 v -3.65754 h 7.3072 l 1.8288,-5.48592 h 12.801 l 5.4859,1.82839 h 3.6576 l 1.8287,3.65716 h 3.6576 l 5.4863,-1.82876 1.8287,-1.82877 3.6572,3.65753 h 5.4863 l 5.4859,-5.48593 h 5.4863 l 3.6576,-3.65753 1.8284,-7.31507 -3.6572,-5.48593 h -3.6575 l -3.6576,-1.82876 5.4863,-7.3147 h 5.486 l 1.8288,-5.4863 5.4863,-1.82877 1.8287,-3.65753 7.3151,-1.82877 1.8284,-3.65753 7.315,-1.8284 h 3.6576 l 1.8284,-3.65753 3.6575,-1.82877 7.3072,3.65754 3.6576,-3.65754 7.315,-1.82876 1.8285,-5.48593 3.6575,-1.82877 5.4863,-1.82877 7.3147,-5.4863 5.4863,-3.65753 h 25.602 l 3.6571,-1.82877 5.4863,-1.82876 3.6576,-1.8284 3.6571,-5.4863 h 5.4863 l 3.6575,-3.65753 3.6572,-5.48593 3.6501,-1.82877 3.6576,3.65753 1.8283,-3.65753 5.4863,-3.65753 5.4863,-1.82877 3.6572,-1.8284 3.6575,-5.48629 5.4863,-5.48631 5.4863,-1.82876 h 1.8284 l 1.8288,-1.82877 h 3.6575 l 1.8288,3.65753 3.6575,3.65754 7.3147,1.82877 v 7.31469 l 3.6576,1.82877 5.4859,1.82876 h 5.4863 l 5.4863,-1.82876 h 1.8287 v 5.4863 l -3.6575,1.82876 -5.4863,3.65717 -1.8288,5.4863 1.8288,5.48593 v 5.4863 l -9.1434,9.14383 1.8287,5.48593 1.8284,1.82877 v 5.4863 l -9.1434,9.14346 -3.6576,1.82877 1.8288,3.65753 v 5.4863 l -1.8288,5.48593 -5.4859,5.4863 v 7.3147 l -9.1435,9.14346 1.8284,3.65753 -3.6571,3.65754 -3.6576,1.82876 -1.8287,1.82877 v 5.4863 l -1.8288,3.65716 -3.6575,3.65754 v 5.4863 l 3.6575,3.65716 1.8288,7.31507 v 12.80099 l 1.8287,5.4863 -1.8287,3.65716 -3.6576,-1.82839 -3.6575,1.82839 -1.8288,1.82877 -1.8284,1.82876 v 3.65754 l -3.6575,1.82877 -1.8288,1.82876 -1.8287,5.4863 v 3.65716 l -1.8288,3.65754 -1.8288,3.65753 v 5.48593 l 3.6576,5.4863 v 7.3147 l -1.8288,3.65753 -1.8288,7.31507 h 10.9726 l 1.8284,-1.82877 3.6576,-3.65753 3.6575,1.82877 1.8288,1.82876 3.6575,-1.82876 h 3.6575 l 1.8284,1.82876 h 3.6575 l 3.6576,1.82877 1.8288,-5.4863 3.6571,-3.65754 5.4863,1.82877 h 5.4863 l 5.4859,-5.4863 h 3.6576 l 3.6575,1.82877 1.8288,3.65753 5.4859,7.31507 3.6576,3.65716 3.6575,3.65753 v 5.48631 l 5.4859,5.48592 3.6575,1.82877 3.6501,3.65753 v 9.14384 l -1.8287,5.48593 v 1.82877 h 5.4859 l 3.6575,-7.3147 5.4863,-3.65753 5.4859,-3.65754 h 1.8288 l 3.6575,1.82877 -1.8287,5.4863 5.4859,3.65716 h 5.4863 l 3.6576,-5.48593 v -7.31507 l 3.6575,-3.65753 3.6575,-1.82877 3.6572,-3.65716 3.6575,-1.82876 h 3.6575 l 10.9723,-7.31507 3.6575,-1.82877 h 7.3147 l 3.6575,-5.48593 v -7.31507 l 3.6576,-3.65753 3.6575,1.82877 1.8284,-5.48593 -3.6572,-5.4863 v -3.65754 l 1.8288,-5.48592 3.6572,-7.31507 3.6575,-1.8284 3.6497,-1.82876 v -7.31507 l 7.3151,-1.82877 3.6575,3.65754 3.6572,1.82876 3.6575,-1.82876 3.6576,-3.65754 h 5.4859 v 1.82877 l 5.4863,-3.65754 3.6575,-5.48592 1.8288,-3.65754 1.8287,-1.82876 3.6576,-5.48631 3.6572,-1.82839 3.6575,-3.65753 v -5.4863 l 1.8288,-1.82877 3.6575,-1.82876 3.6571,3.65753 3.6576,-1.82877 3.6575,1.82877 3.6572,1.82877 h 10.9726 l 3.6575,1.82876 v 3.65753 l -5.4863,1.82877 -3.6575,1.82839 v 3.65754 l 3.6575,1.82877 h 3.6576 l 3.6575,1.82876 3.6571,3.65754 v 7.31469 l 1.82882,3.65754 3.6575,1.82876 v 5.4863 l -3.6575,3.65716 v 18.28767 l 1.8288,3.65754 3.6497,3.65753 3.6575,1.82877 v 3.65716 l 1.8288,3.65753 h 3.6575 l 3.6576,3.65754 v 5.48593 l -1.8288,5.4863 v 3.65753 l 3.6571,1.82877 3.6576,3.65753 v 3.65716 l -3.6576,3.65754 h -5.4859 l -10.9726,3.65753 h -3.6572 l -9.14382,5.48593 -5.4859,-1.82877 -7.3151,1.82877 h -10.9722 l -3.6576,1.82877 h -23.7735 l -3.6572,1.82876 v 7.31507 l 3.6572,5.48593 5.4863,3.65753 -1.8288,5.48631 3.6575,5.48592 9.1435,1.82877 5.4863,3.65753 1.8287,5.48593 -1.8287,7.31507 -5.4863,5.4863 -5.4859,3.65716 -5.4863,1.82877 -3.6576,3.65753 h -5.4859 l -3.6575,7.3147 -5.4863,9.14383 -1.8288,5.4863 v 10.97223 l -3.6576,1.82877 3.6576,10.97223 -1.8288,7.31469 -3.6571,3.65754 h -3.6576 l -3.6497,7.31506 -3.6575,1.82877 -1.8288,1.82877 -1.8288,3.65716 -5.4863,1.82877 -1.8287,5.4863 -5.4859,3.65716 -3.6576,3.65753 -5.4859,1.82877 h -3.6576 l -1.8287,3.65753 3.6575,1.82877 v 7.32252 l 3.6572,3.65753 3.6575,3.65716 3.6576,3.65754 1.8287,3.65753 v 3.65716 l -7.315,3.65753 -1.8288,5.4863 v 7.31472 l -1.8284,3.65753 -3.6576,1.82877 -1.8287,1.82877 v 12.80097 l 1.8287,12.80102 -1.8287,3.65753 -5.4863,3.65754 -1.8284,3.65753 3.6571,1.82837 3.6576,1.82877 1.8287,3.65753 -1.8287,3.65753 v 16.45781 l 1.8287,5.48631 h 3.6576 l 3.6572,-5.48631 v -3.65718 l 5.4863,-1.82877 3.6575,1.82877 3.6571,5.48595 3.6576,3.65754 -1.8288,5.48587 -1.8288,5.4863 1.8288,5.4863 h 5.4863 l 1.8288,-1.8287 1.8287,-3.6576 h 5.486 l 1.8288,1.8288 3.6575,-1.8288 3.6575,-3.6575 3.6572,5.4863 1.8287,3.6575 7.3151,-1.8287 3.6575,5.4863 h 3.6576 l 1.8284,3.6572 v 5.4863 l -1.8284,5.4863 1.8284,1.8283 5.4863,-1.8283 1.8288,3.6571 1.8287,5.4863 3.6572,1.8288 1.8287,1.8287 1.8288,1.8284 v 7.3151 l 3.6575,1.8288 v 3.6575 l -1.8287,5.4859 -1.8288,1.8288 v 3.6575 l 3.6575,3.6576 3.6572,1.8284 3.6575,3.6575 3.6576,5.4863 v 3.6575 l 3.6575,3.6576 1.8288,3.6571 v 5.4863 l 1.8287,5.486 v 3.6575 l -3.6575,3.6575 -7.3151,3.6576 h -3.6575 l -3.6572,5.4859 -1.8287,5.4937 1.8287,3.6576 -1.8287,5.4863 v 5.4863 l 1.8287,3.6571 -1.8287,5.4863 -5.4863,1.8288 -3.6572,3.6571 -5.4863,7.3151 -3.6575,5.4863 v 7.3147 h -5.486 l -1.8287,-1.8287 h -3.6576 l -1.8287,1.8287 v 1.8288 h -1.8288 v 1.8288 l -1.8288,1.8287 h -1.8287 l -1.8284,1.8288 h -3.6575 l -3.6576,-1.8288 -1.8287,-1.8287 h -7.3148 l -3.6575,-1.8288 h -1.8288 v -1.8288 h -5.4863 l -1.8287,-1.8287 v -1.8285 l -1.8284,-1.8287 h -5.4863 v -3.6576 l -1.8288,-1.8287 h -3.6575 l -1.8284,1.8287 -1.8288,-1.8287 -1.8288,-1.8288 v -3.6575 h -1.8287 v -1.8288 h -5.4863 l -1.8284,1.8288 -1.8288,1.8287 h -3.6575 v -1.8287 l -3.6575,-3.6576 v -1.8283 l -1.8288,-1.8288 v -1.8288 h -1.8288 l -1.8287,-1.8287 h -3.6572 v 1.8287 h -3.6575 v 5.4859 l 1.8287,1.8288 v 1.8288 l -1.8287,1.8287 h -3.6576 v -1.8287 h -5.4859 l -1.8288,1.8287 -1.8287,1.8288 v 3.6575 h -1.8288 l -1.8288,1.8288 -1.8287,-1.8288 h -1.8288 v -1.8287 l -3.6575,-3.6576 h -14.622 v 1.8288 l -1.8287,1.8288 h -1.8288 l -1.8288,-1.8288 v -3.6575 l 1.8288,-1.8288 v -3.6571 h -5.4859 v 3.6571 h -14.6302 v 1.8288 l -1.8284,1.8287 h -1.8287 l -1.8288,1.8288 h -1.8288 l -1.8287,1.8288 v 5.4863 h -1.8288 v 3.6572 l -1.8284,1.8287 h -1.8288 v -1.8287 l -1.8287,1.8287 h -3.6576 l -1.8287,-1.8287 h -1.8288 v 1.8287 h -3.6575 l -3.6576,-1.8287 h -1.8283 l -1.8288,-1.8285 h -1.8288 v 3.6572 l -1.8287,1.8288 h -3.6576 l -1.8284,1.8288 v -1.8288 h -1.8288 l -1.8287,-1.8288 h -1.8288 v -1.8287 h -5.4863 l -3.6571,-3.6572 v -3.6576 h -1.8288 v -1.8287 l -1.8288,-1.8288 -1.8287,1.8288 h -5.4863 l -1.821,-1.8288 -1.8288,-1.8288 v -5.4863 l -1.8287,-1.8283 v -1.8288 l -7.3147,-7.3151 v -9.1434 h 1.8288 v -9.1439 l -1.8288,-3.6571 v -1.8288 l -1.8288,-1.8288 h -5.4863 v 1.8288 h -1.8288 l -1.8287,-1.8288 h -7.3147 l -1.8288,-1.8287 -1.8288,-1.8288 v -7.3147 l -1.8287,-1.8288 -1.8288,-1.8287 h -3.6571 v -14.6298 l -3.6576,-1.8287 -5.4863,-5.4863 v -1.8288 l -1.8287,-1.8284 1.8287,-1.8288 h -1.8287 v -1.8288 h -3.6572 l -1.8288,-1.8287 -1.8288,-1.8288 -9.1438,-9.1434 h -1.8288 l -3.6571,-1.8288 h -1.8288 l -1.8287,-1.8288 h -1.8288 v -1.8287 h -1.8288 l -1.8287,-1.8288 h -1.8285 l -3.6575,-3.6575 v -1.8288 l -1.8288,-1.8284 -1.8287,-3.6576 -1.8288,-1.8287 v -7.3147 l 1.8288,-1.8288 v -5.4863 l -1.8288,-1.8287 h -1.8288 l -1.8287,1.8287 h -1.8209 v 3.6576 l 3.6575,1.8287 1.8284,1.8288 h -1.8284 v 1.8288 h -3.6575 v -1.8288 h -1.8288 v -1.8288 h -1.8288 v -5.4863 h 3.6576 v -1.8287 h 1.8287 v -1.8285 l -1.8287,-1.8287 v -1.8288 h -9.1435 l -1.8288,-1.8288 v -9.1438 l -1.8288,-1.8288 h -9.1434 l -1.8288,-1.8283 v -1.8288 h 1.8288 v -5.4863 h -1.8288 v -3.65753 l -1.8287,-1.82842 h -3.6576 v -1.82876 h -1.8287 l -1.8288,-1.82877 h -1.8288 v -1.82877 h -1.8287 l -1.8288,-1.82876 v -1.82877 l -1.8284,-1.82877 h -1.8288 v -1.82876 h -3.6575 v -1.82877 l -1.8288,-1.82877 h -1.8288 v -1.82837 l -1.8287,-1.82876 v -1.82877 h -1.8284 v -3.65754 h 1.8284 l 1.8287,-1.82876 -1.8287,-1.82877 1.8287,-1.82842 -1.8287,-3.65753 1.8287,-1.82877 h -1.8287 v -1.82877 h -5.4859 l -1.8288,-1.82876 h -1.8288 l -1.8287,1.82876 h -7.3151 v -5.4859 l 3.6575,-3.65753 1.8288,-1.82877 v -1.82877 h -3.6575 v 1.82877 h -3.6572 v -5.4863 l -1.8288,-1.82877 v -1.82877 h -1.8288 l -1.8287,-1.82876 v -1.82842 h -1.8288 l -1.8288,-1.82877 h -3.6571 l -1.8288,1.82877 v -1.82877 h -1.8287 v -5.4863 h -1.8288 l -1.8288,-1.82877 h -1.8287 l -3.6572,-1.82876 h -1.8288 v 1.82876 h -1.8213 l -1.8288,1.82877 v -1.82877 h -1.8287 l -1.8288,-1.82876 V 611.673 h 3.6575 v -3.65753 l -1.8287,-1.82877 -1.8288,-1.82877 v -1.83621 h 3.6575 v -3.65755 h -1.8287 v -1.82877 h -3.6572 v 3.65754 h -1.8287 v 1.82878 h -1.8288 l -1.8288,-1.82878 -1.8287,-1.82877 h -1.8288 l -1.8284,-1.82877 h -1.8288 l -1.8288,-1.82876 v -1.82877 h -5.4863 v 1.82877 l -3.6575,3.65753 v 1.82877 l -1.8288,-1.82877 v -1.82877 h -1.8287 v -3.65753 h 1.8287 v -1.8284 h 1.8288 v -1.82876 l -1.8288,-1.82877 v -1.82877 h -3.6571 v -1.82876 h -1.8288 l -3.6575,-3.65754 h -3.6575 v -1.82839 1.82839 l -1.8288,1.82877 v 1.82877 h -1.8284 l -1.8288,-1.82877 v -1.82877 h -5.4863 v -1.82839 h -1.8288 v 1.82839 l -1.8287,-1.82839 h -5.4859 l -3.6576,-1.82877 h -5.4863 v 1.82877 h -3.6575 l -1.8284,1.82839 h -3.6575 l -1.8288,1.82877 v 1.82877 h -1.8288 l -1.8287,1.82876 v 1.82877 l 1.8287,1.82877 v 3.65716 h -1.8287 l -1.8288,-1.8284 h -9.1282 v -3.65753 h -5.4863 v 1.82877 h -3.6571 l -1.8288,1.82876 h -7.3151 l -1.8287,-1.82876 h -3.6572 v -1.82877 h -1.8288 v -1.82877 h -1.8288 v -1.82876 h -1.8287 v -1.82877 h -3.6576 l -1.8287,-1.82877 h -1.8288 l -1.8288,1.82877 h -1.8283 v 1.82877 l -1.8288,1.82876 v -1.82876 h -1.8288 l -1.8287,-1.82877 h -3.6576 l -1.8287,-1.82877 h -1.8285 l -1.8287,-1.82839 h -1.8288 l -1.8288,-1.82877 h -7.315 l -1.8288,1.82877 h -5.4859 v 1.82839 l -1.8288,-1.82839 v -1.82877 h -3.6575 l -1.8288,-1.82877 -1.8287,1.82877 1.8287,1.82877 v 1.82839 l -1.8287,1.82877 h -1.8284 v -1.82877 l 1.8284,-1.82839 -1.8284,-1.82877 h -1.8288 l -1.8288,1.82877 1.8288,1.82839 v 1.82877 h 1.8288 -1.8288 v 1.82877 l -1.8288,-1.82877 v -1.82877 h -3.6575 l -1.8288,1.82877 h -3.6497 l -1.8287,-1.82877 h -1.8288 l -1.8288,1.82877 h -1.8287 v 5.4863 h -1.8288 v 1.82877 h -5.486 v 1.82876 h -1.8287 v 1.8284 h -1.8288 v 1.82877 h -1.8288 v 1.82876 l -1.8287,1.82877 h -1.8284 v 1.82877 h -3.6575 l -3.6576,1.82878 h -3.6575 v 1.82877 h -5.4863 l -1.8284,1.82876 -1.8288,1.82877 h -3.6575 v 1.82877 h -5.4863 l -1.8284,-1.82877 h -1.8288 v -1.82877 h -1.8287 l -1.8288,1.82877 v 3.65714 h -5.4859 l -1.8288,1.82876 -1.8288,3.65754 v 1.82876 h -1.8287 l -1.8288,-1.82876 -1.8288,-3.65754 -3.6575,-3.65713 -3.6575,-1.82877 -1.8288,-3.65753 v -5.48632 l -3.6572,-1.82877 1.8288,-5.48593 -3.6575,-3.65753 -1.8288,-7.31507 -3.6575,-1.82839 -5.4785,-5.4863 -3.6576,-5.4863 h -3.6575 v 3.65753 l -9.1434,-7.3147 -1.8288,-3.65753 v -7.31507 l 3.6575,-5.48593 -1.8287,-1.82876 -3.6572,-5.4863 v -3.65754 l -3.6575,-3.65716 -1.8288,-3.65753 1.8288,-5.4863 3.6575,-5.4863 3.6572,5.4863 3.6575,-1.82877 9.1434,-9.14346 v -3.65754 h -1.8287 l -5.4859,-1.82876 -1.8288,-1.82877 -3.6575,-1.8284 -1.8288,-3.65753 -5.4859,-5.4863 v -7.3147 l -3.6576,-3.65752 h -3.6575 l -1.8284,3.65752 -3.6575,3.65754 -1.8288,-3.65754 -1.8288,-5.48629 1.8288,-3.65754 1.8288,-5.48592 1.8287,-3.65754 3.6572,-5.4863 1.8288,-5.48593 -1.8288,-5.4863 -1.8284,-7.31507 v -3.65716 l 3.6572,-3.65753 -9.1435,1.82877 -1.8288,-7.31507 1.8288,-7.3147 -1.8288,-5.4863 -3.6575,-7.31469 -5.4863,-7.31507 -5.4859,-3.65754 h -5.4863 l -3.6572,1.82877 v 9.14384 l -3.6575,5.4863 h -10.9726 l -5.4859,-3.65754 v -5.4863 l -3.6576,-5.4863 -5.4863,-7.31469 1.8288,-3.65754 -1.8288,-5.48593 -3.6497,-1.82876 -1.8288,-3.65754 -1.8284,-9.14383 -3.6575,-3.65716 h -5.4863 l -5.4863,5.48592 -3.657095,-1.82876 -7.3151,3.65753 -1.8288,5.4863 -5.4859,1.82877 -1.8288,5.48593 -5.4863,1.82876 -3.6575,5.48631 -5.4859,1.82876 v -1.82876 l -5.4863,-1.82877 -3.6576,1.82877 -1.8287,3.65753 -1.8284,1.82839 -3.6576,-1.82839 -1.8287,-3.65753 -1.8288,-5.48631 -3.6575,-7.31469 v -7.31507 l 1.8287,-5.4863 1.8288,-3.65716 7.3151,-3.66536 9.1434,-3.65716 v -3.65753 l -3.6575,-1.82877 h -5.4859 l -1.8288,-5.48593 h -5.4863 l -1.8288,-7.31507 -1.8287,-1.82876 -7.3147,3.65753 -1.8288,-1.82877 -3.6575,1.82877 -5.4863,-1.82877 -1.8284,-3.65716 -10.9648,-3.65753 v -5.4863 l 1.8288,-3.65754 -1.8288,-1.82876 H 9.1434847 l -7.3151,-1.82877 -1.82839995879,-3.65716 1.82839995879,-3.65753 1.8288,-3.65754 1.8287,-5.48593 v -1.82876 l 9.1439003,-3.65753 7.3147,-3.65754 3.6575,-3.65753 3.6575,-7.3147 10.9723,-7.31506 h 1.8287 l 7.3151,-5.48593 z"
     style="clip-rule:evenodd;fill:#000000;fill-rule:nonzero;stroke:none;stroke-width:3.81024px"
     id="path1286" />
</svg>
