<?xml version="1.0" encoding="UTF-8" standalone="no"?>
<svg
   xmlns:dc="http://purl.org/dc/elements/1.1/"
   xmlns:cc="http://creativecommons.org/ns#"
   xmlns:rdf="http://www.w3.org/1999/02/22-rdf-syntax-ns#"
   xmlns:svg="http://www.w3.org/2000/svg"
   xmlns="http://www.w3.org/2000/svg"
   xmlns:sodipodi="http://sodipodi.sourceforge.net/DTD/sodipodi-0.dtd"
   xmlns:inkscape="http://www.inkscape.org/namespaces/inkscape"
   version="1.0"
   width="1024pt"
   height="1024pt"
   viewBox="0 0 1024 1024"
   preserveAspectRatio="xMidYMid meet"
   id="svg2211"
   sodipodi:docname="vector.svg"
   inkscape:version="1.0.2-2 (e86c870879, 2021-01-15)">
  <defs
     id="defs2215" />
  <sodipodi:namedview
     pagecolor="#ffffff"
     bordercolor="#666666"
     borderopacity="1"
     objecttolerance="10"
     gridtolerance="10"
     guidetolerance="10"
     inkscape:pageopacity="0"
     inkscape:pageshadow="2"
     inkscape:window-width="1366"
     inkscape:window-height="697"
     id="namedview2213"
     showgrid="false"
     inkscape:zoom="0.1940918"
     inkscape:cx="1266.7524"
     inkscape:cy="760.26375"
     inkscape:window-x="-8"
     inkscape:window-y="-8"
     inkscape:window-maximized="1"
     inkscape:current-layer="svg2211"
     fit-margin-top="0"
     fit-margin-left="0"
     fit-margin-right="0"
     fit-margin-bottom="0" />
  <metadata
     id="metadata2205">
Created by potrace 1.10, written by Peter Selinger 2001-2011
<rdf:RDF>
  <cc:Work
     rdf:about="">
    <dc:format>image/svg+xml</dc:format>
    <dc:type
       rdf:resource="http://purl.org/dc/dcmitype/StillImage" />
    <dc:title></dc:title>
  </cc:Work>
</rdf:RDF>
</metadata>
  <path
     d="m 908.61159,591.34364 7.2119,7.21186 v 7.21186 h 7.2118 l 7.2119,7.21185 h 7.2118 l 7.2119,7.21186 7.2119,7.21039 h 14.4237 l 21.6355,7.21186 -7.2118,7.21185 v 14.42372 h -7.2119 l 7.2119,7.21185 h 7.2118 l 7.2119,-7.21185 h 7.21191 l 7.2118,-7.21186 H 1024 v 21.6341 l -7.2119,7.21186 v 7.21186 h -21.63421 l -7.2119,7.21185 v 14.42372 l 7.2119,14.42374 -7.2119,14.4237 v 7.2104 l -7.2118,14.4237 -7.2119,7.2118 -7.2118,7.2119 v 14.4237 l -14.4237,7.2104 v 7.2119 l -7.2119,14.4237 v 14.4237 l -7.2119,7.2118 v 7.2104 h -36.0577 v 7.2119 h 7.2119 l 7.2118,7.2118 v 14.4238 l -7.2118,7.2118 h -7.2119 l -7.2118,-7.2118 h -7.2119 v 14.4237 h 14.4222 l 7.2118,7.2118 v 7.2119 l -7.2118,7.2118 -7.2119,-7.2118 h -14.4221 l -7.2119,7.2118 v 14.4223 h 7.2119 v 7.2119 l 7.2118,7.2118 h 7.2119 l -7.2119,7.2119 v 7.2119 l -7.2118,7.2118 h -7.2119 l -7.2119,7.2103 -7.2118,-7.2103 -7.2119,-7.2118 h -43.2697 l -14.4238,-7.2119 h -14.4237 l -21.634,-7.2119 -21.6355,-14.4237 -7.2119,-7.2119 -7.2119,-7.2104 -21.6048,-7.2118 -14.4237,7.2118 -14.4221,7.2104 h -14.4238 l -14.4223,7.2119 h -14.4237 l -14.4222,7.2119 h -14.4237 l -14.4237,-14.4238 h -7.2118 l -7.2119,-14.4222 -7.2119,-7.2119 -14.4223,-7.2118 -14.4237,-14.4237 -21.634,-7.2119 -7.2119,-14.4237 21.634,-21.6341 -14.4221,-14.4237 h -7.2119 l -14.4237,-7.2119 -7.2118,-14.4237 -7.2119,-14.4222 -7.2119,-7.2119 -7.2118,-7.2119 h -28.8474 l -7.2119,-7.2118 h -7.2119 v -7.2119 h -7.2118 l -7.2119,-7.2118 -7.2118,7.2118 h -7.2119 l -7.2118,7.2119 -7.2119,14.4237 v 14.4237 l -7.2119,7.2104 7.2119,14.4237 -7.2119,14.4237 h -14.4223 l -7.2119,-7.2118 -7.2118,-7.2119 -14.4237,-7.2118 v -21.6341 h -7.2119 l -7.18089,-7.2119 -14.42372,-14.4237 -14.42234,-7.2119 v -7.2118 l -7.21186,-7.2104 -7.21186,-14.4237 -7.21185,-14.42374 V 692.3067 l -7.21186,-7.21185 v -21.63411 l 7.21186,-7.21185 v -7.21186 l 7.21185,-7.21186 h 7.21186 l 7.21186,-7.21185 7.21186,-14.42225 -7.21186,-7.21186 v -21.63557 l -7.21186,-21.63557 -14.42371,-14.42371 v -14.42224 l 7.21185,-7.21186 v -7.21186 l -7.21185,-7.21186 -14.42372,-7.21185 h -14.42214 v -21.6341 l -7.21186,-7.21186 -7.21186,-14.42371 V 454.3213 h -7.21185 l -14.42372,7.21186 h -14.42371 l -7.21186,7.21186 -7.21185,21.63557 v 7.21185 l -7.21186,7.21039 H 144.2341 v -7.21039 l -7.21186,-7.21185 h -7.21186 l -7.21178,-14.42372 h -7.21185 L 86.53932,447.11091 72.11561,425.4445 57.69336,418.23411 36.05779,411.02225 v -7.21185 l 7.21186,-14.42372 v -7.21185 H 21.63555 L 14.42369,389.38668 7.2118297,411.02225 -2.025879e-5,403.8104 V 360.53926 L 7.2118297,346.11701 36.05779,338.90515 h 36.05782 l 7.21185,-14.42371 -7.21185,-28.84594 7.21185,-7.21186 v -28.84742 h 7.21186 l 14.42371,-7.21186 v 14.42371 l -14.42371,7.21186 v 7.21186 l 28.84743,7.21185 v 7.21186 l -7.21186,7.21039 7.21186,7.21186 h 7.21185 l 7.21178,-21.63411 14.42372,7.21186 14.42234,28.84594 h 7.21186 l 7.21185,-14.42369 7.21186,-14.42225 -7.21186,-14.42371 -14.42234,-7.21186 h -7.21186 l 7.21186,-28.84743 -7.21186,-7.21185 h -14.42371 l -7.21186,14.42371 -28.84735,-14.42371 v -7.21186 l 7.21186,-14.42225 7.21186,-21.63557 7.21185,21.63557 14.42364,7.21186 h 21.63557 l 7.21186,7.21039 h 14.42234 l 21.63557,-7.21039 h 7.21186 l 7.21185,21.6341 h 7.21186 l 7.21186,-21.6341 v -21.63557 l 21.634,-14.42371 7.21186,21.63557 7.21185,-7.21186 7.21186,-14.42371 h 14.42372 l 14.42371,7.21185 v -7.21185 l -7.21186,-14.42225 7.21186,-14.42371 14.42238,-7.21186 v -7.21186 h -7.21189 l -7.21186,-14.42224 7.21186,-14.42371 -7.21186,7.21185 V 86.496065 l 7.21186,-14.42371 v -14.42225 h 21.63559 l 7.2118,14.42225 7.2119,-14.42225 v 50.481525 l 7.2118,7.21186 h 21.6341 l 14.4237,14.42371 -7.2119,7.21039 -7.2118,7.21185 v 7.21186 l 7.2118,7.21186 7.2119,7.21186 h 28.8474 l 7.2118,7.21185 v 7.21039 l -7.2118,7.21186 7.2118,7.21185 v 7.21186 l 7.2119,-7.21186 h 14.4223 v -7.21185 l 14.4238,-7.21186 h 7.2118 l 28.8474,14.42371 14.4222,-7.21185 14.4237,7.21185 -7.2119,14.42372 7.2119,7.21185 7.2119,14.42225 h 14.4223 l 7.2119,7.21186 v 7.21185 l -7.2119,7.21186 h -7.2119 l -14.4223,7.21186 v 21.63557 l 7.2119,14.42371 7.2118,14.42225 14.4224,21.63555 14.4237,14.42371 -7.2119,7.21039 h -7.2118 l -7.2119,7.21186 v 7.21185 l 7.2119,7.21186 14.4237,14.42371 v 14.42372 h -7.2119 l -14.4237,7.21185 v 43.26968 l 14.4237,14.42371 7.2119,7.21039 v 43.27114 l 7.2118,7.21039 v 7.21185 h 21.634 l 7.2119,14.42372 -7.2119,7.21185 h -21.634 l -7.2118,7.21186 14.4237,7.21186 h 14.4221 l 14.4238,14.42371 h 7.2118 v 28.84596 h 7.2119 l 7.2118,7.21186 14.4224,7.21185 7.2118,7.21186 v 14.42225 h 7.2119 l 7.1825,-7.21039 h 7.2118 v -36.05929 l -7.2118,-7.21185 7.2118,-7.21039 h 14.4222 l 7.2118,-7.21186 h 14.4237 V 569.6787 l 7.2119,-7.21186 14.4237,-7.21186 7.2119,-7.21185 h 14.4223 v 21.63557 l -7.2119,7.21185 h 7.2119 l 7.2119,-7.21185 7.2118,-7.21186 h 14.4237 l 14.4222,-14.42371 14.4237,14.42371 h 14.4237 l 7.2119,7.21186 h 7.2118 l 7.2119,-14.42372 7.2118,-7.21185 v -7.21186 l 7.2119,-14.42371 14.4223,-7.21039 h 28.8475 l 7.2118,7.21039 h 7.2119 l 7.2118,-7.21039 h 28.8459 l 7.2118,14.42224 v 7.21186 l -7.2118,7.21186 -7.2119,14.42371 -7.2118,7.21186 -14.4222,7.21185 h -14.4237 l -7.2118,14.42372 z"
     style="clip-rule:evenodd;fill:#000000;fill-rule:nonzero;stroke:none;stroke-width:15.0259px"
     id="path1242" />
</svg>
