<?xml version="1.0" encoding="UTF-8" standalone="no"?>
<svg
   xmlns:dc="http://purl.org/dc/elements/1.1/"
   xmlns:cc="http://creativecommons.org/ns#"
   xmlns:rdf="http://www.w3.org/1999/02/22-rdf-syntax-ns#"
   xmlns:svg="http://www.w3.org/2000/svg"
   xmlns="http://www.w3.org/2000/svg"
   xmlns:sodipodi="http://sodipodi.sourceforge.net/DTD/sodipodi-0.dtd"
   xmlns:inkscape="http://www.inkscape.org/namespaces/inkscape"
   version="1.0"
   width="1024pt"
   height="1024pt"
   viewBox="0 0 1024 1024"
   preserveAspectRatio="xMidYMid meet"
   id="svg2211"
   sodipodi:docname="vector.svg"
   inkscape:version="1.0.2-2 (e86c870879, 2021-01-15)">
  <defs
     id="defs2215" />
  <sodipodi:namedview
     pagecolor="#ffffff"
     bordercolor="#666666"
     borderopacity="1"
     objecttolerance="10"
     gridtolerance="10"
     guidetolerance="10"
     inkscape:pageopacity="0"
     inkscape:pageshadow="2"
     inkscape:window-width="1366"
     inkscape:window-height="697"
     id="namedview2213"
     showgrid="false"
     inkscape:zoom="0.1940918"
     inkscape:cx="1266.7524"
     inkscape:cy="760.26375"
     inkscape:window-x="-8"
     inkscape:window-y="-8"
     inkscape:window-maximized="1"
     inkscape:current-layer="svg2211"
     fit-margin-top="0"
     fit-margin-left="0"
     fit-margin-right="0"
     fit-margin-bottom="0" />
  <metadata
     id="metadata2205">
Created by potrace 1.10, written by Peter Selinger 2001-2011
<rdf:RDF>
  <cc:Work
     rdf:about="">
    <dc:format>image/svg+xml</dc:format>
    <dc:type
       rdf:resource="http://purl.org/dc/dcmitype/StillImage" />
    <dc:title></dc:title>
  </cc:Work>
</rdf:RDF>
</metadata>
  <path
     d="m 689.11865,142.58073 4.32071,12.96212 v 43.20708 l 4.32071,8.64054 4.32071,8.64142 h 4.32071 l 4.32071,4.32071 h 8.64141 l 4.32067,4.3207 8.6406,4.32071 h 21.6026 l 8.6414,12.96125 8.6414,4.32071 4.3208,-4.32071 12.9621,4.32071 v 8.64141 l -12.9621,4.32071 h -4.3208 v 8.64142 l 17.2829,8.64053 h 30.2441 v 8.64142 h 4.3207 l 8.6405,4.32071 12.9621,12.96212 -4.3207,12.96125 v 8.64141 h 17.282 l 4.3207,8.64142 4.3207,4.31983 8.6415,4.32071 v 21.60354 l 4.3207,8.64141 8.6414,8.64054 -4.3207,8.64142 v 21.60266 l -4.3207,8.64142 -4.3207,4.3207 v 8.64141 l -4.3207,4.32071 4.3207,8.64141 v 4.32071 l -21.6036,21.60266 -17.282,8.64142 -8.6414,-4.32071 h -4.3207 l -4.3207,8.64054 -8.6405,8.64141 v 4.32071 l -4.3207,12.96125 17.2819,8.64141 h 8.6414 l 17.282,25.92425 8.6414,8.64142 4.3207,4.31983 8.6415,-4.31983 4.3207,-12.96213 v -12.96212 l 8.6414,-4.32071 h 8.6405 l 8.6414,4.32071 8.6406,8.64142 v 21.60266 l 4.3207,8.64141 v 8.64142 l 4.3207,8.64054 -8.6406,8.64141 -8.6414,4.32071 -4.3207,8.64142 v 8.64141 l 4.3207,8.64142 h 12.9621 l 4.3207,4.32071 h 8.6406 v 4.31983 l 4.3207,8.64141 4.3207,8.64142 h 21.6036 l 4.3207,-8.64142 8.6404,-4.3207 h 12.9622 v 8.64141 l 4.3207,17.28196 4.3207,4.3207 v 12.96213 l -4.3207,8.64053 v 17.30044 l -4.3207,8.64141 4.3207,12.96213 h 4.3207 l 8.64062,4.32071 4.3207,8.64141 -4.3207,8.64054 v 17.28283 l 8.6414,8.64142 8.6405,4.31983 h -8.6405 v 4.32071 l -4.3207,4.3207 h -4.3207 l -8.64142,-8.64141 -4.3207,4.32071 h -4.3207 l -4.3208,8.64141 v 4.32071 h -12.9613 l -4.3207,4.32071 v 17.28283 l -4.3207,8.64054 h -4.3207 v 4.32071 l -21.6026,4.3207 v 4.32071 h -34.5657 l -17.282,-8.64141 h -4.3207 l -4.3207,-4.32071 h -8.6414 l -34.5647,34.56478 -4.3207,4.32071 -4.3207,4.32071 h -4.3208 l -4.3207,4.3207 h -4.3207 l -8.6414,8.64053 -12.9613,8.64142 -4.3207,4.32071 -8.6414,8.64142 -8.6414,8.64141 v 8.64054 l 4.3207,4.32071 v 51.84585 h -4.3207 l -4.3207,4.3198 -4.3207,4.3207 -12.9613,4.3208 -8.6414,4.3207 h -21.60264 l -4.32071,-4.3207 h -17.28284 l -17.28195,8.6414 -21.60354,17.28283 h -4.32071 L 632.94945,1024 h -4.32071 l 4.32071,-4.3199 v -25.92423 l -4.32071,-12.9622 v -8.6405 l -8.64142,-25.9234 -12.96212,-17.28281 -8.64054,-4.3207 h -17.28283 l -17.26435,4.3207 -12.96213,4.32071 h -12.96124 l -4.32071,-4.32071 h -17.28284 l -21.60266,-4.3207 -4.32071,-12.96125 -12.96124,-4.32071 -12.96212,-12.96212 -8.64142,-4.32071 h -4.32071 v 8.64142 l 4.32071,4.32071 v 4.3207 l 4.32071,4.32071 v 4.32071 l -4.32071,4.31983 h -8.64054 l -4.32071,-4.31983 V 903.0236 l -4.32069,-8.64142 h -21.60354 l -17.28196,4.32071 -12.96212,8.64141 -4.32071,4.32071 v 12.96125 l 4.32071,8.64141 4.32071,8.6414 v 34.5648 h -8.64142 l -4.32071,-4.3207 -4.32071,-8.6414 v -12.9621 l -8.64053,-12.96129 -8.64142,-8.64142 h -8.64054 v 8.64142 l -4.3031,8.64139 -12.96125,-4.3207 -8.64142,-8.6414 v -12.96212 l -17.28283,-4.31983 -4.32071,-4.32071 v -8.64141 l 8.64142,-12.96213 12.96212,-4.32071 -8.64141,-12.96124 -4.32071,-12.96212 -4.32071,-4.3207 h -8.64141 l -8.64142,4.3207 -8.64054,4.32071 -4.32071,4.32071 h -4.3207 l 4.3207,21.60265 4.32071,8.64142 v 8.64141 l -8.64141,4.32071 -17.28196,4.32071 h -12.96212 l -12.96213,-12.96212 -4.32071,-8.64142 v -17.28283 l -8.64053,-4.31983 h -8.64142 l -12.96212,4.31983 -4.32071,8.64141 -12.96125,-4.32071 -17.28283,-8.64053 h -21.60266 l -12.96212,4.31983 -12.96125,12.96212 -4.30311,8.64142 -4.32071,4.32071 -8.641405,8.64141 -4.32071,-8.64141 -8.64054,-4.32071 h -4.32071 v -4.32071 l -8.64141,-4.32071 h -4.32071 l -12.96213,-8.64142 -8.64053,-4.3207 -4.32071,-4.31983 -4.32071,-8.64141 v -12.96212 l 4.32071,-4.32071 v -4.31983 h 12.96124 v -4.32071 l -4.3207,-8.64141 -8.64054,-8.64142 h -4.32071 l -4.32071,4.32071 -8.64141,-4.32071 -4.32071,-4.32071 4.32071,-12.96212 v -12.96125 l 8.64141,-17.28195 4.32071,-17.28283 4.32071,-12.96125 v -8.64141 l 12.96124,-12.96213 v -4.32071 4.32071 -4.32071 l 4.32071,-4.32071 -4.32071,-12.96124 -4.3207,-12.96213 4.3207,-12.96212 v -21.60266 l -8.64053,-12.96213 -4.32071,-8.64141 -12.96212,-8.64054 -4.32071,-12.96212 -8.64054,-8.64142 -4.3207103,-4.31983 v -8.64142 l 4.3207103,-4.3207 8.64054,-8.64142 h 12.96212 l 4.32071,-4.32071 4.32071,-4.31983 v -8.64141 l 4.32071,-4.32071 h 8.64053 l 4.32071,4.32071 4.32071,4.32071 4.32071,-4.32071 4.32071,-8.64142 v -8.64142 l 4.3207,-8.64141 4.32071,-4.32071 h 17.28284 l 4.320695,4.32071 h 4.32071 l 12.96213,4.32071 8.64053,4.3207 8.64142,8.64142 8.64054,4.32071 4.3207,4.32071 8.64142,4.32071 4.32071,4.3207 h 21.60266 l 4.32071,-4.3207 4.32071,-8.64142 4.3207,-4.32071 h 4.32071 l 8.64142,-4.32071 h 12.96212 l 8.64054,-4.32071 4.32071,-4.3207 4.32071,-8.64142 v -4.31983 l 4.32071,-8.64142 4.3207,-4.3207 v -21.60266 l -4.3207,-4.32071 v -8.64142 l -4.32071,-8.64142 h -4.32071 l -4.32071,-4.3207 v -8.64142 l 4.32071,-4.31983 8.64142,-4.32071 4.3207,-4.32071 v -17.28194 l -4.3207,-4.32071 -4.32071,-8.64141 -8.64142,-8.64142 h -8.64054 l -4.3207,-8.64141 8.64053,-8.64142 4.32071,-8.64054 12.96213,-4.32071 4.3207,-8.64141 4.32071,-8.64142 25.92337,-25.92337 h 8.64142 l 8.64053,-4.32071 17.28284,-8.64053 h 8.64141 l 4.30223,-8.64142 8.64142,-8.64142 V 285.1773 l -4.32071,-8.64054 v -30.24408 l 4.32071,-8.64141 v -4.32071 l -4.32071,-4.32071 h -4.32071 l -4.32071,-4.32071 v -17.28283 l -4.3207,-4.31983 -4.32071,-8.64141 4.32071,-4.32071 8.64141,-4.33831 h 8.64142 l -4.32071,-12.96212 -4.32071,-8.64142 v -8.64054 l 8.64054,-8.64141 4.32071,-8.64142 v -8.64054 l -4.32071,-4.32071 h 4.32071 l 17.28283,-4.3207 8.64054,-4.32071 17.28283,-8.64142 8.64054,-8.641418 v -8.64141 l 4.3207,-8.64054 h 4.32071 v -4.32071 l 8.64142,-4.3207 4.32071,4.3207 h 4.32071 l 4.3207,4.32071 4.32071,-8.64141 v -4.32071 l -4.32071,-4.32071 v -12.96125 l 4.32071,-8.64141 4.32071,-4.320711 V 17.28195 L 425.59682,4.3207062 V -2.7587884e-6 h 8.64142 V 4.3207062 h 4.32071 l 4.32069,4.320708 h 8.64142 l 4.32071,4.3207078 v 4.319828 l 4.32071,-4.319828 h 4.3207 l 4.32071,-4.3207078 8.64054,-4.320708 8.64142,4.320708 h 4.3207 v 4.3207078 l 4.32071,4.319828 h 12.96125 l 4.32071,8.641417 h 8.64141 l 4.32071,-4.320708 8.64142,-4.320709 4.32071,-4.319828 h 17.28195 l 4.30311,-4.3207078 17.28195,8.6405358 v 4.320709 l 4.32071,8.641416 4.32071,8.641416 4.3207,8.641421 4.32071,4.3207 v 4.32071 l 8.64142,4.31983 4.32071,4.32071 17.28195,8.64142 4.32071,4.3207 v 4.32071 l 4.32071,4.32071 4.32071,4.31983 4.3207,4.32071 h 4.32071 l 8.64142,-4.32071 h 12.96212 l 4.32071,4.32071 4.32071,8.641408 8.64054,4.32071 v 4.32071 l 4.3207,4.32071 v 25.92337 z"
     style="clip-rule:evenodd;fill:#000000;fill-rule:nonzero;stroke:none;stroke-width:9.00221px"
     id="path1298" />
</svg>
