<?xml version="1.0" encoding="UTF-8" standalone="no"?>
<svg
   xmlns:dc="http://purl.org/dc/elements/1.1/"
   xmlns:cc="http://creativecommons.org/ns#"
   xmlns:rdf="http://www.w3.org/1999/02/22-rdf-syntax-ns#"
   xmlns:svg="http://www.w3.org/2000/svg"
   xmlns="http://www.w3.org/2000/svg"
   xmlns:sodipodi="http://sodipodi.sourceforge.net/DTD/sodipodi-0.dtd"
   xmlns:inkscape="http://www.inkscape.org/namespaces/inkscape"
   version="1.0"
   width="1024pt"
   height="1024pt"
   viewBox="0 0 1024 1024"
   preserveAspectRatio="xMidYMid meet"
   id="svg2211"
   sodipodi:docname="vector.svg"
   inkscape:version="1.0.2-2 (e86c870879, 2021-01-15)">
  <defs
     id="defs2215" />
  <sodipodi:namedview
     pagecolor="#ffffff"
     bordercolor="#666666"
     borderopacity="1"
     objecttolerance="10"
     gridtolerance="10"
     guidetolerance="10"
     inkscape:pageopacity="0"
     inkscape:pageshadow="2"
     inkscape:window-width="1366"
     inkscape:window-height="697"
     id="namedview2213"
     showgrid="false"
     inkscape:zoom="0.1940918"
     inkscape:cx="1266.7524"
     inkscape:cy="760.26375"
     inkscape:window-x="-8"
     inkscape:window-y="-8"
     inkscape:window-maximized="1"
     inkscape:current-layer="svg2211"
     fit-margin-top="0"
     fit-margin-left="0"
     fit-margin-right="0"
     fit-margin-bottom="0" />
  <metadata
     id="metadata2205">
Created by potrace 1.10, written by Peter Selinger 2001-2011
<rdf:RDF>
  <cc:Work
     rdf:about="">
    <dc:format>image/svg+xml</dc:format>
    <dc:type
       rdf:resource="http://purl.org/dc/dcmitype/StillImage" />
    <dc:title></dc:title>
  </cc:Work>
</rdf:RDF>
</metadata>
  <path
     d="m 172.72921,532.54204 v -1.52153 h 6.08614 v 1.52153 h 1.52123 v 1.52153 h 1.52153 v 1.52154 h 1.52154 v 1.52153 h -1.52154 v 1.52154 h 3.04307 v 3.04306 h 4.5646 v 1.52154 h 1.52154 l 1.52153,1.52153 v 1.52154 h 1.52154 v 1.52153 h 1.52122 v 1.52154 h 1.52154 v 1.52153 h -1.52154 v 1.52154 h -1.52122 v 4.56429 h -1.52154 v 1.52154 h -1.52153 v 1.52153 h -1.52154 v 1.52154 h -1.52153 v 1.52153 h -1.52153 v 1.52154 h -3.04276 v 1.52153 h -3.04307 v 1.52153 h -1.52154 v 1.52154 h -3.04307 l -1.52153,1.52153 h -1.52154 v 1.52154 h -3.04307 v -1.52154 h -4.56429 v 1.52154 h -3.04307 v 1.52153 h -1.52153 v 1.52154 h -4.5643 v -1.52154 h -1.52153 v -1.52153 h -1.52154 v -1.52154 l -1.52153,-1.52153 v -1.52154 h -1.52154 v -3.04275 h -1.52153 v -3.04307 h -1.52154 v -6.08614 h 1.52154 v -6.08583 h 1.52153 v -3.04307 h 3.04307 v -1.52154 h 1.52154 v -1.52153 h 3.04307 v -3.04276 h 3.04276 v -3.04307 h 7.60767 v -3.04307 h 3.04276 v -1.52153 z m 18.25749,-12.17135 v -7.60767 h 1.52153 v 1.52153 h 1.52154 v 1.52154 h 1.52153 v 3.04307 h -1.52153 v 1.52153 z m -7.60736,-307.35868 h 1.52122 v 1.52153 h 1.52154 v 1.52154 h 1.52153 v 3.04307 h 1.52153 v 3.04276 h -1.52153 v 6.08614 h -1.52153 v 7.60735 h 1.52153 v 4.56461 h 1.52153 v 1.52153 h 1.52154 v 1.52154 h -15.21535 v -3.04307 h -1.52153 v -1.52154 h -3.04307 v 3.04307 h -6.08583 v -4.5646 h -1.52153 v -1.52154 h -1.52154 v -3.04275 h 1.52154 v 1.52153 l 1.52153,1.52153 v -1.52153 h 1.52154 v -1.52153 h 1.52153 v -1.52154 h -3.04307 v 1.52154 h -1.52153 v -1.52154 h -1.52154 v -1.52153 h -1.52153 v 6.08582 l -1.52154,-1.52153 v -1.52153 h -1.52122 v -1.52154 h -1.52154 v -1.52153 h -1.52153 v -1.52153 h -1.52154 v -4.5643 h -1.52153 v -4.5646 h -3.04307 v -1.52154 h -1.52154 v -3.04276 h -1.52153 v -1.52153 h -1.52123 v -3.04307 h -1.52153 v -1.52153 h -1.52154 v -3.04307 h -1.52153 v -3.04276 h 1.52153 v -3.04307 h -3.04307 v -3.04276 h -1.52153 v -1.52154 h -1.52153 v -3.04307 h -1.52154 1.52154 v -1.52804 h 1.52153 v -3.04307 h -1.52153 v 1.52154 h -1.52154 v -3.04276 h 1.52154 v -1.52154 h -3.04276 v -1.52153 h 3.04276 v -1.52154 h -1.52154 v -1.52153 h 1.52154 v -1.52154 h 1.52153 v -4.5646 h 1.52153 v -4.56461 h -1.52153 v -1.52153 h 1.52153 v -1.52153 h -1.52153 v -4.5643 h 1.52153 v -4.5646 h 1.52154 v -1.52154 h 1.52153 v -3.04307 h 1.52154 v -3.04276 h 1.52122 v -1.52153 h 1.52154 v -1.52154 h 1.52153 v 1.52154 h 1.52154 v -1.52154 h 1.52153 v 1.52154 h 1.52154 v -4.5643 h 1.52153 v -1.52153 h 3.04307 v 1.52153 h 1.52154 v -1.52153 h 1.52122 v -1.52154 h 4.56461 v -1.52153 h 6.08582 v -1.52153 h 1.52154 v -1.52154 h 1.52153 v -1.52153 h 3.04307 v -1.52154 h 3.04307 v 4.5643 l 1.52154,0.007 v -3.04308 h 1.52153 l 1.52154,1.52154 h -1.52154 v 1.52153 h 3.04276 v 1.52154 h 1.52154 v 1.51534 h 1.52153 v 1.52153 h 1.52153 v 4.5646 h 1.52154 v 3.04276 h 1.52153 v 19.77965 h 1.52154 v 1.52153 h -1.52154 v 3.04307 l 1.52154,1.52153 v 7.60737 h 1.52122 v 7.60736 h -1.52122 v 6.08614 h -1.52154 v -1.52153 h -1.52153 l -1.52154,1.52153 h 1.52154 v 1.52154 h -1.52154 v 1.52153 h -1.52153 v 1.52154 h -1.52153 v 1.52153 h -1.52154 v 1.52153 h -1.52122 z m 597.89805,-94.33298 v -1.52154 h 1.5215 v -1.52153 h 1.5216 v -1.52154 h 1.5215 v -1.52153 h 1.5215 v 6.08614 h 1.5216 v 3.04307 h 1.5215 v 7.60736 l 1.5215,1.52153 h -1.5215 v 3.04307 h -1.5215 v -1.52153 h -3.0431 v -1.52154 h -1.5215 v -1.52153 h -1.5216 v -1.52154 h -1.5215 l -1.52121,-1.52153 v -3.04307 h -1.52153 l 1.52153,-1.52153 v -3.04276 z m 15.2153,13.69319 h -1.5212 v -3.04307 h 4.5646 v 7.60767 h -1.5215 v 1.52154 h -4.5646 v -1.52154 h 1.5215 v -1.52153 h 1.5212 z M 580.46426,86.727416 h -1.52154 v -1.521534 h 3.04307 v -1.521535 h 1.52153 l -1.52153,1.521535 v 4.564604 h -1.52123 v 1.521535 h -1.52153 v -3.04307 h 1.52153 z M 898.43089,664.9075 h -1.5215 v 1.52154 h 1.5215 z M 495.27071,199.31789 h -1.52154 v 1.52153 h 1.52154 z m 187.13171,173.44534 v 1.52154 h -3.04307 v 3.04276 h 4.56461 v -1.52154 h 1.52124 v -1.52153 h -1.52124 z m -4.5646,-6.08614 h -1.52154 v 7.60737 h 1.52154 z m 42.60144,181.07626 h -1.52124 v 1.52154 h -3.04307 v 1.52153 h 3.04307 v -1.52153 h 1.52124 z M 521.13184,164.32352 h -3.04307 v 1.52153 h 1.52154 v 1.52154 h 3.04306 v -1.52154 h -1.52153 z m 298.18675,-12.17197 h -3.0431 v 1.52154 h 3.0431 z M 670.22519,1.5217847 V 2.5474121e-4 h 6.08585 V 1.5217847 h 3.04307 v 1.52153 h 3.04306 v 4.5643 h -3.04306 v 1.52153 h -1.52154 v 4.5646103 h 1.52154 v 3.04276 h 1.52153 v 3.04307 h 3.04307 v 3.04307 h 1.5212 v 3.04276 h 1.52154 v 3.04307 h 1.52153 v 1.52153 h 1.52154 v 1.52154 h 1.52153 v 1.52153 h 1.52154 v 1.521535 h 1.52124 v -1.521535 h 4.56461 v 1.521535 h 1.52153 v 1.521534 h 7.60768 v 1.521535 h 4.56427 v 1.521535 h 1.52153 v 1.521535 h 1.52154 v 6.085829 h -1.52154 v 3.043069 h -3.04307 v 1.521535 h -1.5212 v 3.043069 h -1.52153 v 1.521535 h -1.52154 v 3.04276 h -3.04307 v 1.521534 h -4.5646 v 1.521535 h -1.52154 v 1.521535 h -1.52153 v 1.521535 h -3.04278 v 1.521534 h -1.52154 v 1.521535 h 3.04278 v -1.521535 h 6.08614 v -1.521534 h 4.56461 l 1.52153,-1.521535 h 3.04307 V 60.8604 h 1.5212 v -3.043069 h 4.56461 v -1.521535 h 6.08585 v 1.521535 h 3.04307 v 1.521535 h 1.52153 v 3.043069 h -1.52153 v 1.521535 h -1.52154 v 1.521534 h -1.52153 v 1.521535 h -1.52154 v 6.085829 h 1.52154 v 1.521535 h -1.52154 v 7.60767 h 1.52154 v 1.521534 h -1.52154 v 1.521535 h -1.52124 v 7.607364 h -3.04307 v 1.521535 h -1.52154 v 3.043069 h 1.52154 v 1.521535 h -1.52154 v 1.521535 h -1.52153 v -1.521535 h -1.52154 v 1.521535 h -1.5212 l -1.52153,1.52153 h -1.52154 v -1.52153 h -3.04307 v 1.52153 l -1.52153,1.52154 v 4.56429 h -1.52154 v 9.12921 h 1.52154 v -4.5646 h 1.52153 v 1.52153 h 4.56461 v -6.08614 h 1.52153 v -1.52153 h 1.5212 v -1.52154 h 1.52154 v 1.52154 h 1.52153 v 1.52153 h 1.52154 v -1.52153 h 3.04307 v -1.52154 h 3.04278 v 3.04307 h -1.52154 v 1.52154 h 4.56461 v -1.52154 h 3.04307 v -6.08614 h 1.51533 v 1.52154 h 3.04274 v 1.52153 h 9.12892 v 3.04307 h -1.52124 v 6.08614 h 1.52124 v 1.52154 h -1.52124 v 1.52153 h 1.52124 v 1.52154 h -1.52124 v 1.52153 h -1.52154 v 1.52154 h 1.52154 v 3.04276 h 3.04278 v -3.04276 h 1.52153 v -13.6932 h 6.08614 v -1.52153 h 1.52154 v 3.04307 h 4.56427 v -1.52154 h 1.52153 v -1.52153 h 1.52154 v 1.52153 h 1.52153 v 1.52154 h 1.52154 v 1.52153 l 1.52153,1.52154 h 1.52125 v 1.52153 h 1.52153 v 3.04276 h 1.52154 v 1.52154 h 1.52153 v 7.60767 h 1.52154 v 1.52153 h 1.52153 v 4.5643 h 1.52154 v 1.52153 h 1.5212 v 3.04307 h -1.5212 v 3.04307 h -1.52154 v 4.5643 h 1.52154 v 3.04307 h 4.56427 v 4.56429 h 1.52154 v -1.52153 h 1.52156 v -1.52154 h -1.52156 v -1.52153 h -1.52154 v -1.52154 h -1.52153 v -3.04276 h -1.52154 v -1.52153 h 1.52154 v -1.52154 h 1.52153 v -1.52153 h 1.52154 l 1.52156,-1.52154 h 1.5215 v 1.52154 h 1.5215 v 3.04276 h 3.0431 v 4.5646 h 1.5215 v 4.56461 h 3.0428 v -1.52154 h -1.5215 v -3.04307 h -1.5213 v -1.52153 h 1.5213 v -1.52154 h 1.5215 v 1.52154 h 3.0431 v 1.52153 h 1.5215 v 1.52154 h 1.5216 v 1.52153 h 1.5215 v -3.04307 h -3.0431 v -1.52153 h -1.5215 v -3.04276 h 1.5215 v -1.52154 h 1.5216 v -3.04307 h 1.5215 v -1.52153 l 1.5212,1.52153 v -1.52153 h 1.5215 v -3.04276 h 1.5216 v -3.04307 h 1.5215 v 1.52153 h 4.5581 v -1.52153 h 1.5216 v 3.04307 h 3.043 v 1.52153 h 1.5216 v 1.52154 h 1.5215 v 6.08583 h -1.5215 v 1.52153 h -1.5216 v 1.52154 h -1.5215 v -1.52154 h -3.0431 v 1.52154 h -3.043 v -1.52154 h -3.0428 v 1.52154 h 1.5212 v 7.60736 h 1.5216 v 1.52154 h 1.5215 v 1.52153 h 1.5215 v -4.56429 h -1.5215 v -3.04307 h 3.0431 v -1.52154 h 1.5215 v 1.52154 h 1.5215 v 1.52153 h 6.0858 v 1.52154 h 3.0431 v 3.04307 h -4.5643 v 1.52153 h 6.0858 v 4.5646 l 1.5216,1.52154 v 3.04276 h -1.5216 v 1.52153 h -1.5215 v 1.52154 h -4.5643 v -1.52154 h -1.5215 v -1.52153 h -3.0431 v 1.52153 h 3.0431 v 1.52154 h 1.5215 v 1.52153 h 1.5212 v 1.52154 h -3.0427 v -1.52154 h -3.0431 v -1.52153 h -1.5215 v -3.04276 l -1.5215,-1.52154 v -1.52153 h -1.5216 v -1.52154 h -1.5215 v 1.52154 h 1.5215 v 1.52153 h -4.5646 v 1.52154 h 3.0431 v 1.52153 h 1.5215 v 1.52154 h 1.5216 v 1.52153 h 1.5215 v 3.04276 h 1.5215 v 4.56461 h 1.5216 v 4.5646 h -3.0431 v 3.04276 h -1.5215 v 1.52153 h -1.5216 v -1.52153 h -1.5215 v -1.52153 h -1.5215 v -1.52154 h -1.5216 v -1.52153 h -1.5212 v 1.52153 h 1.5212 v 1.52154 h 1.5216 v 3.04306 h 1.5215 v 3.04276 h -1.5215 v 1.52154 h -13.6929 v 1.52153 h -1.5216 v 1.52154 h -1.5215 v 1.52153 h -3.0431 v 1.52154 h -1.5215 v -1.52154 h -1.5212 v 4.56461 h -1.5216 v 1.52153 h -1.5215 v 1.52154 h -1.52153 v 1.52153 h -1.52154 v 1.52154 h -1.52153 v 1.52153 h -4.56432 v -1.52153 l -1.52153,1.52153 v -1.52153 h -1.52154 v -1.52154 h -1.52153 l -1.52154,-1.52153 h -7.60734 v 1.52153 h 3.04274 v 1.52154 h 3.04307 v 1.52153 h 1.52153 v 1.52154 h 1.52154 v 1.52153 h -1.52154 v 1.52154 h 1.52154 l 1.52153,1.52153 h -3.04307 v 1.52154 h 1.52154 v 3.04275 h 1.52153 v 3.04307 h -1.52153 v 6.08614 h -1.52154 v 3.04276 H 766.067 v 3.04307 h -1.52153 v -1.52154 h -1.52154 v -1.52153 h -1.52153 v -1.52153 h -1.52121 v 3.04306 h 1.52121 v 1.52154 h -4.56428 v 1.52153 h -1.52153 v 1.52153 h -1.52154 v 1.52154 h -3.04307 v 3.04276 h -4.56431 v 1.52153 h -1.52154 v 1.52154 h -1.52153 v -3.04276 h -1.52154 v -1.52154 h -4.56427 v -1.52153 h -3.03687 v -1.52154 h -1.52154 v -1.52153 h -3.04278 v 1.52153 h -3.04307 v -1.52153 H 724.993 v 1.52153 h -1.52154 v 1.52154 h -3.04307 v -1.52154 h -1.5212 l -1.52153,-1.52153 h -1.52154 v 1.52153 h -3.04307 v -1.52153 h -7.60767 v 1.52153 h -1.52125 v 1.52154 h -1.52153 v 3.04276 h -1.52154 v 1.52153 h -1.52153 v 3.04307 h -1.52154 v 1.52154 h -1.52153 v 1.52153 h -3.04274 v 3.04307 h -3.04307 v 4.56429 h -1.52153 v 1.52154 h -1.52154 v 1.52153 h -1.52153 v 3.04307 h -1.52154 v 1.52154 h -1.52124 v 1.52153 l -1.52154,-1.52153 v 1.52153 h -1.52153 v -1.52153 h -1.52154 v 1.52153 h 1.52154 v 1.52154 h 1.52153 l -1.52153,1.52153 h 1.52153 v 3.04276 h 1.52154 v 3.04307 h 1.52124 v 1.52154 h 1.52154 v 1.52153 h 1.52153 v 1.52154 h 1.52154 v 1.52153 h 1.52153 v 18.264 h -1.52153 v 4.56429 h -1.52154 v 4.5646 h -1.52153 v 7.60768 h -1.52154 v 4.56429 h -1.52124 v 1.52154 h -3.04307 v 1.52153 h -1.52154 l -1.52153,-1.52153 v -1.52154 h -1.52154 V 318.001 h -4.5646 v -1.52154 h -1.52154 v -1.52153 h -3.04274 v -1.52154 h -1.52153 v -1.52153 h -6.08614 v 1.52153 h -1.52124 v 3.04307 h 1.52124 v 1.52154 h -6.07932 v 1.52153 h -1.52154 V 318.001 h -4.5646 v 1.52153 h -3.04307 v 1.52154 h -1.52153 v -1.52154 h -9.12892 V 318.001 h 3.04307 v -3.04307 h -1.52154 v -3.04307 h -1.52153 v -1.52154 h -3.04307 v -1.52153 h -3.04274 v -6.08583 h -1.52154 l -1.52154,-1.52153 h -4.5646 v -1.52154 h -1.52154 v -1.52153 h -4.5646 v -1.52154 h -1.52123 l -1.52153,-1.52153 h -4.56461 v -1.52154 h -3.04276 v 1.52154 h -1.52153 v 1.52153 h 4.56429 v 1.52154 h -1.52153 v 1.52153 h 1.52153 v 1.52154 h 3.04307 v 1.52153 h 1.52154 v 1.52153 h 1.52153 v 1.52154 h 1.52123 v 1.52153 h 3.04307 v 1.52154 h 1.52153 v 3.04276 h 1.52154 v 4.5646 h -1.52154 v 1.52154 h -9.1289 v -1.52154 h -4.5646 v -1.52153 h -4.5643 v -1.52154 h -1.52153 v 1.52154 h 1.52153 v 1.52153 h 1.52154 v 1.52154 h 4.56429 v 1.52153 h 1.52154 v 1.52154 h -1.52154 v 1.52153 h -1.52153 v 1.52154 h -3.04276 v 1.52153 h -1.52154 v 1.52154 h 6.08583 v -1.52154 h 10.65044 v 3.04276 h 1.52153 v 10.65074 h -1.52153 v -1.52153 h -6.08583 v 1.52153 h 1.52153 v 3.04276 h 3.04276 v 1.52154 h 1.52154 v 3.04307 h 4.5646 l 1.52154,1.52153 h 1.52153 v 1.52154 h 3.04308 v 1.52153 h 3.04274 v 1.52154 h 4.5646 v 1.52153 h 1.52154 v -1.52153 h 6.08585 v 1.52153 h 3.04307 v -1.52153 h 4.5646 l 1.52153,-1.52154 v 1.52154 h 1.52154 v -1.52154 h 4.56427 v -1.52153 h 1.52154 v 1.52153 h 1.52153 v -3.04307 h -1.52153 v -1.52153 h 1.52153 V 345.388 h 3.04307 v 1.52154 h 1.52125 l 1.52153,1.52153 v 1.52154 h -1.52153 v 1.52153 h 1.52153 v 1.52154 h 1.52154 v -4.56461 h 1.52153 v -1.52153 h 1.52154 v 1.52153 h 1.52153 v 1.52154 h -3.04307 v 3.04338 h 3.04307 v -3.04338 h 1.52154 v 4.5646 h 3.04273 v 3.04307 h 1.52154 v 4.56429 h 1.52153 v -3.04276 h 3.04307 v 1.52154 h 1.52154 v 1.52153 h 3.04307 v 1.52154 h 3.04278 v 1.52153 h 3.04307 v 1.52154 h 1.52153 v 1.52153 h 1.52154 v 1.52154 h 1.52153 v 1.52153 h 1.52154 v 1.52154 h 1.5212 v 1.52153 h -1.5212 v 1.52154 h 1.5212 v 3.04276 l 1.52154,0.006 v 3.04307 h 1.52153 v 3.04276 h 1.52154 v 3.04307 h 1.52153 v 4.5643 h 1.52153 v 3.04306 h 1.52154 v 1.52154 h 1.52124 v 3.04307 h 1.52154 v 1.52153 h 1.52153 v 1.52154 h 1.52154 v 3.04276 h 1.52153 v 1.52153 h 1.52154 v 1.52154 h 1.52153 v 3.04307 h 1.52154 v 6.08582 h -1.52154 v 4.56461 h 1.52154 v 7.60736 h 1.52153 v 3.04307 h 1.52154 v 3.04307 h 1.5212 v 3.04276 h 1.52154 v 3.04307 h -3.04274 v 13.69288 h -1.52154 v 3.04307 h -1.52153 v 1.52154 h -1.52154 v 3.04276 h -1.52153 v 4.5646 h 1.52153 v 1.52154 h -4.5646 v 3.04307 h -1.52154 v 4.5646 h -1.52153 v 1.52153 h -1.52154 v 3.04276 h -1.52124 v -1.52153 h -4.5646 v 1.52153 h -1.52154 l -1.52153,-1.52153 h -1.52154 v 3.04307 h -1.5212 v 1.52153 h -1.52154 v -1.52153 h 1.52154 v -1.52154 h -1.52154 v -1.52153 h -4.5646 v -1.52154 h -1.52154 v -1.52153 h -1.52153 v 4.56429 h -1.52125 v 4.56461 h -4.5646 v -1.52154 h -6.08614 v 3.04307 h -3.04307 v 3.04276 h -3.04274 l -1.52153,1.52154 v 6.08614 h 1.52153 v 7.60736 h -3.04307 v 1.52154 h -3.04307 v 1.52153 l -1.52153,-1.52153 v 1.52153 h -1.52125 v -1.52153 h -1.52153 v -1.52154 h -1.52154 v 1.52154 h 1.52154 v 1.52153 h 1.52153 v 1.52153 h 4.56432 v 3.04276 h 1.52153 v -1.52153 l -1.52153,-1.52154 h 1.52153 v -1.52153 h 1.52154 v 1.52153 h 1.52153 v -1.52153 h 1.52154 v -1.52153 h 1.5212 v -4.5643 h 1.52153 v -3.04307 h -1.52153 v -1.52153 h 1.52153 v -1.52154 h -1.52153 V 491.457 h 3.04307 v 1.52154 h 1.52153 V 491.457 h 3.04307 v -1.52153 h 1.52154 v -1.52154 h 4.5646 v -1.52153 h 1.52125 v 1.52153 h 3.04307 v 1.52154 h 3.04307 v -1.52154 h 3.04307 v 10.65044 h -3.04307 v 3.04307 h -1.52154 v -1.52154 h -3.04307 v 1.52154 h -1.52153 v 3.04276 h -1.52125 v 1.52153 h -1.52153 v 6.08614 h 1.52153 v 6.08583 h -1.52153 v -1.52154 H 683.919 v 1.52154 h -1.52154 v 1.52153 h -3.04307 v 1.52154 h -1.52153 v 1.52153 l 3.04307,1.52154 h 13.6929 v -1.52154 h 3.04307 v 1.52154 h 1.52154 v 3.04307 h 1.52153 v 3.04276 h -1.52153 v 1.52153 h 1.52153 v 3.04307 h 1.52154 v 1.52154 h 1.52153 v 1.52153 h 1.52154 v 1.52154 h 1.52153 v 1.52153 h 3.04307 v -1.52153 h -3.04307 v -1.52154 h -1.52153 v -1.52153 h -1.52154 v -3.04307 h -1.52153 v -1.52154 h 1.52153 v -6.08583 h -1.52153 v -1.52153 h -1.52154 v -1.52154 h -1.52153 v -1.52153 h 1.52153 v -1.52154 h 1.52154 v -1.52153 h 3.04307 v -1.52154 h 7.60734 v 1.52154 h 1.52153 v -3.04307 h -1.52153 v -3.04276 h -3.04274 v -3.04307 h -1.52153 v -3.04307 h -1.52154 v -1.52153 h -1.52153 v -3.04307 h -1.52154 v -1.52154 l 1.52154,-1.52153 v -6.08583 h -1.52154 v -4.56461 h 1.52154 v -4.56429 h 1.52153 v 1.52153 h 1.52154 l 1.52153,1.52154 h 1.5212 v 1.52153 h 1.52154 v 1.52154 h 3.04307 v 1.52153 h 1.52153 v 1.52154 h 1.52154 v 1.52153 h 3.04278 v 1.52154 h 3.04307 v 1.52153 h 10.63773 v -1.52153 h 4.5646 l 1.52153,-1.52154 h 1.52154 v -1.52153 h 4.56427 V 491.457 l 1.52154,1.52154 V 491.457 h 3.04307 v -1.52153 h 3.04307 v -1.52154 h 1.52153 v -1.52153 h -1.52153 v -1.52154 h 1.52153 v -1.52153 h 3.04307 v -1.52154 h 1.52125 v -3.04306 h -1.52125 v 1.52153 h -4.5646 v -4.56429 h -1.52154 v -3.04307 h -1.52153 v -1.52154 h 1.52153 v -1.52153 h 1.52154 v 1.52153 h 1.52153 v -1.52153 h 3.04307 v 1.52153 h 1.52125 v -1.52153 h 15.22183 v 1.52153 h -1.52153 v 1.52154 h 1.52153 v 1.52153 h 1.52154 v 1.52154 h -1.52154 v 1.52153 h 1.52154 v 1.52153 h 1.52153 v -1.52153 h 3.04308 v -3.04307 h 3.0431 v -3.04276 h 7.6073 v 1.52154 h 7.6074 v 1.52153 h 6.0861 v 1.52154 h 4.5581 v 1.52153 h 4.5646 v 1.52153 h -3.043 v 1.52154 h -1.5216 v 1.52153 h -1.5215 v 1.52154 h 3.0431 v 3.04276 h -1.5216 v 1.52153 h 1.5216 v 4.56461 h -3.0431 v 1.52153 h 1.5215 v 1.52154 h 1.5216 v 1.52153 l 1.5215,1.52154 h 4.5643 v -1.52154 h 1.5215 v -3.04307 h -1.5215 v -3.04276 h -1.5215 v -6.08614 h -3.0428 l -1.5215,-1.52153 h 1.5215 v -3.04276 h 1.5215 v -1.52154 h 1.5213 v 4.5643 h 1.5215 v 1.52153 h 3.0431 v 1.52154 h 1.5215 v -1.52154 h -1.5215 v -1.52153 h 4.5646 v 3.04307 h -1.5216 v 1.52153 h 1.5216 v -1.52153 h 1.5212 l -1.5212,-1.52154 h 1.5212 v 3.04276 h 3.0431 v 1.52154 h 1.5215 v 1.52153 h 3.0431 v -6.08583 h -1.5216 v -1.52153 h 1.5216 v -1.52154 h 1.5215 v -1.52153 h 1.5215 l 1.5216,1.52153 v -1.52153 h 1.5215 v 1.52153 h -4.5646 v 3.04276 h 1.5215 v 1.52154 h 1.5216 v -1.52154 h 3.0427 v -3.04276 h 1.5216 v 1.52154 h 3.043 v -1.52154 h 1.5216 v -3.04307 h 1.5215 v 1.52154 h 1.5212 v -3.04276 h 1.5216 v 1.52153 h 1.5215 v -1.52153 h -1.5215 v -1.52153 h 1.5215 v -1.52154 h 3.0431 v -1.52153 h 6.0861 v -1.52154 h 3.0431 v 1.52154 h 4.5643 v 1.52153 h -1.5216 v 4.56429 h 1.5216 v 1.52154 h 1.5215 v 1.52153 h 1.5215 v 1.52154 h 10.6505 v -1.52154 h 1.5215 v -3.04276 h 1.5212 v -1.52153 h 6.08 v 1.52153 h 4.5643 v -1.52153 h 1.5215 v 1.52153 h 1.5216 v 1.52154 h 1.5215 v -1.52154 l 1.5215,1.52154 h 1.5216 v 3.04276 h -1.5216 v 1.52153 h -1.5215 v 1.52154 h 1.5215 v -1.52154 h 1.5216 v -1.52153 h 1.5212 v -1.52154 h 1.5215 v 1.52154 h 1.5215 v 1.52153 h -1.5215 l 1.5215,1.52154 h -1.5215 v 1.52153 h 1.5215 v 1.52154 h 1.5216 v 1.52153 h 3.043 v 1.52154 h 1.5216 v 1.52153 h 1.5215 v 1.52154 h 1.5215 v 3.04307 h -1.5215 v 3.04276 h -1.5215 v 3.04307 h 1.5215 v 1.52153 h 1.5215 v 1.52153 h 6.0859 v 1.52154 h 6.0861 v 1.52153 h 1.5212 v 3.04307 h -1.5212 v 1.52154 h -6.0861 v 3.04276 h -1.5215 v 1.52153 h -1.5216 v 1.52154 h -1.5212 v 1.52153 h -1.5216 v 1.52154 h -1.5215 v 3.04307 h -1.5215 v 1.52153 h -1.5216 v 1.52154 h -1.5215 v 1.52153 h -1.5215 v 1.52154 h -1.5216 v 1.52153 h -1.5215 v 1.52154 h -1.5215 v 1.52153 h -1.5212 v 1.52153 l -1.5216,1.52154 v 1.52153 h -4.5646 v 1.52153 h -1.5215 v 3.04276 h -1.5213 v 3.04307 h -1.5215 v 3.04307 h -1.5215 v 3.04276 h -1.5216 v 3.04307 h -1.5215 v 6.08614 h -1.5215 v 4.5643 h -1.5216 v 6.08613 h -1.5215 v 13.6994 h 1.5215 v 3.04306 h -1.5215 v 1.52154 h 1.5215 v 3.04307 h -1.5215 v -1.52185 h -1.5215 v -3.04276 h -1.5216 v 4.5643 h 1.5216 v 1.52153 h 1.5215 v 1.52154 h 1.5215 v -1.52154 h 1.5216 v 7.60737 h 1.5215 v 4.5646 h 1.5215 v 3.04307 h 1.5216 v 1.52154 h 1.5215 v 3.04276 h 1.5215 v 7.60736 l -1.5215,1.52153 h 1.5215 v 1.52154 h -1.5215 v 6.08614 h 1.5215 v 12.17197 h 1.5213 v 9.12889 h 1.5215 v 9.1289 h 3.0431 v 1.52154 l 1.5215,1.52153 v 1.52154 h 1.5216 v 18.25748 h -1.5216 v 3.04307 h -1.5215 v 1.52154 h -3.0431 v 1.52153 h 6.0862 v -1.52153 h 3.0427 v 1.52153 h 1.5215 v 6.08583 h 1.5216 v 3.04307 h -1.5216 v 4.56429 h -1.5215 l -1.5215,-1.52184 -1.5212,-1.52154 -4.5646,1.52154 h -1.5216 l -3.0428,-1.52154 -4.5646,1.52154 -3.043,-1.52154 h -4.5646 v 4.56461 l -3.0431,1.52153 -6.0858,-3.04307 -4.5643,-1.52153 -4.5646,3.04307 -3.0431,-4.56461 -1.5215,-4.56429 -6.0859,-1.52154 -4.5646,1.52154 -3.043,4.56429 h -3.0428 l -3.0431,3.04307 v 6.08614 l -1.5215,6.08583 v 16.73657 l 1.5215,3.04276 v 4.56461 l 1.5216,4.56429 -6.0862,1.52154 -6.0858,6.08613 -1.5215,6.08583 1.5215,3.04307 -1.5215,6.08615 h -4.5646 l -4.5646,3.04273 1.5215,3.04307 v 6.09234 l 1.5215,3.04278 1.5216,1.52154 -1.5216,9.1292 1.5216,4.56428 -1.5216,6.08614 -3.043,-3.04307 -1.5213,1.52153 1.5213,3.04307 v 1.52154 l -4.5581,-3.04307 -1.5213,1.52153 v 3.04307 l 3.0428,3.04278 -1.5215,3.04307 3.043,1.52154 v 4.5646 l -1.5215,3.04307 1.5215,3.04274 -1.5215,3.04307 -4.5643,1.52153 -7.6077,7.60739 1.5216,4.5646 v 3.04274 l -3.0428,1.52153 -3.0431,-1.52153 h -3.043 l -3.0431,-1.52153 h -4.5646 l -3.0428,-3.04274 -6.0861,1.52153 -4.56431,-4.5646 h -4.56461 l -3.04307,3.04307 -4.5646,1.52153 -1.5212,3.04274 h -9.12921 l -13.69291,4.5646 -7.60114,3.04307 -1.52154,4.56432 v 3.04307 l -6.08614,4.56427 h -4.56431 l -4.5646,3.04307 -6.08581,1.52154 -3.04307,-1.52154 v -4.5646 l -1.52154,-3.04307 1.52154,-4.56428 -3.04307,-4.5646 v -3.04278 l -6.08585,-3.04307 v -4.5646 l -4.56461,-3.04274 1.52154,-6.08614 -4.56461,-6.08585 -1.52153,-4.56461 1.52153,-1.52153 v -6.08581 l -1.52153,-4.5646 -1.5212,-1.52154 -1.52154,-3.04307 -4.5646,-1.52153 -7.60739,-1.52154 -6.08614,-3.04278 -4.5646,3.04278 -4.56427,-3.04278 -4.56461,3.04278 -1.51505,3.04307 -3.04307,4.56461 h -3.04274 l -6.08613,1.52153 -6.08614,-3.04307 -7.60739,-3.04307 -6.08581,6.08614 h -4.56461 l -6.08614,-3.04307 -1.52153,3.04307 -1.52154,4.56461 h -1.52122 l 1.52122,6.0858 -1.52122,6.08614 -3.04307,1.52154 -4.56461,-1.52154 v 6.08585 l -3.04276,1.52154 -3.04306,-3.04278 -4.56461,-1.52154 -6.08583,3.04278 -4.5646,1.52154 h -7.60117 l -4.56429,-1.52154 -1.52154,3.04307 1.52154,1.52154 1.52122,4.56427 v 6.08614 l -3.04276,4.5646 -1.52153,6.08585 -3.04307,1.52154 h -6.08614 l -7.60736,7.60767 3.04307,6.08581 -1.52154,4.5646 -3.04307,1.52154 -1.52153,-3.04307 -1.52154,-1.52153 -9.1289,-3.04274 h -3.04276 l -3.04307,6.0858 -4.5646,6.08614 -3.04307,-1.52153 h -4.56429 l -3.04307,1.52153 -1.52153,6.08585 1.52153,3.04307 4.5646,1.52154 3.04276,1.52153 1.52154,4.56461 h -3.04307 l -3.04276,-1.52154 h -6.08614 l -3.04276,3.04307 -3.04307,1.52154 -6.08614,1.52153 -7.60116,3.04274 -3.04276,4.5646 v 4.56432 l -3.04307,6.08614 h -3.04307 l -3.04307,3.04307 -3.04276,1.52153 1.52153,1.52154 1.52123,6.08581 3.04307,6.08613 -3.04307,1.52154 v 3.04278 l 3.04307,1.52153 h 3.04307 l 3.04307,1.52154 -1.52154,4.5646 -3.04307,4.56461 -3.04307,4.56427 -4.56429,1.52154 h -7.60767 l -1.52154,4.5646 -4.56429,3.04278 -6.08614,6.09234 -7.60737,1.52153 h -10.65074 l -9.1289,-3.04278 -4.56429,3.04278 -9.1289,3.04307 -6.07994,6.08614 -6.08583,7.60736 -6.08614,3.0431 -9.1289,1.5215 h -13.69288 l -7.60767,-3.0431 -3.04307,-1.5215 -4.56429,3.0431 -4.56461,4.5643 -4.56429,-1.5216 -6.08614,3.0431 -6.08614,6.0858 -3.04276,1.5216 -6.08614,3.043 h -9.12239 l -9.12921,-7.6073 -7.60736,-6.0862 -4.56461,-6.0858 -3.04307,-12.1723 -3.04276,-1.52153 -1.52153,3.04307 -4.56461,4.5646 -7.60736,3.04276 -4.5646,-3.04276 -3.04307,4.56436 h -4.5643 l -1.52153,-1.5216 -4.56461,-1.52151 v -6.08585 l -4.56429,-4.5646 -1.52153,-4.56461 -1.52154,-6.08581 -4.5646,-1.52153 -1.52154,-6.08614 v -4.56432 l -3.03656,-1.52153 -9.1289,-1.52154 -1.52153,-1.52153 -4.56461,-4.5646 -4.5646,-1.52154 -6.08583,1.52154 -9.1289,6.08613 h -4.5646 l -1.52123,1.52154 -4.5646,-1.52154 -6.08614,3.04278 h -3.04307 l -7.60736,-7.60738 -7.60737,-1.52153 -7.60767,-4.56428 -3.04307,-4.5646 -4.5581,-4.56461 1.52154,-6.08585 3.04307,-1.52153 1.52153,-6.08614 -1.52153,-3.04274 h -1.52154 l -4.56429,1.52154 -4.5646,-1.52154 -1.52154,-4.5646 -1.52153,-3.04307 -3.04276,-3.04278 -3.04307,-6.08614 -1.52154,-1.52154 v -7.60734 l 3.04307,-6.08614 4.5643,-3.04307 -1.52154,-7.60738 v -9.12888 h 4.56461 l 1.52153,-3.04278 v -1.52154 l 1.52154,-1.52153 3.04275,-1.52153 -3.04275,-4.56461 -1.52154,-3.04307 1.52154,-4.56427 16.73626,-16.7366 1.52153,-7.60734 -1.52153,-6.08585 -1.52154,-7.60734 1.52154,-4.56461 6.08583,-4.5646 10.65043,-7.61387 10.65074,-7.60739 -1.52153,-4.56427 -6.08614,-3.04307 -3.04307,-4.5646 -7.60737,-4.56432 v -4.5646 l -3.04306,-1.52154 -3.04276,-4.56427 -4.56461,1.52153 -4.5646,-1.52153 v -4.56461 l -3.04307,-6.08583 h -3.04276 l -4.5646,-1.52153 -3.04307,1.52153 -1.52123,1.52154 h -4.5646 l -10.65044,-10.65075 3.04307,-6.08583 h -18.25748 l -3.04307,-3.04306 h -3.04307 l -4.5643,1.52153 -3.04307,-3.04276 h -6.086135 l 1.52154,-4.5646 -3.04276,-1.52154 -1.52154,-3.04307 -4.5646,-3.04276 v -3.04307 h 3.04307 l -1.52154,-1.52153 v -3.04276 h 1.52154 v -1.52154 l 1.52153,1.52154 v -1.52154 h 1.52154 v -1.52153 h 1.52122 v -1.52154 h 1.52154 l -1.52154,-1.52153 v -1.52154 l 1.52154,-1.52153 v -9.1289 h 1.52153 v -1.52153 h 1.521535 v -1.52153 h 3.04307 v -1.52154 h 1.52153 v -3.04307 h 1.52123 v -3.04307 h 1.52153 v -6.08583 h -1.52153 v -3.04307 h -1.52123 v -1.52153 h 1.52123 v -1.52154 h 1.52153 v -1.52153 h 3.04307 v 1.52153 h 6.08583 v -1.52153 h 6.08614 v -1.52153 h 3.04307 v -1.52154 h 3.04307 v -1.52153 h 1.52153 v -1.52154 h 1.52123 v -1.52153 h 1.52153 v -3.04276 h 1.52154 v -4.56461 h 1.52153 v -4.5646 h 1.52154 v -3.04276 h 1.52153 l 1.52154,-1.52154 v -1.52153 h 1.52122 v -1.52154 h 1.52154 v -3.04307 h 1.52153 v -3.04275 h 1.52154 v -1.52154 h 1.52153 v -1.52153 h 3.04307 v -1.52154 h 3.04307 v -1.52153 h 1.52153 v -1.52154 h 1.52123 v -1.52153 h 1.52153 v -1.52154 h 1.52154 v -3.04307 h 1.52153 v -1.52153 h 1.52154 v -6.08583 h 4.56429 v -3.04307 h 1.52154 v -1.52154 h 1.52153 v -3.04306 h -1.52153 v -6.08583 h -1.52154 v -4.56461 h -1.52122 v -3.04927 h -1.52154 v -4.56429 h -1.52153 v -3.04307 h -1.52154 v -3.04307 h -1.52153 v -3.04307 h -1.52154 v -7.60736 h 1.52154 v -1.52154 h 3.04307 v -1.52153 h 3.04307 v 1.52153 h 3.04276 v 3.04307 h 1.52153 v 1.52154 h 6.08583 v -1.52154 h 3.04307 v -1.52153 h 4.5646 v 1.52153 h 4.56461 v 1.52154 h 1.52153 v 1.52153 h 1.52154 v 1.52154 h 1.52122 v 1.52153 h 3.04307 l -1.52153,1.52154 h 3.04307 v 1.52153 h 3.04306 l 1.52123,1.52154 h 4.5646 v 1.52153 h 4.56461 v -1.52153 h 1.52153 v -3.04307 h 1.52154 v -3.04276 h 1.52153 v -1.52154 h 1.52123 v -1.52153 h 1.52153 v -1.52154 h 3.04307 v -1.52153 h 3.04307 v -1.52154 h 4.56429 v -1.52153 h 3.03657 v -1.52154 h 1.52153 v -3.04307 h 3.04307 v -1.52153 h 3.04307 v 1.52153 l 1.52153,-1.52153 v 1.52153 h 3.04307 v 1.52154 h 4.5643 v 1.52153 h 1.52153 v 1.52154 h 1.52154 v 1.52153 h 4.5646 v 1.52154 h 3.04276 v -1.52154 h 3.04307 v -1.52153 l 1.52153,1.52153 v -3.04276 h 1.52154 v -3.04307 h 1.52153 v -7.60736 h 1.52154 v -9.1289 h -1.52154 v -1.52153 h 4.56461 v -3.04307 h 1.52122 v -1.52154 h -1.52122 v 1.52154 h -1.52154 v 1.52153 h -3.04307 v -6.08614 h -1.52153 v -3.04275 h -1.52154 v -9.1289 l -1.52153,-1.52154 v -1.52153 h -1.52153 v -3.04307 h 1.52153 v -3.04276 h -1.52153 v 3.04276 h -1.52154 v -1.52153 h -1.52153 v -1.52154 h -1.52123 v -1.52153 h -7.60767 v 1.52153 h -1.52154 v -1.52153 h -1.52122 v -1.52154 h -1.52154 v -1.52153 h -3.04307 v -1.52154 h -15.21534 v -1.52153 h -3.04307 v -1.52154 h -1.52154 v 1.52154 h -3.04307 v -1.52154 h -3.04276 v -1.52153 h -6.08613 v 1.52153 h -1.52154 v 1.52154 h -1.52153 v 7.60736 h -1.52123 v 1.52154 h -3.04307 v -1.52154 h -1.52153 v -1.52153 h -1.52154 v -1.52154 h -1.52153 v -3.04276 h -1.52123 v -12.17197 h -1.52153 v 1.52154 l -1.52154,-1.52154 h -4.5646 v -1.52153 h -1.52154 l -1.52153,-1.52154 h -4.5646 v -1.52153 h -1.52123 l -1.52153,-1.52154 h -1.52154 v -1.52153 h -3.04307 v -1.52153 h -1.52153 v -1.52154 h -3.04276 v -1.52153 h -1.52154 v -1.52154 h 1.52154 v -1.52153 h 1.52153 v -1.52154 h 1.52123 v -3.04307 h 1.52153 v -4.5646 h 3.04307 v -3.04276 l 1.52154,1.52153 v -3.04307 h 1.52153 v -3.04307 h 1.52123 v -1.52153 h 1.52153 v -1.52154 h 3.04307 v -1.52153 h 1.52153 v -3.04276 h 1.52154 v -1.52153 h 3.04307 v -3.04307 h 1.52153 v -1.52154 h 1.52154 v -3.04307 h 1.52153 v -1.52153 h 1.52123 v -1.52154 h 1.52153 v -1.52153 h 1.52154 v -1.52154 h 1.52153 v -3.04276 h 1.52154 v -7.60736 h 3.04276 v 1.52153 h 3.04307 v -1.52153 h 3.04307 v -1.52154 h 3.04306 v -1.52153 h 3.04276 v -4.5646 h 4.56461 v 3.04307 h 1.52153 v -1.52154 h 1.52154 v -7.60736 H 222.938 v 1.52153 h -3.04307 v 1.52154 h -1.52123 v -1.52154 h -3.04306 v -4.5646 h 1.52153 v -1.52154 h 3.04276 v -1.52153 h 3.04307 v -1.52154 h 1.52153 v 1.52154 h 4.56461 v -1.52154 h -3.04307 v -3.04276 h 1.52153 v -1.52153 h -3.04307 v -1.52154 h 1.52154 v -1.52153 h 3.04307 v -1.52154 h -1.52154 v 1.52154 l -1.52153,-1.52154 v -1.52153 h 1.52153 v -1.52153 h 1.52154 v -3.04307 l 1.52153,-0.006 v -3.04276 h 1.52154 v -1.52153 h 3.04276 v -4.56463 h 1.52153 v -3.04276 h 1.52154 v -3.04307 h 1.52153 v -1.52153 h 1.52154 v -1.52154 h -1.52154 v -1.52153 h 1.52154 v -4.56461 h 1.52153 v -1.52153 h 1.52153 l -1.52153,-1.52153 h 1.52153 v -3.04276 h 1.52123 v -3.04307 h -1.52123 v -1.52154 h 1.52123 v -1.52153 h 1.52153 v -3.04276 h 3.04307 v -1.52154 h 4.56461 v -3.04307 h 1.52153 v -3.04276 h 1.52154 v -1.52153 h -1.52154 v -1.52154 h -1.52153 v -1.52153 h -3.04307 v -1.52154 h 4.5646 v -1.52153 h 1.52154 v 3.04276 h 1.52153 v -1.52153 h 1.52123 v -3.04276 h 3.04307 v -1.52154 h 1.52153 l 1.52153,-1.52153 h 1.52154 v -1.52154 h 1.52153 v -1.52153 h 3.04276 l -1.52153,-1.52154 h 3.04307 v -1.52153 h 1.52153 v -1.52154 h 1.52154 v -3.04307 h 1.52153 v -1.52153 h 3.04276 v -6.08614 h 1.52154 v -1.52154 h 1.52153 v -1.52153 h 1.52154 v -1.52153 h 1.52153 v -1.52154 h 6.08614 v -3.04276 h 1.52153 v -1.52153 h 1.52123 v -1.52154 h 1.52153 v -1.52153 h 1.52154 v -1.52154 h 1.52153 v -1.52153 h 1.52154 v -3.04307 h 3.04276 v -3.04276 h -1.52123 v -3.04307 h 1.52123 v -3.04307 h 1.52153 v -1.52154 h 3.04307 v -1.52153 h 1.52154 v -3.04276 h 3.04307 v -1.52153 h 1.51502 v -1.52154 h 3.04307 v -1.52153 h 3.04307 v -1.52154 h 1.52154 v 1.52154 h -1.52154 v 3.04276 h -1.52153 v -1.52154 h -1.52154 v 1.52154 h -1.52153 v 1.52153 h -1.52154 v 3.04307 h 1.52154 v 1.52153 h 1.52153 v 1.52154 h 4.56461 v -6.08614 h 1.52153 v -3.04276 h 1.52123 v -3.04307 h 1.52153 v -4.56429 h 4.56461 v -1.52154 h 3.04276 v -1.52153 h 4.5646 v -1.52154 h 4.5646 v -1.52153 h 3.04307 v 1.52153 h -3.04307 v 3.04307 h 3.04307 v -1.52153 h 1.52154 l 1.52153,-1.52154 h 3.04276 v 1.52154 h 1.52154 v -1.52154 h 1.52153 v -1.52153 h 1.52154 v -3.04307 h 1.52153 v -1.52154 h -1.52153 v -1.52153 h 3.04276 v -1.52154 h 4.5646 v -1.52153 h 1.52153 l -1.52153,-1.52153 h 3.04307 v -7.60737 h -1.52154 v -1.52153 h 4.56461 v -1.52154 h 1.52153 v 1.52154 h 4.56429 v -1.52154 h 1.52154 v -3.04307 h 1.52153 v -1.52153 h 1.52154 v -3.04276 h 1.52153 v -1.52154 h 1.52154 v -1.52153 h 1.52122 v -1.52154 h 4.56461 v -1.52153 h 6.07963 v 1.52153 h 4.5646 v 1.52154 h 6.08583 v -1.52154 h 1.52154 v -1.52153 h 1.52153 v -3.04306 h 1.52154 v -1.52153 h 3.04307 v -1.52153 h 1.52122 v -3.04307 h 1.52154 v -1.52154 h 1.52153 v -1.52153 h 1.52153 v -1.52153 h 7.60768 v 1.52153 h 1.52153 v -1.52153 h 1.52123 v 1.52153 h 1.52153 v 1.52153 h 1.52154 v 1.52154 h 3.04307 v -1.52154 h -1.52154 v -4.56429 h -1.52153 v -3.04307 h -1.52154 v -4.5646 h 4.56461 v 3.04307 h 1.52153 v -1.52154 h 1.52154 v 1.52154 h 1.52122 v 1.52153 h 3.04307 V 216.065 h -3.04307 v -1.52154 h 1.52154 v -1.52153 h 1.52153 v -1.52154 h -1.52153 v -3.04307 h -1.52154 v -3.04276 h 1.52154 v -1.52153 h 1.52153 v -1.52154 h 4.56461 l 1.52153,1.52154 h 3.04276 v -7.62038 h 1.52153 v -1.52154 h 4.56461 v -1.52153 h 1.52153 v -3.04307 h 1.52154 v 1.52153 h 1.52153 v 1.52154 h 1.52154 v 1.52153 h 1.52122 v 4.56461 h 1.52154 v -4.56461 h 1.52153 l 1.52154,-1.52153 h 1.52153 v -3.04307 h 1.52154 v -1.52122 h 1.52153 v 1.52153 h 1.51503 v -1.52153 h 1.52153 v -1.52154 h -1.52153 v -3.04307 h 1.52153 v -7.60705 h 1.52154 v -1.52154 h 1.52153 v -1.52153 h 1.52154 v 3.04307 h 1.52153 v 1.52153 h 3.04276 v 1.52154 h 4.56461 v -1.52154 h 1.52153 v 7.60737 h -1.52153 v 1.52153 h 3.04306 v 4.56429 h 1.52123 v 1.52154 h -1.52123 v 1.52153 h 1.52123 v -1.52153 h 1.52153 v -1.52154 h -1.52153 v -4.56429 h 3.04307 v -1.52153 h 3.04307 v -9.1289 h 4.56429 v 1.52153 h 1.52154 v -4.5646 h 1.52153 v -1.52154 h 1.52154 v -1.52153 h 1.52153 v 1.52153 h 1.52154 v -1.52153 l -1.52154,-1.52154 h -1.52153 v 1.52154 h -3.04307 v -1.52154 h -3.04276 v 1.52154 h -3.04307 v 1.52153 h -1.52154 v 1.52154 h 1.52154 v 1.52153 h -3.04307 v -1.52153 h -1.52154 l -1.52153,-1.52154 v 1.52154 h -1.52123 v 3.04307 h -1.52153 v -4.56461 h -1.52153 v -4.56429 h 1.52153 v -3.04307 h 1.52153 v -1.52154 h 1.52123 v -1.52153 h 3.04307 v -1.52154 h 1.52153 v -1.52153 h 1.52154 v -1.52153 h 1.52153 v -1.52154 h 1.52154 v 1.52154 h 10.65043 v -1.52154 h 1.52153 v 1.52154 h 6.08583 v 1.52153 h 1.52154 v 1.52153 h 3.04307 v 1.52154 h 1.52153 v 1.52153 h 1.52122 v 1.52154 h 1.52154 v 1.52153 h 1.52153 l -1.52153,-1.52153 h 1.52153 v -1.52154 h -1.52153 v -1.52153 h 1.52153 v -6.08614 h -1.52153 l -1.52154,-1.52153 h -1.52122 v -1.52154 h -1.52153 v -1.52153 h -1.52154 v -1.52154 h 3.04307 v 1.52154 h 3.04276 v -3.04276 l 1.52153,1.52153 v -1.52153 h 3.04307 v -1.52154 h 3.04307 v 1.52154 h -1.52153 v 1.52153 h 1.52153 v 1.52154 h 1.52154 v 1.52153 h 3.04307 v 1.52154 h 4.56429 l 1.52154,1.52153 h 4.5646 v 1.52154 h 3.04276 v 1.52153 h 10.63804 v -1.52153 h 4.56429 v -1.52154 h 1.52154 v 1.52154 h 9.1289 v 1.52153 h 4.5646 v 4.56429 h 1.52153 v 1.52154 h 1.52154 v 1.52153 h 1.52153 v 1.52154 h 1.52154 v 1.52153 h 3.04276 v -1.52153 h 3.04307 v 1.52153 h 1.52153 v -3.04276 h 1.52154 v -1.52153 l -1.52154,-1.52154 v -1.52153 h 3.04307 v -1.52154 h 1.52123 v -1.52153 h 1.52153 v -1.52153 h 1.52154 v -1.52154 h 6.08614 v 3.04276 h 4.5643 v 1.52153 h 4.5646 v -1.52153 h 3.04307 v 3.04307 h 3.04307 v -1.52154 h 1.52121 v -3.04306 h -1.52121 v -1.52154 h -4.5646 v -1.52153 h -1.52154 v -1.52154 h -1.52153 v -3.04276 h -1.52154 v -1.52153 h -3.04307 v 1.52153 h -1.52154 v -1.52153 h 1.52154 v -1.52154 h -1.52154 v -4.5646 h 4.56461 v 1.52153 h 3.04307 v -1.52153 h 4.56461 v 1.52153 h 1.52153 v 3.04307 h 3.04274 v 1.52154 h 3.04307 v -1.52154 h 1.52153 v 1.52154 h 1.52154 v -1.52154 h -1.52154 v -1.52153 h -1.52153 v -1.52154 h -1.52153 v -3.04307 h -1.52154 v -1.52153 h -1.52153 v 1.52153 h -1.52121 v -3.04276 h -1.52153 v -3.04307 h -4.56461 v -1.52153 h -6.08614 v 1.52153 h -1.52154 v 1.52154 h -3.04276 v 3.04307 h -1.52153 v 3.04276 h -1.52154 v 1.52153 h -1.52153 v 1.52154 l -1.52154,1.52153 h -3.04276 v -1.52153 h 3.04276 v -1.52154 h -1.52153 v -3.04276 h -1.52123 l -1.52153,1.52154 v -3.04307 h -1.52154 v -3.04307 h -1.52153 v -1.52154 h -6.08583 v -1.52153 h -9.12921 v -1.52154 h -1.52153 v 1.52154 l -1.52154,-1.52154 v 1.52154 h -4.56429 v -1.52154 h -6.08614 v 3.04307 h -1.52123 v 1.52154 h -6.08614 v 4.5646 h 1.52154 v 4.5643 h -1.52154 v -3.04276 h -1.52153 v 3.04276 h -1.52154 v -4.5643 h 1.52154 v -15.21534 h 1.52153 v -9.12921 h -1.52153 v -3.04276 h 1.52153 v -3.04307 h 1.52154 v -3.04276 h 1.52153 v -1.52154 h 1.52154 v -6.086135 h 1.52153 v -1.521534 h 1.52123 v 3.043069 h -1.52123 v 3.04276 h 4.5643 v 3.04307 h 1.52153 v 1.52153 h -1.52153 v 1.52154 h 1.52153 v -1.52154 h 1.52154 v 1.52154 h 1.52153 v -1.52154 h 6.08583 v 1.52154 h 3.04307 v 1.52153 h 1.52153 v -7.60767 h -1.52153 v -1.52154 h -1.52153 v 1.52154 l -1.52154,1.52153 v -1.52153 h -3.04307 v 1.52153 h -1.52122 v -1.52153 h -1.52154 v -1.52154 h -3.04307 v -3.042755 h 6.08583 v -1.521534 h 1.52154 v -4.564605 h 1.52153 v -3.042759 h 1.52154 v -1.521535 h -1.52154 v -1.521535 h 1.52154 v -1.521534 h -3.04307 v -1.521535 h 1.52153 v -6.086139 h -1.52153 v -1.521535 h -1.52154 v 1.521535 h -1.52122 v 1.521535 h -1.52154 v 1.521534 h -3.04307 v -1.521534 h 3.04307 v -1.521535 h -1.52153 v -1.521535 h 1.52153 v -1.52153 h 1.52154 v -3.04307 h 1.52122 v -6.085829 h 1.52154 V 63.90223 l -1.52154,-1.521535 v -3.043069 h 1.52154 v -4.564294 h 1.52153 v -1.521535 h 1.52154 v -1.521535 h 1.52153 v 1.521535 h 1.52153 v 1.521535 h 4.56461 v -1.521535 h 3.04276 v -1.521535 h 1.52153 v -1.521535 h 1.52154 v -1.521534 h 1.52153 v -3.04307 h 3.04307 v 1.521535 h 7.60737 v -1.521535 h 1.52153 v -1.521535 h 3.04276 v -1.521534 h 3.04308 v -1.521535 h 1.52153 v -1.521535 h 1.52154 V 38.03645 h 1.52153 v -1.521535 h 1.52154 V 34.99338 h 3.04307 v -1.521535 h 1.52153 v -1.52153 h 3.04274 v -1.52154 h 1.52154 v -1.52153 h 3.04306 v -1.52154 h 4.55812 v -1.52153 h 1.52154 v -3.04307 h 3.04307 v 3.04307 h 3.04307 v 1.52153 h 3.04273 v 1.52154 h -1.52153 v 1.52153 h 1.52153 l 1.52154,-1.52153 v -1.52154 h -1.52154 v -1.52153 h -1.52153 v -1.52154 h -1.5212 v -3.04307 h -1.52154 v -6.08583 h 6.08581 v -1.52153 h 4.5646 v 3.04276 h -1.52153 v 1.52153 h 4.56431 v -3.04276 h -1.52124 v -1.52153 h -1.52154 v -1.52154 h 1.52154 v -1.52153 h 1.52124 V 1.5202347 Z M 667.18212,515.80051 h -1.52154 v 1.52153 h 1.52154 z m -7.60768,-12.17197 h -1.5212 v 1.52154 h 1.5212 z m -1.5212,-4.5646 h -1.52154 v 1.52153 h 1.52154 z m -489.8908,120.19783 h -1.52153 l 1.52153,1.52153 z m 543.12592,-77.59641 v 3.04307 h 1.52154 v -1.52154 z m 68.46749,-57.81677 h -1.52153 v 1.52153 h 1.52153 z m 92.79904,0 h -1.5215 v 4.5646 h 1.5215 v 1.52154 h 1.5212 v 1.52153 h 1.5216 v -1.52153 h 1.5215 v -4.56461 h -4.5643 z m -597.89804,54.77339 h -1.52153 v 1.52154 h 1.52153 z m -3.04307,-1.52153 h -1.52122 v 1.52153 h 1.52122 z M 763.01372,213.01356 h -1.52153 v 1.52153 l 1.52153,1.52154 h 3.04307 v -1.52154 h -3.04307 z m -319.49131,4.5646 h -1.52153 l 1.52153,1.52154 z m 54.7672,-21.30086 h -3.04307 v 1.52153 h 3.04307 z"
     style="clip-rule:evenodd;fill:#000000;fill-rule:nonzero;stroke:none;stroke-width:3.17012px"
     id="path1559" />
</svg>
