<?xml version="1.0" encoding="UTF-8" standalone="no"?>
<svg
   xmlns:dc="http://purl.org/dc/elements/1.1/"
   xmlns:cc="http://creativecommons.org/ns#"
   xmlns:rdf="http://www.w3.org/1999/02/22-rdf-syntax-ns#"
   xmlns:svg="http://www.w3.org/2000/svg"
   xmlns="http://www.w3.org/2000/svg"
   xmlns:sodipodi="http://sodipodi.sourceforge.net/DTD/sodipodi-0.dtd"
   xmlns:inkscape="http://www.inkscape.org/namespaces/inkscape"
   version="1.0"
   width="1024pt"
   height="1024pt"
   viewBox="0 0 1024 1024"
   preserveAspectRatio="xMidYMid meet"
   id="svg2211"
   sodipodi:docname="vector.svg"
   inkscape:version="1.0.2-2 (e86c870879, 2021-01-15)">
  <defs
     id="defs2215" />
  <sodipodi:namedview
     pagecolor="#ffffff"
     bordercolor="#666666"
     borderopacity="1"
     objecttolerance="10"
     gridtolerance="10"
     guidetolerance="10"
     inkscape:pageopacity="0"
     inkscape:pageshadow="2"
     inkscape:window-width="1366"
     inkscape:window-height="697"
     id="namedview2213"
     showgrid="false"
     inkscape:zoom="0.1940918"
     inkscape:cx="1266.7524"
     inkscape:cy="760.26375"
     inkscape:window-x="-8"
     inkscape:window-y="-8"
     inkscape:window-maximized="1"
     inkscape:current-layer="svg2211"
     fit-margin-top="0"
     fit-margin-left="0"
     fit-margin-right="0"
     fit-margin-bottom="0" />
  <metadata
     id="metadata2205">
Created by potrace 1.10, written by Peter Selinger 2001-2011
<rdf:RDF>
  <cc:Work
     rdf:about="">
    <dc:format>image/svg+xml</dc:format>
    <dc:type
       rdf:resource="http://purl.org/dc/dcmitype/StillImage" />
    <dc:title></dc:title>
  </cc:Work>
</rdf:RDF>
</metadata>
  <path
     d="m 998.44428,309.42758 -9.5702,6.38015 -9.5696,9.57023 -9.5703,6.38015 -9.5702,3.19008 -9.5695,12.75965 -6.3802,12.75965 -6.3801,9.57023 -3.1901,9.56958 -3.1901,6.38015 v 9.57023 l -3.1901,6.38015 v 9.56958 l -9.5696,12.7603 -3.1901,3.19008 -6.3801,9.56957 -12.7596,9.57023 -12.7597,15.95038 -31.9008,19.1398 -6.3671,3.19008 -3.1901,9.56958 -19.1398,19.1398 -19.1398,15.95038 -6.3802,3.19007 -3.19,3.19008 -6.3802,3.19008 -6.3801,-3.19008 h -3.1901 l -12.7596,6.3795 h -6.3802 l -9.5696,3.19008 -6.3801,3.19007 -9.5696,3.19008 -15.9504,12.75965 -9.5702,9.57023 -12.7597,6.38015 v 6.38015 l 3.1901,9.56958 v 25.51995 l 3.1901,6.38015 v 3.19007 l 9.5696,9.56958 3.1901,9.57023 v 15.95038 l -6.3802,9.5696 -6.3795,3.19008 v 9.57022 l -3.1901,6.37946 v 6.38019 h -6.3802 l -9.5702,3.19 -6.3794,9.5703 -3.1901,3.19 3.1901,6.3796 v 3.1901 l -3.1901,6.3937 3.1901,9.5696 9.5695,3.1901 3.1901,3.1901 v 3.1901 l -3.1901,3.19 -6.3795,3.1894 -3.19,6.3802 v 9.5702 l -6.3672,9.5696 -6.3802,3.1901 h -22.3299 l -6.3794,6.3801 -6.3802,3.1901 h -6.3801 l -6.3796,-3.1901 -3.1901,-6.3801 h -3.19 l -12.7603,3.1901 h -6.3802 l -12.7596,9.5702 h -6.3801 l -6.3802,3.1901 -9.5696,3.19 -6.3802,9.5696 -3.19,6.3801 -3.1901,12.7597 6.3801,3.1901 v 6.3802 l 6.3802,3.19 v 6.3802 l -6.3802,9.5702 -6.3801,6.3795 h -22.3299 l -12.7597,3.19 -6.3801,3.1901 h -3.1764 v -3.1901 l 3.1894,-9.5695 3.1901,-9.5702 -3.1901,-3.1901 -9.5695,-3.1901 -6.3802,-9.5702 -3.1901,-3.1901 h -6.3801 l -6.3802,3.1901 -6.3795,6.3802 h -3.1901 l -9.5702,3.19 -6.3795,12.7603 -6.3801,6.3795 -12.7603,6.3801 -6.3802,6.3802 6.3802,19.1398 -3.1901,3.1901 h -6.3802 l -6.3795,9.5696 3.1901,9.5702 -3.1901,6.3801 h -3.1901 l -3.1901,9.5703 h -3.19 v -9.5703 l -3.1901,-3.19 -6.3795,3.19 -9.5702,3.1901 h -9.5696 l -9.5702,3.1901 -6.3802,3.1901 -9.5702,-3.1901 -3.1901,-6.3802 -3.1894,-6.3801 -3.1901,-3.1901 -3.19,-6.3801 h -6.3802 l -3.1765,3.19 h -3.19 l -9.5703,9.5703 v 15.9497 l -3.19,9.5703 v 12.7596 l -3.1901,3.19 -9.5695,6.3802 -3.1901,6.3801 -6.3802,3.1901 -6.3801,9.5702 -6.3796,9.56974 -3.19,9.5702 -9.5703,3.1901 -9.5695,3.1894 h -9.5702 l -6.3802,6.3801 h -9.5702 l -6.3796,-3.1901 h -12.7603 l -6.3794,-6.3794 v -12.7603 l 3.1894,-12.75974 v -3.1901 l -3.1894,-9.5702 v -9.5703 l 3.1894,-6.3794 -3.1894,-9.5702 -6.3802,-6.3802 -12.7603,3.1901 h -6.3801 l -9.5696,-6.3802 h -6.3802 l -3.1764,-6.3795 3.1901,-9.5702 v -22.3299 l 3.1894,-9.5702 -3.1894,-3.1901 -9.5702,-6.3795 h -6.3802 l -6.3795,-3.1901 -19.1405,3.1901 -9.5702,-3.1901 -3.1894,-9.5702 -3.190095,-9.5696 -3.19,-6.3801 -9.5703,3.1901 -9.5695,-6.3802 v -12.7603 l -6.3802,-9.5696 3.1901,-12.7603 -3.1901,-6.3795 -3.19,-3.1901 h -6.3802 l -6.3801,3.1901 -9.5697,6.3795 -9.5702,3.1901 -6.3801,3.19 3.19,-9.5702 v -3.1894 l 3.1901,-6.3801 3.1901,-3.1901 v -3.1901 l -3.1901,-3.1901 v -28.7087 l 3.1901,-6.3802 6.3801,-3.1901 -3.19,-3.19 h -6.3802 l -6.3801,-3.1901 -6.3795,6.3801 -3.1901,-3.19 3.1901,-6.3802 3.1901,-6.3801 6.3794,-3.1901 v -9.5695 l 3.1901,-3.1901 3.1901,-3.1901 h 3.1901 l 6.3801,3.1901 3.1895,3.1901 6.3801,3.19 h 3.1901 l 9.5702,-3.19 9.5703,-9.5703 6.3794,-3.19 h 9.5703 l 6.380095,3.19 h 12.7596 v -6.3795 l -6.3801,-6.3802 3.19,-6.3801 h 6.3802 l 3.1901,-3.1901 v -6.38015 l 3.19,-6.38015 3.1901,-3.18938 3.1901,-6.38015 v -3.1901 l -6.3802,-3.19008 v -6.38015 l 9.5703,-6.3795 3.1894,-3.19008 h 9.5703 l 3.19,-9.57023 -3.19,-6.3795 3.19,-3.19007 -3.19,-6.38015 -3.1901,-3.19008 3.1901,-6.38014 h 6.3801 l 9.5695,-9.56958 3.1901,-6.38015 9.5703,-6.38015 6.3795,-3.19008 3.1901,-6.3795 v -3.19008 l 3.19,-6.38015 6.3802,-6.38015 v -6.38015 l 3.1901,-9.56958 v -19.14045 l 3.1901,-6.3795 v -15.95038 l 3.19,-6.3795 3.1901,-3.19008 h 6.3795 l 6.3801,-6.38015 3.1901,-6.38015 3.1901,-6.38015 v -6.37951 l 3.19,-9.57022 3.1895,-9.57023 6.3802,-6.3795 3.19,-9.57023 h 6.3802 l 3.1901,-9.57023 3.19,-3.19007 3.1901,-3.19008 6.3802,3.19008 h 9.5695 V 411.5217 l 15.9498,-25.51996 3.19,-3.19007 h 9.5703 l 3.19,-6.3795 v -6.38015 l -3.19,-3.19008 h -6.3802 v -6.38015 l -3.1901,-3.19008 -3.19,-6.38015 -3.1901,-6.39314 -6.3795,-3.19008 v -6.3795 l 3.19,-6.38015 3.1895,-9.57023 6.3801,-19.1398 h 9.5703 l 6.3664,-3.19007 v -3.19008 h 3.1901 l 9.5702,-6.38015 9.5697,-3.19007 19.1397,-19.13981 9.5702,6.38015 6.3802,-6.38015 6.3802,-3.19007 12.7596,-12.75966 6.3802,-3.19007 6.3802,-6.38015 3.19,-6.38016 h 3.1894 l 6.3802,-9.56957 v -19.13981 l 3.19,-6.38015 v -9.57023 l -6.3801,-3.18942 -9.5695,9.56958 -35.0903,-41.47034 -9.5695,-12.75965 -6.3802,-9.57023 -3.19,-6.38015 -3.1901,-9.56958 12.7603,-6.38015 3.1901,-3.19008 3.19,-9.570215 6.3795,-6.38015 -9.5695,-15.94973 9.5695,-6.38015 -19.1398,-35.08954 L 392.39748,3.1894247 395.58688,4.741211e-6 417.91678,31.900755 l 25.5206,-12.7603 19.1398,19.1398 19.1268,-9.56957 35.0896,35.08953 -25.52,19.1398 28.7087,31.900755 15.9497,-15.949725 66.991,76.560515 25.5199,-15.94973 6.3796,9.56958 22.3168,-15.94973 28.7094,28.70873 28.7088,-15.95038 19.1404,28.70938 22.3299,-15.95037 12.7596,-9.56958 9.5703,9.56958 12.7596,-9.56958 3.1901,6.3795 6.3801,-6.3795 3.1901,9.56958 9.5696,9.57022 6.3802,9.57023 12.7466,3.19008 9.5702,6.3795 15.9498,15.95038 28.7094,22.32988 28.7086,19.1398 22.3306,12.7603 6.3795,6.37951 h 9.5702 l 6.3802,6.38015 h 12.7596 l 6.3802,-6.38015 h 25.50632 l -3.1894,9.57022 z"
     style="clip-rule:evenodd;fill:#000000;fill-rule:nonzero;stroke:none;stroke-width:6.64653px"
     id="path1276" />
</svg>
