<?xml version="1.0" encoding="UTF-8" standalone="no"?>
<svg
   xmlns:dc="http://purl.org/dc/elements/1.1/"
   xmlns:cc="http://creativecommons.org/ns#"
   xmlns:rdf="http://www.w3.org/1999/02/22-rdf-syntax-ns#"
   xmlns:svg="http://www.w3.org/2000/svg"
   xmlns="http://www.w3.org/2000/svg"
   xmlns:sodipodi="http://sodipodi.sourceforge.net/DTD/sodipodi-0.dtd"
   xmlns:inkscape="http://www.inkscape.org/namespaces/inkscape"
   version="1.0"
   width="1024pt"
   height="1024pt"
   viewBox="0 0 1024 1024"
   preserveAspectRatio="xMidYMid meet"
   id="svg2211"
   sodipodi:docname="vector.svg"
   inkscape:version="1.0.2-2 (e86c870879, 2021-01-15)">
  <defs
     id="defs2215" />
  <sodipodi:namedview
     pagecolor="#ffffff"
     bordercolor="#666666"
     borderopacity="1"
     objecttolerance="10"
     gridtolerance="10"
     guidetolerance="10"
     inkscape:pageopacity="0"
     inkscape:pageshadow="2"
     inkscape:window-width="1366"
     inkscape:window-height="697"
     id="namedview2213"
     showgrid="false"
     inkscape:zoom="0.1940918"
     inkscape:cx="1266.7524"
     inkscape:cy="760.26375"
     inkscape:window-x="-8"
     inkscape:window-y="-8"
     inkscape:window-maximized="1"
     inkscape:current-layer="svg2211"
     fit-margin-top="0"
     fit-margin-left="0"
     fit-margin-right="0"
     fit-margin-bottom="0" />
  <metadata
     id="metadata2205">
Created by potrace 1.10, written by Peter Selinger 2001-2011
<rdf:RDF>
  <cc:Work
     rdf:about="">
    <dc:format>image/svg+xml</dc:format>
    <dc:type
       rdf:resource="http://purl.org/dc/dcmitype/StillImage" />
    <dc:title></dc:title>
  </cc:Work>
</rdf:RDF>
</metadata>
  <path
     d="m 756.96818,1022.998 h 1.002 V 1024 h -1.002 z m 9.0172,-282.55243 h 1.002 -1.002 v 2.0039 z m -3.0059,-7.0135 v 1.002 z m -3.0056,-5.0096 h -1.002 z m -51.0987,-119.2335 v -1.002 h 1.002 v 1.002 h -1.002 v -1.002 z m -1.002,0 v -1.002 z m -13.0211,-53.10281 v 1.00196 z m -7.0135,-3.00587 h 1.0019 v 1.00196 h -1.0019 z m -1.002,1.00196 v -1.00196 h 1.002 -1.002 z m 5.0098,-6.01157 v -1.00196 z m -8.0155,4.00765 h -1.0019 z m 7.0135,-6.01157 v 1.00196 h -1.0019 v 1.00196 -1.00196 h 1.0019 z m -1.0019,-2.00391 v 1.00196 -1.00196 h -1.002 z m -1.002,0 v 1.00196 h -1.0019 v -1.00196 z m -2.0039,2.00391 v -1.00195 1.00195 h -1.002 1.002 -1.002 z m -13.0253,-14.02679 h 1.002 z m -9.017,-5.0098 v -1.00196 h 2.0039 l -1.0019,1.00196 h 1.0019 -2.0039 1.002 z m 4.0076,-9.02131 h -1.0019 z m -2.0037,1.00176 h 1.0018 -1.0018 1.0018 z m 2.0037,-2.00371 h 1.002 -1.002 v 1.00195 z m -14.0272,9.01701 h 2.0039 v 1.00196 h -1.0019 v -1.00196 z m 16.0314,-15.02938 v 1.00196 z m -5.0096,-8.01547 v 1.00196 -1.00196 1.00196 h -1.002 v -1.00196 z m -4.0079,0 v -1.00195 h 4.0079 v 1.00195 h 1.0019 -3.0058 v 1.00196 -1.00196 1.00196 l -1.002,-1.00196 v 1.00196 -1.00196 h -1.002 v 1.00196 h 1.002 -2.0039 v -1.00196 z m -5.0095,1.00196 h -1.002 z m -1.002,-2.00391 h 4.0078 -1.0019 1.0019 -1.0019 v 1.00195 l -1.002,-1.00195 z m -5.0096,1.00195 v 1.00196 z m 1.002,0 v -1.00195 1.00195 -1.00195 h 4.0076 -1.002 v 1.00195 -1.00195 h -3.0056 v 1.00195 -1.00195 z m -122.2266,14.02702 v 1.00196 h -1.0019 v 1.00175 -1.00175 z m 55.1061,-35.06775 h 1.002 v 1.00196 h -1.002 z m -57.1102,27.05228 h 2.0039 v 1.00196 h -1.002 v 2.00372 h -1.0019 v 1.00196 h 1.0019 v 3.00587 h -1.0019 v 1.00196 h -1.002 v 2.00371 h -1.0017 v -2.00371 h 1.0017 v -6.01155 h -1.0017 v -1.00196 h 1.0017 v -1.00196 h 1.002 v -1.00195 z m -10.0196,1.00196 v 1.00196 h 1.002 v 1.00176 h 1.0019 v 1.00196 -1.00196 1.00196 h 1.002 v 4.00783 h 1.0019 v 1.00196 h 2.004 v 1.00175 h -1.002 v -1.00175 1.00175 -1.00175 1.00175 h -1.002 1.002 v 1.00196 h -3.0059 v -4.00763 h -1.0019 v -1.00196 h -1.002 v -1.00196 h -1.002 v -2.00391 l 1.002,-1.00176 z m -17.0325,7.01351 v 1.00196 h -1.0019 v -1.00196 z m 62.1198,-39.07538 v 3.00588 h -1.0019 v -1.00196 h 1.0019 z m -61.1182,33.06383 v 1.00196 z m -26.0463,15.02938 v -1.00175 h 1.0018 v 1.00175 h 1.002 -1.002 v 1.00196 h 4.0078 v -1.00196 h 1.002 v 1.00196 h -1.002 l -1.0019,1.00196 h -4.0077 v -1.00196 h -1.0019 v -1.00196 z m 54.1044,-34.06599 v -1.00195 h 1.0019 v 1.00195 h -1.0019 v 1.00196 h -1.002 v -1.00196 z m -84.1623,48.093 v 1.00196 l -1.002,-1.00196 z m 27.0521,-21.04072 h -1.0018 z m 15.0293,-15.02938 v 1.00196 h -1.0019 v -1.00196 z m -14.0268,4.00763 h 2.004 -1.002 v 1.00196 h -1.002 z m 48.093,-38.07342 h 1.002 l 1.002,-1.00196 v 1.00196 h 1.0019 v 2.00392 h -2.0039 v 1.00196 h -1.002 z m -34.0662,19.03681 h 1.002 v 7.01351 h 1.002 -1.002 v 3.00567 h 2.0039 v 3.00588 h -1.0019 v 1.00196 h -2.004 v 1.00196 h -1.0019 v -2.00392 h -2.0037 v 2.00392 h -1.002 v 1.00196 h -1.0019 v 1.00196 h -1.002 v 1.00196 h 2.0039 v 2.00371 h -3.0059 1.002 -2.0039 v -3.00567 h -1.0018 l 1.0018,-1.00196 v -2.00392 h 1.0019 v -1.00196 h -1.0019 v -1.00196 h 1.0019 v -1.00196 h 1.002 v -1.00196 l 1.002,-1.00175 v -2.00392 h 1.0019 v -4.00783 h 2.0039 v -1.00176 h 1.0018 v -1.00196 h 1.0019 z m 10.0194,-11.02134 h 7.0135 v -1.00196 h 3.0059 v -2.00392 h 1.002 v 1.00196 h 2.0037 v 1.00196 h 4.0078 v 1.00196 h -2.0039 v -1.00196 h -1.0019 v 1.00196 -1.00196 7.01351 h 1.0019 v -5.00959 h 1.002 v -1.00196 h 1.0019 v -1.00196 h 3.0057 v -1.00196 h 3.0059 -1.002 v 3.00588 h -2.0039 v 4.00763 h 1.002 -1.002 v 2.00392 h -1.002 1.002 v 2.00392 h 1.002 v 2.00391 h 1.0019 v 1.00196 h 1.002 v 1.00196 h 1.0019 v 2.00372 h -1.0019 v 2.00391 h -2.0039 v 3.00588 h 1.0019 v 1.00175 h -1.0019 v 2.00392 h -1.002 v 1.00196 h 1.002 v 1.00196 h -1.002 v 1.00196 h 1.002 v 1.00196 h -1.002 1.002 v 1.00196 h -1.002 v -1.00196 h -2.0037 v -1.00196 h -1.002 v -1.00196 h -2.0039 v -1.00196 h -1.0019 v -1.00196 1.00196 -1.00196 h -1.002 v -1.00196 h -1.0018 v 1.00196 h -1.0019 v -2.00392 h -2.0039 v -1.00175 h -1.002 v -1.00196 h -2.0039 1.0019 -1.0019 v 1.00196 h -1.002 v 4.00763 h -1.0019 v 4.00784 h -1.002 v 1.00196 -2.00392 h -1.002 v -2.00392 h -1.0017 v -4.00784 h -1.002 v -4.00763 h 1.002 v -2.00391 h -1.002 v -1.00196 h 1.002 -1.002 1.002 v -8.01547 h -1.002 v -4.00763 h -1.0019 v -1.00196 h 1.0019 z m 115.2102,-165.32649 h 1.002 z m -77.1449,-164.31493 v 1.00196 z m 3.0056,-2.00392 v -1.00176 h 2.004 v -1.00195 h 1.0019 v -1.00196 h 1.002 -1.002 v 1.00196 h -1.0019 v 1.00195 h -1.002 v 1.00176 h -2.0039 v 1.00196 -1.00196 z m 3.0059,-2.00371 h -1.0019 z m -12.0229,9.01701 v -1.00175 z M 346.19498,59.114135 h 1.002 l 2.0039,-1.00196 1.002,-1.00196 1.0019,1.00196 1.0018,3.00568 1.002,-1.00176 2.0039,-1.00196 1.0019,-2.00392 2.0037,2.00392 5.0098,2.00372 h 4.0077 l 2.0039,3.00587 3.0059,1.00196 h 3.0056 l 2.004,1.00196 3.0058,-1.00196 4.0077,2.00392 1.0019,-2.00392 1.002,-1.00196 v -3.00587 l 2.0039,-2.00372 2.0039,2.00372 2.0037,2.00391 2.004,1.00196 2.0039,-1.00196 2.0039,1.00196 h 1.0018 l 2.0039,-2.00392 v -5.00959 l 7.0135,-3.00587 3.0058,2.00391 1.002,-2.00391 -2.0039,-3.00588 v -5.00959 l -3.0059,-3.00567 1.002,-2.00392 1.0019,-2.00392 2.0039,3.00588 h 3.0059 l 1.002,1.00196 1.0018,-1.00196 v -3.00588 l 3.0058,-1.00196 2.0039,2.00392 1.0018,2.00392 h 1.0019 l 5.0058,3.00567 -1.002,-2.00371 v -3.00588 l 1.002,-2.00392 1.0017,-3.00587 h 1.002 l 1.0019,2.00391 1.002,2.00392 2.0039,1.00196 v 3.00588 l 2.0037,2.00371 h 4.0079 v -3.00567 l 2.0037,-1.00196 1.0019,-1.00196 1.002,-3.00588 -1.002,-2.00391 2.004,-2.00372 v -4.00783 l -2.004,-3.00568 -1.0019,-3.00587 v -5.0098 h 1.0019 l 1.002,-2.00371 3.0059,-3.00588 2.0039,1.00196 2.0039,1.00196 h 1.002 l 3.0056,-1.00196 h 1.002 v -4.00763 h 1.002 l 1.0019,1.00175 h 1.0018 l 1.0019,-2.0037103 1.002,3.0056703 2.0039,-1.00196 -1.0019,-2.0037103 2.0039,-2.00392 v -2.00392 l -3.0059,-3.00567 1.002,-2.0039099587888 L 465.42098,2.0039047 469.42868,-5.2587888e-6 h 2.0039 L 474.43838,1.0019447 475.44038,-5.2587888e-6 h 2.0037 L 480.44568,1.0019447 h 5.0098 l 6.0116,2.00392 1.0019,2.00371 2.0039,1.00196 h 3.0057 l 2.0039,1.00196 2.0039,4.0076303 2.004,2.00392 h 2.0039 l 3.0057,1.00196 2.0039,4.00763 4.0076,2.00392 4.0078,3.00588 2.004,2.00391 1.0019,2.00392 v 2.00372 l 2.0037,1.00195 2.0039,4.00764 v 2.00391 l -3.0056,3.00588 v 2.00392 l 1.0017,1.00196 3.0059,3.00567 2.0039,3.00588 h 1.002 l 1.0017,1.00196 1.002,3.00567 -2.0037,2.00392 -3.0059,1.00196 -5.0098,-1.00196 -1.002,1.00196 v 3.00587 l -1.0017,2.00392 1.0017,3.00567 v 2.00392 l -1.0017,1.00196 v 3.00567 l -1.002,2.00392 2.0037,3.00588 -2.0037,2.00371 1.002,3.00588 h 2.0037 l 3.0059,2.00392 -1.002,2.00391 4.0078,1.00196 9.0128,1.00176 1.0019,-1.00176 v -2.00391 l 1.002,-1.00196 2.0039,-1.00196 2.0039,-1.00196 1.0018,-4.00784 3.0059,-2.00371 4.0078,2.00371 3.0057,1.00196 h 2.0039 l 3.0059,-2.00371 2.0037,1.00175 1.002,1.00196 v 3.00588 l 4.0078,1.00196 2.0039,1.00196 h 2.0039 v -5.0098 l 2.0037,-2.00371 2.0039,3.00567 4.0077,-1.00196 2.0039,2.00392 v 2.00392 h 2.0039 l 2.0039,1.00196 1.0018,3.00587 2.0039,1.00176 1.9998,6.01175 5.0096,6.01155 -3.0058,4.007835 v 3.00567 h -1.0018 v 1.00196 h -1.002 v 1.00196 h -1.0019 l -1.002,1.00195 v -1.00195 1.00195 h -2.0039 v 1.00196 -1.00196 1.00196 -1.00196 1.00196 h -1.002 v -1.00196 h -1.0017 v -1.00195 h -1.002 l -1.0019,1.00195 h -2.0039 v 1.00196 -1.00196 h -1.002 v 1.00196 h -1.002 v 1.00176 h -1.0019 v 1.00196 h -1.002 v 5.00959 h 1.002 v 1.00196 h 1.0019 v 1.00195 h 1.002 v 1.00196 h 1.002 v 3.00588 h 2.0039 v -1.00196 1.00196 h -1.002 1.002 v 1.00196 h 2.0039 v 3.00588 h -3.0059 v 2.00371 h -1.0019 1.0019 -1.0019 v 1.00196 h 1.0019 v 1.00196 h -1.0019 v -1.00196 4.00763 h -1.002 v 1.00196 -1.00196 h -1.002 v 1.00196 -1.00196 l -1.0019,-1.00175 h -2.0039 1.0019 -2.0037 v -1.00196 1.00196 h -3.0059 v -1.00196 h -1.0019 v -2.00392 h -1.002 1.002 v -5.00959 h -1.002 v -2.00392 h -3.0057 1.002 -1.002 1.002 -1.002 v 1.00196 h 1.002 -1.002 1.002 -1.002 v 1.00196 h -1.0019 v 2.00392 h 1.0019 v 1.00175 h -2.0039 v -1.00175 1.00175 h -1.0019 v -1.00175 1.00175 h -1.002 v -1.00175 h -1.0019 v 1.00175 h 1.0019 -2.0039 v 1.00196 h -1.002 v 1.00196 h -1.0019 v 1.00196 h -1.0018 v 1.00196 h -1.0019 v 2.00371 h -1.002 v 1.00196 h -1.002 v 1.00196 -1.00196 h -2.0039 v 1.00196 h -1.0019 v 1.00196 h -1.0018 v 2.00392 h -1.0019 v 2.00391 h -1.002 v 1.00196 h -1.002 v 1.00196 h -1.0019 v 1.00176 h -1.002 v 1.00196 h -1.0017 v 1.00195 h -1.002 l 1.002,-1.00195 h 1.0017 l 1.002,-1.00196 v -1.00176 h 1.0019 -1.0019 v 1.00176 -1.00176 1.00176 h -1.002 v 1.00196 h -2.0037 v 1.00195 -1.00195 1.00195 -1.00195 1.00195 h -1.002 v -1.00195 1.00195 h -1.0019 v 1.00196 -1.00196 h -1.002 v 2.00392 h -1.0019 l -0.9979,1.00196 -1.0018,1.00196 v 1.00175 h -1.0019 1.0019 v -1.00175 h 1.0018 v -1.00196 h 1.0019 -1.0019 v 1.00196 h -1.0018 v 1.00175 h -1.0019 v 1.00196 h -1.002 v 1.00196 h -1.0019 v -1.00196 1.00196 h -3.0057 v 1.00196 h -1.002 v 1.00196 h 1.002 -1.002 1.002 v -1.00196 h 2.0037 v -1.00196 h 1.002 -1.002 v 1.00196 h -2.0037 v 1.00196 h -2.0039 v 1.00196 h -2.004 v 1.00196 h -2.0039 v 1.00175 h -1.0019 v 1.00196 h -2.004 v 1.00196 h -1.0019 v 1.00196 h -1.0018 v 1.00196 h -1.0019 v 2.00392 h -1.002 v 2.00391 h -1.0019 v 2.00372 h -1.002 v 2.00392 h -1.002 v 1.00196 h -1.0017 v 1.00195 h -1.002 v 1.00196 h -5.0097 v 1.00196 h -1.0018 v 1.00176 h -1.002 v 2.00392 h -1.0019 v 1.00195 -1.00195 1.00195 h -1.002 v 2.00392 h -1.002 v 2.00392 h -1.0019 v 2.00392 h -1.002 v 2.00371 h -1.0019 v 1.00196 h -1.002 v 2.00392 h -1.0019 v 1.00196 h -1.0018 v 2.00371 h -1.0019 v 1.00196 l -1.002,1.00196 v 1.00196 l -1.002,1.00196 v 3.00567 h -1.0019 v 4.00784 h -1.002 v 5.00979 l -1.0019,1.00175 h 1.0019 -1.0019 v 8.01547 h 1.0019 -1.0019 1.0019 v 5.00979 h 1.002 v 10.02368 h 1.0019 -1.0019 1.0019 v 2.00391 h -1.0019 v 1.00196 h 1.0019 -1.0019 v 7.01351 h -1.002 v 4.01192 h -1.0019 v 3.00587 h -1.0018 V 249.49 h -1.002 v 3.00588 h -2.0039 v 2.00391 h -1.0019 v 4.00763 h -0.9979 v 7.01351 h -1.0018 v 4.00784 h 1.0018 v 5.00959 h 1.0019 v 3.00588 h 1.002 v 3.00587 h 1.002 v 4.00763 h 1.0019 v 4.00764 h 1.002 v 2.00391 h 1.0019 v 3.00588 h 1.002 v 3.00567 h -1.002 v 3.00588 h -1.0019 l 1.0019,1.00196 h -1.0019 1.0019 -1.0019 1.0019 v 2.00392 h -1.0019 v -1.00196 h -1.002 v 1.00196 l -1.0019,1.00196 v 1.00196 h -1.002 v 1.00175 h -1.002 v 2.00392 h -1.0019 v 3.00587 h -1.0018 v 5.00959 h 1.0018 v 5.0098 h 1.0019 v 4.00763 h -2.0037 v 2.00392 h -1.0019 v 2.00392 h -1.002 v 3.00567 h 1.002 v 8.01547 h -1.002 v 1.00195 -1.00195 l -1.0019,1.00195 v 2.00392 h -1.002 v 1.00196 h -1.002 v 1.00196 h -1.0019 v 1.00196 h -1.0018 v 5.00959 h -1.0019 1.0019 -1.0019 v 1.00196 h 1.0019 v 3.00567 h 1.0018 -2.0037 1.0019 -1.0019 v 1.00196 h -1.002 1.002 -1.002 v 2.00392 h 1.002 -1.002 v 1.00196 h 2.0039 v 3.00587 h 1.0018 v 1.00196 h -1.0018 v 2.00372 h -1.0019 v -1.00196 h -1.002 v 2.00392 -1.00196 h 1.002 v 1.00196 -1.00196 1.00196 h -1.002 v 1.00195 h -1.002 v 2.00392 h -1.0019 v 1.00176 l -1.002,1.00196 v 1.00196 h 1.002 v 3.00995 h 1.0019 -1.0019 1.0019 v 3.00588 h 1.002 v 1.00196 h 1.002 v 1.00196 h 1.0019 v 1.00175 h -1.0019 l -1.002,-1.00175 v -2.00392 h -1.002 v -1.00196 h -1.0019 v 1.00196 h 1.0019 -1.0019 v 1.00196 h -1.002 v 1.00196 -1.00196 1.00196 h -1.0019 l 1.0019,1.00175 h 1.002 v 5.0098 h 1.0019 -1.0019 v 2.00392 h -1.002 v 5.00959 h 1.002 v 1.00195 h 1.0019 -1.0019 l -1.002,1.00196 h 1.002 v 1.00196 h -2.0039 1.0019 -1.0019 1.0019 -1.0019 v 4.00763 l 1.0019,1.00196 v 1.00196 h 1.002 l 1.0019,1.00196 h 4.0077 v -1.00196 2.00392 h 1.0019 v 1.00196 h -3.0056 v 1.00196 h -2.004 v 2.00371 h 1.002 v 2.00392 h -1.002 v 2.00392 h -1.0019 v 1.00195 h -1.002 v 3.00568 h 1.002 -1.002 1.002 v 4.00783 h 1.0019 v 2.00372 h -1.0019 v 6.01175 h 1.0019 -1.0019 v 1.00196 h -1.002 v 1.00196 h -1.0019 v 2.00371 h -1.0018 v 1.00196 -1.00196 4.00784 h -1.0019 v 4.00763 h 1.0019 -1.0019 1.0019 v 3.00588 h 1.0018 -3.0057 v 1.00195 h -1.002 v 5.0096 h -1.0019 v 1.00195 -1.00195 3.00587 h -1.002 v 4.00763 h 1.002 v 1.00196 h -1.002 v 1.00196 -1.00196 h -1.0019 v 1.00196 h -1.002 v 2.00392 h -1.002 v 1.00196 h 1.002 v 1.00175 h -1.002 v 7.01372 h -2.0037 v 2.00391 h -1.0019 v 2.00372 h -1.002 v 1.00196 -1.00196 l -1.002,1.00196 v 1.00196 h 1.002 -1.002 v 1.00195 h 1.002 -1.002 1.002 -1.002 v 1.00196 h -1.0019 v 1.00196 h -1.002 v 3.00568 h -1.0019 v 3.00587 h 1.0019 v 4.00784 h 1.002 -1.002 v 6.01155 h -1.0019 v 1.00196 h 1.0019 v 1.00175 h -1.0019 v 1.00196 h 1.0019 v 1.00196 h -1.0019 v 1.00196 -1.00196 1.00196 h -1.0018 v 3.00567 h -1.0019 v 1.00196 h -1.002 v 1.00196 h 1.002 -1.002 v 4.01192 h -1.002 1.002 -1.002 v 1.00195 h -1.0019 v 2.00392 h -1.002 v 1.00196 h 1.002 -1.002 v 2.00392 h -2.0039 v 1.00196 h -1.0019 v 2.00371 h -1.002 v 1.00196 h -1.0018 1.0018 -1.0018 v 3.00588 h -1.0019 v 1.00195 h 1.0019 v 1.00176 h -1.0019 v 2.00392 h -1.002 v 3.00587 l -1.0019,1.00195 v 1.00196 h 1.0019 v 1.00196 h -1.0019 v 7.01352 h 1.0019 v 1.00196 h 2.0039 v 1.00174 h 2.0038 v 1.00196 h 6.0117 l 1.002,-1.00196 h 6.0115 v -1.00174 l 1.002,-1.00196 v 1.00196 -1.00196 h 1.0019 v 1.00196 h 1.0018 v 1.00174 h 1.0019 v 1.00196 h 1.002 v 1.00196 h 3.0059 v -1.00196 h -1.002 2.0039 l 1.002,-1.00196 h 1.002 v -1.00174 h 1.0019 v -1.00196 h 1.0018 l 1.0019,-1.00196 v -1.00196 h 1.002 v -1.00195 h 1.0019 v -1.00196 h 1.002 v -1.00196 1.00196 -1.00196 h 1.002 v -1.00177 h 1.0019 v -1.00196 1.00196 h 2.0037 v -2.00392 h 1.002 v 1.00196 -1.00196 1.00196 h 1.002 v -1.00196 h 2.0039 v -1.00196 h 2.0037 V 528.036 h 1.0019 v -1.00196 1.00196 -1.00196 h 1.002 v -1.00195 h 1.002 v -6.01155 3.00567 h 1.0019 v 1.00196 h 2.0039 v -1.00196 h 1.002 v -3.00567 h 2.0039 -1.002 1.002 -1.002 v 1.00196 h 1.002 v 1.00195 h 1.0018 -1.0018 1.0018 v 1.00176 -1.00176 h 2.0039 v 2.00372 l -1.002,1.00196 h 1.002 v 1.00196 h -1.002 1.002 v 1.00195 h 2.0039 -1.0019 v 1.00196 h 1.0019 -1.0019 v 1.00195 h 1.0019 -1.0019 v 1.00196 h 2.0039 v 3.00569 h -1.002 v -2.00373 h -1.0019 v 2.00373 h 1.0019 v 2.00392 h 1.002 v 1.00195 h 1.0017 v 1.00196 h 1.002 v -1.00196 h 1.0019 v 2.00392 h -1.0019 v 2.0037 h 1.0019 v 1.00196 h 1.002 v -1.00196 1.00196 h 1.0019 v 1.00196 h -1.0019 v 2.00392 h 3.0059 v 1.00196 h 1.0019 v 2.00372 h -1.0019 v 1.00196 h 1.0019 v -1.00196 1.00196 -1.00196 1.00196 h 1.002 v 1.00196 h -1.002 v 1.00196 h 1.002 v 2.00392 h -1.002 v 2.00392 h 1.002 -1.002 v 1.00196 h 1.002 v 1.00195 h -1.002 1.002 v 2.0037 h 1.0019 v 2.00392 h 1.002 v 1.00196 h 1.0018 v 1.00196 h 1.0019 v 2.00373 h 1.002 l 1.0019,1.00196 v 1.00196 h 1.002 v -1.00196 h 1.0019 v 1.00196 h 2.0038 v -1.00196 h -1.002 v -1.00196 h 1.002 v -2.00373 h -1.002 v -1.00196 h 1.002 v -1.00196 h 1.0019 -1.0019 1.0019 v -2.00392 h 3.0059 v -1.00195 h 2.0037 v 1.00195 h 2.0039 v -2.0037 h 1.002 -1.002 l 1.002,-1.00195 v -1.00196 h -1.002 v -3.00588 h -1.0019 v -5.0096 h -1.002 v -3.00588 h 1.002 -1.002 v -1.00196 h -1.0017 v 1.00196 h -1.002 v 1.00196 h -1.002 v 1.00196 h -2.0039 v -1.00196 h -1.0019 v -1.00196 1.00196 -1.00196 h -1.002 v -1.00196 h -2.0037 v -1.00196 h 1.0019 -1.0019 v -3.00566 h 1.0019 v -3.00587 h 2.0038 v -3.00569 1.00177 h -1.002 v -2.00373 h 1.002 v -1.00196 h 1.0019 v -3.00587 h 1.002 v -1.00195 h 2.0039 v -1.00196 1.00196 h 1.002 v -1.00196 h 1.0017 v -1.00196 h 2.0039 v -1.00196 h 1.002 -1.002 v -1.00176 h 1.002 -1.002 1.002 v -1.00195 h 2.0039 -1.002 1.002 v 1.00195 h -1.002 v 7.0135 h -1.0019 1.0019 v 1.00196 l -1.0019,1.00196 v 7.01352 -2.00392 h -1.002 v -1.00195 h -2.0039 v 1.00195 h -1.0017 v 1.00196 h -1.002 v 2.00392 h 1.002 v 3.00566 h 3.0056 v -1.00196 h 2.0039 v -1.00196 1.00196 h 4.0079 v 1.00196 h 3.0016 l 1.0019,-1.00196 v -1.00196 h 2.0037 v -1.00174 h 1.002 v 1.00174 -1.00174 1.00174 -1.00174 h 2.0039 v -2.00392 h 1.002 v -1.00196 3.00588 h 1.0019 -1.0019 1.0019 v 2.0037 h -1.0019 v 1.00196 h -1.002 v 2.00392 h -1.0019 v 3.00568 h -1.002 1.002 -1.002 v 2.00392 h 1.002 v 2.00392 h 1.0019 -1.0019 1.0019 -1.0019 v 2.00392 h 1.0019 v 2.00392 h -1.0019 1.0019 -1.0019 v 3.00565 h 1.0019 -1.0019 1.0019 -1.0019 v 1.00196 h -2.004 v 1.00196 h -1.0019 v 1.00196 h -1.0018 v 2.00373 l -1.0019,1.00196 v 4.00783 -1.00196 1.00196 h -1.002 v 1.00196 -1.00196 h 1.002 v -1.00196 1.00196 -1.00196 1.00196 h 1.0019 v 1.00196 -1.00196 1.00196 -1.00196 1.00196 -1.00196 h 5.0096 v -1.00196 h 1.002 v -1.00195 h 1.0019 v -1.00196 h 1.002 l 1.002,-1.00196 h 1.0019 v -1.00196 1.00196 -1.00196 h 1.0018 v -1.00177 h 2.0039 v -1.00196 h 1.002 v -1.00196 h 1.0019 v -1.00196 h 1.002 l 1.0019,-1.00196 h 1.0018 v -1.00195 h 1.0019 v -1.00175 h 1.002 v -1.00195 h 1.0019 v -4.00784 h 1.002 v -1.00196 h 1.002 v -2.00392 l 1.0019,-1.00196 v -1.00176 h 1.0018 v -3.00588 h 1.002 v -6.01154 h -1.002 v -2.00391 h -1.0018 1.0018 -1.0018 v -3.00569 h -1.0019 v -2.00392 h 1.0019 v -3.00587 h 1.0018 v -3.00587 h 1.002 v -2.00372 h 1.0019 v 1.00176 h 1.002 v 3.00588 h 1.0019 -1.0019 1.0019 v 2.00391 h 2.0039 v 3.00587 h 1.002 v 5.0096 h -1.002 v 8.01546 h -1.0019 1.0019 v 2.00392 -1.00196 1.00196 h 1.002 v 2.00372 h -1.002 v 2.00392 h -1.0019 1.0019 v 2.00392 h 1.002 l -1.002,1.00196 v 1.00196 -1.00196 h 1.002 -1.002 v 1.00196 h 1.002 v -2.00392 h 2.0039 v -1.00196 h 2.0037 v -2.00392 h 1.002 v -1.00196 h 1.0019 v -11.02544 l -1.0019,-1.00195 v -2.00371 h -1.002 v -3.00587 h -1.0019 v -4.00764 h -1.0018 V 526.028 h -1.0019 1.0019 l -1.0019,-1.00195 v -4.00784 h -1.002 v -3.00567 h -1.002 v -1.00196 h -1.0019 v -2.00392 h -1.002 v -1.00196 1.00196 h -1.0019 1.0019 -1.0019 v 2.00392 h -1.002 v 1.00196 -1.00196 h -1.0019 1.0019 -1.0019 1.0019 -1.0019 v -1.00196 h 1.0019 -1.0019 1.0019 -1.0019 1.0019 -1.0019 1.0019 -1.0019 v -5.00959 h -1.002 v -1.00196 h -1.0018 v -2.00392 h -1.0019 v -2.00391 h -3.0059 v -1.00196 h 1.0019 -1.0019 v -1.00196 h 2.0039 v -1.00196 1.00196 h 3.0057 v -1.00196 1.00196 h 4.0078 v -1.00196 h 5.0098 v -1.00196 h 4.0076 v -1.00175 h 2.004 v -1.00196 h 2.0037 v -2.00392 h 1.0019 v -1.00196 h 2.004 v -2.00371 h 1.0019 v -2.00392 h 1.002 v -1.00196 h 1.0019 v -2.00392 h 1.002 v -4.00763 h 2.0039 v -1.00196 1.00196 h 0.9977 v 1.00196 h 1.0019 v 2.00371 h 1.002 v 1.00196 h 3.0057 v -2.00371 1.00175 h 1.0019 v 1.00196 h 12.0229 v -1.00196 1.00196 -1.00196 l 1.002,1.00196 h 1.0018 v 2.00392 h 5.0097 v 2.00392 h 1.002 -1.002 1.002 -1.002 v 3.00567 h 1.002 v 1.00196 h 1.0017 v 1.00196 h 2.004 v 1.00196 h 2.0039 v 1.00196 -1.00196 1.00196 h 1.0019 -1.0019 2.0037 -1.0018 4.0077 v -1.00196 1.00196 -1.00196 1.00196 -1.00196 1.00196 -1.00196 1.00196 -1.00196 h 1.0019 v 1.00196 h 2.004 v 2.00371 h 3.0058 v 1.00196 -1.00196 1.00196 h 13.0167 v -1.00196 h 5.0096 v -1.00196 h 4.0079 -2.004 v 1.00196 -1.00196 1.00196 -1.00196 h -1.0019 v 1.00196 h -4.0077 v 3.00588 h 1.002 v 2.00391 h 1.002 v -1.00195 h 1.0017 v -2.00392 h 1.002 v 2.00392 h 1.0019 v -1.00196 h 2.004 v -1.00196 h 1.0019 v 2.00392 -1.00196 h 1.0018 v 1.00196 h 4.0078 v 1.00195 -1.00195 h 3.0059 v -1.00196 h 2.0039 v -1.00196 h 1.0019 v -1.00196 h 1.0018 v 2.00392 h 1.002 v 1.00196 h -1.002 1.002 v 1.00195 h -1.002 1.002 -1.002 v 1.00196 h 1.002 v -1.00196 h 2.0039 v 2.00392 h 2.0039 v 1.00196 h 1.0018 -1.0018 v 1.00176 -1.00176 1.00176 h -1.0019 v 2.00391 h 1.0019 -1.0019 v 1.00196 h 1.0019 v 1.00196 h 1.0018 -1.0018 v 1.00196 -1.00196 1.00196 -1.00196 h -1.0019 v 1.00196 h -1.002 v 1.00196 h -1.002 v 2.00371 h 2.004 v 1.00196 l -1.002,1.00196 v 1.00196 h 1.002 -1.002 v 1.00196 h -1.002 v 1.00196 h -7.0135 v -1.00196 1.00196 h -3.0059 v 1.00195 -1.00195 h -1.0019 1.0019 -1.0019 v -1.00196 h -4.0076 v 1.00196 h -1.002 v 2.00391 h 4.0076 l 1.002,1.00196 h 1.0019 -1.0019 3.0059 v -1.00196 h 1.0019 v 1.00196 h 1.002 v 1.00176 h 1.0019 v 1.00196 h 1.002 v 1.00196 h 3.0057 v -1.00196 h 1.0019 v 1.00196 h 1.002 v 1.00196 h 1.002 v -1.00196 h 4.0076 v -2.00392 h 1.0019 v 5.00979 l 1.002,1.00196 h 3.0059 v 1.00175 h 1.0019 v 1.00195 h 1.002 v 1.00196 h 2.0037 v 3.00588 h 1.002 v 1.00196 h 1.0019 v 1.00177 h -1.0019 1.0019 v 3.00587 h 1.002 v 2.00392 h -2.0039 v 1.00196 -1.00196 4.00784 -1.00196 1.00196 -1.00196 1.00196 h 1.0019 v 1.00174 h 1.002 v 2.00392 h 3.0056 v 2.00391 -1.00195 h 3.0059 v 1.00195 h 1.002 v -1.00195 1.00195 h 4.0076 v 1.00196 h 5.0055 v -1.00196 h 1.002 v -1.00195 h 1.0019 -1.0019 v -1.00196 h 1.0019 v 1.00196 h 1.002 v 2.00391 h 2.0039 v 1.00196 h -2.0039 v 1.00177 h -1.002 v 2.00392 h -1.0019 v 5.00979 h 1.0019 v 2.00392 h 1.002 -1.002 1.002 v 1.00174 h 1.002 v 1.00196 h 3.0056 v -1.00196 1.00196 h 1.002 v 1.00196 h -1.002 v 1.00199 h 1.002 v 1.0019 h -1.002 v 1.002 h -1.0017 v 2.0037 h -1.002 v 2.0039 h 1.002 v 1.002 h -1.002 v 1.002 h -1.0019 v 2.0037 h 1.0019 -1.0019 1.0019 -1.0019 1.0019 -1.0019 1.0019 v 1.0019 h 1.002 v 6.0118 h 1.0017 v 1.0019 h -1.0017 v 1.002 -1.002 1.002 h -1.002 v 1.0019 h -1.0019 v 1.0018 h -1.002 v 4.0078 h -1.002 v 1.002 h 1.002 v 2.0037 h 1.002 v 1.002 h 1.0019 -1.0019 1.0019 -1.0019 1.0019 v 1.0019 h 1.002 v 3.0059 h -1.002 v 1.002 -1.002 h -1.0019 v 3.0059 -1.002 1.002 h -1.002 v 1.0017 -1.0017 1.0017 -1.0017 h 2.0039 v 1.0017 h 1.002 v 1.002 -1.002 h 2.0037 v -1.0017 1.0017 h 1.002 v 2.004 h 1.0019 -1.0019 v 3.0058 h -2.004 v 1.002 h -1.0017 v 1.0017 h -1.002 v 1.002 h 1.002 v 1.002 h 1.0017 -1.0017 1.0017 -1.0017 l 1.0017,1.0019 h 1.002 v 1.002 h 1.002 -1.002 v 1.0019 l -1.002,1.002 h -1.0017 v 1.0018 h 1.0017 v -1.0018 h 1.002 v 1.0018 h 1.002 v 1.0019 h 1.0019 v 1.002 l 1.002,1.0019 v 2.004 h 2.0039 v 1.0019 h 1.002 v 2.0039 h 1.0019 v 1.002 h -1.0019 v 1.0017 h -1.002 1.002 v 1.002 h 1.0019 v 1.002 h 1.002 v 2.0039 h -1.002 v 1.006 -1.002 3.0059 h -1.0019 v 2.0039 l 1.0019,-1.0019 v 2.0039 h -1.0019 1.0019 v 1.0018 h 1.002 v 2.0039 h 1.0017 -1.0017 1.0017 v 7.0137 h 2.0039 v 1.0017 h 1.002 v 1.002 h 1.002 v 1.002 h 1.0019 v -1.002 1.002 h -1.0019 v 3.0058 h 1.0019 -1.0019 1.0019 v 3.0057 h 1.002 v 1.002 h 1.0017 v 1.0019 h 3.0059 v 2.004 h 1.002 v 1.0017 h 1.0019 v 1.002 h 1.002 v 1.0019 h 2.0037 v 4.0079 h 1.002 v 1.0019 h 1.0019 v 2.0039 h 1.002 v 1.0018 l 1.0019,1.002 v 1.0019 h 1.002 v 1.002 h 6.0115 v -1.002 h 1.002 v 4.0079 h -1.002 v 2.0037 h -1.0019 v 2.0039 h -1.002 v 2.0039 h 1.002 v 5.0096 h 1.0019 -1.0019 v 2.0039 h 1.0019 v 1.002 h 2.004 v 1.0019 h 3.0056 l 1.002,-1.0019 v 2.0039 h 0.9979 v 3.0056 h 1.0019 v 2.004 h 2.0039 v 1.0019 h 1.0018 v 1.002 h 1.002 v 1.0019 h 1.0019 v 3.0057 h 1.002 -1.002 1.002 -1.002 v 2.0039 h 1.002 v 1.002 h 1.0019 -1.0019 v 7.0135 h 2.0039 v 3.0059 h 1.002 v 1.0019 h 1.0017 v 1.0018 h -1.0017 v 1.002 h -2.004 v 2.0039 h 1.002 v -2.0039 h 1.002 v 2.0039 h 1.0017 -2.0037 v 1.0019 h 1.002 v 2.004 -1.002 2.0039 h 1.0017 v -1.0019 1.0019 h 1.002 -1.002 1.002 v 1.002 h 1.0019 v 3.0056 h 1.002 v 1.002 h -1.002 v 1.002 h -1.0019 v 2.0039 -2.0039 h 2.0039 v 1.0019 -1.0019 h 1.0019 v 1.0019 h -1.0019 1.0019 v 1.002 h -1.0019 1.0019 v 1.0017 h -1.0019 v 1.002 h -1.002 v 1.002 h -1.0019 l 1.0019,1.0019 v -1.0019 h 1.002 v -1.002 h 1.0019 v -1.002 2.004 h -1.0019 1.0019 v 1.0019 h -1.0019 v 3.0059 -2.0039 h 1.0019 v -1.002 h 1.002 v 1.002 h -1.002 1.002 v 1.0019 -6.0115 h 1.002 -1.002 1.002 v 1.0017 h 1.0017 -1.0017 2.0037 l 1.0019,1.002 h -1.0019 v 1.002 h 1.0019 v 6.0115 h -1.0019 v 4.0078 h 1.0019 v 4.0079 h 1.002 v 3.0057 h 1.002 v 2.0039 h 1.0019 v 2.0039 h 1.002 -1.002 1.002 v 1.0017 h 1.0019 v 2.0039 -1.0019 2.0039 h 1.002 v 1.002 h 1.002 v 2.008 h 1.0017 v 1.0019 l 1.002,1.002 h -1.002 v 2.0039 h -1.0017 v 6.0116 h 1.0017 v 1.0019 h -1.0017 v 1.002 h -1.002 v 1.0019 h -1.002 v 4.0077 h -1.0019 1.0019 v 2.0039 h -1.0019 v 4.0076 h -1.002 v 3.0059 h -1.0019 1.0019 v 1.002 h -1.0019 1.0019 v 7.0135 h -1.0019 v 7.0135 h -1.002 v 1.0019 h -1.002 v 2.004 h -1.0019 v 8.0154 h -1.002 v 2.0039 h 1.002 v 7.0135 h 1.0019 v 9.017 h 1.002 -1.002 1.002 v 3.0059 h -1.002 1.002 v 2.0039 h 1.002 v 3.0059 h 1.0019 l -2.0039,1.0018 h -2.0039 l -2.0037,-1.0018 h -3.0059 l -2.0039,2.0037 -1.002,2.004 -2.0037,1.0019 h -3.0059 l -3.0059,2.0039 v -6.0117 l -1.0019,-2.0037 -3.0057,-1.002 -1.002,-1.002 -1.0019,-2.0039 1.0019,-2.0039 1.002,-2.0039 1.002,-2.0037 1.0017,-1.002 1.002,-2.0039 -1.002,-3.0057 -1.0017,-1.0019 h -1.002 l -2.0039,-1.002 -1.002,-2.0039 -2.0039,-1.002 h -4.0076 l -1.002,-1.0019 v -2.0039 l -1.0019,-2.0037 2.0039,-3.0059 -1.002,-3.0059 -2.0039,2.0039 -2.0037,1.002 h -2.0039 l -1.002,-3.0059 h -3.0059 l -2.0039,-1.0018 v -2.0039 l -1.0017,-2.0039 -3.0059,-1.002 h -4.0076 l -2.004,1.002 -1.0019,2.0039 -1.002,2.0039 v 2.0038 l 2.0039,2.0039 v 1.0019 l -2.0039,1.002 -1.0019,2.0037 -2.0037,1.002 -1.002,2.0039 -1.002,1.0019 1.002,2.0039 -1.002,2.004 -1.0019,1.0019 h -1.002 l -1.0019,2.0038 v 1.0019 h -3.0059 l -2.0037,1.002 -2.004,2.0039 v 1.0019 l -1.9996,1.0018 -1.0019,3.0059 -1.002,2.0039 v 3.0059 l 2.0039,2.0037 h 2.0037 l 1.002,2.0039 h 3.0059 l 2.0039,-1.002 h 2.0037 l 1.002,1.002 1.0019,2.0039 v 1.002 l -3.0059,3.0056 v 3.0059 l 2.004,1.002 1.0019,-2.0039 2.0039,-1.002 h 11.0212 l 1.0019,-2.0039 1.002,-1.0018 1.002,-1.0019 h 2.0037 l 1.0019,1.0019 1.002,-1.0019 h 1.0019 l 1.002,1.0019 -1.002,2.0037 v 2.004 l 2.004,-1.002 h 1.0019 l 2.0039,2.0039 1.002,1.002 1.0018,2.0037 -2.0038,3.0059 v 2.0039 l -2.0039,2.0039 2.0039,3.0057 -3.0058,4.0078 h -2.004 l -2.0039,1.002 -2.0039,2.0037 v 6.0118 l -1.0017,1.0019 -1.002,1.002 -1.002,1.0017 1.002,1.002 -1.002,2.0039 -3.0058,1.0019 h -2.0038 l -2.0039,-2.0039 -2.0039,1.002 h -1.002 l -2.0039,1.0019 h -3.0056 l -1.002,1.002 1.002,4.0077 v 3.0099 l 1.0019,3.0059 v 3.0056 l 3.0057,2.004 1.0019,1.0019 v 2.0039 l -1.0019,1.002 v 2.0039 l -1.002,1.002 -2.0037,3.0057 -1.0019,3.0058 v 2.0037 l -1.002,1.002 -1.002,4.0078 -3.0058,1.002 h -2.0038 l -2.0039,2.0039 v 2.0037 l -2.0039,1.002 -3.0057,1.002 h -5.0097 l -1.002,-1.002 -2.0039,-1.002 -1.0018,2.004 -1.002,1.0019 1.002,2.0039 v 1.0018 l -1.002,1.0019 h -6.0115 l -1.0019,-1.0019 -4.0079,-1.0018 1.002,-1.0019 -1.002,-1.002 h -2.0039 l -1.002,1.002 -3.0056,1.0019 -1.002,-1.0019 -1.002,1.0019 -1.0019,2.0037 v 2.004 l -2.0039,2.0039 h -2.0037 l -1.002,-1.002 1.002,-3.0059 v -3.0056 l -2.004,-1.002 h -1.0019 l -2.0037,1.002 -1.002,-2.0039 -1.002,-2.004 v -1.0017 h -2.0039 l -1.0019,1.0017 -1.002,2.004 -2.0039,-1.002 h -3.0016 l -2.0039,1.002 v 4.0076 l -1.0018,2.0039 h -3.0059 l -1.0019,1.002 h -1.002 v 1.0019 l -1.0019,1.002 -2.0037,1.0019 -1.002,1.0018 -1.002,1.002 v 2.0039 l 1.002,2.0039 -1.002,2.0039 v 1.002 l 1.002,3.0056 -1.002,1.002 -3.0058,-1.002 -2.0039,1.002 1.0019,3.0059 3.0059,1.0019 1.0019,4.0077 2.004,2.0039 1.0019,2.0039 v 3.0057 l -2.0039,2.0039 -2.0039,1.0019 -3.0059,2.004 -2.0039,3.0056 -3.0057,2.0039 -2.0039,1.002 -1.002,1.002 v -3.0059 l -1.0017,-1.002 v -3.0056 h -1.002 v -1.002 h -1.0019 v -1.002 l -1.002,-1.0019 h 1.002 l -1.002,-1.002 v -4.0076 l -1.0019,-1.002 v -1.0019 h -1.002 v -1.002 h 1.002 v -2.0039 l -1.002,-1.0019 v -4.0077 l 1.002,-1.002 1.0019,-1.0019 v -1.002 l -1.0019,-2.0037 v -1.0019 l -1.002,-1.002 h -1.002 v -1.0019 h -2.0039 l -1.0019,-1.002 v -3.0059 l -1.0018,-1.0019 v -1.002 l 2.0037,-2.0037 v -1.002 l -1.0019,-1.0019 v -1.002 l 1.0019,-1.002 v -1.0019 l 1.002,-1.0018 1.0019,-1.0019 h 1.002 v -1.002 h 1.002 v -1.0019 h 2.0039 v -1.002 l 1.0019,-2.0037 v -3.0059 l 1.002,-2.0039 v -1.002 l 1.0017,-2.0039 -1.0017,-1.002 v -4.0076 l 1.0017,-1.0019 v -2.004 l -1.0017,-2.0037 v -1.0019 h -1.002 l -1.0019,-1.002 h -3.0059 v -1.002 h -1.002 l -1.0019,-1.0019 v -2.0039 h -4.0077 v -1.002 h -1.0019 v -1.002 l -1.002,-1.0017 h -1.0019 v -1.002 l -1.002,-1.0019 v -5.0096 h 1.002 v -1.002 l -1.002,-1.0019 v -1.002 l 1.002,-1.002 -1.002,-1.0019 v -1.002 l -1.002,-2.0037 v -1.0019 h -1.0017 1.0017 v -2.0039 l -1.0017,-1.002 v 1.002 h -3.0059 v -1.002 h -2.0039 v -1.002 l -1.002,-1.0019 -1.0017,1.0019 v 1.002 h -1.002 l -1.0019,1.002 h -1.002 l -0.9979,-1.002 h -1.0019 l -1.0018,1.002 h -1.0019 v 1.0019 l -2.004,1.002 v -1.002 l 1.002,-2.0039 1.002,-2.0039 1.0019,-3.0057 2.0037,-2.0039 3.0059,-1.002 4.0078,1.002 2.0038,-2.0039 3.0058,-4.0077 v -3.0058 l -1.0019,-3.0059 -1.002,-1.002 -2.0037,1.002 h -3.0059 l -2.0039,3.0059 -2.0039,-1.002 -2.0039,1.002 -1.0018,2.0039 -2.0039,-1.002 -2.0039,-2.0039 -2.0039,1.002 -1.0018,-2.004 h -3.0059 l -2.0039,1.002 -1.002,2.0039 v 3.0059 l -1.0019,3.0057 -4.0076,2.0039 -12.0229,3.0057 -14.0268,1.0019 -4.0079,-2.0037 -2.0039,-1.002 -2.0037,-1.0019 -0.9979,-1.002 -2.0039,-3.0059 -3.0057,-4.0076 -5.0098,-5.0098 -2.0037,1.002 -3.0059,-1.002 -2.0039,1.002 h -3.0059 l -3.0056,2.0039 -4.0079,-3.0059 -1.0017,1.002 -1.002,2.0039 h -4.0078 l -2.0037,3.0059 h -4.0079 v -3.0059 l -2.0039,-2.0039 h -5.0096 l -3.0058,-1.002 -2.004,1.002 -3.0016,3.0059 1.002,4.0078 -1.002,2.0037 2.004,4.0078 -2.004,2.0038 -3.0058,-2.0038 h -2.0037 l -2.004,1.002 -2.0039,4.0076 -1.0019,2.004 -2.0038,1.0019 -1.0019,4.0076 h -4.0079 l 2.004,-2.0037 v -2.0039 l -1.002,-3.0059 v -3.0058 l -1.002,-2.0038 -2.0037,-2.0039 v -2.0039 l -2.0039,-3.0057 -2.0039,-2.0039 -2.0039,-1.0019 -2.0039,-2.004 v -2.0039 l 1.0019,-1.0019 1.002,-3.0057 v -2.0039 l -2.0039,-1.002 v -4.0076 l -2.0038,-2.0039 -2.0039,-1.002 -1.0019,-3.0057 -1.002,-2.0039 -3.0057,1.002 -1.0019,-1.002 1.0019,-3.0059 v -3.0059 l -1.0019,-2.0037 h -2.0039 l -2.0039,-3.0058 -4.0077,1.0019 -1.0019,-2.0039 -2.004,-3.0057 -2.0039,2.0039 -2.0037,1.0018 -1.0019,-1.0018 h -3.0016 l -1.002,2.0038 -1.002,1.0019 h -3.0058 l -1.002,-3.0057 1.002,-3.0058 1.0019,-3.0059 -2.0039,-2.0039 -2.0039,-3.0057 -2.0037,-1.0019 -3.0059,1.0019 v 2.0037 l -2.0037,3.0059 h -2.0039 l -1.002,-3.0059 v -9.017 l 1.002,-2.0039 -1.002,-2.0039 -4.0078,-2.0038 1.0019,-2.0039 3.0059,-2.0039 1.002,-2.0039 -1.002,-7.0135 v -7.0135 l 1.002,-1.002 2.0039,-1.0019 1.0017,-2.0037 v -4.0079 l 1.002,-3.0099 2.0039,-1.002 2.0039,-1.002 v -2.0037 l -1.0019,-2.0039 -2.0039,-2.0039 -2.004,-2.0039 -2.0037,-2.004 v -4.0076 l -2.0039,-1.0019 1.002,-2.0039 h 2.0039 l 3.0057,-1.0018 2.0039,-2.0039 3.0056,-2.004 1.002,-3.0058 3.0059,-1.002 1.0019,-2.0037 1.002,-1.0019 2.0039,-1.002 2.0037,-4.0078 h 2.004 l 2.0039,-2.0038 1.0019,-4.0078 -2.0039,-6.0115 2.0039,-1.002 v -6.0116 l 1.0018,-3.0058 3.0059,-5.0096 2.0039,-4.0079 h 3.0057 l 2.0039,-2.0039 3.0058,-1.0019 3.0059,-2.0038 3.0057,-3.0058 1.0019,-4.0077 -1.0019,-3.0058 -3.0057,-2.0038 -5.0098,-1.0019 -2.0039,-3.0059 1.002,-3.0059 -3.0059,-2.0039 -2.0037,-3.0056 v -4.0079 l 2.0037,-1.0018 h 13.0255 l 2.0037,-1.0019 h 6.0115 l 4.0079,-1.002 3.0058,1.002 5.0096,-3.0059 h 2.0039 l 3.0016,-1.0019 3.0057,-1.002 h 3.0059 l 2.0039,-2.0039 v -2.0037 l -2.0039,-2.0039 -2.0039,-1.002 v -2.0039 l 1.0019,-3.0057 v -3.0059 l -2.0039,-2.0039 h -2.0037 l -1.002,-2.0037 v -2.0039 l -2.0039,-1.002 -2.0039,-2.008 -1.0018,-2.0039 v -10.0196 l 2.0038,-2.0039 v -3.0059 l -2.0038,-1.0017 -1.0019,-2.004 v -4.0076 l -2.0039,-2.0039 -2.004,-1.002 h -2.0037 l -2.0039,-1.0019 v -2.0039 l 2.0039,-1.002 3.0057,-1.002 v -2.0039 l -2.0039,-1.0017 h -6.0116 l -4.0078,-2.004 -2.0037,1.002 -2.0039,-2.0039 -2.004,1.0019 -1.0019,1.002 v 3.0057 l -2.0037,2.0039 -2.0039,1.002 -2.004,3.0058 -1.0019,1.002 -1.002,2.0039 -2.0039,3.0057 -3.0057,2.0039 v -1.002 h -3.0058 l -2.0037,2.004 -2.004,1.0017 -2.0039,-1.0017 -1.9996,-2.004 -4.0079,1.002 v 4.0076 l -2.0039,1.002 -2.0037,1.002 -2.0039,4.0078 -1.002,3.0057 v 2.0039 l 2.004,3.0058 -1.002,3.0057 -2.0039,-1.0019 -2.0037,2.0039 v 4.0076 l -2.004,3.0059 h -4.0078 l -2.0039,1.0019 -3.0057,2.004 -3.0059,2.0039 h -2.0039 l -2.0037,1.0019 -2.0039,2.0038 -2.0039,1.0019 -2.0037,2.0039 v 4.0077 l -2.004,3.0058 h -3.0058 l -3.0059,-2.0039 1.002,-3.0056 -2.004,-1.002 h -1.0017 l -3.0059,2.0037 -3.0016,2.0039 -2.0039,4.0079 h -3.0059 v -1.002 l 1.002,-3.0059 v -5.0096 l -2.0039,-2.0039 -2.0038,-1.0019 -3.0058,-3.0057 v -3.0059 l -4.0077,-4.0078 -3.0058,-4.0076 -1.002,-2.004 -2.0037,-1.0019 h -2.0039 l -1.002,1.0019 -2.0039,2.004 h -3.0059 l -3.0057,-1.002 -2.0039,2.0039 -1.0019,3.0057 -2.0038,-1.002 h -2.0039 l -1.0019,-1.0017 h -2.004 l -2.0039,1.0017 -1.0019,-1.0017 -2.0037,-1.002 -3.0059,3.0057 h -6.0075 l 1.002,-4.0076 1.0019,-2.004 v -4.0076 l -2.0039,-3.0059 v -3.0056 l 1.002,-2.004 1.0019,-2.0039 v -2.0039 l 1.002,-3.0059 1.0019,-1.0017 2.004,-1.002 v -2.0039 l 1.0017,-1.002 1.002,-1.0019 2.0039,-1.0018 2.0039,1.0018 1.0018,-2.0037 -1.0018,-3.0059 v -7.0135 l -1.0019,-4.0079 -2.004,-2.0037 v -3.0059 l 2.004,-2.0039 1.0019,-2.0037 v -3.0059 l 1.0018,-1.0019 2.0039,-1.002 2.0039,-2.0039 -1.002,-2.0039 5.0098,-5.0096 v -4.0076 l 3.0057,-3.0059 1.002,-3.0059 v -3.0057 l -1.002,-2.0039 2.0039,-1.0019 2.004,-2.00396 3.0056,-3.00568 v -3.00588 l -1.0019,-1.00196 -1.0018,-3.00566 5.0096,-5.00979 v -3.00588 l -1.002,-3.00569 1.002,-3.00587 3.0059,-2.0037 2.0039,-1.00196 v -3.00588 h -1.002 l -3.0058,1.00196 h -3.0059 l -3.0057,-1.00196 -2.0039,-1.00196 v -4.00783 l -4.0078,-1.00177 -2.0038,-2.00392 -1.0019,-2.00392 h -2.0039 l -1.002,1.00196 h -1.002 l -3.0058,1.00196 -1.0018,1.00196 -2.0039,2.00373 -2.0039,3.00587 -2.0037,1.00196 -3.0059,1.00196 -3.0059,2.00392 -1.0017,2.00392 -2.004,-2.00392 -2.0039,1.00196 -2.0039,3.00566 -2.0039,2.00391 h -3.0057 l -2.0039,3.00588 -2.0039,1.00177 -3.0057,1.00196 -2.0039,1.00196 h -4.0079 l -2.0039,-2.00392 -1.0017,-3.00569 h -1.002 l -3.0059,-2.00391 -2.0039,-3.00566 1.002,-3.00588 -2.0037,-2.00392 v -10.01959 l 1.0017,-7.01351 -2.0037,-4.00763 -2.0039,-6.01583 v -4.00784 l 2.0039,-2.00371 h 2.0037 l 2.0039,1.00196 2.004,-1.00196 -1.002,-3.00588 1.002,-2.00392 h 2.0039 l 1.0017,2.00392 2.0039,1.00196 2.004,-2.00392 v -2.00392 l -4.0079,-3.00567 -1.0017,-3.00588 -2.0039,-4.00763 1.0019,-2.00392 2.0037,-2.00391 -1.0017,-3.00588 -3.0059,-2.00392 -5.0096,-3.00567 -6.0115,-4.00784 -4.0079,-2.00371 -4.0078,-1.00196 -2.0037,-1.00196 -3.0016,1.00196 -3.0059,-3.00588 2.0039,-2.00371 -1.0019,-4.00784 1.0019,-1.00195 1.002,2.00391 h 5.0096 l 1.0019,-2.00391 v -4.00784 l -1.0019,-3.00567 -1.002,-2.00392 1.002,-3.00567 1.0019,-4.00784 -1.0019,-3.00588 2.0039,-4.00763 2.0037,-1.00196 -1.002,-3.00587 2.004,-1.00176 v -3.00588 l -2.004,-1.00195 -3.0056,-1.00196 -5.0096,-2.00372 -4.0079,-1.00196 v -3.00587 h -5.0097 l -3.0057,-1.00196 v -3.00588 l -1.002,-1.00196 -3.0059,1.00196 -3.0056,-4.00763 2.0039,-2.00392 2.0037,-2.00391 4.0078,2.00391 2.0038,-1.00195 4.0078,1.00195 3.0059,1.00196 4.0076,-2.00391 -3.0057,-3.00568 -2.0039,-3.00587 -1.002,-4.00784 2.004,-2.00371 -1.002,-2.00392 -5.0098,-5.00959 -2.0037,-5.0098 7.0135,-2.008 v -3.00567 l -1.002,-2.00392 1.002,-4.00783 -3.0059,-3.00588 v -3.00567 l -2.0039,-3.00588 v -5.00959 l 1.002,-1.00196 1.0019,-1.00196 3.0059,-2.00392 v -4.00763 l -4.0078,-1.00196 v -3.00587 l -1.002,-2.00372 2.0039,-1.00196 2.0039,-2.00391 -1.0019,-4.00763 2.0039,-3.00588 3.0059,-1.00196 6.0115,-6.01155 h 4.0077 l 2.0039,-2.00392 2.0039,-3.00588 h 3.0059 l 1.0017,-2.00371 4.0079,-1.00196 4.0076,1.00196 2.0039,-2.00392 h 1.002 l 3.0056,1.00196 3.0059,-2.00392 1.002,-4.00783 2.0039,-1.00196 2.0039,1.00196 1.002,1.00196 h 2.0037 l 2.0039,-1.00196 1.002,-1.00196 h 6.0074 l 2.004,-3.00567 -1.002,-1.00196 1.002,-5.00959 -2.004,-3.00588 v -2.00391 l 1.002,-5.0096 v -5.00979 l 1.002,-4.00763 2.0037,-2.00392 4.0078,-2.00371 3.0057,1.00175 4.0078,-1.00175 1.0018,2.00371 2.0039,-1.00196 3.0059,-1.00175 h 2.0039 l 3.0057,-1.00196 3.0058,-2.00392 h 6.0116 l 1.0019,-1.00196 1.002,-3.00588 1.002,-4.00763 3.0058,-2.00392 2.0038,-2.00391 v -2.00372 l 1.0019,-2.00392 1.002,-3.00587 1.0019,-4.00763 v -3.00588 l -1.0019,-1.00196 -2.0039,-2.008 2.0039,-6.01155 4.0078,-4.00783 5.0053,-2.00372 v -2.00392 l 3.0059,1.00196 1.002,4.00764 3.0058,-2.00392 v -4.00763 l -1.0019,-1.00196 h -2.0039 l -1.002,-2.00392 -2.0039,-2.00392 v -5.00959 l -1.002,-1.00196 -3.0057,-1.00196 -1.0019,-2.00371 -1.002,-3.00588 -3.0059,-2.00392 v -2.00371 l -2.0037,-2.00392 -1.0019,-3.00587 v -6.01155 l -1.002,-3.00588 -2.0039,-2.00392 -2.0037,-1.00175 v -5.0098 l -2.0039,-2.00391 v -3.00568 l -1.002,-5.00979 h -2.0039 l -5.0096,-2.00372 -6.0116,-2.00391 -1.0019,-4.00763 -1.002,-6.01176 -2.0039,-2.00392 v -2.00391 h 3.0059 v -3.00568 l 1.0019,-2.00391 1.0018,-4.00764 v -3.00587 l -3.0057,-2.00392 -1.0019,-3.00567 h 2.0039 l 1.0019,1.00175 1.0018,-2.00371 2.0039,-2.00392 2.0039,-1.00196 v -3.00567 l -2.0039,-2.00392 1.002,-3.00588 3.0056,-1.00196 2.004,-4.00763 1.0019,-2.00392 2.0039,-2.00391 h 1.002 l -1.002,-2.00392 v -6.01563 l 1.002,-3.00588 -1.002,-3.00567 -1.0019,-6.01176 -2.0039,-5.00958 -4.0077,-3.00588 2.0037,-3.005665 3.0059,-1.00196 1.002,-1.00196 -1.002,-2.00392 v -4.00763 l -2.0039,-1.00196 -3.0057,-4.00784 -2.0039,-4.00763 -2.0039,-5.00979 -1.0018,-3.00567 1.0018,-3.00588 h 1.002 l 2.0039,-1.00196 1.0019,-2.00392 v -3.00567 l -1.0019,-3.00588 3.0056,-2.00392 2.004,1.00196 z"
     style="clip-rule:evenodd;fill:#000000;fill-rule:nonzero;stroke:none;stroke-width:2.08758px"
     id="path1282" />
</svg>
