<?xml version="1.0" encoding="UTF-8" standalone="no"?>
<svg
   xmlns:dc="http://purl.org/dc/elements/1.1/"
   xmlns:cc="http://creativecommons.org/ns#"
   xmlns:rdf="http://www.w3.org/1999/02/22-rdf-syntax-ns#"
   xmlns:svg="http://www.w3.org/2000/svg"
   xmlns="http://www.w3.org/2000/svg"
   xmlns:sodipodi="http://sodipodi.sourceforge.net/DTD/sodipodi-0.dtd"
   xmlns:inkscape="http://www.inkscape.org/namespaces/inkscape"
   version="1.0"
   width="1024pt"
   height="1024pt"
   viewBox="0 0 1024 1024"
   preserveAspectRatio="xMidYMid meet"
   id="svg2211"
   sodipodi:docname="vector.svg"
   inkscape:version="1.0.2-2 (e86c870879, 2021-01-15)">
  <defs
     id="defs2215" />
  <sodipodi:namedview
     pagecolor="#ffffff"
     bordercolor="#666666"
     borderopacity="1"
     objecttolerance="10"
     gridtolerance="10"
     guidetolerance="10"
     inkscape:pageopacity="0"
     inkscape:pageshadow="2"
     inkscape:window-width="1366"
     inkscape:window-height="697"
     id="namedview2213"
     showgrid="false"
     inkscape:zoom="0.1940918"
     inkscape:cx="1266.7524"
     inkscape:cy="760.26375"
     inkscape:window-x="-8"
     inkscape:window-y="-8"
     inkscape:window-maximized="1"
     inkscape:current-layer="svg2211"
     fit-margin-top="0"
     fit-margin-left="0"
     fit-margin-right="0"
     fit-margin-bottom="0" />
  <metadata
     id="metadata2205">
Created by potrace 1.10, written by Peter Selinger 2001-2011
<rdf:RDF>
  <cc:Work
     rdf:about="">
    <dc:format>image/svg+xml</dc:format>
    <dc:type
       rdf:resource="http://purl.org/dc/dcmitype/StillImage" />
    <dc:title></dc:title>
  </cc:Work>
</rdf:RDF>
</metadata>
  <path
     d="m 815.38323,417.18338 -6.3212,12.6423 v 12.6423 l 6.3212,18.9635 v 37.9255 l 6.3211,12.6423 6.3212,6.3212 6.3212,12.6411 -6.3212,12.6423 -6.3212,6.3211 -12.6411,6.3212 h -6.3211 l -6.3212,-6.3212 h -12.6423 l -6.3211,12.6424 -6.3212,6.3197 v 12.6423 l 6.3212,12.6424 6.3211,18.9634 6.3212,6.3212 h 25.2846 l 12.6411,6.3211 v 6.32 l -6.3212,12.6423 6.3212,12.6423 -6.3212,6.3212 -12.6411,6.3211 h -6.3211 v 18.9621 l -6.3212,6.3212 h -12.6423 v -18.9635 l -6.3211,-6.3198 -18.9621,12.6409 -6.3212,6.3212 v 31.6058 h -6.3211 l -6.3212,6.3211 -6.3211,12.6411 v 25.2847 l 12.6409,6.3211 -6.3212,12.6409 v 6.3212 l -6.3211,6.3212 6.3211,12.6423 6.3212,6.3211 v 18.9623 l -6.3212,6.3211 h -6.3211 v -12.6423 l -12.641,-6.3211 -6.3211,6.3211 v 18.9635 h -31.6058 l -6.3211,12.6423 -6.3212,12.6423 v 12.6409 l -12.6411,6.3212 h -6.3212 l -6.3211,6.3212 v 12.6423 l -12.6423,12.6423 -6.3212,6.3199 -6.3211,6.3212 -6.2941,12.6423 v 25.2846 l -6.3211,12.6423 -12.6423,18.96212 h -25.2846 l -12.6412,6.3212 -12.6423,12.6423 h -6.3211 l -6.3212,-6.3212 v -6.3211 h 6.3212 -6.3212 6.3212 v -18.96352 h -18.9635 v 6.3212 l -6.3211,-6.3212 h -6.3212 v -12.6409 h -18.9621 v -18.9635 h 6.3212 v -6.3211 h 6.3211 v -6.3212 h -6.3211 l -6.3212,-12.6423 v -44.2469 h 6.3212 v -6.3212 h 6.3211 v -12.6409 6.3212 h -6.3211 v 6.3197 -6.3197 h -6.3212 v -12.6423 h -6.3211 v -6.3212 h -6.3212 v -6.3212 h -6.3211 v -12.6423 h 6.3211 l -6.3211,-6.3211 h 6.3211 -6.3211 v -6.3212 h -12.6424 l 6.3212,-6.3211 -6.3212,-6.32 h 6.3212 v -6.3211 h 6.3212 v -12.6423 h 6.3211 v -12.6424 h -6.3211 l -6.3212,-6.3197 h -6.3212 v -12.6423 h -6.3211 v 6.3211 h -6.3212 l -6.3211,6.3212 h 6.3211 -6.3211 l -6.3212,6.3197 h 6.3212 v 6.3212 l -6.3212,6.3212 v -6.3212 h -25.2834 v -6.3212 h 6.3212 l -6.3212,-6.3197 -6.3211,-6.3212 v 6.3212 l -6.3212,-6.3212 h -6.3212 6.3212 v -6.3211 h 6.3212 v 6.3211 -6.3211 l 6.3211,-6.3212 v -12.6423 h -6.3211 l 6.3211,-6.3212 v -12.6411 l 6.3212,-6.3211 v -6.3212 l -6.3212,-6.3211 h 6.3212 -6.3212 v -25.2847 h -6.3211 v -6.3211 l 6.3211,-6.3198 v -6.3211 h -6.3211 6.3211 v -25.2847 l 6.3212,-6.3211 6.3211,-6.32 v -6.3211 h 6.3212 l 6.3211,-6.3212 v -6.3211 h 12.6423 v -6.3212 l -6.3211,-6.3211 h -6.3212 6.3212 v -37.9256 h 6.3211 v -6.3212 h 6.3212 l 6.3211,-6.3211 h 6.3212 l -6.3212,-6.3212 h -6.3211 l -6.3212,-6.3211 h -6.3211 v -12.6411 h -18.9635 l -6.3211,-6.3212 h -6.3212 l -6.3211,-6.3211 h -6.3212 v -6.3212 h -6.3212 6.3212 l -6.3212,-6.3211 h -6.3211 l -6.3212,-6.3212 v -6.3212 h -6.3211 v -6.3197 l -6.3212,-6.3212 v -6.3211 h -6.3211 v -6.32 h -6.3212 v -6.3212 h -12.6423 l -6.3211,-6.3211 h -12.641 l -6.3211,-6.3212 h -12.6424 l -6.3211,6.3212 v -6.3212 h -6.3212 v -25.28321 h 12.6423 v -6.32116 h -6.3211 v -18.96346 l 6.3211,-6.32116 h -6.3211 v -6.32115 h -6.3212 l -6.3211,-6.31995 h -12.6154 l -6.3211,-6.32116 v -6.32115 h 6.3211 v -6.32116 h -6.3211 6.3211 v -6.32108 l 6.3212,-6.32116 h 6.3211 v -6.32115 h -6.3211 6.3211 l -6.3211,-6.32116 6.3211,-6.32115 v -18.96218 l 6.3212,-6.32115 v -6.32116 h -6.3212 v -18.96218 l -6.3211,-6.32115 h -6.3212 v -6.32116 h -6.3211 v -6.32115 h -6.3212 v -6.32116 h -6.3211 v -12.6423 h -12.6423 v 6.32115 h -25.2833 v -6.32115 l -6.3211,6.32115 v -12.64231 h -6.3212 v -6.32115 h -6.3212 v -12.64231 h 6.3212 v -12.64103 h 6.3212 l 6.3211,-6.32115 6.3212,-6.32116 v -12.64231 h -6.3212 V 158.025 l 6.3212,-6.32116 v -12.64231 h 6.3211 -6.3211 6.3211 v -6.32115 l 6.3212,-6.32116 V 113.7782 h 12.6409 v -6.32115 l 6.3212,-6.32116 h 6.3211 l 6.3212,6.32116 h 6.3211 v 6.32115 -6.32115 h 6.3212 V 94.81474 h 6.3211 v -6.32116 l 12.6423,-6.32115 h 6.3212 l -6.3212,-6.32116 6.3212,-6.32115 v -6.32116 l 6.3212,-6.32115 6.3211,-6.31987 v -6.32115 h 6.3212 l -6.3212,-6.32116 h 12.6411 v -6.32115 h 6.3212 V 18.96217 h -6.3212 l 6.3212,-6.32116 h 6.3211 V 6.3211497 h 6.3212 V -1.0258788e-5 h 6.3211 V 6.3211497 h 6.3212 l 6.3211,12.6410203 v 12.64231 l -6.3211,6.32115 -6.3212,12.64231 6.3212,6.31987 h 6.3211 v 6.32115 l 12.6424,6.32116 6.3211,6.32115 h 12.6409 l 6.3212,12.64231 v 12.64231 h 6.3212 l 12.6423,-6.32115 h 12.6423 l 6.3211,6.32115 6.3212,6.32116 6.3211,-6.32116 h 6.3212 V 82.17243 h 31.6046 v 12.64231 l -6.3212,6.32115 v 18.96218 l 6.3212,6.32115 h 12.6409 l 6.3212,6.32116 v 31.60448 l 12.6423,12.64231 v 18.96347 l 6.3211,12.64102 12.6423,12.64231 12.6411,6.32116 h 31.6044 l 6.2954,6.32115 6.3212,6.32115 6.3212,6.32116 6.3211,6.32115 v 6.32116 l 12.6411,6.32115 h 6.3212 l 12.6423,6.31987 6.3211,-6.31987 12.6423,-6.32115 h 12.641 v 6.32115 l 6.3211,6.31987 12.6423,6.32116 6.3212,6.32115 6.3212,6.32116 h 12.6411 l 12.6423,12.64231 6.3211,12.64102 12.641,12.64231 h 6.3211 v 12.64231 l 6.3212,12.64224 6.3211,12.64231 6.3212,6.31995 h 25.2846 l 18.9635,18.96346 v 25.28328 z"
     style="clip-rule:evenodd;fill:#000000;fill-rule:nonzero;stroke:none;stroke-width:13.1701px"
     id="path1292" />
</svg>
