<?xml version="1.0" encoding="UTF-8" standalone="no"?>
<svg
   xmlns:dc="http://purl.org/dc/elements/1.1/"
   xmlns:cc="http://creativecommons.org/ns#"
   xmlns:rdf="http://www.w3.org/1999/02/22-rdf-syntax-ns#"
   xmlns:svg="http://www.w3.org/2000/svg"
   xmlns="http://www.w3.org/2000/svg"
   xmlns:sodipodi="http://sodipodi.sourceforge.net/DTD/sodipodi-0.dtd"
   xmlns:inkscape="http://www.inkscape.org/namespaces/inkscape"
   version="1.0"
   width="1024pt"
   height="1024pt"
   viewBox="0 0 1024 1024"
   preserveAspectRatio="xMidYMid meet"
   id="svg2211"
   sodipodi:docname="vector.svg"
   inkscape:version="1.0.2-2 (e86c870879, 2021-01-15)">
  <defs
     id="defs2215" />
  <sodipodi:namedview
     pagecolor="#ffffff"
     bordercolor="#666666"
     borderopacity="1"
     objecttolerance="10"
     gridtolerance="10"
     guidetolerance="10"
     inkscape:pageopacity="0"
     inkscape:pageshadow="2"
     inkscape:window-width="1366"
     inkscape:window-height="697"
     id="namedview2213"
     showgrid="false"
     inkscape:zoom="0.1940918"
     inkscape:cx="1266.7524"
     inkscape:cy="760.26375"
     inkscape:window-x="-8"
     inkscape:window-y="-8"
     inkscape:window-maximized="1"
     inkscape:current-layer="svg2211"
     fit-margin-top="0"
     fit-margin-left="0"
     fit-margin-right="0"
     fit-margin-bottom="0" />
  <metadata
     id="metadata2205">
Created by potrace 1.10, written by Peter Selinger 2001-2011
<rdf:RDF>
  <cc:Work
     rdf:about="">
    <dc:format>image/svg+xml</dc:format>
    <dc:type
       rdf:resource="http://purl.org/dc/dcmitype/StillImage" />
    <dc:title></dc:title>
  </cc:Work>
</rdf:RDF>
</metadata>
  <path
     d="m 949.06817,566.13466 -8.326,16.65187 -8.3259,16.65017 8.3259,16.65186 8.326,8.32593 8.3259,8.32594 h 16.6519 l 24.9762,8.32593 16.65193,8.32424 v 16.65186 L 1024,674.3684 v 16.65186 l -8.3259,8.32593 -8.326,24.9778 -16.65033,8.3259 -8.3259,8.3243 h -8.3259 l 8.3259,16.6518 8.3259,8.326 8.3244,8.3259 v 16.6502 h 8.32593 L 1024,807.57989 v 16.6519 l -8.3259,8.3259 v 16.6519 l -8.326,8.3259 -16.65033,8.326 -8.3259,8.3242 -8.3259,8.3259 -16.6519,8.326 -8.3259,16.6518 v 8.326 l 8.3259,16.6501 v 16.6519 l -8.3259,8.3259 -8.326,-8.3259 h -16.6518 l -8.326,-8.3259 -8.3241,8.3259 -16.6518,8.3259 h -16.6519 v -16.6518 l 8.3259,-8.326 -16.6518,8.326 -8.326,-8.326 h -16.6503 v -24.9761 h 24.9763 v -24.9778 l -8.326,-8.3259 h -8.3243 l -16.6519,-8.3242 h -8.3259 l -16.6519,8.3242 -8.3259,8.3259 h -8.326 l -8.3259,-8.3259 v -8.3242 l -8.3259,-8.326 h -24.976 l -8.3259,8.326 v 8.3242 h -8.326 l -8.3259,-8.3242 h -8.3259 v -8.326 l -8.3244,-16.6518 -8.3259,-8.326 -8.292,-16.6518 -16.6501,-8.326 h -33.3037 l -8.326,8.326 h -24.9778 l -8.3243,24.9778 24.9762,8.3259 8.3259,16.6519 -16.6518,8.3242 h -16.6503 l -8.3259,8.3259 h -8.326 l -8.3259,-8.3259 v -8.3242 h -16.6519 l -8.3259,8.3242 h -16.6501 l -16.6518,8.3259 h -8.326 v -16.6501 l -8.3259,-8.326 h -8.3259 l -16.6519,16.6502 -16.6519,8.3259 h -16.6502 l -8.326,-8.3259 h -49.9538 l -16.6518,33.3037 -8.326,-8.3259 v -16.6519 l -8.3259,-16.6501 v -16.6519 l -8.3259,-16.6519 v -16.6518 l -8.326,-16.6519 v -41.628 l 8.326,-16.6518 8.3259,-8.3243 16.6519,-16.65183 v -24.9778 l -8.326,-8.32593 -8.3259,-8.32593 -8.3259,-16.65187 -8.326,-8.32593 -8.3259,-8.32424 -8.3259,-8.32593 v -24.9778 l -8.326,-8.32593 v -8.32424 l 16.6501,-16.65187 V 549.4828 l 8.3259,-8.32594 8.326,-8.32593 V 524.505 l -8.326,-8.32594 -8.3259,-8.32423 -8.3259,-8.36155 h -8.326 l -8.3259,-16.65186 -8.3259,8.32593 h -24.976 l -16.6519,-8.32593 -16.6164,-8.32424 h -33.30369 l -8.32593,-8.32593 -16.65187,8.32593 h -24.97599 l -8.32593,-8.32593 h -8.32593 l -8.32594,-16.65187 8.32594,-8.32593 v -8.32593 l -8.32594,-8.32593 H 91.583665 l -16.65028,-8.32424 h -33.30373 l -16.65187,-8.32593 -8.32593,-8.32594 L -5.258789e-6,407.91142 8.3259247,391.25955 v -8.32593 l 8.3259303,-16.65185 8.32593,-8.32423 8.32594,-8.32594 h 8.32593 l 8.32593,-8.32593 v -16.65186 l -8.32593,-8.32594 v -8.32593 l -8.32593,-16.65186 v -16.65017 l 16.65186,-16.65187 h 33.30373 l 8.32594,-8.32593 8.32593,-8.32594 v -33.30203 l -8.32593,-16.65187 v -16.65186 l -16.65187,-8.32593 -8.32593,-8.32594 v -16.65186 l 8.32593,-8.32424 8.32593,-8.32593 h 16.65187 l 16.651855,-16.65187 h 33.30215 l 8.32593,8.32593 8.32594,16.65187 h 24.9778 l 8.32593,-16.65187 8.32593,-8.32593 8.32593,-16.651855 8.32592,-8.32424 16.6501,-16.65187 h 33.3037 l 24.9778,16.65187 16.6503,16.65017 16.6519,8.325925 h 8.3259 l 16.65,-8.325925 h 16.6519 l 8.3259,16.651855 8.326,16.65187 v 16.65017 l 8.3259,8.32593 16.6503,8.32594 16.6519,-8.32594 h 8.3259 l 8.3259,8.32594 -8.3259,16.65186 v 8.32593 l 8.3259,8.32594 8.326,16.65186 16.6518,8.32424 8.3259,8.32593 16.6519,24.9778 -8.3259,24.9761 -16.6519,8.32594 8.3259,16.65186 h 24.9778 l 16.6501,16.65187 16.6519,8.32593 v 24.9778 h 8.3259 l 16.6519,-24.9778 h 49.954 l 16.6518,-8.32593 h 24.9421 l 8.326,8.32593 v 8.32593 l -8.326,8.32593 8.326,16.65017 v 16.65185 l 33.3021,16.65186 24.9778,8.32594 8.3259,-8.32594 8.326,-8.32593 16.65,8.32593 33.3038,-16.65186 16.6518,16.65186 -8.3259,16.65187 16.6519,16.65017 h 8.3259 l 8.3243,-8.32593 h 16.6519 l 8.3259,8.32593 -8.3259,16.65186 8.3259,8.32594 h 24.9778 l 8.3242,8.32593 8.3259,8.32593 v 16.65017 h -24.976 v 8.32593 l -8.3259,16.65187 h 8.3259 l 8.3259,16.65187 h 16.6501 l 8.3259,-8.32594 v -8.32593 l 16.6519,-8.32593 h 24.9778 v -8.32594 l 8.3259,-16.65186 8.326,-8.32424 16.6502,-8.32593 8.326,8.32593 h 8.3259 l 8.32593,8.32424 h 8.326 v 16.65186 l -8.326,8.32594 v 8.32593 h -24.97783 l -8.3259,16.65187 -16.6503,16.65186 -8.3259,16.65017 z"
     style="clip-rule:evenodd;fill:#000000;fill-rule:nonzero;stroke:none;stroke-width:17.3471px"
     id="path1240" />
</svg>
