<?xml version="1.0" encoding="UTF-8" standalone="no"?>
<svg
   xmlns:dc="http://purl.org/dc/elements/1.1/"
   xmlns:cc="http://creativecommons.org/ns#"
   xmlns:rdf="http://www.w3.org/1999/02/22-rdf-syntax-ns#"
   xmlns:svg="http://www.w3.org/2000/svg"
   xmlns="http://www.w3.org/2000/svg"
   xmlns:sodipodi="http://sodipodi.sourceforge.net/DTD/sodipodi-0.dtd"
   xmlns:inkscape="http://www.inkscape.org/namespaces/inkscape"
   version="1.0"
   width="1024pt"
   height="1024pt"
   viewBox="0 0 1024 1024"
   preserveAspectRatio="xMidYMid meet"
   id="svg2211"
   sodipodi:docname="vector.svg"
   inkscape:version="1.0.2-2 (e86c870879, 2021-01-15)">
  <defs
     id="defs2215" />
  <sodipodi:namedview
     pagecolor="#ffffff"
     bordercolor="#666666"
     borderopacity="1"
     objecttolerance="10"
     gridtolerance="10"
     guidetolerance="10"
     inkscape:pageopacity="0"
     inkscape:pageshadow="2"
     inkscape:window-width="1366"
     inkscape:window-height="697"
     id="namedview2213"
     showgrid="false"
     inkscape:zoom="0.1940918"
     inkscape:cx="1266.7524"
     inkscape:cy="760.26375"
     inkscape:window-x="-8"
     inkscape:window-y="-8"
     inkscape:window-maximized="1"
     inkscape:current-layer="svg2211"
     fit-margin-top="0"
     fit-margin-left="0"
     fit-margin-right="0"
     fit-margin-bottom="0" />
  <metadata
     id="metadata2205">
Created by potrace 1.10, written by Peter Selinger 2001-2011
<rdf:RDF>
  <cc:Work
     rdf:about="">
    <dc:format>image/svg+xml</dc:format>
    <dc:type
       rdf:resource="http://purl.org/dc/dcmitype/StillImage" />
    <dc:title></dc:title>
  </cc:Work>
</rdf:RDF>
</metadata>
  <path
     d="m 218.86323,186.94985 h -4.249 z m 38.2392,-8.498 v -4.249 z m 0,0 v -4.249 z M 201.86633,46.738105 h -4.249 4.249 -4.249 v 8.498 -8.498 4.249 -4.249 z m 21.2442,25.49312 v 4.24899 h -4.249 v -4.24899 z m 0,-67.9822403 V -5.2587893e-6 Z m 89.2272,169.9564653 h 4.249 v 4.249 z m -12.7462,-29.74299 v 4.249 z m -8.498,-16.99513 v 4.249 -4.249 4.249 h -4.249 v 4.249 -4.249 h 4.249 -4.249 4.249 l -4.249,-4.249 h -4.249 v -8.498 h 4.249 v 4.249 -4.249 h 8.498 l -4.249,4.249 z m 12.747,12.74613 v 8.498 -8.498 h -4.249 z m 21.2442,42.48998 h -4.249 v 4.249 h -4.249 v -8.49713 h 8.4971 z M 265.60043,16.998585 v 4.24899 h -4.249 v 4.249 h -4.249 v 4.249 h -4.249 v 4.249 h -4.2489 v -4.249 h 4.2489 v -4.249 h 4.249 v -4.249 h 4.249 v -4.24899 z m 131.7138,140.212605 v 4.24899 h 4.249 -4.249 v 4.249 h 4.249 v -4.249 4.249 h -4.249 v 16.996 h -8.4972 v -8.498 h -4.249 4.249 v -8.49713 h 4.249 v -4.249 h 4.249 v -4.249 4.249 -4.249 h 4.249 z m 4.249,-12.74613 v 4.24899 h -4.249 v 8.49714 h -8.4972 v 4.24899 -4.24899 l 4.249,-4.249 v -8.49713 h 4.249 v -4.249 4.249 z m 0,8.49713 v -4.249 h 4.249 v 4.249 z m 8.498,-4.249 h -4.249 v 4.249 -4.249 z m 0,-4.249 v 4.249 z m 0,-8.49713 v 4.249 z m 16.996,21.24413 v -4.249 z m -42.49,-93.475365 v -4.249 z m 33.9911,67.981365 v 8.498 h -4.249 v 4.249 h -4.249 v -4.249 h 4.249 v -4.249 4.249 -4.249 h 4.249 -4.249 4.249 v -4.249 h 4.249 z m 12.7462,25.49313 v 4.249 z m -38.2385,-89.227235 v 4.249 -4.249 h 4.249 z m 42.4719,84.975645 v 4.24899 z m -25.4932,-63.734975 v -4.249 z m 8.4972,8.498 v -4.249 z m 25.494,38.238385 -4.249,4.24899 h 4.249 -4.249 v 8.498 h -4.249 v 8.498 h -4.249 4.249 -4.249 v -4.249 h 4.249 -4.249 4.249 v -4.249 h -4.249 4.249 v -8.498 h 4.249 v -4.24899 z m 0,0 v -4.249 z m 4.249,0 v 4.24899 h -4.249 4.249 z m 0,-4.249 v 4.249 z m -4.249,-12.74613 v -4.249 z m 8.4971,-4.249 v 4.249 h -4.249 v -4.249 z m 0,-4.249 h 4.249 z m 4.249,0 v 4.249 l -4.249,-4.249 z m 8.4979,25.49313 h -4.249 4.249 v -4.249 z m 4.249,-21.24413 v 4.249 h -4.249 v 4.249 h 4.249 -4.249 v 4.24899 h -4.249 v 4.249 h 4.249 -4.249 v 4.249 h -4.2489 v -4.249 h 4.2489 -4.2489 v 4.249 h -4.249 4.249 -4.249 v -4.249 l 4.249,-4.249 h 4.2489 v -4.24899 h 4.249 -4.249 v -4.249 h 4.249 v -4.249 4.249 -4.249 z m 4.249,8.49713 h -4.249 z m 4.249,12.747 v -4.249 z m -8.498,-21.24413 v 4.249 z m 4.249,8.49713 h 4.249 z m 8.498,4.249 h 4.249 z M 57.411635,242.1825 h 4.249 v -4.249 h -4.249 v 4.249 -4.249 h 4.249 v 4.249 -4.249 h 4.249 v 4.249 h 4.249 v -4.249 h 8.498 v -4.249 h 33.991095 v -4.249 4.249 -4.249 h 16.996 v 4.249 h 8.4972 v 4.249 h 4.249 v 4.249 -4.249 4.249 -4.249 h -4.249 4.249 v 8.498 h 8.498 v -4.249 h 4.249 v 4.249 h 12.747 v -8.498 h 4.249 v -8.49713 h 4.249 v -8.498 4.249 -4.249 l 4.249,-4.249 h -4.249 4.249 v -4.24899 4.24899 -4.24899 h 16.995 v -4.249 h 8.4799 v -4.249 h 4.249 v -4.249 h 4.249 v -4.249 h 4.249 v -8.49799 h 4.249 v -4.249 h 12.747 v -4.249 h 8.4971 -4.249 4.249 v 4.249 -4.249 4.249 -4.249 h 4.249 v 4.249 h 4.249 v 4.249 h 4.249 l -4.249,4.24899 v 4.249 h -4.249 v 4.249 h -4.249 v 4.249 h -8.4971 v 12.74699 h 4.249 -4.249 v 4.249 h 4.249 -4.249 v 8.498 l 16.9951,-8.7e-4 v -4.24813 h 8.498 v -4.249 l 8.498,-8.6e-4 v -4.24814 h 12.747 v 4.249 h 8.4972 v 4.249 h -4.249 v 16.99513 h -4.249 v 12.747 h 4.249 v 4.24899 -4.24899 h 4.249 v 4.24899 h -4.249 v 4.249 h 12.7469 -4.249 v 4.249 h 4.249 v -4.249 4.249 -4.249 8.49713 h 4.249 v 4.249 h 16.9951 l 4.249,-4.249 v -8.49713 h 4.249 v 4.249 h 8.498 v -4.249 h 4.249 v 4.249 h 8.498 v 4.249 h 4.249 v 4.249 h 4.249 l -4.249,4.249 v 4.24899 l 4.249,4.249 4.249,8.49713 v 12.747 l 4.249,4.249 v 4.249 l -4.249,8.49713 4.249,4.249 h 8.4972 v -4.249 h 4.249 -4.249 4.249 -4.249 v 4.249 h -8.4972 v 4.24899 h -4.249 l -12.747,8.498 v 16.996 l 4.249,4.24899 -8.498,4.249 v 12.74613 l -4.249,8.498 v 4.249 l -4.249,8.49713 -4.249,4.249 v 4.249 l -4.249,8.49799 v 25.49313 l 4.249,4.249 v 4.249 l 8.498,8.49799 h 12.747 l 4.249,-4.249 4.249,4.249 h 4.249 v 8.49713 h 4.249 l 4.249,4.249 h 12.7462 l 4.249,-4.249 v -38.23839 l 4.249,-4.24899 h 4.249 l 4.249,-4.249 12.747,-4.249 h 4.249 l 4.249,-4.249 v -21.24413 l 4.249,-4.249 4.2307,-4.24899 8.498,-4.249 h 4.249 v -4.249 l -4.249,-4.249 v -8.498 l -4.249,-12.74699 v -33.99112 l 4.249,-8.49713 -4.249,-8.498 v -16.99513 l -8.498,-8.498 h -4.249 l -8.497,-4.249 h -12.747 l -4.249,4.249 v -8.49799 h -4.249 v -8.49714 h -4.249 v -12.74699 h -4.249 V 225.1891 h 4.249 v -4.249 h 4.249 v -4.24899 h 4.249 v -4.249 h -4.249 4.249 v -16.996 h 4.249 v -4.249 h 4.249 v -4.24899 h 4.249 v -4.249 h -4.249 v 4.249 h -4.249 v -25.49313 h 4.249 v -4.249 h 4.249 v -4.249 h 4.249 v -8.49713 h 4.249 v -4.249 h 4.249 v -4.24899 4.24899 -4.24899 h 4.249 v -8.498 h 4.249 v -4.249 h 4.249 v -4.249 4.249 h 4.249 v 4.249 h -4.249 v 4.249 h -4.249 v 4.249 h -4.249 v 12.74699 h -4.249 v 12.74613 h 8.498 v -4.249 h 4.249 v -4.249 h 4.249 v -12.74613 h 4.249 v 4.249 h 8.497 v -8.49799 h 4.249 v 4.24899 h 4.249 v -4.24899 h 4.249 v -4.249 h 4.249 v -4.249 h 4.249 v 4.249 h -4.249 v 4.249 h 8.498 v 4.24899 -4.24899 h 4.249 v -4.249 4.249 h 4.249 v -8.498 l 4.249,8.6e-4 -4.249,-8.6e-4 v -4.24813 h 8.4972 l -4.249,4.24899 v 4.249 h 4.249 v -8.49799 h 4.249 v -4.249 h -4.249 v 4.249 h -16.9952 v 4.24899 h -4.249 v -4.24899 h -8.498 v -4.249 h 4.249 v -4.249 h -4.249 4.249 v -4.249 l -4.249,4.249 v -4.249 4.249 -4.249 h -4.249 4.249 -4.249 v -4.249 h -4.249 v -4.249 h -4.249 4.249 -4.249 v 4.249 h -8.497 4.249 -4.249 l 4.249,-4.249 h -4.249 4.249 v -4.248985 h -4.249 4.249 -4.249 v 8.497985 h -4.249 v -8.497985 h -4.249 v 4.248985 -4.248985 h -12.747 v 4.248985 h -4.249 v -12.746985 4.249 -4.249 h -4.249 v 4.249 -8.49713 h -8.4972 4.249 -4.249 4.249 v -8.498 h -4.249 v 4.249 -4.249 4.249 h -4.249 v -4.249 h 4.249 v -4.249 h -4.249 4.249 -4.249 v -4.249 h -4.249 4.249 -4.249 4.249 v -4.249 h -4.249 4.249 -4.249 4.249 v -4.249 h 4.249 v -4.24898 4.24898 -4.24898 h -4.249 v 4.24898 -4.24898 4.24898 h -4.249 v 4.249 h -8.498 v -8.49712 h 8.498 -4.249 v 4.24899 h 4.249 v -8.49799 h 4.249 v 4.249 l 4.249,-4.249 v 4.249 h 29.7422 l 4.249,4.24899 v -4.24899 4.24899 h 21.244 v 4.249 h 16.9952 v 4.249 h 16.996 v 4.249 -4.249 h 4.249 v 4.249 -4.249 h 4.249 v 4.249 h 12.747 v 4.24899 h 16.9951 v 4.249 -4.249 8.498 h 4.249 v 8.49713 h 8.498 v -4.249 h 12.7462 v -4.24899 4.24899 -4.24899 h 8.4979 v 4.24899 -4.24899 4.24899 h 25.4931 v 4.249 l 4.249,4.249 h 12.747 v 4.248995 h 8.4972 v 4.249 h 12.747 v 4.249 h 25.4931 l -4.249,4.24899 v 8.498 l -4.249,8.49713 v 16.996 l -8.498,8.49799 v 8.49714 h 4.249 v 8.49799 l 4.249,8.49713 v 16.996 h -4.249 l 8.498,12.74613 v 25.49399 l 4.249,42.48998 4.2317,33.99112 8.4971,80.72838 12.747,110.47308 4.249,38.23839 8.4971,16.99599 12.747,4.249 12.747,-4.249 h 8.4972 v 8.49714 l 4.249,4.24899 h 4.249 l 4.249,4.249 h 8.498 l 4.249,-4.249 h 33.991 l 8.4972,4.249 4.249,4.249 h 4.249 l 4.249,-4.249 4.249,4.249 4.249,8.498 -4.249,4.249 v 21.24412 h 16.996 l 8.498,-4.249 h 12.7461 l 8.498,-8.49799 -4.249,-4.249 v -8.49713 h -4.249 l -4.249,-4.249 h -4.249 v -25.49313 l 8.4972,-8.49799 h 8.498 l 12.747,12.74699 h 4.249 l 8.497,4.249 8.4799,16.99513 4.249,16.99599 4.249,4.249 8.498,4.249 v 16.99513 l -4.249,8.498 v 8.49799 l -4.249,4.249 v 8.49713 l 4.249,-4.249 h 4.249 l 8.4971,-4.24899 4.249,-4.249 8.498,4.249 h 8.498 l 8.4972,8.49799 h 12.747 v 21.24413 l 4.249,12.74703 -4.249,4.249 v 8.498 l 4.249,4.249 h 4.249 l 8.497,8.4971 8.498,4.249 v 4.249 h -8.498 v 4.249 h -8.497 l -4.249,4.249 v 21.2441 l 8.497,-4.249 h 8.498 l 4.249,4.249 v 12.747 h -4.249 v 8.498 l -8.498,4.249 -12.746,4.249 -8.498,4.249 -4.249,-4.249 -8.4972,-4.249 h -4.249 l -8.498,8.4972 v 8.498 l -12.747,4.249 h -12.7461 l -4.249,-8.498 v -4.249 l -4.249,-8.4972 h -21.2442 l -16.996,25.4931 -25.493,25.4931 -8.498,4.249 -12.7462,4.249 -16.996,8.498 -12.7461,4.249 -4.249,4.249 h -16.996 l -8.498,8.4972 h -4.249 l -12.7461,4.249 -4.249,16.996 -8.498,4.249 -4.249,-4.249 -4.249,4.249 4.249,4.249 v 21.2441 l 4.249,8.498 v 8.4971 h -12.7461 l -12.747,8.498 -25.4759,16.9951 -4.249,8.498 v 4.249 l 8.498,12.7643 v 4.249 l -16.996,16.99603 v -21.24503 l -16.995,16.99603 h -29.7422 v 4.249 l -4.249,4.249 v 4.249 l -4.249,4.249 -4.249,-4.249 h -8.498 l -8.498,8.4972 h -8.498 l -12.7461,-12.7462 -4.249,4.249 -8.498,-4.249 -4.249,-12.74703 -12.7462,4.24903 4.249,-8.49803 v -8.498 h -29.742 l -4.249,4.249 h -8.498 l -4.249,4.249 v 4.249 l -4.249,-4.249 -4.249,-8.498 v -12.7461 l -4.249,-8.498 v -25.4931 l -4.249,-4.249 -4.249,-8.4971 h -16.9779 l -4.249,-8.498 4.249,-8.498 v -12.7462 l -4.249,-4.249 v -4.249 l 12.7462,-12.747 v -8.4971 l 12.747,-25.494 v -4.249 h -4.249 l -8.498,-4.249 v -4.249 l -4.249,-4.2489 v -8.4972 h -4.249 l -8.4972,4.249 -4.249,-4.249 -4.249,-8.498 4.249,-4.249 4.249,-8.4971 v -8.498 l -4.249,-4.249 4.249,-8.4972 4.249,-4.249 h -21.2441 l -8.498,-4.249 h -4.249 l -12.747,-4.249 h -8.4971 l -4.249,8.4972 -4.249,4.249 -8.498,8.498 h -21.2441 l -4.249,-8.498 v -42.49 l 4.249,-8.4972 8.4971,-4.249 8.498,-8.4979 4.249,-8.498 v -38.23842 l 4.249,-8.498 -4.249,-4.249 h -4.249 l -12.747,8.49714 h -8.4971 v 4.24899 l -4.249,-8.49799 -4.249,-4.249 v -4.249 l 4.249,-8.49713 4.249,-4.249 -4.249,-8.498 v -4.249 l -4.249,-4.24899 -4.249,4.24899 -8.498,4.249 -4.249,4.249 -8.4972,4.249 v 8.498 h -4.249 l -8.498,-4.249 v 4.249 l -8.498,4.249 -12.7461,-4.249 -8.498,4.249 h -8.4979 l -12.7462,-12.747 v -25.49313 l -4.249,-4.24899 h -8.498 l -8.498,4.24899 h -4.249 l -8.4798,4.249 h -12.7462 l -4.249,-4.249 -8.498,-4.24899 h -16.995 l -8.498,8.49799 h -8.498 l -4.249,-4.249 v -8.49799 l -4.249,-8.49713 -4.249,-4.249 h -12.7462 l -4.249,-8.498 4.249,-8.498 v -21.24412 h -12.747 l -4.249,4.249 v 4.24899 H 99.884335 l -8.498,8.49714 -4.249,8.49799 -8.498,8.498 h -21.2442 l -4.249,-4.249 v -16.99599 l -8.4978,-4.249 -8.498,-8.498 -4.249,-8.49799 4.249,-12.74613 4.249,-8.498 8.4978,-8.498 -4.2488,-8.49713 v -12.747 l -4.249,-8.51529 4.249,-4.249 v -8.49799 h 8.4978 l 8.498,-8.49714 4.249,-8.49799 v -21.24413 l 8.4972,-16.99599 v -4.249 l -8.4972,-16.99513 v -8.498 l -4.249,-8.49799 v -16.99513 l -4.249,-12.747 v -8.49713 l -4.249,-4.249 v -8.49799 l 4.249,-8.498 8.4972,-8.498 4.249,-8.49713 v -16.99599 l -4.249,-12.74613 v -8.498 l -8.4972,-4.249 h -16.9958 v -4.249 l 8.4978,-8.49799 h 8.498 z m 4.249,0 h -4.249 z m 0,0 v -4.249 z m 12.747,-4.249 h 4.249 z m 12.747,-4.249 h -4.249 v 4.249 -4.249 z m 46.737295,0 v 4.249 z m 4.249,0 v 4.249 -4.249 4.249 z m 4.249,4.249 h -4.249 z m 0,4.249 h -4.249 v -4.249 4.249 z"
     style="clip-rule:evenodd;fill:#000000;fill-rule:nonzero;stroke:none;stroke-width:8.8528px"
     id="path1322" />
</svg>
