<?xml version="1.0" encoding="UTF-8" standalone="no"?>
<svg
   xmlns:dc="http://purl.org/dc/elements/1.1/"
   xmlns:cc="http://creativecommons.org/ns#"
   xmlns:rdf="http://www.w3.org/1999/02/22-rdf-syntax-ns#"
   xmlns:svg="http://www.w3.org/2000/svg"
   xmlns="http://www.w3.org/2000/svg"
   xmlns:sodipodi="http://sodipodi.sourceforge.net/DTD/sodipodi-0.dtd"
   xmlns:inkscape="http://www.inkscape.org/namespaces/inkscape"
   version="1.0"
   width="1024pt"
   height="1024pt"
   viewBox="0 0 1024 1024"
   preserveAspectRatio="xMidYMid meet"
   id="svg2211"
   sodipodi:docname="vector.svg"
   inkscape:version="1.0.2-2 (e86c870879, 2021-01-15)">
  <defs
     id="defs2215" />
  <sodipodi:namedview
     pagecolor="#ffffff"
     bordercolor="#666666"
     borderopacity="1"
     objecttolerance="10"
     gridtolerance="10"
     guidetolerance="10"
     inkscape:pageopacity="0"
     inkscape:pageshadow="2"
     inkscape:window-width="1366"
     inkscape:window-height="697"
     id="namedview2213"
     showgrid="false"
     inkscape:zoom="0.1940918"
     inkscape:cx="1266.7524"
     inkscape:cy="760.26375"
     inkscape:window-x="-8"
     inkscape:window-y="-8"
     inkscape:window-maximized="1"
     inkscape:current-layer="svg2211"
     fit-margin-top="0"
     fit-margin-left="0"
     fit-margin-right="0"
     fit-margin-bottom="0" />
  <metadata
     id="metadata2205">
Created by potrace 1.10, written by Peter Selinger 2001-2011
<rdf:RDF>
  <cc:Work
     rdf:about="">
    <dc:format>image/svg+xml</dc:format>
    <dc:type
       rdf:resource="http://purl.org/dc/dcmitype/StillImage" />
    <dc:title></dc:title>
  </cc:Work>
</rdf:RDF>
</metadata>
  <path
     d="m 881.19956,73.83089 -4.9231,9.84612 -9.8461,9.84613 -4.923,9.84512 v 9.84613 l 4.923,4.92306 v 9.84612 l 4.9231,14.76819 v 19.69225 l 4.923,9.84512 v 9.84613 l 9.8462,19.69225 v 4.92306 l -9.8462,19.69125 v 24.61531 l -4.923,9.84512 -9.8452,9.84613 h -9.846 v 9.84612 l -4.9231,4.92307 4.9231,9.84511 v 14.76918 l 4.9229,9.84513 -9.846,9.84612 -4.923,9.84512 -4.9231,14.76919 4.9231,9.84613 9.845,9.84612 9.8462,4.92306 -19.6912,19.69125 -14.7692,4.92306 h -4.9231 l -39.3835,-19.69124 h -4.9231 l -4.9231,14.76818 h -4.923 l -4.9231,4.92306 h -4.923 l -4.9231,4.92307 h -4.9231 v 4.92306 l 4.9231,4.92306 v 24.61431 l -4.9231,9.84613 v 9.84612 l -9.8461,9.84515 h -4.9231 v 9.84614 h 4.9231 l 4.9231,4.923 v 4.9231 l -4.9231,9.8461 v 9.8451 l 4.9231,9.8461 4.923,4.9231 v 9.8452 l 4.9231,4.923 v 4.9231 l 4.9231,4.9231 v 4.923 l -4.9231,4.9231 -9.8451,4.923 h -9.8461 l -4.9231,-4.923 h -4.923 v 19.6922 h -24.6144 l -4.9231,4.9231 v 4.9231 l -4.923,14.7691 4.923,9.8451 4.9231,4.9231 h -19.6912 l -14.7692,-4.9231 h -4.923 l -9.8461,-4.9231 v 9.8462 l -9.8452,4.923 h -19.6923 v 9.8452 l -4.9231,14.7692 v 49.2516 l -9.845,4.9231 -4.9231,-4.9231 h -9.8461 l -19.6922,9.8452 h -9.8462 l -9.8452,4.9231 -9.8461,9.8461 v 19.6922 l 9.8461,9.8462 h 4.9231 l 4.9231,9.845 -4.9231,-4.923 -14.7681,9.8461 h -19.6713 l -4.923,4.9231 -4.9231,-4.9231 h -14.7692 l 4.9231,9.8452 h -14.7692 l -4.9231,14.7692 v 34.4603 l -14.7681,4.9231 -19.6922,9.8461 h -4.9231 v 19.6913 l 4.9231,9.8662 4.923,9.8461 -9.8452,9.8462 h -14.7692 v 19.6911 l 4.9231,4.9231 4.9231,9.8461 v 19.6923 l -9.8462,-9.8461 -9.845,9.8461 v 9.8452 l -4.9231,4.923 -14.7692,-4.923 -9.8452,9.8461 -9.8461,14.7681 -9.845,4.9231 -19.6923,-9.8451 -9.8461,4.9231 -4.9231,9.845 -14.76916,4.9231 -4.92306,4.9231 -9.84519,19.69222 -9.84613,4.9231 -4.92306,-9.8461 h -4.92306 v -9.8462 l -14.76812,-9.84502 v -14.7692 l -9.84618,-9.8452 h -4.90301 l -9.84512,-4.9231 v 9.8452 l -19.69225,-9.8452 v 4.9231 -9.8461 h -14.76819 l -4.92306,-4.9231 v -4.9231 h 4.92306 -4.92306 4.92306 l 4.92306,-4.923 v -4.9231 h 4.92307 l -4.92307,-4.923 h -4.92306 v -4.9231 h 4.92306 v -9.8461 h 4.92307 l 9.84512,-9.8451 v -4.923 l -4.92306,-4.9231 v -9.8461 l 4.92306,-4.9231 h 4.92306 v -9.8461 l -4.92306,-4.9231 v -4.923 h 4.92306 v -4.9231 h -4.92306 v -4.9231 h 4.92306 v -4.923 h -4.92306 v -4.9231 l 4.92306,-4.9231 v -9.8451 l -4.92306,-4.9231 v -4.9231 4.9231 h -14.76819 v -9.8461 h 4.92307 l -4.92307,-4.9231 h 4.92307 v -19.6923 h -9.84613 v -9.845 h -9.84612 l -4.92307,4.9231 H 177.2618 v -4.9231 l 4.92306,-4.9231 -4.92306,-4.923 h -4.92307 v -4.9231 h -4.92306 v -4.9231 h -4.92306 v -4.923 h -4.92306 l -4.92307,4.923 -4.92306,-4.923 h -9.84612 v -9.8461 l 4.92306,-4.9231 v -4.9231 h 4.92306 l -4.92306,-4.923 4.92306,-4.9231 h 9.84613 l 4.92306,-4.9231 h 4.92306 l 4.92306,-4.923 h 9.84513 v -4.9231 h 4.92306 v 4.9231 h 9.84612 v -9.8461 h 4.92307 v -9.8452 l -4.92307,-4.9231 v -19.6922 h -4.92306 v -4.9231 h 4.92306 v -14.7681 h -4.92306 v -9.8462 l -14.76919,-14.7691 h -4.92306 v -4.9231 h -14.76818 v -9.8461 l -4.92307,-4.9231 v -4.9231 h 4.92307 v -4.923 h 4.92306 v -4.9231 h 4.92306 v -9.8452 l 4.92306,-4.923 h 4.92307 v -14.7692 l -9.84613,-9.8451 v -4.923 h -4.92306 v -4.9231 h 4.92306 -4.92306 v -4.9231 h -4.92306 v 4.9231 h -4.92307 v -4.9231 l -4.92306,-4.923 v -4.9231 h 4.92306 v -4.923 h -4.92306 l 4.92306,-4.9231 4.92307,4.9231 v -19.6923 l 4.92306,-4.9231 h -4.92306 l 4.92306,-4.923 v 4.923 h 4.92306 -4.92306 l 4.92306,-4.923 h -4.92306 14.76919 v -4.9231 h 19.69124 l 4.92307,-4.923 v -4.9231 h 4.92306 v -4.92307 h 4.92306 -4.92306 4.92306 v -4.92307 l 4.92306,-4.92309 v -4.92306 4.92306 l 4.92307,-4.92306 v 4.92306 -4.92306 h 4.92306 v 4.92306 -4.92306 h 4.92306 v -4.92306 h 4.92306 v -4.92306 h 4.92307 v -9.84613 h 4.92306 v -4.92306 h 4.92306 v -4.92306 h 9.84613 v 4.92306 -4.92306 h 4.92311 V 408.6272 h 4.92307 v -4.92306 h 9.84505 v -4.92306 h 4.92306 v -9.84512 h 4.92307 v -9.84613 h 4.92306 v -9.84612 4.92306 l 4.92306,-4.92306 v 4.92306 -4.92306 4.92306 h 4.92306 l 4.92307,-4.92306 h 4.92306 v 4.92306 -4.92306 h 4.92306 v -4.92307 h -4.92306 v -4.92306 h 4.92306 v -4.92306 h -4.92306 4.92306 v -4.92306 h 4.92307 v -4.92307 l -4.92307,-4.92306 h -4.92306 v -4.92306 l -4.92306,-4.92306 h -4.92307 v -4.92307 h 4.92307 v -4.92306 h 4.92306 -4.92306 4.92306 v -4.92306 h 9.84613 v 4.92306 h 9.8461 l -9e-4,-4.92306 h 9.8461 v -4.92306 h 4.9231 -4.9231 4.9231 v -4.92307 h 14.7692 v -4.92306 h 9.845 l -4.923,-4.92306 h 24.6143 v 4.92306 -4.92306 h 14.7692 l 4.9231,-4.92305 v 4.92305 -4.92305 h 9.8461 v -4.92306 l 4.9231,-0.0201 h 4.923 l -4.923,-4.92306 h 9.845 v -19.69225 h 4.9231 -4.9231 4.9231 V 241.224 h 4.923 v -29.53737 h 4.9231 v -4.92307 4.92307 h 14.7692 l 4.9231,-4.92307 h -4.9231 4.9231 v -4.92306 h 4.923 -4.923 v -9.84512 h -4.9231 v -4.92306 h -4.9231 v -14.76919 h 4.9231 v -4.92306 h 9.8461 v 4.92306 h 9.8452 v -4.92306 4.92306 -4.92306 h 4.9231 V 162.457 h 4.923 v -4.92302 h 4.903 v 4.92306 -4.92306 4.92306 h 4.9231 v -4.92306 4.92306 h 9.8461 -4.923 v 4.92307 h 9.845 -4.923 v 4.92306 h 9.8461 v -4.92306 h 4.9231 -4.9231 4.9231 v -4.92307 h 4.923 v -4.92306 l 4.9231,4.92306 h -4.9231 9.8452 v -4.92306 h 4.9231 v 4.92306 h -4.9231 4.9231 v -4.92306 4.92306 -4.92306 4.92306 h 4.923 -4.923 4.923 v 4.92307 h 4.9231 v 9.84612 h 4.9231 -4.9231 v 4.92306 h 4.9231 -4.9231 v 4.92307 h 4.9231 v 4.92306 h 14.7691 v -4.92306 h 4.9231 v -4.92307 l 4.9231,-4.92306 h -4.9231 v -14.76919 h 4.9231 v -4.92306 h 9.8461 v -4.92306 h 4.9231 v -9.84512 h 14.7681 l 4.923,-4.92307 v -4.92306 l 4.9231,-9.84612 v -9.84613 h 4.9231 v -4.92306 h 4.923 v -9.84512 h 4.9231 v -4.92307 h 4.9231 l 14.7691,-14.76918 h 29.5375 l 9.8461,-9.84513 24.6142,-14.76918 34.4615,-29.53738 29.5163,-19.6922503 24.6144,-4.923059958788 h 4.923 L 836.89706,4.9230497 h 19.6921 v 4.92307 h 4.9231 -4.9231 l -9.8459,9.8461203 v 4.92306 h 19.6911 l 9.8462,4.92307 v 9.84512 l 4.923,14.76919 v 19.69225 z"
     style="clip-rule:evenodd;fill:#000000;fill-rule:nonzero;stroke:none;stroke-width:10.2572px"
     id="path1346" />
</svg>
