<?xml version="1.0" encoding="UTF-8" standalone="no"?>
<svg
   xmlns:dc="http://purl.org/dc/elements/1.1/"
   xmlns:cc="http://creativecommons.org/ns#"
   xmlns:rdf="http://www.w3.org/1999/02/22-rdf-syntax-ns#"
   xmlns:svg="http://www.w3.org/2000/svg"
   xmlns="http://www.w3.org/2000/svg"
   xmlns:sodipodi="http://sodipodi.sourceforge.net/DTD/sodipodi-0.dtd"
   xmlns:inkscape="http://www.inkscape.org/namespaces/inkscape"
   version="1.0"
   width="1024pt"
   height="1024pt"
   viewBox="0 0 1024 1024"
   preserveAspectRatio="xMidYMid meet"
   id="svg2211"
   sodipodi:docname="vector.svg"
   inkscape:version="1.0.2-2 (e86c870879, 2021-01-15)">
  <defs
     id="defs2215" />
  <sodipodi:namedview
     pagecolor="#ffffff"
     bordercolor="#666666"
     borderopacity="1"
     objecttolerance="10"
     gridtolerance="10"
     guidetolerance="10"
     inkscape:pageopacity="0"
     inkscape:pageshadow="2"
     inkscape:window-width="1366"
     inkscape:window-height="697"
     id="namedview2213"
     showgrid="false"
     inkscape:zoom="0.1940918"
     inkscape:cx="2047.3109"
     inkscape:cy="760.26375"
     inkscape:window-x="-8"
     inkscape:window-y="-8"
     inkscape:window-maximized="1"
     inkscape:current-layer="svg2211"
     fit-margin-top="0"
     fit-margin-left="0"
     fit-margin-right="0"
     fit-margin-bottom="0" />
  <metadata
     id="metadata2205">
Created by potrace 1.10, written by Peter Selinger 2001-2011
<rdf:RDF>
  <cc:Work
     rdf:about="">
    <dc:format>image/svg+xml</dc:format>
    <dc:type
       rdf:resource="http://purl.org/dc/dcmitype/StillImage" />
    <dc:title></dc:title>
  </cc:Work>
</rdf:RDF>
</metadata>
  <path
     d="m 877.2418,260.14361 3.33581,6.67163 h 13.34258 l 10.00744,10.00676 3.33582,6.67163 10.00744,6.67094 3.33582,13.34326 10.00676,6.67163 v 3.33581 l 3.33582,3.33582 6.67163,3.33581 10.00676,10.00677 3.33582,10.00744 v 16.6784 l 10.00743,6.67163 v 26.68583 l 3.33582,6.67163 3.33581,6.67095 3.33582,3.33582 3.33581,10.00744 v 3.33582 l 3.33581,6.67095 20.0142,6.67163 6.6574,3.33581 10.0067,3.33582 H 1024 v 6.67162 l -3.3358,10.00745 -6.671,6.67095 -3.3358,6.67163 -6.6716,3.33581 h -10.00748 l -6.67095,3.33582 -6.67163,6.67095 6.67163,13.34326 6.67095,6.67163 6.67158,6.67095 10.0075,6.67163 3.3358,6.67162 3.3351,10.00745 3.3359,6.67095 -3.3359,13.34326 -6.6709,3.33581 -6.6716,3.33514 v 33.37241 h 13.3425 v 20.01421 l -3.3351,-6.67163 -10.0074,-6.67095 h -10.00748 l -13.34258,3.33582 -13.34258,13.34258 -6.67163,-3.33582 -3.33581,3.33582 3.33581,10.00744 v 6.67162 l -6.67162,13.34258 v 13.34326 l 3.33581,3.33513 v 20.01489 l -3.33581,10.00677 -6.67163,3.33581 -6.67163,-3.33513 -3.33582,-6.67163 h -16.67839 l -3.33581,6.67163 -3.33582,6.67162 -6.67095,3.33582 h -6.67163 l -13.34258,-6.67163 -6.67163,-3.33581 -10.00744,-3.33514 -16.67839,-3.33581 -10.00745,3.33513 h -3.32155 v 6.67095 l 3.33582,3.33582 -3.33582,13.34325 v 6.67095 h -3.33581 l -6.67163,3.33582 -3.33582,3.33581 v 10.00745 l -6.67162,3.33581 -3.33582,3.33514 h -3.33581 l -10.00677,3.33581 -6.67163,3.33582 -10.00676,10.00744 v 10.00745 h -13.34326 l -6.67095,3.33581 -13.34326,3.33514 h -10.00744 l -6.67163,-3.33514 -6.67095,3.33514 h -10.00745 l -10.00676,6.67162 h -6.67163 l -10.00745,-3.33581 -10.00744,6.67163 -13.34258,3.33581 -10.00744,3.33582 -6.65737,6.67095 h -23.35002 l -10.00744,-3.33514 -3.33581,6.67095 -3.33581,10.00745 -6.67095,10.00676 -3.33582,-6.67095 -10.00744,3.33514 h -6.67095 v 13.34326 l 6.67095,3.33581 h 3.33581 l 3.33582,-3.33581 6.67163,6.67163 3.33581,6.67162 3.33514,3.33582 h 6.67162 l 10.00744,6.67095 13.34326,6.67163 v 6.67163 l -6.67163,6.67095 6.67163,3.33581 6.67095,6.67163 3.33581,3.33582 -3.33581,3.33581 -13.34258,3.33582 v 10.00744 l -10.00744,3.33514 -6.67163,-3.33514 -6.67162,3.33514 h -36.69261 v -3.33514 l -3.33581,-3.33581 -3.33582,-6.67163 v -16.67908 l -3.33581,-6.67095 -6.67163,-13.34326 -3.33581,-3.33581 h -3.33514 l -3.33581,-3.33514 h -3.33582 l -3.33581,-3.33581 v -3.33582 h -3.33582 v -3.33581 l -6.67163,-3.33581 v -3.33582 l -6.67095,-3.33581 h -3.33581 v 3.33581 -3.33581 l -6.67163,-3.33582 h -3.33582 v -3.33581 l 3.33582,-3.33514 -3.33582,3.33514 -3.33581,-3.33514 h -3.33514 l -3.33581,-3.33513 h -13.34326 v 3.33581 -3.33513 h -3.33582 v -6.67095 h -3.33581 v -3.33582 h -6.67163 v 6.67163 l -3.32155,3.33581 -6.67163,3.33582 -3.33513,3.33513 -3.33582,3.33582 -3.33581,-3.33514 h -3.33582 l -6.67162,-3.33513 -6.67163,-3.33582 -3.33582,-3.33581 h -6.67095 v 6.67163 h -3.33581 v 10.00676 l -3.33582,3.33582 -3.33581,3.33581 h -3.33582 l -13.34258,3.33582 -3.33581,3.33581 v -3.33581 h -3.33582 l -3.33581,-3.33582 h -3.33582 l -3.33513,-3.33581 h -13.34326 l -3.33581,-3.33582 h -3.33582 l -3.33581,3.33582 h -13.34258 l -3.33582,-3.33582 -3.33581,-3.33513 v -3.33582 l -3.33582,-3.33581 -3.33581,-3.33582 -6.67095,-3.33581 h -3.33582 l -3.33581,-3.33582 -6.67163,3.33582 h -3.33582 l 3.33582,-3.33582 h -3.33582 l -3.33581,6.67163 h -23.33644 l -3.33513,-3.33581 -10.00744,-3.33582 h -3.33581 l 3.33581,-3.33581 v -3.33581 l 3.33582,-3.33582 3.3358,-3.33581 -3.3358,-6.67095 v -3.33582 h -3.33582 v -3.33581 l 3.33582,-3.33582 v -16.67839 h -3.33582 l -6.67163,-3.33582 h -3.33581 l -3.33582,3.33582 h -13.34257 l -6.67164,-3.33582 h -3.33581 v -6.67163 l 3.33581,-3.33581 v -3.33582 l 3.33582,-3.33581 v -3.33581 l 6.67163,-6.67095 6.67095,-10.00745 v -10.00676 l -3.33581,-3.33582 h 3.33581 -3.33581 l -3.33514,3.33582 -3.33581,3.33513 -3.33582,-3.33513 -3.33582,-3.33582 -3.33581,-3.33581 -3.33582,-3.33582 h -3.33513 v -3.33581 l 3.33513,-3.33582 h -6.67095 l -3.33581,-3.33581 v -3.33514 h -3.33582 l -3.33581,-3.33581 h -3.33582 v -3.33582 l -3.33581,-3.33581 h -3.33514 v 3.33581 h -3.33581 l -3.33581,3.33582 v 3.33581 l -3.33582,6.67095 v 3.33582 l -16.67907,-6.67163 h -6.67095 l -3.33582,13.34326 v 3.33581 l 3.33582,3.33582 v 3.33513 l -3.33582,10.00745 -3.33581,3.33581 v 6.67163 h -6.67163 l -3.33582,3.33514 h -20.0142 v 3.33581 l -6.67163,-3.33581 v 3.33581 l -3.33582,10.00744 h -10.00676 l -3.32223,-3.33581 v -3.33582 l -3.33581,3.33582 v 16.67907 l -3.33514,-3.33581 v -13.34326 l -3.33581,-10.00744 v -10.00677 l -3.33582,3.33582 v -10.00745 l -3.335812,-10.00676 v -6.67163 L 93.400774,697.14143 V 677.12722 L 90.06496,660.44883 86.729145,653.7772 v -6.67163 L 83.39401,637.0988 V 613.74811 H 80.058195 V 603.74134 L 76.72238,590.39808 73.386566,567.04806 v -3.33581 l -3.335815,-23.35003 v -3.33581 l -3.335815,-10.00677 v -16.67907 h -3.335814 v -16.67839 l -3.335816,-10.00745 v -3.33581 l -3.335815,-10.00677 -3.335814,-10.00744 v -13.34258 l -3.335136,-3.33582 -3.335814,-20.0142 v -6.67163 l -3.335815,-13.34326 -3.335815,-16.6784 -3.335814,-6.67163 -3.335815,-13.34258 h 3.335815 v -6.67162 h -3.335815 l -3.335815,-23.35071 v -6.67095 l -3.335135,-6.67163 v -10.00676 l -3.335815,-6.67163 v -6.67163 l -3.335815,-6.67163 v -10.00676 h -3.335814 v -10.00744 l -3.335814,-6.67163 v -6.67163 l -3.33582,-6.67095 V 243.4822 l -3.3358103,-10.00677 -3.33582,-10.00744 v -3.33582 L -2.5878879e-7,213.46054 3.3358097,210.12473 10.00744,203.4531 l 3.33582,3.33582 3.335814,-3.33582 -3.335814,-10.00676 h 16.678393 v -3.33582 l -10.006765,-3.33581 v -3.33582 l 3.335815,-13.34258 h 10.006765 v 3.33582 h 6.671629 l 6.67163,-6.6859 h 3.335814 l 3.335136,3.33582 -6.67095,10.00744 3.335814,6.67163 6.67095,10.00676 h 10.007445 l 10.007444,-3.33581 6.67163,3.33581 h 10.006764 l 3.335814,-3.33581 3.335812,-10.00677 3.33582,-3.33581 6.67095,-3.33582 h 10.00744 l 13.34258,3.33582 h 3.33581 l 3.33582,3.33581 3.33581,3.33582 6.67163,-6.67163 3.33582,6.67163 13.34258,3.33513 10.00744,-3.33513 v -3.33582 l 6.67163,3.33582 3.33514,6.67095 h 10.00744 l 6.67163,-3.33582 h 3.33581 l 6.67163,-3.33513 6.67163,-6.67163 6.67095,-3.33582 h 6.67163 l 3.33581,3.33582 10.00677,-3.33582 3.33582,-3.33581 v -6.67163 l 13.34326,-3.33513 16.66479,-3.33582 v -10.00744 l 6.67095,-3.33582 h 6.67163 v 6.67163 l 3.33582,3.33582 h 6.67163 l 6.67095,-3.33582 h 6.67163 l 6.67163,-6.67163 6.67163,3.33582 h 6.67162 v -10.00677 l 10.00677,-6.67163 6.67163,3.33582 3.33581,-3.33582 h 20.01421 v -13.34326 l 3.33582,-3.33581 6.67163,-3.33582 6.67095,3.33582 -3.33582,6.67163 v 10.00744 l 6.67163,13.34258 6.67163,6.67163 v 3.33582 l -3.33581,6.67163 v 3.33513 l 13.34325,3.33582 3.33582,3.33581 3.33581,6.67163 6.67095,3.33581 h 10.00745 v 6.67095 l 10.00676,10.00745 -3.33513,6.67163 v 10.00744 h 6.67095 l 6.67163,6.67095 h 9.99317 l 3.33582,3.33582 -3.33582,3.33581 v 6.67163 l -6.67095,3.33581 h -6.67163 v 13.34258 l 3.33582,10.00745 3.33581,3.33581 h 6.67095 l 6.67163,3.33582 6.67163,6.67163 13.34258,3.33513 3.33582,6.67163 -3.33582,6.67162 13.34326,13.34258 3.33582,10.00745 10.00744,3.33581 h 13.34258 l -3.33582,-6.67163 20.01421,-10.00744 -3.33581,-6.67095 13.34326,-6.67163 v -3.33581 l 3.33581,-13.34258 6.67095,-6.67163 6.67163,-3.33581 10.00745,-3.33582 6.67162,-6.67163 16.6784,-3.33581 3.33581,-6.67095 10.00676,-3.33582 10.00744,3.33582 3.33582,3.33513 v 6.67163 l 3.33581,6.67163 6.65736,6.67163 6.67163,-3.33581 6.67163,-6.67163 v -10.00745 l 3.33582,-6.67095 10.00676,3.33582 h 30.02098 l 3.33581,6.67095 h 13.34258 l 6.67163,-3.33582 13.34258,-3.33513 10.00744,-3.33582 6.67163,6.67095 3.33582,3.33582 h 6.67163 v 6.67163 l 10.00676,-6.67163 10.00745,-10.00677 10.00676,-6.67162 10.00744,-3.33582 13.34326,-3.33581 9.99318,-3.33582 h 23.35002 v -3.33513 h 6.67163 l 3.33582,3.33513 3.33581,13.34326 3.33514,10.00676 z"
     style="clip-rule:evenodd;fill:#000000;fill-rule:nonzero;stroke:none;stroke-width:6.95018px"
     id="path1266" />
</svg>
