<?xml version="1.0" encoding="UTF-8" standalone="no"?>
<svg
   xmlns:dc="http://purl.org/dc/elements/1.1/"
   xmlns:cc="http://creativecommons.org/ns#"
   xmlns:rdf="http://www.w3.org/1999/02/22-rdf-syntax-ns#"
   xmlns:svg="http://www.w3.org/2000/svg"
   xmlns="http://www.w3.org/2000/svg"
   xmlns:sodipodi="http://sodipodi.sourceforge.net/DTD/sodipodi-0.dtd"
   xmlns:inkscape="http://www.inkscape.org/namespaces/inkscape"
   version="1.0"
   width="1024pt"
   height="1024pt"
   viewBox="0 0 1024 1024"
   preserveAspectRatio="xMidYMid meet"
   id="svg2211"
   sodipodi:docname="vector.svg"
   inkscape:version="1.0.2-2 (e86c870879, 2021-01-15)">
  <defs
     id="defs2215" />
  <sodipodi:namedview
     pagecolor="#ffffff"
     bordercolor="#666666"
     borderopacity="1"
     objecttolerance="10"
     gridtolerance="10"
     guidetolerance="10"
     inkscape:pageopacity="0"
     inkscape:pageshadow="2"
     inkscape:window-width="1366"
     inkscape:window-height="697"
     id="namedview2213"
     showgrid="false"
     inkscape:zoom="0.1940918"
     inkscape:cx="1266.7524"
     inkscape:cy="760.26375"
     inkscape:window-x="-8"
     inkscape:window-y="-8"
     inkscape:window-maximized="1"
     inkscape:current-layer="svg2211"
     fit-margin-top="0"
     fit-margin-left="0"
     fit-margin-right="0"
     fit-margin-bottom="0" />
  <metadata
     id="metadata2205">
Created by potrace 1.10, written by Peter Selinger 2001-2011
<rdf:RDF>
  <cc:Work
     rdf:about="">
    <dc:format>image/svg+xml</dc:format>
    <dc:type
       rdf:resource="http://purl.org/dc/dcmitype/StillImage" />
    <dc:title></dc:title>
  </cc:Work>
</rdf:RDF>
</metadata>
  <path
     d="m 1023.9819,625.04452 -48.76406,44.3326 13.2998,22.16543 -4.4332,4.4332 -8.8666,8.8656 -4.4332,8.8666 h -4.4333 l -8.8655,17.733 4.4323,13.2998 8.8665,-4.4333 v 8.8656 l -8.8665,4.4332 v 13.2998 l -4.4323,13.299 -4.4333,8.8665 -4.4333,13.2998 -8.8665,4.4332 v -4.4332 l -8.8665,-4.4333 -4.4324,-4.4333 -4.4333,-8.8665 -8.8665,-8.8665 h -4.4333 v 13.2998 h -8.8665 l -4.4332,13.2998 -17.7321,-4.4333 -4.4152,-8.8665 h -26.5987 l -8.8656,17.733 -13.2998,-8.8665 -4.4332,-8.8665 h -8.8666 l -13.2997,-8.8665 v -4.4333 l -17.7322,4.4333 -8.8666,4.4332 -4.4332,13.2998 -8.8656,4.4333 -8.8665,-4.4333 -13.2998,-4.4333 v 13.2998 h -13.2997 l -4.4325,13.2998 -8.8665,4.4323 v 4.4333 h -8.8665 l -4.4333,-4.4333 -13.2988,4.4333 -8.8665,8.8665 v 8.8665 l -8.8665,-4.4333 -8.8657,-4.4332 -4.4333,-8.8665 h -8.8665 l -8.8665,-8.8656 -8.8475,-8.8665 -8.8665,-8.8665 -4.4333,4.4332 -4.4332,-4.4332 h -8.8657 l -8.8665,8.8665 h -8.8666 l -8.8665,-8.8665 4.4333,-4.4333 v -8.8665 l 4.4332,-13.2998 v -8.8657 l -8.8665,-4.4332 -4.4332,-4.4333 v -8.8665 l -4.4333,-8.8656 4.4333,-4.4332 -8.8666,-13.2998 -8.8655,-4.4333 h -4.4333 l -13.2998,-13.2998 h -8.8656 l -8.8666,13.2998 -13.2997,13.2998 -4.4333,8.8665 h -4.4333 l -4.4332,4.4333 -4.4333,-4.4333 -4.4332,13.2988 -13.2988,-4.4332 -8.8666,13.2998 h -4.4332 l -13.2998,-17.7321 h -22.1655 l -17.732,13.2988 h -13.2818 l -13.2989,-13.2988 h -8.8665 l -13.2988,-8.8665 -8.8666,4.4332 -8.8656,-13.2998 h -4.4333 l -17.733,-26.5986 8.8665,-8.8665 v -22.16543 l -8.8665,-4.43326 -4.4333,-8.86652 -13.2998,-4.43326 h -17.7321 l -8.8665,4.43326 31.0319,-35.46517 4.4332,-4.43326 h -8.8655 l -13.2998,4.43326 -4.4333,8.86561 -8.8656,13.29978 -13.2998,4.43326 h -8.8665 l -13.2989,-13.29978 -4.4332,-8.86561 v -22.1663 h 17.7321 l 4.4332,-4.43326 v -8.86562 l 8.8665,-4.43326 8.8666,-8.86652 8.8656,-4.43326 -4.4332,-17.73214 -13.299,4.43326 -8.8665,-4.43326 -8.8665,-8.86652 v -8.86652 l -13.2988,-4.43326 -8.8665,4.43326 -13.299,-8.86652 v -8.86562 l -8.8665,-4.43326 v -17.73304 l -4.4332,-8.86561 8.8665,-8.86652 -8.8665,-17.73304 -8.8656,-13.29978 v -13.29888 h -4.4333 l -17.733,26.59866 -13.28089,13.29978 -13.29978,4.43326 -8.86555,-8.86652 -8.86652,-4.43326 -13.29978,-8.86652 -17.732195,-8.86652 v -8.86562 l -8.86648,8.86562 h -13.29888 l -4.43326,-8.86562 -8.86652,8.86562 v -22.1654 l -17.73304,-8.86652 v -8.86562 l -8.86562,4.43326 -4.43326,-8.86652 -4.43326,-4.43326 H 4.4332847 L 2.4741211e-5,394.52132 4.4332847,390.08806 v -13.29888 l 8.8665203,-4.43326 v -8.86652 l 4.43326,4.43326 13.29888,-17.73304 8.86652,4.43326 8.86562,-13.29887 8.86652,8.86561 8.86652,-8.86561 v 8.86561 l 8.86561,-4.43326 v 13.29978 l 8.86655,-4.43326 4.43326,-13.29887 4.43326,-8.86652 8.866515,-4.43326 17.73207,-4.43326 8.86652,-13.29888 4.43326,-13.29977 26.59877,8.86651 8.8665,-8.86651 4.4332,-8.86652 4.4333,-4.43326 13.2988,4.43326 h 13.2998 l 8.8657,-13.29978 8.8665,4.43326 h 13.2988 v -4.43326 h 13.2998 l 8.8665,8.86652 h 17.7322 v -13.29978 l 4.4333,-13.29888 8.8665,-8.86652 4.4332,-8.86652 v -13.29887 h 8.8666 v 4.43326 h 4.4332 v -8.86652 l 4.4333,4.43326 8.8655,-4.43326 h 8.8666 l 4.4332,8.86652 22.1655,-8.86652 4.4332,-22.1654 h 8.8666 l 8.8475,-4.43326 v 8.86652 l 13.2989,-13.29978 -4.4333,-4.43326 4.4333,-4.43326 8.8665,-4.43326 4.4333,4.43326 4.4332,-4.43326 h 8.8666 l -4.4333,8.86652 -4.4333,8.86652 13.2989,-4.43326 4.4332,4.43326 h 13.2998 l 8.8657,4.43326 h 4.4332 l 13.2998,4.43326 8.8665,8.86562 4.4333,8.86652 v 4.43326 h 4.4332 l 4.4333,4.43326 v -4.43326 h 8.8656 l -4.4333,4.43326 8.8665,4.43326 8.8657,-8.86652 8.8665,-4.43326 8.8665,-4.43326 -4.4332,-8.86652 v -13.29888 h 4.4332 l 35.4652,-17.73304 v 8.86652 l 4.4332,4.43326 v 4.43326 l -8.8665,4.43326 -8.8665,26.59866 v 4.43326 h 13.2998 l 8.8665,8.86561 13.2989,8.86652 -4.4332,13.29978 -8.8657,8.86562 4.4324,8.86652 -8.8657,22.16629 8.8657,4.43326 8.8665,-8.86651 v 8.86651 l 17.7331,8.86562 4.4323,-4.43236 13.2817,4.43236 -4.4333,17.73304 h 8.8665 l -4.4332,8.86652 h 4.4332 l 8.8657,-8.86652 h 4.4333 l 4.4332,4.43326 13.2998,4.43326 -8.8665,8.86561 -4.4333,8.86652 h -8.8665 v 8.86652 l 13.2998,4.43326 4.4333,-8.86652 22.1653,8.86652 v 4.43326 l -8.8665,8.86652 8.8665,8.86562 4.4333,13.29978 8.8665,8.86562 8.8657,4.43326 -8.8657,8.86652 8.8657,13.29978 -4.4325,4.43236 22.1655,22.1663 4.4333,8.86652 4.4332,4.43326 4.4333,4.43326 8.8665,13.29887 8.8655,17.73304 22.1663,-4.43326 13.299,13.29888 4.4332,4.43326 h 8.8666 l 13.2997,17.73304 8.8656,13.29978 4.4333,4.43236 h 8.8665 v 13.29978 l 13.2998,13.29978 35.4462,-13.29978 4.4332,8.86652 13.2998,-4.43326 22.1655,17.73214 17.7321,-13.29888 4.4332,-8.86652 22.1663,-17.73214 17.7322,22.1654 -4.4324,4.43326 8.8657,8.86562 4.4332,-4.43236 4.4333,4.43236 4.4333,-4.43236 26.59846,31.03192 z"
     style="clip-rule:evenodd;fill:#000000;fill-rule:nonzero;stroke:none;stroke-width:9.23671px"
     id="path1316" />
</svg>
