<?xml version="1.0" encoding="UTF-8" standalone="no"?>
<svg
   xmlns:dc="http://purl.org/dc/elements/1.1/"
   xmlns:cc="http://creativecommons.org/ns#"
   xmlns:rdf="http://www.w3.org/1999/02/22-rdf-syntax-ns#"
   xmlns:svg="http://www.w3.org/2000/svg"
   xmlns="http://www.w3.org/2000/svg"
   xmlns:sodipodi="http://sodipodi.sourceforge.net/DTD/sodipodi-0.dtd"
   xmlns:inkscape="http://www.inkscape.org/namespaces/inkscape"
   version="1.0"
   width="1024pt"
   height="1024pt"
   viewBox="0 0 1024 1024"
   preserveAspectRatio="xMidYMid meet"
   id="svg2211"
   sodipodi:docname="vector.svg"
   inkscape:version="1.0.2-2 (e86c870879, 2021-01-15)">
  <defs
     id="defs2215" />
  <sodipodi:namedview
     pagecolor="#ffffff"
     bordercolor="#666666"
     borderopacity="1"
     objecttolerance="10"
     gridtolerance="10"
     guidetolerance="10"
     inkscape:pageopacity="0"
     inkscape:pageshadow="2"
     inkscape:window-width="1366"
     inkscape:window-height="697"
     id="namedview2213"
     showgrid="false"
     inkscape:zoom="0.1940918"
     inkscape:cx="1266.7524"
     inkscape:cy="760.26375"
     inkscape:window-x="-8"
     inkscape:window-y="-8"
     inkscape:window-maximized="1"
     inkscape:current-layer="svg2211"
     fit-margin-top="0"
     fit-margin-left="0"
     fit-margin-right="0"
     fit-margin-bottom="0" />
  <metadata
     id="metadata2205">
Created by potrace 1.10, written by Peter Selinger 2001-2011
<rdf:RDF>
  <cc:Work
     rdf:about="">
    <dc:format>image/svg+xml</dc:format>
    <dc:type
       rdf:resource="http://purl.org/dc/dcmitype/StillImage" />
    <dc:title></dc:title>
  </cc:Work>
</rdf:RDF>
</metadata>
  <path
     d="m 797.14058,488.23611 h -4.3207 v -4.32072 h 4.3207 z M 455.83248,4.3198397 464.47308,21.60181 h 8.6414 l 4.3207,12.96214 8.6415,4.32071 v 25.9234 l 12.9612,17.28285 -8.6405,8.64054 17.2819,4.32071 4.3207,25.9234 h 21.6036 l 4.3199,8.64142 4.3207,-4.32071 4.3207,-12.96126 h 21.6026 l 4.3207,4.31984 4.3207,8.64142 25.9235,-8.64142 12.9621,-4.31984 17.2829,-4.32071 4.3207,4.32071 h 12.9612 v -8.64142 l 8.6414,-4.32071 4.3207,12.96213 v 8.64055 l 4.3207,4.32071 12.9613,4.32071 8.6414,8.64143 4.3207,17.28197 v 4.32071 l -4.3207,8.64143 v 8.64142 l 8.6414,-4.32071 h 25.9234 l 4.3207,8.64142 -4.3207,8.64055 h 17.2829 l 8.6405,12.96214 -8.6405,30.2441 -4.3207,12.96213 30.244,30.24411 8.6406,8.64142 4.3207,12.96126 v 25.92339 l 4.3207,17.28285 8.6239,12.96214 4.3207,12.96126 4.3198,17.28285 8.6414,12.96125 -4.3207,21.60357 -8.6405,21.60268 -17.2829,17.28285 v 12.96126 l 8.6415,25.92339 4.3207,12.96214 v 25.92427 l 8.6405,8.64055 h 17.2828 l 12.9613,12.96214 8.6414,17.28197 4.3208,8.64142 -4.3208,12.96214 -8.6414,12.97978 -8.6406,8.6414 -12.9621,8.6415 -12.9612,8.6404 -8.6414,4.3207 -12.9622,-4.3207 4.3207,4.3207 -4.3207,4.3208 h -4.3207 v -8.6415 h 4.3207 -4.3207 l -4.3207,4.3207 -4.3207,4.3208 v 12.9613 l 4.3207,17.2828 -4.3207,21.6027 -12.9613,17.2828 -12.9622,8.6414 -21.6026,12.9613 -12.9621,4.3208 -8.6406,17.2828 -17.2828,4.3198 -17.2828,8.6414 -17.282,17.2829 -12.9622,17.282 -4.3207,8.6414 -12.9612,17.2829 -8.6414,12.9612 -8.6414,12.9621 -12.9622,-4.3207 -8.623,-4.3207 -8.6405,8.6414 -12.9621,4.3207 -12.9621,-8.6414 -4.3199,4.3207 v 25.9234 l -17.2829,12.9622 -4.3207,17.2819 4.3207,21.6026 4.3207,17.2829 -8.6414,8.6414 -4.3207,-4.3207 -17.2819,4.3207 -4.3207,8.6414 -17.2829,8.6414 -4.3207,12.9614 -21.6027,8.6414 -4.3208,-4.3207 h -4.3207 l -8.6414,-8.6415 -8.6405,-4.3207 h -17.2828 l -17.2821,4.3207 -8.6414,-4.3207 12.9622,-12.9613 -4.3208,-8.6414 -25.9233,4.3207 -8.6414,8.6414 h -12.9446 l -17.282,-4.3207 v 4.3207 l -8.6414,-4.3207 -8.6405,8.6414 -8.6414,25.92354 -8.6414,8.6405 -4.3208,8.6414 -12.9621,4.3207 h -17.282 l -12.9622,-8.6414 4.3208,-8.6414 -12.9612,-8.64054 -12.9622,-4.3207 -4.3207,-12.9622 -8.6406,-8.6406 -8.6414,-4.3207 -8.6414,-4.3207 -4.3208,-12.9621 v -12.9622 h 4.3208 l 12.9621,-4.3207 4.3207,-8.6405 8.6406,-4.3207 8.6414,-12.9621 v -8.6405 h -12.9621 l -8.6406,-4.3207 -4.3207,-12.9622 12.9613,-12.9613 8.6414,-17.2828 4.3207,-8.6414 4.3207,-12.9612 17.282,-4.3208 h 17.2828 l 8.6406,-8.6414 12.9621,-4.3207 4.3208,-8.6414 h 17.2828 l 8.6405,-4.3199 12.9621,-8.6414 8.6415,-4.3207 v -21.6036 l 8.6406,-8.6405 h 8.6414 l 12.9621,-8.6414 12.9622,-4.3207 12.9612,-8.6415 12.9621,-12.9613 8.6406,-4.3207 -4.3199,-4.3207 -8.6414,-4.3207 v -8.6414 l 4.3207,-12.9612 4.3207,-4.3207 h 8.6406 v -4.3208 l 8.6414,-8.6414 h 8.6415 v -12.9621 l -8.6415,-4.3199 -8.6414,-4.3207 v -12.9622 l -8.6406,-12.9612 h -8.6414 l -4.3207,-8.6414 v -12.96217 l 8.6414,-4.32071 4.3207,-4.32072 h 8.6406 l 4.3207,-4.32071 v -8.64054 l -8.6414,-4.32072 -4.3199,-8.64142 h 8.6406 l 4.3207,-4.32071 V 548.734 l -8.6414,-8.64142 -4.3199,-8.64143 -4.3207,-12.96126 -8.6414,8.64055 h -4.3207 l -4.3208,-4.31983 4.3208,-8.64143 4.3207,-8.64142 4.3207,-8.64143 4.3207,-8.64142 v -21.60269 l 12.9613,-4.32071 8.6414,-4.32071 4.3207,-8.64055 v -4.32071 l 8.6415,-12.96214 4.3197,-4.32071 h 21.6036 l 8.6414,-4.32071 v -17.28197 l -4.3207,-8.64143 v -17.28285 h -8.6414 l -8.6414,-4.31983 v -8.64142 l 4.3207,-12.96214 4.3207,-8.64055 8.6414,-8.64142 8.6414,-4.32071 8.6407,-8.64143 v -38.88465 l -4.3199,-4.32071 h -8.6415 l -4.3207,4.32071 -12.9621,4.32071 -8.6414,-8.64142 V 263.5749 l -4.3208,-4.32071 h -8.6404 l -17.2829,8.64142 -8.6406,12.96126 h -8.6414 l -8.6414,-4.31983 -8.6415,-8.64143 -4.3197,-4.32071 -4.3208,-8.64143 8.6405,-4.32071 h 8.6415 l 8.6414,-4.31983 4.3207,-17.28284 4.3207,-12.96126 V 203.0867 l 8.6406,-17.28285 8.6414,-12.96126 4.3207,-4.32071 h 8.6415 l 4.3197,-8.64143 4.3208,-8.64142 -4.3208,-8.64055 -8.6404,-8.64142 -4.3208,-12.96214 -4.3207,-8.64143 -4.3207,-12.96125 V 82.09179 l 4.3207,-8.64143 -4.3207,-12.96214 V 34.56483 l 4.3207,-12.96214 8.6415,-4.32071 h 4.3207 L 442.88798,8.6414397 447.20868,9.7412121e-6 455.85008,4.3207197 Z"
     style="clip-rule:evenodd;fill:#000000;fill-rule:nonzero;stroke:none;stroke-width:9.00222px"
     id="path1256" />
</svg>
