<?xml version="1.0" encoding="UTF-8" standalone="no"?>
<svg
   xmlns:dc="http://purl.org/dc/elements/1.1/"
   xmlns:cc="http://creativecommons.org/ns#"
   xmlns:rdf="http://www.w3.org/1999/02/22-rdf-syntax-ns#"
   xmlns:svg="http://www.w3.org/2000/svg"
   xmlns="http://www.w3.org/2000/svg"
   xmlns:sodipodi="http://sodipodi.sourceforge.net/DTD/sodipodi-0.dtd"
   xmlns:inkscape="http://www.inkscape.org/namespaces/inkscape"
   version="1.0"
   width="1024pt"
   height="1024pt"
   viewBox="0 0 1024 1024"
   preserveAspectRatio="xMidYMid meet"
   id="svg2211"
   sodipodi:docname="vector.svg"
   inkscape:version="1.0.2-2 (e86c870879, 2021-01-15)">
  <defs
     id="defs2215" />
  <sodipodi:namedview
     pagecolor="#ffffff"
     bordercolor="#666666"
     borderopacity="1"
     objecttolerance="10"
     gridtolerance="10"
     guidetolerance="10"
     inkscape:pageopacity="0"
     inkscape:pageshadow="2"
     inkscape:window-width="1366"
     inkscape:window-height="697"
     id="namedview2213"
     showgrid="false"
     inkscape:zoom="0.1940918"
     inkscape:cx="1266.7524"
     inkscape:cy="760.26375"
     inkscape:window-x="-8"
     inkscape:window-y="-8"
     inkscape:window-maximized="1"
     inkscape:current-layer="svg2211"
     fit-margin-top="0"
     fit-margin-left="0"
     fit-margin-right="0"
     fit-margin-bottom="0" />
  <metadata
     id="metadata2205">
Created by potrace 1.10, written by Peter Selinger 2001-2011
<rdf:RDF>
  <cc:Work
     rdf:about="">
    <dc:format>image/svg+xml</dc:format>
    <dc:type
       rdf:resource="http://purl.org/dc/dcmitype/StillImage" />
    <dc:title></dc:title>
  </cc:Work>
</rdf:RDF>
</metadata>
  <path
     d="m 847.27814,465.81314 -12.0462,4.01571 -12.0472,4.0149 h -4.0157 l -4.0157,8.0314 v 4.0157 h 12.0471 l 12.0463,4.0157 8.0314,8.0315 v 16.0621 l 8.0315,4.0157 v 12.0471 l -4.0157,4.0157 -8e-4,4.0158 4.0165,16.0619 v 20.0779 l 12.0464,8.0314 16.0628,8.0314 4.0157,8.0314 4.0157,4.0158 4.0158,8.0305 4.0157,12.0472 -4.0157,4.0157 h -8.0315 l 4.0157,12.0464 v 8.0314 l 4.0158,8.0314 12.0471,-8.0314 4.0157,4.0157 v 12.0472 l -4.0157,4.0148 -4.0157,8.0314 -4.0157,4.0157 -4.0157,4.0158 8.0305,12.0471 v 20.0778 l 4.0157,4.0157 8.0315,8.0315 4.0157,4.0148 v 12.0644 l 12.0464,8.0305 v 8.0315 l -8.0307,4.0157 v 24.0935 l 12.0464,4.0157 4.0157,4.0157 v 8.0315 l 4.0157,8.0314 12.0472,16.062 4.0157,12.0471 -12.0472,24.0936 4.0157,20.0777 -8.0306,4.0157 h -4.0157 v -4.0157 l -4.0158,-4.0149 -4.0157,-4.0157 -4.0157,4.0157 -4.0157,4.0149 -4.0157,4.0157 v 12.0471 h 4.0157 l -12.0471,12.0464 h -8.0306 l -4.0157,-4.0149 h -4.0157 v -4.0158 h 12.0462 v -8.0314 h -4.0157 v -4.0157 l -8.0305,-8.0314 -4.0158,4.0157 h -8.0314 l -4.0157,4.0157 h -4.0157 v 4.0157 h -4.0157 l -4.0157,4.0157 v 8.0315 h -4.0158 l -4.0157,-4.0158 v 4.0158 h -4.0157 v 4.0149 h -4.0157 l -4.0157,-4.0149 -4.0157,-4.0158 h -4.0157 v 4.0158 h -8.0315 v 8.0306 h -4.0157 l 4.0157,4.0157 h -16.0621 l -4.0157,-4.0157 h -4.0157 l -4.0157,-4.0157 h -4.0157 l -8.0315,-4.0149 -16.062,-4.0158 v -4.0157 h -36.1398 l -8.0306,4.0157 h -4.0157 l -12.0472,-12.0471 v -4.0157 l -8.0314,-4.0157 h -4.0157 v -4.0149 l -4.0157,-8.0314 -4.0158,-4.0157 -4.0157,4.0157 -4.0157,-4.0157 v 4.0157 l -8.0305,4.0157 v 4.0157 h -8.0315 l -4.0157,4.0149 h -4.0157 v 4.0157 l 4.0157,4.0157 -4.0157,4.0157 v 8.0314 l -4.0157,8.0307 v 4.0157 h -4.0157 v 4.0157 l -8.0307,-4.0157 -4.0157,-4.0157 -4.0157,-4.0149 h -12.0472 l -8.0142,-4.0158 h -4.0157 l -4.0157,-4.0157 h -8.0314 l -12.0464,4.0157 h -8.0315 l -4.0157,4.0158 h -28.1091 v -8.0315 l -8.0314,-8.0314 v -16.062 h -4.0157 v -4.0157 h -8.0307 v 4.0157 h -4.0157 v 4.0157 l 4.0157,4.0149 v 12.0471 l -8.0314,4.0157 -8.0306,16.0621 -8.0314,8.0315 -4.0158,12.0471 -8.0306,8.0314 -4.0157,8.0306 -4.0157,8.0314 v 8.0314 l -4.0158,8.0307 v 4.0157 l -8.0314,8.0315 h -4.0157 v 4.0157 h -4.0157 l 4.0157,4.0157 v 4.0157 l 4.0157,4.01485 v 4.0158 l -4.0157,8.0314 v 4.0157 h -8.0314 L 441.71804,1024 h -4.0158 l -24.0935,-8.0314 -20.0613,-8.0314 -4.0157,4.0157 h -4.0158 v -8.0315 l -4.0157,-4.01485 v -12.0471 h -4.0157 v -4.0158 h -4.0157 v -4.0157 h 4.0157 v -8.0306 l 4.0157,-8.0315 v -16.062 h 4.0157 l 4.0158,-8.0314 v -4.0157 l 4.0157,-8.0314 v -24.0936 l 4.0157,-4.0157 v -16.0628 l 4.0157,-4.0149 -4.0157,-4.0157 v -12.0471 l 4.0157,-4.0158 v -8.0314 h -4.0157 v -12.0464 h 4.0157 v -4.0157 l -4.0157,-8.0314 v -16.062 l -4.0157,-8.0314 -4.0157,-4.0157 h -4.0158 l -4.0157,4.0157 h -8.0314 l -8.03067,-4.0157 -8.03139,-8.0315 v -16.0621 l 4.01567,-8.0314 -4.01567,-8.0314 -8.03061,-4.0157 h -4.01572 l -4.01571,-12.0463 4.01571,-8.0315 v -16.0628 l 4.01572,-8.0307 v -12.0471 l -4.01572,-4.0157 -4.01571,-16.0629 v -8.0306 h -12.04715 l -8.03143,4.0158 -4.01571,8.0305 h -20.07776 l -4.01572,-8.0305 -4.01571,-8.0315 v -4.0157 h -8.03061 l -4.01572,-4.0157 h -12.04714 l -4.01572,-8.0314 v -8.0307 l 4.01572,-8.0314 8.03143,-4.0157 8.03061,-8.0306 -4.01572,-8.0314 v -8.0315 l -4.01571,-8.0314 v -20.0778 l -8.03061,-8.0314 -8.03144,-4.0158 h -8.03143 l -8.03141,4.0158 v 12.0471 l -4.01572,12.0464 -8.03061,4.0157 -4.01572,-4.0157 -8.03143,-8.0314 -16.06204,-24.0936 h -8.03143 l -8.01426,-4.0157 -8.03143,-4.0148 4.01572,-12.0472 v -4.0157 l 8.03143,-8.0314 4.01571,-8.0314 h 4.01572 l 8.03143,4.0157 16.06204,-8.0315 20.07776,-20.0778 v -4.0157 l -4.01571,-8.0305 4.01571,-4.0158 v -8.03143 l 4.01572,-4.01571 4.0157,-8.03143 v -20.07776 l 4.01571,-8.03143 -8.0306,-8.03143 -4.01571,-8.03061 v -20.07858 l -8.03143,-4.01571 -4.01572,-4.0149 -4.01571,-8.03143 h -16.06205 v -8.03143 l 4.01572,-12.04715 -12.04715,-12.04632 -8.03143,-4.01572 h -4.01571 v -8.03143 h -28.10919 l -16.06204,-8.03143 v -8.03061 h 4.01571 l 12.04633,-4.01572 v -8.03143 l -12.04633,-4.01571 -4.01571,4.01571 -8.03143,-4.01571 -8.03143,-12.04715 h -20.07776 l -8.03143,-4.01571 -4.015715,-4.01572 h -8.03061 l -4.01571,-4.0149 h -4.01572 l -4.01571,-8.03143 -4.01572,-8.03143 v -40.17432 l -4.01571,-12.04633 V 188.7337 l -4.01572,-4.0149 v -4.01571 l 4.01572,-4.01572 4.01571,-8.03143 4.01572,-4.01571 4.01571,-4.0149 8.03061,-4.01572 v -8.03143 l 4.01572,-8.03143 v -12.04714 l -4.01572,-8.03143 -4.01571,-8.03062 -4.01572,-12.04714 4.01572,-4.015715 v -12.04632 l 8.03143,-12.04715 12.046325,-8.03142 12.04714,-4.01571 h 16.06286 l 12.04633,-4.01572 12.04715,-12.04633 16.06204,-4.01571 8.03143,-4.01572 h 8.03143 l 8.03061,-8.03143 8.03143,-8.03061 h 4.01572 l 8.03061,-4.01571 h 8.03143 l 8.03061,-4.01572 h 4.01572 L 253.017,4.0157247 257.03271,1.4741211e-5 h 4.01572 L 265.06414,4.0157247 h 8.03143 V 1.4741211e-5 L 281.12619,8.0314447 l 4.01571,-4.01572 h 8.03143 l 8.03061,8.0314303 v 4.01572 l -4.01571,8.03143 v 12.04632 l 4.01571,8.03143 8.03143,4.01572 h 8.03143 l 8.03062,4.01571 8.03143,8.03062 h 4.01571 l 12.04633,8.03143 v 28.10917 l 12.04716,12.047145 4.01571,12.04633 4.01572,12.04714 v 12.04715 l 4.01576,4.01571 h 8.0305 l 8.0151,-4.01571 h 16.0621 l 4.0157,4.01571 12.0471,-4.01571 8.0306,-8.03143 8.0314,8.03143 v 12.04714 l 4.0157,8.03062 h 8.0315 l 4.0157,8.03143 -4.0157,16.06204 -4.0157,8.03143 v 12.04714 l 4.0157,8.03062 16.0621,-8.03062 12.0471,4.01572 v 8.03061 l 4.0157,8.03143 h 12.0463 l 4.0157,12.04715 8.0314,8.03143 h 8.0307 l 12.0472,-4.01572 h 12.0471 l 4.0157,4.01572 v 24.09347 l 4.0157,8.03143 v 16.06204 l 4.0158,4.01572 8.0314,-4.01572 4.0157,-4.01571 4.0157,-8.03143 4.0157,-8.03061 h 8.0306 l 8.0314,4.01571 h 16.0458 l 4.0157,4.0149 8.0314,4.01571 h 4.0157 l 8.0306,-4.01571 h 8.0314 l 8.0307,4.01571 v 8.03143 h 8.0314 l 16.062,8.03143 -4.0157,8.03144 -4.0157,8.03143 8.0314,16.06204 v 8.03143 l 8.0314,4.01571 h 8.0315 l 4.0157,8.03062 v 12.04714 l -4.0157,4.01572 8.0306,4.01571 h 4.0157 l 4.0157,4.0149 v 8.03143 l 8.0315,8.03143 4.0157,8.03143 4.0157,8.03143 h 20.0777 l 8.0314,4.01572 4.0158,4.01489 4.0157,8.03143 v 12.04715 h 12.0464 l 4.0157,-4.01572 v -12.04714 l 4.0157,-4.01572 4.0157,-4.01489 h 12.0471 l 4.0158,4.01489 v 12.04715 l 8.0305,8.03143 12.0472,-8.03143 h 8.0143 l 8.0314,12.04633 h 16.062 l 4.0157,4.01571 z"
     style="clip-rule:evenodd;fill:#000000;fill-rule:nonzero;stroke:none;stroke-width:8.36675px"
     id="path1354" />
</svg>
