<?xml version="1.0" encoding="UTF-8" standalone="no"?>
<svg
   xmlns:dc="http://purl.org/dc/elements/1.1/"
   xmlns:cc="http://creativecommons.org/ns#"
   xmlns:rdf="http://www.w3.org/1999/02/22-rdf-syntax-ns#"
   xmlns:svg="http://www.w3.org/2000/svg"
   xmlns="http://www.w3.org/2000/svg"
   xmlns:sodipodi="http://sodipodi.sourceforge.net/DTD/sodipodi-0.dtd"
   xmlns:inkscape="http://www.inkscape.org/namespaces/inkscape"
   version="1.0"
   width="1024pt"
   height="1024pt"
   viewBox="0 0 1024 1024"
   preserveAspectRatio="xMidYMid meet"
   id="svg2211"
   sodipodi:docname="vector.svg"
   inkscape:version="1.0.2-2 (e86c870879, 2021-01-15)">
  <defs
     id="defs2215" />
  <sodipodi:namedview
     pagecolor="#ffffff"
     bordercolor="#666666"
     borderopacity="1"
     objecttolerance="10"
     gridtolerance="10"
     guidetolerance="10"
     inkscape:pageopacity="0"
     inkscape:pageshadow="2"
     inkscape:window-width="1366"
     inkscape:window-height="697"
     id="namedview2213"
     showgrid="false"
     inkscape:zoom="0.1940918"
     inkscape:cx="1266.7524"
     inkscape:cy="760.26375"
     inkscape:window-x="-8"
     inkscape:window-y="-8"
     inkscape:window-maximized="1"
     inkscape:current-layer="svg2211"
     fit-margin-top="0"
     fit-margin-left="0"
     fit-margin-right="0"
     fit-margin-bottom="0" />
  <metadata
     id="metadata2205">
Created by potrace 1.10, written by Peter Selinger 2001-2011
<rdf:RDF>
  <cc:Work
     rdf:about="">
    <dc:format>image/svg+xml</dc:format>
    <dc:type
       rdf:resource="http://purl.org/dc/dcmitype/StillImage" />
    <dc:title></dc:title>
  </cc:Work>
</rdf:RDF>
</metadata>
  <path
     d="m 723.81918,223.89458 4.8416,2.42103 h 14.5262 v 9.68412 l 4.8415,2.42103 2.4211,4.84157 v 9.68413 l 4.842,16.94672 7.2631,19.36775 2.421,16.94673 -2.421,4.84206 -2.421,4.84157 -2.4211,2.42103 -4.842,2.42103 -2.421,2.42103 -2.4211,4.84206 v 7.2631 l -2.421,7.2626 -7.2626,7.26309 v 16.94672 l 19.3677,4.84207 h 7.2631 l 9.6837,2.42103 7.2631,2.42103 h 7.2626 l 7.2631,2.42103 h 38.7355 l 12.0948,2.42054 h 9.6841 l 9.6836,2.42103 7.2631,4.84206 7.2631,2.42103 9.6837,4.84157 9.6841,4.84206 7.2626,4.84206 2.421,4.84207 v 9.68363 l -2.421,4.85192 v 7.26309 h 7.2631 l 7.263,2.42103 h 4.8416 l 4.8421,2.42104 v 7.26308 l 2.421,7.2626 2.4211,9.68413 v 9.68363 l 2.4205,7.26309 2.421,7.26309 2.421,7.2626 v 4.84207 l 2.4211,2.42103 7.2631,2.42103 h 43.5677 v 16.94623 l 2.421,4.84206 4.84212,4.84206 4.842,7.2631 v 7.26259 l -14.52562,4.84207 -7.2631,2.42103 -21.7883,21.78826 -24.2103,19.36779 -7.2627,7.26257 -2.421,4.84206 v 14.5257 l -2.421,9.6842 v 12.1046 l 4.842,4.842 v 16.9468 l 7.2627,4.8421 12.1051,2.421 14.5257,7.2626 h 4.8421 l 2.421,4.842 2.421,2.4211 2.4206,4.842 4.842,4.8416 9.6842,4.8421 h 14.52562 l 7.2631,2.421 4.8416,4.8421 2.4211,4.842 v 12.1047 l -2.4211,2.421 -2.4205,4.8421 v 2.4205 l 2.4205,4.8421 v 4.8519 l -2.4205,2.421 v 2.4211 l -4.8421,2.421 -7.2631,-2.421 -7.26312,2.421 h -2.421 l -4.8416,2.421 v 2.4211 l 2.4211,4.842 v 2.4211 l -2.4211,2.421 h -7.2631 l -2.421,2.4205 -2.421,2.421 h -2.4206 l -4.842,2.4211 -2.4211,4.842 -2.421,4.8421 -4.8421,9.6836 -4.842,4.8421 v 2.4205 l -4.8416,2.421 -4.842,2.4211 -4.8421,4.842 -2.421,4.8421 4.842,2.421 h 9.6836 v 7.2631 l -2.4205,7.2627 -4.842,7.263 -4.8421,4.8416 v 4.842 l -2.421,2.4211 -4.8416,4.842 h -2.4211 l -4.842,-2.421 -2.4211,-2.421 -2.421,2.421 -7.2626,2.421 -9.6841,4.8421 -12.1047,2.421 -4.842,4.8416 -4.8421,2.4211 -7.2626,2.421 -9.6841,4.8421 -2.421,-2.4211 -4.8421,2.4211 v -12.1052 l -2.421,-4.8416 -4.8317,2.421 -4.8421,2.4206 -7.2626,2.421 v -4.8416 l 2.4211,-4.842 h -12.1047 l -2.4211,-2.4211 -4.842,7.2631 v 4.8416 h -19.3678 l -7.263,-2.421 -2.4211,-2.4206 4.8421,-4.842 v -2.4211 l -4.8421,-2.421 h -7.2626 l -4.8421,-2.421 -2.421,4.842 -4.8421,2.4211 h -7.2631 l -4.8415,-2.4211 -2.421,-2.421 -2.4211,-7.2631 -2.421,-2.421 -4.8421,2.421 v 2.421 l -2.4205,4.8421 -2.4211,7.2631 -7.263,-2.421 -7.2626,7.2626 h -9.6743 l -2.421,4.8421 h -4.8416 l -2.421,2.421 v 4.8421 l -2.4211,2.421 -9.6836,2.4205 h -7.2631 l -2.421,2.421 2.421,4.8421 4.8421,2.421 -4.8421,2.421 -4.842,-2.421 h -2.4211 l -9.6836,-2.421 h -24.2103 l -4.8421,2.421 -4.8421,2.421 -2.421,-2.421 -4.8415,-2.421 h -9.6841 l -4.8421,2.421 -7.2626,4.8421 -7.2631,2.4206 h -4.8421 l -2.421,2.421 -7.2527,2.421 h -7.2627 l -2.421,-4.842 -4.8421,-4.8417 h -14.5256 l -2.421,4.8417 -4.8421,2.421 -4.8421,4.842 -4.8416,2.4211 -2.421,4.842 -7.2631,7.2631 -7.2626,2.4205 -2.421,4.8421 -2.421,4.8421 h -2.4211 l -4.842,-2.4211 h -7.2631 l -2.421,-4.842 h -7.2627 l -2.421,-4.8416 -2.421,-2.421 7.2631,-2.421 2.421,-2.4211 v -4.842 l 4.8416,-4.8421 2.421,-4.842 -2.421,-7.2627 v -14.5256 l 2.421,-4.8421 v -4.8421 h -4.842 l -2.4206,-4.8416 2.4206,-4.842 2.421,-4.8421 -4.8416,-2.421 -2.421,-2.4211 v -4.842 l 7.2626,-2.421 v -7.2626 l 2.421,-4.8421 h 4.8421 l 2.421,-2.421 2.421,-4.8416 -4.842,-4.8421 v -7.2631 l -2.4211,-4.842 h -2.421 l -2.421,2.421 h -7.2626 l -2.4211,-2.421 -7.2631,2.421 v 7.2631 l -7.2625,2.421 h -7.2631 l -4.8421,-2.421 h -45.9877 l -7.2631,-2.421 h -4.8416 l -7.2631,2.421 -7.2631,2.421 -7.2631,-2.421 -7.2626,-2.421 -2.421,-12.1052 -4.8421,-7.2626 -2.421,-9.6836 -2.4206,-4.8421 -2.421,-7.2631 -4.8421,-2.421 -2.421,-2.4205 h -55.6729 l -12.1051,-2.421 -12.1047,-33.8935 -4.842,-21.7878 -4.8421,-14.5262 -9.6836,-9.6836 -7.2631,-4.8421 -9.6836,-14.5257 -12.1047,-4.8421 -12.1052,-7.263 -14.5256,-7.2631 -12.0949,-9.6836 -4.842,-2.4211 -2.4211,-2.421 v -7.2626 l -2.421,-2.4211 -26.6304,-7.2631 -29.0508,-9.68356 -31.4729,-12.10515 -19.367295,-7.26263 -7.2631,-4.84207 -2.421,-2.42103 -4.8421,-4.84203 -7.2527,-2.42054 -9.6836,-2.42103 -12.1052,-4.84206 -4.8421,-2.42103 -4.842,-4.84207 -2.4206,-19.36775 v -7.2626 h -9.6841 l 2.421,-14.52619 v -19.36775 l -2.421,-4.84206 -7.2626003,-4.84157 7.2626003,-9.68413 2.421,-9.68363 2.4211,-12.11501 v -9.68412 l -4.8421,-7.2626 -7.2626003,-7.26309 -4.8421,-7.2626 -2.421,-4.84207 -2.42099995879,-4.84206 2.42099995879,-4.84206 9.6841003,-4.84157 2.4206,-2.42103 -4.8416003,-7.26309 -2.421,-7.2631 V 381.268 l 2.421,-4.84157 4.8416003,-2.42103 h 9.6841 l 4.8416,-2.42103 h 4.842 v -9.68363 l -2.421,-7.26309 -2.421,-7.2631 h 2.421 l 2.421,-2.42103 -2.421,-4.84206 v -2.42054 l 4.8421,-4.84206 9.6841,-2.42103 7.2626,-4.84206 9.6841,-2.42103 7.2626,-4.84157 7.2631,-2.42103 4.8421,-4.84206 4.842,-7.2631 2.4211,-9.68363 v -7.26309 l 2.421,-9.68363 7.2626,-2.42103 9.684095,-4.84207 9.6836,-9.68363 4.8421,-4.84206 4.8416,2.42103 h 4.842 l 2.4211,-4.84206 4.842,-2.42103 4.8421,-4.84206 4.8421,4.84206 h 14.5256 l 9.6837,2.42103 h 7.2631 l 2.421,-4.84206 2.4107,-7.26309 v -4.84157 l 7.263,-2.42103 4.8421,-14.5257 2.4206,-7.26309 4.842,-7.26309 2.4211,-4.84157 v -14.52618 l 7.2631,-2.42054 4.8415,-7.26309 4.8421,-7.2631 4.842,-14.52569 2.4211,-9.68412 7.263,-7.2626 h 7.2627 l 4.842,-2.42103 2.4211,-2.4309 v -14.52618 l 2.4205,-4.84157 7.2631,-7.26309 2.421,-7.2631 2.421,-4.84206 h 4.8421 l 4.8421,7.26309 7.2626,2.42104 9.6841,2.42103 7.2626,2.42103 9.6841,4.84206 4.8317,4.84157 4.8421,4.84206 4.8421,2.42103 7.2625,-4.84206 7.2631,2.42103 7.2627,4.84206 7.2631,4.84206 h 4.842 l 7.2631,-2.42103 4.8415,-2.42103 2.4211,7.2626 2.421,4.84206 4.8421,4.84207 h 2.421 l 4.8416,-4.84207 4.8421,-2.42103 9.6836,4.84206 4.842,2.42104 v 4.84206 l -2.421,4.84206 v 9.68363 l 4.8421,4.84206 h 4.842 l 7.2631,2.42103 h 9.6837 l 9.6841,4.84157 h 7.2527 l 14.5257,4.84206 7.2631,-2.42103 4.8416,-2.42103 h 9.6841 l 9.6836,2.42103 4.8421,-2.42103 4.8421,-2.42054 7.2631,2.42054 4.8415,4.84206 4.8421,4.84207 2.421,2.42103 v 4.84157 l -2.421,4.84205 v 4.84206 l 9.6841,7.2631 h 7.2626 l 9.6841,4.84206 7.2631,-2.42103 7.2626,2.42103 h 4.8421 l 7.2626,2.42054 7.2527,7.26309 4.8421,7.26309 v 4.84157 l 2.421,2.42103 h 7.2631 l 4.8421,-2.42103 7.2626,-4.84157 2.421,-7.26309 2.421,-7.26309 9.6836,-4.84157 12.1052,-7.26309 12.1047,-4.84207 12.1052,-4.84205 9.6835,-4.84157 7.2631,-2.42103 12.1047,2.42103 9.6842,2.42054 7.2625,4.84205 2.4211,9.68413 4.8317,4.84206 4.8421,7.2626 z"
     style="clip-rule:evenodd;fill:#000000;fill-rule:nonzero;stroke:none;stroke-width:5.04423px"
     id="path1366" />
</svg>
