<?xml version="1.0" encoding="UTF-8" standalone="no"?>
<svg
   xmlns:dc="http://purl.org/dc/elements/1.1/"
   xmlns:cc="http://creativecommons.org/ns#"
   xmlns:rdf="http://www.w3.org/1999/02/22-rdf-syntax-ns#"
   xmlns:svg="http://www.w3.org/2000/svg"
   xmlns="http://www.w3.org/2000/svg"
   xmlns:sodipodi="http://sodipodi.sourceforge.net/DTD/sodipodi-0.dtd"
   xmlns:inkscape="http://www.inkscape.org/namespaces/inkscape"
   version="1.0"
   width="1024pt"
   height="1024pt"
   viewBox="0 0 1024 1024"
   preserveAspectRatio="xMidYMid meet"
   id="svg2211"
   sodipodi:docname="vector.svg"
   inkscape:version="1.0.2-2 (e86c870879, 2021-01-15)">
  <defs
     id="defs2215" />
  <sodipodi:namedview
     pagecolor="#ffffff"
     bordercolor="#666666"
     borderopacity="1"
     objecttolerance="10"
     gridtolerance="10"
     guidetolerance="10"
     inkscape:pageopacity="0"
     inkscape:pageshadow="2"
     inkscape:window-width="1366"
     inkscape:window-height="697"
     id="namedview2213"
     showgrid="false"
     inkscape:zoom="0.1940918"
     inkscape:cx="1266.7524"
     inkscape:cy="760.26375"
     inkscape:window-x="-8"
     inkscape:window-y="-8"
     inkscape:window-maximized="1"
     inkscape:current-layer="svg2211"
     fit-margin-top="0"
     fit-margin-left="0"
     fit-margin-right="0"
     fit-margin-bottom="0" />
  <metadata
     id="metadata2205">
Created by potrace 1.10, written by Peter Selinger 2001-2011
<rdf:RDF>
  <cc:Work
     rdf:about="">
    <dc:format>image/svg+xml</dc:format>
    <dc:type
       rdf:resource="http://purl.org/dc/dcmitype/StillImage" />
    <dc:title></dc:title>
  </cc:Work>
</rdf:RDF>
</metadata>
  <path
     d="m 714.07373,688.66065 v -2.9942 h 2.9941 v 2.9942 z m 23.9525,2.9941 h -2.9941 v 2.9942 h -5.9877 5.9877 v -2.9942 h 2.9941 v -2.9941 z m -11.9759,-32.9343 h -2.9942 z m -2.9942,-2.9941 h 2.9942 z m 2.9942,2.9941 v 2.9942 z m 14.9701,20.9584 v 2.9942 h -2.9942 v -2.9942 z m 14.97,-2.9941 h -2.9941 z m -5.9876,-17.9643 v -2.9941 z m 8.9817,8.9819 v 2.9941 h -2.9941 v -2.9941 z m -2.9941,-5.9877 h 2.9941 v 2.9941 h -2.9941 v 2.9941 h -5.9876 2.9935 v -2.9941 h 2.9941 v -2.9941 h -2.9941 v -2.9942 l 2.9941,2.9942 v -2.9942 2.9942 -2.9942 z m -5.9876,-14.9701 h 2.9935 z m 2.9935,2.9942 h 2.9941 z m 5.9882,-5.9883 v 5.9883 -2.9942 h -2.9941 v -2.9941 z m -5.9882,-11.97655 h 2.9941 z m 2.9941,0 v -2.99414 z m 8.9824,11.97655 v 2.9941 z m -35.9278,-56.8874 v -2.99413 z m 11.9759,20.95896 h 2.9942 -2.9942 v 2.99414 h -2.9934 v -2.99414 h 2.9934 v -2.99414 l 2.9942,2.99414 z m 14.9707,20.95832 h 2.9942 z m 8.9824,11.97602 v 2.9941 -2.9941 2.9941 z m -23.9531,-35.92726 h 2.9942 z m 8.9825,-5.98827 -2.9942,2.99414 v -2.99414 z m -2.9942,-8.9818 v 5.98766 h -2.9941 v -5.98766 z m 5.9883,11.97594 v 5.98827 -2.99414 2.99414 h -2.9941 v 5.98828 h -2.9942 v 2.99414 h -2.9941 v -2.99414 h -2.9942 2.9942 v -2.99414 h -2.9942 2.9942 v -2.99414 h 2.9941 v -5.98827 z m -14.97,-26.94724 h -2.9942 v -2.99413 h 2.9942 z m 2.9934,5.98828 h -2.9934 v -2.99414 h 2.9934 -2.9934 2.9934 z m 2.9942,0 h -2.9942 z m -17.9642,-26.94602 v -2.99413 z m 8.9824,0 v -2.99413 h 2.9942 v 2.99413 z m 2.9942,-2.99413 v 2.99413 z m -5.9883,-8.9818 v -2.99414 z m 2.9941,-8.98241 v 2.99413 z m 11.9759,14.97007 h -2.9941 z m -17.9642,-26.9454 h 2.9942 z m 2.9942,2.99413 v -2.99413 h 2.9941 v 2.99413 z m 0,-2.99413 h 2.9941 z m 26.9453,0 h -2.9941 2.9941 -2.9941 z m -2.9941,-11.97655 h 2.9941 z m 0,-2.99414 h 2.9941 z m 2.9941,0 h 2.9942 z m 5.9883,8.98241 v -2.99413 2.99413 -2.99413 z m -2.9941,-5.98827 v -2.99414 z m 8.9824,5.98827 h -2.9941 2.9941 -2.9941 v -2.99413 2.99413 -2.99413 h 2.9941 z m 2.9941,2.99414 v -2.99414 z m 2.9942,-5.98827 h -2.9942 v -2.99414 h 2.9942 z m -2.9942,-8.98241 h 2.9942 z m 0,0 h 2.9942 z m 2.9942,0 h 2.9941 z m 8.9818,8.98241 v -2.99414 h 2.9941 v 2.99414 z m 5.9883,-5.98828 v -2.99413 z m 5.9883,-2.99413 h 2.9934 z m -2.9942,-14.97008 h -2.9941 2.9941 -2.9941 2.9941 -2.9941 v 2.99414 h 2.9941 -2.9941 v -2.99414 2.99414 -2.99414 h -2.9942 v -2.99414 h 2.9942 v 2.99414 -2.99414 h 2.9941 z m 5.9876,11.97655 h 2.9942 z m -2.9934,-8.98241 v -2.99414 z m 2.9934,0 v -2.99414 z m 5.9883,5.98827 v 5.98828 h -2.9941 v -5.98828 2.99414 -2.99414 h 2.9941 v 2.99414 z m -8.9817,-14.97007 h -2.9942 z m 2.9934,5.98766 h -2.9934 z m 8.9825,11.97655 v 2.99414 -2.99414 l -2.9942,2.99414 v -2.99414 z m -5.9883,-11.97655 v 2.99414 h -2.9942 v -2.99414 h 2.9942 -2.9942 z m -5.9876,-5.98766 h 2.9934 z m 0,-2.99414 h 2.9934 z m 2.9934,2.99414 v -2.99414 z m 2.9942,8.9818 v -2.99414 h 2.9941 -2.9941 z m 0,-2.99414 h 2.9941 z m -2.9942,-8.9818 v -2.99414 z m 8.9825,8.9818 v 5.98827 -2.99413 h -2.9942 v -2.99414 z m -5.9883,-11.97594 h -5.9876 2.9934 v -2.99414 2.99414 z m 11.9765,8.9818 h 2.9942 z m 0,-2.99413 V 479.079 Z m -5.9882,-11.97594 v -2.99414 z m 2.9941,2.99413 h 2.9941 z m 2.9941,-5.98827 h -2.9941 v -2.99414 h 2.9941 z m 2.9942,-14.97007 v 2.99413 z m 0,2.99413 v -2.99413 z m 8.9817,-2.99413 v 2.99413 z m 2.9942,0 v -2.99414 z m -2.9942,-5.98828 v -2.99414 z m 83.8212,128.74484 h -5.9882 2.9941 v -2.99413 2.99413 z m -77.8451,-128.74484 h -2.9941 z m -2.9941,-8.98241 v -2.99414 h 2.9941 v 2.99414 z m 0,-5.98766 h 2.9941 z m 2.9941,-2.99414 h -2.9941 z m 17.9648,-8.98241 h 2.9942 z m 2.9942,0 h -2.9942 z m 0,0 v 2.99414 z m 0,0 v -2.99413 z m 2.9941,5.98827 v -2.99413 h 2.9936 v 2.99413 z m 2.9936,-5.98827 h -2.9936 z m 2.9941,2.99414 h -2.9941 z m 8.9824,-2.99414 v -2.99413 z m 0,-2.99413 v 2.99413 z m 14.97,0 v -2.99414 z m 5.9883,-5.98766 h 2.9942 z m 2.9942,0 v 2.99413 h -2.9942 v -2.99413 z m 5.9882,0 h 2.9942 z m 2.9942,0 h 2.9941 v -2.99414 2.99414 z m 0,-5.98828 2.9941,2.99414 h -2.9941 z m 2.9941,2.99414 v 2.99414 z m 8.9818,8.98241 v 2.99413 h -2.9941 v -2.99413 z m -5.9882,-8.98241 h -2.9936 v -2.99414 h 2.9936 z m 2.9941,-8.98241 v -2.99414 z m 11.9766,5.98827 v -2.99414 z m 2.9941,0 v -2.99414 z m 0,0 h 2.9935 -2.9935 v 2.99414 z m 5.9876,-8.98241 v -2.99414 z m 5.9883,-8.9818 h -2.9941 z m 17.9642,-59.8803 v -2.99414 h 2.9942 v 2.99414 z m 8.9825,-35.94123 v 8.98241 h -2.9942 v -2.99414 h -2.9941 2.9941 -2.9941 v -8.98241 h 2.9941 v 2.99414 z m 2.9941,0 h 2.9941 z m -11.9766,-23.95249 h -2.9941 v -2.99414 h 2.9941 z m 14.9707,20.95835 V 284.454 Z m -2.9941,-2.99414 v -2.99413 2.99413 h 2.9941 v 2.99414 h -2.9941 2.9941 -2.9941 2.9941 -2.9941 2.9941 v 2.99414 h -2.9941 V 284.454 h -2.9941 v -2.99413 2.99413 h -2.9942 v -5.98766 h -2.9941 v -2.99414 h 2.9941 l -2.9941,2.99414 h 2.9941 v -2.99414 h -2.9941 v -2.99413 h 2.9941 v 2.99413 h 2.9942 v 5.98767 h 5.9882 -2.9941 z m 5.9883,0 h 2.9941 -2.9941 2.9941 -5.9883 2.9942 -2.9942 v 2.99414 -5.98827 2.99413 -2.99413 h 5.9883 v 2.99413 z m -5.9883,-11.97654 2.9941,-2.99414 v 2.99414 z m 2.9941,0 h 2.9942 z m 14.9701,0 h -2.9942 2.9942 -2.9942 z m 0,2.99413 v 2.99414 h -2.9942 v -5.98766 h -2.9941 2.9941 -2.9941 v -2.99414 h 2.9941 v 5.98766 z m -8.9818,-14.97007 h 2.9935 v 2.99413 z m 0,-8.9818 v -2.99414 z m 0,-2.99414 v -2.99414 z m 2.9935,2.99414 v -2.99414 z m -2.9935,-5.98828 h 2.9935 z m 2.9935,0 v 2.99414 z m 0,-2.99413 v 2.99413 -2.99413 h -2.9935 z m 2.9941,0 v 2.99413 h -2.9941 v -2.99413 z m 14.97067,0 v -2.99414 z m -2.99407,-17.96422 v 11.97594 h -2.9942 2.9942 v 2.99414 h -2.9942 v 2.99414 -2.99414 h -2.9941 v 11.97655 -5.98828 h -2.9941 2.9941 -2.9941 2.9941 -2.9941 v -17.96421 h -2.9942 2.9942 v -2.99414 h -2.9942 v -2.99413 l -2.9941,-2.99414 h 2.9941 v 2.99414 -2.99414 h 2.9942 v 5.98827 h 2.9941 v 2.99414 -2.99414 z m 0,0 v -2.99413 z m -53.8938,-113.77415 h -2.9942 l 2.9942,5.98766 2.9941,8.98241 h -5.9883 l -2.9941,2.99414 -5.9883,5.98827 v 11.97594 l -2.9941,2.99414 -11.976,11.97655 v 2.99413 l 2.9941,2.99414 2.9936,5.98766 2.9941,2.99414 v 5.98827 l 2.9942,5.98767 h 8.9824 l 2.9941,-5.98767 v 11.97594 l 2.9942,-2.99413 v -8.98181 l 2.9941,-2.99413 v 2.99413 l 5.9876,5.98767 v 2.99414 h 8.9824 l 5.9883,-5.98767 h 5.9877 l 5.9883,11.97594 v 14.97069 -2.99414 h 2.9941 v 8.9818 h -2.9941 2.9941 v 8.98241 h 2.9942 -2.9942 v -2.99414 h -2.9941 v -2.99413 2.99413 -2.99413 h -2.9941 v -5.98828 h -2.9942 l 2.9942,2.99414 h -2.9942 v -2.99414 2.99414 -2.99414 8.9818 h 2.9942 v 2.99414 h 2.9941 -2.9941 2.9941 -2.9941 v -5.98766 h -2.9942 2.9942 -2.9942 v -2.99414 h 2.9942 v 5.98766 h 2.9941 v 5.98828 h 2.9941 v 2.99413 h -2.9941 v 2.99414 h 2.9941 v 2.99414 h -2.9941 v -2.99414 2.99414 h -2.9941 v 2.99414 h 2.9941 -2.9941 2.9941 v 2.99413 h -2.9941 2.9941 -2.9941 2.9941 v 11.97655 h 2.9941 -2.9941 2.9941 v -2.99414 h 2.9942 v 2.99414 h 2.9941 -2.9941 2.9941 v 2.99414 h -2.9941 v -2.99414 h -5.9883 2.9941 v 2.99414 h -2.9941 2.9941 -2.9941 v 2.99413 h 2.9941 -2.9941 2.9941 -2.9941 v 5.98767 h 2.9941 -5.9882 v -5.98767 h -2.9942 v -2.99413 h -5.9877 v 2.99413 h 2.9941 v 5.98767 -2.99414 h -2.9941 v 5.98828 -2.99414 l 2.9941,2.99414 v 2.99413 h -2.9941 v -2.99413 h -2.9941 v -2.99414 l -2.9942,-2.99414 v -2.99414 h -2.9941 v -2.99413 h -5.9883 l 2.9942,-2.99414 h -5.9877 v -2.99414 2.99414 -2.99414 2.99414 h -2.9941 v -2.99414 h -2.9941 v -2.99413 2.99413 -2.99413 h -2.9942 v -5.98828 h -5.9882 v -2.99413 h -2.9942 v 2.99413 h 2.9942 v 2.99414 h 2.9941 v -2.99414 2.99414 h 2.9941 -2.9941 v 2.99414 h 2.9941 v 2.99413 h 2.9942 v 2.99414 h 8.9817 v 5.98827 h 2.9942 v 5.98767 h 5.9882 v 11.97655 h -2.9941 2.9941 v 8.9818 h -2.9941 2.9941 v 2.99414 h -2.9941 v 2.99413 h 2.9941 v 2.99414 h -2.9941 v 2.99414 -2.99414 2.99414 -2.99414 2.99414 -2.99414 h -2.9941 v 2.99414 h 5.9882 v 5.98827 h 2.9942 v 2.99414 h 2.9941 -2.9941 v 5.98827 h -2.9942 2.9942 -2.9942 v 2.99414 h -2.9941 2.9941 v 2.99414 -2.99414 5.98766 -2.99413 h -2.9941 v 5.98827 h 2.9941 -2.9941 2.9941 v 2.99414 h -2.9941 v 11.97593 h -2.9941 2.9941 v 2.99414 h -2.9941 2.9941 v 2.99414 h -2.9941 v 5.98827 l -2.9942,-2.99413 v 2.99413 h 2.9942 -2.9942 l 2.9942,2.99414 h -2.9942 v 2.99414 h -2.9935 v 8.98241 h -2.9941 2.9941 -2.9941 v 2.99413 h -2.9941 v -2.99413 h -2.9942 v 2.99413 -2.99413 2.99413 h -2.9941 v -2.99413 2.99413 -2.99413 2.99413 h 2.9941 -2.9941 v 2.99414 h -2.9941 2.9941 -2.9941 v 2.99414 h -2.9942 5.9883 -2.9941 2.9941 v 5.98766 h 2.9941 -2.9941 v 5.98828 h -11.9766 2.9942 v 2.99413 h -2.9942 2.9942 l 2.9941,-2.99413 v 2.99413 -2.99413 2.99413 -2.99413 2.99413 h 2.9942 -5.9883 2.9941 v 2.99414 h -2.9941 v 2.99414 h -2.9942 l -2.9941,2.99413 h 5.9883 -2.9942 v 2.99414 -2.99414 h 2.9942 v 5.98767 -2.99414 2.99414 h -2.9942 v 2.99414 h -5.9877 v -2.99414 2.99414 -2.99414 h 2.9936 -2.9936 v 2.99414 -2.99414 5.98827 -2.99413 h -5.9882 2.9941 l -2.9941,2.99413 v -2.99413 2.99413 -2.99413 l -2.9942,2.99413 v -8.98241 h 2.9942 v -8.9818 h 2.9941 -2.9941 v -2.99414 h 2.9941 v 2.99414 -8.98241 h -2.9941 2.9941 -2.9941 v 2.99414 -2.99414 2.99414 h -2.9942 v 2.99413 -2.99413 2.99413 h -2.9941 v 2.99414 -2.99414 h 2.9941 v 2.99414 h -5.9882 2.9941 v 5.98827 h -2.9941 v -2.99413 2.99413 h -2.9942 v -2.99413 2.99413 -2.99413 2.99413 -2.99413 h -2.9935 v 2.99413 h 2.9935 -2.9935 2.9935 v 2.99414 h -2.9935 v -2.99414 h -2.9941 v 5.98767 h -2.9941 v 2.99414 h -2.9942 v 2.99413 -2.99413 h -2.9941 2.9941 -5.9883 v 2.99413 h -2.9941 2.9941 v 2.99413 h -5.9877 v -2.99413 h -8.9824 2.9942 -2.9942 2.9942 -2.9942 v 2.99413 h -2.9941 v 2.99414 h 2.9941 -2.9941 v 2.99414 h -2.9941 v -2.99414 h -2.9942 v -5.98766 2.99413 -2.99413 h -2.9941 l 2.9941,-2.99413 h -5.9883 v 2.99413 h -2.9941 2.9941 -2.9941 v 2.99413 -8.9824 2.99414 h -2.9935 2.9935 v -2.99414 h -2.9935 v -2.99414 5.98828 -2.99414 2.99414 h -2.9941 2.9941 -2.9941 v 2.99413 -5.98827 h -2.9942 2.9942 v -2.99414 h -2.9942 v -2.99414 2.99414 -2.99414 2.99414 h -2.9941 v -2.99414 2.99414 h 2.9941 -2.9941 2.9941 v 8.98241 -2.99413 8.98179 -2.99414 5.98828 -2.99414 h -2.9941 v 2.99414 -2.99414 h 2.9941 -2.9941 v 2.99414 h -2.9941 v -2.99414 2.99414 -2.99414 2.99414 h -5.9883 v 8.98241 h -2.9936 v 2.99413 h 2.9936 -2.9936 2.9936 v 2.99414 h -2.9936 2.9936 -2.9936 v 2.99414 h -2.9941 v 2.99413 h 2.9941 v 2.99414 -2.99414 2.99414 h 2.9936 -2.9936 v 2.99414 -2.99414 2.99414 -2.99414 h -2.9941 2.9941 -2.9941 v -2.99414 2.99414 h -2.9941 2.9941 -2.9941 v 2.99414 -2.99414 h -2.9941 v 2.99414 h -2.9941 v 2.99414 h -2.9942 5.9883 v 2.99413 h -5.9883 v 5.98767 h 2.9942 -2.9942 v 2.99413 h -5.9882 v 2.99414 h -2.9942 2.9942 -2.9942 v 2.99414 h 2.9942 -8.9819 2.9936 -5.9877 v -2.99414 2.99414 -2.99414 h -2.9942 l -2.9941,-2.99414 v 2.99414 h 2.9941 v 5.98828 h 2.9942 v 2.99413 -2.99413 l -2.9942,2.99413 v 5.98767 h -2.9941 v 2.99413 h 2.9941 -2.9941 v 2.99414 h -2.9941 v 2.99414 -2.99414 h 2.9941 v 2.99414 h -2.9941 v 2.99413 -2.99413 h -2.9942 v 5.98827 h -11.9759 v 2.99414 -2.99414 h -2.9941 v -2.99414 2.99414 h -2.9941 v -2.99414 h -2.9942 v 5.98767 h 8.9824 -2.9941 2.9941 v 5.98827 -2.99413 2.99413 h 2.9942 -2.9942 2.9942 -2.9942 v 2.99414 h -2.9941 v -2.99414 h -2.9941 v -2.99413 l -2.9942,2.99413 v -2.99413 h -5.9877 v 8.98241 h -2.9941 v 2.99413 h -2.9942 2.9942 v 5.98767 h -5.9883 v -2.99414 h -2.9941 v 2.99414 -2.99414 2.99414 -2.99414 h -11.9766 v -2.99414 h -2.9935 v 11.97655 h 2.9935 v 2.99414 h 2.9942 v 5.98766 h -11.9759 v 2.99414 h -2.9942 2.9942 v 2.99414 h -2.9942 v 2.99413 h 2.9942 -2.9942 5.9883 v 2.99414 h -2.9941 2.9941 v 2.99414 h -5.9883 v 5.98827 h -2.9941 v 5.98828 h 2.9941 v -2.99414 2.99414 h 2.9942 v -2.99414 h 2.9941 -2.9941 2.9941 -2.9941 l 2.9941,-2.99414 v 2.99414 h 5.9876 v 2.99414 h -2.9935 2.9935 -5.9876 l -2.9941,2.99413 v 5.98767 h -5.9883 v 5.98827 h 2.9941 -2.9941 v 2.99414 h 8.9824 v 2.99414 -2.99414 2.99414 h 2.9941 v 2.99413 h 2.9935 -2.9935 5.9877 v -2.99413 h 2.9941 v -2.99414 h 2.9941 v 2.99414 h -2.9941 2.9941 -2.9941 v 2.99413 h 2.9941 -2.9941 v 2.99414 h 2.9941 -2.9941 v 2.99414 h 2.9941 -2.9941 v 2.99413 -2.99413 h 2.9941 -2.9941 l 2.9941,2.99413 h -5.9882 v 2.99414 h 2.9941 -2.9941 2.9941 -2.9941 2.9941 v 8.9818 h -2.9941 2.9941 v 2.99414 h -2.9941 v 2.99414 h -5.9877 v 5.98828 h -2.9941 2.9941 -2.9941 v 2.99413 h -2.9941 2.9941 l -2.9941,2.99414 h 2.9941 v 2.99414 -2.99414 h 5.9876 v 5.98763 h -2.9935 v 8.98238 h -2.9941 v 5.9883 h -2.9941 v 2.9941 -2.9941 h -5.9883 v 8.9818 h -2.9942 v 2.9942 h -2.9941 v 2.9941 h -2.9936 v 2.9942 h -2.9941 v 2.9941 h 5.9877 v 2.9941 l -2.9936,0.013 h 2.9936 v 5.9883 h 2.9941 -2.9941 v 8.9819 h 2.9941 v 2.9941 -2.9941 2.9941 l -5.9877,2.9941 -8.9702,8.9824 -8.9824,8.9818 -8.9817,2.9941 h -11.976 l -11.9766,-2.9941 -2.9941,-2.9941 v -8.9818 l -8.9818,-2.9941 v -2.9942 l -2.9941,-5.9882 v -2.9942 l -5.9883,5.9883 -2.9941,8.9817 -5.9883,11.9766 -2.9941,8.9824 -8.9819,8.9819 -2.9941,11.9765 -5.9883,5.9876 h -8.9817 l -2.9942,2.9942 5.9876,2.9941 h 2.9942 l -5.9876,5.9883 -2.9942,-2.9942 h -11.9765 l -14.9701,14.9701 -2.9942,8.9825 -5.9883,8.9817 -2.9941,8.9824 -2.9941,2.9942 -2.9942,11.9759 v 41.9167 l 5.9883,5.9877 8.9824,8.9824 2.9942,8.9824 -2.9942,8.9818 -2.9941,5.9883 -5.9883,5.9876 -5.9883,5.9883 -5.9876,2.9941 -5.9755,5.9883 h -8.9824 l -11.9766,5.9883 -2.9941,-2.9941 -5.9876,2.9941 -2.9942,8.9818 v 5.9883 h 2.9942 l 2.9935,5.9876 v 2.9942 l -2.9935,2.9941 -2.9942,5.9883 -5.9882,5.9877 -2.9942,8.9824 h -2.9941 l -2.9941,2.9941 -2.9936,5.9883 v 5.9876 l -5.9883,2.9942 -2.9941,5.9882 h -11.9766 l -2.9941,2.9942 -5.9876,2.99405 -2.9942,8.9819 h -20.9584 l -5.9882,5.9882 -5.9883,2.9942 -8.9824,5.9882 -8.9818,-11.9765 -11.9765,-11.9766 v -5.98815 l 2.9941,-5.9877 v -2.9942 l -2.9941,-5.9882 v -11.9759 l -2.9942,-2.9942 h -14.945 l -2.9942,-5.9883 v -5.9882 l -2.9941,-5.9877 h -17.9643 l -5.9882,2.9941 h -8.9818 l -62.8763,-29.9414 h -2.9941 v -8.9824 l -2.9942,-2.9941 h -5.9876 l -5.9883,2.9941 v -14.97 l 2.9942,-2.9941 h 5.9882 v -2.9942 h 5.9877 v -2.9941 l -5.9877,-2.9942 -5.9882,-5.9877 h -2.9942 l -2.9941,-2.9941 v -5.9883 l 2.9941,-2.9941 -2.9941,-8.9824 v -14.9701 h -8.9819 l -5.9882,-5.9882 h -5.9883 l -5.9876,-2.9942 -2.9942,2.9942 -5.9755,2.9941 h -2.9941 l -2.9941,2.9941 v -5.9877 l 2.9941,-2.9941 v -5.9883 l 2.9941,-5.9882 v -11.9759 l -5.9882,-2.9942 -2.9942,-2.9941 -2.9941,-11.9766 -5.9883,-11.9759 -5.9876,-2.9942 h -2.9942 l -8.9824,-8.9824 h -5.9877 l -5.9882,5.9883 v 17.9642 h 2.9941 l 2.9941,2.9942 h 2.9942 v 5.9876 l 2.9941,2.9941 -5.9876,5.9883 h -8.9824 l -5.9883,2.9941 h -11.976 v -14.97 l 2.9942,-2.9941 -2.9942,-5.9883 -2.9941,-2.9941 -2.9942,2.9941 h -2.9941 l -2.9941,-2.9941 -5.9883,-2.9942 h -23.9525 l -2.9941,2.9942 h -5.988295 l -2.9941,-2.9942 h -2.9941 l -2.9942,-2.9941 v -5.9877 h -5.9877 l -8.9824,2.9941 -8.9817,-2.9941 -5.9883,-11.9766 -2.9814,-26.9453 -8.9824,-77.847 -5.9883,-56.88677 -2.9941,-23.95248 -2.9942,-29.94137 v -17.96482 l -5.9876,-8.98181 h 2.9942 v -11.97654 l -2.9942,-5.98767 v -5.98827 h -2.9941 v -5.98767 l 5.9876,-5.98827 v -11.97655 l 2.9941,-5.98766 v -5.98828 l 2.9942,-2.99413 h 11.9765 v 2.99413 h 17.9643 v -2.99413 h 2.9941 v 5.98827 h 2.9942 v 2.99414 h 44.899195 v 2.99413 -2.99413 h 2.9941 v 2.99413 h 8.9824 v 2.99414 -2.99414 2.99414 h 2.9942 v -2.99414 h 17.9642 v 2.99414 -2.99414 2.99414 h 2.9941 l 2.9942,-2.99414 v 2.99414 h 11.9765 v 2.99414 -2.99414 h 17.9642 v 2.99414 h 29.9286 v -2.99414 h 5.9883 v 2.99414 h 2.9941 v 2.99414 h 17.9642 l 5.9877,5.98766 h 2.9941 v -2.99414 h 14.9701 v 2.99414 h 32.9349 l 2.9941,-2.99414 h 14.9701 l 2.9941,-2.99413 h 5.9883 l 2.9941,-2.99414 h 8.9824 v -2.99414 2.99414 h 2.9936 v -2.99414 h 23.9402 v -2.99413 h 2.9942 v -5.98767 h 2.9936 v -2.99414 h 2.9941 v -5.98827 h 2.9941 -2.9941 2.9941 v -2.99414 h 2.9942 v -8.9818 h 2.9941 v -8.98241 l 2.9941,-2.99414 V 425.186 h 2.9942 l 2.9941,-2.99414 h 2.9941 v -2.99414 h 2.9942 v -2.99413 h 2.9935 v -8.98241 h 2.9941 -2.9941 2.9941 v -5.98766 h 2.9941 -2.9941 l 2.9941,-2.99414 v -11.97655 h 2.9942 v -11.97618 h 2.9941 v -29.95417 l 2.9942,-2.99414 h -2.9942 2.9942 v -2.99414 l 2.9941,-2.99414 v -2.99413 h 2.9936 v -11.97655 h 2.9941 v -6.00047 h 2.9941 v -5.98766 h 2.9942 v -5.98828 h 2.9941 v -5.98766 h 2.9941 l -2.9941,-2.99414 h 2.9941 v -5.98827 h 2.9942 v -2.99414 l 2.9941,-2.99414 v 2.99414 h 2.9942 v 2.99414 h 5.9876 v 2.99413 h 2.9941 v 2.99414 -2.99414 l 2.9942,2.99414 h 47.8927 l 2.9942,-2.99414 h 8.9818 v -2.99413 h 2.9941 v -5.98828 h 2.9942 v -2.99414 h 2.9941 v -2.99413 h 8.9696 v -2.99414 h 2.9941 v -14.97007 h 2.9942 -2.9942 2.9942 v -8.98181 h 2.9941 -2.9941 v -2.99413 h 2.9941 -2.9941 v -2.99414 h 2.9941 -2.9941 v -5.98827 h 2.9941 v -5.98828 h 2.9941 v -2.99413 h 5.9877 v -2.99414 h 2.9942 l 2.9941,-2.99414 h 2.9941 v -5.98827 h 5.9883 v -2.99414 h 5.9876 v -2.99414 h 2.9942 v 2.99414 -2.99414 2.99414 h 14.9707 l -2.9942,-2.99414 h 2.9942 v -2.99413 h 2.9941 v -5.98767 h 2.9941 l 2.9936,-2.99413 v 2.99413 -2.99413 2.99413 h 5.9883 V 188.6282 l -2.9942,-2.99413 v -2.99414 h -2.9941 v -2.99414 h -2.9936 v -5.98766 h 2.9936 v -5.98828 h 2.9941 v -2.99413 h 2.9942 v -2.99414 h 2.9941 v -2.99414 h 2.9942 v -2.99413 h 2.9941 l 2.9941,-2.99414 h 2.9935 v -2.99414 h 2.9942 v -2.99413 h 8.9824 l 2.9941,-2.99414 h 2.9936 v 2.99414 h 5.9882 v 2.99413 h 2.9942 v 5.98828 h 5.9883 v -5.98828 h 11.9765 l 2.9941,-2.99413 v -8.98181 l -2.9941,-2.99413 v -8.98241 h 11.9759 l 2.9941,2.99413 h 5.9755 v -2.99413 h 2.9942 l 2.9941,-2.99414 h 2.9942 -2.9942 l 2.9942,-2.99414 h 5.9882 v -2.99413 h 5.9883 V 113.776 h 11.9759 v 2.99414 -2.99414 2.99414 h 5.9883 v -5.98827 h 2.9941 -2.9941 l 2.9941,-2.99414 v -5.98766 h 5.9877 v 2.99414 h 5.9883 v 2.99413 h 2.9941 v 2.99414 h 5.9877 v 11.97593 -2.99414 h 5.9882 v -2.99413 h 5.9883 V 113.776 h 2.9941 l 2.9942,-2.99413 h 2.9941 v -2.99414 h 2.9942 v -2.99413 h 2.9941 l 2.9936,-2.99414 h 2.9941 v -2.99414 h 2.9941 v -2.99414 h 2.9942 v -2.99413 h 2.9941 l 5.9883,-5.98767 v -2.99413 h 2.9935 l 2.9941,-2.99414 h 2.9941 v -2.99414 h 2.9942 v -2.99413 h 2.9941 V 71.8587 h 2.9941 v -2.99414 h 2.9942 v -2.99414 l 2.9941,-2.99413 v -2.99414 h 2.9942 v -2.99414 l 2.9941,-2.99413 v -2.99414 h 2.9935 v -5.98827 h 2.9941 v -2.99414 h 2.9942 v -2.99414 h 2.9941 v -2.99414 h 2.9941 v -2.99413 h 2.9942 v -2.99414 h 2.9941 l 2.9814,-2.99414 h 2.9941 v -5.98766 h 2.9942 v -2.99414 h 2.9934 v -2.99413 h 2.9942 v -2.99414 h 2.9941 V 8.9824297 h 2.9941 -2.9941 2.9941 v -2.99414 h 2.9942 v -2.99413 h 2.9941 V 1.9741211e-5 l 2.9942,2.994139958789 5.9882,2.99413 2.9942,5.9876703 5.9877,5.98827 v 5.98767 l 5.9883,8.98241 2.9941,5.98766 2.9941,5.98828 5.9876,8.98241 2.9942,8.9818 8.9824,5.98827 5.9883,17.96421 2.9941,2.99414 v 2.99414 l 5.9883,8.98241 5.9877,8.9818 z"
     style="clip-rule:evenodd;fill:#000000;fill-rule:nonzero;stroke:none;stroke-width:6.23829px"
     id="path1234" />
</svg>
