<?xml version="1.0" encoding="UTF-8" standalone="no"?>
<svg
   xmlns:dc="http://purl.org/dc/elements/1.1/"
   xmlns:cc="http://creativecommons.org/ns#"
   xmlns:rdf="http://www.w3.org/1999/02/22-rdf-syntax-ns#"
   xmlns:svg="http://www.w3.org/2000/svg"
   xmlns="http://www.w3.org/2000/svg"
   xmlns:sodipodi="http://sodipodi.sourceforge.net/DTD/sodipodi-0.dtd"
   xmlns:inkscape="http://www.inkscape.org/namespaces/inkscape"
   version="1.0"
   width="1024pt"
   height="1024pt"
   viewBox="0 0 1024 1024"
   preserveAspectRatio="xMidYMid meet"
   id="svg2211"
   sodipodi:docname="vector.svg"
   inkscape:version="1.0.2-2 (e86c870879, 2021-01-15)">
  <defs
     id="defs2215" />
  <sodipodi:namedview
     pagecolor="#ffffff"
     bordercolor="#666666"
     borderopacity="1"
     objecttolerance="10"
     gridtolerance="10"
     guidetolerance="10"
     inkscape:pageopacity="0"
     inkscape:pageshadow="2"
     inkscape:window-width="1366"
     inkscape:window-height="697"
     id="namedview2213"
     showgrid="false"
     inkscape:zoom="0.1940918"
     inkscape:cx="1052.9361"
     inkscape:cy="760.26375"
     inkscape:window-x="-8"
     inkscape:window-y="-8"
     inkscape:window-maximized="1"
     inkscape:current-layer="svg2211"
     fit-margin-top="0"
     fit-margin-left="0"
     fit-margin-right="0"
     fit-margin-bottom="0" />
  <metadata
     id="metadata2205">
Created by potrace 1.10, written by Peter Selinger 2001-2011
<rdf:RDF>
  <cc:Work
     rdf:about="">
    <dc:format>image/svg+xml</dc:format>
    <dc:type
       rdf:resource="http://purl.org/dc/dcmitype/StillImage" />
    <dc:title></dc:title>
  </cc:Work>
</rdf:RDF>
</metadata>
  <path
     d="m 590.4913,238.93253 -20.48053,20.48053 -40.95966,13.65368 13.65368,13.65369 -13.65368,34.13282 -13.6523,6.82685 -6.82684,13.65368 13.6523,27.30598 v 27.30737 l 13.65368,-6.82684 27.30598,-6.82684 6.82684,6.82684 h 13.65369 l 13.65369,13.6523 6.82684,-6.82546 20.47914,13.6523 v 6.82684 l 20.48053,13.65369 v 6.82684 l 6.82684,6.82684 -6.82684,20.48053 -13.65369,6.82545 6.82684,20.48053 6.82685,-6.82684 6.82684,27.30737 -6.82684,6.82545 v 13.65369 l 13.65368,-6.82684 20.47914,13.65368 v 13.65369 l 6.82684,13.65368 20.48053,20.47914 -6.82684,27.30737 h 20.48053 l 20.4791,20.47914 13.6537,6.82684 6.8269,6.82685 h 13.6536 l -13.6536,20.48052 -20.4792,20.47914 6.8269,27.30737 h 20.4791 l 13.6537,6.82685 13.6523,-13.65369 6.8268,13.65369 h 13.6537 l 13.6523,27.30598 -13.6523,20.48051 13.6523,6.82684 v 6.82684 l 13.6537,6.82546 6.8268,20.48052 -6.8268,13.65369 -13.6537,13.65368 -13.6523,20.48053 v 20.47914 l 13.6523,20.48053 -13.6523,13.6523 h -34.1328 l -20.4805,-13.6523 h -13.6523 l -6.8269,13.6523 -13.6537,13.65368 h -27.30733 l -6.82685,-6.82684 -6.82684,-13.65369 h -13.65229 l -20.48053,20.48053 -20.47914,6.82684 -6.82684,-6.82684 h -13.65369 l -6.82684,-6.82684 h -6.82684 l -20.48053,6.82684 h -47.78651 l -34.13283,34.13281 -6.82684,13.6537 -6.82684,6.8268 -6.82684,13.6537 h -34.13283 l -6.82684,-6.8268 -20.48053,13.65374 -6.82684,6.8268 h -13.6523 l -6.82684,6.8269 h -13.65367 l -13.65229,6.8254 -13.65369,-6.8254 -13.65368,-13.6537 h -13.62449 l 6.82684,-20.48064 -13.65229,-6.8268 v -13.6537 h -20.48053 v -20.47912 l 6.82684,-13.65369 V 901.12097 L 283.32233,887.46728 H 262.8418 l -13.65369,13.65369 -6.82684,-6.82684 6.82684,-13.65369 6.82684,-13.65368 v -6.82546 l 13.65369,-13.65368 -13.65369,-20.48053 -20.47913,13.65368 -6.82685,-6.82684 v -13.65368 h -13.65368 l -20.47914,-27.30737 6.82684,-27.30599 20.47914,-13.65366 v -6.82546 h -27.30598 l -13.65369,-13.65368 6.82685,-13.65369 13.65368,6.82685 6.82685,-6.82685 -20.48053,-20.48053 v -13.65368 h 6.82684 v -13.6523 h 6.82684 v -13.65368 h 6.82685 l 6.82684,-6.82684 h 6.82684 v 6.82684 l 6.82684,-6.82684 h 6.82685 v -20.47914 l -6.82685,-6.82685 v -6.82684 h -6.82684 l 6.82684,-6.82684 h 6.82685 v -6.82684 h 13.65368 l 13.6523,-20.47914 h 6.82684 v -47.7879 l 27.30737,-27.30598 v -6.82685 h -6.82684 v -13.65368 l -6.82684,6.82684 v -6.82684 h 6.82684 l -6.82684,-6.82684 v -6.82685 h -6.82685 v 6.82685 l -6.82684,-6.82685 -6.82684,6.82685 -6.82685,-6.82685 v -6.82545 h -6.82684 v -6.82684 h -13.65368 v -6.82684 l -6.82685,6.82684 h -13.65229 v -6.82684 h 6.82684 V 436.9068 h -6.82684 v -6.82684 l -6.82684,-6.82685 v -6.82684 h 6.82684 v -13.65368 h 6.82684 v -6.82546 h 6.82684 v 6.82546 h 6.82685 v -6.82546 h -13.65369 v -6.82684 h -6.82684 v -6.82684 h -6.82684 v -13.65369 h -6.82685 v -13.65368 h 6.82685 v -20.47914 h 13.65368 v -6.82684 l -6.82684,6.82684 v -13.65369 h 6.82684 v 6.82685 -6.82685 l -13.65368,-6.82684 v -13.65369 h -13.65369 v -6.82684 h -6.82684 v -6.82684 h 6.82684 v -34.13283 h -6.82684 v -6.82684 h -6.82685 v -6.82684 h -6.82684 l 6.82684,-6.82545 h 6.82685 v -6.82685 h 6.82684 v -6.82684 h 6.82684 v -6.82684 h -6.82684 l 6.82684,-6.82685 v -6.82684 h 6.82685 v -6.82545 h 6.82684 v -6.82684 h 6.82684 v -6.82685 l 6.82684,-6.82684 6.82685,-6.82684 h 6.82684 -6.82684 v -27.30737 h 6.82684 v -6.82685 h 13.65369 v -6.82545 h 6.82684 v -6.82684 h 6.82684 v -6.82684 h 6.82684 v -6.82685 l 6.82685,6.82685 6.82684,-6.82685 h -6.82684 v -6.826835 l 6.82684,-6.82684 h 6.82684 v -6.82685 h 6.82684 v -6.82545 h -6.82684 v -6.82684 l 6.82684,-6.82684 v -6.82683 h 6.82685 V 40.959672 h 27.30737 V 27.305986 h 13.65229 v -6.826843 h 6.82685 V 13.652301 L 365.24583,4.7412111e-6 V 6.8268477 l 13.65367,6.8254533 v 34.134214 l -27.30736,20.48051 6.82685,13.65229 h 20.48051 l 6.82684,13.65369 h 13.65369 l 6.82684,13.653685 -6.82684,13.65368 v 13.6523 l 20.47913,27.30737 h 13.65369 l 6.82684,13.65368 h -6.82684 l 6.82684,13.65369 -6.82684,6.82545 13.65369,13.65369 13.65229,-13.65369 6.82684,6.82684 13.65369,-13.65229 v -6.82684 l 13.65229,-13.65369 h 13.65369 l 6.82684,-6.82684 h 13.6523 l 6.82684,13.65368 h 13.65369 l 20.48052,6.82685 6.82685,13.65229 6.82684,27.30737 6.82684,13.6523 z"
     style="clip-rule:evenodd;fill:#000000;fill-rule:nonzero;stroke:none;stroke-width:14.2237px"
     id="path1296" />
</svg>
