<?xml version="1.0" encoding="UTF-8" standalone="no"?>
<svg
   xmlns:dc="http://purl.org/dc/elements/1.1/"
   xmlns:cc="http://creativecommons.org/ns#"
   xmlns:rdf="http://www.w3.org/1999/02/22-rdf-syntax-ns#"
   xmlns:svg="http://www.w3.org/2000/svg"
   xmlns="http://www.w3.org/2000/svg"
   xmlns:sodipodi="http://sodipodi.sourceforge.net/DTD/sodipodi-0.dtd"
   xmlns:inkscape="http://www.inkscape.org/namespaces/inkscape"
   version="1.0"
   width="1024pt"
   height="1024pt"
   viewBox="0 0 1024 1024"
   preserveAspectRatio="xMidYMid meet"
   id="svg2211"
   sodipodi:docname="vector.svg"
   inkscape:version="1.0.2-2 (e86c870879, 2021-01-15)">
  <defs
     id="defs2215" />
  <sodipodi:namedview
     pagecolor="#ffffff"
     bordercolor="#666666"
     borderopacity="1"
     objecttolerance="10"
     gridtolerance="10"
     guidetolerance="10"
     inkscape:pageopacity="0"
     inkscape:pageshadow="2"
     inkscape:window-width="1366"
     inkscape:window-height="697"
     id="namedview2213"
     showgrid="false"
     inkscape:zoom="0.1940918"
     inkscape:cx="1266.7524"
     inkscape:cy="760.26375"
     inkscape:window-x="-8"
     inkscape:window-y="-8"
     inkscape:window-maximized="1"
     inkscape:current-layer="svg2211"
     fit-margin-top="0"
     fit-margin-left="0"
     fit-margin-right="0"
     fit-margin-bottom="0" />
  <metadata
     id="metadata2205">
Created by potrace 1.10, written by Peter Selinger 2001-2011
<rdf:RDF>
  <cc:Work
     rdf:about="">
    <dc:format>image/svg+xml</dc:format>
    <dc:type
       rdf:resource="http://purl.org/dc/dcmitype/StillImage" />
    <dc:title></dc:title>
  </cc:Work>
</rdf:RDF>
</metadata>
  <path
     d="m 900.39445,300.13813 h -8.8278 v 17.6556 h 8.8278 v 17.65381 h -8.8278 v 44.13902 h 17.6539 v 26.48161 h 8.8278 v 8.8278 h 8.8278 l 8.8278,8.8278 v 8.82781 h -8.8278 v 8.8278 l -26.4817,17.65561 v -8.82781 l -8.8278,8.82781 -17.6556,-17.65561 -8.8278,8.8278 v 17.65561 h -17.6556 v 26.48161 h -17.6537 l 8.8278,8.8278 v 8.82781 h -8.8278 v 17.6556 h -26.4834 l -8.8278,17.65381 v 26.48341 h 8.8278 v 35.31121 l 8.8278,8.82781 -26.4834,17.65381 v 17.6556 l 8.8278,17.65558 -26.4817,8.82781 -8.8279,-17.65559 -26.4834,17.65559 v 17.65381 l 8.8278,8.8278 h -17.6536 l 8.8278,17.6556 -17.6557,17.65561 -8.8278,8.82601 26.4835,17.6556 h -35.3113 l -17.6556,17.65557 h -17.6539 l 17.6539,17.6556 -8.8278,8.8278 h -8.8278 l -8.8278,17.6557 17.6556,26.4816 h -26.4834 l -35.3095,17.6556 -26.4834,26.4816 -17.6537,8.8278 v -17.6538 l -26.4834,-17.6556 h -17.6556 v 26.4816 h -8.8278 l -26.4818,44.139 -17.6556,-17.6556 h -17.6537 l -17.6556,-26.4834 -17.6539,-8.826 -8.8278,35.3094 v 8.8278 l -17.6556,35.3112 -17.6556,-17.6556 v 44.1372 l -8.8278,8.82785 h -17.6556 l -8.8278,8.8278 -8.8278,-8.8278 -17.6537,17.6556 -8.8278,-17.6556 17.6537,-26.48165 -8.8278,-8.8278 -17.6537,17.6538 h -17.65562 l -8.8278,-17.6538 -8.82781,8.8278 -26.44577,-8.8278 35.31121,-52.9668 -8.8278,-8.8278 -17.65561,-8.8278 -8.8278,-26.4816 -17.65561,-8.8278 8.82781,-17.6556 -17.65369,-17.6538 -17.65561,17.6538 -8.8278,-17.6538 8.8278,-26.4835 8.82781,-26.4834 v -17.65557 l -17.65561,-8.8278 v -26.48162 l 52.9649,-52.96502 -8.8278,-17.65558 -8.82781,8.8278 -8.8278,-17.6556 8.8278,-17.65561 -17.65368,-26.48161 -26.48341,8.8278 -17.65393,-17.6556 v -26.48341 l -17.65561,-26.48341 -8.8278,-8.82601 8.8278,-8.8278 h -17.65369 l -17.655595,-61.79282 26.483405,-35.31122 -8.82781,-8.8278 8.82781,-8.8278 -35.311215,-35.30942 v -61.79282 l 8.82781,-17.65561 8.827795,-8.8278 v -8.8278 L 97.123825,229.5175 v -26.48341 l -8.82781,-8.8278 17.655605,-26.48162 h 35.30929 v -61.79282 h 26.48341 l 8.82781,-26.483405 26.48173,17.65561 8.8278,-26.48341 26.48341,8.8278 8.8278,8.8278 v 17.655605 l 26.4815,-26.483405 h 8.8278 l 8.82778,-8.8278 h 17.6556 v 8.8278 h 17.6556 v -17.65561 l -17.6556,-8.8278 -8.8278,-26.48161 17.6556,17.65381 h 17.654 L 326.63955,1.4741211e-5 344.29515,17.655625 l 8.8278,26.48161 h 44.1371 v 17.6556 h 8.8278 l 8.8278,17.65561 h 35.3112 l 8.8278,17.65561 26.4817,8.827795 v 17.65381 l 17.6556,17.6556 8.8278,8.82781 8.8278,17.6556 17.6537,17.65381 v -17.65381 l 52.9652,-26.48341 -8.8278,-26.48161 17.6556,-26.483405 26.4834,8.82781 17.6556,-26.48341 26.4815,17.6556 -8.8278,44.137215 44.1013,-8.8278 52.9649,-26.481605 26.4835,-17.65561 17.6539,-17.65561 v 8.82781 h 8.8278 -8.8278 v 8.8278 h 8.8278 l -8.8278,8.8278 h 8.8278 v 8.82781 l 8.8278,-8.82781 v 17.655605 h 8.8278 v 8.8278 l 8.8278,8.82601 -8.8278,17.6556 v 17.65561 l -17.6539,17.65561 v 17.65381 h 8.8278 v 17.6556 l 8.8278,8.82781 h 8.8278 v 8.8278 h 17.6539 l 8.8278,-8.8278 v 8.8278 l 8.8278,-8.8278 v -8.82781 h 8.8278 l 8.8278,-8.8278 h 8.8278 v 8.8278 h 8.8278 v 8.82781 h 8.8278 v 8.8278 h 8.8278 v 26.48341 h -8.8278 v 8.8278 h -8.8278 v 26.48161 h -8.8278 z"
     style="clip-rule:evenodd;fill:#000000;fill-rule:nonzero;stroke:none;stroke-width:18.3928px"
     id="path1368" />
</svg>
