<?xml version="1.0" encoding="UTF-8" standalone="no"?>
<svg
   xmlns:dc="http://purl.org/dc/elements/1.1/"
   xmlns:cc="http://creativecommons.org/ns#"
   xmlns:rdf="http://www.w3.org/1999/02/22-rdf-syntax-ns#"
   xmlns:svg="http://www.w3.org/2000/svg"
   xmlns="http://www.w3.org/2000/svg"
   xmlns:sodipodi="http://sodipodi.sourceforge.net/DTD/sodipodi-0.dtd"
   xmlns:inkscape="http://www.inkscape.org/namespaces/inkscape"
   version="1.0"
   width="1024pt"
   height="1024pt"
   viewBox="0 0 1024 1024"
   preserveAspectRatio="xMidYMid meet"
   id="svg2211"
   sodipodi:docname="vector.svg"
   inkscape:version="1.0.2-2 (e86c870879, 2021-01-15)">
  <defs
     id="defs2215" />
  <sodipodi:namedview
     pagecolor="#ffffff"
     bordercolor="#666666"
     borderopacity="1"
     objecttolerance="10"
     gridtolerance="10"
     guidetolerance="10"
     inkscape:pageopacity="0"
     inkscape:pageshadow="2"
     inkscape:window-width="1366"
     inkscape:window-height="697"
     id="namedview2213"
     showgrid="false"
     inkscape:zoom="0.1940918"
     inkscape:cx="1266.7524"
     inkscape:cy="760.26375"
     inkscape:window-x="-8"
     inkscape:window-y="-8"
     inkscape:window-maximized="1"
     inkscape:current-layer="svg2211"
     fit-margin-top="0"
     fit-margin-left="0"
     fit-margin-right="0"
     fit-margin-bottom="0" />
  <metadata
     id="metadata2205">
Created by potrace 1.10, written by Peter Selinger 2001-2011
<rdf:RDF>
  <cc:Work
     rdf:about="">
    <dc:format>image/svg+xml</dc:format>
    <dc:type
       rdf:resource="http://purl.org/dc/dcmitype/StillImage" />
    <dc:title></dc:title>
  </cc:Work>
</rdf:RDF>
</metadata>
  <path
     d="m 550.86725,159.85995 h -4.3207 z m 108.0123,-90.73243 h -4.3206 z m 0,0 v 4.32063 -4.32063 4.32063 -4.32063 h -4.3206 4.3206 v 4.32063 h -4.3206 v -4.32063 z m 34.5642,4.32063 v 8.64127 h 4.3206 -4.3206 4.3206 -4.3206 4.3206 v 4.32064 h 4.3206 v 4.32063 h 4.3207 l 4.3206,4.32063 -4.3206,8.64127 4.3206,4.31976 4.3206,8.64126 h 4.3207 l 4.3206,8.64127 4.3206,4.32064 -4.3206,4.32063 h -8.6403 l -4.3207,4.31976 -4.3206,4.32063 h -8.6413 l -4.3206,4.32063 -8.6413,4.32064 -4.3206,4.32063 4.3206,4.32063 8.6413,-4.32063 h 4.3206 v 4.32063 l 8.6413,12.96102 4.3206,4.32063 4.3207,8.64127 h 30.2435 v -4.32063 l 8.6412,-4.32064 h 4.3207 l 4.3206,4.32064 8.6404,4.32063 h 8.6413 l 8.6403,4.32063 v 17.28254 l 4.3207,4.31976 4.3206,8.64126 8.6413,8.64127 4.3206,8.64039 4.3207,4.32064 4.3206,8.64126 4.3206,4.32064 4.3207,8.64127 4.3206,12.9619 v 21.60229 l -8.6413,4.32064 -4.3206,4.32063 -25.9229,12.96102 v 8.64127 l 4.3207,8.64127 4.3206,4.31975 4.3206,8.64127 v 8.64127 h -4.3206 v 4.32063 l -4.3206,8.64127 v 4.32064 l -4.3207,8.64039 h -8.6412 l -4.3207,4.32063 v 17.28254 l -4.3206,8.64039 12.9619,12.9619 v 8.65887 l 12.9619,12.9619 12.961,4.32063 4.3206,12.96191 v 21.60229 l 4.3206,4.32063 25.923,12.96102 v 4.32064 l -4.3206,4.32063 -4.3207,4.32064 -8.6404,4.32063 -4.3206,8.64039 v 4.32063 l 4.3206,8.64127 v 17.28254 l -8.6413,8.64127 -4.3206,21.60229 -8.6413,4.32063 -4.3206,4.32063 -4.3207,8.64038 4.3207,4.32064 v 8.64127 l -4.3207,8.64126 v 12.96191 h -8.6403 l -8.6412,-8.64127 h -4.3207 l -8.6413,8.64127 h -12.961 l -4.3207,-4.32064 v -17.28253 l -4.3206,-4.32064 -8.6413,-8.64127 -8.6403,-4.32063 -8.6413,4.32063 h -4.3206 l -4.3206,12.96191 -8.6405,4.32063 v 8.64127 l 4.3206,4.32063 v 8.64039 l -8.6412,8.64127 v 21.60229 l -4.3207,8.64127 -8.6412,17.28254 -17.2816,12.96102 4.3206,8.64127 8.6403,12.9619 8.6413,8.64127 4.3206,4.31975 8.6413,4.32064 v 17.28253 l -8.6413,4.32064 -8.6412,17.28166 v 12.9619 l -4.3207,17.28166 v 8.64126 l 4.3207,8.64127 4.3206,8.64127 v 12.96102 l -4.3206,8.64127 -12.961,12.96102 h -21.6023 l -12.9619,4.32064 -17.2826,-8.64127 -4.3206,12.9619 -4.3206,12.96191 4.3206,17.28253 v 21.60229 l 4.3206,25.92294 -4.3206,4.3206 -8.6403,-4.3206 -4.3207,-4.32064 h -17.2825 l -4.3206,4.32064 4.3206,12.9619 v 8.6413 l -4.3206,8.64034 -4.3207,4.3392 -8.6404,4.3206 -4.3207,4.3198 -8.6412,4.3206 -12.961,4.3206 h -8.6413 v -8.6412 h -8.6412 L 511.98415,1024 h -8.6413 l -4.3206,-8.6412 -8.6404,-8.6404 v -8.64134 l 8.6404,-8.6413 v -8.6412 l -8.6404,-8.6413 -4.3206,-8.6404 4.3206,-4.32063 -4.3206,-8.64127 -8.6413,-4.32064 -4.3206,-8.64039 v -8.64126 l -4.3206,-8.64127 -4.3207,-8.64127 h -8.6413 l -4.3206,4.32063 -4.3206,8.64127 -4.3022,4.32064 -4.3207,8.64126 h -8.6412 l -4.3207,4.31976 -4.3206,-4.31976 -4.3206,-4.32063 -8.6404,-4.32063 -8.6412,8.64126 h -8.6405 l -12.9619,12.96103 h -12.9619 l -8.6413,12.9619 -8.6403,8.6404 -8.6413,4.3206 -8.6404,8.6413 v -12.9619 h -8.6413 v -4.31977 l -4.3206,4.31977 h -4.3206 v -4.31977 h -4.3207 v -8.64126 h -4.3206 v -12.96191 l -4.3206,-4.32063 -4.3207,-4.31976 v -4.32063 h -4.3206 v -8.64127 l -4.3206,-4.32063 v -8.64127 h -4.3207 v -4.32063 h -4.3206 v -4.32064 h -4.3206 l -4.3207,-4.32063 h -4.3206 v -4.31976 h -4.3207 v 4.31976 l -4.3206,4.32063 h -12.9619 l -4.3206,4.32064 h -8.64035 v 4.32063 h -4.32064 l -4.32063,4.32063 v -8.64126 h -4.32064 4.32064 -4.32064 v -12.96103 h 4.32064 v -8.64127 h 4.32063 -4.32063 4.32063 v -38.88394 h -4.32063 4.32063 -4.32063 4.32063 -4.32063 4.32063 -4.32063 4.32063 -4.32063 v -8.64039 h 4.32063 -4.32063 4.32063 v -8.64127 h 4.32064 v -12.9619 h -4.32064 4.32064 -4.32064 4.32064 -4.32064 v -4.32064 h 4.32064 -4.32064 v -8.64039 h 4.32064 -4.32064 4.32064 v -38.88394 h 4.32065 -4.32065 4.32065 -4.32065 4.32065 v -21.6023 h 4.3206 -4.3206 4.3206 -4.3206 4.3206 -4.3206 4.3206 -4.3206 4.3206 -4.3206 4.3206 v -73.44814 h 4.3206 -4.3206 4.3206 v -17.28253 h -4.3206 4.3206 V 648.118 h -4.3206 l 4.3206,-4.32063 v -4.32064 h 4.3207 -4.3207 4.3207 v -12.9619 h -4.3207 v -12.96102 h -4.3206 V 600.5919 h 4.3206 -4.3206 4.3206 v -17.28252 h 4.3207 -4.3207 4.3207 -4.3207 4.3207 -4.3207 4.3207 -4.3207 4.3207 v -4.32064 h -4.3207 4.3207 -4.3207 4.3207 -4.3207 4.3207 -4.3207 4.3207 -4.3207 4.3207 l -4.3207,-4.31975 v -8.64127 h -4.3206 v -12.9619 h -4.3206 v -17.28166 h -4.32065 v -8.64127 h -4.32064 v -12.9619 h -4.32063 4.32063 -4.32063 v -4.32063 h -4.32064 v -8.64039 h -4.32063 4.32063 -4.32063 4.32063 -4.32063 v -4.32064 h 4.32063 -4.32063 4.32063 -4.32063 4.32063 -4.32063 4.32063 -4.32063 4.32063 -4.32063 V 479.5992 h -4.30303 4.32063 -4.32063 v -4.32064 h -4.32064 4.32064 -4.32064 v -4.32063 h 4.32064 v -17.28166 h 4.32063 v -25.92292 h 8.64127 -4.32064 4.32064 -4.32064 4.32064 v -8.64127 h -4.32064 4.32064 -4.32064 v 4.32063 h -4.32063 4.32063 -4.32063 v -8.64127 h -4.32063 4.32063 -4.32063 v -4.32063 l 4.32063,-4.32063 h -4.32063 4.32063 -4.32063 4.32063 -4.32063 4.32063 -4.32063 4.32063 -4.32063 4.32063 v -12.96191 h 8.64033 -4.32063 4.32063 -4.32063 4.32063 v -30.24356 h -4.32063 4.32063 -4.32063 4.32063 v -4.32063 h -4.32063 v 4.32063 h -4.32064 v 8.64127 h -8.64033 4.32064 -4.32064 v -4.32063 h -4.32063 v -4.32064 h -4.32064 v -12.96102 h -4.32063 v -4.32063 h -4.32064 v -8.64127 h -4.32063 v -12.9619 h -4.32067 v -4.32064 h 4.32067 -4.32067 4.32067 -4.32067 4.32067 -4.32067 4.32067 -4.32067 v -8.64039 h 4.32067 v -4.32063 h -4.32067 4.32067 -4.32067 4.32067 -4.32067 4.32067 -4.32067 4.32067 -4.32067 4.32067 -4.32067 4.32067 -4.32067 4.32067 -4.32067 v -4.32064 h 4.32067 -4.32067 4.32067 v -4.32063 l -4.32067,-4.32063 h 4.32067 -4.32067 4.32067 v 4.32063 -4.32063 h 4.32063 V 280.8553 h 4.32064 v -8.64127 h 4.32063 v -12.9619 h 4.32064 v 4.32064 -4.32064 4.32064 -4.32064 4.32064 -4.32064 4.32064 -4.32064 4.32064 -4.32064 4.32064 -4.32064 h 4.32063 v -4.32063 h 4.32064 v -43.22482 h -4.32064 4.32064 -4.32064 4.32064 l -4.32064,-4.31976 h 4.32064 -4.32064 4.32064 -4.32064 4.32064 -4.32064 v -12.9619 h -4.32063 4.32063 l -4.32063,-4.32064 h 4.32063 -4.32063 v -12.96102 h -4.32064 4.32064 -4.32064 4.32064 -4.32064 v -17.28253 h -4.32063 v -4.32063 4.32063 -8.64126 h -4.32064 v -4.32064 h -4.32063 v -4.32063 h -4.32067 v -12.96102 h -4.32063 4.32063 -4.32063 v -12.96191 h 4.32063 v -4.32063 h 4.32067 -4.32067 4.32067 -4.32067 4.32067 -4.32067 4.32067 -4.32067 4.32067 -4.32067 4.32067 v -8.64039 h 4.32063 v 4.31976 h -4.32063 8.64033 v 4.32063 h 4.32063 v 8.64127 h 4.32064 v 4.32063 -4.32063 4.32063 h 8.64127 v -4.32063 8.64127 h 8.64127 v 4.32063 -4.32063 8.64039 h 12.96108 v 4.32063 h 4.32061 v 4.32063 -4.32063 4.32063 -4.32063 4.32063 h 8.6413 v -4.32063 h 4.3206 v -4.32063 4.32063 -4.32063 h -4.3206 v -8.64039 h -4.3206 l -4.3207,-4.32064 h -4.32061 v -4.32063 h -4.32064 v -4.32064 4.32064 -4.32064 h -4.32063 l 4.32063,-4.32063 h -4.32063 4.32063 v -4.32063 h 4.32064 v -8.64039 h 4.32061 -4.32061 v 4.32063 -4.32063 4.32063 -4.32063 4.32063 -4.32063 4.32063 h 4.32061 l -4.32061,4.31976 h 4.32061 -4.32061 4.32061 -4.32061 4.32061 -4.32061 4.32061 v 4.32063 -4.32063 4.32063 -4.32063 4.32063 -4.32063 4.32063 h 8.6404 -4.3207 4.3207 v -4.32063 h -4.3207 V 90.73245 h -4.3206 v 4.32063 -4.32063 4.32063 h -12.96098 4.32063 -17.28253 4.32063 -4.32063 l -4.32064,-4.32063 v 4.32063 -4.32063 4.32063 -4.32063 4.32063 -4.32063 h 12.9619 -4.32063 4.32063 -4.32063 4.32063 v 4.32063 h 17.28162 v -4.32063 h 12.9619 v 4.32063 h 8.6413 v 12.96103 h 4.3206 -4.3206 4.3206 -4.3206 4.3206 v 38.88394 h 4.3206 -4.3206 4.3206 -4.3206 4.3206 v 12.96102 h 4.3207 v 8.64126 l 4.3206,4.32064 v 4.32063 h 4.3206 v 8.64039 -4.32063 l 4.3207,4.32063 v 4.32063 h 4.3206 v 4.32064 -4.32064 4.32064 -4.32064 4.32064 -4.32064 4.32064 h 4.3206 v -4.32064 h 4.3207 v 8.64127 h 4.3206 v 4.32064 -4.32064 4.32064 h 8.6413 l 4.3206,4.32063 h 12.9611 -4.3207 4.3207 l 4.3206,-4.32063 v 4.32063 -4.32063 4.32063 -4.32063 h 4.3206 v -4.32064 h 8.6413 -4.3206 4.3206 -4.3206 4.3206 -4.3206 v -4.32063 h 4.3206 l 4.3207,-4.32064 h 4.3206 v -4.32063 l 4.3206,-4.32063 4.3207,-4.31976 h 4.3206 v -4.32063 h 4.3206 v -4.32064 4.32064 -4.32064 h 17.2816 v 4.32064 h 8.6413 v 4.32063 h 17.2817 v 4.31976 h 8.6413 v -4.31976 4.31976 -4.31976 h 8.6227 v -4.32063 4.32063 -4.32063 h 8.6413 v -4.32064 4.32064 -4.32064 h 8.6404 v -4.32063 h 8.6413 v -4.32063 h 4.3206 v -4.32063 h 8.6413 v -4.32063 4.32063 -4.32063 4.32063 -4.32063 h 17.2816 v 4.32063 h 8.6413 v 4.32063 h 4.3206 v 12.9619 -4.32064 4.32064 h -4.3206 v -4.32064 h -8.6413 4.3206 -4.3206 v 8.64127 h -4.3206 v -4.32063 4.32063 -4.32063 4.32063 -4.32063 4.32063 -4.32063 8.64039 h -4.3207 4.3207 -4.3207 4.3207 v 4.32063 -4.32063 4.32063 -4.32063 4.32063 -4.32063 4.32063 -4.32063 4.32063 -4.32063 h 17.2825 v -8.64039 4.32063 -4.32063 h 4.3206 -4.3206 12.9611 v -4.32064 h 4.3206 v -4.32063 h 12.9619 v 4.32063 -4.32063 4.32063 -4.32063 l 4.3206,4.32063 v -4.32063 4.32063 -4.32063 4.32063 -4.32063 4.32063 -4.32063 4.32063 -4.32063 h 4.3207 v -4.32063 h 4.3206 v -4.32063 h 8.6403 v -4.32063 4.32063 -4.32063 h 4.3207 v 4.32063 h -4.3207 v 4.32063 -4.32063 h -4.3206 v 4.32063 -4.32063 l -4.3206,4.32063 v 4.32063 h -4.3207 v 4.32063 h -4.3206 4.3206 v 4.32064 h -4.3206 4.3206 v 12.96102 h -4.3206 4.3206 -4.3206 4.3206 -4.3206 4.3206 -4.3206 v 30.24444 l 4.3206,4.32063 h 4.3207 v 4.31976 h 4.3206 -4.3206 4.3206 v 8.64127 h 4.3206 v -4.32064 h 4.3207 -4.3207 4.3207 v -4.32063 h 4.3206 v -21.60229 h -4.3206 v -47.52521 h 4.3206 v -21.60229 h 4.3206 -4.3206 4.3206 -4.3206 4.3206 V 99.37196 h -4.3206 v -4.32064 l -4.3206,-4.31975 v -4.32064 h -4.3207 v 8.64039 -4.31975 l -4.3206,4.31975 h 4.3206 v -4.31975 4.31975 h -4.3206 V 64.807764 h 4.3206 -4.3206 4.3206 v -8.640389 h 4.3207 -4.3207 4.3207 v -8.641268 h 4.3206 v -8.641269 h 4.3206 V 30.24357 h 4.3207 v -8.641269 h 4.3206 v -8.640388 h 4.3206 V 4.3206437 h 4.3207 -4.3207 4.3207 -4.3207 4.3207 -4.3207 4.3207 V 9.7412111e-6 25.922936 h 4.3206 v 8.641268 h 4.3207 v 4.320634 l 4.3206,4.320635 v 4.320634 h 4.3206 v 4.320634 h 12.9619 v 4.320634 -4.320634 4.320634 -4.320634 4.320634 h 12.9619 v 4.320635 h 4.3207 v 4.319754 h 4.3206 V 69.1284 64.807764 69.1284 h 12.9611 -4.3207 v 8.64127 h -4.3206 4.3206 -4.3206 v 12.9619 h 4.3206 v 8.64039 h 4.3207 -4.3207 4.3207 v 8.64127 l 4.3206,4.32063 v 4.32063 h 8.6227 l 4.3207,4.32064 h -4.3207 12.9619 -4.3206 4.3206 v -8.64127 h 4.3207 -4.3207 4.3207 v -4.32063 h -4.3207 V 95.05132 h -4.3206 v -8.64039 h -4.3206 V 82.0903 h -4.3207 l -4.3206,4.32063 V 82.0903 h 4.3206 l 4.3207,-4.32063 h 4.3206 v -4.32064 4.32064 -4.32064 h 8.6413 V 69.1284 73.44903 69.1284 73.44903 69.1284 h 12.9611 v 4.32063 -4.32063 4.32063 z m -190.1017,457.98634 -8.6413,-4.32063 h -25.923 l -17.2816,-8.64127 -8.6237,-4.31976 h -4.3206 l -8.6404,-4.32063 -8.6413,-8.64127 -12.961,-12.9619 -8.6412,-4.32064 -4.3207,-12.96102 v -8.64127 l -4.3206,-8.64127 v -12.96102 l -8.6405,-8.64127 h -4.3206 v -21.60317 h -8.6413 l -4.3206,4.32063 h -4.3206 l -4.3207,4.32064 v 12.9619 l 8.6413,8.64127 v 8.64039 l -4.3206,8.64127 v 12.9619 l 4.3206,4.31975 4.3206,4.32064 v 17.28254 l 4.3207,8.64126 4.3206,8.64127 h 4.3206 l 4.3207,4.31976 4.3206,8.64127 4.3206,8.64126 4.3207,4.32064 v 4.32063 l 4.3206,4.31976 4.3207,4.32063 v 8.64127 l 4.3206,8.64127 8.6413,4.31975 h 4.3206 l 4.3206,4.32064 8.6405,4.32063 h 4.3206 l 8.6413,-8.64127 8.6403,-4.31975 4.3206,-4.32064 8.6413,-4.32063 h 12.9611 v 21.60229 l 4.3206,4.32063 h 4.3207 l 8.6412,17.28253 v 4.32063 l -4.3206,4.32064 h -4.3206 l -4.3207,-4.32064 -4.3206,4.32064 4.3206,4.32063 v 8.64039 l 4.3207,4.32064 v 4.32063 h -4.3207 l -4.3206,8.64127 h -12.9619 v 17.28165 h 4.3206 v 4.32064 h -8.6412 l -8.6405,-4.32064 h -4.3206 l -4.3207,-4.32063 h -4.3206 l -4.3206,4.32063 v 4.32064 l -4.3207,4.32063 h -4.3206 l -4.3206,-4.32063 -8.6413,4.32063 h -4.3206 l -4.3207,8.64127 -4.3206,8.64127 -4.3206,8.64039 -4.3207,8.64127 -4.3206,4.32063 -8.6403,4.32064 h -4.3207 v 17.28165 l 4.3207,4.32064 h 4.3206 v 4.32063 l -8.6413,8.64127 v 4.31975 l 8.6413,8.64127 v 4.32064 l -4.3206,4.32063 -8.6413,4.32063 -4.3206,8.64127 -4.3207,4.32064 h -17.2817 l -8.6413,-4.32064 v -4.32063 l -4.3206,-8.64127 4.3206,-4.32063 8.6413,-17.28166 v -17.28254 l -4.3206,-4.32063 h -8.6413 l -4.3206,-4.32064 -4.3207,8.64127 v 4.32064 l -4.3206,4.32063 4.3206,8.64127 -4.3206,4.31975 -8.6413,-4.31975 h -8.6403 v 4.31975 l -4.3206,8.64127 -8.6413,-4.32063 -4.3206,-4.32064 -4.3207,12.96191 4.3207,8.64126 4.3206,8.64127 8.6413,8.64127 8.6403,4.31976 v 8.64126 l 4.3206,4.32064 -4.3206,4.32063 v 17.28166 l 4.3206,8.64127 8.6413,8.64127 v 34.56419 h 4.3206 l 8.6413,4.32064 8.6405,-4.32064 h 17.2825 l 4.3206,-4.32063 4.3207,-8.64127 h 8.6403 l 4.3206,-4.31976 4.3207,-8.64126 4.3206,-8.64127 8.6413,-8.64127 8.6404,-17.28166 4.3206,-4.32063 8.6413,-4.32064 h 12.9619 l 8.6403,-4.32063 4.3207,-4.32064 8.6412,-12.96102 v -8.64127 l 4.3207,-12.9619 8.6404,-8.64127 v -12.96102 l 4.3207,-8.64127 4.3206,-4.32063 h 8.6413 l 4.3206,-4.32064 8.6413,-4.32063 h 4.3206 l 4.3206,-4.32064 h 4.3207 l 8.6403,8.64127 v 21.60229 l -4.3206,8.64127 -4.3207,8.64127 v 8.64127 l -4.3206,8.64127 v 4.32063 l -8.6403,4.31976 -8.6413,8.64126 v 12.96191 l 4.3206,4.32063 4.3207,4.31976 h 4.3206 l 12.9619,-25.92293 4.3206,-8.64039 4.3207,-8.64127 4.3206,-4.32063 v -4.32064 l -8.6413,4.32064 -4.3206,17.28166 -17.2825,12.9619 17.2825,-38.88307 12.9619,-4.32063 v 8.64126 -8.64126 l 4.3206,-8.64127 v -8.64039 l 4.3207,-12.9619 4.3206,-8.64127 4.3206,-8.64127 4.3207,-4.32063 v -8.64039 l 4.3206,-4.32064 v -4.32063 l 4.3206,-8.64127 v -12.96102 l -4.3206,-4.32064 v -12.9619 l 4.3206,-8.64127 v -8.64127 l -12.9619,-12.96102 -4.3206,-8.64127 -8.6413,-4.32063 h -8.6404 l -4.3206,-4.32064 -4.3207,-8.64038 v -12.9619 l -4.3206,-8.64126 v -21.6023 l -4.3206,-8.64126 h -4.3207 l -4.3206,-4.32064 v -12.9619 z"
     style="clip-rule:evenodd;fill:#000000;fill-rule:nonzero;stroke:none;stroke-width:9.00206px"
     id="path1272" />
</svg>
