<?xml version="1.0" encoding="UTF-8" standalone="no"?>
<svg
   xmlns:dc="http://purl.org/dc/elements/1.1/"
   xmlns:cc="http://creativecommons.org/ns#"
   xmlns:rdf="http://www.w3.org/1999/02/22-rdf-syntax-ns#"
   xmlns:svg="http://www.w3.org/2000/svg"
   xmlns="http://www.w3.org/2000/svg"
   xmlns:sodipodi="http://sodipodi.sourceforge.net/DTD/sodipodi-0.dtd"
   xmlns:inkscape="http://www.inkscape.org/namespaces/inkscape"
   version="1.0"
   width="1024pt"
   height="1024pt"
   viewBox="0 0 1024 1024"
   preserveAspectRatio="xMidYMid meet"
   id="svg2211"
   sodipodi:docname="vector.svg"
   inkscape:version="1.0.2-2 (e86c870879, 2021-01-15)">
  <defs
     id="defs2215" />
  <sodipodi:namedview
     pagecolor="#ffffff"
     bordercolor="#666666"
     borderopacity="1"
     objecttolerance="10"
     gridtolerance="10"
     guidetolerance="10"
     inkscape:pageopacity="0"
     inkscape:pageshadow="2"
     inkscape:window-width="1366"
     inkscape:window-height="697"
     id="namedview2213"
     showgrid="false"
     inkscape:zoom="0.1940918"
     inkscape:cx="1266.7524"
     inkscape:cy="760.26375"
     inkscape:window-x="-8"
     inkscape:window-y="-8"
     inkscape:window-maximized="1"
     inkscape:current-layer="svg2211"
     fit-margin-top="0"
     fit-margin-left="0"
     fit-margin-right="0"
     fit-margin-bottom="0" />
  <metadata
     id="metadata2205">
Created by potrace 1.10, written by Peter Selinger 2001-2011
<rdf:RDF>
  <cc:Work
     rdf:about="">
    <dc:format>image/svg+xml</dc:format>
    <dc:type
       rdf:resource="http://purl.org/dc/dcmitype/StillImage" />
    <dc:title></dc:title>
  </cc:Work>
</rdf:RDF>
</metadata>
  <path
     d="m 376.72801,995.86348 v 2.165 -2.165 2.165 -2.165 2.165 z m 6.49476,-4.3298 h 4.32983 -2.16492 v 2.1649 -2.1649 z m -2.16492,-19.483 h 2.16492 v 2.1649 z m 36.80187,-23.8132 h 2.16492 l -2.16492,2.1649 z m -4.3294,2.1649 v 2.1645 h -2.16492 v -2.1645 z m 8.65924,-4.3298 v 6.4943 h -2.16492 v -2.1645 2.1645 -2.1645 h 2.16492 -2.16492 2.16492 v -2.1649 l -2.16492,2.1649 v -4.3298 h 2.16492 -2.16492 z m -10.82416,2.1649 h 2.16492 -2.16492 2.16492 z m 8.65924,-8.6597 h 4.32984 z m 145.02894,-71.4401 h 2.1649 z m -28.14356,10.8241 v 2.1649 z m -47.62691,19.4834 h 2.16492 v 4.3294 h 2.16492 v 2.165 h -2.16492 v -2.165 h -2.16492 v 2.165 h -2.16492 v -4.3299 h 2.16492 -2.16492 2.16492 -2.16492 2.16492 z m -75.76117,32.4738 v 2.1649 -2.1649 2.1649 l -2.16492,-2.1649 h 2.16492 -2.16492 z m 75.77043,-36.8023 v 2.1649 z m -62.78179,28.1435 v 2.1649 -2.1649 2.1649 z m 112.57274,-56.287 h 2.16448 v 2.1649 h -2.16448 z m -127.72762,62.7814 h 2.16492 -2.16492 v 2.1649 -2.1649 2.1649 -2.1649 2.1649 z m 15.15444,-8.6593 v 2.1649 -2.1649 2.1649 -2.1649 2.1649 -2.1649 2.1649 -2.1649 2.1649 z m 0,0 v 2.1649 z m -2.16492,0 h 2.16492 z m 2.16492,-4.3299 h 2.16492 v 2.165 h -2.16492 z m 179.67514,-88.759 v 2.1649 z m -177.50934,86.595 v 2.1645 h -2.16492 2.16492 -2.16492 v -2.1645 z m -4.32984,0 h 2.16492 z m 64.94583,-32.4738 h 2.16492 v 4.3294 h 4.32984 -2.16492 v 4.3299 -2.1649 2.1649 h 2.16492 v 2.1649 h 4.3294 -2.16492 2.16492 -2.16492 v 2.1649 -2.1649 h -2.16448 v -2.1649 2.1649 -2.1649 h -4.32984 v 2.1649 -2.1649 h -2.16492 v -2.1649 h 2.16492 -2.16492 2.16492 v -2.165 h -2.16492 z m -80.10071,36.8019 v 2.1649 z m 19.48428,-10.8241 h 4.32984 v 2.1649 h -2.16492 v 2.1649 h 2.16492 -2.16492 v -2.1649 2.1649 -2.1649 h -2.16492 z m -19.48428,10.8241 h -2.16492 z m 25.97772,-15.154 v 2.1649 -2.1649 2.1649 z m 2.16492,-2.1649 h 2.16492 v 2.1649 h -2.16492 z m -2.16492,-2.1645 v 2.1645 -2.1645 2.1645 z m -8.65968,0 h 2.16492 v 2.1645 h 2.16492 -2.16492 2.16492 -2.16492 2.16492 v 6.4948 -2.165 h -2.16492 v -2.1649 h -2.16492 v -2.1649 h 2.16492 -2.16492 z m 201.31722,-103.9232 h 2.1645 z m -194.83172,90.9253 v 2.1649 l 2.16492,-2.1649 h 4.32939 v 2.1649 h 2.16492 v 2.165 -2.165 2.165 h 2.16492 -2.16492 2.16492 v -2.165 h -2.16492 2.16492 v 8.6592 h -2.16492 2.16492 -2.16492 2.16492 -2.16492 v 2.165 -2.165 2.165 -2.165 h -2.16492 v 2.165 -2.165 2.165 h -2.16447 v 2.1649 -2.1649 2.1649 -2.1649 h -6.49476 v 2.1649 h -2.16492 v -2.1649 h 2.16492 -2.16492 2.16492 -2.16492 2.16492 -2.16492 2.16492 -2.16492 v -2.165 h 4.32984 v -2.1649 2.1649 h -2.16492 v -2.1649 2.1649 -4.3298 2.1649 -2.1649 2.1649 h 2.16492 v -2.1649 h -2.16492 v -2.1644 2.1644 -2.1644 2.1644 -2.1644 2.1644 -2.1644 2.1644 -2.1644 h -2.16492 2.16492 v -2.165 2.165 h 4.32984 v -2.165 2.165 h 2.16492 v 2.1644 -2.1644 h 2.16447 v 2.1644 h 2.16492 v 2.1649 -2.1649 h -2.16492 2.16492 -2.16492 2.16492 v -2.1644 h -2.16492 v 2.1644 -2.1644 h -2.16447 v -2.165 h -6.49476 v -2.1649 z m -19.4834,-28.1439 h 2.16492 v 2.1649 -2.1649 h -2.16492 v 2.1649 h 2.16492 -2.16492 z m 0,-2.165 h 2.16492 v 2.165 -2.165 2.165 h 2.16492 v 2.1649 h -2.16492 2.16492 -2.16492 2.16492 -2.16492 2.16492 v -2.1649 h -2.16492 v 2.1649 -2.1649 h -2.16492 z m 272.74632,-216.4919 h -2.1649 z M 649.45548,6.4775447 v 4.3298403 l 4.3298,2.16492 h 6.4943 l 2.1649,6.49476 h 4.3298 l 4.3299,-2.16492 4.3298,-4.32984 2.1649,6.49476 -4.3298,6.49476 2.1649,4.32939 v 4.32984 l 2.1649,2.16492 h 8.6593 l 4.3299,2.16492 2.1649,4.3294 4.3293,2.16492 h 2.165 l 2.1649,2.16492 2.1649,6.49476 -2.1649,4.3294 -2.1649,2.16492 -2.165,4.32984 -2.1649,4.32984 -2.1644,4.32984 2.1644,4.3294 2.1649,2.16492 6.4948,2.16492 2.1649,4.32984 v 12.98907 l 6.4948,-4.32983 h 6.4943 l 4.3299,-2.16492 2.1649,-4.3294 2.1649,-2.16492 2.1649,-2.16492 h 6.4943 l 4.3299,2.16492 h 4.3294 l 4.3298,-2.16492 v 2.16492 h -2.1649 v 8.65924 h 2.1649 v 4.32983 h -4.3298 v 4.329835 h -2.1645 v 6.49476 h -2.1649 2.1649 -2.1649 v 23.8225 h -2.165 v 8.65924 h -2.1649 v 10.82416 h 2.1649 v 10.82459 h 2.165 v 6.49476 h 2.1649 v 2.16492 l -2.1649,2.16448 h 2.1649 -2.1649 v 15.154 h 2.1649 v 8.6685 h 2.1645 v 6.49476 h 4.3298 v 6.49476 h 2.1649 v 4.32984 h -2.1649 v 4.32939 h -2.1649 v 4.32984 h -2.1649 v 15.154 h 2.1649 v 2.16492 h -2.1649 2.1649 v 6.49431 l 2.1649,2.16492 h -2.1649 2.1649 v 4.32984 h 2.1649 v 15.154 h -2.1649 v 8.65968 h -2.1649 v 2.16492 l 2.1649,2.16492 v 4.3294 h -2.1649 2.1649 l -2.1649,2.16492 v 10.8246 h -2.1649 v 21.63994 h 2.1649 v 4.32984 h -2.1649 v 8.65923 h -2.1645 v 4.32984 h -2.1649 v 10.82416 h -2.165 v 2.16492 h -2.1649 v 4.32984 h -2.1649 v 25.98653 h -2.1649 v 8.65968 h -2.1645 v 4.3294 h 2.1645 v 2.16492 h -2.1645 v 2.16492 h -2.1649 v 4.32984 h -2.1649 v 6.49432 h -2.1649 v 8.65968 h -2.165 v 4.32984 h -2.1649 v 2.16492 h -2.1649 v 6.49432 h -2.1645 v 2.16492 h 2.1645 -2.1645 v 2.16492 h 2.1645 v 6.49476 h 2.1649 v 6.49431 h -2.1649 v 4.32984 h -2.1645 v 2.16492 h 2.1645 -2.1645 2.1645 -4.3294 v 15.15402 h -2.1649 v 2.1649 h 2.1649 v 4.3298 h -2.1649 l 2.1649,2.165 h -2.1649 v 4.3386 h 2.1649 v 2.1649 h -2.1649 v 8.6592 h 2.1649 v 2.165 h -6.4948 v -2.165 2.165 h -2.1649 v 2.1649 h 2.1649 v 4.3294 h -2.1649 v 2.1649 h 4.3298 v 2.165 h -2.1649 v 2.1649 h -2.1649 v 4.3298 h -2.1649 v 6.4948 h 2.1649 v 2.1649 -2.1649 h -2.1649 v -2.1649 4.3298 h 2.1649 v 2.1644 h 2.1649 v 4.3299 h -2.1649 v 2.1649 h 2.1649 v 10.8242 h -2.1649 v 2.1649 h -2.1649 v 4.3298 h -2.1649 v 2.165 h -2.165 v 2.1649 h -2.1649 2.1649 v 2.1649 h -2.1649 v 2.1649 h -2.1644 v 2.1649 h -2.1649 v 2.1645 h -2.165 v 10.8246 -2.1649 h 2.165 v 2.1649 h -2.165 2.165 v 10.8242 h -2.165 v 2.1649 h -2.1649 v 10.8241 h -2.1649 v 6.4948 h 2.1649 v 4.3298 h 2.1649 -2.1649 v 2.165 h 2.1649 v 4.3294 h 2.165 v 2.1649 h -2.165 v 4.3298 h -2.1649 v 2.165 h -2.1649 v 2.1649 -2.1649 4.3298 -2.1649 2.1649 -2.1649 2.1649 h 2.1649 v 2.1644 h -2.1649 v -2.1644 2.1644 l 2.1649,2.165 h -2.1649 2.1649 -2.1649 2.1649 -2.1649 2.1649 -2.1649 2.1649 v 2.1649 h 2.1649 -2.1649 v -2.1649 h -4.3298 v 2.1649 -2.1649 2.1649 -2.1649 2.1649 -2.1649 2.1649 -2.1649 4.3298 -2.1649 2.1649 h 2.1649 v 4.3298 -2.1649 2.1649 h 2.1649 -2.1649 v 2.165 h 4.3298 v -6.4948 h 2.165 v 2.1649 h -2.165 v 2.1649 h 2.165 v 4.3299 -2.1649 2.1649 h -2.165 2.165 -2.165 v 2.1649 h 2.165 -2.165 2.165 v 2.1649 l -2.165,2.1645 v -2.1645 6.4944 h 2.165 v 2.1649 h -4.3299 v 8.6592 h -2.1649 v 4.3298 h -2.1649 v 2.165 h -2.1649 v -2.165 2.165 -2.165 2.165 -2.165 h -2.1646 v -4.3298 h 2.1646 v -2.1644 2.1644 -2.1644 2.1644 h -2.1646 v 2.1649 h -2.1649 v 2.1649 h -2.1649 v 2.165 h 2.1649 -2.1649 4.3298 v 2.1649 -2.1649 2.1649 -2.1649 4.3298 h 2.1646 -2.1646 2.1646 -2.1646 v 2.1645 h 2.1646 v 2.1649 h -2.1646 v 4.3299 h 2.1646 v 15.1539 -2.1644 2.1644 -2.1644 2.1644 -2.1644 l -2.1646,2.1644 h -2.1649 v 4.3299 -2.1649 2.1649 h -2.1649 v 4.3298 h -4.3298 v 2.1649 h 2.1649 v 2.165 h -2.1649 v 4.3294 h -2.165 v 2.1649 h -2.1649 v 2.1649 l -2.1649,2.1649 v 6.4948 h -2.1649 v 2.1649 h 2.1649 -2.1649 2.1649 v 2.1649 h -2.1649 2.1649 v 2.1645 h -4.3298 v 2.1649 h -2.1645 v 2.1649 -2.1649 2.1649 -2.1649 2.1649 -2.1649 2.1649 -2.1649 2.1649 -2.1649 2.1649 -2.1649 2.1649 -2.1649 2.1649 h -2.1649 2.1649 v 4.3299 h -2.1649 2.1649 -2.1649 2.1649 -2.1649 2.1649 -2.1649 v 2.1649 h -2.1649 2.1649 v 2.1649 h -2.1649 v 2.1645 h -4.3299 v 6.4948 h -2.1649 v 6.4947 h -2.1649 v 4.3387 h -2.1645 2.1645 -2.1645 v 2.1649 h -2.1649 v 2.1649 l -2.165,2.1645 h 2.165 -2.165 2.165 -2.165 v 2.1649 -2.1649 2.1649 -2.1649 2.1649 h -2.1649 v -2.1649 2.1649 -2.1649 2.1649 -2.1649 4.3298 h 2.1649 -4.3298 v 2.1649 h -2.1649 2.1649 -2.1649 v 4.3299 h -2.1649 v 2.1649 h -2.1645 v 4.3298 h 2.1645 -2.1645 v 4.3295 h -2.1649 2.1649 v 4.3298 -2.1649 2.1649 h -2.1649 2.1649 -2.1649 v 2.1649 h -2.1649 v 2.165 h -2.1649 2.1649 -2.1649 2.1649 -2.1649 v 6.4942 h -2.165 v 8.6597 -2.1649 2.1649 h -2.1649 v 2.1649 h -2.1649 v -2.1649 h 2.1649 v -2.1649 2.1649 -2.1649 l -2.1649,2.1649 h -2.1649 v -2.1649 2.1649 -2.1649 2.1649 h -2.1649 2.1649 -2.1649 v 2.1649 h -2.165 v 4.3299 -2.1649 2.1649 h -2.1645 v 4.3298 h -2.1649 v 2.1645 h 2.1649 v 2.1649 h -2.1649 2.1649 -2.1649 2.1649 -2.1649 v 2.165 h -2.1649 v -2.165 h -2.1649 v -2.1649 h -4.3299 v 2.1649 -2.1649 2.1649 -2.1649 4.3299 h -2.1649 v -2.165 l -2.1556,2.165 h 2.1649 v 4.3298 h -2.1649 v -2.1649 2.1649 h -2.1649 2.1649 -2.1649 v 2.1649 -2.1649 2.1649 -2.1649 h -2.165 v 2.1649 h -2.1649 2.1649 v 2.1645 h -2.1649 2.1649 -2.1649 2.1649 -2.1649 v 2.1649 -2.1649 4.3298 h -2.1649 v 2.1649 l -2.1649,2.165 h -2.1645 v 2.1649 h -4.3299 l -2.1649,2.1649 v 2.1645 h -2.1649 2.1649 -2.1649 2.1649 -2.1649 v 2.1649 -2.1649 2.1649 h -2.1649 v 4.3299 h -2.1649 2.1649 v 2.1649 h -2.1649 2.1649 -2.1649 2.1649 v 2.1649 h -2.1649 v -2.1649 4.3298 h -2.16449 v 2.1649 -2.1649 2.1649 -2.1649 2.1649 -2.1649 2.1649 -2.1649 2.1649 h -4.32984 v 2.165 -2.165 h -2.16492 v 4.3299 h -2.16492 2.16492 -2.16492 2.16492 -2.16492 2.16492 -2.16492 2.16492 -2.16492 2.16492 -2.16492 2.16492 -2.16492 2.16492 -2.16492 2.16492 -4.32984 v -2.1649 h -2.16492 2.16492 -2.16492 v -2.165 h 2.16492 -2.16492 v -2.1649 h 2.16492 -2.16492 2.16492 v -2.1649 h 4.32984 v -2.1649 h -2.16492 v 2.1649 -2.1649 2.1649 -2.1649 2.1649 -2.1649 h -2.16492 2.16492 -6.49435 v -2.1649 h -4.32982 v -12.9891 4.3298 h -2.16492 2.16492 v 4.3294 h -2.16492 v 2.1649 h -4.32984 2.16492 -2.16492 v 2.165 h -2.16492 v 6.4947 h 2.16492 -2.16492 2.16492 -2.16492 2.16492 v -4.3298 2.1649 -2.1649 2.1649 h 2.16492 v 2.1649 -2.1649 2.1649 h -2.16492 2.16492 -2.16492 v 2.1649 h 2.16492 -2.16492 2.16492 -2.16492 2.16492 -2.16492 2.16492 -2.16492 2.16492 -2.16492 v 2.165 -2.165 2.165 -2.165 6.4943 h -2.16492 2.16492 l -2.16492,-2.1644 h 2.16492 -2.16492 v 2.1644 -2.1644 h -4.32984 v -2.1649 h 2.16492 -2.16492 2.16492 -2.16492 v -2.165 h -2.16492 v -2.1649 2.1649 -2.1649 h -4.3294 v -4.3298 h -2.16491 2.16491 -2.16491 2.16491 -2.16491 2.16491 l -2.16491,-2.1649 v -4.3299 2.1649 h -4.32984 v 2.165 h -2.16492 4.32984 v 2.1649 h -2.16492 v 2.1649 h -2.16492 v 2.1649 -2.1649 h 2.16492 v 2.1649 h -4.3294 v 2.1649 h -4.32984 v 2.165 h 2.16492 v 2.1649 -2.1649 h -2.16492 v 2.1649 h -2.16492 v -2.1649 2.1649 h -2.16492 v -2.1649 2.1649 h -2.16492 v -2.1649 2.1649 h -2.16492 v -6.4948 2.1649 -2.1649 h -2.16492 v 2.1649 -2.1649 2.1649 -2.1649 2.1649 -2.1649 2.1649 -2.1649 2.1649 -2.1649 2.1649 l -2.16492,-2.1649 v 2.1649 -2.1649 2.1649 h -4.32984 v -2.1649 2.1649 -2.1649 2.1649 h -2.16448 v -2.1649 h -2.16492 v 2.1649 h 2.16492 v 2.165 -2.165 4.3299 h -2.16492 v 2.1644 h -2.16492 v -2.1644 h -2.16492 2.16492 v 2.1644 -2.1644 2.1644 h 4.32984 v 4.3299 -2.165 2.165 -2.165 2.165 -2.165 4.3299 h -2.16492 2.16492 -2.16492 2.16492 -2.16492 v -2.1649 2.1649 h -2.16492 2.16492 v 2.1649 l -2.16492,-2.1649 v -2.1649 2.1649 h -2.16492 v -4.3299 h -2.16492 v -4.3293 2.1644 -2.1644 h -2.16492 v -6.4948 h -2.16447 v -2.1649 h 2.16447 v -2.1649 h -2.16447 v -4.3299 h -2.15611 v 2.165 -2.165 h -2.16492 v -2.1649 2.1649 h 2.16492 v -6.4943 2.1645 -2.1645 h -2.16492 v -2.1649 2.1649 -2.1649 2.1649 h 2.16492 v -2.1649 h -2.16492 v -4.3299 h -2.16447 2.16447 v -2.1649 h 2.16492 -2.16492 2.16492 v -4.3298 h 2.16492 v 2.1649 -2.1649 2.1649 -2.1649 h -4.32984 v -2.1645 2.1645 -2.1645 2.1645 h -4.32939 v 2.1649 -2.1649 h -2.16492 v -4.3294 h 2.16492 -2.16492 l 2.16492,-2.1649 v -2.1649 h -2.16492 v -2.165 2.165 -2.165 h -4.32984 v 2.165 -2.165 2.165 -2.165 h -2.16492 v -2.1649 2.1649 h 2.16492 v 2.165 h -2.16492 2.16492 -2.16492 2.16492 -2.16492 2.16492 v 2.1649 -2.1649 2.1649 h 2.16492 -2.16492 v 4.3298 h -2.16492 2.16492 v 2.1645 h -2.16492 2.16492 -2.16492 2.16492 -2.16492 2.16492 -2.16492 v 4.3298 h -2.16492 v 2.1649 -2.1649 2.1649 h -2.16492 v 2.165 h 2.16492 -2.16492 2.16492 -2.16492 v 2.1649 -2.1649 l -2.16492,2.1649 h 2.16492 -2.16492 v 2.1649 h -2.16492 2.16492 -2.16492 v 6.4943 h -2.16448 2.16448 -2.16448 2.16448 -2.16448 2.16448 -2.16448 2.16448 -2.16448 v 6.4948 -2.1649 2.1649 h -2.16492 v 8.6597 -2.1649 h -2.16492 v 2.1649 h -2.16492 v -2.1649 2.1649 -2.1649 2.1649 -2.1649 h -2.16492 v 2.1649 -2.1649 2.1649 -2.1649 2.1649 h -2.16492 v -2.1649 h 2.16492 -2.16492 2.16492 -2.16492 2.16492 -2.16492 2.16492 -2.16492 v 2.1649 -2.1649 2.1649 -4.3299 h 4.32984 v -2.1649 l -2.16492,2.1649 h -2.16492 v 2.165 h -2.16492 2.16492 v 2.1649 h -2.16492 v 2.1644 -2.1644 2.1644 -2.1644 2.1644 -2.1644 2.1644 -2.1644 2.1644 -10.8241 h 2.16492 -2.16492 2.16492 -2.16492 2.16492 v -2.1649 h -2.16492 v -6.4948 h 2.16492 v -4.3294 h 2.16492 v -2.1649 h 2.16492 -2.16492 2.16492 v -2.1649 2.1649 -2.1649 l -2.16492,2.1649 v -4.3299 h 2.16492 v -8.6592 h -4.32984 v 6.4943 h 2.16492 v 2.1649 h -2.16492 v 4.3299 -6.4948 h -8.65924 v 2.1649 h -4.32984 v 2.165 h 2.16492 -2.16492 2.16492 -2.16492 v 2.1649 h -2.16492 v -2.1649 h -2.16492 2.16492 v -4.3299 2.1649 -2.1649 2.1649 -2.1649 2.1649 -2.1649 2.1649 -2.1649 h -2.16492 v 4.3299 -2.165 2.165 -2.165 2.165 -2.165 h -2.16492 v -2.1649 h -2.16492 v 4.3299 -2.165 2.165 h -2.16492 2.16492 v 2.1649 h 2.16492 v 6.4943 l 2.16492,2.1649 v 4.3299 h -2.16492 v 2.1649 -2.1649 2.1649 h -2.16492 v 2.1649 h 2.16492 v -2.1649 h 6.49476 v 2.1649 h -2.16492 v 2.1649 h -2.16492 v -2.1649 2.1649 -2.1649 h -4.32984 v 4.3299 h -2.16492 v 2.1649 h 2.16492 v -2.1649 h 2.16492 v -2.165 10.8242 h -2.16492 v 8.6596 h -2.16492 v 4.3295 h 2.16492 v 4.3298 h -2.16492 2.16492 -2.16492 v -2.1649 h -4.3294 v 6.4948 h -4.32984 v 2.1649 h 2.16492 -2.16492 2.16492 v -2.1649 h 2.16492 v -2.165 h 2.16492 -2.16492 2.16492 v 2.165 h 2.16448 v 2.1649 h -2.16448 v 2.1649 -2.1649 2.1649 -2.1649 2.1649 h -2.16492 v 2.1649 h -4.32984 v -2.1649 l -2.16492,2.1649 v 2.1649 h 2.16492 v 4.3294 h 2.16492 v -2.1649 h -2.16492 2.16492 -2.16492 2.16492 v 4.3298 h 2.16492 -2.16492 2.16492 v -2.1649 h 2.16492 v -2.1649 h 2.16448 v 2.1649 l -2.16448,2.1649 h 2.16448 -2.16448 v 2.1649 h -2.16492 2.16492 -2.16492 v 2.165 -2.165 2.165 h -2.16492 v 6.4943 h 4.32984 v 2.1649 h -4.32984 v -2.1649 h -2.16492 v 2.1649 h -2.16492 v 2.165 h -2.16492 v 2.1649 h 2.16492 v 8.6592 h 2.16492 v 2.1649 h -2.16492 2.16492 v 2.1649 -2.1649 h -2.16492 v 4.3298 h 2.16492 -2.16492 v 2.165 -2.165 h 2.16492 v 2.165 h -2.16492 2.16492 -2.16492 2.16492 v 2.1649 h -2.16492 2.16492 v 2.1649 -2.1649 h 2.16492 v 2.1649 h 2.16492 -2.16492 v 2.1649 -2.1649 4.3298 h 2.16492 -2.16492 v 2.165 -2.165 h -2.16492 v 2.165 -2.165 h -4.32984 2.16492 v -4.3298 2.1649 h -4.32983 v -2.1649 2.1649 -2.1649 2.1649 -2.1649 2.1649 h -2.16448 v -2.1649 h 2.16448 -2.16448 2.16448 v -2.1649 2.1649 -2.1649 h -2.16448 v 2.1649 -4.3298 h -4.32984 2.16492 -2.16492 v 2.1649 l 2.16492,-2.1649 v 2.1649 h -2.16492 v 2.1649 h 2.16492 v 2.1649 h 2.16492 -2.16492 v -2.1649 h -4.32984 v 2.1649 h -2.16492 2.16492 -2.16492 2.16492 -4.32984 2.16492 -2.16492 v 2.1649 -2.1649 h -2.16492 v 4.3299 h -2.16448 v 2.1645 h 2.16448 -2.16448 v 4.3298 h -4.32984 2.16492 -2.16492 2.16492 -4.32984 2.16492 v -2.1649 2.1649 h -2.16492 v -2.1649 h -4.32984 2.16492 -2.16492 v -2.1649 h 8.65968 v 2.1649 h 2.16492 v -6.4944 h -4.32984 v 2.165 h -2.16492 v -2.165 2.165 h -2.16492 2.16492 -2.16492 2.16492 -2.16492 v 2.1645 h -2.16492 v -2.1645 2.1645 -2.1645 2.1645 -2.1645 2.1645 h -2.16492 2.16492 -2.16492 2.16492 -2.16492 2.16492 -2.16492 v 2.1649 h 2.16492 -2.16492 2.16492 -4.32984 v -2.1649 h 2.16492 v -2.1645 h 2.16492 v -4.3299 h -2.16492 4.32984 -2.16492 2.16492 -4.32984 2.16492 -2.16492 v 2.1649 h -2.16492 v 2.165 -2.165 2.165 h -2.16492 v 2.1645 -2.1645 2.1645 -2.1645 2.1645 -2.1645 2.1645 -2.1645 h -2.16492 v 2.1645 -2.1645 h -2.16448 v 2.1645 h -2.1561 2.16492 -2.16492 v 4.3298 h -2.16492 v 2.1649 l 2.16492,2.1649 v -2.1649 h 4.32984 v 2.1649 -2.1649 2.1649 h 2.16492 v -2.1649 2.1649 h 2.16492 v 2.165 h -2.16492 2.16492 -2.16492 2.16492 -2.16492 v 4.3293 l -2.16492,-2.1649 v 2.1649 -2.1649 2.1649 h 2.16492 v -2.1649 h 2.16492 v -4.3294 h 2.16492 v -4.3298 6.4948 h 8.65924 v 2.1644 -2.1644 h 2.16492 v 2.1644 -2.1644 2.1644 h 2.16492 v 2.1649 h -2.16492 v -2.1649 h -2.16492 v 2.1649 h 2.16492 v 4.3299 h 2.16492 -2.16492 2.16492 v 2.1649 h -4.32984 v 2.1649 h -2.16492 2.16492 v 2.16492 -2.16492 2.16492 -2.16492 23.81322 h -2.16492 v 2.165 -2.165 h -2.16492 v -2.1649 h -2.16492 v -6.4943 l -2.16448,-2.1649 h -2.16492 v -2.1649 h -4.32984 v -2.1649 h -2.16492 v -2.1649 h -2.16492 v -2.165 l -2.16492,-2.1645 v -2.16492 h -2.16448 v -2.1649 h 4.3294 v -6.4948 l -2.16492,-2.1649 v -2.1649 h -4.3294 v -2.1649 h -2.16492 v -2.1649 h -6.49476 l -2.16492,2.1649 -2.16492,2.1649 -2.16492,-2.1649 h -4.3294 v -2.1649 l 2.16448,-2.1645 v -2.1649 h 2.16492 v -4.3299 h 2.16492 v -4.3298 h 2.16492 v -2.1649 h 4.32984 v -2.1645 l 2.16492,-2.1649 2.16492,-2.165 v -2.1649 h 2.16492 l 2.16492,2.1649 v -2.1649 l 2.16448,-2.1649 h 2.16492 v -4.3298 l 2.16492,-2.165 h 6.49476 l 2.16492,-2.1649 h 2.16448 l 2.16492,-2.1649 h 4.32984 v -4.3294 h -2.16492 v -2.1649 l -2.16492,-2.1649 h 6.49476 v -2.1649 h 2.16492 v -2.1649 h 2.16492 v -2.165 h -2.16492 v -2.1645 h -2.16492 l -2.16492,-2.1649 v -2.1649 l -2.16492,-2.1649 v -6.4943 h 2.16492 v -6.4948 l 2.16492,-2.1649 v -4.3298 h -2.16492 v -2.165 l -2.16492,-2.1649 v -6.4943 l 2.16492,-2.165 v -4.3298 l -2.16492,-2.1649 v -2.1649 l -2.16492,-4.3294 v -2.1649 l 2.16492,-2.1649 v -2.165 l -2.16492,-2.1649 h -2.16492 v -6.4947 h -6.49432 l -2.16492,-2.165 h -2.16492 l -2.16492,-2.1645 v -8.6596 h -2.16492 v -2.165 h 2.16492 l -2.16492,-2.1649 v -2.1644 h -2.16448 v -2.165 l -2.16492,-2.1649 v -4.3298 l -2.16492,-2.1649 v -2.165 h -2.16492 v -4.3294 h -2.16492 l 2.16492,-2.1649 v -2.1649 l -2.16492,-2.1649 v -8.6597 l -2.16492,-2.1649 h -2.16492 v -8.6592 l 2.16492,-2.165 v -2.1649 l -2.16492,-2.1649 v -2.1645 l -4.32984,-6.4948 -6.49432,-6.4947 v -2.165 l -4.32984,-4.3298 -4.32983,-6.4943 -4.3294,-8.6597 -6.49476,-6.4943 -4.32984,-6.4948 -10.82415,-15.1539 -2.16492,-2.165 h -2.16492 v -2.1649 h -2.16492 v -2.1649 h -4.32984 l -2.16492,-2.1645 -2.16448,-2.1649 h -4.32984 v -4.3299 l 2.16492,-2.1649 h 2.16492 v -2.1649 h 2.16448 v -2.1649 l 2.16492,-2.1645 -2.16492,-2.1649 v -2.1649 h 2.16492 v -2.1649 h 8.65968 v -2.165 h 2.16492 v -2.1649 h 2.16492 v -4.3298 l 2.16491,-2.1649 v -2.165 h 2.16492 l 2.16448,-2.1645 h 8.65968 v -2.1649 l -2.16492,-2.1649 v -2.1649 h 2.16492 v -2.1649 l 2.16492,-2.165 v -4.3293 l 2.16492,-2.1649 2.16448,-4.3299 v -2.1649 l 2.16492,-2.1649 v -2.1649 h -2.16492 v -2.1646 h -4.3294 v -8.6596 h 2.16492 v -2.165 h 6.49432 v -2.1649 l -2.16492,-2.1649 v -4.3298 l 2.16492,-2.1645 v -2.1649 h -2.16492 l 2.16492,-2.1649 v -2.1649 h 2.16491 v -2.165 h 2.16492 l 2.16492,2.165 v 2.1649 h 6.49432 l 2.16492,2.1649 h 6.49476 l 8.65968,8.6592 4.3294,6.4948 10.8246,10.8242 2.16448,8.6596 2.16492,17.3189 v 2.1649 l 21.6492,6.4944 h 2.16492 l 21.64919,-2.1649 h 2.16492 v -4.3295 l 2.16492,-17.3188 v -6.4948 l -2.16492,-6.4944 -2.16492,-21.6492 -2.16492,-12.9895 h 8.65968 l 2.16492,2.1649 v -2.1649 h 2.16492 v -2.1649 l -2.16492,-2.1649 h 2.16492 l 2.16492,-2.1649 v -6.4943 h 2.16492 v -4.3299 l 2.16448,-2.1649 v -2.1649 h -2.16448 v -2.1645 h -2.16492 v -4.3298 h -2.16492 l -2.16492,-2.165 h -2.16492 v -12.9895 h -2.16492 v -6.4943 h -2.16492 v -8.6597 l -2.16492,-2.1645 h 2.16492 v -4.3298 l 2.16492,-2.1649 v -2.1649 h 2.16492 v -2.165 l 2.16492,2.165 h 4.32984 v -2.165 h -2.16492 v -2.1649 h 2.16492 l -2.16492,-2.1644 2.16492,-2.165 v -2.1649 h 2.16492 v -2.1649 l -2.16492,-2.1649 v -2.1649 h 2.16492 v -2.1649 h 2.16448 v -2.165 h -2.16448 l -2.16492,-2.1649 h 2.16492 v -4.3294 h -4.32984 v -6.4948 h 2.16492 -2.16492 l -2.16492,-2.1737 v -2.1649 h 2.16492 v -2.165 h -4.32984 v -12.989 h 2.16492 v -2.1649 l 2.16492,2.1649 h 2.16492 v -6.4948 h -2.16492 v -2.1649 l 2.16492,-2.1649 h 2.16492 v -6.4943 h -2.16492 v -2.1649 l 2.16492,-6.49481 v -2.16492 h -2.16492 v -2.16492 l -2.16492,-2.16447 h -2.16492 l -2.16492,-2.16492 V 452.466 l 2.16492,-2.16492 2.16492,-2.16492 v -6.49432 h 2.16492 l 2.16492,2.16492 V 437.312 h -2.16492 2.16492 v -2.16492 l 2.16448,-2.16492 -2.16448,-2.16491 h -2.16492 v -4.32984 h 2.16492 -6.49476 v -2.16492 l 4.32984,-4.3294 v -4.32984 l -4.32984,-2.16492 h -6.49476 l -2.16492,-2.16492 v -4.3294 l 2.16492,-4.32984 -2.16492,-6.49476 v -4.3294 l 2.16492,-2.16492 v -4.32984 l 2.16492,-2.16492 h -2.16492 l 2.16492,-2.16492 4.32984,-2.16492 6.49476,-4.32984 4.3294,-6.49432 6.49476,-4.32984 4.32984,-2.16491 4.3294,-4.3294 v -6.49476 l -2.16492,-4.32984 -4.3294,-4.32984 -2.16492,-8.65924 -6.49476,-2.16492 -2.16492,-6.49476 4.32984,-2.16492 6.49476,2.16492 2.16492,-2.16492 -2.16492,-6.49432 v -2.16492 l 2.16492,-4.32984 -2.16492,-4.3294 v -4.32984 l 2.16492,-2.16492 2.16448,-2.16492 4.32984,-2.16492 2.16492,-2.16491 v -2.16492 h 2.16492 l 2.16492,-2.16492 h 6.4855 l 2.16492,-4.3294 v -8.65968 l 4.32984,-2.16492 h 6.49432 l 4.32984,2.16492 2.16491,-4.32984 2.16492,-2.16448 h 4.3294 v 2.16448 l 2.16492,4.32984 2.16492,4.32984 4.32984,-2.16492 h 2.16492 l 4.32984,2.16492 v 6.49432 l -2.16492,6.49476 2.16492,2.16491 h 4.32984 l 4.3294,-4.32983 v -4.32984 l 2.16492,-4.3294 2.16492,-2.16492 2.16491,2.16492 6.49432,-2.16492 2.16492,-2.16492 h 4.32984 l 2.16492,2.16492 -2.16492,2.16492 8.65922,2.16492 2.16492,2.16448 h 12.98952 l 2.16492,-2.16448 v -2.16492 l -2.16492,-4.32984 2.16492,-2.16492 2.16488,-4.32984 4.3295,2.16492 2.1649,2.16492 h 10.8241 l 6.486,-2.16492 4.3298,-2.16492 v -4.3294 l 2.1645,-2.16492 2.1649,-2.16492 h 4.3299 l 6.4943,-2.16492 2.1649,-8.65968 2.1649,-2.16492 v -4.3294 l 2.1649,-6.49475 4.3299,-6.49432 2.1649,-2.16492 v -4.32984 l 2.1645,-2.17374 v -4.32984 l -2.1645,-2.16492 -6.4948,-4.32984 v -6.49431 l -2.1649,-6.49476 v -6.49476 l -2.1649,-8.65924 2.1649,-2.16492 h 6.4948 l 4.3294,-2.16492 h 2.1649 l 4.3298,-2.16492 4.3299,4.32984 h 4.3298 l 6.4943,-2.16492 2.1649,-4.32984 -2.1649,-2.16448 4.3298,-4.32984 2.165,-2.16492 v -12.98952 l 4.3298,-4.3294 4.3294,-2.16492 h 4.3299 l 6.4947,-8.65968 -4.3298,-6.49431 4.3298,-4.32984 v -4.32984 l 4.3299,-6.49432 -2.1649,-4.32984 -6.4948,-6.49476 h -2.1649 l -4.3299,2.16492 v -4.32984 l 2.165,-4.329395 -2.165,-2.16492 h -2.1645 l -2.1649,2.16492 -2.1649,-2.16492 h -4.3299 l -2.1649,2.16492 -2.1649,2.164475 -2.1644,4.32984 h -23.823 l -4.3294,2.16492 -2.1649,4.32984 -4.3299,-2.16492 v -6.49476 l 2.165,-2.16492 4.3298,-4.329395 v -2.16492 l -2.1649,-4.32984 -2.1649,-2.16492 h -4.3299 l -4.3298,2.16492 h -6.4943 l -2.1649,-4.32984 h -4.3299 l -4.3294,-4.3294 v -6.49476 l 2.1645,-4.32984 2.1649,-6.49476 4.3299,-2.16447 v -2.16492 l 2.1649,-2.16492 2.1649,-2.16492 4.3294,-2.16492 h 6.4947 v -2.16492 l 2.165,-4.3294 h 2.1649 l 2.1649,-2.16492 2.1645,-4.32984 -2.1645,-4.32984 2.1645,-2.16448 2.1649,-4.32984 4.3299,-2.16492 2.1649,-4.32984 4.3298,-2.16492 v -2.16492 l -2.1649,-2.16491 -2.1649,-2.16492 v -4.3294 l 2.1649,-4.3298403 2.1649,-4.32984 4.3299,-2.164919958789 h 8.6592 l 6.4947,2.164919958789 2.1645,4.32984 z"
     style="clip-rule:evenodd;fill:#000000;fill-rule:nonzero;stroke:none;stroke-width:4.51062px"
     id="path1278" />
</svg>
