<?xml version="1.0" encoding="UTF-8" standalone="no"?>
<svg
   xmlns:dc="http://purl.org/dc/elements/1.1/"
   xmlns:cc="http://creativecommons.org/ns#"
   xmlns:rdf="http://www.w3.org/1999/02/22-rdf-syntax-ns#"
   xmlns:svg="http://www.w3.org/2000/svg"
   xmlns="http://www.w3.org/2000/svg"
   xmlns:sodipodi="http://sodipodi.sourceforge.net/DTD/sodipodi-0.dtd"
   xmlns:inkscape="http://www.inkscape.org/namespaces/inkscape"
   version="1.0"
   width="1024pt"
   height="1024pt"
   viewBox="0 0 1024 1024"
   preserveAspectRatio="xMidYMid meet"
   id="svg2211"
   sodipodi:docname="vector.svg"
   inkscape:version="1.0.2-2 (e86c870879, 2021-01-15)">
  <defs
     id="defs2215" />
  <sodipodi:namedview
     pagecolor="#ffffff"
     bordercolor="#666666"
     borderopacity="1"
     objecttolerance="10"
     gridtolerance="10"
     guidetolerance="10"
     inkscape:pageopacity="0"
     inkscape:pageshadow="2"
     inkscape:window-width="1366"
     inkscape:window-height="697"
     id="namedview2213"
     showgrid="false"
     inkscape:zoom="0.1940918"
     inkscape:cx="1266.7524"
     inkscape:cy="760.26375"
     inkscape:window-x="-8"
     inkscape:window-y="-8"
     inkscape:window-maximized="1"
     inkscape:current-layer="svg2211"
     fit-margin-top="0"
     fit-margin-left="0"
     fit-margin-right="0"
     fit-margin-bottom="0" />
  <metadata
     id="metadata2205">
Created by potrace 1.10, written by Peter Selinger 2001-2011
<rdf:RDF>
  <cc:Work
     rdf:about="">
    <dc:format>image/svg+xml</dc:format>
    <dc:type
       rdf:resource="http://purl.org/dc/dcmitype/StillImage" />
    <dc:title></dc:title>
  </cc:Work>
</rdf:RDF>
</metadata>
  <path
     d="m 551.25103,32.700795 v 13.08644 l 9.8148,6.54256 9.8142,-3.27161 3.2716,6.54322 3.2716,9.81483 3.2715,9.81483 9.8143,3.27161 19.6296,-3.27161 6.5432,3.27161 h 6.5426 l 9.8148,6.54256 3.2716,3.27161 -3.2716,9.81483 v 22.900595 l -3.2716,9.81483 3.2716,6.54256 h 6.5432 l 9.8142,6.54321 h 6.5432 l 13.0858,-3.2716 6.5432,6.54321 3.2716,9.81483 -3.2716,6.54255 v 9.81484 l 3.2716,9.81483 v 3.27161 l -3.2716,13.08577 v 13.08644 l 6.5432,6.54256 h 13.0864 l 6.5426,3.27161 h 9.8149 l 6.5432,-6.54322 h 9.8141 l 19.6297,-6.54256 -3.2716,6.54256 v 19.62966 l -9.8149,6.54255 3.2716,9.81483 9.8149,3.27161 h 6.5432 l 6.5426,6.54322 3.2716,9.81417 3.2716,9.81483 6.5432,3.27161 h 13.0858 l 6.5292,6.54322 3.2717,3.27095 3.2716,9.81483 h 3.2716 l 9.8148,3.27161 6.5432,-6.54322 9.8141,3.27161 3.2717,6.54322 3.2716,13.08644 3.2716,6.54255 v 6.54322 l 3.2716,3.27161 6.5426,3.27161 h 6.5432 l 9.8148,-6.54322 9.8149,3.27161 3.2709,6.54256 h 6.5432 l 6.5432,3.27161 v 9.82815 l -3.2716,3.27162 h -9.8148 l -9.8142,3.27161 -3.2716,6.54322 -3.2716,9.81416 -9.8148,3.27161 -6.5432,3.27161 -6.5426,6.54322 3.2716,9.81483 3.271,3.27161 3.2716,9.81417 -6.5426,3.27161 -3.2716,9.81483 -3.2716,6.54255 9.8142,3.27161 3.2716,13.08644 13.0864,9.81484 -9.8148,3.27161 -9.8142,3.27094 -6.5432,3.27161 h -3.2716 l -6.5433,-3.27161 -9.8141,-6.54255 -9.8148,-3.27161 h -3.2716 l -6.5432,3.27161 v 6.54255 l -3.2717,3.27161 -9.8142,3.2716 h -16.358 v -9.81415 l -3.2709,-3.27161 -3.2716,-3.27161 h -16.3581 l -3.271,6.54322 -9.8148,3.27094 h -6.5432 v 3.27161 l 9.8148,13.08643 -3.2716,16.35739 -16.3581,3.27161 -13.0857,-3.27161 v -16.35739 l -6.5432,-3.27161 v -6.54322 l 3.2716,-6.54321 v -13.08578 l -3.2716,-13.08644 -13.0858,3.27161 -9.8149,13.08645 -9.8148,3.27161 -6.5432,3.27161 -9.8141,3.27094 -3.2716,-3.27094 6.5432,-3.27161 3.2716,-3.27161 3.2709,-3.27162 3.2716,-9.81483 6.5432,-9.81483 9.8149,-3.27094 6.5432,-3.27161 3.2716,-9.81483 -13.0865,-13.08578 -9.8148,-13.08644 -9.8141,-9.81483 -3.2716,-6.54255 -9.8148,-3.27161 h -26.1583 l -6.5432,3.27161 -6.5432,6.54255 -13.0858,3.27161 -3.2716,3.27161 3.2716,19.62966 -6.5433,13.08578 h -6.5431 l -6.5426,3.27161 -3.2716,3.27161 v 9.81416 l 6.5426,19.62967 3.2716,9.81416 3.2716,3.27161 v 6.54321 l 3.2715,9.81483 3.2717,16.35739 -3.2717,9.81416 -3.2715,3.27161 3.2715,9.81483 v 19.62897 l 3.2717,3.2716 9.8142,3.2716 h 16.358 l 9.8149,-3.2716 19.6289,6.5433 3.2716,3.2716 6.5426,9.8142 3.2716,9.8148 6.5432,6.5432 6.5433,-3.2716 3.2709,-6.5432 h 6.5432 l 9.8148,3.2716 9.8148,3.2716 6.5426,3.2716 6.5433,-3.2716 6.5432,9.8149 6.5432,3.2716 22.9006,-6.5433 h 9.8148 l 16.3574,-13.0864 9.8141,3.2716 6.5433,-3.2716 h 3.2576 l 3.2716,-3.2716 v 16.358 h 3.2717 l 3.2716,3.2717 h 9.8148 v 3.2716 h -3.2716 l -3.2716,3.2709 h -3.2716 v 3.2716 l -3.2716,3.2716 v 9.8148 l -19.6291,16.3574 -9.8148,6.5433 h -16.3574 v 3.2715 l -3.2716,13.0858 -6.5426,3.2716 -9.8148,3.2716 3.2716,13.0865 3.2716,3.2709 -6.5432,6.5432 -6.5432,6.5432 -6.5432,9.8142 h -6.5433 v -3.271 l -6.5425,-9.8148 -9.8148,-3.2716 -3.2716,-3.2716 -3.2716,-6.5425 h -9.8142 l -6.5433,3.2709 -9.8148,6.5432 -9.8141,9.8148 h -16.3581 l -6.5426,-3.2716 -6.5298,-3.2716 -6.5426,9.8148 -6.5432,6.5426 -9.8148,13.0865 -9.8148,9.8148 -3.271,3.2716 -6.5433,3.2709 -6.5431,3.2716 v 13.0865 l -9.8142,16.3574 -13.0864,13.0857 -3.2716,9.8282 h -9.8149 l 3.2716,16.358 -6.5432,13.0865 -3.2709,3.271 v 13.0864 l -6.5432,3.2716 -16.3574,3.2716 -9.8149,13.0857 -9.8148,9.8149 -6.5432,13.0858 -3.2709,3.2716 -9.8148,6.5432 v 22.9006 l -3.2717,3.2716 -6.5432,3.2716 v 9.8142 l -6.5426,3.2716 -3.2583,13.0865 v 9.8148 l -13.0857,6.5425 v -6.5425 l -3.2716,-3.2716 h -9.8148 l -6.5433,9.8141 -6.5426,3.2716 -3.2716,6.5432 v 16.3575 l -6.5432,3.2716 -29.4424,29.44236 -6.5433,3.2716 h -6.5426 l -6.5432,-3.2716 -9.8148,-3.2716 h -19.629 l -3.2716,-6.5425 -3.2716,-19.62956 -6.5432,-6.5426 -9.8142,-13.0865 -9.8148,-3.2716 v -9.8141 l -6.5433,-3.2716 -6.5432,6.5432 -9.8008,6.5425 -13.0858,6.5432 -3.2716,-3.2716 -3.2716,-9.8141 -3.2716,-3.2716 -6.5425,9.8141 -6.5433,3.2716 h -22.9012 v -32.7161 l -3.271,-9.8141 -3.2716,-9.8148 h -9.8149 v 16.3573 l -6.5432,6.5432 -9.8141,3.2716 -3.2716,-3.2716 v -3.2716 l -3.2716,-3.2716 6.5432,-3.2709 6.5432,-9.8148 v -13.0865 l 3.2709,-9.8142 v -16.358 l 6.5432,-3.2716 h 3.2717 l 9.8148,-3.2709 v -9.8149 l 3.271,-13.0864 v -19.6291 l -3.271,-9.8148 v -9.8141 l -3.2716,-3.2716 -9.8149,6.5432 h -6.5432 l -3.2709,-6.5432 v -9.8148 l 9.8141,-3.271 h 16.3575 l 3.2716,-3.2716 9.8148,-6.5433 9.8148,-16.358 -3.2716,-13.0857 3.2716,-3.2717 9.8142,-6.5432 v -6.5426 h -9.8142 l -3.2716,-6.5432 -3.2716,-9.8148 v -9.8149 l -3.2716,-6.5425 -16.3574,16.3574 h -13.0865 l -6.5432,6.5432 -9.8141,6.5432 h -13.0864 l -6.5433,-3.2716 -3.2716,-13.0864 -3.271,-3.2717 -6.5432,-6.5432 3.2716,-3.2709 3.2716,-6.5432 v -9.8148 l 6.5426,-13.0858 v -9.8149 l -3.2716,-6.5425 -3.271,-3.2716 h -3.2716 v -9.8148 l 6.5426,-3.2716 h 3.2716 l 3.2717,6.5432 h 9.8148 l -3.2716,-6.5432 9.8148,-19.629 -6.5432,-3.2716 h -6.5432 l -6.5433,-3.2716 -3.2716,-9.8142 6.5433,-6.5432 v -3.2716 l 3.2716,-13.0865 v -13.0857 l 6.5432,-6.5432 3.2716,-9.8149 3.2716,-9.8142 3.2716,-9.81481 v -6.54255 l -9.8148,-6.54322 -9.8148,-3.27161 -3.2717,-3.27161 V 507.0976 l 3.2717,-13.08578 -3.2717,-6.54322 -3.2716,-3.27161 -3.271,-9.81416 -13.0864,-6.54322 -3.2716,-16.35805 v -16.35738 l 3.2716,-22.90061 3.2716,-19.62899 -3.2716,-13.09977 v -29.44316 l 3.2716,-13.08578 6.5432,-13.08577 v -9.81483 l -3.2716,-6.54322 9.8142,-3.27161 3.2716,-3.27095 6.5433,-16.35805 6.5432,-9.81483 3.2716,-6.54255 3.2716,-3.27162 9.8141,-9.81483 9.8149,-6.54322 3.2716,-3.27094 9.8142,-9.81483 16.358,-3.27161 9.8149,-3.27161 13.0857,-13.08644 v -3.27095 l 3.2716,-6.54322 13.0858,-6.54322 6.5432,-6.54322 v -3.27094 l -9.8142,-3.27161 -3.2716,-6.54322 3.2716,-9.81417 v -9.81483 l -3.2716,-13.08644 v -6.54321 l -6.5432,-6.54256 -3.2716,-6.54322 9.8148,-3.27161 9.8142,3.27161 9.8149,3.27161 h 6.5425 l 6.5432,3.27161 3.2716,3.27161 h 9.8148 l 9.8149,-3.27161 6.5426,-3.27161 h 9.8148 l 9.8141,3.27161 h 13.0865 l 9.8148,-9.81483 9.8142,-3.27161 6.5432,-9.81416 h 19.629 l 6.5432,-3.27161 6.5432,-6.54322 3.2716,-6.543215 v -3.27161 l -6.5432,-9.81417 h 3.2716 v -9.81483 l 3.2716,-13.08577 v -6.54323 l -3.2716,-3.27161 -3.2716,-3.27161 v -9.81416 h 3.2716 l 6.5426,-3.27161 h 3.2716 l 9.8148,3.27228 13.0725,-3.27161 h 6.5432 l 6.5432,-3.27095 9.8142,-3.27161 6.5432,-3.27161 6.5432,-3.27161 3.2717,3.27161 9.8141,3.27161 6.5432,-3.27161 3.2716,-6.54322 6.5432,-3.27161 9.8142,-3.2716103 9.8149,-6.54255 6.5432,-3.27160995879 h 6.5425 l 3.2716,3.27160995879 3.2716,6.54255 -3.2716,13.0864403 6.5432,9.81417 z"
     style="clip-rule:evenodd;fill:#000000;fill-rule:nonzero;stroke:none;stroke-width:6.81641px"
     id="path1220" />
</svg>
