<?xml version="1.0" encoding="UTF-8" standalone="no"?>
<svg
   xmlns:dc="http://purl.org/dc/elements/1.1/"
   xmlns:cc="http://creativecommons.org/ns#"
   xmlns:rdf="http://www.w3.org/1999/02/22-rdf-syntax-ns#"
   xmlns:svg="http://www.w3.org/2000/svg"
   xmlns="http://www.w3.org/2000/svg"
   xmlns:sodipodi="http://sodipodi.sourceforge.net/DTD/sodipodi-0.dtd"
   xmlns:inkscape="http://www.inkscape.org/namespaces/inkscape"
   version="1.0"
   width="1024pt"
   height="1024pt"
   viewBox="0 0 1024 1024"
   preserveAspectRatio="xMidYMid meet"
   id="svg2211"
   sodipodi:docname="vector.svg"
   inkscape:version="1.0.2-2 (e86c870879, 2021-01-15)">
  <defs
     id="defs2215" />
  <sodipodi:namedview
     pagecolor="#ffffff"
     bordercolor="#666666"
     borderopacity="1"
     objecttolerance="10"
     gridtolerance="10"
     guidetolerance="10"
     inkscape:pageopacity="0"
     inkscape:pageshadow="2"
     inkscape:window-width="1366"
     inkscape:window-height="697"
     id="namedview2213"
     showgrid="false"
     inkscape:zoom="0.1940918"
     inkscape:cx="1266.7524"
     inkscape:cy="760.26375"
     inkscape:window-x="-8"
     inkscape:window-y="-8"
     inkscape:window-maximized="1"
     inkscape:current-layer="svg2211"
     fit-margin-top="0"
     fit-margin-left="0"
     fit-margin-right="0"
     fit-margin-bottom="0" />
  <metadata
     id="metadata2205">
Created by potrace 1.10, written by Peter Selinger 2001-2011
<rdf:RDF>
  <cc:Work
     rdf:about="">
    <dc:format>image/svg+xml</dc:format>
    <dc:type
       rdf:resource="http://purl.org/dc/dcmitype/StillImage" />
    <dc:title></dc:title>
  </cc:Work>
</rdf:RDF>
</metadata>
  <path
     d="m 291.45733,137.83524 h 23.63046 v 15.75471 l 15.75471,-7.87735 -7.87736,15.75471 h 15.75311 l 15.75471,15.7531 -7.87735,15.75471 7.87735,15.75471 v 7.87736 h 15.75471 v 15.7531 h -7.87735 v 23.63207 l 15.75464,7.87736 7.87736,7.87735 7.87735,31.50942 h 7.87736 l 15.75321,-7.87735 v -7.87736 l 7.87736,-7.87735 15.75471,7.87735 7.87734,-7.87735 7.8774,-7.87736 v -23.63206 l 7.8773,-7.87736 h 7.8774 v 23.63207 l 7.8773,15.75471 v 15.75471 l 15.753,7.87735 h 15.7547 l 7.8774,15.75311 h 23.6321 l 15.7532,7.87736 h 7.8773 v -15.75471 l 7.8774,-15.75311 15.7547,-15.75471 7.8774,7.87735 h 7.8773 l 15.753,-7.87735 v 7.87735 h 31.5094 l 15.7533,7.87736 -7.8774,15.75311 7.8774,7.87735 7.8773,-7.87735 h 15.7547 v -7.87576 h 23.6321 l 7.8773,7.87576 7.8774,-7.87576 h 39.3851 l 7.8773,-15.75471 15.7547,-7.87735 v 7.87735 h -7.8773 v 15.75471 h 7.8773 v 7.87576 l 7.8774,15.75471 15.7211,-7.87736 v 15.75471 l 23.6321,-7.87735 v 15.75471 h 7.8773 v 7.87735 h 15.753 v 7.87736 h -7.8773 v 39.38517 h 7.8773 l 7.8774,7.87736 h -7.8774 v 7.87735 h 7.8774 l -7.8774,23.63046 7.8774,7.87736 h 7.8773 v 15.75471 l -7.8773,7.87736 v 7.87735 h 15.7547 v 7.87736 h 7.8774 v 15.7531 h -7.8774 7.8774 v 7.87736 h 7.8773 v -7.87736 h 23.6306 v -7.87575 h 7.8773 v 7.87575 h 7.8774 v -7.87575 h 23.6321 l -7.8774,7.87575 h 7.8774 v 7.87736 -7.87736 h 7.8773 v 15.75471 h 23.63045 v 7.87736 l -15.75305,15.75469 -7.8774,7.87575 15.753,31.50942 -7.8773,23.63207 v 7.87735 h 31.50945 v 7.87736 H 1024 v 7.87735 h -7.8773 v 7.87575 h -7.8774 v 23.63207 h -7.8773 v 15.75471 h 7.8773 v 7.87575 l -7.8773,-7.87575 -7.87745,7.87575 v 23.63207 h -7.8773 v 7.87735 h -7.8774 v -7.87735 h -7.8774 v 23.63207 h -7.8773 v 7.87575 h -7.8774 v 15.75471 h -7.8773 v 15.75471 h -15.7547 v 7.87735 h -7.8774 v 7.87736 h -7.8773 v 7.87736 l -15.753,15.75471 -23.6321,15.7531 -15.7532,7.87736 -31.5094,15.75471 -39.3851,7.87735 7.8773,-39.38677 -23.632,-15.75311 -15.7547,23.63046 -23.6306,-7.87735 -15.7547,23.63206 7.8773,23.63207 -47.2624,23.63046 v 15.75471 l -15.7547,-15.75471 -7.8773,-15.75471 -7.8774,-7.87575 -15.7532,-15.75471 v -15.75471 l -23.6321,-7.87736 -7.8773,-15.7531 h -31.5077 l -7.8774,-15.75471 h -7.8774 v -15.75472 h -39.3852 l -7.8774,-23.63206 -15.7547,-15.75471 7.8774,39.38677 h -15.7548 l -15.753,-15.75471 7.8774,23.63207 15.753,7.87736 v 15.75471 h -15.753 v -7.87736 h -15.7547 l -7.8774,7.87736 h -7.87733 l -23.59848,23.63046 v -15.75471 l -7.87735,-7.87575 -23.63207,-7.87736 -7.87736,23.63046 -23.63039,-15.7531 -7.87736,23.63046 h -23.63207 v 55.13988 h -31.50781 l -47.26253,-15.75471 -23.63207,7.87736 -15.75471,-23.63047 7.87736,-15.75471 h -15.75311 l -7.87735,-7.87735 -39.38676,7.87735 -7.87736,7.87736 -7.87735,-15.75471 31.50942,-7.87736 -15.75471,-7.87735 h -23.63207 l -31.507805,15.75471 v -15.75471 l -23.63207,-7.87575 -15.75471,15.7531 v -15.7531 l -23.63046,-15.75471 v -31.50943 l 15.7531,-15.75471 h -7.87735 l -7.87736,-7.87735 -7.87735,-15.75311 -7.87736,-31.50942 V 665.6052 L 7.8773747,657.72784 1.4741211e-5,649.85049 7.8773747,634.09577 1.4741211e-5,618.34267 15.754725,610.46531 l 7.87736,-7.87735 h 7.87735 l 7.87736,-31.50942 h 15.75471 l 15.7531,-15.75472 23.63207,-15.7531 -7.87735,-15.75469 v -15.75471 l 15.753095,-15.75311 v -23.63206 l 7.87736,-7.87736 v -15.75471 l 7.87735,-23.63207 -39.385165,-31.50781 7.87736,-15.75472 -7.87736,-7.87735 23.632065,-63.01564 v -39.38677 l -23.632065,-31.50943 15.75471,-31.50781 7.877355,7.87735 7.87735,7.87736 h 7.87736 l 7.87735,-7.87736 23.63046,-7.87735 15.75472,7.87735 15.75469,-15.75471 h 39.38517 l 7.87735,-31.50781 7.87736,-7.87736 23.63207,-7.87735 v -15.75472 l 31.50781,-7.87735 z"
     style="clip-rule:evenodd;fill:#000000;fill-rule:nonzero;stroke:none;stroke-width:16.4125px"
     id="path1310" />
</svg>
