<?xml version="1.0" encoding="UTF-8" standalone="no"?>
<svg
   xmlns:dc="http://purl.org/dc/elements/1.1/"
   xmlns:cc="http://creativecommons.org/ns#"
   xmlns:rdf="http://www.w3.org/1999/02/22-rdf-syntax-ns#"
   xmlns:svg="http://www.w3.org/2000/svg"
   xmlns="http://www.w3.org/2000/svg"
   xmlns:sodipodi="http://sodipodi.sourceforge.net/DTD/sodipodi-0.dtd"
   xmlns:inkscape="http://www.inkscape.org/namespaces/inkscape"
   version="1.0"
   width="1024pt"
   height="1024pt"
   viewBox="0 0 1024 1024"
   preserveAspectRatio="xMidYMid meet"
   id="svg2211"
   sodipodi:docname="vector.svg"
   inkscape:version="1.0.2-2 (e86c870879, 2021-01-15)">
  <defs
     id="defs2215" />
  <sodipodi:namedview
     pagecolor="#ffffff"
     bordercolor="#666666"
     borderopacity="1"
     objecttolerance="10"
     gridtolerance="10"
     guidetolerance="10"
     inkscape:pageopacity="0"
     inkscape:pageshadow="2"
     inkscape:window-width="1366"
     inkscape:window-height="697"
     id="namedview2213"
     showgrid="false"
     inkscape:zoom="0.1940918"
     inkscape:cx="1145.6757"
     inkscape:cy="760.26375"
     inkscape:window-x="-8"
     inkscape:window-y="-8"
     inkscape:window-maximized="1"
     inkscape:current-layer="svg2211"
     fit-margin-top="0"
     fit-margin-left="0"
     fit-margin-right="0"
     fit-margin-bottom="0" />
  <metadata
     id="metadata2205">
Created by potrace 1.10, written by Peter Selinger 2001-2011
<rdf:RDF>
  <cc:Work
     rdf:about="">
    <dc:format>image/svg+xml</dc:format>
    <dc:type
       rdf:resource="http://purl.org/dc/dcmitype/StillImage" />
    <dc:title></dc:title>
  </cc:Work>
</rdf:RDF>
</metadata>
  <path
     d="m 641.73959,33.754624 4.7712,9.542356 9.5415,-4.771178 h 14.3135 l 4.7712,14.313535 -4.7712,9.541371 9.5424,9.542357 19.0836,4.771178 14.3136,14.313534 4.7712,4.77118 h 14.3135 l 14.3126,-14.313536 14.3135,-9.542356 h 9.5414 l 9.5423,9.542356 4.7712,9.542356 23.8559,23.854923 h 4.7712 l 14.3126,-4.77118 14.3135,4.77118 4.7702,4.77118 v 14.31353 l 4.7712,9.54139 -9.5414,9.54235 v 23.85589 l -4.7711,9.54139 -4.7712,9.54235 -14.3136,4.77118 -9.5414,9.54236 h -19.0847 l -19.0847,4.77118 -4.7702,14.31256 -14.3135,28.6261 -14.3135,14.31353 4.7711,14.31354 9.5424,4.77117 h 14.3135 v 9.54139 l -9.5423,14.31353 -9.5424,4.77118 -4.7712,9.54139 -14.3126,4.77117 h -4.7712 v 14.31354 l 4.7712,14.31353 19.0838,9.54236 9.5424,9.54138 4.7711,14.31354 14.3125,4.77118 14.3136,9.54138 -4.7712,9.54236 14.3135,9.54235 h 19.0838 l 14.3136,-4.77117 4.7712,-9.54236 9.5413,-9.54139 9.5423,-28.62609 9.5424,-9.54236 9.5423,4.77118 9.5221,9.54138 v 9.54236 l 9.5423,14.31353 4.7712,4.77021 4.7712,9.54236 -4.7712,9.54235 -4.7712,4.77118 -4.7712,9.54139 4.7712,28.62706 4.7712,14.31354 v 14.31256 l -4.7712,9.54236 23.8549,23.85492 v 19.0847 l 14.3135,19.08374 h 14.3126 v 14.31353 l 4.7712,9.56179 19.0847,19.08472 v 23.85491 l 9.5424,9.54236 h 4.7712 v 9.54139 l 9.5413,9.54235 4.7712,4.77118 14.31351,14.31353 4.7712,9.54236 -4.7712,14.31256 -14.31351,9.54236 -14.3125,4.77118 -14.3136,-4.77118 -4.7712,-4.77118 -4.7711,-14.31353 v -9.54139 l -9.5424,-4.77118 -4.7712,14.31257 4.7712,14.31353 v 4.77118 l -14.3126,4.77118 h -9.5424 v 9.54138 l -4.7712,4.77118 -9.5423,4.77118 v 9.54236 l 14.3135,9.54235 9.5424,4.77118 4.7703,9.54236 4.7711,9.54138 4.7712,4.77118 4.7712,9.54236 -4.7712,14.31256 -4.7712,4.77118 4.7712,4.77117 v 14.31354 l 4.7712,4.77118 v 4.7702 l -4.7712,4.77118 4.7712,4.77118 -4.7712,4.77118 v 4.77118 h 4.7712 l 4.7712,4.77117 h 4.7711 v 4.77118 h 4.7712 l -4.7712,4.77118 v 4.77118 l -4.7711,4.77118 v 4.7702 h -4.7712 v 4.77118 h -28.6262 l -4.7712,4.77118 h -14.3125 l -4.7711,9.54236 h -4.7712 v 4.77117 l -4.7712,4.77118 -4.7712,-9.54235 -4.7711,-4.77118 -4.7712,-4.77118 h -9.5424 l -4.7712,4.77118 v 4.77118 h -4.7702 v 4.77117 h 4.7702 v 14.31257 -4.77118 h -4.7702 v 4.77118 h -4.7712 v 4.77117 h -9.5424 v 4.77118 h -28.626 v -9.54235 l -4.7712,-4.77118 v -9.54139 h -9.5423 l -4.7712,9.54139 v 19.08471 h -4.7703 l -4.7712,-4.77118 h -9.5423 v -4.77118 h -14.3135 v -4.77117 l -4.7712,-4.77118 v -9.54139 h -4.7712 l -4.7712,4.77118 h -4.7701 v 4.77021 h -23.8559 v -4.77021 l -4.7712,-4.77118 h -38.1685 v 4.77118 h -4.7712 v 9.54139 h -4.7712 l -4.7701,4.77117 v 4.77118 h -4.7712 l -4.7712,4.77118 h 4.7712 v 4.77118 h 4.7712 v 9.54236 l 4.7701,4.77117 v 9.54139 h -4.7701 l -9.5424,9.54232 v -9.54232 h -14.2932 v 4.77122 h -4.7711 v 4.7711 h -4.7712 v 9.5424 h -14.3125 l -4.7712,4.77119 v -4.77119 h -14.3135 l -4.7712,-4.7712 h -19.0847 l -4.7703,4.7712 h -9.5423 l -4.7712,4.77119 h -4.7712 l -9.5424,-9.54239 v 9.54239 l -4.7701,4.7711 h -23.8559 v -4.7711 h -9.5423 v -38.16847 h -4.7712 l -9.5415,-9.54236 h -14.3135 l -4.7712,-4.77118 h -9.5423 v -14.31353 h -9.5414 l -4.7711,-4.77118 v -9.54139 l -4.7712,-4.77117 4.7712,-4.77118 v -9.54236 l -4.7712,-9.54138 -9.5424,-4.77118 v -4.77118 l 4.7712,-4.77118 v -9.54235 h -4.7712 v -4.77118 h 4.7712 v -4.77118 h -4.7712 l -4.7702,-4.77118 h -4.77122 l -4.77118,-4.77118 h -9.54235 v -23.85492 l 9.54235,-4.77117 h 4.77118 l 9.54142,-4.77118 h 9.5424 l -4.7712,-4.77021 v -4.77118 l 9.5424,-9.54235 v -4.77118 l -14.3136,-4.77118 -9.54142,-4.77118 h -9.54236 v 14.31354 h -4.77117 v 4.77118 h -4.77118 l -4.77118,4.77117 h -9.52192 l -4.77118,4.77118 v 4.77021 l -19.08374,9.54235 h -4.77118 v 4.77118 h -23.85589 v 9.54236 l -4.77118,4.77118 -4.77118,4.7702 h -4.77118 v 4.77118 l 4.77118,4.77118 h -4.77118 v 4.77118 h -4.77117 l -4.77021,-9.54236 v -9.54138 h -19.08471 l -4.77118,4.7702 h -4.77021 l -4.77118,-4.7702 v -9.54236 l 4.77118,-4.77118 h -4.77118 l -4.77117,-4.77118 h -14.31354 l -4.77118,-4.77117 h -4.7702 v -4.77118 l -9.54236,4.77118 h -4.77118 l -4.77118,-4.77118 h -4.77117 v -9.54139 h -4.77118 v -4.77117 h -23.85492 l -4.77118,4.77117 h -4.77118 l -4.77118,-4.77117 v 4.77117 h -4.77117 v -9.54235 h -14.31257 v -9.54236 h -4.77118 l -4.77117,-4.77118 v -9.54138 l 4.77117,-9.54236 v -14.31353 l -4.77117,-4.77118 -4.77118,-19.08374 4.77118,-9.54236 h -4.77118 v -4.77118 l -9.54236,-4.77117 -4.77118,-4.77118 -4.77117,-9.54139 v -4.77118 l 4.77117,-4.77117 v -9.54236 h 4.77118 l 4.77118,4.77118 V 658.7838 l -9.54236,-14.31354 h -9.52195 l -9.54235,-4.77118 v -9.54235 h -4.77118 l -4.77021,-4.77118 h -4.77118 v -4.77021 l -9.542354,-9.54235 h -4.77118 l -4.77118,-4.77118 h -4.77118 l -4.7702,-4.77118 -4.77117,-9.54235 -4.77118,-4.77021 -4.77117,-4.77118 -4.77118,4.77118 -4.77118,4.77021 -4.77118,-4.77021 h -9.54235 l -9.54139,-14.31354 V 558.591 l 4.77021,-9.54236 V 510.8802 h 4.77118 v -14.31256 h -4.77118 v -9.54236 l -9.54139,-14.31256 -4.77118,-9.54236 -4.77117,-4.77117 h 52.48198 l 9.54235,-4.77118 9.54138,4.77118 14.31354,-4.77118 v -14.31354 l 19.083744,-4.77117 4.77118,-4.77118 -4.77118,-4.77021 -9.54139,-9.54235 -9.542354,-4.77118 9.542354,-9.54236 v -9.54138 l -19.084714,-9.54236 -14.31256,-9.54236 h -9.54235 l -4.77117,-4.77117 -4.77118,-9.54236 -9.54236,-9.54236 -4.77118,4.77118 h -4.77117 l -9.54139,-4.77118 v -19.08374 h 9.54139 l 14.31353,-4.77118 4.77118,9.54236 9.54235,-14.31353 4.77118,-14.31257 4.77117,-9.54235 14.31256,4.77117 h 33.397284 l 9.54235,-9.54235 14.31256,-4.77118 19.08472,-4.77021 14.31353,-9.54235 14.31256,4.7702 9.54236,9.8e-4 14.31354,-9.54236 h 14.31256 l 9.54235,-4.77021 9.54236,4.77021 h 14.31354 l 19.08374,-4.77118 9.54235,-4.77118 h 19.08374 v -14.31353 l 14.31354,-14.31256 9.54138,-4.77118 14.31354,-4.77118 h 4.77117 l 4.77118,-4.77118 9.52195,-4.77118 v -14.31256 l 4.77118,-4.77118 9.54236,-4.77118 h 4.77118 v -9.54235 l 4.77117,-19.08471 -4.77117,-4.77021 v -9.54236 h 4.77117 l 14.31254,-4.77118 23.85592,4.77118 14.3126,4.77118 28.6271,14.31256 h 9.5413 l 9.5423,-4.77117 4.7712,-9.54139 4.7712,-9.54236 h 23.855 l 4.7712,9.54236 9.5423,4.77118 9.5424,-4.77118 4.7712,-14.31353 v -28.6261 l -4.7712,-4.77118 V 81.485827 l 9.5413,-19.084712 v -9.542344 l -4.7701,-14.312563 4.7701,-4.771178 9.5424,4.771178 9.5423,-9.542356 9.5424,-9.561791 19.0838,-4.771178 h 14.293 l 14.3136,9.541385 z"
     style="clip-rule:evenodd;fill:#000000;fill-rule:nonzero;stroke:none;stroke-width:9.94076px"
     id="path1218" />
</svg>
