<?xml version="1.0" encoding="UTF-8" standalone="no"?>
<svg
   xmlns:dc="http://purl.org/dc/elements/1.1/"
   xmlns:cc="http://creativecommons.org/ns#"
   xmlns:rdf="http://www.w3.org/1999/02/22-rdf-syntax-ns#"
   xmlns:svg="http://www.w3.org/2000/svg"
   xmlns="http://www.w3.org/2000/svg"
   xmlns:sodipodi="http://sodipodi.sourceforge.net/DTD/sodipodi-0.dtd"
   xmlns:inkscape="http://www.inkscape.org/namespaces/inkscape"
   version="1.0"
   width="1024pt"
   height="1024pt"
   viewBox="0 0 1024 1024"
   preserveAspectRatio="xMidYMid meet"
   id="svg2211"
   sodipodi:docname="vector.svg"
   inkscape:version="1.0.2-2 (e86c870879, 2021-01-15)">
  <defs
     id="defs2215" />
  <sodipodi:namedview
     pagecolor="#ffffff"
     bordercolor="#666666"
     borderopacity="1"
     objecttolerance="10"
     gridtolerance="10"
     guidetolerance="10"
     inkscape:pageopacity="0"
     inkscape:pageshadow="2"
     inkscape:window-width="1366"
     inkscape:window-height="697"
     id="namedview2213"
     showgrid="false"
     inkscape:zoom="0.1940918"
     inkscape:cx="1052.9361"
     inkscape:cy="760.26375"
     inkscape:window-x="-8"
     inkscape:window-y="-8"
     inkscape:window-maximized="1"
     inkscape:current-layer="svg2211"
     fit-margin-top="0"
     fit-margin-left="0"
     fit-margin-right="0"
     fit-margin-bottom="0" />
  <metadata
     id="metadata2205">
Created by potrace 1.10, written by Peter Selinger 2001-2011
<rdf:RDF>
  <cc:Work
     rdf:about="">
    <dc:format>image/svg+xml</dc:format>
    <dc:type
       rdf:resource="http://purl.org/dc/dcmitype/StillImage" />
    <dc:title></dc:title>
  </cc:Work>
</rdf:RDF>
</metadata>
  <path
     d="m 562.70709,58.875495 v 6.54319 l 3.2716,6.5432 v 3.2716 l -3.2716,6.54254 v 6.5432 l 6.5432,6.54319 6.5432,6.542535 9.8148,13.0864 -6.5432,6.54252 -13.0864,6.5432 -3.2716,13.0864 -6.54253,3.2716 -3.2716,6.54253 v 9.8148 l -6.5432,6.54253 -6.5432,3.2716 -3.27093,9.8148 6.54253,3.2716 v 6.5432 l -3.2716,3.2716 -3.27093,3.2716 v 3.2716 l -6.54319,3.2716 v 3.27159 l -6.5432,3.2716 h -9.8148 v 9.81414 l 3.2716,6.5432 h 13.0864 l -3.2716,6.54253 -13.0864,6.54315 -3.2716,3.2716 v 9.8142 l 3.2716,6.5432 v 6.5432 l -3.2716,6.5432 -6.54253,6.5425 9.81413,9.8148 v 13.0857 l 3.2716,3.2716 3.2716,3.2716 v 6.5432 l 3.2716,6.5432 h 9.81479 l 3.2716,3.2716 v 6.5426 l 3.27093,6.5432 3.2716,6.5432 6.5432,-3.2716 9.8148,3.2716 3.27093,6.5425 3.2716,3.2716 v 6.5432 l -3.2716,6.5426 v 9.8148 l 3.2716,3.2716 9.8148,3.2716 v 3.2716 h 6.5432 l 3.2716,6.5432 3.2716,6.5432 h 9.81413 l 6.5432,-3.2716 3.2716,3.2716 v 6.5424 l 3.2716,9.8148 9.81413,3.2716 v 36.0003 l 3.2716,6.5432 6.5432,6.5432 9.81413,3.2709 6.5432,3.2716 h 3.2716 l 6.5432,-3.2716 h 3.2716 l 3.2716,-6.5425 6.54253,-3.2716 h 3.2716 l 13.0864,3.2716 h 6.54253 l -3.27093,6.5425 -3.2716,3.2716 v 3.2716 l 3.2716,9.8148 h 3.27093 l 6.5432,-6.5432 h 6.5432 v 13.0858 l -3.2716,3.2716 3.2716,6.5432 h 9.80081 v 6.5432 l -6.54254,3.2716 v 6.5425 l 3.2716,6.5432 v 13.0864 l 6.54253,3.2716 h 6.5432 l 3.2716,3.2716 h 6.54254 l 6.5432,-3.2716 6.54319,6.5426 v 22.9004 l -3.2716,9.8148 v 6.5432 h 6.5432 l 9.81414,-3.2716 h 3.2716 l 3.2716,3.2716 v 9.8282 l 3.2716,6.5432 9.81479,6.5432 h 3.2716 l 6.54254,-6.5432 6.5432,3.2716 h 6.54319 l 3.2716,-3.2716 3.2716,3.2716 6.54254,3.2716 3.2716,-3.2716 3.2716,-3.2716 h 3.27159 l 6.5432,6.5432 h 3.2716 l 13.08574,3.2716 6.54319,9.8141 -3.2716,6.5432 h -3.27159 l -3.2716,6.5425 3.2716,6.5432 3.27159,3.2716 3.2716,6.5432 6.5432,13.0858 13.08573,16.358 9.8008,9.8141 9.8148,16.358 3.2716,6.5426 9.8148,-9.8142 16.35733,-13.0864 13.08573,-6.5425 9.8148,-6.5432 3.2716,9.8148 6.5432,6.5425 9.81413,13.0864 6.5432,9.8142 -3.2716,3.2716 -6.54253,3.2716 -9.8148,3.2716 -3.2716,3.2716 v 16.3573 l 3.2716,13.0863 13.08573,9.8142 9.8148,9.8148 h 6.5432 l 6.54258,-3.2716 3.2716,3.2716 v 19.6289 l 3.2716,3.2716 6.54321,3.2716 v 6.5432 l -3.2716,3.2716 h -9.81481 v 3.2716 l 3.2716,6.5426 v 6.5432 l 13.08641,13.0864 -9.81481,3.2709 -6.5432,3.2716 -9.81418,9.8148 -6.5432,9.8148 -3.2716,9.8141 -6.54253,3.2716 v -3.2716 h -19.6296 l -6.5432,3.2716 -6.54253,9.8148 -9.8148,3.2716 -6.5432,6.5425 -6.54253,3.2716 h -6.5432 v -3.2716 l -13.0864,-13.0857 h -3.2716 l -3.2716,-6.5432 -3.2716,-3.2716 h -6.54253 v 6.5432 l -3.2716,6.5432 -3.2716,3.2716 -3.27159,6.5425 v 3.2716 l 3.27159,9.8148 v 9.8142 l 6.5432,9.8148 3.2716,3.2716 h 16.35733 l 6.5432,-3.2716 3.2716,3.2716 h 6.5432 l -3.2716,3.2716 -3.2716,3.2716 -6.5432,3.2715 -6.5432,6.5426 -3.2716,3.2716 -3.2716,3.2716 h -3.2716 l -6.54253,6.5432 -6.5432,3.2716 -9.81479,6.5425 h -9.81413 v 6.5432 l 3.2716,6.5432 3.2716,3.2716 3.27093,6.54316 v 3.2716 l -3.27093,3.2716 -6.5432,6.5426 -9.8148,6.5431 -19.62893,-22.9005 -3.2716,3.2716 -3.2716,-3.2716 -3.2716,3.2716 -6.5432,-6.54316 3.2716,-3.2716 -13.08573,-16.3573 -16.35733,13.0857 -3.2716,6.5432 -13.0864,9.81476 -16.35733,-13.08636 -9.8148,3.2716 -3.2716,-6.5432 -26.15814,9.81476 -9.8148,-9.81476 v -9.8148 h -6.54319 l -3.2716,-3.2709 -6.54254,-9.8148 -9.8148,-13.0858 h -6.54319 l -3.27094,-3.2716 -9.8148,-9.8147 -16.35799,3.2716 -6.54254,-13.0864 -6.5432,-9.8142 -3.2716,-3.2716 -3.27159,-3.2716 -3.2716,-6.5432 -3.2716,-3.2716 -13.08574,-13.0857 3.2716,-3.2716 -6.5432,-9.8141 6.5432,-6.5432 -6.5432,-3.2716 -6.54319,-6.5432 -3.27094,-9.8148 -6.5432,-6.5425 6.5432,-6.5432 v -3.2716 l -16.358,-6.5432 -3.27159,6.5432 -9.8148,-3.2716 v -6.5432 h 6.5432 l 3.2716,-6.5426 6.54319,-6.5432 -9.81479,-3.2716 -3.2716,-3.2716 h -3.25761 l -6.5432,6.5432 h -3.2716 l 3.2716,-6.5432 h -6.54253 l 3.27093,-13.0864 -9.81412,-3.2709 -3.2716,3.2709 -13.0864,-6.5425 v -6.5432 l -6.5432,6.5432 -6.54253,-3.2716 6.54253,-16.3574 -3.27093,-6.5432 6.54253,-6.5431 3.2716,-9.8141 -9.81413,-6.5432 -6.5432,-6.5432 h -9.8148 v -3.2716 l 3.2716,-9.8148 3.2716,-9.8142 6.5432,-3.2716 v -3.2716 l -3.2716,-3.2716 v -6.5432 l -13.0864,6.5432 -13.08573,6.5432 h -3.2716 v 9.8142 l 3.2716,6.5432 -13.08573,6.5432 -6.5432,6.5432 -6.5432,-3.2716 3.2716,-3.2716 h -6.54254 v 3.2716 l -3.27159,-3.2716 h -3.2716 v -3.2716 l -3.2716,-6.5432 -6.5432,-6.5426 -9.81414,-3.2716 h -3.27159 l -6.5432,-3.2716 h -9.8148 l -3.2716,-3.2716 -9.81413,3.2716 3.2716,-6.5432 3.27159,-6.5432 h -6.54319 l -3.2716,3.2716 -3.2716,-3.2716 -6.52921,3.2716 -3.2716,3.2716 3.2716,3.2716 -9.81413,9.8148 v -6.5432 l -6.54254,3.2716 h -6.54319 l -3.2716,16.3574 -16.35734,6.5432 -3.27159,-6.5432 h -6.54254 l -6.5432,3.2716 -3.2716,-3.2716 v 6.5432 h -3.2716 v -3.2716 h -6.54319 l -6.5432,-9.8148 h -3.2716 l 3.2716,-3.2716 v -6.5426 l -13.08574,-13.0864 h -3.2716 v -6.5425 h -9.81479 v -13.0864 h -6.54254 l -3.2716,-13.0864 3.2716,-3.2716 -3.2716,-6.5426 3.2716,-6.5432 3.2716,3.2716 6.54254,-3.2716 -3.2716,-6.5432 6.5432,-22.9005 -3.2716,-3.2709 3.2716,-6.5432 h 3.27159 v -6.5432 l -9.81479,-6.5432 3.2716,-6.5432 h 3.2716 l 3.27159,-6.5425 -6.54253,-3.2716 -3.2716,-6.5432 -6.5432,-22.9006 -3.2716,-3.2716 v -9.8148 l -6.5432,-3.2716 v -9.8141 h -9.81413 v 6.5425 l -3.2716,6.5432 -6.5432,3.2716 H 215.9422 l -3.2716,6.5432 h -6.5432 v -9.8148 l -6.5432,-3.2716 -3.27159,-6.5425 3.27159,-3.2716 v -3.2716 l -3.27159,-3.2716 -3.2576,-3.2716 -6.5432,6.5432 -9.8148,-9.8148 v 3.2716 -3.2716 l -16.35734,-32.716 -3.2716,-3.2716 h -3.2716 l -3.27159,3.2716 3.27159,-6.5425 h -3.27159 l -3.2716,6.5425 v 6.5432 h -3.2716 l -3.27161,-3.2716 h -3.27159 v 3.2716 l -6.54254,3.2716 v -6.5432 h 3.2716 l -6.5432,-16.3573 h -9.8148 l -9.81413,6.5432 3.2716,3.2709 -6.5432,3.2716 h -3.2716 v -3.2716 h -3.271596 v -9.8141 h 3.271596 v -3.2716 h -3.271596 3.271596 v -6.5432 h 3.2716 v -16.3573 h 3.2716 v -13.0864 h 3.2716 v -6.5432 h 3.2716 v -13.0858 h 3.2716 v -3.2716 h 3.2716 v -6.5432 l 3.2716,-9.8141 -6.5432,3.2716 -3.2716,-3.2716 3.2716,-6.5432 -3.2716,-3.2716 h -3.2716 l -9.81413,-3.2716 -6.543199,13.0864 -9.814132,-3.2716 3.271599,-3.2716 -3.271599,-3.2716 H 78.55235 l -9.814798,6.5425 -3.2716,-6.5425 -13.085732,3.2716 -6.543198,3.2716 h -3.271599 l -3.2716,-3.2716 v -3.2716 l -3.271599,-6.5432 -3.2716,-3.2716 3.2716,-9.8148 6.543199,-3.2716 v -9.8142 l 6.543198,-6.5432 3.271599,-6.5425 v -3.2716 l -3.271599,-6.5431 v -22.9006 l -3.271599,-3.2716 3.271599,-3.2716 v -6.5432 l -3.271599,-3.2716 v -22.9005 l -6.543199,-6.5426 h -6.543199 l -6.542533,3.2716 h -9.814799 l 3.2716,-6.5432 3.271599,-3.2716 6.5432,-3.2716 h -9.814799 v -3.2716 l 3.271599,-3.27157 9.814799,-6.54319 h 6.543199 l 3.2716,-3.2716 v -13.08574 l -6.543199,-3.2716 v -6.55652 l 3.271599,-6.5432 h 6.542533 v -6.54253 l -3.271599,-6.5432 v -9.81413 l 3.271599,-3.2716 h 6.543198 l 3.2716,-3.2716 h 22.90053 v 6.5432 l -3.271599,6.54253 9.814798,-3.2716 3.271599,9.8148 6.542533,3.2716 3.271599,-3.2716 9.8148,9.81413 h 6.54253 l 6.5432,-6.54253 h 6.5432 l 3.2716,3.2716 3.2716,-3.2716 v -3.2716 l 3.2716,-3.2716 v -3.2716 h 22.90053 l 13.0864,-13.0864 v 16.358 l 13.08573,-13.0864 v -3.2716 l -6.54253,-9.81413 v -3.2716 l 3.2716,-6.5432 29.44239,-19.62893 h 9.8148 v -6.5432 l -3.2716,-6.54252 V 98.146015 l -3.2716,-3.2716 3.2716,-3.2716 3.2716,3.2716 6.54253,-3.2716 3.2716,-13.08573 9.8148,-3.2716 h 3.2716 l 6.54253,-6.5432 h 13.0864 l 3.2716,-3.2716 9.8148,-3.2716 13.08573,-6.54253 9.8148,-3.2716 6.54253,-3.2716 19.6296,-19.62893 13.08573,-19.6296003 h 16.33001 l 3.2716,6.5432003 v 3.2716 l 3.2716,6.5432 h 9.8148 l 9.8148,-3.2716 v -6.5432 l 6.54253,-6.5432003 h 3.2716 l 6.5432,3.2716003 3.2716,3.2716 6.54253,-3.2716 9.8148,-3.2716003 6.5432,-3.2716 V 2.4741209e-5 h 6.54253 L 500.55004,32.716025 h 9.8148 l 6.5432,-3.2716 h 19.61559 l 3.27094,6.5432 v 6.54319 l 3.2716,6.54254 h 16.35799 l 3.2716,3.2716 v 6.5432 z"
     style="clip-rule:evenodd;fill:#000000;fill-rule:nonzero;stroke:none;stroke-width:6.81639px"
     id="path1300" />
</svg>
