<?xml version="1.0" encoding="UTF-8" standalone="no"?>
<svg
   xmlns:dc="http://purl.org/dc/elements/1.1/"
   xmlns:cc="http://creativecommons.org/ns#"
   xmlns:rdf="http://www.w3.org/1999/02/22-rdf-syntax-ns#"
   xmlns:svg="http://www.w3.org/2000/svg"
   xmlns="http://www.w3.org/2000/svg"
   xmlns:sodipodi="http://sodipodi.sourceforge.net/DTD/sodipodi-0.dtd"
   xmlns:inkscape="http://www.inkscape.org/namespaces/inkscape"
   version="1.0"
   width="1024pt"
   height="1024pt"
   viewBox="0 0 1024 1024"
   preserveAspectRatio="xMidYMid meet"
   id="svg2211"
   sodipodi:docname="vector.svg"
   inkscape:version="1.0.2-2 (e86c870879, 2021-01-15)">
  <defs
     id="defs2215" />
  <sodipodi:namedview
     pagecolor="#ffffff"
     bordercolor="#666666"
     borderopacity="1"
     objecttolerance="10"
     gridtolerance="10"
     guidetolerance="10"
     inkscape:pageopacity="0"
     inkscape:pageshadow="2"
     inkscape:window-width="1366"
     inkscape:window-height="697"
     id="namedview2213"
     showgrid="false"
     inkscape:zoom="0.1940918"
     inkscape:cx="1266.7524"
     inkscape:cy="760.26375"
     inkscape:window-x="-8"
     inkscape:window-y="-8"
     inkscape:window-maximized="1"
     inkscape:current-layer="svg2211"
     fit-margin-top="0"
     fit-margin-left="0"
     fit-margin-right="0"
     fit-margin-bottom="0" />
  <metadata
     id="metadata2205">
Created by potrace 1.10, written by Peter Selinger 2001-2011
<rdf:RDF>
  <cc:Work
     rdf:about="">
    <dc:format>image/svg+xml</dc:format>
    <dc:type
       rdf:resource="http://purl.org/dc/dcmitype/StillImage" />
    <dc:title></dc:title>
  </cc:Work>
</rdf:RDF>
</metadata>
  <path
     d="m 1023.9567,325.81728 -13.2991,13.29905 v 66.49527 h -13.29904 l -13.2991,13.29905 -13.299,13.29635 -26.5981,26.5981 -13.2991,-13.29905 v -26.5954 l 13.2991,-13.29905 h -13.2991 l -13.2991,-13.29905 h -13.299 v 26.5981 l -13.299,13.29635 -13.2991,13.29905 -26.5954,-13.29905 -13.299,-13.29635 v -26.5981 l 13.299,-13.29906 v -13.29905 l -13.299,-13.29905 v -13.29906 l -13.2991,-13.29905 h -13.299 l -13.2991,13.29905 -26.59809,26.59811 -13.29906,26.59811 -26.5981,13.29905 v 39.89445 l 13.29905,13.29905 -13.29905,13.29906 -39.89445,39.89716 -13.29906,26.59539 -13.29905,13.29906 H 651.5886 l 13.29905,26.5981 h 13.29905 v 13.29906 l 13.29906,13.29905 v 13.29634 l -13.29906,13.29906 v 39.89716 h 13.29906 v 79.79161 L 678.1867,764.6752 v 26.59811 l -26.5981,13.29906 v 26.5954 l -13.29905,26.5981 -13.29906,13.299 h -39.89445 l -13.29905,13.2991 h -26.59811 l -13.29905,-13.2991 -26.59811,-13.299 v -66.49256 h 13.29906 l -13.29906,-13.29906 h -13.29905 l -26.59811,26.59812 -13.29905,26.5954 h -13.24217 v -13.2964 h -13.29906 v -13.299 H 412.26523 L 398.96618,791.27331 385.66712,777.97425 V 764.6752 L 372.36807,751.37615 H 332.47091 L 319.17186,738.0798 h -13.29905 v -13.29905 l -26.5954,-26.59811 h -53.19622 l -13.29905,13.29906 h -26.5954 v -13.29906 h -26.5981 V 684.88359 L 146.28958,671.58454 H 132.99053 L 119.69148,658.28548 H 66.495275 V 644.98643 H 53.196215 V 618.38832 L 39.897165,605.09198 V 591.79293 H 26.598115 V 565.19482 H 13.299055 V 551.89577 H 4.7412114e-6 L 13.299055,512.00132 h 13.29906 v -13.29906 13.29906 h 26.5981 l 13.29906,-13.29906 26.5981,-13.29905 V 458.8051 l -13.29905,-39.89445 v -26.5981 l -13.29905,-13.29906 v -39.89716 h 13.29905 V 325.81728 L 66.495275,312.51823 V 299.21917 L 53.196215,285.92283 V 259.32472 L 39.897165,246.02567 26.595405,232.72665 V 219.4276 l 13.29905,13.29905 13.30176,-13.29905 26.5954,13.29905 13.29905,13.29902 v 39.89716 l 13.299055,13.29634 h 39.89716 l 13.29905,-13.29634 h 39.89445 l 26.59811,-13.29905 h 39.89445 l 53.19621,-13.29906 26.59811,-13.29905 26.59539,-13.29902 39.89716,-13.29905 v 53.19618 l 26.5954,13.29905 v 39.89445 l -13.29905,-13.29905 -13.29906,13.29905 13.29906,13.29905 v 13.29906 h 53.19621 l 13.29905,-13.29906 v -13.29905 l 13.29906,-13.29905 13.29905,-39.89445 h 39.89445 l 13.29905,13.29905 v 53.1935 h 66.49527 l 13.29905,26.59811 13.29906,13.29905 v 13.29906 h 39.89445 v -26.59811 l 13.29905,-13.29905 26.59811,-13.29906 39.89444,-39.89716 v -13.29634 l 26.5981,-13.29905 V 219.4276 l -13.299,-26.5954 v -13.29905 l 13.299,-13.29905 v -13.29906 h 26.5981 l 13.2991,-13.29905 v 26.59811 l 53.1935,26.5981 39.8971,26.5954 26.5954,13.29905 26.5981,39.89713 13.29914,26.59539 13.299,26.59811 z"
     style="clip-rule:evenodd;fill:#000000;fill-rule:nonzero;stroke:none;stroke-width:27.7086px"
     id="path1246" />
</svg>
