<?xml version="1.0" encoding="UTF-8" standalone="no"?>
<svg
   xmlns:dc="http://purl.org/dc/elements/1.1/"
   xmlns:cc="http://creativecommons.org/ns#"
   xmlns:rdf="http://www.w3.org/1999/02/22-rdf-syntax-ns#"
   xmlns:svg="http://www.w3.org/2000/svg"
   xmlns="http://www.w3.org/2000/svg"
   xmlns:sodipodi="http://sodipodi.sourceforge.net/DTD/sodipodi-0.dtd"
   xmlns:inkscape="http://www.inkscape.org/namespaces/inkscape"
   version="1.0"
   width="1024pt"
   height="1024pt"
   viewBox="0 0 1024 1024"
   preserveAspectRatio="xMidYMid meet"
   id="svg2211"
   sodipodi:docname="vector.svg"
   inkscape:version="1.0.2-2 (e86c870879, 2021-01-15)">
  <defs
     id="defs2215" />
  <sodipodi:namedview
     pagecolor="#ffffff"
     bordercolor="#666666"
     borderopacity="1"
     objecttolerance="10"
     gridtolerance="10"
     guidetolerance="10"
     inkscape:pageopacity="0"
     inkscape:pageshadow="2"
     inkscape:window-width="1366"
     inkscape:window-height="697"
     id="namedview2213"
     showgrid="false"
     inkscape:zoom="0.1940918"
     inkscape:cx="1266.7524"
     inkscape:cy="760.26375"
     inkscape:window-x="-8"
     inkscape:window-y="-8"
     inkscape:window-maximized="1"
     inkscape:current-layer="svg2211"
     fit-margin-top="0"
     fit-margin-left="0"
     fit-margin-right="0"
     fit-margin-bottom="0" />
  <metadata
     id="metadata2205">
Created by potrace 1.10, written by Peter Selinger 2001-2011
<rdf:RDF>
  <cc:Work
     rdf:about="">
    <dc:format>image/svg+xml</dc:format>
    <dc:type
       rdf:resource="http://purl.org/dc/dcmitype/StillImage" />
    <dc:title></dc:title>
  </cc:Work>
</rdf:RDF>
</metadata>
  <path
     d="m 989.83518,255.96305 -8.5335,17.0671 17.0655,8.53355 v 34.1342 l -17.0655,8.53181 -8.5336,17.0671 h -8.5335 v 25.60065 l -8.5336,8.53355 17.0655,8.53182 -8.5335,8.53355 8.5335,8.53355 -8.5335,17.0671 8.5335,8.53355 -8.5335,17.06536 h -8.5336 l -8.5335,8.53355 h -8.5336 l -8.5335,8.53355 -8.5336,8.53355 h -17.0655 v 8.53355 l -17.0671,17.0671 -8.5335,8.53355 -17.0671,17.0671 v 8.53181 l -8.5336,8.53355 h -8.5335 v 8.53355 h -8.5336 v 25.60066 h -25.5988 l -8.5335,-8.53356 -8.5336,8.53356 -8.5335,17.0654 -8.5336,8.5335 v 8.5336 l -8.5335,17.0671 h -17.0671 l -8.5336,-8.5336 v -8.5335 l -8.5335,-8.5336 h -17.0655 l -8.5335,8.5336 h -8.5336 v 17.0671 l -17.0671,17.0671 -8.5335,17.067 -8.5336,8.5335 -8.5335,17.0655 v 68.2665 l 8.5335,17.0671 v 8.5336 l 8.5336,8.5319 v 8.5336 l -8.5336,8.5335 h -17.0671 l -8.5335,8.5336 v 17.0671 l 8.5335,17.0671 v 8.5335 l 17.0671,17.0671 v 93.902 l -8.5335,17.0671 h -25.5988 l -8.5336,-8.5336 h -17.0671 l -8.5335,8.5336 -8.5336,8.5319 -8.5335,8.5336 h -8.5336 l -8.5335,8.53354 h -17.0671 l -8.5336,8.5336 -17.0655,8.5335 -8.4988,-8.5335 -8.5335,-17.06714 v -8.5336 l -8.5336,-8.5319 -8.5335,-17.0671 -8.5336,-8.5336 -17.0652,-17.0671 -8.5336,-17.0652 -17.0671,-17.0671 -8.5335,-8.5336 -8.5336,-8.5335 v -17.0671 h -17.0671 l -17.0671,8.5335 -8.5335,-8.5335 v -17.0671 l -8.5336,-8.5319 -17.0654,-17.0672 v -17.0671 l -8.5336,-8.5335 v -34.1323 l 8.5336,-8.5336 8.5335,-8.5335 8.5336,-8.5336 v -34.1326 l -8.5336,-8.5335 -8.5335,-17.0671 -8.5336,-17.0671 h -8.5335 v -17.0671 l -8.5336,-8.5317 h -17.0671 l -8.5335,8.5317 h -8.5336 l -17.0652,17.0671 h -8.5336 l -8.5335,-17.0671 v -42.6659 l 8.5335,-17.0671 8.5336,-8.5319 -8.5336,-17.06706 v -8.53355 h -8.5335 l -17.0671,-17.0671 v -17.0671 h -8.5336 l -8.5335,8.53355 -8.5336,8.53355 h -17.0655 l -8.5335,-25.60065 v -17.06536 l -17.0671,-8.53355 h -25.6007 l -17.0652,-8.53355 h -17.0671 l -8.5336,-8.53355 -17.065395,-8.53355 -8.5336,-8.53355 v -17.06537 h -8.5335 l -17.0324,-17.0671 -17.0652,-8.53355 -8.5336,-17.0671 v -34.1342 l 8.5336,-17.06536 8.5335,-8.53355 8.5336,-8.53355 v -17.0671 l 8.5335,-17.06536 h 17.0653 v -8.53355 l 8.5335,-17.0671 h 8.5336 l 17.067095,8.53355 h 8.5335 l 8.5336,8.53355 h 8.5335 l 8.5336,-8.53355 17.0671,8.53355 8.5335,17.06536 17.0655,8.53355 8.5336,-17.06536 h 17.0671 l 8.5335,-8.53355 v -25.60065 h 8.5336 V 247.466 l -8.5336,-17.06537 8.5336,-17.0671 h 17.0652 l 8.5336,-8.53355 h -8.5336 v -17.0671 l -8.5335,-8.53355 8.5335,-17.0671 17.0671,8.53355 v -17.0671 l 8.5336,-8.53181 -8.5336,-8.53355 v -17.0671 l -8.5335,-17.0671 8.5335,-8.531805 17.0671,17.065355 h 8.5336 l 17.0654,-17.065355 h 42.6659 l 8.5336,-17.0671 8.5335,-17.0671 8.5336,-8.53355 h 25.6006 v -34.1342 h 17.0655 L 426.69928,8.5335547 443.76638,4.7412117e-6 452.29988,17.065365 469.36698,4.7412117e-6 486.39748,17.065365 l -8.5336,17.0671 17.0655,8.53355 8.5336,25.60065 17.0671,8.53355 8.5335,8.53355 -34.1342,51.199555 25.6007,8.53355 8.5335,-8.53355 8.5336,17.06536 h 17.0671 l 17.0652,-17.06536 8.5336,8.53355 -17.0653,25.59891 8.5336,17.0671 17.0652,-17.0671 8.5336,8.53355 8.5335,-8.53355 h 17.0671 l 8.5336,-8.53355 v -42.66601 l 17.0655,17.0671 17.0671,-34.1342 v -8.531805 l 8.5335,-34.1342 17.0652,8.53355 17.0671,25.60065 h 17.0671 l 17.0655,17.065355 25.6007,-42.666005 h 8.5335 v -25.60065 h 17.0653 l 25.6006,17.0671 v 17.0671 l 17.0671,-8.53355 v 17.0671 l 17.0655,8.53355 v 17.065355 l -17.0655,17.0671 v 25.59891 l -17.0671,8.53355 -8.5335,34.1342 h 25.6006 l 17.0655,17.0671 v 25.60066 h 17.0671 l 8.5336,8.53181 8.5335,17.0671 h 8.5336 l 34.1323,-25.59891 59.6985,17.06536 z"
     style="clip-rule:evenodd;fill:#000000;fill-rule:nonzero;stroke:none;stroke-width:17.7797px"
     id="path1324" />
</svg>
