<?xml version="1.0" encoding="UTF-8" standalone="no"?>
<svg
   xmlns:dc="http://purl.org/dc/elements/1.1/"
   xmlns:cc="http://creativecommons.org/ns#"
   xmlns:rdf="http://www.w3.org/1999/02/22-rdf-syntax-ns#"
   xmlns:svg="http://www.w3.org/2000/svg"
   xmlns="http://www.w3.org/2000/svg"
   xmlns:sodipodi="http://sodipodi.sourceforge.net/DTD/sodipodi-0.dtd"
   xmlns:inkscape="http://www.inkscape.org/namespaces/inkscape"
   version="1.0"
   width="1024pt"
   height="1024pt"
   viewBox="0 0 1024 1024"
   preserveAspectRatio="xMidYMid meet"
   id="svg2211"
   sodipodi:docname="vector.svg"
   inkscape:version="1.0.2-2 (e86c870879, 2021-01-15)">
  <defs
     id="defs2215" />
  <sodipodi:namedview
     pagecolor="#ffffff"
     bordercolor="#666666"
     borderopacity="1"
     objecttolerance="10"
     gridtolerance="10"
     guidetolerance="10"
     inkscape:pageopacity="0"
     inkscape:pageshadow="2"
     inkscape:window-width="1366"
     inkscape:window-height="697"
     id="namedview2213"
     showgrid="false"
     inkscape:zoom="0.1940918"
     inkscape:cx="1266.7524"
     inkscape:cy="760.26375"
     inkscape:window-x="-8"
     inkscape:window-y="-8"
     inkscape:window-maximized="1"
     inkscape:current-layer="svg2211"
     fit-margin-top="0"
     fit-margin-left="0"
     fit-margin-right="0"
     fit-margin-bottom="0" />
  <metadata
     id="metadata2205">
Created by potrace 1.10, written by Peter Selinger 2001-2011
<rdf:RDF>
  <cc:Work
     rdf:about="">
    <dc:format>image/svg+xml</dc:format>
    <dc:type
       rdf:resource="http://purl.org/dc/dcmitype/StillImage" />
    <dc:title></dc:title>
  </cc:Work>
</rdf:RDF>
</metadata>
  <path
     d="m 1013.0218,397.5127 1.5683,3.13662 3.1366,1.56831 H 1024 l -1.5683,3.13662 -4.705,3.13662 h -3.1366 l -3.1363,3.13662 -4.7049,9.40954 -3.1366,4.70462 -1.5683,6.27324 -1.568,1.56799 1.568,3.13662 v 6.27324 h 3.1366 l 3.1366,3.13662 4.7046,-1.56831 6.2732,3.13662 v 4.70461 l -3.1366,3.13662 -4.7046,3.13663 v 4.70461 l 3.1363,3.13662 -1.5683,3.13662 -1.568,3.13662 -1.5683,1.56831 -3.1366,-3.13662 -3.1366,-1.56831 -3.1363,-1.56831 -1.56836,3.13662 h -1.56831 l -1.56831,1.56831 v 1.56831 l 4.70498,1.56799 v 9.40986 l -3.13667,3.1363 -4.70493,1.56831 h -10.97784 l -3.13662,1.56831 h -3.13662 l -3.13632,3.13662 h -10.97817 l -6.2729,3.1363 -1.56832,1.56831 -1.56831,1.56831 h -4.70463 l -3.13662,7.84156 -1.56831,3.13662 -1.56831,3.1363 h -6.2729 l -4.70493,1.56831 -4.70493,-1.56831 h -6.27295 l -1.56192,1.56831 -3.13628,1.56831 h -7.84155 l -4.70493,1.56831 h -3.13633 l -4.70493,-4.70493 -3.13662,1.56831 -4.70459,1.56831 -3.13662,1.56831 h -10.97787 l -3.13662,-1.56831 h -3.13663 l -3.13628,1.56831 -4.70493,4.70461 -4.70463,1.56831 v 4.70493 l -1.56831,4.70493 v -3.13662 l -1.56831,-1.56831 h -3.13662 l -9.40984,6.27324 -1.56799,1.56832 h -3.13024 l -3.1363,3.1363 h -3.13662 v 3.13662 l -1.56831,1.56831 -3.1363,1.56831 -3.13662,1.56831 -1.56831,1.56799 -1.56831,1.56831 h -3.13662 l -21.95571,-1.56831 h -12.54584 l -3.13662,1.56831 h -4.70494 l -1.56799,1.56831 h -4.70493 l -4.70492,1.56831 -6.27293,3.13662 -4.69822,1.56799 -3.13662,3.13662 -3.13662,1.56831 -1.56831,4.70494 -1.56831,3.13662 -4.70493,1.56831 -3.13631,1.56799 -1.56831,-1.56799 h -3.13662 l -3.13662,3.1363 -1.56799,1.56831 h -4.70493 l -6.27292,-1.56831 h -1.56831 l -4.70493,4.70493 h -6.27325 l 1.56831,-3.13662 v -3.13662 l -1.56831,-1.56799 V 571.591 l 1.56831,-1.56831 v -3.13663 l -1.56831,-1.56831 -3.1363,-1.56831 -1.56831,-3.13662 h -6.27324 l -1.56831,1.56831 -4.70461,6.27324 -3.13662,-1.56831 -1.56831,1.56831 -6.27324,-1.56831 -3.13631,4.70494 -4.69822,-1.56831 -4.70493,4.70493 1.56831,3.1363 v 3.13662 h -3.13662 l -4.70461,3.13662 -3.13662,1.56831 -3.13662,1.56799 -3.13662,1.56831 -1.56832,1.56831 1.56832,3.13662 v 3.13662 l -1.56832,4.70493 -4.70461,4.71132 -3.13662,4.70462 -3.13662,4.70493 -1.56831,4.70461 3.13662,3.13662 h 1.56831 l -1.56831,7.84123 h -6.27292 l -3.13662,1.56831 -1.56831,3.13662 h -7.84155 l -3.13631,3.13662 -3.13662,3.13663 -3.13662,-1.56832 -3.13629,6.27293 -3.13662,4.70492 -1.56832,3.13662 -6.27292,4.70462 -4.70493,4.70493 -4.69822,6.27324 -3.13662,1.56831 -3.13662,4.70461 h -3.13631 l -1.56831,3.13662 v 3.1363 l -3.13662,1.56831 h -3.13662 l -3.13662,3.13663 v 3.13662 l -1.56831,3.1363 h -3.13662 l -1.56799,1.56831 -3.13662,3.13662 v 6.27324 l 1.56831,4.70462 v 6.27324 l -3.13662,3.13662 -1.56831,3.13628 h -3.1363 l -4.70493,1.56831 -3.13663,9.40986 -1.56831,3.13632 -1.56799,1.56831 v 3.13663 l 3.1363,3.13662 -1.56831,3.13628 v 3.13662 l -4.70461,4.70493 -1.56831,4.70463 h -7.84155 l -3.1363,4.70493 -3.13662,1.56831 -3.13662,4.70493 -3.13662,3.13628 -3.13631,4.70494 -1.56831,4.70463 H 498.662 l -1.56831,3.13662 -3.13662,1.56831 -3.12991,3.13662 -3.13662,4.70493 v 1.56831 l -1.56831,3.13628 h -12.54585 l -3.13662,3.13662 h -6.27324 l -3.13662,-3.13662 h -4.70461 l -3.13662,-3.13628 -10.97785,-6.27324 -14.11384,-9.40956 -14.11415,-10.97784 -7.83485,-7.84155 -4.70493,-3.13662 -6.27292,-1.56831 -3.13662,-4.70463 -4.70461,-4.70493 -1.56831,-4.70459 -3.13662,3.13628 -1.56831,-3.13628 -6.27324,4.70459 -4.70461,-4.70459 -6.27292,4.70459 -10.97818,7.84155 -9.40954,-14.11416 -14.11416,7.84156 -14.10712,-14.11416 -10.97786,7.84155 -3.13662,-4.70493 -12.54616,7.84155 -32.9342,-37.63881 -7.84123,7.84156 -14.10713,-15.68309 12.54617,-9.40954 -17.2511,-17.2511 -9.40954,4.70493 -9.40954,-9.40954 -12.54617,6.27292 -10.97785,-15.6831 -1.56831,1.56831 -21.95571,14.11383 9.40954,17.2511 -4.70461,3.13662 4.70461,7.84123 -3.13662,3.13663 -1.56799,4.70459 -1.56831,1.56831 -6.27324,3.13662 -1.56799,-6.27324 -1.56832,-6.27291 -1.56831,-1.56831 h -3.13662 l -6.26653,1.56831 -9.40954,3.13663 -4.70493,1.56797 -4.70462,3.13662 h -4.70492 l -1.56831,1.56831 h -1.56831 v 1.56831 l -4.70494,1.56831 -3.13662,-3.13662 v -3.13662 l 1.56831,-1.56831 v -1.56797 l 1.56831,-1.56832 v -4.70493 l -1.56831,-3.13662 -4.70461,-4.70461 h -1.56831 l -4.70493,1.56831 h -3.136295 l -3.13662,1.56831 -4.70493,1.56799 v 1.56831 h -1.56799 l -1.56831,-1.56831 -1.56831,-1.56799 -1.56832,-1.56831 -1.56831,-1.56831 -3.13662,-1.56831 -6.27292,-3.13662 -3.13662,-1.56831 h -10.96508 v -3.13663 l -1.56799,-1.56831 -3.13662,-1.56799 h -3.13662 v 1.56799 l -1.56831,3.13663 v 3.13662 l -4.70461,-1.56831 -4.70493,-3.13663 -10.97786,9.40987 v 3.13662 l -6.27324,6.27292 v 3.13662 l -1.56799,1.56832 -3.13662,1.56797 -4.70493,3.13662 h -3.1363 l -3.1366203,-1.56831 -3.13662,-3.13628 v -4.70494 l 3.13662,-3.13662 1.56831,-1.56831 4.7046103,-3.1363 1.56831,-1.56831 v -1.56831 l -4.70461,-3.13662 -1.5683103,-3.13662 1.5683103,-1.56832 v -1.56831 l 1.56799,-1.56799 -4.7046103,-7.84155 h -3.13662 l -1.56831,-3.1363 3.13662,-1.56831 3.13662,-3.13662 4.7046103,-3.13662 1.56831,-3.1363 -3.13662,-4.70493 -4.7046103,-4.70494 -4.70493,-6.27291 L 4.7412115e-6,639.03281 1.5683147,635.89619 l 3.13662,-1.56799 4.70493,-6.27324 3.1363003,-3.13662 4.70493,-3.13662 1.56831,-1.56831 1.56831,-3.1363 1.56831,-3.13662 3.1363,-4.70493 3.13662,-3.13631 3.13662,-1.56831 h 12.54617 l 3.13662,-1.56831 1.56831,-1.56831 1.56799,-1.56831 v -3.1363 l -1.56799,-3.13662 1.56799,-4.70493 1.56831,-3.13662 3.13662,-1.56831 3.13662,-3.1363 3.1363,-6.27324 4.70494,-6.27293 4.70493,-7.84155 v -3.13662 l 4.70461,-4.70461 4.70493,-3.13662 3.13662,-1.56831 h 6.27292 l 3.13662,1.56831 h 9.409545 l 1.56831,1.56831 1.56831,3.13662 h 1.56831 l 4.70493,1.56799 h 3.1363 l 1.56831,3.13662 v 1.56831 l 3.13662,1.56831 20.38771,-10.97785 3.13662,-3.13662 12.53946,-7.84124 -4.70461,-9.40954 -4.70493,-7.84155 34.50187,-26.66 3.1363,1.56799 48.6106,-34.50155 -20.38772,-28.22958 -10.97785,3.13662 -7.84155,-7.84123 -20.38772,12.54616 -1.56831,6.27324 -6.27324,6.27292 -1.568,-3.13662 -1.56831,-1.56831 -4.70493,-6.27292 -4.70461,-3.13662 -4.69854,-4.70493 -9.40954,6.27324 -6.27293,-6.27324 7.84124,-9.40955 -4.70494,-6.27292 14.11416,-12.55287 7.84123,-6.27292 9.40954,-20.38804 12.54649,3.13662 6.27292,-1.56831 h 6.27293 l 3.13662,-1.56831 3.13662,-1.56799 v -7.84155 l -1.56831,-3.1363 v -9.40986 l -1.56831,-1.56831 v -3.13663 l 1.56831,-1.56799 1.56831,-4.70493 3.13662,-9.40954 v -1.56831 h 3.13662 l 4.70461,-1.56831 h 3.13662 l 1.56831,-1.56831 4.70461,-3.1363 1.56832,-4.70493 v -6.27324 l 1.56831,-4.70461 v -21.95571 l -3.13663,-3.1363 v -1.56831 l -1.56799,-1.56831 v -3.13662 l -1.56831,-4.70462 -1.56831,-1.56831 -3.13662,-3.13662 -1.56831,-3.13662 v -3.13662 l 1.56831,-4.70461 v -3.13662 l 1.56831,-4.70461 1.56831,-3.13662 3.13662,-6.27324 3.13631,3.13662 h 9.40315 l 3.13662,3.13662 4.70493,3.1363 1.56831,3.13662 1.56799,3.1363 1.56831,4.70493 h 1.56831 l 1.56831,3.13662 h 9.40955 l 3.13662,1.56831 17.25077,15.68311 4.70494,7.84123 4.7046,3.1363 6.27324,4.70493 3.13663,6.27292 3.13662,3.13662 -3.13662,3.13662 -3.13663,4.70494 6.27325,9.40954 4.70461,-1.56831 3.13662,-4.70493 10.97146,9.40954 10.97786,-4.70461 7.84123,4.70461 3.13662,4.70493 1.56799,4.70493 12.54649,-4.70493 7.84123,9.40986 1.56831,7.84123 3.13662,4.70462 1.56799,1.56831 26.66031,-17.25078 -3.13662,-4.70493 -1.56831,-3.1363 -1.56799,-3.13662 1.56799,-7.84123 1.56831,-9.40987 3.13662,-6.27292 3.13662,-7.84155 1.56831,-4.70461 3.12992,-1.56831 v -4.70493 l -7.84123,-4.70461 -4.70494,-4.70494 -4.70493,-1.56831 9.40987,-12.54616 4.70461,-3.13662 18.81876,-21.95539 9.40955,-7.84155 6.27324,-6.27292 3.1363,-7.84155 25.09264,4.70493 53.31489,9.40954 21.95571,3.13662 12.54616,3.13662 1.56831,-4.70493 3.1363,-3.13662 3.13662,-1.56831 3.13663,1.56831 h 4.70493 l 3.1363,1.56831 3.13662,-1.56831 3.12991,1.56831 h 9.40986 l 18.81845,20.38772 15.6831,14.11415 1.56831,1.56831 10.97786,12.54616 12.54616,12.54617 36.06411,31.36493 28.22959,21.95538 36.06411,26.66032 14.11384,9.40986 6.27323,4.70462 36.06955,25.09264 20.38771,14.11384 7.83485,4.70493 3.13662,1.56831 4.70493,4.70461 3.13662,-1.56799 h 1.56799 l 3.13662,3.1363 1.56831,1.56831 1.56831,-1.56831 3.13662,-1.56831 3.13628,-1.56799 h 28.2229 l 3.13628,-1.56831 h 9.40957 l 4.70493,-1.56831 3.13662,1.56831 3.13662,-4.70493 1.56831,-3.13662 3.13628,-3.1363 6.26656,-3.13662 3.13662,-3.13662 1.56831,-1.56831 h 6.2729 l 6.27324,-3.13663 6.27324,1.56831 1.56801,3.13663 1.56832,4.70493 1.56831,-3.13662 1.56831,-1.56831 1.56831,-1.56831 h 4.70459 l 3.13662,-1.56832 3.13662,-1.56831 1.56831,-1.56831 1.56831,-3.1363 v -1.56831 l 1.56831,-3.13662 h 6.27294 l 3.13662,-1.56831 h 1.56831 l 4.70459,1.56831 h 3.13663 l 1.56831,-1.56831 1.56831,-1.56831 3.13632,1.56831 h 1.56831 l 4.70493,-4.70461 v -6.27324 h 1.56831 l 3.12989,-1.56831 h 6.27326 l 3.1363,1.56831 1.5683,1.56831 h 4.705 z"
     style="clip-rule:evenodd;fill:#000000;fill-rule:nonzero;stroke:none;stroke-width:3.26758px"
     id="path1236" />
</svg>
