<?xml version="1.0" encoding="UTF-8" standalone="no"?>
<svg
   xmlns:dc="http://purl.org/dc/elements/1.1/"
   xmlns:cc="http://creativecommons.org/ns#"
   xmlns:rdf="http://www.w3.org/1999/02/22-rdf-syntax-ns#"
   xmlns:svg="http://www.w3.org/2000/svg"
   xmlns="http://www.w3.org/2000/svg"
   xmlns:sodipodi="http://sodipodi.sourceforge.net/DTD/sodipodi-0.dtd"
   xmlns:inkscape="http://www.inkscape.org/namespaces/inkscape"
   version="1.0"
   width="1024pt"
   height="1024pt"
   viewBox="0 0 1024 1024"
   preserveAspectRatio="xMidYMid meet"
   id="svg2211"
   sodipodi:docname="vector.svg"
   inkscape:version="1.0.2-2 (e86c870879, 2021-01-15)">
  <defs
     id="defs2215" />
  <sodipodi:namedview
     pagecolor="#ffffff"
     bordercolor="#666666"
     borderopacity="1"
     objecttolerance="10"
     gridtolerance="10"
     guidetolerance="10"
     inkscape:pageopacity="0"
     inkscape:pageshadow="2"
     inkscape:window-width="1366"
     inkscape:window-height="697"
     id="namedview2213"
     showgrid="false"
     inkscape:zoom="0.1940918"
     inkscape:cx="1266.7524"
     inkscape:cy="760.26375"
     inkscape:window-x="-8"
     inkscape:window-y="-8"
     inkscape:window-maximized="1"
     inkscape:current-layer="svg2211"
     fit-margin-top="0"
     fit-margin-left="0"
     fit-margin-right="0"
     fit-margin-bottom="0" />
  <metadata
     id="metadata2205">
Created by potrace 1.10, written by Peter Selinger 2001-2011
<rdf:RDF>
  <cc:Work
     rdf:about="">
    <dc:format>image/svg+xml</dc:format>
    <dc:type
       rdf:resource="http://purl.org/dc/dcmitype/StillImage" />
    <dc:title></dc:title>
  </cc:Work>
</rdf:RDF>
</metadata>
  <path
     d="m 542.47437,128.02247 v 6.09525 l 6.09525,12.18925 6.09524,6.09524 v 18.28574 h 12.18925 l 12.1905,6.09525 6.09524,6.094 v 6.09525 l -6.09524,6.09524 v 12.19049 l 12.18924,12.19049 6.09525,18.28574 v 18.2845 l 6.09525,6.09524 -6.09525,12.19049 -6.09525,6.09525 h -6.09524 l -6.09525,6.094 v 6.09525 l -6.09524,6.09524 v 18.28574 l 6.09524,6.09524 v 12.1905 l 6.09525,12.18925 6.09524,12.19049 6.09525,6.09524 v 6.09525 l 12.19049,6.09524 18.28574,18.2845 h 6.09524 v 18.28573 l 12.18925,6.09525 6.09525,6.09525 6.09524,6.094 h 12.19049 l 6.09523,-12.18925 -6.09523,-12.19049 6.09523,-6.09525 v -12.19049 l 6.09525,-12.18925 6.09524,-6.09524 h 6.09525 l 6.09525,-6.09525 6.09524,6.09525 h 6.09525 v 6.09524 h 6.09524 l 6.09528,6.09525 h 24.3797 l 6.0953,6.094 6.0952,6.09525 6.0952,12.19049 6.0953,12.19049 12.1905,6.09525 h 6.0952 l 12.1905,12.18925 -18.2857,18.28573 6.0952,12.19049 18.2858,6.09525 12.1892,12.19049 12.1905,6.094 6.0952,6.09525 6.0953,12.19049 h 6.0952 l 12.1892,12.19049 h 12.1905 l 12.1894,-6.09524 v 12.18924 l 18.2857,6.09525 12.1905,6.09525 v 18.28573 l 6.0691,12.19049 -6.0953,24.37974 -12.1891,12.19049 -6.0953,18.28572 v 18.2845 l -6.0952,6.09525 v 48.76072 l -6.0953,12.19049 -6.0952,6.09524 -12.1905,6.09525 -6.0952,12.18925 -6.0953,6.09525 v 18.28573 l 24.381,12.19049 6.0952,6.09401 -6.0952,12.19049 6.0952,18.28573 -6.0952,6.09525 6.0952,12.19049 v 12.18925 l -6.0952,12.19049 v 12.19049 l -12.1905,6.09525 h -6.0952 l -12.1906,6.09524 v 6.09401 l -6.0952,12.19049 v 12.19049 l -24.3798,12.19049 -6.0952,12.18925 -18.2857,12.19051 -12.1893,12.1905 -6.0952,6.0952 -12.1905,12.1905 v 12.1893 l -6.0953,12.1904 -12.1892,12.19053 h -36.57149 l -18.2845,12.1893 -12.19049,-24.37983 6.09525,-12.1904 6.09524,-12.1893 -24.38096,-12.1905 h -12.18925 v -12.1905 l -12.19049,-6.0952 h -12.19049 l -12.16443,6.0952 h -6.09524 l -12.18925,-6.0952 -6.09525,-6.09526 H 572.9506 l -12.18925,-6.09525 h -12.19049 l -6.09525,12.19051 -6.09524,12.1905 -6.09525,6.0952 -12.19049,6.0953 -6.09524,-6.0953 v -24.38096 l -6.09525,-12.1905 v -36.57023 l -6.09524,-6.09524 h -18.28574 l -18.2845,6.09524 h -12.19049 l -12.18925,-12.18925 -6.09524,-18.28573 h -18.28574 l -6.09524,-12.19049 v -12.18925 l -18.28574,-6.09525 -12.18925,6.09525 -12.19049,6.094 -6.09525,-12.18925 v -18.28574 l 6.09525,-12.19049 6.09525,-24.37974 -6.09525,-12.19049 h -12.19049 l -6.09525,-12.19049 v -18.28449 l -12.18925,-12.1905 -12.19049,12.1905 -18.28449,6.094 -6.09649,-6.094 h -24.35491 l -12.18925,6.094 h -12.19049 l -6.09525,-6.094 v -18.28574 l -6.09524,-18.28574 -6.09525,-18.28573 -18.28449,-18.2845 V 615.6297 l -18.28574,-12.19049 h -6.09525 l -12.19049,-12.18925 -12.18925,-6.09525 h -12.19049 l -12.18925,-6.09524 -6.09524,-12.19049 v -18.28574 l 6.09524,-12.19049 v -6.09525 l -12.19049,-12.18924 h -12.19049 l -6.09525,6.09524 -12.18924,-12.19049 h 6.09524 l 6.09525,-6.09525 6.09524,-6.09524 h 6.09525 l 6.09524,-6.09525 v -6.094 h 48.76073 l 12.19049,-6.09525 v -6.09524 l 6.09524,-6.09525 6.09525,-18.28573 v -18.28574 l 6.09524,-12.18925 v -36.57023 l 6.09525,-18.28574 v -42.66548 l -6.09525,-12.19049 6.09525,-12.19049 v -12.19049 l 6.09524,-12.18925 -6.09524,-6.09524 v -18.28574 l 6.09524,-6.09525 6.09525,-6.094 6.09524,-6.09524 v -6.09525 l 6.09525,-12.19049 v -12.19049 l 6.09525,-12.19049 v -24.37974 l -6.09525,-6.09525 -6.09525,-6.09525 v -12.19049 h 6.09525 l 6.09525,-6.094 h 6.09524 l 12.18925,-12.19049 v -12.19049 l -6.09524,-6.09525 v -6.093995 l -6.09525,-12.21656 v -6.09525 l 6.09525,-6.094 18.28573,-18.28574 6.09525,-6.09524 6.09524,-6.09525 12.18925,-6.095245 V 30.474965 L 310.8898,18.284474 h 6.09525 L 329.17554,12.19047 V -5.2587883e-6 L 347.46004,24.379719 h 12.19049 l 6.09524,6.095246 -6.09524,12.19049 v 36.57023 l 6.09524,6.09525 6.09525,-18.2845 6.09524,-6.09524 h 18.2845 v 6.09524 l -6.09525,12.18925 v 6.09525 l 18.28574,6.09524 12.19049,6.09525 12.18925,18.285735 24.38098,24.37974 h 6.09525 l 6.09524,12.19049 h 6.09525 l 6.09524,6.094 v 6.09525 h 12.18925 l 6.09525,-6.09525 v -6.094 l 6.09524,-18.28574 6.09525,-6.09524 h 12.19049 l 12.19049,-6.09525 h 6.09525 v 6.09525 z"
     style="clip-rule:evenodd;fill:#000000;fill-rule:nonzero;stroke:none;stroke-width:12.6995px"
     id="path1344" />
</svg>
