<?xml version="1.0" encoding="UTF-8" standalone="no"?>
<svg
   xmlns:dc="http://purl.org/dc/elements/1.1/"
   xmlns:cc="http://creativecommons.org/ns#"
   xmlns:rdf="http://www.w3.org/1999/02/22-rdf-syntax-ns#"
   xmlns:svg="http://www.w3.org/2000/svg"
   xmlns="http://www.w3.org/2000/svg"
   xmlns:sodipodi="http://sodipodi.sourceforge.net/DTD/sodipodi-0.dtd"
   xmlns:inkscape="http://www.inkscape.org/namespaces/inkscape"
   version="1.0"
   width="1024pt"
   height="1024pt"
   viewBox="0 0 1024 1024"
   preserveAspectRatio="xMidYMid meet"
   id="svg2211"
   sodipodi:docname="vector.svg"
   inkscape:version="1.0.2-2 (e86c870879, 2021-01-15)">
  <defs
     id="defs2215" />
  <sodipodi:namedview
     pagecolor="#ffffff"
     bordercolor="#666666"
     borderopacity="1"
     objecttolerance="10"
     gridtolerance="10"
     guidetolerance="10"
     inkscape:pageopacity="0"
     inkscape:pageshadow="2"
     inkscape:window-width="1366"
     inkscape:window-height="697"
     id="namedview2213"
     showgrid="false"
     inkscape:zoom="0.1940918"
     inkscape:cx="1266.7524"
     inkscape:cy="760.26375"
     inkscape:window-x="-8"
     inkscape:window-y="-8"
     inkscape:window-maximized="1"
     inkscape:current-layer="svg2211"
     fit-margin-top="0"
     fit-margin-left="0"
     fit-margin-right="0"
     fit-margin-bottom="0" />
  <metadata
     id="metadata2205">
Created by potrace 1.10, written by Peter Selinger 2001-2011
<rdf:RDF>
  <cc:Work
     rdf:about="">
    <dc:format>image/svg+xml</dc:format>
    <dc:type
       rdf:resource="http://purl.org/dc/dcmitype/StillImage" />
    <dc:title></dc:title>
  </cc:Work>
</rdf:RDF>
</metadata>
  <path
     d="m 263.8078,175.57167 -1.56115,1.5612 v 7.8054 l -1.56114,4.6834 -4.68343,3.1223 -3.12199,1.5611 -4.68343,1.5609 h -6.24424 v 1.5611 l -1.56114,3.1223 1.56114,3.1223 1.56115,4.6834 3.12195,4.6831 h 7.80571 l 3.12199,4.6835 3.12229,4.6831 1.56114,4.6834 v 4.6831 l -1.56114,3.1223 -1.56114,3.1223 1.56114,3.1223 1.56114,4.6834 3.12229,1.5608 3.12229,1.5612 4.68309,-1.5612 3.12228,-1.5608 h 4.68343 l 3.12199,3.122 9.36686,4.6834 h 4.68309 l 3.12229,3.1223 h 9.36656 l 4.68343,1.5608 1.56113,1.5612 h 1.56114 l 4.67675,1.5611 4.68343,1.5611 h 3.12197 l 6.24457,1.5612 1.56115,1.5611 h 3.12197 l 3.12228,1.5612 6.24458,1.5611 7.80539,3.1223 1.56115,3.122 1.56114,4.6834 1.56114,3.1223 1.56115,1.5608 h 10.92768 l 4.68311,1.5612 v 10.9276 l -3.12228,1.5612 -4.68311,3.1223 -3.12229,4.6834 -1.56114,6.2443 1.56114,4.6834 4.68343,4.6831 3.12197,3.1223 -1.56083,3.1223 v 3.1223 h 4.68311 l 9.36686,6.2442 h 3.12197 v 6.2446 h 1.56115 l 4.68343,-1.5612 4.68311,-1.5611 h 7.79268 l 1.56114,-1.5611 7.8054,-1.5612 6.24457,-1.5608 1.56083,1.5608 1.56114,3.1223 3.12229,6.2446 4.68343,4.6831 3.12228,-1.5612 1.56115,-4.6831 6.24425,-3.1223 -1.56114,-4.6834 1.56114,-4.6831 h 3.12229 l 3.12197,1.5611 4.68343,1.5612 3.12228,3.122 v 4.6834 l 1.56115,1.5611 4.68343,1.5612 4.68311,3.1219 3.12228,1.5612 v 6.2442 l 3.12229,1.5612 7.8054,1.5678 6.2379,1.5611 1.56114,1.5609 v 1.5611 l 1.56114,6.2446 3.12229,6.2445 3.12197,3.122 v 4.6835 l -1.56114,4.6831 -3.12197,1.5611 -1.56115,1.5611 -4.68343,1.5612 v 20.2945 l -1.56114,9.3666 v 1.5611 l 6.24457,3.1223 7.8054,3.122 3.12229,3.1223 v 10.928 l -1.56114,6.2442 -4.68343,6.2443 -1.56083,6.2446 v 6.2445 l -1.56114,7.8054 h 9.36654 l 3.12229,1.5612 4.68311,1.5611 h 3.12228 l 3.12229,-3.1223 3.12229,3.1223 4.68311,1.5611 4.68343,3.122 7.8054,1.5612 7.8054,-4.6832 3.12228,-3.1222 h 1.56115 l 6.24457,3.1222 v 9.3666 l 1.56114,1.5608 v 4.6834 l 1.56083,6.2446 3.12228,4.6834 7.8054,3.122 7.79936,3.1223 7.8054,3.1223 1.56114,1.5608 1.56114,1.5612 1.56083,1.5611 3.12228,6.2446 1.56115,7.8054 7.8054,1.5611 12.48914,3.1223 6.24426,1.5612 4.68343,-1.5612 4.68311,1.5612 3.12229,3.1219 h 6.24457 l 6.24426,1.5612 3.12228,3.1222 6.2379,4.6835 4.68311,6.2442 1.56114,3.1287 v 3.1223 h 3.12229 l 9.36654,-3.1223 1.56115,1.5611 4.68343,1.5612 3.12228,3.1223 4.68311,3.1223 1.56115,3.1222 v 12.4886 l 1.56114,6.2445 4.68343,6.2446 3.12229,6.2442 4.68311,6.2443 4.68343,7.8057 7.8054,7.8054 6.24425,-1.5611 h 7.80572 l 4.68343,1.5611 4.67675,1.5611 h 7.8054 l 4.68343,1.5612 3.12229,3.1223 6.24425,3.1223 7.8054,1.5608 h 6.24457 l 4.68311,3.1223 4.68343,1.5611 h 4.68343 l 3.12229,-4.6834 4.68311,-9.3666 1.56115,-1.5611 1.56114,-1.5611 h 10.92768 l 14.04298,-6.2443 v -3.1223 h 1.56114 l 3.12229,1.5612 3.12197,-1.5612 v -3.1222 l 1.56114,-3.122 3.12229,-1.5612 4.68311,1.5612 6.24457,-1.5612 1.56115,3.122 v 6.2446 l 3.12228,6.2442 4.68312,7.8057 -1.56115,1.5612 -1.56082,3.1223 1.56082,3.122 3.12229,3.1222 1.56114,3.1223 4.68343,-1.5611 1.56083,4.6831 1.56114,6.2445 3.12229,3.1223 h 3.12229 l 1.56114,-3.1223 3.12197,-4.6834 3.12228,-1.5611 h 4.68343 l 1.56114,3.1223 3.12229,4.6834 3.12197,1.5611 h 7.80571 l 9.36019,3.1223 -1.56115,3.122 -1.56114,7.8057 1.56114,1.5612 9.36655,4.6831 v 1.5611 l -1.56115,4.6834 4.68343,4.6832 6.24426,4.6834 3.12229,1.5611 1.56114,-1.5611 6.24425,-4.6834 v 1.5611 l -1.56114,3.1223 1.56114,1.5611 3.12229,-3.1222 4.68343,-1.5612 3.12197,1.5612 1.56114,1.5611 1.56115,3.1223 v 4.6831 l 3.12228,6.2445 4.68311,1.5612 1.56115,4.6831 v 6.2446 l 3.12228,3.1223 v 4.6831 l 3.12229,1.5611 -1.56114,3.1223 -1.56115,6.2443 -1.56114,7.8057 1.56114,9.3665 1.56115,6.2446 3.12228,4.6898 4.68343,1.5611 3.12197,1.5609 1.56115,3.1223 4.68343,3.1222 3.12196,3.1223 4.68341,1.5608 h 3.1156 l 3.1223,4.6835 3.1223,4.6834 1.5612,3.1223 4.6831,1.5611 3.1222,1.5609 3.1223,1.5611 1.5612,4.6834 v 3.1223 h -7.8057 l -4.6831,1.5608 -3.1223,3.1223 v 6.2443 l -1.5612,4.6834 -10.92766,4.6835 -24.97766,7.8053 -18.73277,4.6835 -15.61143,6.2442 h -9.36654 l -3.11561,-1.5611 -3.12229,-3.122 -3.12229,-4.6834 -3.12228,-3.122 -1.56115,-6.2445 -4.68311,-3.1223 -6.24457,-1.5612 -7.8054,-1.5611 -4.68343,1.5611 -6.24425,3.1223 -15.61143,6.2446 -7.80572,4.6831 -6.24426,3.1223 -1.56114,4.6831 -1.56114,4.6834 -4.68311,3.1223 -3.12229,1.5612 h -4.67707 l -1.56083,-1.5612 v -3.1223 l -3.12228,-4.6834 -4.68343,-4.6831 -4.68312,-1.5612 h -3.12228 l -4.68343,-1.5611 -4.68343,1.5611 -6.24426,-3.1223 h -4.68343 l -6.24425,-4.6831 v -3.1222 l 1.56114,-3.1223 v -3.1223 l -1.56114,-1.5612 -3.12229,-3.1219 -3.12197,-3.1223 -4.68343,-1.5612 -3.12228,1.5612 -3.12229,1.5611 -6.24426,-1.5611 h -6.24457 l -3.12197,1.5611 -4.68343,1.5612 -4.67675,-1.5612 -4.68343,-1.5611 h -4.68343 l -6.24426,-3.1223 h -6.24425 l -4.68343,-1.5612 h -3.12229 l -3.12228,-3.1219 v -6.2446 l 1.56114,-3.122 v -3.1223 l -3.12229,-1.5611 -6.24425,-3.1223 -3.12229,1.5612 -3.12228,3.1222 h -1.56083 l -3.12229,-3.1222 -1.56114,-3.1223 -1.56114,-4.6835 -3.12229,1.5612 -4.68343,1.5611 h -3.12197 l -9.36654,-6.2442 -4.68343,-1.5612 -4.67675,3.1223 -3.12229,-1.5611 -3.12229,-3.1223 -3.12228,-3.1223 -6.24426,-3.122 -4.68311,-1.5611 -6.24457,-1.5612 -4.68343,-1.5611 -3.12229,-4.6834 h -3.12197 l -1.56114,3.1223 -1.56114,4.6834 -1.56115,1.5611 -3.12228,3.122 -1.56083,3.1223 v 9.3665 l -1.56114,1.5612 -3.12229,1.5611 h -4.68343 l -1.56083,1.5612 -3.12228,3.1222 -1.56115,6.2443 -3.12228,9.3665 -3.12229,4.6835 -3.12229,4.6831 -4.68311,1.5611 v 9.3669 l -1.56114,3.1223 -3.12229,4.6831 -1.56114,4.6834 -1.55447,4.6831 -1.56114,4.6835 -4.68343,1.5611 v 3.1223 l -1.56114,4.6831 -1.56082,3.1223 h -4.68343 l -6.24426,-1.5612 h -9.36686 l -3.12229,-3.1219 -3.12197,3.1219 -3.12228,1.5612 -1.56115,3.1223 h -3.12228 l -3.12197,-1.5612 -9.36686,9.3666 -3.12197,1.5611 -3.12229,1.5612 -4.68343,1.5611 -1.56114,6.2443 v 4.6834 l -1.56114,6.2446 -3.12197,4.6831 -3.12229,3.1223 -4.68343,1.5611 -4.67675,3.122 -6.24457,1.5611 -4.68312,3.1223 -6.24457,1.5611 -3.12197,3.1223 -1.56114,-3.1223 -1.56114,-3.1222 h -4.68312 l -3.12228,-1.5612 -1.56115,-1.5611 -4.68343,-1.5609 -3.12228,-3.1222 -4.68312,-1.5612 -4.68343,-1.5611 -6.24425,-3.1223 -6.24457,-1.5608 -1.56115,-1.5612 -1.56114,-4.6834 v -3.1223 l -1.56114,-3.1223 h -6.24426 l -3.12229,-3.1219 -1.56114,-4.6835 -1.56114,-1.5611 -4.67675,1.5611 h -9.36654 l -9.36655,-7.8054 -4.68343,-4.6834 v -1.5612 l 1.56115,-1.5611 h 4.68343 l 1.56082,-1.5608 v -4.6834 l -1.56082,-3.1223 -3.12229,-4.6835 v -1.5611 h 1.56114 l 4.68312,-1.5608 v -4.6835 l -3.12197,-3.1223 h -1.56115 l -3.12228,1.5612 h -6.24426 l -1.56114,-3.122 v -3.1223 l -4.68343,-6.2445 v -3.1223 l 3.12229,-3.1223 v -3.122 l -1.56115,-6.2446 -1.56114,-7.8053 -1.56114,-4.6832 -1.56115,-6.2445 -4.68343,-1.5612 -3.12197,-3.1223 -3.12228,-4.6831 v -4.6834 l -4.68343,-7.8054 -6.24426,-9.3669 -1.56114,-4.6831 -1.56114,-7.8057 h -6.24426 l -4.68343,1.5612 -1.56114,-3.1223 v -3.122 l -4.68343,-1.5612 -4.67676,-1.5611 h -4.68311 l -3.12228,-3.1223 -3.12229,-3.1219 -3.12227,-3.1223 -1.56114,-4.6835 -3.12199,-4.6834 h -9.36652 l -6.24457,-1.5611 h -4.68314 v -4.6832 l 1.56085,-1.5611 -1.56085,-3.1223 -1.56114,-3.1219 h -4.68343 l -3.12229,-1.5612 -4.68343,-1.5611 -3.12194,3.1223 -1.56115,1.5611 1.56115,4.6831 v 7.8054 l -28.09393,6.2446 -1.5608,1.5611 -6.24458,-4.6834 -4.68313,-1.5611 -4.68343,7.8057 -4.68309,4.6831 -6.24457,4.6834 -4.68343,3.1223 h -9.36657 l -6.24423,-1.5612 -7.80572,-1.5611 -7.80542,-3.1223 -1.56114,1.5612 -4.68343,3.1222 -3.12229,1.5612 h -17.15222 l -7.80538,1.5611 v -4.6834 l -3.12229,-3.1223 -4.68313,1.5612 -7.80572,1.5611 -1.5608,4.6834 -3.12229,4.6832 -4.68343,9.3665 -24.97766,-4.6831 -10.928,-7.8057 -1.56114,-1.5609 -1.56085,1.5609 1.56085,-3.122 v -4.6834 l -1.56085,-3.1223 -3.12229,-1.5608 -1.56114,-3.1223 -1.55444,-4.6835 v -3.1222 l -1.56115,-4.6832 1.56115,-7.8057 v -7.8054 l 1.56114,-4.6834 1.5608,-3.1223 1.56115,-4.6831 v -6.2446 l 1.56114,-4.6831 1.56114,-1.5611 -1.56114,-3.1223 -1.56114,-1.5612 h -1.56115 l 1.56115,-9.3665 -9.36652,-4.6834 -4.68314,-3.122 -3.12228,-4.6834 -4.68343,-6.2443 -9.36653,-4.6834 -3.12233,-3.1223 -1.5611,-1.5612 -3.1223,-6.2442 v -12.4888 l 3.1223,-3.1223 1.5611,-4.6835 3.12233,-6.2442 3.12195,-4.6834 3.12229,-3.1223 4.68343,-12.4952 v -3.1223 l 3.12229,-4.6831 v -6.2446 l -1.56115,-4.6834 -4.68343,-4.6831 -3.12228,-4.6835 -3.12195,-3.1223 1.5608,-1.5608 3.12229,-1.5611 1.56114,-1.5611 3.12229,-7.8055 v -6.2445 l -1.56114,-6.2446 1.56114,-9.3665 v -6.2443 l 1.56114,-4.6834 1.56115,-7.8058 1.56114,-3.1219 1.56114,-4.6834 3.12199,-3.1223 3.12229,-3.122 3.12229,-3.1223 1.56114,-4.6831 v -14.0496 l -3.12229,-6.2446 -3.12228,-6.2443 -4.68314,-10.9277 -3.12228,-9.3665 -4.68343,-6.2446 -3.12229,-10.9277 -4.68309,-9.3665 -4.68348,-14.0497 -3.1222,-3.1219 -6.2443,-4.6835 -3.1223,-4.6897 -3.1223,-3.1223 -3.1223,-3.1223 -4.6831,-4.6834 -10.9277,-3.122 -4.6834003,-1.5612 v -6.2442 l 3.1223003,-4.6834 3.1223,-3.1223 v -1.5612 l -3.1223,-6.2442 -3.1223003,-3.1223 -1.5611,-3.1223 -3.122,-4.6831 H -1.0258789e-5 L 1.5611897,327.00647 l 3.1219,-4.6835 3.1223,-3.1219 3.1223003,-4.6835 3.1223,-1.5611 3.122,-4.6834 h 7.8057 l 1.5608,-4.6832 4.6834,-4.6834 v -3.1223 l 1.5612,-3.1219 -3.1223,-3.1223 v -3.1223 l 1.5611,-1.5612 1.5612,-3.1222 3.1222,-9.3666 4.6835,-1.5611 h 3.122 l 1.5611,-3.122 3.12229,-3.1223 v -6.2442 l -1.56119,-4.6835 v -6.2445 l 4.68348,-4.6835 h 3.12195 l 1.56114,-3.1219 v -3.1223 l 3.12229,-3.1223 h 3.12228 l 3.12229,-1.5608 v -3.1223 l 1.56114,-3.1223 h 3.12199 l 3.12229,-4.6834 3.12229,-1.5612 4.68309,-6.2442 4.68343,-4.6835 6.24427,-4.6831 1.56115,-3.1223 3.12228,-4.6834 3.12229,-6.2443 3.12229,1.5609 6.24423,-6.2443 h 7.80542 l 1.56114,-3.1223 3.12229,-1.5611 h 6.24457 l 1.56115,-7.8118 h -1.56115 l -3.12228,-3.1223 1.56114,-4.6834 3.12229,-4.6831 3.12194,-4.6834 4.68343,-4.6835 1.56115,-4.6831 v -3.1223 l -1.56115,-3.1222 1.56115,-1.5612 9.36656,-4.6831 4.68309,-3.1223 h 3.11593 v -3.1223 l -1.56114,-3.1223 4.68343,-4.6831 4.68313,1.5609 3.12229,-4.6832 6.24423,1.5612 1.56114,-1.5612 3.12229,1.5612 4.68343,-6.2446 1.56114,-1.5608 h 6.24428 l 1.56114,3.122 3.12229,1.5611 1.56114,1.5611 v 3.1223 l -1.56114,1.5609 v 3.1222 l 1.56114,1.5612 v 3.1223 l -1.56114,3.1223 h 6.24423 l 4.68343,-4.6835 h 1.56115 l 6.24427,1.5612 h 4.68343 l 1.56115,-1.5612 3.12228,-3.1223 h 3.12195 l 1.56114,1.5612 3.12229,-1.5612 4.68343,-1.5611 1.56085,-3.122 1.55478,-4.6834 3.12229,-1.5611 3.12228,-3.122 4.6831,-1.5612 6.24457,-3.12225 4.68313,-1.56114 h 4.68343 l 1.56115,-1.56114 h 4.68309 l 3.12228,-1.56115 h 7.80572 v 3.12229 l 1.56085,4.68339 v 4.6832 l -1.56085,4.6834 1.56085,4.6831 -1.56085,1.5611 -1.56114,4.6835 -1.56115,3.1223 1.56115,4.6834 1.56114,6.2442 3.12199,3.1223 1.56114,3.122 -1.56114,1.5611 -4.68313,6.2446 -6.24458,7.8054 -4.68343,6.2446 -3.12194,3.122 -3.12229,1.5611 z"
     style="clip-rule:evenodd;fill:#000000;fill-rule:nonzero;stroke:none;stroke-width:3.25265px"
     id="path1557" />
</svg>
