<?xml version="1.0" encoding="UTF-8" standalone="no"?>
<svg
   xmlns:dc="http://purl.org/dc/elements/1.1/"
   xmlns:cc="http://creativecommons.org/ns#"
   xmlns:rdf="http://www.w3.org/1999/02/22-rdf-syntax-ns#"
   xmlns:svg="http://www.w3.org/2000/svg"
   xmlns="http://www.w3.org/2000/svg"
   xmlns:sodipodi="http://sodipodi.sourceforge.net/DTD/sodipodi-0.dtd"
   xmlns:inkscape="http://www.inkscape.org/namespaces/inkscape"
   version="1.0"
   width="1024pt"
   height="1024pt"
   viewBox="0 0 1024 1024"
   preserveAspectRatio="xMidYMid meet"
   id="svg2211"
   sodipodi:docname="vector.svg"
   inkscape:version="1.0.2-2 (e86c870879, 2021-01-15)">
  <defs
     id="defs2215" />
  <sodipodi:namedview
     pagecolor="#ffffff"
     bordercolor="#666666"
     borderopacity="1"
     objecttolerance="10"
     gridtolerance="10"
     guidetolerance="10"
     inkscape:pageopacity="0"
     inkscape:pageshadow="2"
     inkscape:window-width="1366"
     inkscape:window-height="697"
     id="namedview2213"
     showgrid="false"
     inkscape:zoom="0.1940918"
     inkscape:cx="1266.7524"
     inkscape:cy="760.26375"
     inkscape:window-x="-8"
     inkscape:window-y="-8"
     inkscape:window-maximized="1"
     inkscape:current-layer="svg2211"
     fit-margin-top="0"
     fit-margin-left="0"
     fit-margin-right="0"
     fit-margin-bottom="0" />
  <metadata
     id="metadata2205">
Created by potrace 1.10, written by Peter Selinger 2001-2011
<rdf:RDF>
  <cc:Work
     rdf:about="">
    <dc:format>image/svg+xml</dc:format>
    <dc:type
       rdf:resource="http://purl.org/dc/dcmitype/StillImage" />
    <dc:title></dc:title>
  </cc:Work>
</rdf:RDF>
</metadata>
  <path
     d="m 687.09788,33.35542 v 10.00662 l 10.0066,10.00594 v 6.67108 l -3.3355,6.67108 -10.0067,10.00594 10.0067,13.34216 10.0066,16.67702 v 6.67108 l -10.0066,16.67703 -10.0067,13.34216 -6.6704,13.34148 -6.6711,6.67108 -6.6711,3.33554 -3.3355,6.67108 -3.3355,10.00594 3.3355,6.67108 v 6.67108 l -3.3355,3.33554 -3.3349,3.33554 -6.671,3.33486 h -26.6836 l -6.6711,3.33554 -6.6711,6.67108 -6.6711,10.00662 -3.3349,6.67108 -3.3355,6.6704 -3.3356,3.33554 -10.0066,6.67108 -6.6711,6.67109 -10.0059,13.34148 -6.671,3.33554 -3.3356,6.67108 6.6711,10.00594 10.0059,13.34215 10.0066,10.00662 6.6711,10.00594 -3.3355,6.67108 -10.0067,6.67108 -6.671,6.6704 -6.6704,3.33554 3.3355,6.67108 h 6.6704 l 10.0066,16.67771 -3.3355,3.33486 v 3.33554 l -3.3356,3.33554 3.3356,6.67108 10.0066,6.67108 v 3.33486 l -3.3355,3.33554 -10.0067,6.67108 -10.0059,10.00662 v 10.00594 l 6.6704,6.67108 6.6711,3.33554 h 6.6711 l 10.0066,-6.67108 6.6704,-3.33554 3.3356,-3.33554 v -6.6704 l 13.3421,-13.34216 v -6.67108 l 23.3481,-20.01256 10.0066,6.67108 10.0059,3.33554 v -6.67108 l 3.3355,-6.67108 v -3.33486 h 6.6711 l 6.6711,3.33486 3.3349,3.33554 v 6.67108 h 23.3481 l 6.671,3.33554 20.0133,10.00594 3.3355,3.33554 3.3349,3.33554 3.3356,3.33554 3.3355,3.33554 h 3.3355 v -3.33554 l 10.0067,-3.33554 6.6703,-3.33554 h 6.6711 l 10.0066,-3.33554 h 3.3356 l 10.0059,10.00662 3.3356,6.67108 v 10.00594 l -3.3356,3.33554 v 3.33554 l -3.3349,3.33554 v 6.67108 l 6.6705,6.67108 10.0066,-3.33554 v -3.33554 h 3.3356 l 3.3355,-3.33554 h 10.0059 l 10.0066,-6.67108 10.0066,-3.33554 19.9983,-6.67108 13.3422,-3.33486 h 6.6704 l 3.3356,3.33486 3.3355,13.34216 3.3356,13.34216 3.3355,10.00595 3.3355,6.6711 6.6711,10.0066 10.0059,13.3414 36.6903,43.3614 10.0059,-10.0066 6.6711,3.3355 v 10.0067 l -3.3355,6.671 v 20.0126 l -6.6711,10.006 h -3.3348 l -3.3356,6.671 -6.6711,6.6711 -6.671,3.3356 -6.6711,6.671 -6.6711,6.6704 -6.6705,3.3355 -6.671,6.6711 -10.0067,-6.6711 -20.0125,20.0126 -10.0066,3.3356 -10.006,6.6711 h -3.3355 v 3.3355 l -6.6711,3.3355 h -10.0059 l -3.3355,10.0202 -3.3356,10.0067 -3.3355,10.0059 -3.3356,6.671 v 6.6711 l 6.6711,3.3356 3.3356,6.6704 3.3355,6.6711 3.3348,3.3355 v 6.6711 h 6.6711 l 3.3355,3.3348 v 6.6711 l -3.3355,6.6711 h -10.0059 l -3.3355,3.3355 -16.6771,26.6837 v 16.677 h -10.0066 l -6.6711,-3.3356 -3.3355,3.3356 -3.3356,3.3355 -3.3355,10.0066 h -6.6711 l -3.3348,10.0067 -6.6711,6.6704 -3.3355,10.0066 -10.006,-6.671 -6.6711,3.3355 -3.3355,-6.6711 -10.0067,-3.3349 v -3.3355 l -3.3355,-3.3356 -6.6711,6.6711 -10.0059,-13.3422 6.6711,-23.348 -10.0066,-6.6711 h -10.0066 l -10.006,10.0066 h -9.9931 l -3.3355,-3.3355 -3.3348,-6.6711 -6.6711,-6.6711 -6.6711,-6.6704 -6.6704,-6.6711 -3.3356,-10.0066 -3.3355,-3.3356 -6.6711,-10.0066 -3.3355,-3.3348 -3.3356,-3.3355 h -3.3348 l -6.6711,-3.3356 h -6.671 l -6.6711,3.3356 h -13.3415 l -10.0066,6.6703 -6.6711,6.6711 -13.3415,3.3355 h -3.3355 v 10.0067 l 3.3355,3.3355 v 10.006 l -3.3355,6.6711 -6.6711,3.3355 v 6.6711 l 6.6711,3.3355 v 3.3348 l -13.3422,6.6711 -10.0059,6.6711 v 10.0066 l -6.6711,10.006 -6.671,3.3356 h -3.3356 l -10.006,10.0066 h -10.0066 l -6.6568,3.3355 -6.671,3.3356 h -16.6771 l -6.6711,6.6703 v -3.3355 h -6.6711 l -3.3355,-6.6704 v -3.3355 l -6.6704,-3.3356 -6.671,-3.3355 -10.0067,-3.3355 -10.0066,3.3355 -6.6704,3.3355 -3.3356,3.3356 -6.6711,3.3355 -3.3355,13.3415 v 13.3415 l -6.6711,10.0066 -3.3348,6.6711 -3.3355,6.6711 v 13.3414 l -3.3356,6.6711 -3.3355,6.6711 v 10.0059 l 3.3355,6.6711 -10.0066,10.0066 h -3.3349 l -6.6711,-3.3355 -3.3355,3.3355 -6.6711,3.3356 -3.3355,3.3355 -6.6711,3.3356 h -3.3356 v -6.6711 l -3.3355,-3.3356 -6.6704,-3.3355 -3.3355,3.3355 -6.6711,3.3356 -3.3213,6.6711 -3.3355,6.6703 h -3.3356 l -3.3355,3.3356 -3.3356,6.671 3.3356,6.6711 v 10.006 l -3.3356,3.3356 v 23.348 l 3.3356,6.67105 h -16.677 l 3.3348,6.6711 v 10.006 l -6.6703,3.3355 -6.6711,-3.3355 v 3.3355 h -3.3356 l -3.3355,3.3355 -6.6704,-3.3355 -3.3356,-10.006 v -6.6711 h -3.3355 l -3.3356,-3.3355 v -6.67105 l -3.3355,-6.6711 3.3355,-10.0059 v -10.0066 l 3.3356,-6.6711 h 3.3355 l 3.3356,-3.3349 3.3355,-3.3355 v -3.3356 l 3.3349,-3.3355 3.3355,-6.6711 v -10.0059 h -10.0059 v 6.6704 l -3.3356,6.6711 -3.3355,-6.6711 -6.6711,-6.6704 v -10.0066 h 3.3355 v -13.3422 l 3.3356,-3.3355 v -3.3349 l 6.6711,-3.3355 v -23.3481 l 3.3355,-6.6711 v -10.0066 l -6.6711,3.3355 h -3.3355 l -3.3356,-3.3355 v -3.3355 h -10.0059 l -3.3355,-3.3356 v -6.6704 l 6.6704,-3.3356 3.3355,-3.3355 3.3355,-3.3355 6.6711,-3.3356 3.3356,-3.3355 v -6.6704 l 3.3355,-3.3355 v -6.6711 l -6.6711,-6.6711 h -3.3355 v -6.6704 l -3.3356,-3.3356 -3.3355,-3.3355 -3.3355,-6.6711 h 3.3355 l 3.3355,-3.3355 6.6711,-3.3356 3.3356,-10.0059 3.3355,-3.3355 v -6.6711 l -3.3355,-3.3355 v -6.6711 l -6.6711,-3.3349 -10.0066,-3.3356 h -6.6704 l -3.3355,-3.3355 -3.3356,-3.3355 -3.3355,-6.6711 3.3355,-6.6711 3.3356,-6.6711 3.3355,-6.6703 6.6704,-6.6711 3.3355,-6.6711 h 10.0066 v -3.3355 l 3.3356,-3.3349 v -6.6711 h -3.3356 l -3.3355,-3.3356 h -3.3356 l -3.3355,-3.3355 -6.6704,3.3355 -3.3355,3.3356 -3.3355,6.6711 v 3.3349 h -10.0067 l -6.671,3.3355 v 3.3355 l -3.3356,3.3356 h -6.6704 l -3.3356,-6.6711 h -3.3355 l 3.3355,-6.6704 v -3.3356 h 10.006 v -6.6711 l -3.3355,-3.3355 -3.3349,-3.3355 h -10.0066 l -3.3356,-3.3356 3.3356,-6.6703 -3.3356,-3.3356 h -6.6711 l -3.3348,3.3356 h -3.3355 l -6.6711,-6.6711 3.3355,-6.6711 -6.671,-6.6711 -6.6711,3.3356 -6.6711,3.3355 -6.6704,-3.3355 -3.3356,3.3355 -3.3355,3.3355 -10.0067,-3.3355 -6.6567,-3.3355 -6.6711,-3.3356 v -6.6711 l -3.3349,-6.6704 3.3349,-3.3355 v -3.3356 l -3.3349,-3.3355 h -10.0066 l -6.6711,3.3355 h -20.0125 l -6.671095,10.0066 h -3.3355 v -10.0066 l -6.6711,-3.3355 -6.6705,-6.6704 h -10.0066 l -3.3355,-6.6711 6.671,-3.3355 3.3356,-10.0066 -6.6711,-10.0066 -3.3355,-3.3356 -6.6711,-3.3349 -3.3356,-6.6711 -3.3355,-3.3355 v -3.3355 l 16.6777,-16.677 6.6705,-3.3356 v -6.671 l 3.3355,-6.6705 h 13.3422 l 6.670295,-13.3422 v -6.671 l 3.3356,-6.6711 6.671,-3.3348 3.3356,-6.6711 10.0066,-3.3355 6.6711,-3.3356 h 6.6704 l 3.3356,3.3356 v 3.3355 l 6.671,10.0059 10.0059,3.3355 h 16.6777 l 3.3349,6.6711 v 13.3422 l 6.6711,3.3355 6.6711,-3.3355 h 3.3355 l 6.6711,-3.3356 6.6711,-6.6711 20.0125,-13.3421 6.6705,-6.6704 h 16.6777 l 6.671,-3.3355 v 3.3355 l 3.3356,-3.3355 v -3.3355 l -10.0066,-16.6771 -3.3356,-13.3421 -3.3355,-6.67112 -3.3356,-3.33554 -10.0059,-10.00594 -6.6711,-10.00662 -3.3356,-3.33554 -10.0066,-10.00594 -10.0059,-13.34217 -6.6711,-6.6704 -3.3355,-10.00662 -6.6711,-3.33554 h -6.6711 l 6.6711,-10.00662 v -6.67108 l 6.6711,-6.6704 10.0066,-3.33554 3.3356,3.33554 h 6.6703 v -3.33554 l 6.6711,-3.33554 3.3355,-10.00594 h 10.0067 v -10.00662 l 10.0059,3.33554 6.6711,3.33554 6.6711,-3.33554 3.3355,-10.00662 6.6711,-3.33554 13.3415,-3.33554 v 3.33554 l 10.0066,6.67108 h 6.6704 l 3.3356,6.67108 10.0066,6.67108 6.6703,-13.34216 h 19.9991 l 3.3355,6.67108 13.3422,3.33554 3.3355,-10.00662 h 6.6704 v -10.00662 h 3.3355 l 6.6711,6.67108 3.3355,6.67108 3.3356,3.33554 6.671,3.33554 v 3.33554 l 6.6705,-3.33554 3.3355,-10.00662 3.3356,-6.67108 3.3355,-10.00662 V 300.2061 l 6.6711,-3.33553 v -6.67109 l -6.6711,3.33554 -3.3355,-10.00594 6.6711,-13.34216 h 3.3355 l 3.3355,-6.67108 10.0059,-10.00594 -10.0059,-16.69129 36.6896,-33.3554 10.0066,-6.67108 10.0067,-10.00662 v -3.33554 l -3.3356,-6.6704 -3.3355,-3.33554 -3.3356,-6.67108 v -6.67108 h 10.0067 l 10.0059,-6.6704 6.671,-3.33554 6.6705,-6.67108 h 3.3355 l 3.322,-3.33554 3.3355,-3.33554 6.6711,-6.67108 6.6704,-3.33554 3.3355,-3.33486 3.3355,-3.33555 h -6.671 l -3.3349,-3.33554 -6.671,3.33554 h -16.6777 l -3.3356,-3.33554 -6.6704,-10.00662 V 96.72864 l -3.3356,-10.00662 v -3.33554 l 3.3356,-6.67108 3.3349,-3.33554 3.3355,-6.6704 v -6.67108 h 6.6711 l 3.3355,3.33554 3.3356,6.6704 h 3.3355 l 13.3415,13.34216 v 3.33554 h 6.671 l 6.6711,-3.33554 6.6705,-6.67108 10.0066,-3.33554 6.6711,-10.00594 6.6703,-3.33554 h 20.0133 v 3.33554 l 6.671,-3.33554 3.3356,-10.00662 6.6704,-10.00594 10.0066,-10.00662 6.6711,-3.33554 10.0059,-3.33486 3.3356,-3.33554 10.0066,-6.67108 20.0125,-6.6710803 3.3355,-6.671079958789 6.6711,10.006620258789 3.3356,6.67108 h 3.3349 l 6.671,3.33554 6.6568,3.33554 z"
     style="clip-rule:evenodd;fill:#000000;fill-rule:nonzero;stroke:none;stroke-width:6.94961px"
     id="path1314" />
</svg>
