<?xml version="1.0" encoding="UTF-8" standalone="no"?>
<svg
   xmlns:dc="http://purl.org/dc/elements/1.1/"
   xmlns:cc="http://creativecommons.org/ns#"
   xmlns:rdf="http://www.w3.org/1999/02/22-rdf-syntax-ns#"
   xmlns:svg="http://www.w3.org/2000/svg"
   xmlns="http://www.w3.org/2000/svg"
   xmlns:sodipodi="http://sodipodi.sourceforge.net/DTD/sodipodi-0.dtd"
   xmlns:inkscape="http://www.inkscape.org/namespaces/inkscape"
   version="1.0"
   width="1024pt"
   height="1024pt"
   viewBox="0 0 1024 1024"
   preserveAspectRatio="xMidYMid meet"
   id="svg2211"
   sodipodi:docname="vector.svg"
   inkscape:version="1.0.2-2 (e86c870879, 2021-01-15)">
  <defs
     id="defs2215" />
  <sodipodi:namedview
     pagecolor="#ffffff"
     bordercolor="#666666"
     borderopacity="1"
     objecttolerance="10"
     gridtolerance="10"
     guidetolerance="10"
     inkscape:pageopacity="0"
     inkscape:pageshadow="2"
     inkscape:window-width="1366"
     inkscape:window-height="697"
     id="namedview2213"
     showgrid="false"
     inkscape:zoom="0.1940918"
     inkscape:cx="1266.7524"
     inkscape:cy="760.26375"
     inkscape:window-x="-8"
     inkscape:window-y="-8"
     inkscape:window-maximized="1"
     inkscape:current-layer="svg2211"
     fit-margin-top="0"
     fit-margin-left="0"
     fit-margin-right="0"
     fit-margin-bottom="0" />
  <metadata
     id="metadata2205">
Created by potrace 1.10, written by Peter Selinger 2001-2011
<rdf:RDF>
  <cc:Work
     rdf:about="">
    <dc:format>image/svg+xml</dc:format>
    <dc:type
       rdf:resource="http://purl.org/dc/dcmitype/StillImage" />
    <dc:title></dc:title>
  </cc:Work>
</rdf:RDF>
</metadata>
  <path
     d="m 924.09043,121.506 3.3304,1.66521 4.9953,4.99527 -3.3301,3.33041 h -1.6652 l -1.6652,3.33041 -3.3304,6.66048 h -3.3304 v 1.6652 l -1.6652,3.33041 -1.6652,1.6652 v 1.66521 l -3.3301,1.6652 v 1.66487 l -4.9956,4.99561 -1.6652,3.33041 v 4.99528 l 3.3304,3.3304 v 1.66521 l 1.6652,3.33041 -1.6652,3.33041 -1.6652,1.6652 -1.6652,1.66487 v 1.6652 h -1.6652 v 3.33041 l 3.3304,1.6652 9.9909,1.66521 1.6652,1.6652 v 3.33007 l 3.3304,3.33041 h 1.6652 l 1.6652,3.33041 -1.6652,1.66487 -1.6652,1.6652 v 4.99561 l 1.6652,1.66521 4.9956,8.32568 3.3301,3.33041 1.6652,3.33041 1.6652,3.33041 -1.6652,4.99527 v 3.33041 l 1.6652,3.33041 3.3304,4.99561 3.3304,3.33007 v 13.3213 h 1.6649 l 1.6652,3.33041 v 3.33041 l 3.3304,3.33006 3.3304,14.98616 1.6652,3.33041 3.3304,8.32568 h 8.3257 l 4.9956,1.66521 11.6558,-3.33007 6.6608,3.33007 3.3304,3.33041 3.3304,3.33041 1.6652,3.33007 4.99527,1.6652 3.3304,1.66521 4.9953,1.6652 3.3304,3.33041 1.6652,4.99527 1.6652,3.33041 3.3304,3.33041 1.6652,3.33041 1.6648,6.66048 -1.6648,4.99561 v 6.66048 l -3.3304,3.33719 1.6652,4.99562 -1.6652,1.6652 v 3.33041 l -1.6652,3.33041 -8.3257,3.33007 -3.3304,3.33041 -4.9956,1.6652 h -6.66047 l -9.9912,6.66048 -13.321,4.99561 -6.6608,3.33041 -6.6605,4.99528 -1.6652,6.66081 -1.6652,6.66082 -3.3304,4.99528 -8.3257,4.9956 -1.6652,4.9953 -9.9909,11.6564 -4.9956,6.6605 -1.6652,1.6652 h -1.6652 l -8.3257,4.9953 -3.3304,11.6561 -1.6652,3.3304 -1.6652,1.6652 h -4.9953 l -1.6652,3.3304 -13.3213,6.6608 -1.6652,1.6649 -3.3304,1.6652 -3.3304,8.326 -1.6652,3.3301 1.6652,3.3304 v 8.326 l 1.6652,3.3301 v 4.9956 l 4.9956,3.3304 h 1.6652 l 1.6652,4.9953 v 3.3304 h 3.3301 l 3.3304,3.3304 3.3304,1.6648 4.9953,-1.6648 1.6652,4.9952 -3.3301,4.9957 3.3301,1.6652 h 8.326 v 3.3304 l 1.6649,9.9909 h -1.6649 l -1.6652,1.6652 1.6652,9.9909 -4.9956,9.9909 -1.6652,5.0027 -1.6652,3.3301 -6.6605,1.6652 -8.3257,3.3304 -3.3304,6.6604 -1.6652,3.3304 -1.6652,4.9957 -1.6652,1.6648 h -4.9956 l -6.6605,3.3305 -8.3189,1.6652 -4.9956,3.3304 -3.3304,1.6652 -4.9953,4.9956 -1.6652,4.9952 h -13.3213 l -9.9909,4.9956 -3.3304,9.991 -1.6652,1.6652 h -4.9956 l -4.9953,-1.6652 -3.3304,1.6652 -1.6652,-1.6652 -1.6649,-1.6652 -4.9956,1.6652 -1.6652,4.9956 -6.6608,6.6604 -1.6652,6.6608 -4.9952,8.3258 -3.3305,6.6604 -1.6652,3.3304 -4.9885,3.3304 -4.9952,3.3304 -1.6652,1.6652 -4.9956,1.6652 -3.3305,1.6649 -3.3304,3.3304 -4.9953,1.6652 -4.9956,3.3304 -1.6652,1.6652 v 3.3301 l -1.6648,3.3304 -1.6652,3.3304 -4.9956,3.3304 v 8.3257 l -3.3304,1.6652 -1.6653,3.3304 v 1.6652 l -3.3304,1.6649 -6.6605,1.6652 h -8.3256 l -1.6652,-3.3301 -3.3304,-3.3304 -6.6605,1.6652 h -16.6521 l -3.3236,1.6652 -4.9953,4.9953 -3.3304,4.9956 -3.3304,4.9953 -1.6652,3.3304 h -1.6652 l -6.6605,3.3304 -3.3304,1.6652 -3.3304,1.6652 -4.9953,1.6652 -3.3304,1.6652 -3.3304,-1.6652 -4.9953,-1.6652 h -3.3304 v -3.3304 h -1.6652 l -4.9956,1.6652 h -6.6605 l -8.326,1.6652 -3.3301,-1.6652 -3.3304,-3.3304 v 9.9909 l -3.3304,1.6652 v -1.6652 h -3.3304 v 14.9862 l -3.33,3.33 v 3.3304 l 3.33,1.6652 4.9956,1.6652 1.6652,1.6652 1.6652,1.6649 -3.3304,4.9956 -6.6604,3.3304 -3.3237,1.6652 h -1.6652 v 26.6569 l -3.3304,1.6652 h -1.6649 l -3.3304,3.33 v 3.3304 l 4.9953,4.9957 1.6652,1.6648 h 6.6608 l 1.6653,3.3304 h 8.3256 l 1.6652,3.3305 3.3304,3.3304 h 8.3257 l -1.6652,3.3304 v 3.33 l -3.3301,-1.6648 h -6.6608 l -4.9952,4.9952 -3.3304,3.3304 h -3.3305 l -3.3304,1.6652 -3.3304,3.3301 -1.6652,3.3304 -1.6649,1.6652 -3.3304,-1.6652 -3.3304,1.6652 -1.6652,3.3305 v 3.33 l -1.6652,4.9956 -6.6604,3.3304 v 3.3304 h -1.6653 l -1.6652,1.6652 -1.6652,3.3301 1.6652,3.3304 1.6652,1.6652 -1.6652,1.6653 v 1.6652 h -11.6561 l -3.3304,-1.6652 -1.6652,1.6652 v -1.6652 1.6652 h -3.33 v -1.6652 h -1.6652 v -1.6653 l -3.3304,-1.6652 v 1.6652 l -1.6652,1.6653 h -3.3301 l -1.6652,-1.6653 h -4.9957 v -1.6652 h -3.3304 v -1.6652 l -3.3304,-4.9953 v -1.6652 l -1.6652,-1.6652 -1.6648,-3.3304 v -1.6652 l -1.6652,-1.6652 -3.3304,-1.6652 -8.3257,-4.9952 -1.6652,-1.6652 h -8.3121 l -3.3304,-1.6653 h -1.6649 l -1.6652,1.6653 h -3.3305 l -1.6652,1.6652 -3.33,1.6648 h -3.3304 l -1.6652,1.6652 h -3.3304 l -1.6652,-1.6652 h -1.6652 l -3.3304,-1.6648 h -3.3301 l -1.6652,-1.6652 v -3.3305 h -1.6652 v -1.6652 h -1.6652 l -1.6653,1.6652 h -6.6604 l -1.6652,-1.6652 h -16.6521 l -3.3304,-1.6652 h -6.6605 l -3.3304,-1.6649 h -1.6652 l -3.3232,1.6649 h -1.6652 l -6.6609,6.6609 h -1.6649 v 1.6652 h -11.6563 l -3.3304,1.6648 -3.3301,3.3304 h -8.3261 l -1.6648,1.6652 -3.3304,1.6652 v 1.6652 h -6.6608 l -6.6605,1.6652 h -1.6652 v 1.6652 h -1.6652 v 3.3304 h -3.3305 l -1.6652,1.6652 v 1.6649 l -1.6652,1.6652 v 1.6652 h -3.33 l -1.6652,1.6652 h -1.6652 l -1.6652,1.6653 h -3.3304 l -1.6649,1.6652 v -1.6652 h -1.6652 l -1.6652,-1.6653 h -3.3304 l -3.3304,-1.6652 h -4.9885 l -1.6652,1.6652 -1.6652,3.3305 -1.6652,1.6648 h -4.9953 v -1.6648 h -1.6652 l -8.3257,-3.3305 -1.6652,-1.6652 h -3.3304 l -1.6652,1.6652 h -3.3304 l -1.6652,-1.6652 v -1.6652 l -1.6652,-1.6652 v -3.3301 l -1.6649,-1.6652 h -8.326 l -6.6605,1.6652 h -3.3304 l -1.6652,-1.6652 h -1.6652 v -1.6652 l -1.6652,-1.6652 v -1.6652 h -1.6652 l -8.3257,-3.3304 h -1.6652 l -1.6652,-1.6652 -1.6652,-3.3304 h -3.3301 v -1.6648 l -1.6652,-1.6652 v -1.6653 l -1.6652,-1.6652 h -4.9953 l -1.6652,-1.6652 -3.3236,-1.6652 h -1.6652 v -1.6649 h -1.6652 v -1.6652 h -1.6652 v -4.9956 l 1.6652,-1.6652 v -1.6652 l 1.6652,-1.6648 v -1.6652 l 1.6652,-1.6652 h -1.6652 v -1.6652 l -3.3304,-1.6652 -1.6649,-1.6652 v -1.6652 h -1.6652 v -1.6653 l -1.6652,-1.6652 v -3.33 h 1.6652 v -4.9957 h 1.6652 v -4.9956 l -1.6652,-1.6648 -3.3304,-4.9956 v -4.9956 l -1.6652,-1.6652 v -9.991 l -1.6652,-1.6652 v -3.3304 l 1.6652,-1.6648 1.6652,-1.6652 v -3.3304 h -3.3304 l -1.6652,-1.6652 -1.6649,-1.6652 -1.6652,-1.6652 h -4.9956 l -3.3304,-1.6649 h -6.6605 l -1.6652,-1.6652 h -1.6652 v -1.6652 h -8.3257 v -1.6652 l -1.6652,-1.6652 h -1.6652 l -3.3304,-1.6653 -1.6652,1.6653 h -3.3301 v 1.6652 h -1.6652 v 1.6652 h -3.3304 l -1.6652,-1.6652 -3.3304,-4.9957 h -1.6652 l -1.6652,-1.6652 h -6.6605 v -1.6652 h -1.6652 l -6.6605,-3.33 v -1.6652 h -3.3236 l -1.6652,-1.6652 h -3.3301 v -1.6652 h -1.6652 l -1.6652,-1.6652 h -3.3304 v -1.6652 h -1.6652 v -1.6649 h -1.6652 l -1.6648,-1.6652 h -1.6652 l -1.6653,1.6652 v -1.6652 h -1.6652 l -1.6652,-1.6652 H 98.230835 l -3.3305,-1.6652 h -11.656 v 1.6652 l -1.6649,-1.6652 h -3.3304 v -1.6652 h -1.6652 l -1.6652,-1.6652 -1.6652,-1.6652 h -1.6652 v -1.6653 l -1.6652,-1.6652 v -1.6652 h -1.6652 v -1.6652 l -3.3301,-1.6648 -1.6652,-1.6652 h -8.326 l -1.6649,-1.6652 -1.6652,-1.6652 h -8.3121 v -1.6652 h -3.3304 v -1.6652 l -1.6652,-1.6649 v -1.6652 l -1.6649,-1.6652 h -3.3304 l -3.3304,-1.6652 -1.6652,-1.6652 h -3.3301 v -1.6652 h -1.6652 v -1.6652 l -1.6652,-1.6649 v -6.6608 l -1.6652,-3.3304 -1.6652,-1.6652 -1.6652,3.3304 h -4.9956 l -1.6649003,-3.3304 1.6649003,-1.6652 v -3.3301 l -4.9953003,-1.6652 -3.3304,1.6652 h -1.6652 L 3.4741216e-5,696.01407 1.6652347,692.68367 v -8.3257 h 1.6652 l 3.3304,-4.9956 4.9953003,-4.9956 v -3.3301 l 1.6652,-4.9956 1.6652,-1.6652 3.3304,-3.3304 1.6652,-4.9953 v -6.6608 h -3.3304 l -1.6652,-1.6649 v -4.9956 l 1.6652,-3.3304 1.6652,-1.6652 3.3304,-1.6652 h 1.6652 l 3.3304,3.3304 1.6649,1.6652 h 3.3304 l 3.3304,1.6652 1.6652,-3.3304 -1.6652,-3.3304 1.6652,-1.6652 v -3.3301 l 1.6649,-3.3304 1.6652,-1.6652 3.3304,-1.6652 1.6652,-1.6652 v -4.9953 l 3.3304,-1.6652 h 3.3301 l 4.9956,1.6652 3.3304,-1.6652 4.9956,-4.9956 3.3301,-1.6652 h 3.3304 l 1.6652,-1.6652 v -10.0116 l 4.9952,-1.6652 3.3305,1.6652 3.3304,1.6652 h 3.3304 v -3.3304 l 1.6652,-3.3304 3.3304,-1.6652 1.6649,-1.6652 3.3304,1.6652 v 3.3304 l 3.330395,3.3304 1.6652,4.9953 v 6.6608 l -1.6652,1.6652 1.6652,4.9953 4.9952,8.326 3.3305,3.3304 4.9956,1.6652 3.3301,4.9953 6.6608,1.6652 1.6652,3.3304 1.6652,4.9953 4.9885,3.3304 3.3304,1.6652 3.3301,1.6652 4.9956,1.6652 1.6652,4.9953 6.6608,1.6652 4.9952,4.9956 h 3.3304 l 14.9859,14.9858 1.6652,8.3257 3.3304,3.3304 8.3257,3.3304 3.3304,1.6652 3.3304,4.9953 4.9953,1.6652 3.3304,-1.6652 1.6652,-1.6652 h 3.3304 l 3.3301,1.6652 h 4.9956 l 3.3233,-1.6652 h 3.3304 l 3.3304,1.6652 h 3.3304 l 1.6648,1.6652 v 6.6608 l 1.6652,3.3304 4.9957,1.6652 3.3304,6.6605 1.6649,1.6652 4.9956,4.9953 1.6652,3.3304 h 1.6652 l 1.6652,1.6652 6.6604,1.6652 1.6652,1.6652 4.9957,1.6652 3.3304,4.9956 1.6649,4.9953 v 1.6652 l 1.6652,3.3304 v 9.9909 l 1.6652,3.3301 v 6.6608 h 4.9956 l 1.6648,4.9956 h 3.3304 l 4.9956,-1.6652 h 11.6562 l 4.9956,3.3304 3.3232,3.3301 1.6652,4.9956 -1.6652,4.9956 v 10.0116 l 1.6652,4.9956 h 1.6652 l 4.9957,-3.3304 1.6652,-3.3301 3.3301,-1.6652 h 4.9956 l 3.33,-1.6652 3.3304,-4.9956 4.9956,-1.6652 h 6.6605 l 4.9956,-4.9956 4.9957,1.6652 3.33,-3.3304 v -4.9953 l -1.6648,-4.9956 v -3.3301 l 1.6648,1.6652 3.3304,-9.9912 38.2926,-24.9781 38.298,-51.6206 23.3118,-33.3028 58.2737,-43.2946 28.3075,-34.9761 14.9858,-73.2666 -3.3304,-44.9595 v -1.6652 l 1.6652,-3.3301 h -3.3301 l 1.6649,-3.3304 1.6652,-6.6608 1.6652,-1.6649 1.6652,-1.6652 -1.6652,-8.326 v -6.6605 l -1.6652,-4.9956 1.6652,-3.33038 v -3.33007 l -1.6652,-1.6652 -1.6652,-9.99089 1.6652,-3.33041 v -13.3213 l -1.6652,-1.6652 h -3.3301 l -1.6652,-3.33719 1.6652,-4.99561 -1.6652,-4.99562 -1.6652,-3.33007 v -6.66082 l 1.6652,-1.6652 -1.6652,-3.33007 v -3.33041 l 1.6652,-1.6652 1.6652,-1.66521 1.6652,-4.99561 v -16.65205 l 1.6649,-4.99527 1.6652,-3.33041 1.6652,-1.6652 3.3304,-1.66521 6.6605,1.66521 3.3304,-1.66521 1.6652,-1.6652 v -1.66487 l -1.6652,-3.33041 -1.6652,1.66521 h -1.6652 l -3.3301,-3.33041 h -1.6652 l -1.6652,1.6652 -1.6652,-1.6652 v -1.6652 l -3.3304,-1.66521 -3.3301,-3.33041 v -4.99527 l -1.6652,-3.33041 -1.6652,-3.33041 -4.9956,-1.6652 h -3.3304 l -3.3304,-1.66521 -4.9953,-4.99527 v -3.33041 l 1.6652,-4.99527 1.6652,-3.33041 h 3.3301 v -8.32602 h -3.3301 l 1.6649,-3.33041 h 4.9956 l 1.6652,-1.66487 1.6652,-1.6652 h 3.3304 l 1.6652,-1.66521 v -1.6652 l 3.3301,-1.6652 1.6652,-1.66521 1.6652,-3.33007 h 6.6608 l 4.9953,-1.6652 3.3304,-3.33041 4.9885,-1.66521 3.3304,-1.6652 4.9956,1.6652 h 1.6649 l 3.3304,-3.3304 3.3304,-1.66521 v -1.6652 l 1.6652,-3.33007 v -8.32603 l 1.6652,-3.33007 1.6649,-1.6652 v -3.33041 l 1.6652,-1.6652 3.3304,-1.66521 3.3304,1.66521 4.9956,1.6652 4.9953,-1.6652 3.3304,1.6652 3.3304,1.66521 6.6605,3.3304 1.6652,1.66521 4.9956,-1.66521 1.6652,-1.6652 1.6652,-1.6652 4.9953,1.6652 4.9956,-1.6652 h 3.3304 l 3.3301,1.6652 h 4.9956 l 3.3233,-4.99561 3.3304,-3.33007 1.6652,-1.66521 -1.6652,-4.99561 1.6652,-1.6652 1.6652,-3.33041 v -4.99528 l 6.6605,-8.32602 3.3304,1.6652 1.6652,3.33041 11.6561,11.6561 3.3304,1.6652 3.3304,-4.99561 h 8.3257 l 8.3256,4.99561 h 11.6562 l 4.9956,-8.32602 1.6652,-3.33007 h 4.9956 l 1.6648,1.6652 v 6.66048 l 1.6652,4.99561 1.6652,3.33041 4.9956,3.33007 4.9886,1.66521 h 8.326 l 6.6604,3.33041 h 4.9953 l 4.9957,-1.66521 3.3304,-3.33041 3.33,-1.66486 h 8.326 l 1.6652,1.66486 h 4.9956 l 1.6649,1.66521 1.6652,1.6652 v 1.66521 l 1.6652,1.6652 h 6.6609 l 1.6648,-1.6652 v -3.33041 l 1.6652,-3.33007 1.6652,-1.66521 1.6652,-3.33041 1.6652,-3.3304 4.9956,-1.66521 h 13.3214 l 1.6652,-4.99561 h 4.9884 l 1.6649,-1.66487 h 4.9956 l 1.6652,-3.33041 v -4.99561 l 1.6652,-6.66048 1.6652,-4.99561 1.6652,-4.99562 1.6653,-3.33719 1.6652,-3.33041 -1.6652,-3.33007 v -6.66081 l 3.33,-3.33041 h 13.3213 l 3.3304,-3.33007 h 8.326 l 1.6653,-3.33041 v -1.66521 l 1.6648,-1.6652 3.3304,-6.66048 4.9956,-1.6652 h 6.6605 l 3.3304,-1.66521 z"
     style="clip-rule:evenodd;fill:#000000;fill-rule:nonzero;stroke:none;stroke-width:3.46946px"
     id="path1222" />
</svg>
