<?xml version="1.0" encoding="UTF-8" standalone="no"?>
<svg
   xmlns:dc="http://purl.org/dc/elements/1.1/"
   xmlns:cc="http://creativecommons.org/ns#"
   xmlns:rdf="http://www.w3.org/1999/02/22-rdf-syntax-ns#"
   xmlns:svg="http://www.w3.org/2000/svg"
   xmlns="http://www.w3.org/2000/svg"
   xmlns:sodipodi="http://sodipodi.sourceforge.net/DTD/sodipodi-0.dtd"
   xmlns:inkscape="http://www.inkscape.org/namespaces/inkscape"
   version="1.0"
   width="1024pt"
   height="1024pt"
   viewBox="0 0 1024 1024"
   preserveAspectRatio="xMidYMid meet"
   id="svg2211"
   sodipodi:docname="vector.svg"
   inkscape:version="1.0.2-2 (e86c870879, 2021-01-15)">
  <defs
     id="defs2215" />
  <sodipodi:namedview
     pagecolor="#ffffff"
     bordercolor="#666666"
     borderopacity="1"
     objecttolerance="10"
     gridtolerance="10"
     guidetolerance="10"
     inkscape:pageopacity="0"
     inkscape:pageshadow="2"
     inkscape:window-width="1366"
     inkscape:window-height="697"
     id="namedview2213"
     showgrid="false"
     inkscape:zoom="0.1940918"
     inkscape:cx="1266.7524"
     inkscape:cy="760.26375"
     inkscape:window-x="-8"
     inkscape:window-y="-8"
     inkscape:window-maximized="1"
     inkscape:current-layer="svg2211"
     fit-margin-top="0"
     fit-margin-left="0"
     fit-margin-right="0"
     fit-margin-bottom="0" />
  <metadata
     id="metadata2205">
Created by potrace 1.10, written by Peter Selinger 2001-2011
<rdf:RDF>
  <cc:Work
     rdf:about="">
    <dc:format>image/svg+xml</dc:format>
    <dc:type
       rdf:resource="http://purl.org/dc/dcmitype/StillImage" />
    <dc:title></dc:title>
  </cc:Work>
</rdf:RDF>
</metadata>
  <path
     d="M 750.91331,18.950761 V 30.32786 l 3.7926,7.58525 -3.7926,3.79262 v 7.58448 l -7.5853,7.58525 -3.7918,-3.79263 h -7.5852 l -3.7927,3.79263 v 15.17049 l 7.5853,3.79262 3.7926,3.79263 -3.7926,11.3771 v 3.79262 l 7.5844,3.79263 v 7.58524 l 3.7926,7.58448 7.5853,3.79262 h 11.3779 v 7.58525 l 3.7919,7.58525 7.5852,3.79185 h 7.5853 v 15.16971 l 3.7926,7.58525 3.7926,11.37787 7.5853,3.79263 3.7926,7.58447 v 7.58525 l -3.7926,7.58525 v 15.16972 l 3.7926,11.37787 v 7.58525 h 3.7918 l 3.7926,3.79262 3.7926,3.79185 -3.7926,3.79263 v 11.37787 l -7.5844,3.79262 h -7.5853 l -3.7926,3.79263 -7.5852,3.79185 v 3.79262 h -3.7927 l -11.3778,3.79263 h -18.9624 l -7.5853,3.79262 -41.7173,41.71809 -3.7926,7.58525 -7.5853,7.58447 h -3.7926 l -7.5852,3.79263 -3.7918,11.39332 v 22.75497 l 3.7918,11.37787 -3.7918,7.58525 v 15.17049 l 3.7918,11.3771 3.7926,7.58525 3.7926,11.3771 7.5853,7.58525 3.7926,7.58524 -3.7926,7.58448 -3.7927,7.58525 h -7.5852 l -3.7926,3.79262 -7.5845,11.37787 -7.5852,15.16973 v 11.37787 l -3.7926,11.37787 -3.7927,15.16971 -7.5845,3.79263 h -7.5852 l -7.5853,3.79262 3.7926,7.58525 3.7927,3.79262 7.5852,7.58448 7.5845,3.79262 h 7.5853 l 7.5852,-11.3771 7.5845,-3.79262 7.5852,-3.79263 h 7.5853 l 3.7926,3.79263 v 15.16972 l 7.5852,7.58525 11.3772,-3.79263 3.7926,-3.79262 h 7.5852 l 3.7927,3.79262 v 34.13207 l -7.5853,7.58525 -7.5852,3.79185 -7.5846,7.58525 -3.7926,7.58525 -3.7926,11.3771 v 7.58525 l 7.5852,3.79262 h 7.5846 v 15.17049 l 3.7926,7.58525 v 15.16973 l -7.5845,3.79262 h -18.9631 l -3.7927,3.79262 -7.5852,11.3771 v 3.79263 l -3.7926,7.58524 -7.5845,3.79263 -11.3778,3.79185 v 18.96312 l -3.7927,7.58525 -3.7926,7.58524 -3.7919,7.58448 -3.7926,7.58525 3.7926,3.79262 h 3.7919 l 7.5853,-7.58525 3.7926,11.37788 3.7926,7.58447 7.5853,7.58525 v 11.37787 l -3.7927,3.79262 h -7.5852 l 3.7926,7.58525 7.5853,3.79263 v 7.58447 l -3.7927,3.79262 h -7.5852 l -3.7926,3.79263 -7.5853,3.79262 v 11.39332 l 3.7926,7.58525 h 7.5853 l 7.5852,11.3771 v 11.37787 l 7.5845,3.79262 7.5852,3.79263 v 11.37787 h -7.5852 l -7.5845,7.58448 v 3.79262 h -7.5852 l -3.7926,3.79262 -3.7927,11.3771 v 7.5852 l 7.5853,3.7927 3.7926,3.7926 -7.5852,3.7926 -11.3772,11.3772 -11.3779,7.5852 -11.3778,3.7926 -11.3779,7.5853 h -7.569 l -7.5845,7.5852 v 18.96233 l -7.5853,3.7926 -11.3778,7.5853 -7.5845,3.7919 h -15.1704 l 3.7926,-7.5845 v -18.96313 l 7.5852,-7.5845 -3.7926,-7.5852 v -11.3779 l -3.7926,-3.7926 -11.3779,-3.7926 -11.3779,3.7926 h -3.7919 l -18.9631,-18.9624 -3.7918,-7.5853 -7.5852,-7.5852 h -7.5853 l -11.3779,7.5852 -11.3771,11.3779 h -11.3779 l -3.7926,-3.7926 -11.377,-11.3779 -15.1705,-3.7926 -7.5853,-7.5845 3.7926,-7.58522 -3.7926,-11.3771 h -11.3771 l -7.5698,3.79185 -3.7927,-7.58447 v -22.75575 h -15.1696 v -37.92624 l 15.1696,-7.58524 3.7927,-15.16973 -3.7927,-7.58524 -3.7918,-11.3771 -3.7926,-7.58525 -11.3779,-7.58525 -7.5852,-7.58525 -7.5845,-7.58524 -7.5853,-15.16973 7.5853,-7.58524 7.5845,-3.79263 h 11.3779 l 7.5852,-3.79185 3.7926,-7.58525 7.5845,-7.58525 3.7926,-11.37709 v -7.58525 h -7.5853 l -11.377,-3.79263 -7.5853,-3.79262 -22.755,-7.58525 -3.7926,-7.58525 v -3.79262 l -3.7926,-11.3771 -3.7927,-3.79262 -3.7926,-7.58525 -3.7926,-7.58448 v -30.34099 l -11.3771,-7.58447 v -18.96312 l -3.7926,-11.3771 -11.3778,-11.37787 -7.5846,-3.79263 -3.7926,-3.79185 v -3.79262 l -11.3779,-7.58525 -3.7926,-15.17049 -11.377,-7.58524 -3.7927,-7.58448 -11.3778,-11.37787 h -15.1705 l -3.7919,-7.58525 -7.5853,-15.16972 -3.7926,-11.37787 -3.7926,-15.1705 -3.79265,-3.79185 h -7.58443 l -3.79265,-18.96312 -3.79263,-11.3771 v -7.58524 l 3.79263,-3.79263 7.58445,-3.79262 3.79263,-3.79263 -3.79263,-3.79262 -3.7918,-3.79185 -3.79265,-7.60147 3.79265,-11.3771 h 11.37708 l 3.7926,-3.79262 3.7926,-7.58525 -3.7926,-15.16972 -3.7926,-11.37788 -3.79265,-7.58524 -3.79263,-3.79263 -3.7918,-7.58447 7.58443,-7.58525 3.79265,-7.58525 3.7926,-7.58525 -3.7926,-11.37709 v -18.96312 l 3.7926,-7.58448 3.7926,-7.58525 v -15.17049 l -3.7926,-3.79263 h -15.16968 l -7.58528,-3.79262 3.79263,-3.79262 h 11.37708 l 3.79265,-3.79186 v -11.37787 l 3.7926,-3.79262 3.7926,-3.79263 3.7926,-7.58447 -3.7926,-11.37787 -7.5852,-7.58525 -3.79265,-3.79185 v -7.58525 l -3.79263,-7.58525 -3.7918,-7.58524 3.7918,-3.79262 V 128.9469 l -3.7918,-7.58525 3.7918,-3.79263 3.79263,-3.79262 V 98.60668 l 3.79265,-3.79263 -7.58528,-3.79262 -3.7918,-3.79263 h 7.58443 l 11.37785,-3.79185 11.3772,-7.58524 7.5852,-3.79263 h 15.1705 l 7.5853,3.79185 3.7926,3.79263 7.5844,-3.79185 7.5853,-3.79263 h 37.9262 l 15.1698,3.79185 h 3.7926 l 7.5852,3.79185 7.5853,-3.79185 -7.5853,-3.79262 -3.7926,-7.58525 3.7926,-3.79262 h 11.3779 l 15.1697,-3.79263 3.7926,-3.79262 v -7.58448 l 3.7926,-3.79262 h 7.5853 l 3.7926,-7.58525 h 15.1698 l 7.5852,-7.58524 3.7926,-3.79263 11.3771,3.79263 3.7926,-11.377104 3.7926,-7.5852473 V 3.7926237 L 458.92141,-2.5878802e-7 462.71401,3.7926237 l 3.7926,11.3778723 3.7927,3.792624 7.5845,3.79185 h 11.3779 l 7.5852,-3.79185 3.7926,-7.585248 7.5845,3.792624 h 11.3778 l 7.5846,3.792624 v 3.79185 l -7.5846,7.58525 3.7927,3.79262 11.3771,3.79263 h 30.3402 v -7.58525 l 7.5852,-11.3771 3.7926,3.79185 h 18.9315 l -3.7926,7.58525 v 7.58525 l 11.3771,-3.79263 15.1705,-7.58524 3.7926,7.58524 v 18.96235 l 7.5845,-3.79262 3.7926,3.79262 15.1705,-7.58448 11.3771,-3.79262 7.5852,-3.79262 7.5853,-7.58525 18.9624,-3.79262 15.1705,-7.58448 11.377,-3.792624 3.7926,-3.792624 3.7927,3.792624 7.5852,3.792624 h 3.7926 l 7.5853,-7.585248 3.7926,-3.7926233 V -2.5878876e-7 L 754.70671,7.5852487 750.91481,18.96312 Z"
     style="clip-rule:evenodd;fill:#000000;fill-rule:nonzero;stroke:none;stroke-width:7.90194px"
     id="path1312" />
</svg>
