<?xml version="1.0" encoding="UTF-8" standalone="no"?>
<svg
   xmlns:dc="http://purl.org/dc/elements/1.1/"
   xmlns:cc="http://creativecommons.org/ns#"
   xmlns:rdf="http://www.w3.org/1999/02/22-rdf-syntax-ns#"
   xmlns:svg="http://www.w3.org/2000/svg"
   xmlns="http://www.w3.org/2000/svg"
   xmlns:sodipodi="http://sodipodi.sourceforge.net/DTD/sodipodi-0.dtd"
   xmlns:inkscape="http://www.inkscape.org/namespaces/inkscape"
   version="1.0"
   width="1024pt"
   height="1024pt"
   viewBox="0 0 1024 1024"
   preserveAspectRatio="xMidYMid meet"
   id="svg2211"
   sodipodi:docname="vector.svg"
   inkscape:version="1.0.2-2 (e86c870879, 2021-01-15)">
  <defs
     id="defs2215" />
  <sodipodi:namedview
     pagecolor="#ffffff"
     bordercolor="#666666"
     borderopacity="1"
     objecttolerance="10"
     gridtolerance="10"
     guidetolerance="10"
     inkscape:pageopacity="0"
     inkscape:pageshadow="2"
     inkscape:window-width="1366"
     inkscape:window-height="697"
     id="namedview2213"
     showgrid="false"
     inkscape:zoom="0.1940918"
     inkscape:cx="1266.7524"
     inkscape:cy="760.26375"
     inkscape:window-x="-8"
     inkscape:window-y="-8"
     inkscape:window-maximized="1"
     inkscape:current-layer="svg2211"
     fit-margin-top="0"
     fit-margin-left="0"
     fit-margin-right="0"
     fit-margin-bottom="0" />
  <metadata
     id="metadata2205">
Created by potrace 1.10, written by Peter Selinger 2001-2011
<rdf:RDF>
  <cc:Work
     rdf:about="">
    <dc:format>image/svg+xml</dc:format>
    <dc:type
       rdf:resource="http://purl.org/dc/dcmitype/StillImage" />
    <dc:title></dc:title>
  </cc:Work>
</rdf:RDF>
</metadata>
  <path
     d="m 936.58025,512.00064 -6.2444,12.4887 12.4887,12.48871 v 6.24435 h 12.4888 v 6.24435 l 6.2443,6.24435 v 12.48743 l -18.7331,18.73306 -6.2443,6.24435 h 24.9774 l 6.2444,12.48871 -12.4887,24.97613 6.2443,12.48871 v 24.97614 h 31.2218 v 12.4887 l 12.48745,6.24435 6.2443,18.73306 12.4887,6.24435 v 12.48743 h -6.2443 v 18.73306 h -6.2444 v 12.4887 h -6.2443 v 12.48744 h -6.24435 v 12.4887 h -6.2443 v 6.24435 h -6.2444 v 6.24435 h 6.2444 v 6.24436 h -6.2444 v 6.24435 h -6.2443 v 6.24435 h -6.2444 v -6.24435 h -6.2443 v 12.4887 h -6.2444 v 6.24308 h -6.2443 v 6.24436 h -6.2444 v 18.73305 h -6.2443 v 6.24435 h -6.2444 v -6.24435 h -6.2443 l -6.2444,-6.24435 h -6.2443 v 12.4887 l -6.2444,6.24436 h -6.2444 l -6.2443,6.24308 h -12.4887 v 6.24435 h -6.2444 v 6.24435 h -6.2443 v 6.24435 h -12.4887 v 6.24435 h -12.4874 v 6.24436 l -6.2444,-6.24436 v 12.48744 h -6.2444 v 18.73305 l -12.4887,6.24436 -6.2443,12.48871 h -31.2205 l -6.2443,6.2443 -6.2444,-6.2443 h -18.7331 v 6.2443 h -12.4874 l -6.2443,6.2444 -6.2444,-6.2444 6.2444,-12.48866 -12.4887,-6.24435 h -24.97746 v -6.24436 l -12.48743,6.24436 h -6.24435 l -6.24435,-6.24436 -12.48871,12.48871 -6.24435,12.48866 v 12.4887 h -6.24435 l -12.48871,-6.2443 h -18.73178 l -6.24435,-12.4887 H 599.3904 l -12.4887,-6.24436 V 924.1177 L 580.65735,911.629 V 892.89721 H 574.413 l -6.24436,6.24436 v 18.73178 l -6.24435,6.24435 -6.24435,6.24436 -12.48743,-6.24436 -6.21892,6.24436 v 6.24435 l -12.48743,6.24436 h -6.24435 l -6.24436,-24.97742 -6.24435,-6.24435 -12.4887,-6.24435 v -18.73179 h 6.24435 v -12.4887 h -12.48871 v -6.24435 l -6.24435,-12.48744 6.24435,-12.4887 -12.48743,-12.4887 h -12.4887 l 6.24435,-12.48744 -12.4887,6.24308 v -12.48743 h -18.73179 v -12.4887 l -24.97741,6.24435 v 12.4887 l -18.73178,6.24308 -6.24435,6.24436 -6.24436,24.9774 h -31.22176 l -12.48741,12.48744 -12.48871,-6.24308 -18.73305,6.24308 -6.24436,6.24435 h -6.24435 l -6.24435,-6.24435 -6.24435,-6.24308 -12.48743,24.97613 -18.73306,-12.4887 -6.24435,12.4887 h -12.48744 l 6.24436,-24.97613 -18.73306,6.24308 H 199.8142 l -12.4887,24.9774 h -12.48744 v -12.4887 h -6.24435 l -24.97741,12.4887 v -12.4887 h -18.73305 l -12.48743,6.24435 H 99.90711 L 87.41968,874.16416 H 68.68662 l -6.24435,12.4887 H 43.71049 L 24.97743,905.38465 V 886.65286 L 6.2443697,880.40851 H 1.9741211e-5 L 6.2443697,874.16416 H 12.48872 v -6.24435 h 6.24436 v -6.24308 h -6.24436 v -6.24436 H 6.2443697 v -6.24435 H 12.48872 v -6.24435 h 6.24436 v -6.24435 h -6.24436 l -6.2443503,6.24435 v -6.24435 l 6.2443503,-6.24435 v -24.97614 h 6.24436 v -24.97741 h 6.24435 v -6.24435 h 12.4887 v -6.24435 h -6.24435 l 6.24435,-6.24436 h 12.48871 v 6.24436 h 12.48743 v -12.48744 h 6.24435 v -6.24435 l -6.24435,-6.24435 h -6.24435 v -12.48871 l 6.24435,-6.24435 v -6.24435 h -6.24435 v -6.24308 h 6.24435 v -6.24435 H 49.95484 v -6.24435 h 6.24435 v -24.97741 l -6.24435,-6.24435 h -6.24435 v -6.24436 h -6.24436 v -6.24435 l -6.24435,-6.24308 -6.24435,-6.24435 v -6.24435 h -6.24435 v -24.97741 h -6.24436 6.24436 v -6.24308 h 6.24435 v -6.24435 6.24435 h 6.24435 v -6.24435 6.24435 h 6.24435 v -6.24435 l 6.24436,6.24435 h 12.48743 l 6.24435,-6.24435 v -6.24436 h 6.24435 v 6.24436 h 6.24435 v -6.24436 h 6.24436 v -12.4887 h 6.24435 l 6.24435,6.24435 v -6.24435 h 12.4887 v -6.24435 h -6.24435 6.24435 v -6.24436 h -6.24435 v -6.24308 h 6.24435 -6.24435 v -12.4887 h 12.48744 v -6.24435 h -6.24436 l -6.24435,-6.24435 v -12.48871 h 6.24435 v -6.24435 h 6.24436 -6.24436 v -6.24435 l -6.24435,-6.24435 6.24435,-6.24309 v -6.24435 l -6.24435,-6.24435 6.24435,-6.24433 v -6.24436 l 6.24436,-6.24435 v -12.48743 h 6.24435 v -12.48871 l -6.24435,-6.24435 v -6.24435 l 6.24435,-6.24435 h 6.24435 v -6.24435 h 6.24435 v -6.24436 h 12.48871 v -6.24435 h 6.24435 v -12.48743 l 6.24435,-6.24435 v -6.24435 h 6.24435 v -6.24436 h 6.24435 v -12.48743 h -6.24435 v -24.97741 l 6.24435,-6.24435 h 49.95355 v -6.24435 h 6.24435 v -12.48871 h -6.24435 v -6.24435 l -6.24435,-6.24435 v -6.24435 6.24435 -12.48743 l -6.24435,-6.24436 h 12.4887 v -18.73305 l 6.24435,-6.24435 v -24.97614 h 6.24435 -6.24435 v -18.73306 h 12.48743 l 6.24436,-6.24435 h 18.73305 l 6.24435,-6.24435 h 6.24436 v -6.24435 h 6.24435 v 6.24435 l 12.48743,12.4887 6.24435,-6.24435 h 6.24436 v -6.24435 l 6.24435,-6.24435 6.24435,6.24435 v 6.24435 l 6.24435,6.24435 v -6.24435 h 6.24435 -6.24435 l 6.24435,-6.24435 h 6.24436 v -6.24435 h 6.24433 v -6.24436 h 12.48871 -6.24436 l 6.24436,-6.24435 v -6.24435 h 12.4887 v -18.73306 l 6.24435,-6.24435 v -6.24435 h 6.24435 v -12.48743 l 6.24436,6.24435 -6.24436,-6.24435 v -6.24436 h 6.24436 v -6.24435 h 6.24435 v -6.24435 h 18.73178 v 6.24435 h 18.73306 l 12.4887,-12.4887 v -6.24435 h 6.24436 v -6.24436 h 6.24435 v 6.24436 h 6.24435 l 6.24435,-6.24436 v -6.24435 h 12.48743 l 6.24436,-6.24435 h 6.24435 v -6.24435 h 6.24435 V 62.4162 l 12.462,6.24436 12.4887,6.24435 V 62.4162 l 12.48871,6.24436 h 6.24435 l 12.48743,12.4887 v 18.73306 l 18.73306,12.48743 v 12.4887 h 6.24435 l 6.24435,12.48871 v 12.48743 l 6.24435,12.4887 v 18.73179 l 12.48744,6.24435 -6.24436,24.97741 6.24436,6.24435 -6.24436,18.73306 12.48871,-12.48871 h 6.24435 l 12.48871,12.48871 h 6.24435 l 6.24435,12.48743 v 12.4887 h -6.24435 l -6.24435,6.24436 v 6.24435 l 6.24435,12.4887 -12.48871,-6.24435 -6.24435,-6.24435 v 18.73178 l 12.48871,6.24436 h 6.24435 v 6.24435 l 6.24435,18.73305 h 12.4887 l 6.24436,12.48871 v 12.48743 l -6.24436,6.24435 24.97614,-6.24435 v 12.48871 h -18.73178 l -6.24436,6.24435 v 6.24435 h 18.73179 l 12.4887,24.97614 v 12.4887 l 6.24435,12.48743 v 12.48871 h 24.97614 l -6.24435,18.73305 h 18.7331 l -12.48875,12.48871 v 6.24435 h 12.48875 l 18.7317,-6.24435 12.4887,12.4887 h 6.2444 l 6.2443,12.48742 v 6.24435 l 6.2444,6.24435 6.2444,-6.24435 6.2443,6.24435 12.4887,6.24435 6.2444,-6.24435 6.2443,-6.24435 6.2444,12.4887 h 6.2443 l 12.4875,-6.24435 6.2189,6.24435 6.2443,-12.4887 6.2444,-6.24435 12.4873,-6.24435 -6.2443,12.4887 h 12.4887 v 12.4887 l -6.2444,6.24436 -6.2443,6.24308 h 12.4887 l 6.2443,-6.24308 h 12.4875 v -18.73306 h 24.9774 l 6.2444,6.24435 z"
     style="clip-rule:evenodd;fill:#000000;fill-rule:nonzero;stroke:none;stroke-width:13.0101px"
     id="path1360" />
</svg>
