<?xml version="1.0" encoding="UTF-8" standalone="no"?>
<svg
   xmlns:dc="http://purl.org/dc/elements/1.1/"
   xmlns:cc="http://creativecommons.org/ns#"
   xmlns:rdf="http://www.w3.org/1999/02/22-rdf-syntax-ns#"
   xmlns:svg="http://www.w3.org/2000/svg"
   xmlns="http://www.w3.org/2000/svg"
   xmlns:sodipodi="http://sodipodi.sourceforge.net/DTD/sodipodi-0.dtd"
   xmlns:inkscape="http://www.inkscape.org/namespaces/inkscape"
   version="1.0"
   width="1024pt"
   height="1024pt"
   viewBox="0 0 1024 1024"
   preserveAspectRatio="xMidYMid meet"
   id="svg2211"
   sodipodi:docname="vector.svg"
   inkscape:version="1.0.2-2 (e86c870879, 2021-01-15)">
  <defs
     id="defs2215" />
  <sodipodi:namedview
     pagecolor="#ffffff"
     bordercolor="#666666"
     borderopacity="1"
     objecttolerance="10"
     gridtolerance="10"
     guidetolerance="10"
     inkscape:pageopacity="0"
     inkscape:pageshadow="2"
     inkscape:window-width="1366"
     inkscape:window-height="697"
     id="namedview2213"
     showgrid="false"
     inkscape:zoom="0.1940918"
     inkscape:cx="275.4976"
     inkscape:cy="490.91081"
     inkscape:window-x="-8"
     inkscape:window-y="-8"
     inkscape:window-maximized="1"
     inkscape:current-layer="svg2211"
     fit-margin-top="0"
     fit-margin-left="0"
     fit-margin-right="0"
     fit-margin-bottom="0" />
  <metadata
     id="metadata2205">
Created by potrace 1.10, written by Peter Selinger 2001-2011
<rdf:RDF>
  <cc:Work
     rdf:about="">
    <dc:format>image/svg+xml</dc:format>
    <dc:type
       rdf:resource="http://purl.org/dc/dcmitype/StillImage" />
    <dc:title></dc:title>
  </cc:Work>
</rdf:RDF>
</metadata>
  <path
     d="m 679.56324,269.96682 v 18.61867 l 9.30934,9.30933 h 9.30933 l 9.30933,18.61864 v 46.54478 l 9.30934,18.61866 v 27.92607 l 9.30933,18.61867 9.30933,9.30933 h 18.61867 l 18.61867,9.30934 9.30933,18.61866 27.92601,27.9261 v 18.61866 l -9.30932,18.61867 v 27.92608 l 9.30932,9.30934 v 27.928 l -9.30932,18.61676 v 9.30933 l -9.30926,9.30933 v 18.61867 l -9.30934,9.30933 -9.30933,18.61867 -9.30933,18.61867 -9.30934,27.92608 v 18.61866 l -9.30933,18.61678 v 18.61867 -18.61867 l -27.928,9.30933 -37.23543,83.78019 37.23543,-27.92799 9.30934,-37.23543 18.61866,-9.30934 v 9.30934 l -9.30933,9.30743 -9.30933,18.61866 -9.30934,18.61867 -27.928,55.85409 h -9.30933 l -9.30933,-9.30933 -9.30934,-9.30933 v -27.9261 l 18.61867,-18.61866 18.61867,-9.30934 v -9.30933 l 9.30933,-18.61676 v -18.61867 l 9.30933,-18.61867 9.30934,-18.61866 v -46.54475 l -18.61867,-18.61867 h -9.30933 l -9.30934,9.30934 h -9.30933 l -18.61867,9.30933 -9.30934,9.30933 h -18.61677 l -9.30933,9.30934 -9.30933,18.61865 v 27.92609 l -18.61867,18.61867 -9.30932,27.9261 v 18.61866 l -18.61676,27.928 -9.30933,9.30933 -18.61867,9.30743 h -27.9261 l -18.61866,9.30934 -9.30934,9.30933 -18.61866,37.23733 -18.61677,18.61867 -9.3093,18.61676 -9.30933,18.61867 -9.30934,9.30933 h -18.61866 l -9.30934,18.61872 -9.30933,9.3074 H 344.4349 l -18.61866,9.3094 -18.61867,-9.3094 h -9.30933 v -74.47088 l -18.61676,-18.61867 -9.30934,-18.61866 v -37.23734 l 9.30934,-9.30743 -9.30934,-9.30933 v -18.61866 l -18.61866,-9.30934 -18.61678,-18.61866 -9.30933,-18.61677 -9.30932,-18.61866 9.30932,-27.928 9.30933,9.30933 18.61678,9.30933 9.30933,-18.61866 v -9.30743 h 18.61867 l 18.61676,9.30743 9.30933,-9.30743 -9.30933,-18.61865 9.30933,-9.30934 v -9.30933 l 9.30934,-18.61867 9.30933,9.30934 h 18.61866 l 9.30932,9.30933 v 37.23732 l -18.61865,37.23543 -9.30933,9.30933 9.30933,18.61867 v 9.30743 l 18.61865,9.30933 h 37.23732 l 9.30934,-9.30933 9.30933,-18.61677 18.61678,-9.30933 9.30933,-9.30933 v -9.30934 L 418.90954,735.4182 v -9.30743 l 18.61678,-18.61865 v -9.30934 h -9.30933 l -9.30934,-9.30933 v -37.23733 h 9.30934 l 18.61863,-9.30934 9.30934,-9.30743 9.30933,-18.61866 9.30932,-18.61867 9.30933,-18.61867 9.30934,-18.61676 h 9.30933 l 18.61678,-9.30933 9.30933,9.30933 h 9.30933 l 9.30932,-9.30933 v -9.30932 l 9.30934,-9.30933 h 9.30933 l 9.30933,9.30933 h 9.30934 l 18.61865,9.30932 h 18.61866 v -9.30932 h -9.30933 v -37.23733 h 27.928 l 9.30933,-18.61867 h 9.30936 v -9.30743 l -9.30936,-9.30933 v -18.61867 l -9.30933,-9.30933 9.30933,-9.30934 9.30936,9.30934 h 9.30934 l 9.30926,-9.30934 v -9.30933 l -18.6186,-37.2354 h -9.30936 l -9.30933,-9.30933 v -46.54477 h -27.928 l -18.61676,9.30932 -9.30932,9.30934 -18.61867,9.30744 -18.61677,18.61867 h -9.30934 l -18.61865,-9.30934 -9.30933,-9.30933 h -9.30934 l -18.61677,-9.30744 -9.30933,-18.61866 v -18.61866 l -9.30934,-9.30932 -9.30933,-9.30933 v -9.30934 l -9.30933,-9.30933 -9.30931,-18.61676 -9.31122,-18.61867 -9.30934,-9.30933 h -9.30933 l -9.30933,-18.61867 -9.30934,-18.61677 v -37.23732 l -9.30933,-9.30932 -9.30932,-9.30933 v -27.928 l 9.30932,-18.616765 V 65.163429 L 363.05356,46.544762 V 18.618665 l 9.30933,-9.3093303 h 9.30932 L 390.98154,4.7412113e-6 h 18.61867 V 46.544762 h 9.30933 l 18.61867,18.618667 v 27.927999 l 9.30931,18.616762 v 18.61867 l 9.30933,27.92798 18.61676,9.30934 46.54478,46.54476 18.61866,9.30933 h 9.30932 l 18.61867,9.30933 37.23543,18.61867 h 55.85411 l 18.61866,9.30743 z"
     style="clip-rule:evenodd;fill:#000000;fill-rule:nonzero;stroke:none;stroke-width:19.3961px"
     id="path2831" />
</svg>
