<?xml version="1.0" encoding="UTF-8" standalone="no"?>
<svg
   xmlns:dc="http://purl.org/dc/elements/1.1/"
   xmlns:cc="http://creativecommons.org/ns#"
   xmlns:rdf="http://www.w3.org/1999/02/22-rdf-syntax-ns#"
   xmlns:svg="http://www.w3.org/2000/svg"
   xmlns="http://www.w3.org/2000/svg"
   xmlns:sodipodi="http://sodipodi.sourceforge.net/DTD/sodipodi-0.dtd"
   xmlns:inkscape="http://www.inkscape.org/namespaces/inkscape"
   version="1.0"
   width="1024pt"
   height="1024pt"
   viewBox="0 0 1024 1024"
   preserveAspectRatio="xMidYMid meet"
   id="svg2211"
   sodipodi:docname="vector.svg"
   inkscape:version="1.0.2-2 (e86c870879, 2021-01-15)">
  <defs
     id="defs2215" />
  <sodipodi:namedview
     pagecolor="#ffffff"
     bordercolor="#666666"
     borderopacity="1"
     objecttolerance="10"
     gridtolerance="10"
     guidetolerance="10"
     inkscape:pageopacity="0"
     inkscape:pageshadow="2"
     inkscape:window-width="1366"
     inkscape:window-height="697"
     id="namedview2213"
     showgrid="false"
     inkscape:zoom="0.1940918"
     inkscape:cx="1266.7524"
     inkscape:cy="760.26375"
     inkscape:window-x="-8"
     inkscape:window-y="-8"
     inkscape:window-maximized="1"
     inkscape:current-layer="svg2211"
     fit-margin-top="0"
     fit-margin-left="0"
     fit-margin-right="0"
     fit-margin-bottom="0" />
  <metadata
     id="metadata2205">
Created by potrace 1.10, written by Peter Selinger 2001-2011
<rdf:RDF>
  <cc:Work
     rdf:about="">
    <dc:format>image/svg+xml</dc:format>
    <dc:type
       rdf:resource="http://purl.org/dc/dcmitype/StillImage" />
    <dc:title></dc:title>
  </cc:Work>
</rdf:RDF>
</metadata>
  <path
     d="m 929.40925,318.68837 -8.2254,12.33824 h 8.2254 l 8.2247,4.11274 4.1128,12.33824 8.2255,8.22465 12.3373,16.45099 12.3383,12.3374 4.1127,4.11274 8.2255,12.33824 12.3382,12.3374 4.11205,4.11274 4.1127,8.2255 4.1128,16.45098 12.3382,20.56289 v 4.11274 l -4.1127,4.11275 v -4.11275 l -8.2255,4.11275 h -20.56305 l -8.2254,8.22465 -12.3383,8.2255 -12.3373,8.22549 -8.2255,8.22549 -8.2255,4.11274 h -4.1128 l -8.2247,4.11275 -8.2254,-4.11275 V 491.4195 l -4.1128,-8.22549 h -20.5637 l -12.33742,-4.11275 -8.22549,-12.3374 v -4.11274 l -4.11274,-4.11275 h -8.22465 l -8.22549,4.11275 -12.33823,4.11274 -4.11275,8.22466 -8.22465,4.11274 -4.11275,8.2255 v 8.22549 l -8.22549,16.45098 h -16.45098 l -4.11275,8.22471 v 8.2254 l -8.22465,4.1128 -8.22549,8.2255 -4.11275,4.1118 -8.22549,8.2255 4.11274,-8.2255 -4.11274,-4.1118 h -4.11275 l -8.22465,4.1118 -8.22549,-4.1118 -4.11275,-4.1128 v -8.2255 l -4.11274,-8.2254 -4.11275,-8.22471 h -8.22549 l -8.22465,4.11274 h -4.11275 l -8.22549,-4.11274 -8.22465,-8.22549 -12.33824,-8.22549 h -16.45015 l -4.09599,4.11274 -4.11275,4.11275 -4.11274,4.11274 -4.11275,8.22549 -4.11274,4.11197 -4.11275,8.2254 h -12.33824 l -4.11274,-8.2254 -4.11275,-4.11197 h -16.45014 l -8.22549,8.22467 h -8.22466 l -4.11274,4.1127 -4.11275,4.1128 v 8.2255 l 4.11275,4.1118 8.22465,4.1128 v 8.2255 l 4.11275,8.2255 v 16.4502 l -4.11275,4.1127 -4.11274,4.1128 h -16.45015 l -8.22549,8.2254 v 8.2255 l 4.11275,8.2246 v 4.1128 l 4.11274,4.1127 v 8.2255 l -4.11274,4.1128 h -4.11275 l -4.11275,4.1127 -4.11274,4.112 -4.11275,8.2255 v 4.1127 l -4.11274,8.2423 -4.11275,4.1127 h -12.33824 l -8.22549,16.451 -12.3374,12.3382 h -16.45098 l -8.22465,4.1119 h -8.22549 l -4.11275,4.1127 -4.11275,8.2255 -4.11274,8.2255 v 16.4502 l 4.11274,8.2255 v 12.3373 l 4.11275,4.1128 v 8.2255 l 4.11275,8.2255 v 8.2255 l -4.11275,4.1127 -4.11275,4.112 h -8.22465 l -4.11274,-4.112 h -12.33823 l -4.09599,4.112 -8.22466,8.2255 h -16.45098 l -4.11275,-4.1128 h -4.11274 l -8.22465,4.1128 h -4.11275 l -4.11275,4.1127 -4.11274,4.1127 v 8.2255 l -4.11275,8.2246 -4.11274,4.1128 -12.33824,-4.1128 h -8.22549 l -4.11275,-4.1127 -4.11274,-4.1119 h -4.11275 l -4.11274,-4.1127 h -4.11275 v -4.1128 l -4.11275,-4.1127 4.11275,-8.2255 h 8.22549 l 8.22549,-4.1127 4.11275,-4.112 4.11274,-8.2255 4.11275,-4.1127 v -4.1128 l -4.11275,-8.2255 h -16.45098 l -4.11274,4.1128 h -4.11275 l -4.11275,-4.1128 h -16.45014 l -8.22549,4.1128 -4.11275,8.2255 v 4.1127 l -4.11274,4.1128 -4.11275,8.2247 h -4.11274 l -4.11275,-4.112 H 283.756 l -8.2255,-8.2255 -8.22465,8.2255 h -8.22549 l -4.11275,4.112 -4.11274,4.1127 h -4.11275 l 4.11275,-4.1127 v -12.3375 h -8.22549 l -4.11275,4.1128 -8.22549,4.1127 -4.11275,4.112 v 8.2255 h -8.2079 l -4.11274,4.1127 h -8.22466 l -4.11274,4.1127 4.11274,4.1128 v 20.5628 h -4.11274 l -4.11275,4.1128 h -4.11274 v -8.2255 l -4.11275,-4.1128 -8.22549,-4.1127 -4.11275,-4.1119 h -4.11274 v -16.4509 h -4.11275 l -8.22549,-8.2255 h -8.22465 l -8.22549,-4.112 4.11274,-4.1127 h 12.3374 l 4.11275,-4.1128 -4.11275,-8.2255 h -12.3374 v -4.1127 l -4.11274,-4.1128 v -24.6756 l -4.11275,-4.1127 -8.22549,-8.2255 v -24.6757 l 8.22549,-4.1127 h 4.11275 v -8.2246 l -8.22549,-8.2255 -4.11275,-4.1128 v -4.1127 l 4.11275,-4.1128 H 139.83 l 4.11275,-4.1127 -8.22466,-8.2255 -8.22549,-12.3374 -4.11274,-8.2255 -4.11275,-8.2255 v -12.3374 l 8.22549,-4.1127 h 4.11275 l 4.11274,-4.1128 v -4.1127 l -4.11274,-4.1128 h -8.22549 l -4.11275,-8.2254 -4.11275,-4.1128 4.11275,-8.2247 -8.22465,-4.1127 -8.22549,4.1127 -16.450985,-8.2255 h -4.11274 l -8.22466,4.1128 v 4.1127 h -8.22549 l -4.11274,4.1127 v -4.1127 l -4.11275,-4.1127 4.11275,-4.1128 v -4.1127 l -4.11275,-4.1128 h -16.45014 l -4.11275,-4.1127 -4.11275,-4.1119 v -4.1127 l 4.11275,-4.1128 4.11275,-4.1127 -8.2255,-8.2255 h -12.33822 l -4.11275,-4.1128 v -28.78835 l 4.11275,-4.11275 8.22549,-4.11274 4.11273,-8.22465 h 12.3374 v -12.33824 h -8.22549 v -8.22549 L 16.450995,462.64787 4.1127647,442.08498 v -4.11274 L 1.4741211e-5,433.85949 v -4.11275 L 12.338255,425.634 v -4.11275 l 8.22549,4.11275 v -8.22466 L 1.4741211e-5,413.2966 4.1127647,392.73371 l 8.2254903,-4.11275 8.22549,4.11275 8.22465,-4.11275 h 8.22548 l 4.11275,-4.11274 h 8.22465 l 4.11275,-4.11275 12.33823,-8.22549 4.11275,4.11275 h 20.56289 l 4.11275,-8.2255 4.11274,-4.1119 4.112745,-8.2255 20.56289,-20.56372 h 28.78838 l 12.33824,-4.11275 h 4.11274 l 4.11275,4.11275 h 8.22549 l 4.11275,4.11274 12.3374,-4.11274 12.33823,-12.3374 h 8.22466 l 4.11274,8.22465 4.11275,4.11275 h 16.45098 l 8.22549,-8.22549 4.11275,-8.22466 h 8.22465 l 12.33824,8.22466 h 20.56289 l 8.22465,-8.22466 -8.22465,-12.33824 v -12.33739 l 8.22465,-12.33824 8.22549,-8.22549 4.11275,-8.22549 -4.11275,-12.3374 8.22549,-4.11275 h 8.22466 l 8.22549,8.22465 4.11275,8.2255 4.11274,4.11274 4.11275,4.11275 8.22465,-8.22549 4.11275,-8.2255 16.45098,-8.22465 v -4.11275 l 4.11274,-4.11274 -8.22549,-4.11275 v -8.22548 l 8.22549,-4.1119 h 8.2255 l 4.11274,-12.33824 12.3374,-4.11275 4.11275,4.11275 v 4.11274 h 8.22549 v 4.11275 l 4.09515,8.22465 8.22549,4.11274 4.11275,-4.11274 16.45013,16.45097 16.45099,8.2255 4.11274,8.22465 16.45098,-4.11275 12.3374,-4.1119 h 4.11275 l 4.11275,-4.11275 h 4.11274 l 8.22549,-4.11275 -4.11274,-8.22549 4.11274,-4.11274 -8.22549,-12.33739 v -4.11275 l 12.33824,-8.22549 4.11274,-4.11274 h 12.3374 l 16.45099,4.11274 4.11274,-8.22549 8.22549,4.11275 v 8.22549 l 12.33824,-4.11275 v 8.22549 l 4.11275,-4.11274 4.11274,-8.22549 h -4.11274 l -4.11275,-8.22549 v -8.2255 l 4.11275,-4.1119 h 4.11274 l 16.45015,24.67563 h 4.11274 l 8.22549,12.33824 8.22466,-4.11275 12.33823,8.2255 h 8.2079 l 12.33824,12.33738 h 12.3374 l 16.45098,-12.33738 h 20.56289 l 12.33824,16.45013 h 4.11275 l 8.22465,-12.33823 12.33824,4.11274 4.11274,-12.33739 4.11275,4.11275 4.11274,-4.11275 h 4.11275 l 4.11275,-8.22549 12.3374,-12.33824 8.22549,-12.33824 h 8.22549 l 12.3374,12.33824 h 4.11274 l 8.22549,4.11275 8.2255,12.33823 -4.11275,4.11275 4.11275,8.22465 v 8.22548 l 4.11274,4.11275 8.22549,4.11274 v 8.2255 l -4.11274,12.3374 v 8.22549 l -4.11275,4.11274 8.22549,8.22549 h 8.22549 l 8.22466,-8.22549 h 8.22549 l 4.09514,4.11275 4.11275,-4.11275 8.22549,8.22549 8.22553,8.2255 8.2255,8.22465 h 8.2246 l 4.1128,8.22549 16.451,8.22549 z"
     style="clip-rule:evenodd;fill:#000000;fill-rule:nonzero;stroke:none;stroke-width:8.56892px"
     id="path1332" />
</svg>
