<?xml version="1.0" encoding="UTF-8" standalone="no"?>
<svg
   xmlns:dc="http://purl.org/dc/elements/1.1/"
   xmlns:cc="http://creativecommons.org/ns#"
   xmlns:rdf="http://www.w3.org/1999/02/22-rdf-syntax-ns#"
   xmlns:svg="http://www.w3.org/2000/svg"
   xmlns="http://www.w3.org/2000/svg"
   xmlns:sodipodi="http://sodipodi.sourceforge.net/DTD/sodipodi-0.dtd"
   xmlns:inkscape="http://www.inkscape.org/namespaces/inkscape"
   version="1.0"
   width="1024pt"
   height="1024pt"
   viewBox="0 0 1024 1024"
   preserveAspectRatio="xMidYMid meet"
   id="svg2211"
   sodipodi:docname="vector.svg"
   inkscape:version="1.0.2-2 (e86c870879, 2021-01-15)">
  <defs
     id="defs2215" />
  <sodipodi:namedview
     pagecolor="#ffffff"
     bordercolor="#666666"
     borderopacity="1"
     objecttolerance="10"
     gridtolerance="10"
     guidetolerance="10"
     inkscape:pageopacity="0"
     inkscape:pageshadow="2"
     inkscape:window-width="1366"
     inkscape:window-height="697"
     id="namedview2213"
     showgrid="false"
     inkscape:zoom="0.1940918"
     inkscape:cx="1266.7524"
     inkscape:cy="760.26375"
     inkscape:window-x="-8"
     inkscape:window-y="-8"
     inkscape:window-maximized="1"
     inkscape:current-layer="svg2211"
     fit-margin-top="0"
     fit-margin-left="0"
     fit-margin-right="0"
     fit-margin-bottom="0" />
  <metadata
     id="metadata2205">
Created by potrace 1.10, written by Peter Selinger 2001-2011
<rdf:RDF>
  <cc:Work
     rdf:about="">
    <dc:format>image/svg+xml</dc:format>
    <dc:type
       rdf:resource="http://purl.org/dc/dcmitype/StillImage" />
    <dc:title></dc:title>
  </cc:Work>
</rdf:RDF>
</metadata>
  <path
     d="m 494.24333,11.83817 h -5.91908 v 5.919075 h 17.75602 v 5.919076 h 5.91908 l 5.91907,5.919075 h -5.91907 v 5.919075 l 5.91907,-5.919075 5.91908,5.919075 V 53.2717 l -17.75602,17.75602 h 11.83694 v 23.6763 l 11.83815,17.75602 5.91908,5.91907 v 5.91908 h -5.91908 v 5.91907 h 5.91908 v -5.91907 h 23.67509 v 11.83694 l 5.91905,5.91908 v -5.91908 5.91908 h 17.7573 v 5.91907 h 17.7571 v 5.91908 h 5.9191 v 5.91907 l 11.837,11.83815 v -5.91907 h 5.9191 v 5.91907 h 11.8381 v 5.91908 h 11.8369 v 5.91907 h 11.8382 v 5.91908 h 11.8381 l 5.9191,-5.91908 v 17.75602 h 5.9191 v 17.75723 h 5.919 l -5.919,5.91907 v 5.91908 h 5.919 v 5.91787 h 5.9191 v 5.91907 l 17.7561,-17.75602 11.8382,-5.91907 h 11.8381 l 5.9191,-11.83815 h 5.9191 v -17.75602 h 5.919 v 5.91907 -5.91907 l 5.9191,5.91907 h 5.9191 l 5.9191,5.91787 v 5.91908 h 5.919 v 5.91907 h -5.919 l 5.919,5.91908 v 11.83815 h 5.9191 v -5.91908 l 5.9191,5.91908 h 5.9191 l 5.8936,5.91787 v 11.83815 l 5.9191,-5.91908 h 17.7572 v 5.91908 -5.91908 l 5.9191,-5.91907 v 5.91907 l 5.9191,-5.91907 v -5.91787 h 17.7561 v 5.91787 l 5.9191,-5.91787 v 5.91787 h 5.919 v 5.91907 h 11.8382 v 11.83815 h -5.9191 v 23.6763 h 5.9191 -5.9191 v 11.83815 h 5.9191 v 17.75602 h -5.9191 v 5.91908 l -5.9191,5.91907 -5.919,11.83815 v 5.91787 l 5.919,11.83815 h 5.9191 v 5.91908 l 11.8382,11.83815 v -5.91908 29.59417 l -5.9191,11.83815 -11.8382,-5.91907 v -5.91908 l -5.919,11.83815 v 5.91908 h -5.9191 v 5.91907 h -11.8382 v 11.83815 h -23.6751 v 11.83695 h -5.9191 v 5.91905 l -5.9191,5.91908 v 5.91907 h 5.9191 v 5.91908 h -5.9191 v 5.91907 h -5.9191 l -5.919,5.91908 v 5.91787 h 5.919 l -5.919,5.91907 -5.9191,-5.91907 v 5.91907 h -5.9191 v 5.91908 h -5.9191 v 5.91907 h -5.919 v 5.91908 h -11.8382 v 5.91907 h -5.9191 v 23.6763 h 5.9191 -5.9191 l -5.919,5.91787 -5.9191,5.91908 v 5.91907 h -5.9191 v 5.91908 h -5.9191 v 5.91907 h -5.919 v 5.91908 l -5.9191,5.91907 h 5.9191 v 5.91787 h -5.9191 v 5.91908 h -5.9191 v 5.91907 h -5.9191 l -5.919,5.91908 h 5.919 v 5.91907 h 5.9191 v 5.91908 h 5.9191 v 29.59417 h -5.9191 v 5.91907 h 5.9191 v 5.91908 h 11.8381 v 11.83815 l 11.8382,5.91907 v 5.91908 -5.91908 h -5.9191 v 11.83695 l 5.9191,-5.91787 v 5.91787 h -11.8382 v 17.75722 h -5.919 v 11.83815 h 5.919 v 11.83695 h 5.9191 v 5.91907 h 5.9191 v 5.91908 h 11.837 v 5.91907 h -5.9191 v -5.91907 h -5.919 v 5.91907 h -5.9191 v 11.83815 h -5.9191 v 5.91908 l 5.9191,5.91907 v 5.91908 h 5.9191 v 11.83694 h -5.9191 v 5.91908 h 11.8381 l 5.9191,-5.91908 v 5.91908 h 11.8382 v 5.91907 h 5.919 v 5.91908 l 5.9191,5.91907 5.9191,-5.91907 5.9191,5.91907 v -5.91907 h 5.919 v 5.91907 l 5.9191,5.91908 h -5.9191 v 5.91787 l 5.9191,-5.91787 v 11.83694 h 5.9191 v 5.91908 l -23.6763,23.6763 v 41.45643 h -5.9191 l -11.8381,17.75722 h -11.8371 v 5.91908 h -5.919 l -5.9191,5.91907 h 5.9191 v 5.91908 l 5.919,5.91907 v 17.75598 h -5.919 l -5.9191,5.9191 v -5.9191 h -5.9191 l -5.9191,5.9191 h -5.919 v 11.8382 h -5.9191 v 11.8369 h -5.9191 v 11.8382 l -5.9191,-5.9191 v 5.9191 h -17.7572 v 5.91895 h -5.9191 v -5.91895 h -11.8368 l -11.8382,-5.9191 h -11.837 v -5.9191 l -5.9191,-5.9179 v -5.919 l -17.7572,-5.9191 v -5.9191 h -5.9191 v 5.9191 h -23.6763 v 5.9191 h 5.9191 v 5.919 h 11.8381 v 5.9179 h -5.919 v 5.9191 h 5.919 -5.919 v 5.9191 h -11.8382 v 5.91895 h -11.8369 l -5.919,5.9191 v -11.83805 5.91895 l -5.9191,-5.91895 v 5.91895 l -5.9191,-5.91895 v -5.9191 h -5.91906 v -5.9191 h 5.91906 v -5.9179 h -5.91906 v -5.919 5.919 h -11.83815 v 5.9179 h -5.91908 v -5.9179 l -5.91907,-5.919 h -23.6751 l -5.89496,5.919 h -23.6763 v 11.837 -5.9191 h -5.91908 v 5.9191 h -29.59417 v 5.9191 h 5.91908 v 5.91895 h -17.75602 v -5.91895 l -5.91908,-5.9191 h -5.91907 v 5.9191 h -5.91908 l 5.91908,5.91895 h -5.91908 l -5.91907,5.9191 h -5.91908 v -5.9191 h -5.91907 v -5.91895 h 5.91907 v -5.9191 h -11.83815 v -5.9191 h -5.91907 v -5.9179 h -5.91908 v -5.919 l -11.83815,5.919 v -5.919 h -5.91907 5.91907 -5.91907 l 5.91907,-11.8382 h -11.83694 v -5.9191 l -5.91908,-5.919 v 5.919 h -5.91907 v 5.9191 -5.9191 l -5.91908,5.9191 h -11.83815 v 5.9191 h 5.91908 v 5.9191 h -5.91908 l -17.75602,5.919 v 17.7561 l 5.91908,11.83805 5.91907,5.9191 -11.83815,11.8381 -5.91907,-5.919 -11.83695,5.919 v -17.7572 l -5.91907,-5.9191 -11.83814,5.9191 -5.91907,-11.83805 -17.75723,11.83805 v 5.9191 h -11.83694 l -5.91908,-5.9191 v -5.9191 h 5.91908 v -5.91895 h -5.91908 v -11.8382 h -5.91907 v -17.756 l 5.91907,-11.8382 h 17.75602 v -11.83811 h 5.91908 v -5.91787 l -5.91908,-5.91907 h 11.83815 v -17.75723 h 11.83815 v -11.83815 l 5.91906,-5.91907 11.83815,11.83815 5.91908,-5.91908 v 5.91908 l 17.75602,-11.83815 v -5.91908 h 5.91907 v -5.91907 l -5.91907,-5.91787 h -5.91908 v -5.91908 h -5.91907 v -17.75722 h -11.83695 v -29.59417 h 5.91908 v -11.83815 h -5.91908 v -11.83815 h 5.91908 v -5.91787 h 5.91907 v -17.75723 h 5.91908 v -5.91907 h 5.91907 v -17.75723 h -5.91907 v -5.91907 h -5.91908 v -5.91908 h -5.91907 v -5.91787 h -5.91908 l -5.91907,5.91787 h -5.91908 v 5.91908 l -5.91906,5.91907 v -5.91907 l -5.91907,5.91907 h -11.83815 v -5.91907 h -5.91908 l -5.91907,-5.91908 v -11.83694 h -5.91908 v -11.83815 l 11.83815,-11.83815 v -11.83695 l 5.91908,-11.83815 -5.91908,-5.91907 v -5.91908 h -5.91907 v -11.83815 l -5.91908,5.91908 v -5.91908 h -5.91907 l 5.91907,-5.91907 h -5.91907 v -5.91908 h 5.91907 -5.91907 v -11.83694 h 5.91907 v -5.91908 h 5.91908 v -5.91907 h 11.83694 v -11.83815 h 5.91908 v -11.83815 h 5.91907 v -5.91787 h 5.91908 v -17.75723 h 5.91906 v 5.91908 h 5.91907 v -5.91908 h 5.91908 v -17.75601 l 5.91907,-5.91908 5.91908,5.91908 v -5.91908 l 5.91907,5.91908 5.91908,5.91786 v -5.91786 5.91786 h 5.91907 v -5.91786 h 5.91908 v -5.91908 h 5.91907 l 5.91908,-5.91908 v 5.91908 h 11.83815 v 5.91908 h -5.91908 5.91908 v 5.91786 h 5.91907 v -5.91786 11.83694 h -5.91907 v 5.91907 -5.91907 5.91907 h 11.83694 v 5.91908 h 11.83815 v -5.91908 h 5.91908 v -5.91907 5.91907 -11.83815 5.91908 -5.91908 h 5.91907 -5.91907 5.91907 v 5.91908 h 5.91908 v -5.91908 h 5.91907 l 5.91908,-5.91786 h 5.91907 v 5.91786 -5.91786 h 11.83695 v -5.91908 h -5.91908 5.91908 -5.91908 v -5.91908 h 5.91908 -5.91908 5.91908 l -5.91908,-11.83815 h 5.91908 v -5.91907 5.91907 -5.91907 5.91907 h 5.91907 v -5.91907 5.91907 h 11.83815 -5.91907 v 23.67631 h 11.83815 -5.91908 5.91908 v -5.91908 5.91908 -5.91908 h 5.91907 v 5.91908 h 5.91908 v -5.91908 5.91908 h 5.91907 v -11.83816 h 5.91908 v -5.91907 h 11.83694 v 5.91907 h 5.91908 v 5.91908 h 11.83815 v 5.91908 -5.91908 5.91908 h 29.59417 v -5.91908 h 5.91907 v 5.91908 -5.91908 h 11.83815 -5.91907 11.83694 v 5.91908 h -5.91907 5.91907 v 5.91786 h -11.83694 5.91907 v 5.91908 h 5.91908 v -5.91908 h 5.91907 -5.91907 5.91907 v -11.83694 h -5.91907 v -5.91908 5.91908 -11.83815 5.91907 h 5.91907 v -5.91907 h -5.91907 v -5.91908 h 5.91907 l 5.91905,-5.91907 h 5.9191 v -5.91908 h 5.9191 -5.9191 5.9191 v -35.51324 h 5.9191 v -5.91908 h -5.9191 v -11.83815 h -5.9191 v -11.83694 5.91787 -11.83695 h 5.9191 l 5.9191,-5.91907 v 5.91907 -5.91907 h -5.9191 5.9191 -11.8382 l -5.9191,5.91907 h -11.83812 v -5.91907 h -5.91908 v -11.83813 l 5.91908,-5.91908 h 11.83812 v -5.91907 h -5.91905 5.91905 -5.91905 v -11.83815 5.91907 h -5.91907 v 5.91908 h -5.91908 5.91908 v 5.91907 h -11.83815 5.91907 v 5.91908 h -5.91907 v 5.91907 l -5.91908,5.91906 v -11.83813 h -5.91907 v 5.91907 h -5.91908 v 5.91906 h 5.91908 v 5.91907 h -11.83815 5.91907 -11.83694 5.91907 v -5.91907 h -11.83815 v 5.91907 -5.91907 11.83815 h 5.91908 v -5.91908 5.91908 h 5.91907 -11.83694 v 5.91787 h -5.91908 v 5.91907 h -5.91907 v 11.83815 -5.91907 h -5.91908 5.91908 v -5.91908 5.91908 h -5.91908 v -5.91908 l -5.91907,5.91908 v -5.91908 5.91908 -5.91908 5.91908 h 5.91907 v 5.91907 -5.91907 l 5.91908,5.91907 v 5.91908 h -11.83815 l -5.91908,-5.91908 h 5.91908 -5.91908 v -5.91907 l -5.91907,5.91907 v -5.91907 h -5.91908 v -5.91908 h -11.83694 v -5.91907 h -11.83815 v -5.91787 h -5.91908 v -5.91908 5.91908 h -5.91907 v 5.91787 h -5.91908 v 5.91907 h -5.91907 v 5.91908 h -5.91908 v 5.91907 h -5.91907 v 5.91908 h -5.91908 v -5.91908 l -5.91907,5.91908 v 11.83815 -5.91908 h -5.91908 5.91908 v -5.91907 h -5.91908 v 5.91907 -11.83815 h 5.91908 l -5.91908,-5.91907 h -5.91907 v -11.83815 h 5.91907 v -11.83695 h 5.91908 l -11.83815,-11.83813 v -5.91907 h -11.83695 v 5.91907 h -11.83815 v 11.83813 h -5.91907 5.91907 -5.91907 v 11.83695 h -5.91908 v 23.6763 h -5.91907 v 17.75602 h -5.91908 v 5.91907 h 5.91908 l -5.91908,5.91908 h 5.91908 -5.91908 v -5.91908 h -11.83694 v -5.91907 5.91907 h -5.91908 5.91908 -5.91908 v 5.91908 -5.91908 h -5.91907 v -5.91907 h -23.6763 v -5.91787 l 5.91907,-17.75723 -11.83815,-23.67509 17.75723,-17.75721 v -5.91907 h -17.75723 v -11.83815 h -5.91906 v 5.91907 -5.91907 h -5.91907 l 5.91907,-5.91908 h -17.75602 v 5.91908 h -5.91907 v -5.91908 h -5.91908 v 5.91908 h -17.75722 v 5.91907 h -5.91908 v -5.91907 h -5.91907 5.91907 v -11.83815 h -5.91907 v -5.91908 h -11.83695 v -5.91787 l 5.91908,-5.91907 V 378.8365 h -5.91908 l -5.91907,-5.91908 5.91907,-17.75602 h -5.91907 v -5.91907 h 5.91907 l -5.91907,-5.91908 h -5.91908 v -29.59417 h 5.91908 v -5.91907 h -11.81404 v -5.91908 h -5.91908 v -11.83815 l -17.75602,5.91908 v -11.83815 l -11.83815,5.91907 -5.91907,-11.83815 v -5.91907 h -5.91908 v -11.83815 h 5.91908 v -23.6751 h 5.91907 v -11.83815 l 5.91908,5.91908 v -5.91908 h 11.83815 v -5.91907 h 11.83694 v -5.91787 h 5.91908 v -5.91908 h 5.91907 v -5.91907 h 11.83815 l 5.91908,-5.91908 h 5.91907 l 5.91908,-5.91907 v -11.83815 h 5.91907 l 5.91908,5.91907 h 5.91907 v 5.91908 h 5.91908 v -5.91908 h 5.91907 v -17.78133 h 5.91908 v -5.91908 h 5.91907 v -5.91907 h 5.91908 v -11.83815 h 5.91907 v 5.91907 h 5.91906 v -5.91907 h 5.91908 v -5.91908 h 5.91907 v -5.91787 h -5.91907 v -5.91907 h 5.91907 v -5.91908 h 5.91908 v -11.83815 h 5.91907 V 94.70402 h 5.91908 V 82.86587 h 5.91907 V 65.10864 h 35.51325 v 5.91908 h 5.91907 v -5.91908 h 5.91908 v 5.91908 h 5.91907 l 5.91908,-5.91908 v 5.91908 -5.91908 h 5.91907 -5.91907 V 53.27049 h 29.59417 V 47.35142 H 411.404 V 35.514471 h 5.91908 v 5.917869 h 5.91907 v 5.91908 h 5.91908 l 5.91907,5.91907 v 5.91908 h 5.91908 l 5.91907,-5.91908 v -5.91907 h 5.91908 v -5.91908 h 5.91907 v -5.917869 h 11.83815 v -5.919075 5.919075 h 5.89497 v -5.919075 h 5.91907 v -5.919075 l -5.91907,5.919075 v -5.919075 h -5.91908 V 11.83817 h 17.75602 V 1.9741211e-5 h 5.91908 z m 59.19075,361.05635 H 547.515 l -5.91907,5.91907 v 11.83815 h 5.91907 v -5.91907 5.91907 -5.91907 h 5.91908 v 11.83815 h 5.91907 v -23.6763 h -5.91907 v -5.91908 z m -94.704,23.6763 v -5.91908 h -11.83694 v 5.91908 h 5.91907 v -5.91908 5.91908 h 5.91908 -5.91908 v 5.91907 h 5.91908 v 5.91908 h 5.91907 -5.91907 v -5.91908 h -5.91908 v 5.91908 h 5.91908 v 5.91907 h -5.91908 5.91908 -5.91908 v 5.91787 h 5.91908 v -5.91787 5.91787 -5.91787 5.91787 -5.91787 5.91787 h 5.91907 v 11.83815 -5.91907 h 5.91908 v 5.91907 -5.91907 l 5.91907,-5.91908 h -5.91907 v 5.91908 -5.91908 h -11.83815 5.91907 -5.91907 5.91907 v -17.75602 5.91908 -5.91908 h -5.91907 5.91907 v -5.91907 5.91907 -5.91907 l -5.91907,5.91907 v -5.91907 5.91907 -5.91907 h 5.91907 -5.91907 5.91907 z m -118.37547,88.78611 h -5.91908 5.91908 -5.91908 v 5.91907 -5.91907 h 5.91908 -5.91908 z m 165.72807,-47.35259 h 5.91908 z m -35.51445,35.51444 v -5.91908 z m 147.97206,-5.91908 h 5.9191 z m 0,5.91908 v -5.91908 z m -47.3514,53.26926 h 5.9191 -5.9191 11.8382 -5.9191 v -5.91907 h -5.9191 z m 5.9191,-5.91907 h 5.9191 z"
     style="clip-rule:evenodd;fill:#000000;fill-rule:nonzero;stroke:none;stroke-width:12.3324px"
     id="path1328" />
</svg>
