<?xml version="1.0" encoding="UTF-8" standalone="no"?>
<svg
   xmlns:dc="http://purl.org/dc/elements/1.1/"
   xmlns:cc="http://creativecommons.org/ns#"
   xmlns:rdf="http://www.w3.org/1999/02/22-rdf-syntax-ns#"
   xmlns:svg="http://www.w3.org/2000/svg"
   xmlns="http://www.w3.org/2000/svg"
   xmlns:sodipodi="http://sodipodi.sourceforge.net/DTD/sodipodi-0.dtd"
   xmlns:inkscape="http://www.inkscape.org/namespaces/inkscape"
   version="1.0"
   width="1024pt"
   height="1024pt"
   viewBox="0 0 1024 1024"
   preserveAspectRatio="xMidYMid meet"
   id="svg2211"
   sodipodi:docname="vector.svg"
   inkscape:version="1.0.2-2 (e86c870879, 2021-01-15)">
  <defs
     id="defs2215" />
  <sodipodi:namedview
     pagecolor="#ffffff"
     bordercolor="#666666"
     borderopacity="1"
     objecttolerance="10"
     gridtolerance="10"
     guidetolerance="10"
     inkscape:pageopacity="0"
     inkscape:pageshadow="2"
     inkscape:window-width="1366"
     inkscape:window-height="697"
     id="namedview2213"
     showgrid="false"
     inkscape:zoom="0.1940918"
     inkscape:cx="1266.7524"
     inkscape:cy="760.26375"
     inkscape:window-x="-8"
     inkscape:window-y="-8"
     inkscape:window-maximized="1"
     inkscape:current-layer="svg2211"
     fit-margin-top="0"
     fit-margin-left="0"
     fit-margin-right="0"
     fit-margin-bottom="0" />
  <metadata
     id="metadata2205">
Created by potrace 1.10, written by Peter Selinger 2001-2011
<rdf:RDF>
  <cc:Work
     rdf:about="">
    <dc:format>image/svg+xml</dc:format>
    <dc:type
       rdf:resource="http://purl.org/dc/dcmitype/StillImage" />
    <dc:title></dc:title>
  </cc:Work>
</rdf:RDF>
</metadata>
  <path
     d="m 928.17807,377.2541 5.9889,11.97652 5.9888,5.98887 11.9778,-5.98887 h 5.9888 v 11.97774 l 5.9889,5.98886 v 5.98887 l 11.9777,5.98887 h 5.9889 v 5.98887 l -17.9666,35.93199 v 11.97773 l -17.9666,17.96539 v 5.98886 l 5.9889,5.98887 v 17.9666 l -5.9889,11.97652 5.9889,11.97772 h 23.9554 l 5.9889,11.97774 5.9889,5.98886 v 35.93199 l 5.9888,11.97652 v 17.9666 l 5.98893,11.97774 5.9889,5.98887 v 11.97651 l 5.9888,11.97774 v 11.97773 h -11.9777 l -5.98893,11.97652 v 11.97773 l 11.97783,5.98887 v 23.95425 l -5.9889,5.98887 h -11.97773 l -17.9653,11.97774 -5.9889,5.98887 v 5.98886 h 17.9653 l -11.9764,5.98887 -5.9889,5.98887 -5.9889,11.97774 h 17.9653 l 11.9778,-5.98887 h 11.97773 l 11.9777,11.97773 v 41.92086 l 5.9889,5.98887 v 11.97651 l -5.9889,5.98887 5.9889,5.98887 v 41.92085 L 1024,922.22643 v 5.98887 l -5.9889,11.97773 -11.9777,11.97771 v 17.9654 l -11.97783,5.9889 -5.9888,17.9666 5.9888,5.98886 5.98893,11.9765 h -17.96663 l 5.9889,-5.9889 -11.9765,-11.97646 v -5.9889 h -17.9666 v -11.9777 h -17.9654 l -5.9889,-17.9654 -17.9666,11.9765 -5.9889,-17.9654 -11.9777,-35.93318 -5.9889,-11.97651 -23.9541,-5.98887 -17.9666,-11.97774 v -5.98887 h -11.9778 l -5.9888,11.97774 -5.9889,5.98887 h -35.9321 l -11.9764,-5.98887 v -5.98887 h -11.9778 v -23.95547 l -11.9777,-11.97652 5.9889,-17.9666 h -23.9544 l -5.9888,5.98887 -11.9778,5.98887 v 5.98886 l -5.9888,5.98887 h -17.9653 V 808.4416 h -5.9889 v -5.98887 l 5.9889,-17.9666 -11.9778,-11.97774 v -11.97651 l 5.9889,-11.97774 -11.9777,-11.97652 5.9888,-11.97773 h -41.9209 l -5.9889,-5.98887 v -23.95547 l -5.9644,-5.98887 h -11.9765 l -5.9888,5.98887 -5.9889,-5.98887 h -29.9444 v 29.94434 l -5.9888,11.97652 H 556.9037 l -5.98887,5.98886 -11.97774,5.98887 -5.98887,-5.98887 h -17.96538 l -5.98887,5.98887 h -11.97773 v 11.97774 l -5.98887,5.98887 -5.98887,-5.98887 h -11.97651 v -11.97774 l -5.98887,-5.98887 h -5.98887 l -11.97774,-11.97651 v 11.97651 h -17.9666 l -5.98887,11.97774 -5.98887,5.98887 h -5.98886 l -5.98887,-5.98887 v -5.98887 h -5.98887 l -5.98887,5.98887 -11.97651,5.98887 v 17.96538 l -17.96661,5.98887 v -11.97652 l 5.98887,-5.98886 v -17.96661 l -5.98887,-5.98887 -11.97651,5.98887 -5.98887,-5.98887 5.98887,-11.97651 v -5.98887 l -5.98887,-5.98887 -5.98887,5.98887 v -17.9666 l -11.97773,-5.98887 h -41.87085 l -5.98887,5.98887 -11.97773,-11.97774 v -5.98887 h -17.96539 l -5.98887,-11.97651 h -11.97773 l -5.98887,-5.98887 v -11.97774 h -11.97774 l -5.98886,11.97774 h -11.97774 l -5.98887,-17.9666 -5.98887,5.98886 -17.96538,-17.96538 -5.98887,5.98887 -5.98887,-5.98887 -11.97773,11.97773 -5.98887,-5.98886 11.97774,-17.96661 -5.98887,-5.98886 h -17.9666 V 604.82497 H 101.8095 l -5.988855,11.97652 -5.98887,-11.97774 -29.94433,5.99009 -11.97773,-29.94434 v -11.97652 l -5.98887,-17.9666 h -17.96538 v -53.89614 l -5.98887,-11.97773 h -5.98887 L -5.2587889e-6,473.07477 V 449.12052 L 11.977725,437.14278 l 11.97652,-5.98886 h 11.97773 l 23.95547,-11.97774 h 11.97774 l 5.98885,5.98887 11.97652,-5.98887 V 359.2875 l 5.98887,-17.96538 v -11.97774 h 23.955465 l 11.97651,-5.98887 V 311.379 l 11.97774,5.98887 h 5.98887 l 17.9666,5.98886 h 23.95425 l -5.98887,-5.98886 -5.98886,-11.97774 5.98886,-17.9666 v -5.98887 l 5.98887,-5.98887 h 29.94312 v -23.95425 h 5.98887 l 5.98887,5.98887 h 11.97773 l 11.97652,-5.98887 5.98887,-5.98887 v -5.98887 l -5.98887,-5.98887 v -5.98886 l -5.98887,-5.98887 v -11.97774 l -5.98887,-5.98886 -5.98886,-11.97652 v -11.97774 l 5.98886,-11.97773 v -5.98887 l -5.98886,-5.98887 h -5.98887 v -11.97773 h 5.98887 l 11.97773,-11.97652 v -11.97774 l 5.98887,-11.97651 V 77.819254 l -5.98887,-5.98887 v -5.98887 h 5.98887 l 5.98887,-5.98887 h 5.98887 l 5.98886,-5.98886 h 5.98887 l 5.98887,-17.966607 h 5.98887 l 47.90972,23.955467 h 5.98887 l 17.9666,-5.98886 23.95425,-23.955475 v 23.955475 l 5.98887,5.98886 h 29.94434 l 11.97652,-11.97773 5.98887,-11.977737 11.97773,-11.976516 h 23.95425 v -5.988868 l 5.98887,-5.988868 h 17.9666 v 29.943119 l -5.98886,11.97774 5.98886,11.97773 h 17.96539 l 5.98887,5.98887 5.98886,11.97652 v 11.97773 l 5.98887,5.988866 h 11.97774 l 11.97777,-11.977736 h 23.9542 l 11.9778,5.98887 5.9631,5.988866 h 17.9666 l 11.9778,-5.988866 h 5.9888 l 11.9766,-5.98887 h 11.9778 l 5.9888,5.98887 v 35.931986 l 17.9654,17.9666 h 11.9777 l 11.9777,-5.98886 17.9655,5.98886 11.9777,-5.98886 v -5.98887 l 11.9778,5.98887 h 5.9888 v -11.97774 l 11.9765,-5.98887 5.9888,-5.98887 11.9778,-5.98886 5.9888,-5.98887 5.9889,5.98887 v 5.98886 l 5.9889,11.97774 -5.9889,5.98887 -5.9889,11.97651 v 5.98887 l 5.9889,5.98887 5.9889,11.97774 v -5.98887 h 11.9766 l 17.9666,-11.97652 h 5.9888 l 5.9889,5.98887 -5.9889,11.97774 v 53.89615 l -5.9888,11.97773 -11.9778,11.97774 -11.9766,5.98887 -5.9888,11.97651 v 59.88868 l 5.9888,11.97774 h 29.9432 l 17.9666,-17.96661 5.9889,-11.97651 h 11.9764 l 17.9666,5.98887 h 5.9889 l 11.9766,5.98886 h 29.8687 l -5.9888,5.98887 -5.9889,11.97652 5.9889,5.98887 v 11.97773 l -5.9889,11.97652 -5.9889,5.98886 z"
     style="clip-rule:evenodd;fill:#000000;fill-rule:nonzero;stroke:none;stroke-width:12.4778px"
     id="path1334" />
</svg>
