<?xml version="1.0" encoding="UTF-8" standalone="no"?>
<svg
   xmlns:dc="http://purl.org/dc/elements/1.1/"
   xmlns:cc="http://creativecommons.org/ns#"
   xmlns:rdf="http://www.w3.org/1999/02/22-rdf-syntax-ns#"
   xmlns:svg="http://www.w3.org/2000/svg"
   xmlns="http://www.w3.org/2000/svg"
   xmlns:sodipodi="http://sodipodi.sourceforge.net/DTD/sodipodi-0.dtd"
   xmlns:inkscape="http://www.inkscape.org/namespaces/inkscape"
   version="1.0"
   width="1024pt"
   height="1024pt"
   viewBox="0 0 1024 1024"
   preserveAspectRatio="xMidYMid meet"
   id="svg2211"
   sodipodi:docname="vector.svg"
   inkscape:version="1.0.2-2 (e86c870879, 2021-01-15)">
  <defs
     id="defs2215" />
  <sodipodi:namedview
     pagecolor="#ffffff"
     bordercolor="#666666"
     borderopacity="1"
     objecttolerance="10"
     gridtolerance="10"
     guidetolerance="10"
     inkscape:pageopacity="0"
     inkscape:pageshadow="2"
     inkscape:window-width="1366"
     inkscape:window-height="697"
     id="namedview2213"
     showgrid="false"
     inkscape:zoom="0.1940918"
     inkscape:cx="1052.9361"
     inkscape:cy="760.26375"
     inkscape:window-x="-8"
     inkscape:window-y="-8"
     inkscape:window-maximized="1"
     inkscape:current-layer="svg2211"
     fit-margin-top="0"
     fit-margin-left="0"
     fit-margin-right="0"
     fit-margin-bottom="0" />
  <metadata
     id="metadata2205">
Created by potrace 1.10, written by Peter Selinger 2001-2011
<rdf:RDF>
  <cc:Work
     rdf:about="">
    <dc:format>image/svg+xml</dc:format>
    <dc:type
       rdf:resource="http://purl.org/dc/dcmitype/StillImage" />
    <dc:title></dc:title>
  </cc:Work>
</rdf:RDF>
</metadata>
  <path
     d="m 666.32017,186.14873 4.89885,9.79969 h 9.79969 l 9.79969,4.89985 v 14.69954 l 4.89985,9.79969 -4.89985,4.89885 v 24.49923 l -4.89984,9.79869 -9.79969,4.89985 -4.89985,4.89985 -4.89885,9.79969 v 53.89631 h -4.89985 l -4.89984,4.89985 v 9.79969 l 4.89984,9.7987 19.59839,9.79969 14.69954,4.89985 14.69854,9.79969 9.79969,14.69954 v 4.89984 l -4.89984,14.69854 4.89984,19.59939 9.79971,34.29793 v 14.69854 l 9.7997,9.79969 h 14.6985 l 9.7997,-4.89985 14.6996,4.89985 4.8988,4.89985 v 29.39808 l 4.8998,9.79969 4.8999,4.89984 h 9.7997 l 9.7997,-4.89984 h 9.7997 l 9.7986,-4.89985 4.8999,4.89985 -4.8999,9.79969 v 9.7987 l 14.6996,9.82065 h 19.5984 v 19.59838 l 9.7997,4.89985 9.7997,9.79968 h 9.7997 l 4.8988,9.79969 -4.8988,4.89985 -4.8998,14.69854 v 14.69954 l -4.8999,9.79869 4.8999,14.69954 14.6984,14.69954 9.7997,4.89885 h 24.4993 l 4.8998,4.89984 4.8989,14.69954 v 9.7997 l 9.7997,4.89984 9.7997,4.89985 9.7997,-4.89985 h 9.7986 l 4.8999,4.89985 4.8998,9.79869 -4.8998,4.89985 h -4.8999 v 19.59939 l 4.8999,4.89984 4.8998,14.69854 -4.8998,14.69954 9.79971,9.79969 v 9.7997 l 4.8998,9.79869 4.8999,4.89985 4.8998,9.79969 4.8999,14.69854 -4.8999,14.69954 v 4.89985 h -4.8998 l -4.8999,9.79869 v 4.89985 h -4.8998 l -4.89991,4.89984 v 4.89985 l -4.8998,4.89985 -4.8999,-4.89985 -4.8998,-4.89985 h -9.7986 l -9.7997,-4.89984 v -4.89985 h -14.6996 v -4.89885 h -9.7987 l -4.8999,-4.89984 h -4.8998 v -4.89985 14.69854 h -4.8999 v 9.79969 l 4.8999,4.89985 v 14.69954 h -9.7997 l -4.8999,4.89985 h -4.8998 v 4.89984 l -4.8999,4.89985 v 4.89885 l -14.6984,-4.89885 h -9.7997 v -4.89985 h -4.8999 l -9.7997,-14.69954 h -4.8989 v -4.89984 h -14.6995 l -9.7997,9.79969 v 4.89985 h -4.8999 l -4.8987,4.89984 h -4.8999 l -14.6995,-4.89984 h -14.6996 v -4.89985 l -4.8999,-4.89985 -9.7986,-4.89984 h -4.8999 l -4.8998,-4.89985 v -4.89985 h -9.7997 l -4.8999,4.89985 v 4.89985 l -4.8998,-4.89985 h -14.6986 l -9.7997,-4.89985 h -14.6995 l -4.89984,-4.89984 h -4.89985 l -14.69854,-4.89985 -4.89985,-4.89885 h -9.79969 l -4.89885,4.89885 h -9.79969 v -4.89885 h -4.89985 l -9.79969,-4.89984 h -14.69953 l -19.59838,-9.7997 h -14.69954 l -19.59839,-4.89984 h -29.39808 l -4.89985,-4.89985 h -4.89984 v -9.79869 h 4.89984 l 9.7997,-9.7997 v -4.89984 h -4.89985 v -4.89985 h -19.59939 v 4.89985 l -4.87889,4.89984 -4.89984,4.89985 h -14.69954 v -4.89985 l -4.89985,-4.89984 v -4.89985 l -4.89984,-4.89984 h -4.89885 l -4.89985,-4.89885 h -4.89984 v -4.89985 h -14.69954 v 19.59839 l -4.89985,-4.89985 -9.79969,-4.89984 -4.89985,-4.89885 h -24.49823 l -4.89985,4.89885 v 9.79969 l -9.79869,4.89984 v 19.59839 h -4.89985 v 9.79969 h -14.69954 l -4.89984,-4.89984 h -4.89985 v -24.49824 l -4.89885,-4.89984 v -4.89985 h -44.09662 l 4.89985,-4.89984 v -9.7987 h -9.7997 l -4.89984,-4.89985 h -24.49824 v -4.89984 h -4.89984 v 4.89984 h -9.7997 l -4.89884,-4.89984 h -4.89985 l -4.89985,-4.89985 h -9.77873 v -4.89984 h -19.59939 v -9.7997 l -4.89984,4.89985 v -4.89985 h -4.89985 l -4.89985,4.89985 h -4.89984 v -9.79969 h -4.89885 v 4.89984 h -4.89985 v -4.89984 l -4.89984,4.89984 v -4.89984 h -4.89985 v -4.89985 h -9.79969 v -4.89885 l -4.89985,4.89885 v -4.89885 h -29.39808 l -4.89985,-4.89984 v 4.89984 l -4.89984,-4.89984 h -9.79968 v -4.89985 h -4.89885 v 4.89985 l -4.89985,-4.89985 h -9.79969 v -9.79969 l 4.89985,-9.7997 -4.89985,-4.89884 -4.89985,-24.49924 -9.79969,-9.79969 v -9.79969 l 9.79969,-4.89885 4.89985,-4.89985 v -14.69954 h 24.49823 l 9.79968,-4.89984 4.89985,-4.89985 v -29.39808 l 4.89985,-4.89984 4.89984,-4.89885 v -9.7997 l -4.89984,-4.89984 -9.7997,-9.79968 -14.69952,-4.89985 h -24.49824 l -14.69854,-4.89984 h -9.79969 l -4.89985,-9.7997 -9.79969,-4.89884 -4.89984,-4.89985 4.89984,-4.89985 4.89985,-4.89984 v -9.7997 l -9.79969,-4.89984 H 29.39806 l -9.7997,-4.89885 H 9.7986697 L 4.8998197,519.35025 -2.0258789e-5,504.65071 9.7986697,499.75087 14.69852,494.85102 v -14.69854 l 4.89984,-9.79969 4.89985,-14.69854 v -19.59939 l 9.79969,-9.79969 h 9.79969 l 4.89985,4.89985 4.89985,9.79969 v 9.79969 h 4.89885 l 9.79969,-9.79969 h 9.79969 l 4.89985,-4.89985 V 387.0564 l -4.89985,-9.79969 4.89985,-4.89985 v -4.89985 h 9.79869 l 4.89985,4.89985 h 14.69954 v -19.59839 l 4.89984,-4.89984 4.89985,-4.89985 h 4.89885 l 4.89984,4.89985 4.89984,9.79969 9.79969,4.89885 h 9.79969 l 4.89985,4.89984 4.89985,-4.89984 9.79869,4.89984 9.79969,-9.79869 4.89985,-4.89985 -4.89985,-9.79969 -4.89984,-4.89985 h 9.79969 l 9.79969,-4.89984 4.89985,-9.7987 v -14.69954 l 4.89885,-9.79969 9.79969,-4.89885 -4.89985,-9.79969 -4.89984,-9.79969 -4.89885,-29.39808 14.69854,-9.7997 -9.79969,-4.89984 -4.89885,-4.89985 v -19.59839 l 9.79869,-9.79969 v -34.29792 l -4.89984,-9.7997 4.89984,-4.89984 4.89985,-4.89985 4.89985,-14.69854 4.89984,-4.89985 h 9.79969 l 14.69954,-4.89984 14.69854,-4.89985 9.7997,-4.89985 4.89984,-4.89983 9.7987,-4.89985 9.79969,-4.89884 14.69954,-4.89985 9.79869,-4.89985 h 9.7997 l 4.89984,4.89985 v 29.39807 l 9.7997,-4.89985 4.89984,-4.89985 h 9.79969 l 9.7987,4.89985 9.79969,-4.89985 h 14.69954 l 9.7987,4.89985 9.79969,19.59839 4.89985,4.89984 19.59938,9.7997 v 9.79969 l 14.69854,-9.79969 h 4.89985 l 9.79969,4.89984 4.89985,4.89985 4.89984,9.79869 4.89885,9.7997 v 14.69954 l 9.77974,14.69953 9.79869,9.7987 9.79969,4.89985 9.7997,4.89984 4.89984,4.89985 4.89985,4.89984 4.89984,4.89985 h 14.69855 v -4.89985 l 4.89984,-9.79969 v -9.79969 l 9.79969,-4.89885 h 24.49824 v -14.69954 l 4.89984,-9.79969 h 4.89985 l 9.79969,-4.89985 4.89985,9.7997 9.79969,-4.89985 h 4.89884 l 14.69954,-4.89985 14.69954,4.89985 z"
     style="clip-rule:evenodd;fill:#000000;fill-rule:nonzero;stroke:none;stroke-width:10.2088px"
     id="path1318" />
</svg>
