<?xml version="1.0" encoding="UTF-8" standalone="no"?>
<svg
   xmlns:dc="http://purl.org/dc/elements/1.1/"
   xmlns:cc="http://creativecommons.org/ns#"
   xmlns:rdf="http://www.w3.org/1999/02/22-rdf-syntax-ns#"
   xmlns:svg="http://www.w3.org/2000/svg"
   xmlns="http://www.w3.org/2000/svg"
   xmlns:sodipodi="http://sodipodi.sourceforge.net/DTD/sodipodi-0.dtd"
   xmlns:inkscape="http://www.inkscape.org/namespaces/inkscape"
   version="1.0"
   width="1024pt"
   height="1024pt"
   viewBox="0 0 1024 1024"
   preserveAspectRatio="xMidYMid meet"
   id="svg2211"
   sodipodi:docname="vector.svg"
   inkscape:version="1.0.2-2 (e86c870879, 2021-01-15)">
  <defs
     id="defs2215" />
  <sodipodi:namedview
     pagecolor="#ffffff"
     bordercolor="#666666"
     borderopacity="1"
     objecttolerance="10"
     gridtolerance="10"
     guidetolerance="10"
     inkscape:pageopacity="0"
     inkscape:pageshadow="2"
     inkscape:window-width="1366"
     inkscape:window-height="697"
     id="namedview2213"
     showgrid="false"
     inkscape:zoom="0.1940918"
     inkscape:cx="1174.0128"
     inkscape:cy="760.26375"
     inkscape:window-x="-8"
     inkscape:window-y="-8"
     inkscape:window-maximized="1"
     inkscape:current-layer="svg2211"
     fit-margin-top="0"
     fit-margin-left="0"
     fit-margin-right="0"
     fit-margin-bottom="0"
     inkscape:document-rotation="0" />
  <metadata
     id="metadata2205">
Created by potrace 1.10, written by Peter Selinger 2001-2011
<rdf:RDF>
  <cc:Work
     rdf:about="">
    <dc:format>image/svg+xml</dc:format>
    <dc:type
       rdf:resource="http://purl.org/dc/dcmitype/StillImage" />
    <dc:title></dc:title>
  </cc:Work>
</rdf:RDF>
</metadata>
  <path
     d="m 103.66565,964.28867 v -1.7565 z M 546.24567,1.7564282 555.02743,3.5128542 558.54029,2.2412102e-6 h 5.26892 L 570.83491,1.7564282 l 3.51285,5.269279 7.02535,5.2689198 h 5.26928 l 5.26892,1.756426 8.77497,-5.2692778 8.78178,-3.512494 5.26927,-3.512853 5.26893,8.7817728 v 5.269278 l 1.75642,3.512853 v 7.025346 l 1.75643,8.782131 1.75642,7.025348 v 3.51285 l -1.75642,3.51285 1.75642,3.5125 5.26892,1.75642 3.51286,3.51286 1.75642,8.78177 3.51285,5.26928 3.51286,-3.51286 -1.75643,-7.0257 3.51285,-1.75607 h 3.51249 l 3.51285,1.75607 v 8.78213 l 1.75643,7.0257 5.26895,5.26893 3.51285,1.75642 3.51285,7.02535 10.53817,7.0257 -1.75642,5.269283 v 7.02535 l 5.26928,7.0257 5.26928,3.51249 5.26894,1.75643 v 1.75642 l -1.75643,5.26928 -1.75642,3.5125 -1.75609,3.51285 1.75609,3.51285 7.0257,1.75643 h 3.50532 l 1.75642,1.75642 -1.75642,3.51285 v 5.26893 l 10.53855,3.51285 1.7561,3.52 5.26927,1.75643 3.51286,-1.75643 1.75642,1.75643 7.02533,-3.51285 1.75642,1.75642 1.75643,7.02571 h 5.26928 l 1.75609,5.26892 h 5.26928 l 3.51285,1.75643 v 3.51285 l -8.7818,3.51285 -7.0257,3.51285 -1.75643,3.5125 -1.75642,5.26928 v 7.02534 l 3.51285,7.02571 1.75642,5.26892 1.75643,3.51285 3.51285,1.75642 1.75609,-1.75642 1.75643,-3.51285 3.51285,-1.75643 5.26928,1.75643 v 1.75642 l 5.2689,-1.75642 3.51285,-5.26892 5.26894,-1.75643 1.75643,-5.26928 5.26928,-1.75642 1.75643,-5.26892 7.0257,-3.51286 3.51247,1.75643 5.26928,-5.26892 h 5.26179 l 3.5129,3.51249 1.7564,8.78178 1.7564,3.51285 3.5125,1.75642 1.7564,5.26928 -1.7564,3.5125 5.2693,7.0257 3.5128,5.26928 v 5.26892 l 5.2689,3.51285 h 10.5382 l 3.5129,-5.26928 v -8.78177 l 3.5128,-1.75643 h 5.2693 l 5.2689,3.51286 5.2693,7.02534 3.5128,7.02571 1.7561,5.26892 -1.7561,7.0257 1.7561,7.02571 8.7822,-1.75643 -3.5129,3.51285 v 3.5125 l 1.7564,7.0257 1.7565,5.26892 -1.7565,5.26928 -3.5128,5.26892 -1.7564,3.51285 -1.7565,5.26928 -1.7561,3.51285 1.7561,5.26892 1.7565,3.51285 3.5128,-3.51285 1.7564,-3.51249 h 3.5129 l 3.5128,3.51249 v 7.0257 l 5.2689,5.26892 1.7565,3.51286 3.5128,1.75642 1.7564,1.75643 5.2618,1.75643 h 1.7565 v 3.51285 l -8.7822,8.78177 -3.5125,1.75643 -3.5129,-5.26928 -3.5128,5.26928 -1.7564,5.26892 1.7564,3.51285 3.5128,3.51285 v 3.51285 l 3.5129,5.26892 1.7564,1.75643 -3.5128,5.26928 v 7.02534 l 1.7564,3.51286 8.7818,7.0257 v -3.51285 h 3.5129 l 3.5124,5.26892 5.2693,5.26928 3.5129,1.75642 1.7564,7.03286 3.5128,3.51285 -1.7564,5.26928 3.5125,1.75607 v 5.26928 l 1.7564,3.51285 3.5129,1.75643 3.5129,3.51249 1.7564,3.51285 1.756,1.75643 -1.756,1.75643 h -5.2693 l -1.7564,1.75607 h -3.5129 v 1.75642 h -1.7561 l -1.7564,1.75643 v 1.75642 h -1.7564 v 1.75643 h -3.5129 v 1.75643 h -1.7564 v 1.75642 h -1.7564 l -1.7565,1.75643 -1.7564,1.75642 v 1.75643 h -3.5124 v 1.75643 h -1.7565 l -1.7564,1.75606 h -3.5129 l -1.7564,1.75643 v 1.75643 l -1.7561,1.75642 h -1.7564 v 1.75643 h -3.5129 v 1.75643 h -5.2692 V 456.674 h -1.7561 v 3.51249 h -7.0257 v 1.75643 h -3.5128 v 1.75643 h -1.7565 v 1.75642 h -1.7564 l 1.7564,1.75643 v 1.75642 h -1.7564 v 1.75643 l -1.7564,1.75643 v 1.75642 h -1.7561 v 5.26892 l -1.7564,1.75642 v 3.51286 l -5.2693,5.26892 v 5.26928 h -1.7564 v 1.75642 h -1.7565 v 7.02535 h -1.756 v 1.75642 h -1.7564 v 5.26928 h -1.7565 v 3.51285 l -1.7564,1.75643 -1.7564,1.75643 -1.7564,3.51249 h -1.7565 v 1.75643 l -3.5128,3.51285 h -1.7564 v 1.75643 l 1.7564,3.51249 1.7564,1.75643 v 8.78213 l 3.5129,3.51285 h 1.7564 l 1.7564,-1.75643 h 5.2693 v -1.75642 l 3.5125,-3.51286 h 1.7564 l 3.5128,-1.75642 h 1.7565 v -1.75643 l 1.7564,-1.75642 h 1.7561 l 1.7564,1.75642 h 7.0257 l 1.7564,1.75643 h 3.5129 l 1.7564,1.75642 1.7561,-1.75642 v 1.75642 h 1.7564 v 1.75643 l -1.7564,1.75643 v 5.26927 l 1.7564,1.75607 v 3.51286 l -1.7564,1.75642 1.7564,1.75643 v 1.75642 h -1.7564 v 3.5125 h 1.7564 v 1.75642 h 1.7564 l 3.5129,1.75643 v 1.75643 h 5.2689 l -1.7561,1.75642 v 1.75643 h 1.7561 v 1.75607 l 3.5129,1.75642 v 1.75643 l -1.7565,1.75643 v 1.75642 h 1.7565 l -1.7565,3.51285 h 1.7565 v 1.75643 h -1.7565 v 1.75643 l -1.7564,1.75642 v 1.75643 h 3.5129 v 5.26892 h -1.7565 v 5.26928 h -1.7564 v 1.75606 h -1.7561 v 1.75643 h -1.7564 v 3.51285 h -3.5129 v 5.26928 h -1.7564 v 1.75643 h -1.7564 v 3.51285 h -1.7564 v 1.75607 h -1.7561 v 5.27679 h -1.7564 v 1.75607 l -3.5129,3.51285 v 3.51285 h -1.7564 v 1.75643 h -3.5128 l 1.7564,1.75642 -1.7564,1.75607 v 1.75643 h -1.7565 l 1.7565,1.75642 -1.7565,1.75643 1.7565,1.75643 v 7.02534 h -1.7565 v 3.51285 l 1.7565,1.75643 v 3.51285 h -1.7565 l 1.7565,1.75642 h -1.7565 l 1.7565,1.75643 h -1.7565 l -1.7564,1.75643 v 1.75607 h 1.7564 v 1.75642 l -1.7564,1.75643 v 5.26928 h -1.7564 l -1.7561,1.75642 v 1.75607 h 1.7561 l -1.7561,1.75643 v 1.75642 h 1.7561 v 1.75643 h -1.7561 v 3.51285 l 1.7561,1.75643 v 10.5382 h -1.7561 l 1.7561,1.75642 -1.7561,1.75643 v 3.51249 h -3.5129 v 1.75643 l -1.7564,1.75642 v 7.02573 h -1.7564 v 3.51247 h 1.7564 v 3.51286 h -1.7564 l 1.7564,1.75642 h -1.7564 v 1.75643 h 1.7564 v 12.29465 h -1.7564 v 3.5128 h -3.5129 v 1.75643 h 1.7565 v 1.75642 h -1.7565 v 1.7561 h -1.756 v 3.51285 h -1.7564 v 1.75642 h 1.7564 v 1.75643 h -1.7564 v 3.51285 h 1.7564 v 3.51247 l -1.7564,1.75643 h 1.7564 v 7.0257 h -1.7564 v 1.75643 h -1.7565 l -1.7564,1.75642 v 3.51252 h 1.7564 v 1.75643 h 3.5129 v -1.75643 h 1.756 v 1.75643 h 3.5129 v -1.75643 h 5.2693 v 1.75643 h 1.7564 v 1.75643 h -1.7564 v 3.51285 h -1.7565 1.7565 v 1.75642 l 1.7564,1.75643 h 1.7561 v 3.51247 l 1.7564,1.75643 v 1.75642 h -1.7564 v 8.78213 h -1.7561 v 3.51252 h -1.7564 v 1.75643 l -1.7565,3.51285 -1.7564,1.75643 h -3.5128 v 1.75642 h -1.7565 v 1.75643 l -1.756,1.75604 v -1.75604 1.75604 h -7.0257 l -1.7564,1.75643 v 1.75642 l -1.7565,-1.75642 v 1.75642 h -1.7564 l -1.7564,1.75643 h -1.7564 l -1.7561,1.75643 -3.5128,1.75642 h -3.5129 v 1.7561 h -1.7564 v 1.75642 h -3.5125 v 3.51285 h 1.7561 -1.7561 l -1.7565,1.75643 h 1.7565 -1.7565 v 3.51285 h -1.7564 1.7564 v 1.75643 h -1.7564 v 1.75642 h -1.7564 v 1.75643 h -1.7489 v 3.51247 l -1.7564,1.76396 h -1.7564 v 1.75643 h -1.7565 v 1.75604 h -1.7564 v 1.75643 h -1.75643 v 5.26928 l -1.75642,1.75642 v 1.75643 h -3.51286 v 3.51252 h -1.75609 v 1.75642 h -1.75642 1.75642 v 1.75643 h -3.51285 v 1.75643 l -1.75643,1.75642 -1.75642,1.75643 v 1.75642 l -3.51285,3.51286 v 3.51247 h -1.75605 l -3.51285,-1.75643 h -7.02571 l -3.51285,-1.75604 h -3.51252 l -1.75642,-1.75643 h -3.51285 l -3.51286,-1.75643 h -3.51247 l -1.75642,1.75643 h -3.51286 v 1.75643 h -5.26927 l -3.51252,-1.75643 h -10.53856 l -3.51285,-1.75643 h -5.2689 l -3.51285,-1.75642 -1.74894,-1.75643 h -3.51285 l -1.75643,-1.75642 -3.51285,-1.75643 h -1.75642 l -1.75643,-1.75643 h -1.75604 l -1.75643,-3.51285 -1.75643,-1.75609 -1.75642,-1.75643 -1.75643,-1.75642 H 669.1776 l -3.51247,-1.75643 h -1.75643 l -5.26928,-1.75642 h -3.51285 l -1.75643,1.75642 h -1.75642 v 1.75643 h -3.51252 v 1.75642 h -1.75643 l -5.26927,5.26895 h -1.75643 v 1.75642 l -10.5382,10.53856 h -12.29462 l -3.51285,1.75643 h -8.76711 l -1.75643,-1.75643 h -1.75642 l -3.51285,-1.75643 -3.51286,-1.75642 h -1.75642 v -1.75643 l -1.75607,-1.75642 -3.51285,-1.75643 -5.26928,-5.26928 -5.26892,-3.51252 v -1.75642 h -1.75643 l -1.75642,-1.75643 h -1.75643 l -7.0257,-1.75642 h -14.05069 l -1.75643,1.75642 h -1.75642 l -1.75643,1.75643 h -8.78177 l -1.75643,-1.75643 h -3.51285 l -3.51285,1.75643 -3.51286,1.75642 -1.75642,1.75643 -1.75607,3.51252 h -1.75643 l -1.75642,1.75642 v 1.75643 h -1.75643 l -1.74891,1.75643 h -1.75643 v 1.75642 l -3.51285,3.51285 v 1.75643 h -1.75643 v 1.75643 l -1.75642,3.51247 h -1.75643 v -1.75643 h -1.75643 l -1.75642,1.75643 h -1.75607 l -1.75643,1.75642 -1.75642,3.51286 -1.75643,1.75642 -3.51285,1.75643 -1.75643,1.75609 -1.75606,1.75643 v 1.75642 h -1.75643 l -1.75643,1.75643 -1.75642,1.75642 v 1.75643 l -5.26928,5.2689 -1.75607,1.75642 -1.75643,3.51286 -5.26927,5.26927 v 1.75643 h -1.75643 v 5.26894 l -1.75643,3.51286 v 12.29455 l -3.51285,1.7565 h -1.75642 l -1.75607,1.7564 h -1.75643 v 1.7564 l -1.75643,1.7565 h -1.75642 l -1.75643,1.7564 v 1.7564 l -1.75642,1.7561 h -1.75643 v 1.7564 h -1.75607 l -1.75642,1.7564 h -1.75643 l -1.75643,-1.7564 -1.75642,-1.7564 h -1.75643 l -1.75642,1.7564 h -1.75643 l -5.26892,-1.7564 h -1.75643 l -1.75642,1.7564 v 1.7564 l -5.26177,1.7565 -1.75643,1.7564 h -1.75642 l -1.75643,1.7564 h -1.75642 l -7.02535,7.0253 h -3.51285 l -1.75643,1.7565 h -1.75642 l -3.51286,3.5128 h -1.75607 l -1.75642,1.7561 h -14.05105 l -1.75642,1.7564 -5.26928,3.5129 -3.51285,3.5129 h -3.5125 l -5.26928,-1.7565 h -1.75642 v 1.7565 l -5.26892,5.2692 h -1.75643 l -1.75643,1.7565 -3.51285,1.75603 h -1.75642 v 1.7564 H 337.251 l -1.75643,3.5129 -1.75642,1.7564 h -1.75643 v 3.5129 h -1.75643 l -1.75642,3.5125 h -1.75643 l -5.26176,1.7564 -3.51286,3.5129 H 305.6432 l -1.75643,-1.7565 h -1.75642 l -1.75643,-1.7564 h -3.51249 l -3.51286,-1.7564 -3.51285,-3.5125 v 3.5125 l -1.75643,1.7564 v 1.7564 l -1.75642,1.7565 H 284.5668 L 281.05395,1024 h -5.26928 l -3.51249,-1.7564 H 256.46506 V 1024 h -3.51286 l -1.75642,-1.7564 h -10.5382 l -3.5125,1.7564 h -3.51285 l -1.75642,-1.7564 -1.75643,-1.7564 v -1.7565 l -1.75643,-1.7564 h -5.26176 l -1.75643,-1.7564 -3.51285,-1.7565 h -8.78177 l -3.51285,1.7565 h -3.5125 v 1.7564 h -5.26928 l -1.75642,-1.7564 h -3.51285 l -1.75643,1.7564 h -8.78177 l -1.75643,1.7564 h -7.02534 v 1.7565 h -7.02571 l -7.02535,-7.0258 h -1.75642 l -3.51285,-1.756 v -1.7565 l -7.02571,-7.0257 -3.51249,-1.7564 h -5.26928 l -3.51285,-1.75603 -3.50534,-1.7565 -1.75643,-1.7564 v -5.2693 h -3.51285 v 1.7565 h -1.75643 v -1.7565 h -1.75642 v -1.7564 l 1.75642,-1.7564 1.75643,-1.7565 v -1.7564 l -1.75643,-1.7561 v -3.5128 l -1.75642,-3.5129 v -8.7817 h -10.5382 l -1.75643,-1.7565 -1.75607,-3.5128 h -1.75642 l -1.75643,-1.7561 -1.75642,-3.5128 1.75642,-3.5129 1.75643,-1.7564 h 1.75642 v -3.5129 l 3.5125,-1.7564 3.51285,-1.7564 1.75643,-5.26893 v -3.51285 l 1.75642,-3.51285 3.5125,-1.75609 3.51285,1.75609 1.75643,-1.75609 1.75642,-3.51286 3.51285,-3.51285 3.51286,-1.75642 h 3.51249 l 8.78213,-8.78175 h 7.02535 l 3.51285,1.75604 v -3.51247 l 1.75643,-3.51285 h -8.78214 l -3.51249,-3.51285 -1.75643,-3.51252 h -8.78177 l -1.75642,-3.51285 h -7.02571 l -7.0257,-7.02571 v -3.51247 l 3.51285,-3.51285 h 1.75643 l 3.51285,-1.75643 v -28.1021 h 1.75642 l 7.02535,-3.51285 3.51285,-1.75643 3.51285,-5.26928 -1.75642,-1.75642 -1.75643,-1.75643 -5.26892,-1.75642 -3.51285,-1.7561 v -3.51285 l 3.51285,-3.51285 v -15.80674 h 3.5125 v 1.75643 l 3.51285,-1.75643 v -10.53822 l 3.51285,3.51285 3.51249,1.75609 8.78214,-1.75609 h 7.0257 l 5.26892,-1.75643 h 1.75643 v 3.51252 h 3.51285 l 5.26892,1.75643 3.51285,1.75643 3.51285,-1.75643 5.26892,-1.75643 14.05141,-7.02537 h 1.75607 l 1.75643,-3.51285 3.51285,-5.26928 3.50534,-5.26889 5.26927,-5.26928 3.51286,-1.75643 h 17.56426 l 7.02534,-1.75643 3.51286,3.51286 1.75642,3.51285 h 8.78177 l 7.02535,-1.75643 3.51285,-1.75642 v -1.75643 l 1.75643,-3.51252 3.51285,-1.75642 v -8.78213 l 5.26928,-3.51247 1.75643,-3.51286 1.75642,-3.51285 v -3.51285 l 1.75607,-1.75643 5.26928,-3.51247 5.26892,-1.75642 3.51285,-3.51286 3.51285,-1.75642 5.26177,-1.75643 1.75643,-1.75642 10.53819,-7.02537 5.26928,-10.53856 5.26892,-8.78177 1.75643,-7.02535 3.51285,-3.51285 3.51285,-3.51286 1.75643,-5.26892 5.26928,-1.75642 1.75607,1.75642 1.75642,1.75643 3.51286,-1.75643 5.26927,1.75643 h 5.26892 l 1.75643,-1.75643 1.75642,-5.26927 1.75643,-5.26928 3.51285,-1.75643 7.02535,-3.51249 h 14.05105 l 1.75642,-5.26928 5.26928,-5.26892 3.50534,-1.75643 5.26928,-3.51285 8.78177,-1.75642 7.02535,-3.51285 h 5.26928 l 1.75642,-1.75643 1.75643,-5.26892 1.75643,-3.52036 3.51285,-7.02535 8.78177,-3.51285 7.02535,-1.75643 1.75642,-3.51249 1.75643,-5.26928 5.26928,-10.5382 -1.75643,-10.53856 1.75643,-1.75642 h 1.75642 l -1.75642,-10.5382 v -3.5125 h -8.78213 l -3.5125,-1.75642 3.5125,-5.26928 -1.75607,-5.26928 -5.26928,1.75643 -3.51285,-1.75643 -3.5125,-3.51285 h -3.51285 v -3.5125 l -1.75642,-5.26927 h -1.75643 l -5.26928,-3.5125 v -5.26928 l -1.75642,-3.51285 v -8.78177 l -1.75643,-3.51285 1.75643,-3.51286 3.51285,-8.78177 3.51285,-1.75643 1.75643,-1.75642 14.05105,-7.02535 1.75642,-3.51285 h 5.26892 l 1.75643,-1.75643 1.75643,-3.51285 3.51285,-12.29462 8.78177,-5.26928 h 1.75643 l 1.75642,-1.75607 5.26928,-7.0257 10.5382,-12.29462 1.75643,-5.26928 8.77461,-5.26892 3.51286,-5.26928 1.75606,-7.02535 1.75643,-7.0257 7.02571,-5.26928 7.02534,-3.51285 14.05105,-5.26892 10.53855,-7.03286 h 7.02535 l 5.26892,-1.75643 3.51285,-3.51285 8.78213,-3.5125 1.75643,-3.51285 v -3.51285 l 1.75643,-1.75643 -1.75643,-5.26892 3.5125,-3.51285 v -7.0257 l 1.75642,-5.26892 -1.75642,-7.02571 -1.75607,-3.51249 -3.51286,-3.51285 -1.75642,-3.51286 -1.75643,-5.26927 -3.51285,-3.51286 -5.26928,-1.75607 -3.51249,-1.75642 -5.26928,-1.75643 -1.75643,-3.51285 -3.51249,-3.51285 -3.51285,-3.5125 -7.0257,-3.51285 -12.29463,3.51285 -5.26892,-1.75642 h -8.78213 l -3.51249,-8.78178 -1.75643,-3.51285 -3.51285,-15.80712 -3.51285,-3.51284 v -3.51286 l -1.75643,-3.51249 h -1.75643 v -14.05105 l -3.51285,-3.51286 -3.51249,-5.26892 -1.75643,-3.51285 v -3.51285 l 1.75643,-5.26928 -1.75643,-3.51285 -1.75642,-3.51249 -3.51286,-3.51286 -5.26892,-8.78177 -1.75642,-1.75643 v -5.26927 l 1.75642,-1.75643 1.75643,-1.75643 -1.75643,-3.51285 h -1.75642 l -3.51286,-3.51249 v -3.51285 l -1.75642,-1.75643 -10.5382,-1.75643 -3.51285,-1.75642 v -3.5125 h 1.75642 v -1.75642 l 1.75643,-1.75643 1.75643,-1.75642 1.75606,-3.5125 -1.75606,-3.51285 v -1.75643 l -3.51286,-3.51285 v -5.26928 l 1.75643,-3.52 5.26892,-5.26928 1.75643,-1.75607 10.53855,3.51249 h 3.5125 l 3.51285,3.51286 3.51285,1.75642 3.51285,-3.51285 1.75607,-3.51285 h 3.51285 l 3.51286,3.51285 h 5.26927 l 1.75643,1.75643 h 8.78177 l 5.26928,-1.75643 3.5125,1.75643 1.75642,-1.75643 3.51285,-3.51285 1.75643,-1.75607 h 3.51249 l -1.75642,-3.51285 h 1.75642 l 3.51286,1.75642 1.75642,-3.51285 v -3.51285 l 1.75643,-3.5125 1.75643,-1.75642 1.75642,-7.02571 3.51285,3.51286 1.75642,3.51285 5.26893,3.51249 3.51285,-3.51249 3.51249,1.75642 1.75643,-5.26927 -1.75643,-5.26928 1.75643,-1.75643 v -12.29462 l -3.5125,-3.51286 -3.51285,-3.51249 5.26892,-5.26928 v -7.02534 l 3.51285,-3.51285 -5.26892,-1.75643 h -5.26927 l -3.51286,1.75643 v 3.51285 l -5.26892,7.02534 -3.51284,-3.51285 1.75642,-5.26892 -1.75642,-3.51285 -3.51286,1.75643 -1.75642,-3.51286 -1.75643,-7.0257 -5.26892,-1.75607 -3.51285,-3.512853 3.51285,-3.51285 -1.75643,-7.02535 h -5.26927 l -5.26892,-3.51285 1.75642,-7.02571 -3.51285,-5.26892 -3.51285,-1.75642 1.75642,-3.51285 h 3.51286 l 5.26892,-1.75643 1.75642,-5.26892 h 1.75643 v -3.51285 h -1.75643 l -1.75642,-5.26928 1.75642,-3.5125 -1.75642,-3.51285 v -1.75642 l -1.75643,-7.025708 1.75643,-5.268921 5.26927,3.512494 1.75643,-1.756068 -3.51285,-8.78213 -7.02535,-3.512495 v -5.269278 l 3.5125,-3.512852 3.51285,-1.7564258 3.51285,-7.025347 h 8.78177 z"
     style="clip-rule:evenodd;fill:#000000;fill-rule:nonzero;stroke:none;stroke-width:3.65952px"
     id="path1268" />
</svg>
