<?xml version="1.0" encoding="UTF-8" standalone="no"?>
<svg
   xmlns:dc="http://purl.org/dc/elements/1.1/"
   xmlns:cc="http://creativecommons.org/ns#"
   xmlns:rdf="http://www.w3.org/1999/02/22-rdf-syntax-ns#"
   xmlns:svg="http://www.w3.org/2000/svg"
   xmlns="http://www.w3.org/2000/svg"
   xmlns:sodipodi="http://sodipodi.sourceforge.net/DTD/sodipodi-0.dtd"
   xmlns:inkscape="http://www.inkscape.org/namespaces/inkscape"
   version="1.0"
   width="1024pt"
   height="1024pt"
   viewBox="0 0 1024 1024"
   preserveAspectRatio="xMidYMid meet"
   id="svg2211"
   sodipodi:docname="vector.svg"
   inkscape:version="1.0.2-2 (e86c870879, 2021-01-15)">
  <defs
     id="defs2215" />
  <sodipodi:namedview
     pagecolor="#ffffff"
     bordercolor="#666666"
     borderopacity="1"
     objecttolerance="10"
     gridtolerance="10"
     guidetolerance="10"
     inkscape:pageopacity="0"
     inkscape:pageshadow="2"
     inkscape:window-width="1366"
     inkscape:window-height="697"
     id="namedview2213"
     showgrid="false"
     inkscape:zoom="0.1940918"
     inkscape:cx="1266.7524"
     inkscape:cy="760.26375"
     inkscape:window-x="-8"
     inkscape:window-y="-8"
     inkscape:window-maximized="1"
     inkscape:current-layer="svg2211"
     fit-margin-top="0"
     fit-margin-left="0"
     fit-margin-right="0"
     fit-margin-bottom="0" />
  <metadata
     id="metadata2205">
Created by potrace 1.10, written by Peter Selinger 2001-2011
<rdf:RDF>
  <cc:Work
     rdf:about="">
    <dc:format>image/svg+xml</dc:format>
    <dc:type
       rdf:resource="http://purl.org/dc/dcmitype/StillImage" />
    <dc:title></dc:title>
  </cc:Work>
</rdf:RDF>
</metadata>
  <path
     d="m 776.84,507.27195 v -2.3649 h 2.3649 v 2.3649 h 2.36464 v 2.3649 h 2.3649 v 1.1824 h 2.36489 v 1.1825 h 9.45938 v 1.1824 h 4.72979 v 1.1823 h 1.1822 v -1.1823 h 3.54734 v -1.1824 h 1.18245 v -1.1825 h 1.18245 v 1.1825 h 4.72958 v 1.1824 h 2.36489 v 1.1823 h 2.35983 v 1.1824 h 2.3649 v 1.1825 h 1.18245 v 1.1824 h 1.18245 v 1.1825 h -3.54735 v 1.1824 h -1.18245 v -1.1824 h -5.91199 v -1.1825 h -1.18245 v 1.1825 h -1.18245 v 1.1824 h -2.3649 l 1.18245,1.1825 h -1.18245 v 1.1822 H 805.213 v -1.1822 h -1.18222 v 1.1822 h -2.3649 v -1.1822 h -1.18245 v 1.1822 h -4.72954 v -1.1822 h -8.27715 v -1.1825 h -1.18245 v -1.1824 h -4.72957 v -1.1825 h -1.18245 v 1.1825 h -1.18245 v -1.1825 h -3.54709 v 1.1825 h -2.3649 v 1.1824 h -2.3649 v 1.1825 h -1.18245 v 1.1822 h -1.18245 v -2.3647 l 1.18245,-1.1824 v -5.9121 h -1.18245 v -1.1824 h 1.18245 v -1.1825 h 2.3649 v -1.1824 h 2.3649 v -1.1825 h 1.18245 v -1.1824 z m 72.12289,-28.3781 v -1.1824 h 1.18245 v 1.1824 h 5.91225 v 1.1825 h -4.7298 v 1.1824 h -4.72954 v 1.1822 h -1.18245 v 1.1825 h -5.91202 v 1.1824 h -3.54735 v 1.1825 h -5.91225 v 1.1824 l -1.18245,-1.1824 h -1.18219 v -2.3649 h 3.54709 v -1.1825 h 1.18245 v 1.1825 h 1.18245 v -1.1825 h 1.18245 v -1.1822 h 3.54735 v -1.1824 h 2.36467 v 1.1824 h 3.54735 v -2.3649 z M 517.90838,393.76019 v -3.54759 h 1.18221 v 1.18245 h 1.18245 v 1.18244 h 4.7298 v 1.18245 h 5.91201 v 1.18245 h 2.36489 v 1.18245 h 1.18245 v 2.3649 h 1.18245 v 1.18245 h 2.3649 v 1.18245 h 1.18221 v 1.18245 h 1.18245 v 3.54735 h -1.18245 v 3.54711 h -1.18221 v 3.54734 h -1.18245 v 5.91201 h -1.18245 v 5.91201 h 1.18245 v 1.18245 h -1.18245 v 3.54734 h 1.18245 v 4.72956 h -1.18245 v 2.3649 h 1.18245 v 3.54711 h 1.18245 v 9.45959 h 1.18221 v 2.36466 h 1.18245 v 2.3649 h 1.18245 v 1.18245 h 1.18245 v 1.18245 h -3.54735 v -1.18245 h -1.18221 v -1.18245 h -2.3649 v -2.3649 h 1.18245 v -5.91201 h -1.18245 v -1.18245 h -1.18245 v -2.36489 h -1.18245 v -1.18245 h -1.18245 v -2.3649 h -1.18244 v -2.36466 h -1.18245 v -2.3649 h -1.18245 v -1.18245 h -1.18245 v -1.18245 h -1.18221 v -1.18245 h -2.3649 v -2.36466 h -1.18245 v -2.36489 h -1.18245 v -2.3649 h -1.18245 v -4.72956 h -1.18245 v -5.91201 h 1.18245 v -1.18245 h -1.18245 v -2.36489 h 1.18245 v -8.27691 h -1.18245 v -3.54735 h -1.18221 v -1.18245 h 1.18221 v -2.36465 z m -47.29701,-16.55935 v -2.3649 l 1.18221,1.18245 h 1.18245 l 1.18245,-1.18245 h 1.18245 v 1.18245 h -1.18245 l -1.18245,1.18245 v 1.18245 h -1.18245 v -1.18245 z m 27.19513,-3.54711 v -2.3649 l 1.18245,1.18245 h 1.18221 v 1.18245 z m 235.28576,418.59432 h -1.18245 v 2.3649 h 1.18245 z M 528.55163,92.230785 h -1.18221 v 1.18245 h -1.18245 v 1.18245 h 1.18245 v -1.18245 h 1.18221 z M 735.46027,795.79055 h -1.18245 v 1.1825 h 1.18245 z M 494.26469,271.95586 h -1.1822 v 1.18245 h 1.1822 z m 152.52249,310.98419 -1.18245,1.1824 h 1.18245 z m -83.94644,-60.3035 h -1.18245 v 1.1825 h 1.18245 z M 495.44787,5.9061947 l 3.54734,-1.18245 2.3649,1.18245 h 1.18245 l 3.54711,-1.18245 1.18245,1.18245 1.18245,1.18245 h -1.18245 v 2.3649 h 1.18245 v 3.5473503 h -1.18245 v 1.18245 l -1.18245,1.18245 h -1.18245 v 1.18245 h -1.18245 v 1.18245 h 1.18245 v 1.18245 h -1.18245 v 1.18244 h 4.7298 v 1.18245 h 1.18245 v 1.18245 h 1.18245 v 4.72956 h 1.18221 v 2.3649 h 1.18245 v 1.18245 h -3.54711 v 1.18245 h -4.7298 v 1.18245 h -1.18245 v 4.72979 h 1.18245 v 1.18245 h 3.54735 v 2.36466 h 1.18245 v 1.18245 h 4.72955 v 1.18245 h 1.18245 v 1.18245 l -1.18245,1.18245 v 4.7298 h 3.54735 v 1.18245 h 1.18245 v 3.5471 h 1.18245 v 5.91225 h -1.18245 v 1.18245 h -3.54735 v 1.18245 h -3.54734 v 3.54711 h 1.18245 v 2.3649 h -1.18245 v 1.18245 h 1.18245 v -1.18245 h 1.18244 v 1.18245 h 1.18245 v -1.18245 h 1.18245 v -1.18245 h 2.36466 v -1.18245 h 3.54759 v 1.18245 h 1.18221 l -1.18221,-1.18245 h 2.36466 v 2.3649 h 1.18245 v 1.18245 h -1.18245 v 1.18245 h -1.18245 v 1.18244 h -1.18221 v -1.18244 h -1.18245 v 1.18244 h -1.18245 v 1.18245 h -1.18245 v 1.18245 h 1.18245 v -1.18245 h 4.72956 v 3.54735 h 1.18245 v 2.36466 h 2.3649 v 2.3649 h -1.18245 v 1.18245 h -1.18245 v 1.18245 h -2.3649 v 1.18245 h -1.18221 v 1.18245 h -1.18245 v 1.18245 l 1.18245,1.18245 v -1.18245 h 1.18221 v 1.18245 h 2.3649 v -1.18245 h 2.3649 v 1.18245 h -1.18245 v 1.18245 h 3.54735 v 1.18244 h 1.1822 l 1.18245,1.18245 v -1.18245 h -1.18245 v -2.36489 h 1.18245 v 1.18245 h 1.18245 v 2.36489 h 1.18245 v 1.18245 h -1.18245 v 2.36466 h -1.18245 v 1.18245 h -1.18245 l -1.1822,1.18245 h -2.3649 v 1.182445 h -2.3649 v 1.18245 h -1.18245 v 1.18245 h 1.18245 v -1.18245 h 2.3649 v -1.18245 h 1.18245 v 1.18245 h 1.18245 v -1.18245 h 2.36465 v 1.18245 h 1.18245 l 1.18245,-1.18245 v 1.18245 h 1.18245 v 3.54735 h 1.18245 v 2.3649 h 2.36466 v 2.36465 h -3.54711 v 1.18245 h 1.18245 v 1.18245 h 2.36466 v 3.54735 h -1.18245 v 2.36466 h -2.36466 v 3.54734 h 1.18245 v 3.54735 h 3.54711 v 1.18245 h 1.18245 v 2.36466 h -1.18245 v 3.54735 h 1.18245 v 2.36466 h 1.18245 v 1.18245 l 1.18245,1.18244 h 1.18245 v 7.09446 h 1.18245 v 3.54735 h -1.18245 v 4.7298 h 1.18245 v 1.18245 h -1.18245 v 1.18245 h 1.18245 v 1.18245 l -1.18245,1.18244 v 1.18245 h -2.3649 v 2.36466 h 2.3649 v -1.18245 h 1.18245 v 1.18245 h 1.18244 v 1.18245 h 1.18245 v 1.18245 h -1.18245 v 1.18245 h 1.18245 v 1.18245 h -1.18245 v 1.18245 h -2.36489 v 2.3649 h -1.18245 v 1.18245 h 1.18245 v -1.18245 h 1.18245 l -1.18245,-1.18245 h 2.36489 v 1.18245 l 1.18245,-1.18245 v 2.36466 h 1.18221 v -1.18245 h 1.18245 v -1.18245 h 1.18245 v 1.18245 h 1.18245 v 1.18245 h 1.18245 v 3.54734 h -1.18245 v 1.18245 h 1.18245 v 1.18245 h -1.18245 v 1.18245 h -2.3649 v 1.18245 h 3.54735 v -1.18245 h 1.18245 v 1.18245 h 1.18245 v 1.18245 h 1.18221 v 1.18245 h -2.36466 v 1.18245 h 2.36466 v -1.18245 h 1.17763 v 1.18245 h 2.3649 v 1.18245 h 1.18245 v 1.18245 h 1.18221 v 1.18245 h 2.36489 v 1.18245 h 1.18245 v 1.18245 h 1.18245 l 1.18245,1.18245 h 1.18245 v 2.36489 h 1.18245 l -1.18245,1.18245 v 3.54711 h -3.54735 v 1.18245 h -1.18245 v 1.18245 h -1.18244 v -2.36466 h -2.36466 v 1.18245 h -2.3649 v 1.18245 h -1.18245 v 1.18245 h -4.7298 v -1.18245 h -5.912 v -3.54735 h -1.18245 v -1.18245 h 1.18245 v -1.18245 h -1.18245 v 1.18245 h -1.18245 v 1.18245 h -1.18221 v 2.3649 h -4.7298 v -1.18245 h -1.18245 v 1.18245 h -1.18245 v -1.18245 h -1.18245 v -1.18245 h -5.912 v 1.18245 h -1.18245 v -1.18245 h -1.18245 v 2.36466 h -1.18245 v 1.18245 h -2.36466 v 1.18245 h -3.54735 v 1.18245 h -1.18245 v -2.36466 h -5.912 v 3.54711 h 1.18245 v 1.18245 h 1.18245 v 1.18245 h -1.18245 v 2.3649 h -2.3649 v 1.18245 l 1.18245,-1.18245 v 2.36465 h -1.18245 v 1.18245 h -1.18245 v 2.3649 h -1.18245 v 1.18245 h -1.18245 v 2.36466 h -1.18245 v 2.3649 l 1.18245,0.005 v 1.18245 h -1.18245 v 1.18245 h -1.18245 v -1.18238 h -1.18245 v 1.18245 l -1.18221,1.18245 v -1.18245 h -1.18245 v 2.36466 h -1.18245 v 1.18245 h -1.18245 v 3.54735 h -1.17739 v 4.72979 h -1.18245 v 13.00646 l -1.18245,-1.18245 v 1.18245 h -1.18245 v 1.18245 h 2.3649 v 2.3649 h -1.18245 v 1.18245 h 1.18245 v 5.91201 h -1.18245 v 4.72979 h -2.3649 v 1.18245 h 2.3649 v 4.72956 h 1.18245 l -1.18245,1.18245 v 2.3649 h -1.18245 l -1.18245,1.18245 h -1.18244 v 2.36466 h 3.54734 v 2.3649 h -1.18245 v 2.36489 h 1.18245 v 2.36466 h 1.18245 v 3.54735 h 1.18245 v 2.3649 h 1.18245 v 2.36466 h 1.18221 v 1.18245 h 1.18245 v 2.3649 h 1.18245 v 3.54734 h 1.18245 v 2.36466 h 1.18245 v 3.54735 h 1.18245 v 4.72956 h 1.18245 v 3.54735 h 1.18221 v 1.18244 h 1.18245 v 2.36466 h 1.18244 v 2.3649 h 1.18245 v 1.18245 h -1.18245 v 2.3649 h -1.18244 v 3.54735 h -2.36466 v -1.18245 h -1.18245 v -1.18245 l -1.18245,-1.18245 h -1.18245 v -1.18245 l -1.18245,-1.18245 -1.18245,-2.3649 -1.18245,-1.18245 h -1.18221 v -1.18245 h -1.18245 v -1.18245 h -1.18245 v -1.18245 h -2.3649 v -2.36489 h -2.36489 v -1.18245 h -1.18245 v -1.18245 h 1.18245 v -2.3649 h -1.18245 v -1.18245 h -1.18245 v -1.18245 h -1.18245 v -1.18245 h -3.54711 v -1.18245 h -2.3649 v -1.18245 h -1.18245 v -1.18245 h -2.36466 v -4.72956 h -1.18245 v -1.18244 h -2.36489 v -1.18245 h -1.18245 v 1.18245 h -2.3649 v 8.2769 h -1.18221 v 3.54735 l 1.18221,1.18245 h 1.18245 v 1.18245 h 1.18245 v 7.09445 h 1.18245 v 13.01152 h -2.3649 v -1.18245 h -1.18245 v 1.18245 h 1.18245 v 1.18245 h 2.3649 v 7.09446 h 1.18244 v 4.72979 h -2.36489 v -2.36489 h -1.18245 v 2.36489 h 1.18245 v 2.36466 h -1.18245 v 2.3649 h 1.18245 v 1.18245 h 1.18245 v -4.7298 h 1.18244 v 1.18245 h 1.18245 v 1.18245 h 3.54711 l -2.36466,3.54735 3.54711,-4.7298 v 2.3649 l 1.18245,1.18245 h 1.18245 v 2.36466 l 1.18245,1.18245 h 1.18245 v 1.18245 l 1.18221,1.18245 v 2.3649 l -1.18221,1.18245 v 3.54734 h 1.18221 l -1.18221,1.18245 1.18221,1.18245 v 1.18245 h -3.54711 l -1.18245,-1.18245 v -1.18245 h -2.3649 v -1.18245 h -2.36466 v -1.18245 h -8.2769 v 1.18245 h -8.27715 v 1.18245 h -1.18245 v 2.36466 h 1.18245 v 1.18245 h -1.18245 v 1.18245 h 1.18245 v 1.18245 h 1.18245 v 1.18245 h 1.18245 v -1.18245 l 1.18245,1.18245 h 1.18245 v 2.36489 h -1.18245 v 1.18245 h -1.18245 v 2.36466 h -1.18245 v 1.18245 h -2.3649 v 1.18245 h -2.36465 v 2.36972 h -1.18245 v 5.91224 h 1.18245 v 1.18245 l 1.1822,2.3649 1.18245,1.18245 v 2.36466 h -1.18245 v 1.18245 h -1.1822 v 2.3649 h -1.18245 v 1.18245 l 1.18245,2.36465 1.1822,2.3649 1.18245,3.54711 h 1.18245 v 1.18245 l 4.7298,2.3649 h 2.36466 v 1.18245 h 1.18245 v 1.18245 h 1.18245 v 3.54735 h -1.18245 v 3.5471 h -1.18245 l 1.18245,1.18245 h 1.18245 v -1.18245 h 1.18245 v 2.3649 h -1.18245 v 1.18245 h 2.3649 v 1.18245 h 2.36489 v -1.18245 h 4.72956 v 1.18245 h 2.3649 v 1.18245 h 2.3649 v 1.18245 h 1.18245 v 1.18245 h 1.18221 v 2.36466 h -1.18221 v 2.3649 h -1.18245 v 3.54734 h -1.18245 v 1.18245 h 1.18245 v 1.18245 h 1.18245 v 1.18245 h 2.36466 v 1.18245 h 1.18245 v -1.18245 h 2.36489 v -1.18245 h 3.54735 v 1.18245 h 2.3649 v 1.18245 h -2.3649 v 1.18245 h -1.18245 v 1.18245 h -1.18245 v -1.18245 h -2.36489 v 2.36466 h -1.18245 v 3.54735 h -1.18245 v 1.18245 h 5.91224 v 1.18245 h 3.54735 v -1.18245 h 1.18221 l 1.18245,1.18245 v 3.5471 h -2.36466 v 2.3649 h 2.36466 v 8.27691 h -1.18245 v 1.1824 l 1.18245,-1.1824 v 2.3649 h 2.3649 v 4.7296 h -1.18245 v 2.3649 l 1.18245,-1.1825 v 3.5474 h 1.18245 v 1.1824 h -1.18245 v 1.1822 h 1.18245 v 1.1825 l 1.18245,1.1824 v 2.3649 h 1.18245 v 2.3649 h 1.18221 v 2.3649 h 1.18245 v 2.3647 h 1.18244 v 2.3649 h 1.18245 v 2.3649 h 1.18245 v 2.3649 h 1.18245 v 2.3646 h 1.18221 v 2.3649 h 1.18245 v 1.1825 h 1.18245 v 2.3649 h 1.18245 v 1.1822 h 1.18245 v 1.1824 h 1.18245 v 2.3649 h 1.18245 v 1.1825 h 1.18245 v 1.1824 h 1.18245 v 2.3649 h 1.18245 v 1.1825 h 1.18245 v 1.1824 h 1.1822 v 1.1823 l 1.18245,1.1824 h 1.18245 v 1.1824 l 1.18245,1.1825 h 1.18245 l 1.18245,1.1824 h 1.18221 v 1.1825 h -1.18221 v 2.3646 h 1.18221 v -1.1822 h 1.18245 v -1.1824 h 2.3649 v 1.1824 h -1.18245 v 1.1822 h 1.18245 v -1.1822 h 3.54735 v 1.1822 h 2.36489 v -1.1822 h 1.18245 v 1.1822 h 1.18221 v -1.1822 h 3.54735 v -1.1824 h 1.18245 v -1.1825 h 2.3649 v -1.1824 h 2.35984 v -1.1825 h 1.18245 v 2.3649 h 1.18221 v 2.3649 h 1.18245 v 2.3647 h 1.18245 v -3.5471 h -1.18245 v -3.5474 h -1.18245 v -2.3649 h -1.18221 v -1.1822 h -2.3649 v -1.1825 h -2.3649 v -1.1824 h -1.18245 v -2.3649 h -1.18245 v -2.3649 h -1.1822 v -1.1824 h 1.1822 v -1.1825 h 1.18245 v -2.3646 h 2.3649 v -1.1825 h 2.3649 v -1.1824 h 1.18245 v -1.1825 l 1.18221,1.1825 v -1.1825 h 4.72979 l 1.18245,-1.1824 h 1.18245 v -1.1825 h 1.18245 v -1.1824 h 1.18245 v -1.1822 l 1.18245,-1.1825 h 3.54711 v 1.1825 h 3.54735 v 1.1822 h 1.18245 v 3.5473 h 1.1822 v 1.1825 h 2.3649 v 2.3649 h 1.18245 v 4.7295 h 1.18245 v 1.1825 h 1.18245 v 2.3649 h 1.18245 v 4.7296 h -1.18245 v 1.1824 l 1.18245,1.1824 h -1.18245 v 3.5474 h 1.18245 v 3.5471 l 1.18245,1.1824 v 1.1825 h 1.18245 v 1.1824 h 1.18245 v 1.1825 h 1.18221 v 1.1824 h 2.3649 v 1.1825 h 1.18245 v 1.1872 h 2.36489 v 1.1825 h 1.18245 l 1.18221,1.1824 h 2.3649 v 1.1825 h 3.54735 v 1.1824 h 1.18245 v 1.1825 h 1.18221 v 1.1822 h 1.18245 v 1.1824 h 1.18245 v 1.1825 h 1.18245 v 1.1824 h 1.18244 v 1.1825 h 1.18245 v 2.3646 h 1.18245 v 1.1825 h 1.18245 v 1.1824 h 2.3649 v 1.1825 h 1.18221 v 1.1824 h 4.72474 v 1.1825 h 1.18245 v -1.1825 h 1.18245 v -1.1824 h 1.18245 v -3.5474 h -1.18245 l 1.18245,-1.1822 v -2.3649 h 2.3649 v -3.5473 h 2.3649 v 1.1824 h 3.5471 v 2.3649 h 1.18245 v 1.1825 h 1.18245 v 1.1824 h 3.54735 v 2.3647 h 2.36466 v 1.1824 h 2.3649 v 2.3649 h 5.912 v 1.1825 h 2.3649 v 1.1824 h 2.3649 v 1.1823 h 1.18245 v 1.1824 h 1.18245 v 1.1825 h 1.18245 l 1.18245,1.1824 h 1.18219 v 1.1824 h 1.18245 v 3.5474 h 1.18245 v 1.1824 h -1.18245 v 2.3647 h -1.18245 v 1.1824 h 1.18245 v 3.5474 h 1.18245 v 2.3649 h 1.18245 v 2.3647 h 1.18245 v 2.3649 h -1.18245 v 1.1824 h -2.3649 v 1.1825 h -3.54709 v 1.1824 h -2.3649 v -1.1824 h -3.54735 v -1.1825 h -2.3649 v 1.1825 h -3.5471 v -1.1825 h -2.3649 v -3.5473 h -1.18245 v -2.3647 h -1.18245 v -2.3649 h -1.18245 v -3.5474 h 1.18245 v -3.5471 h 1.18245 v -1.1824 h -2.3649 v -5.9122 h 1.18245 v -1.1825 h -1.18245 v -2.3647 h -1.18221 v -1.1824 h -2.3649 v 2.3647 h -2.3649 v 1.1824 h 1.18245 v 2.3649 h 1.18245 v 1.1824 h 1.18245 v 1.1825 h 1.18245 v 2.3649 h -2.3649 v 1.1824 h -3.54735 v 1.1825 h -1.18245 v 1.1822 h -1.1822 v 2.3649 h 1.1822 v 4.7298 h -1.1822 v 4.7296 h -1.18245 v 1.1824 h 1.18245 v 1.1825 h 1.1822 v -1.1825 h 4.7298 v -1.1824 h 1.18245 v 1.1824 h 1.18245 v -1.1824 h 1.18221 v 1.1824 h 1.18245 v 3.5474 h 1.18245 v 1.1824 h -1.18245 v 2.3646 h -1.18245 v 1.1825 l 1.18245,-1.1825 v 2.3649 h -2.36466 l 1.18221,1.1825 v 2.3649 h -1.18221 v 8.2769 h 1.18221 v 3.5471 h 1.18245 v 1.1825 l 1.18245,1.1824 v -1.1824 h 1.18245 v 3.5473 h 1.18245 v 1.1825 h 1.18245 v 1.1824 h 1.18245 v 3.5471 h 1.1822 v 1.1825 h 1.18245 v 2.3649 h 1.18245 v 2.3649 h 2.3649 v 3.5471 h 1.18245 v 2.3649 h 1.18245 v 2.3649 h 1.18245 v 2.3649 h 1.18245 v 1.1824 h 1.18245 v 2.3647 h 1.18219 v 1.1824 h 1.18245 v 1.1825 h 1.18245 v 1.1824 h 1.18245 v 1.1825 h 1.18245 v 1.1824 h 1.18245 v 1.1825 h 1.18222 v 1.1822 h 1.18245 v 1.1824 h 2.3649 v 1.1825 h 1.18245 v 1.1824 h 1.18245 l 1.18245,1.1825 h 1.18245 v 1.1824 h 1.18245 v 1.1822 h 2.3649 v 1.1825 h 2.36464 v 1.1824 h 2.35986 l 1.18245,1.1825 h 1.18245 v 1.1824 l 1.18245,-1.1824 v 1.1824 h 3.54709 v 1.1825 h 1.18245 v -1.1825 h 7.09469 v 1.1825 h 3.54713 v 1.1824 h 5.91224 l 1.18245,-1.1824 v 3.5473 h 1.1822 v 1.1825 h 2.36489 v 1.1822 h 1.18245 v 2.3649 h -1.18245 v 1.1824 h 1.18245 v 4.7296 h 1.18245 v 9.4596 h 1.18245 v 3.5471 h 1.18245 v 3.5522 h -1.18245 v 1.1824 h -1.18245 v 1.1825 h -1.18245 v 2.3649 h -1.18245 v 1.1824 h -1.18245 v 2.3646 h -1.18244 v 2.3649 h -1.1822 v 3.5474 h -3.54735 v 1.1822 h -1.18244 v -1.1822 h -1.18245 v -1.1825 h -1.18245 v -1.1824 h -1.18223 v 1.1824 h -1.18245 v 1.1825 h -1.18245 v 1.1822 l -1.18245,1.1825 v 1.1824 h -1.18245 v 2.3649 h -1.18245 v 3.5474 l -1.18244,1.1824 v 9.4594 h -1.18245 v 2.3646 h 1.18245 l -1.18245,1.1825 h 1.18245 v 11.8197 h 1.18244 v 4.7295 h 1.18245 v 1.1824 h -1.18245 l 1.18245,1.1825 -1.18245,1.1824 h 1.18245 v 1.1823 h -1.18245 l 1.18245,1.1824 v 1.1825 h -1.18245 v 1.1824 h 1.18245 v 5.912 h -1.18245 v 1.1825 h 1.18245 v 1.1824 h 1.18245 v 1.1825 h 1.18245 v 1.1824 h 1.18245 v 2.3649 h 1.18245 v 1.1824 h 1.18223 v 2.3647 h 1.18245 v 2.3649 h 1.18245 v 2.3649 h 1.18244 v 1.1825 h 1.18245 v 2.3646 h 1.18245 v 1.1825 h 1.18245 v 1.1824 h 1.1822 v 1.1825 l 2.36489,2.3649 h 1.18245 v 1.1824 h 1.18245 v 1.1825 h 1.18245 v 2.3649 h 1.18245 v -1.1825 h 1.18245 v -1.1824 h 1.18245 v 1.1824 h 1.18245 v 1.1825 h 4.72957 v 2.3646 h 2.3649 v 1.1825 h 1.18245 v 1.1824 h 1.18219 v 1.1825 h -1.18219 v 1.1824 h -2.3649 v 1.1825 h 1.18245 v 1.1822 h 1.18245 v 1.1824 h 1.18219 v 1.1825 h 3.54735 v -1.1825 h 1.18245 v 2.3649 h 1.18245 v 1.1825 h 2.36467 v -2.3649 h 1.18245 v 3.5473 h 1.18245 v 2.3647 h 2.3649 v -1.1822 h -1.18245 v -2.3649 h 2.3649 v 2.3649 h 1.17738 v -1.1825 h 1.18245 v 1.1825 h 1.18245 v 1.1822 h 2.3649 v 1.1824 h 1.18244 v 1.1825 h 1.18245 v 1.1824 h -2.36489 v 1.1825 h -3.54735 v 1.1824 h -3.54709 v 1.1825 h -4.7298 v -5.9123 h -1.18245 v 7.0947 h -3.54735 v 1.1825 h -1.18222 v 3.5471 h -1.18245 v 3.5473 h 1.18245 v 3.5472 h 1.18222 v 1.1824 h -2.36467 v 1.1824 h -1.18245 v 3.5474 h -1.18245 v 4.7298 h -1.18245 v 17.7456 h 1.18245 v 4.7298 h 1.18245 v 2.3649 h -2.3649 v -1.1824 h -1.18245 v -1.1825 h -1.18245 v 1.1825 h -1.18219 v -1.1825 h 1.18219 v -1.1824 h -3.54709 v -1.1825 h -4.72957 v 1.1825 h -1.18245 v 1.1824 h 1.18245 v 2.3649 h -1.18245 v 3.5472 h 3.54712 v 3.5473 h 3.54735 v -1.1825 h 1.18245 v -3.5473 h 1.18219 v -1.1824 h 2.3649 l -1.18245,1.1824 h 1.18245 v 2.3649 h 2.3649 v 3.5471 h 1.18245 v 2.3649 h -2.3649 v 1.1824 h 1.18245 v 1.1825 h 1.18245 v 1.1824 h 1.18245 v -1.1824 h 4.72957 v 1.1824 l 1.18245,1.1825 v 4.7296 l -1.18245,-1.1823 v 1.1823 h -3.54735 v 1.1824 h 2.3649 v 2.3649 h 2.3649 v -1.1824 h 2.3649 v -1.1825 l 1.18245,1.1825 h 1.18245 v 1.1824 h 1.18245 v 1.1825 h 1.18219 v 1.1824 l 1.18245,1.1825 h -1.18245 v 1.1821 h 1.18245 v 3.5474 h 1.18245 v -3.5474 h 1.18245 l 1.18245,-1.1821 v 1.1821 h 2.36489 v 1.1825 h -1.18245 v 3.5473 h 2.36468 v -1.1824 h 1.18245 v 1.1824 h 1.18245 v 3.5472 h -1.18245 v 2.3649 h 1.18245 v 2.3649 h -1.18245 v 1.1824 h 1.18245 v 1.1825 h 2.3649 v 2.3649 h 1.18245 v 1.1824 h -1.18245 v 3.5471 h 1.18245 v 1.1825 h 2.36489 l -1.18244,1.1824 h 1.18244 v 2.3649 h 1.18245 v 1.1822 h 1.18245 v 1.1825 h 1.1822 v 4.7298 h 1.18245 v 5.912 h 1.18245 v 8.2769 h 1.18244 v 1.1824 h 1.18245 v 4.7298 h 1.18245 v 3.5471 h 1.18245 v 2.3649 h -1.18245 v 1.1825 h 1.18245 v 7.0944 h -1.18245 v 1.1825 h -1.18245 v 11.8245 h 1.18245 v 2.3649 h 2.36468 v 4.7295 h -1.18223 v 5.9123 h 1.18223 v 3.5473 h 1.18245 v 9.4591 h -1.18245 v 2.3649 h 1.18245 v 16.55385 h 1.18245 V 1024 h -1.18245 v -7.0945 h -1.18245 v -2.3649 h -1.18223 v -1.1822 h -1.18245 v -1.1824 h -1.18245 v -1.1825 h -1.18245 v -1.1824 h -2.36489 v 1.1824 h -1.18245 v -2.3649 h -1.1822 v -1.1824 h -1.18245 v -1.1825 h -1.18245 v -1.1824 h -7.09469 v 1.1824 h -3.54713 v -1.1824 h -1.18244 v -1.1825 h -1.18245 v -1.1824 h -2.3649 v -2.3647 h -2.36464 v -1.18245 h -1.18245 v -1.1825 h -2.3649 v -1.1824 h -1.18245 v -1.1825 h -1.18245 v -1.1824 h -2.3649 v -2.3647 h -1.18245 v -1.1824 h -1.18245 v -1.1825 l -1.18222,-1.1824 -1.18245,-1.1825 -1.18245,-1.1824 v -1.1825 h -1.18245 l -1.18245,-1.1824 v -1.1825 h -1.18245 v -1.1822 h -1.18245 v -1.1825 h -1.18219 v -1.1824 h -1.18245 l -1.18245,-1.1825 -1.18245,-1.1824 h -1.18245 v -1.1825 h -1.18245 v -1.1824 h -1.18222 v -1.1822 h -1.18245 v -1.1824 h -1.18245 v -1.1825 h -1.18245 v -1.1824 h -1.18245 v -1.1825 h -1.18245 l -1.18245,-1.1824 h -1.18245 v -1.1823 h -1.18245 v -1.1824 h -1.18245 v -1.1825 h -1.18219 l -1.18245,-1.1824 h -1.18245 v -1.1825 h -1.18245 v -1.1824 h -2.3649 v -1.1825 h -1.18245 v -1.1824 h -2.36467 v -1.1825 h -1.18245 v -1.1824 h -2.3649 v -1.1822 h -2.3649 v -1.1825 h -2.3649 v -1.1824 h -2.35982 v -1.1825 h -2.3649 v -1.1824 h -1.18223 v -1.1825 h -2.3649 v -1.1824 h -2.36489 v -1.1822 h -2.3649 v -1.1825 h -2.36465 v -1.1824 h -2.36489 v -1.1825 h -2.3649 v -1.1824 h -1.18245 v -1.1825 h -2.3649 v -1.1824 h -1.18245 v -1.1825 h -2.36467 v -1.1824 h -1.18245 v -1.1825 h -1.18245 v -1.1822 h -1.18245 v -1.1824 h -1.18245 v -1.1825 H 660.972 v -1.1824 h -1.18245 v -1.1825 h -1.18245 v -1.1824 h -1.18245 v -1.1825 h -1.18245 v -1.1822 h -1.18245 v -1.1824 h -2.3649 v -1.1825 h -1.18245 v -1.1824 h -1.18245 v -1.1825 h -1.18221 v -1.1824 h -1.18245 v -1.1825 h -2.3649 v -1.1822 h -1.18245 v -1.1824 h -1.18244 v -1.1825 h -2.36466 v -1.1824 h -1.18245 v -1.1825 h -2.3649 v -1.1824 h -1.18245 v -1.1825 h -1.18245 v -1.1824 h -1.18245 v -1.1825 h -2.36466 v -1.1824 h -1.18245 v -1.1822 h -1.17763 v -1.1825 h -1.18245 v -1.1824 h -1.18245 v -1.1825 h -2.36466 v -1.1824 h -1.18245 v -1.1825 h -1.18245 v -1.1824 h -2.36489 v -1.1822 h -1.18245 v -1.1825 h -1.18221 v -1.1824 h -2.3649 v -1.1825 h -1.18245 v -1.1824 h -1.18245 l -1.18245,-1.1825 h -1.18245 v -1.1824 h -1.18245 v -1.1825 h -2.3649 v -1.1824 h -1.18221 v -1.1825 h -2.36489 v -1.1822 h -1.18245 v -1.1824 h -2.3649 v -1.1825 h -1.18245 v -1.1824 h -2.36466 v -1.1825 h -1.18245 v -1.1824 h -2.3649 v -1.1825 h -1.18245 v -1.1822 h -2.36466 v -1.1824 h -1.18244 l -1.18245,-1.1825 h -1.18245 v -1.1824 h -1.18245 v -1.1825 h -2.3649 v -1.1824 h -1.18245 v -1.1823 h -1.18245 l -1.18245,-1.1824 h -1.18221 v -1.1825 h -1.18245 v -1.1824 h -2.3649 v -1.1825 h -1.18245 v -1.1824 h -1.18245 v -1.1825 h -2.36465 v -1.1824 h -1.18245 v -1.1825 h -1.17763 v -1.1824 h -1.18245 v -1.1822 h -2.3649 v -1.1875 h -1.18221 v -1.1825 h -1.18245 v -1.1824 h -2.3649 v -1.1822 h -1.18245 v -1.1825 h -1.18245 v -1.1824 h -1.18245 v -1.1825 h -2.36465 v -1.1824 h -1.18245 v -1.1825 h -1.18245 v -1.1824 h -2.3649 v -1.1822 h -1.18221 v -1.1825 h -1.18245 v -1.1824 h -1.18245 v -1.1825 h -2.3649 v -1.1824 h -1.18245 v -1.1825 h -1.18245 v -1.1824 h -1.18245 v -1.1825 h -1.18245 v -1.1824 h -1.18245 v -1.1825 h -1.1822 l -1.18245,-1.1822 v -1.1824 h -1.18245 v -1.1825 h -1.18245 v -1.1824 h -1.18245 v -1.1825 h -1.18245 v -1.1824 h -1.18245 v -1.1825 h -1.18221 v -1.1822 h -1.18245 v -2.3649 h -1.18245 v -1.1824 h -1.18245 v -1.1825 h -1.18245 v -2.3649 h -1.18245 v -1.1822 h -1.18245 v -1.1824 h -1.18244 v -1.1825 l -1.18245,-1.1824 v -1.1825 h -1.18245 v -1.1824 h -1.18221 v -1.1825 h -1.18245 v -1.1824 h -1.18245 v -1.1825 l -2.3649,-2.3646 v -1.1825 h -1.18245 v -1.1824 h -1.18245 v -1.1825 h -1.18221 v -1.1824 h -1.18245 v -1.1825 h -1.18245 l -1.18245,-1.1824 v -1.1825 h -1.17739 v -1.1824 h -1.18245 v -2.3647 l -1.18245,-1.1824 v -1.1825 h -1.18245 v -3.5473 h 1.18245 v -1.1825 h -1.18245 v 1.1825 h -1.18245 v -1.1825 h -1.18244 v -1.1824 h -1.18245 v -2.3649 h -1.18245 v -1.1823 h -1.18245 v -2.3649 h -1.18221 v -1.1824 h -1.18245 v -2.3649 h -1.18245 v -1.1825 h -1.18245 v -2.3646 h -1.18245 v -2.3649 h -1.18245 v -1.1824 h -1.18245 v -2.3647 h -1.18221 v -1.1825 h -1.18245 v -2.3649 h -1.18245 v -1.1824 h -1.18244 v -2.3649 h -1.18245 v -1.1825 h -1.18245 v -2.3649 h -1.18245 v -1.1824 h -1.18245 v -2.3647 h -1.18245 v -3.5473 h -1.18245 v -2.3647 h -1.18221 v -4.7298 h 2.36466 v -2.3649 h -1.18245 v -1.1824 h -1.18221 v -3.5471 h 1.18221 v -9.4594 h -1.18221 v -3.5473 h -1.18245 v -2.3649 h -1.18245 v -1.1822 h -1.18245 v -1.1825 h -1.18245 v -1.1824 h 2.3649 l 1.18245,-1.1825 h 2.3649 v -2.3649 h -1.18245 v -1.1824 h -1.18245 v -2.3649 h -1.18245 v -3.5471 h -1.18245 v -2.3649 h -1.18245 v -2.3649 h -1.18245 v -3.5471 h -1.18245 v -2.3649 h -1.1822 v -2.3649 h -1.18245 v -2.3649 h -1.18245 v -2.3649 h -1.18245 v -1.1823 h -1.18245 v -1.1824 H 456.428 v -1.1824 h -2.36466 v -1.1825 h -1.18245 l -1.18245,-1.1824 h -1.18245 v -1.1825 h -2.3649 v -1.1824 h -3.54734 v -1.1822 h -7.09446 v -3.5474 h -1.17739 v -1.1824 h 1.18245 v -5.9121 h 2.36466 v 1.1825 h 2.3649 v -1.1825 h 2.3649 v -1.1824 h 1.18244 v -1.1825 h 1.18245 v -1.1824 h 1.18221 v -1.1825 h 1.18245 v -2.3649 h 1.18245 v -8.2768 h -1.18245 v -2.3647 h -1.18245 v -1.1824 h -1.18221 v -2.3649 h -1.18245 v -3.5474 h -1.18244 v -1.1824 l -1.18245,-1.1825 h 2.36489 v -1.1824 h 3.54711 v -1.1823 h 1.18245 v -1.1824 h 1.18245 v -1.1825 h 1.18245 v -2.3649 h -1.18245 l 3.54735,-3.547 v -14.1887 h -1.18245 v -10.6413 h -1.18245 v -24.8363 h -1.18245 v -4.7296 h -1.18245 l -1.18245,-1.1824 v -7.0945 h -1.18245 v -3.5473 h -1.18221 v -8.2769 h -1.18245 v -2.3649 h -1.18244 v -2.3647 h -1.18245 v -2.3649 h 1.18245 v -1.1824 l -1.18245,-1.1873 v -2.3649 h -1.18245 v -1.1824 h -1.18245 v -1.1825 h -1.18245 v -1.1824 h -1.18221 l -1.18245,-1.1825 v 1.1825 h -1.18245 v -2.3647 h -1.18245 v -1.1824 l -1.18245,-1.1825 v -3.5473 h -1.18245 v -1.1825 h -1.18245 v -8.2769 h -1.18221 v -4.7296 h -1.18245 v -5.9122 H 428.055 v -2.3649 h 1.18244 v -5.912 H 428.055 v -3.5473 h -1.18245 v -1.1825 h -1.18245 v -1.1822 h -1.18245 v -1.1825 h -1.18245 v -2.3649 h -1.18245 v -1.1824 h -1.18245 v -1.1825 h 1.18245 v -1.1822 h 1.18245 v -5.9122 h 1.18245 v -2.3649 l 1.18245,-1.1825 v -3.5471 h -1.18245 v -2.3649 h -1.18245 v -1.1824 h -1.18245 v -10.6413 h -1.18245 v -1.1825 h -1.18245 l 1.18245,-1.18244 v -2.3649 h -1.18245 v -2.36465 h -1.18221 v -2.3649 h -1.18245 v -2.3649 h -1.18245 v -1.18245 h 1.18245 v -1.18245 h -1.18245 v -2.36466 h -1.18245 v -1.18245 l -1.18245,-1.18245 v -2.3649 h 1.18245 v -10.64132 h -1.18245 v -3.54735 l -1.18245,-1.18245 v -3.5471 h -1.1822 v -1.18245 h -1.18245 v -1.18245 h -3.54735 v -1.18245 h -1.18245 v -1.18245 h -1.18245 v -1.18245 h -1.18245 v -1.18245 h -1.18245 v -1.18245 h -1.18245 v -1.18245 l 1.18245,-1.18245 v -2.3649 h -1.18245 v -3.54734 h 1.18245 v -1.18245 h -1.18245 v -5.91201 h 1.18245 v -1.18245 h 1.18245 v -2.36466 h -1.18245 v -4.7298 h -1.18245 v -1.18726 h 2.3649 v -1.18245 h 1.18245 v -7.0947 h -1.18245 v -2.36466 h -1.18245 v -3.54734 h -1.18245 v -1.18245 h -1.18245 v -1.18245 h 1.18245 v -3.54711 h 2.3649 v -1.18245 h 1.18245 v -1.18245 h -1.18245 v -2.3649 h -1.18245 v -1.18245 h 1.18245 l 1.18245,-1.18245 v -2.36465 h 1.18245 v 1.18245 h 1.18245 v 1.18244 h 1.18245 v -1.18244 h -1.18245 v -2.3649 h -1.18245 v -5.91201 l 1.18245,-1.18245 v -3.54734 h 1.18245 v -1.18245 h -1.18245 v -1.18245 h -2.3649 v -1.18245 h -3.54735 v 1.18245 h -3.54711 v 1.18245 h -1.18245 v -1.18245 h -1.18245 v -2.36466 h 1.18245 v -1.18245 h -1.18245 v -2.3649 h -2.36489 v -2.3649 h -1.18221 v -1.18245 h 1.18221 v -1.18245 h -1.18221 v -9.45935 h -1.18245 v -2.36466 h -2.3649 v -3.54735 h -1.18245 v -1.18245 h -1.18245 v -1.18245 h -3.54711 v -1.18245 h -2.3649 v 1.18245 h -2.3649 v 2.3649 h -1.18244 v 1.18245 h -2.3649 v -1.18245 h -1.1774 v -2.3649 h -1.18244 v -2.3649 h -1.18245 v -1.18244 h -1.18245 v -1.18245 h -1.18221 v -1.18245 h -1.18245 v -1.18245 h -1.18245 v -3.54711 h 1.18245 v -3.54735 h -1.18245 v -1.18245 h -1.18245 v -1.18245 h -1.18245 v -1.18245 h -1.18245 v -1.18245 h -2.3649 v -1.18245 h -2.3649 v -1.18245 h -1.1822 v -2.36489 h -1.18245 v -1.18245 h -2.3649 v -1.18245 h -2.3649 v -1.18245 h -1.18245 v -1.18245 h -1.18221 v -1.18245 h -1.18245 v -1.18245 h -2.3649 v -1.18245 h -1.18245 v -1.18245 h -1.18245 v -1.18245 h -1.18245 v -1.18245 l -1.1822,1.18245 v -1.18245 h -1.18245 v -1.18245 l -1.18245,-1.18245 h -1.18245 v -1.18245 h -1.18245 v -1.18245 h -1.18245 v -4.72955 h -1.18245 v -3.54735 h 1.18245 v -3.54711 h -1.18245 v -1.18245 h -1.18245 v -3.54735 h -1.18245 v -1.18245 h 1.18245 v -3.54734 l 1.18245,-1.18245 v -1.18245 h 2.3649 v -1.18245 h 1.18245 v -1.18245 h 2.3649 v -1.18245 h 1.18245 v -1.18245 h 1.1822 v -2.36466 h 1.18245 v -1.18245 h 2.3649 v -1.18245 h 1.18245 v -1.18245 h -1.18245 v 1.18245 h -3.54735 v 1.18245 h -1.1822 v -4.72979 h 1.1822 v -1.18245 h 1.18245 v -2.36466 h 1.18245 v -1.18245 l 1.18245,-0.005 v -1.18245 h 1.18245 v -1.18245 h 1.18245 v -1.18245 h 1.18245 v -1.18245 h -1.18245 v 1.18245 h -1.18245 v 1.18245 h -1.18245 v 1.18245 h -1.18245 l -1.18245,1.18245 h -1.18245 v 2.36465 h -1.1822 v 1.18245 h -1.18245 v 1.18245 h -1.18245 v 2.3649 h -2.3649 v 1.18245 h -2.3649 v 1.18245 h -2.3649 v 1.18245 h -1.18245 v 1.18245 h -1.18221 v 1.18245 h -3.54735 v -1.18245 l -1.18244,1.18245 v -1.18245 h -5.91201 v 1.18245 h -1.18245 v 1.18245 h -1.18245 v 1.18245 h -1.18245 v 1.18245 h -1.18245 v 2.3649 h 1.18245 v 2.3649 h -1.18245 v 2.36465 h -1.18245 v 2.3649 h -1.18245 v 5.91201 h 1.18245 v 2.36466 h -2.35984 v 2.3649 h -1.18245 v 4.72979 h -1.18245 v 5.91201 h -1.18245 v 2.3649 h -1.18221 v 4.72955 h 2.36466 v 1.18245 h 1.18245 v 4.7298 h 1.18245 v -1.18245 h 2.3649 v 1.18245 h 1.18245 v -1.18245 h 1.18221 V 293.24 h 3.54735 v 2.3649 h -1.18245 v 3.54711 h 2.3649 v 1.18245 h -1.18245 v 2.3649 h 1.18245 v 3.54711 h 2.36489 v 1.18244 h 2.3649 v 1.18245 h 3.54711 v 2.3649 h 1.18245 v -1.18245 h 2.3649 v 2.36466 h 1.18245 v 1.18245 h 1.18245 v 3.54735 h 1.18221 v 1.18245 h 1.18244 v 2.3649 l 1.18245,-1.18245 v 1.18245 h 1.18245 v 1.18245 h 1.18245 v 2.36465 h 1.18245 v 1.18245 h 1.18245 v 1.18245 h 4.72956 v -1.18245 l 1.18245,-1.18245 v 1.18245 h 1.18245 v -1.18245 h 1.18245 v -1.18244 h 1.18245 v -1.18245 h 2.36489 v -1.18245 h 1.18221 v 2.3649 h 1.18245 v 4.72955 h 1.18245 v 1.18245 h -2.3649 v 2.3649 h 1.18245 v 2.3649 h 3.54735 v 4.72956 h -2.3649 v -1.18245 h -3.54711 v 1.18245 h -1.18244 v -1.18245 h -2.3649 v -3.54713 h -4.72956 v 1.18245 h -1.18245 v 7.09446 h 1.18245 v 1.18245 h 1.18221 v -1.18245 h 1.18245 v -2.3649 h 1.18245 v 1.18245 h 1.18245 v 1.18245 h -1.18245 v 1.18245 h -2.3649 v 1.18245 h -3.54711 v 1.18245 h -2.3649 v 1.18245 l -1.18245,-2.3649 -2.3649,-1.18245 -1.18245,-1.18245 -3.5471,1.18245 h -3.54735 l -3.54711,-2.36466 -1.18245,-2.3649 2.36466,-1.18245 v -2.3649 l -2.36466,-4.72955 -4.72979,-1.18245 -2.3649,2.36465 -2.3649,2.3649 h -3.54711 l -2.3649,-2.3649 1.18245,-2.36465 2.3649,-7.09446 v -9.45959 l -2.3649,-1.18245 -2.3649,-1.18245 -2.36466,-2.36466 -2.36489,-3.54735 h -5.91201 l -3.54735,-1.18245 v -5.91201 l -2.3649,-2.36465 -2.3649,1.18245 -2.36489,2.36465 h -2.36466 l -1.18245,-3.5471 h -3.54735 l -5.91201,1.18245 -3.54734,3.5471 -3.54735,-2.36465 -3.54711,-4.7298 -3.54735,-2.3649 -1.18221,-3.54711 2.36466,-1.18245 1.18245,-3.54735 -2.3649,-4.72955 1.18245,-4.7298 -1.18245,-1.18245 -3.54711,1.18245 -2.36489,-3.54735 -3.54711,-1.18245 -2.3649,-1.18245 1.18245,-2.36466 v -2.36489 l -1.18245,-3.54711 -2.36008,-4.7298 -4.72956,-3.54711 h -3.54735 l -3.54711,1.18245 -2.36489,-1.18245 -3.54735,1.18245 -2.3649,-4.7298 -2.3649,-2.36489 v -3.54711 l -4.72956,-3.54735 -3.5471,-1.18245 h -2.3649 l -3.54735,-1.18245 -2.36466,-2.36465 -1.18245,-4.7298 2.36466,-3.54735 1.18245,-2.3649 -1.18245,-3.54711 -2.36466,1.18245 -1.18245,-2.36489 v -2.36466 l -1.18244,-3.54735 v -3.54711 l -1.18245,-1.18245 h -4.7298 l -2.36466,-1.18245 -2.3649,1.18245 h -4.7298 l -4.72955,-2.3649 -3.54229,-3.54735 -2.3649,-1.18244 h -2.3649 l -2.3649,-1.18245 v -2.36466 l 2.3649,-1.18245 -2.3649,-4.7298 -1.18221,-4.72956 -1.18245,-1.18244 2.36466,-1.18245 2.3649,-2.3649 h 2.3649 l 2.3649,-4.7298 v -3.54711 l 2.36465,-3.54735 5.91225,-2.36465 4.72956,-1.18245 2.3649,-1.18245 2.3649,-2.3649 h 4.72955 l 2.3649,1.18245 h 2.3649 l -1.18245,-3.54735 -2.3649,-1.18245 -3.54711,-1.18245 -1.18245,-2.36466 1.18245,-4.72979 2.36466,-1.18245 h 3.54735 l 2.3649,1.18245 3.54734,-4.7298 2.36466,-4.72956 h 2.3649 l 7.09446,2.36466 1.18245,1.18245 1.18245,2.3649 2.36465,-1.18245 1.18245,-3.54735 -2.36466,-4.72956 5.91201,-5.912 h 4.7298 l 2.36466,-1.18245 1.18245,-4.7298 2.35984,-3.54735 v -4.72955 l -1.18221,-3.54735 -1.18245,-1.18245 1.18245,-2.36466 3.54711,1.18245 h 5.91224 l 3.54711,-1.18245 4.7298,-2.3649 3.54711,1.18245 2.36489,2.3649 2.3649,-1.18245 v -4.7298 l 3.54711,1.18245 2.3649,-1.18245 1.18245,-4.729545 -1.18245,-4.7298 h 1.18245 l 1.18245,-3.54735 1.18245,-2.36466 4.7298,2.36466 h 3.5471 l 4.7298,-4.72956 5.91201,2.36466 4.72979,2.3649 4.72474,-1.18245 h 2.36466 l 2.3649,-3.54735 1.18245,-2.36465 3.54711,-2.3649 3.54735,2.3649 3.54734,-2.3649 4.72956,2.3649 5.91225,1.18244 3.5471,1.18245 1.18245,2.36466 1.18245,1.18245 1.18245,3.54735 v 4.7298 l -1.18245,1.18245 1.18245,3.547095 3.54735,4.7298 -1.18245,4.72956 3.54735,2.3649 v 3.5471 l 4.72956,2.3649 v 2.3649 l 2.3649,3.54711 -1.18245,3.54734 1.18245,2.3649 v 3.54711 l 2.36465,1.18245 4.7298,-1.18245 3.54711,-2.36466 h 3.54735 l 4.72474,-3.54735 v -2.36465 l 1.18245,-3.54735 5.912,-2.3649 10.64156,-3.54711 h 7.09446 l 1.18245,-2.36489 3.54735,-1.18245 2.36466,-2.36466 h 3.54734 l 3.54711,3.54711 4.7298,-1.18245 2.3649,2.3649 h 3.54735 l 2.36465,1.18244 h 2.3649 l 2.3649,1.18245 2.36466,-1.18245 v -2.36489 l -1.18245,-3.54711 1.18245,-1.18245 4.72474,-4.7298 3.54735,-1.18245 1.18245,-2.36466 -1.18245,-2.36489 1.18245,-2.364895 v -3.54735 l -2.3649,-1.18245 1.18245,-2.36466 -2.3649,-2.3649 v -2.36466 l 1.18245,-1.18244 3.54735,2.36465 v -1.18245 l -1.18245,-2.36465 1.18245,-1.18245 2.3649,2.36465 1.18245,-4.72955 -1.18245,-3.55217 1.18245,-7.09469 -1.18245,-1.18245 -1.18245,-2.36466 v -4.7298 l -1.18245,-2.36466 3.54735,-2.3649 h 3.5471 l 1.18245,-4.72955 -1.18245,-2.3649 1.18245,-4.7298 4.72956,-4.72956 4.72979,-1.18244 -1.18245,-3.54735 v -3.54711 l -1.18245,-2.3649 v -13.0014 l 1.18245,-4.7298 V 7.0944647 l 2.3649,-2.36466 h 2.3649 l 2.36466,-3.54735 3.54735,-1.182439958785 4.72955,1.182439958785 1.18245,3.54735 2.3649,3.54711 3.54735,-2.3649 3.54711,1.18245 4.7298,2.3649 2.36489,-1.18245 v -3.54711 h 3.54711 z M 507.27236,475.34345 h -1.18245 v 1.1824 z"
     style="clip-rule:evenodd;fill:#000000;fill-rule:nonzero;stroke:none;stroke-width:2.46364px"
     id="path1270" />
</svg>
