<?xml version="1.0" encoding="UTF-8" standalone="no"?>
<svg
   xmlns:dc="http://purl.org/dc/elements/1.1/"
   xmlns:cc="http://creativecommons.org/ns#"
   xmlns:rdf="http://www.w3.org/1999/02/22-rdf-syntax-ns#"
   xmlns:svg="http://www.w3.org/2000/svg"
   xmlns="http://www.w3.org/2000/svg"
   xmlns:sodipodi="http://sodipodi.sourceforge.net/DTD/sodipodi-0.dtd"
   xmlns:inkscape="http://www.inkscape.org/namespaces/inkscape"
   version="1.0"
   width="1024pt"
   height="1024pt"
   viewBox="0 0 1024 1024"
   preserveAspectRatio="xMidYMid meet"
   id="svg2211"
   sodipodi:docname="vector.svg"
   inkscape:version="1.0.2-2 (e86c870879, 2021-01-15)">
  <defs
     id="defs2215" />
  <sodipodi:namedview
     pagecolor="#ffffff"
     bordercolor="#666666"
     borderopacity="1"
     objecttolerance="10"
     gridtolerance="10"
     guidetolerance="10"
     inkscape:pageopacity="0"
     inkscape:pageshadow="2"
     inkscape:window-width="1366"
     inkscape:window-height="697"
     id="namedview2213"
     showgrid="false"
     inkscape:zoom="0.1940918"
     inkscape:cx="1266.7524"
     inkscape:cy="760.26375"
     inkscape:window-x="-8"
     inkscape:window-y="-8"
     inkscape:window-maximized="1"
     inkscape:current-layer="svg2211"
     fit-margin-top="0"
     fit-margin-left="0"
     fit-margin-right="0"
     fit-margin-bottom="0" />
  <metadata
     id="metadata2205">
Created by potrace 1.10, written by Peter Selinger 2001-2011
<rdf:RDF>
  <cc:Work
     rdf:about="">
    <dc:format>image/svg+xml</dc:format>
    <dc:type
       rdf:resource="http://purl.org/dc/dcmitype/StillImage" />
    <dc:title></dc:title>
  </cc:Work>
</rdf:RDF>
</metadata>
  <path
     d="m 251.96539,87.170345 16.15289,6.46116 12.92166,3.23058 9.69174,3.230565 6.4605,6.46116 3.23057,3.22992 9.69174,6.46116 25.84397,9.69174 41.99687,16.15223 38.76497,12.92232 35.52122,9.69107 3.23058,3.23058 v 9.69174 l 3.23058,3.23058 6.46116,3.23058 16.15223,12.92165 19.38282,9.69108 16.15289,9.69174 16.15223,6.46115 12.92232,19.38282 9.69108,6.46116 12.92225,12.92164 6.4612,19.38348 6.4605,29.07323 16.1529,45.2406 16.1522,3.23058 h 74.2896 l 3.2305,3.22992 6.4605,3.23058 3.2306,9.69174 3.2305,6.46116 3.2306,12.92165 6.4612,9.69174 3.23,16.15223 19.3834,6.46116 19.3828,-6.46116 h 6.4612 l 9.6911,3.23058 h 61.3658 l 6.4605,3.23058 h 9.6918 l 9.6917,-3.23058 v -9.69108 l 9.691,-3.23057 3.2306,3.23057 h 9.6918 l 3.2305,-3.23057 h 3.2306 l 3.23,6.46049 v 9.69174 l 6.4611,6.46116 -3.2305,6.4605 -3.2306,3.23058 h -6.4606 l -3.2305,6.46115 v 9.69174 l -9.6918,3.23058 v 6.46116 l 3.2306,3.22992 6.4612,3.23058 -3.2306,6.46115 -3.2306,6.46116 3.2306,6.4605 h 6.4611 v 6.46116 l -3.2305,6.46115 v 19.38282 l 3.2305,9.69173 -3.2305,6.46116 -6.4612,6.4605 v 6.46116 l -3.2306,3.23058 -9.691,3.23058 3.2306,3.23057 3.2298,6.4605 h 9.6918 l 3.2306,6.46116 h 9.6911 l 6.4611,3.23058 h 3.2306 l 3.2306,-6.46116 3.2306,-6.46115 9.6917,-3.22993 9.691,-9.69173 3.2306,-6.46116 6.4612,-3.23058 6.4611,-6.4605 6.4606,-3.23058 3.2306,-6.46115 h 19.3827 l 6.448,6.46115 3.2306,6.46116 h 9.6911 l 9.69184,-3.23058 3.2305,-3.23058 3.2306,3.23058 6.4605,3.23058 -3.2306,3.22992 v 12.92232 l -3.2299,3.23058 -3.2306,3.23057 3.2306,6.4605 v 16.1529 l -3.2306,3.23057 3.2306,6.46115 3.2299,6.4605 v 6.46116 l 3.2306,3.23058 6.4611,6.46116 3.2306,9.69108 -3.2306,6.46115 -3.2305,3.23058 -3.2306,3.23058 v 9.69174 l -3.2306,3.22992 h -9.691 l -3.23064,3.23058 6.46114,3.23057 h 12.9217 l 3.2305,3.23058 v 12.92166 l -3.2305,6.46116 -3.2306,6.46115 v 16.15224 l 3.2306,9.69174 -3.2306,6.46115 -3.2306,6.46116 -6.4605,6.4605 3.2306,6.46116 3.2299,3.23058 3.2306,6.4605 3.2306,9.70555 3.2305,12.92166 -3.2305,6.46115 -3.2306,3.23058 h -9.6911 l -3.2305,9.69174 3.2305,6.4605 3.2306,3.23058 3.2299,3.23057 -3.2299,3.23058 -6.4611,3.23058 -3.23064,3.23058 v 6.4605 l 3.23064,9.69174 3.2305,16.15223 v 3.23058 h -22.61344 l -9.6917,3.23058 -12.9223,3.23058 -9.6911,3.23058 -9.6917,6.46115 -9.6911,9.69108 -9.6918,6.46116 v -6.46116 h -6.4611 l -9.6911,-9.69108 -9.6917,3.23058 -12.9223,3.22992 -6.4606,3.23058 h -12.9223 l -3.2306,-6.4605 h -29.0731 l -9.6918,-3.23058 -3.2306,6.4605 v 9.69174 l -6.4473,6.46118 -6.4612,3.23058 -6.4612,-6.46116 -3.2305,-6.46118 v -6.46116 l -3.2306,-3.22992 -9.6911,-3.23058 -9.6917,3.23058 -3.23,6.4605 -16.1528,3.23058 -6.4612,6.46118 -9.691,3.23058 -6.4612,3.23058 -6.4612,6.46046 -3.2305,12.92231 v 3.22997 l -12.9217,6.46115 3.2305,6.46116 -12.9223,6.46116 -6.4604,3.2306 3.2299,6.4611 h -12.9217 l -9.6917,-3.2305 -3.2306,-9.69178 -12.9217,-12.9217 3.2306,-6.46116 -3.2306,-6.46116 -12.9223,-3.23057 -6.4473,-6.46116 -6.4611,-3.22988 h -6.4612 l -3.2306,-3.23058 -3.2299,-9.69176 v -12.92166 h 6.4605 l 6.4612,-3.23057 v -6.46116 l 3.2305,-3.23058 -3.2305,-3.23058 h -9.6918 l -6.4605,-6.46116 h -6.4612 v -9.69107 l 3.2306,-6.46116 -9.6917,-9.69174 v -6.4605 h -9.6911 l -6.4611,-3.23058 -3.2306,-6.46115 -3.2306,-3.23058 -12.9217,-3.23058 v -3.22992 l 3.2306,-6.46116 v -3.23058 l -6.46116,-6.46116 -6.46114,-12.92231 v -9.69108 l 3.23056,-6.46116 -6.46113,-3.23057 -6.46116,3.23057 -3.23058,3.23058 v 12.92166 h -19.38281 l -3.23058,3.23058 -6.4605,-3.23058 -9.69174,6.46116 v 9.69173 h -6.46116 l -6.46115,-3.23058 -6.4605,6.46116 h -6.46116 l -6.46116,3.23058 h -6.44734 l -3.23058,-3.23058 v -6.46116 h -6.46115 l -6.46116,3.23058 v 9.69174 l -16.15223,3.23058 -12.92166,3.22992 v 6.46116 l -3.23057,3.23057 -9.69174,3.23058 -3.23058,-3.23058 h -6.4605 l -6.46116,3.23058 -6.46115,6.46116 -6.46116,3.22992 h -3.23058 l -6.46116,3.23058 h -9.69107 l -3.23058,-6.4605 -6.46116,-3.23058 v 3.23058 l -9.69108,3.22992 -12.92231,-3.22992 -3.23058,-6.46116 -6.46116,6.46116 -3.22992,-3.23058 -3.23058,-3.23058 h -3.23058 l -12.92231,-3.23058 h -9.67792 l -6.4605,3.23058 -3.23058,3.23058 -3.23058,9.69108 -3.23058,3.23058 h -9.69173 l -6.46116,-3.23058 -9.69108,3.23058 h -9.69173 l -6.4605,-9.69108 -3.23058,-6.46116 6.4605,-9.69173 -3.22992,-3.23058 h -3.23058 l -6.46116,6.46116 h -6.46116 v -3.23058 h -9.69173 l -3.23058,12.92231 v 3.23058 l 9.69173,3.22992 v 3.23058 h -16.15223 l 3.23058,9.69174 -3.23058,3.23058 -3.23058,-3.23058 -6.46116,6.46115 -3.23058,3.22992 v -3.22992 l -6.4605,-9.69173 v -3.23058 l -12.92231,-19.38282 -3.23058,-6.46115 -9.69108,-12.92166 -3.23058,-6.46116 v -3.23058 l -3.23057,-3.23057 v -3.23058 h -3.23058 l -9.69174,-19.38282 -3.23058,-3.23058 -6.46049,-12.92165 -6.448,-6.46116 v -3.23058 l -6.4605,-6.46116 -9.691725,-19.38281 -3.23058,-3.23058 -9.69174,-19.38281 v -3.23058 l -3.23058,-3.23058 v -22.61339 l -3.22992,-3.23058 v -6.46116 l 3.22992,-3.23058 h 3.23058 l 3.23058,3.23058 h 3.23058 v 3.23058 h 3.23058 v 3.23058 h 3.23058 v -3.23058 h 3.23058 v 9.69174 h 3.230575 l 6.46115,-3.23058 h 3.22992 l 3.23058,-3.23058 v -3.23058 h 6.46115 l 6.46116,-6.46116 v -6.4605 h 3.23058 l 3.22992,-3.23058 v -12.92231 h -6.4605 v -3.22992 h 16.15223 l 6.46116,-6.46116 h -3.23058 v -3.23058 h -6.46115 l -3.23058,3.23058 h -12.92166 l -3.23058,3.23058 -3.23057,3.23058 -3.23058,3.22992 h -3.23058 v -3.22992 h -6.4605 l -3.23057,-3.23058 -3.230575,3.23058 h -6.46116 l -12.92232,-6.46116 -3.22992,-3.23058 -3.23057,-6.46115 h -3.23058 v 3.23057 l -3.23058,3.23058 -3.23058,3.23058 v 3.23058 h 3.23058 v 3.23058 h -19.38282 l -12.92231,3.22992 H 9.6917447 l -3.23058,3.23058 H 4.7412107e-6 V 600.84549 L 6.4611647,581.46203 16.152895,562.07922 v -6.4605 l 6.46116,-9.69174 v -3.23058 h 12.92166 l 3.23058,-3.23058 3.23058,-9.69108 v -9.69173 l -6.46116,-6.46116 3.23058,-6.46116 v -9.69107 l -3.23058,-6.46116 -3.23058,-6.46116 -3.22992,3.23058 -3.23058,6.46116 v -22.6134 h -6.46116 l -6.46115,-3.23057 H 9.6917447 l -3.23058,-3.23058 19.3834703,-19.38282 v -9.69173 l -3.23058,-6.46116 -3.23058,-3.23058 h -3.23058 l 3.23058,-9.69108 h 3.23058 l 3.23058,-6.46116 -3.23058,-6.46049 v -22.61406 h -3.23058 l -3.23058,-3.23057 6.46116,-3.23058 3.23058,-3.22992 6.4605,-3.2444 6.46116,-6.46116 h 12.92231 l -3.23058,-6.4605 -6.46115,-3.23057 -3.23058,-3.23058 -3.23058,-3.23058 v -12.92166 l 3.23058,-3.23058 h 3.23058 l -3.23058,-6.46116 v -9.69173 l 3.23058,-3.23058 h 3.23057 l 6.46116,6.46116 h 12.92166 l 3.23058,-3.23058 V 293.9346 l 12.92165,-6.46115 h 6.46116 l 9.69174,-9.69108 3.230575,-3.23058 -3.230575,-6.46116 h 12.921645 l 3.23058,3.23058 6.46115,-3.23058 6.46116,-3.23058 12.92166,6.46116 6.46115,-3.23058 6.46116,-3.23058 h 6.46116 l 6.4605,3.23058 6.46115,6.46116 3.23058,3.23058 9.69174,-3.23058 h 6.4605 v -9.69174 l -3.23058,-9.69106 -6.4605,-6.46116 -3.23058,-6.46116 3.23058,-9.69174 3.23058,-6.4605 v -3.23057 h 3.22992 l 3.23058,-3.23058 -3.23058,-6.46116 -3.22992,-3.23058 h -3.23058 l -9.69174,3.23058 -3.23057,3.23058 -6.4605,-3.23058 -3.23058,-3.23058 3.23058,-6.4605 3.22992,-3.23058 12.92231,-6.46115 h 3.23058 l 9.69108,-9.69174 3.23058,3.23058 h 6.46115 l 6.4605,-3.23058 9.69174,-6.46116 3.23058,-9.69108 3.23058,-9.69173 6.46115,-9.69108 3.23058,-9.69174 -3.23058,-6.46115 -3.23057,-6.46116 6.46115,-12.92166 3.23058,-19.382805 3.23058,-16.15289 6.4605,6.46115 6.46116,3.23058 z"
     style="clip-rule:evenodd;fill:#000000;fill-rule:nonzero;stroke:none;stroke-width:6.73092px"
     id="path1336" />
</svg>
