<?xml version="1.0" encoding="UTF-8" standalone="no"?>
<svg
   xmlns:dc="http://purl.org/dc/elements/1.1/"
   xmlns:cc="http://creativecommons.org/ns#"
   xmlns:rdf="http://www.w3.org/1999/02/22-rdf-syntax-ns#"
   xmlns:svg="http://www.w3.org/2000/svg"
   xmlns="http://www.w3.org/2000/svg"
   xmlns:sodipodi="http://sodipodi.sourceforge.net/DTD/sodipodi-0.dtd"
   xmlns:inkscape="http://www.inkscape.org/namespaces/inkscape"
   version="1.0"
   width="1024pt"
   height="1024pt"
   viewBox="0 0 1024 1024"
   preserveAspectRatio="xMidYMid meet"
   id="svg2211"
   sodipodi:docname="vector.svg"
   inkscape:version="1.0.2-2 (e86c870879, 2021-01-15)">
  <defs
     id="defs2215" />
  <sodipodi:namedview
     pagecolor="#ffffff"
     bordercolor="#666666"
     borderopacity="1"
     objecttolerance="10"
     gridtolerance="10"
     guidetolerance="10"
     inkscape:pageopacity="0"
     inkscape:pageshadow="2"
     inkscape:window-width="1366"
     inkscape:window-height="697"
     id="namedview2213"
     showgrid="false"
     inkscape:zoom="0.1940918"
     inkscape:cx="1266.7524"
     inkscape:cy="760.26375"
     inkscape:window-x="-8"
     inkscape:window-y="-8"
     inkscape:window-maximized="1"
     inkscape:current-layer="svg2211"
     fit-margin-top="0"
     fit-margin-left="0"
     fit-margin-right="0"
     fit-margin-bottom="0" />
  <metadata
     id="metadata2205">
Created by potrace 1.10, written by Peter Selinger 2001-2011
<rdf:RDF>
  <cc:Work
     rdf:about="">
    <dc:format>image/svg+xml</dc:format>
    <dc:type
       rdf:resource="http://purl.org/dc/dcmitype/StillImage" />
    <dc:title></dc:title>
  </cc:Work>
</rdf:RDF>
</metadata>
  <path
     d="m 854.60236,150.56001 15.0274,15.05968 7.5299,-7.52984 15.0581,15.05968 -7.5298,7.52984 30.1194,15.05968 15.0596,30.11783 15.0582,7.52984 v 15.05966 l -15.0582,7.52984 h -7.5298 l -15.0597,15.05968 v 7.5283 l -15.0597,7.52984 -7.5298,7.52985 -7.5298,7.52984 -22.588,22.58952 -7.5299,7.5283 v 7.52984 l 7.5299,15.05968 v 7.52984 l 7.5298,7.52984 v 15.05969 l -15.0597,15.05968 h -7.5298 l -7.5299,7.5283 h -7.5298 v 15.05968 l 7.5298,7.52984 7.5299,7.52984 v 30.11783 l -7.5299,15.05968 v 15.05968 l -7.5298,15.05968 v 7.52984 l -7.5298,7.52984 -7.5299,7.52831 -7.5298,7.52984 V 564.692 l 7.5298,7.52984 -7.5298,15.05815 v 15.05968 l -7.5299,15.05968 7.5299,15.05815 v 52.70888 l -7.5299,22.58799 v 45.17904 l -7.5298,15.05815 v 22.58952 l -7.5298,22.58952 -7.5299,7.52984 v 7.52984 l -15.0581,7.52831 h -60.23875 v 7.52984 l -7.52984,7.52984 h -7.52984 l -7.52984,7.52984 -7.52984,7.52984 h -7.52984 v 7.52984 h -15.05814 l -7.52985,-7.52984 h -7.52984 l -7.52984,7.52984 -15.05966,7.52984 -15.05968,7.52831 h -7.52984 l -15.05814,7.52984 h -15.05968 l -15.05815,7.52984 h -7.52984 l -30.11936,30.11936 h -15.02748 l -15.05968,7.52831 -30.11783,7.52987 -22.58952,22.5895 -22.58952,7.5298 h -30.11783 l -22.58952,7.5299 -22.58799,15.05964 -15.05968,22.588 v -15.0581 l -7.52984,-15.05974 h -22.58798 v -22.5895 l 7.52984,-7.5299 7.52984,-7.5298 h 7.52984 l -7.52984,-15.05967 -7.52984,-15.05815 h -22.58953 v 15.05815 h -7.52984 l -7.52984,-7.52831 v -22.58952 l -7.52984,-7.52984 -7.52984,-7.52984 v -52.70735 h -7.52984 l -15.05968,-7.52984 v -45.17751 l -7.52984,-15.05968 h -7.52984 l -15.05968,-15.05968 v -15.05815 l -7.52984,-7.52984 v -15.05968 h -22.58799 l -7.52984,7.52984 h -7.52984 l -7.52984,-15.05968 v -7.52984 h -7.52984 l -7.52984,-7.52831 -7.52984,-7.52984 -15.05968,-7.52984 v -7.52984 l -7.49763,-7.52984 7.52984,-15.05968 15.05814,-7.52984 15.05968,-15.05968 h 7.52984 l 7.52984,-7.52831 v -22.58952 l -7.52984,-7.52984 -7.52984,-15.05815 -7.52984,-7.52984 v -22.58952 h -7.52984 l -7.52984,-15.05968 v -7.52831 l -7.52984,-7.52984 v -7.52984 l 15.05815,-7.52984 7.52984,-7.52984 h 15.05968 l 7.52984,-7.52984 h 7.52984 l 7.52984,-7.52984 7.52984,-7.52984 7.52984,-7.52984 h 15.05968 l 7.52984,7.52984 h 22.58799 l 7.52984,-15.05968 V 376.4828 l -15.05815,-15.05968 v -7.52984 l -7.52984,-15.05968 v -15.05815 l 7.52984,-7.52984 h 15.05815 l 7.52984,-7.52984 v -7.52984 l -7.52984,-7.52984 v -7.52984 l -7.52984,-15.05815 v -60.2387 l 7.52984,-15.05815 7.52984,-7.52984 7.52984,-15.05968 15.05968,-15.05968 V 143.0639 h 7.52984 l 7.52984,-7.52984 h 15.05815 l 7.52984,7.52984 v 7.52984 l 7.52984,7.52831 h 15.05968 l 7.52984,-15.05815 v -7.52984 l 7.52984,-7.52984 7.52984,-15.05968 7.52984,-7.52984 7.52984,7.52984 h 22.58799 V 90.355022 h 7.52984 v -7.52984 h 7.52984 l 7.52984,-7.52984 v -7.52831 l 15.05968,-15.05968 7.52984,-7.529836 15.05968,-15.059681 v -7.528307 h 15.05968 l 7.52984,-7.52984 7.49764,-7.5298398 h 7.52984 L 470.58663,7.241211e-6 h 7.52984 L 485.64631,7.5298482 l 7.52984,15.0596798 30.11936,-15.0596798 -7.52984,22.5879868 37.64767,15.059681 15.05968,-15.059681 7.52984,-15.058147 15.05815,7.52984 -7.52984,15.058147 v 15.059677 l 15.05968,-15.059677 15.05966,7.529841 h 15.05815 l 7.52984,-7.529841 7.52984,7.529841 7.52984,7.529836 -7.52984,7.52984 v 15.05815 l -7.52984,15.05968 v 7.52984 h 22.58952 l 15.05814,37.649198 -15.05814,30.11783 7.52984,15.05968 7.52984,-15.05968 7.52984,7.52984 15.05815,-15.05968 v 15.05968 h 7.52984 l 7.52984,7.52984 15.05969,-15.05968 7.5298,7.52984 82.8252,-60.23719 15.0597,22.58952 7.5298,7.52984 22.5895,-7.52984 -7.5298,15.05968 z"
     style="clip-rule:evenodd;fill:#000000;fill-rule:nonzero;stroke:none;stroke-width:15.6884px"
     id="path1362" />
</svg>
