<?xml version="1.0" encoding="UTF-8" standalone="no"?>
<svg
   xmlns:dc="http://purl.org/dc/elements/1.1/"
   xmlns:cc="http://creativecommons.org/ns#"
   xmlns:rdf="http://www.w3.org/1999/02/22-rdf-syntax-ns#"
   xmlns:svg="http://www.w3.org/2000/svg"
   xmlns="http://www.w3.org/2000/svg"
   xmlns:sodipodi="http://sodipodi.sourceforge.net/DTD/sodipodi-0.dtd"
   xmlns:inkscape="http://www.inkscape.org/namespaces/inkscape"
   version="1.0"
   width="1024pt"
   height="1024pt"
   viewBox="0 0 1024 1024"
   preserveAspectRatio="xMidYMid meet"
   id="svg2211"
   sodipodi:docname="vector.svg"
   inkscape:version="1.0.2-2 (e86c870879, 2021-01-15)">
  <defs
     id="defs2215" />
  <sodipodi:namedview
     pagecolor="#ffffff"
     bordercolor="#666666"
     borderopacity="1"
     objecttolerance="10"
     gridtolerance="10"
     guidetolerance="10"
     inkscape:pageopacity="0"
     inkscape:pageshadow="2"
     inkscape:window-width="1366"
     inkscape:window-height="697"
     id="namedview2213"
     showgrid="false"
     inkscape:zoom="0.1940918"
     inkscape:cx="1266.7524"
     inkscape:cy="760.26375"
     inkscape:window-x="-8"
     inkscape:window-y="-8"
     inkscape:window-maximized="1"
     inkscape:current-layer="svg2211"
     fit-margin-top="0"
     fit-margin-left="0"
     fit-margin-right="0"
     fit-margin-bottom="0" />
  <metadata
     id="metadata2205">
Created by potrace 1.10, written by Peter Selinger 2001-2011
<rdf:RDF>
  <cc:Work
     rdf:about="">
    <dc:format>image/svg+xml</dc:format>
    <dc:type
       rdf:resource="http://purl.org/dc/dcmitype/StillImage" />
    <dc:title></dc:title>
  </cc:Work>
</rdf:RDF>
</metadata>
  <path
     d="m 771.27794,845.43809 v -1.8995 z m -98.77985,58.894 h 5.69946 v 1.8998 h 1.89982 -1.89982 v 15.1983 l -1.89982,1.8994 -1.89982,1.8998 h -1.89982 v -3.7992 l -1.89982,-1.8999 h 1.89982 -1.89982 v -3.7996 l 1.89982,-1.8998 v -1.8998 h 1.89982 v -1.8999 h -1.89982 z m 41.7949,-43.6939 v 1.8998 z M 602.214,961.32559 v -3.7996 h 1.89982 v 3.7996 l 1.89983,1.8998 -1.89983,1.8999 v 5.699 h 1.89983 l -1.89983,1.8998 H 602.214 v -1.8998 h -1.89982 1.89982 v -1.8998 h -1.89982 v -1.8994 h 1.89982 v -1.8998 h -1.89982 v -3.7997 z m 250.76243,-254.5644 v 1.8998 -1.8998 h -1.89982 v -1.8998 1.8998 z m -13.29874,7.5993 v 1.8998 z m 1.89982,-13.2983 v -1.8998 z m -246.95737,250.762 h -1.89982 z m 248.85989,-258.3718 1.89983,1.8998 v -1.8998 1.8998 l -1.89983,1.8999 v 1.8994 h -1.89981 v -3.7996 h 1.89981 v -1.8998 1.8998 z m -49.39456,37.9949 h -1.89982 z m -11.39893,-5.6995 h -1.89943 v -1.8998 h 1.89943 z m -117.77768,117.7862 h 1.89944 -1.89944 v 1.8994 z m 1.89944,0 v -1.8998 h 1.89982 -1.89982 z m -41.79451,34.1964 h 1.89982 v 1.8998 h -1.89982 v 1.8998 z m 123.48487,-191.8846 h 1.89983 l 3.79964,5.6995 h -1.89982 v -1.8999 h -1.89982 v -1.8998 l -1.89983,-1.8998 v -1.8995 z m -1.89982,-3.7993 v -1.8998 h -1.89982 1.89982 z m -1.89982,-7.5993 h -1.89943 z m -7.59889,-28.4973 v 1.8998 l -1.89982,-1.8998 z m 117.77767,-248.892 h -1.89982 z m 9.4991,-22.7967 v -1.8998 z m -24.69766,9.4987 h 1.89982 v 1.8999 h 1.89981 v 1.8998 h -1.89981 v -1.8998 1.8998 h -1.89982 z m -1.89944,0 h 1.89944 v 1.8999 -1.8999 1.8999 h -1.89944 z m 0,-1.8998 v 1.8998 h -1.89982 1.89982 z m -1.89982,-5.699 h -1.89982 z m -18.99821,-9.4988 v -1.8998 z m -117.77806,113.9858 v -1.8998 z m 138.67532,-104.4867 h -1.89982 v -1.8998 h -1.89982 v -1.8998 h -5.69908 v -1.8998 h -5.69946 v 5.6991 h -1.89982 v -1.8999 h -1.89982 v -1.8998 h 1.89982 -1.89982 v -1.8998 1.8998 -3.7993 h 1.89982 v -1.8998 1.8998 h 1.89982 v -1.8998 1.8998 h 1.89982 v -5.6994 h -1.89982 v 3.7996 h -3.79964 v -1.8998 1.8998 -5.6994 h -1.89982 v -1.8999 h -1.89983 v -1.8998 h 1.89983 -1.89983 1.89983 v -1.8998 h 1.89982 v -1.8998 h -1.89982 v 1.8998 h -1.89983 v -5.6991 h -1.89982 v -1.8998 h -1.89943 v 3.7992 h -1.89982 v -7.5988 h -1.89982 1.89982 v -9.4991 h -1.89982 v -1.8998 h -3.79964 v -3.7997 h -1.89983 v -3.7993 h -1.89943 v -1.8998 h -3.79964 v 1.8998 -5.6994 h -1.89982 v -1.8999 h 1.89982 -1.89982 v -3.7992 h -1.89982 v -1.8998 1.8998 -1.8998 1.8998 -1.8998 h -3.79965 v -3.7996 h -5.69907 v -1.8999 h -1.89982 1.89982 v -1.8998 h -1.89982 v 1.8998 -1.8998 h -3.79964 1.89982 -1.89982 v -1.8998 h -1.89982 v 22.7967 h 1.89982 v 1.8998 h 1.89982 v 3.7993 h 1.89982 -1.89982 1.89982 v 1.8998 h -1.89982 1.89982 v 1.8998 h 1.89982 -1.89982 v 1.8998 h 1.89982 v 3.7997 h -3.79964 v 1.8998 -1.8998 1.8998 h 1.89982 v 1.8998 h -1.89982 v 1.8998 l -1.89982,-1.8998 v 1.8998 -1.8998 h -1.89982 v 1.8998 -1.8998 h 1.89982 v 1.8998 h 1.89982 v 1.8998 -1.8998 1.8998 h -1.89982 1.89982 -1.89982 v 7.5989 h -3.79965 v -1.8998 1.8998 -1.8998 1.8998 l -1.89982,-1.8998 v -1.8998 h -1.89982 v -1.8998 h -3.79925 v -3.7993 h -1.89982 v -3.7996 h -1.89982 v 3.7996 h 1.89982 v 5.6991 h 1.89982 -1.89982 v -1.8998 h -1.89982 v 1.8998 h -5.69947 v -3.7993 h -1.89943 v -1.8998 h -3.79964 v 1.8998 h -3.79965 v 1.8999 h -3.79964 v 1.8998 h -1.89943 v 3.7992 h -3.79964 v 1.8998 h 1.89982 -1.89982 v 1.8999 h -1.89982 1.89982 v 3.7996 h -1.89982 v 1.8998 h 1.89982 -1.89982 v 1.8998 h 1.89982 -1.89982 1.89982 v 3.7997 h 1.89982 v 1.8998 -1.8998 1.8998 h 1.89982 -1.89982 v 1.8998 h -1.89982 v 1.8998 h -3.79965 v 3.7993 h -1.89982 v 1.8998 h -1.89982 v 1.8999 h 1.89982 v 5.6994 -1.8998 h -1.89982 v 1.8998 h -3.79964 v 1.8999 h -1.89982 v 1.8998 h -1.89943 v 5.699 h 1.89943 v 3.7997 h -1.89943 v 1.8998 h 1.89943 -1.89943 1.89943 v 3.7996 h -1.89943 v 3.7993 h -1.89983 v 1.8998 h -1.89982 v -1.8998 h -1.89982 v 1.8998 h -1.89982 v 1.8999 h -3.79964 v 1.8998 h -1.8917 v 1.8998 h -1.89982 v 1.8998 h -1.89982 v 1.8998 h -1.89982 v 1.8999 -1.8999 1.8999 h -1.89982 v 3.7992 h -1.89982 1.89982 v 1.8998 h -1.89982 1.89982 v 7.5993 h 3.79964 v 3.7996 h -3.79964 v 5.6991 h -1.89982 v 1.8999 h 1.89982 -1.89982 v 3.7996 h -1.89943 v 1.8998 h 1.89943 -1.89943 v 3.7992 h 1.89943 v 1.8999 h 1.89982 v 3.7996 h 1.89982 v 1.8998 h -1.89982 1.89982 v 7.599 h -1.89982 1.89982 -1.89982 v 1.8998 h -3.79925 1.89943 v 1.8998 -1.8998 1.8998 -1.8998 1.8998 h -1.89943 v 1.8998 h 1.89943 v 1.8998 -1.8998 1.8998 h -1.89943 1.89943 v 1.8999 h 1.89982 v 1.8998 h 1.89982 v 3.7996 h 1.89982 v 1.8994 h 1.89982 v 1.8998 h 1.89982 v 1.8999 -1.8999 h 1.89983 v 1.8999 -1.8999 1.8999 h 1.89982 v 3.7996 h 3.79964 v 1.8998 h 1.89943 v 1.8999 h 3.79964 v 1.8994 h 1.89983 v 1.8998 h -3.79965 v 1.8999 h -1.89982 v 1.8998 h 1.89982 -1.89982 v 13.2983 h 1.89982 v 19.0064 h 1.89982 v 5.6994 h 1.89983 v 5.6995 -1.8998 h -1.89983 v 3.7992 -1.8994 h 1.89983 v 1.8994 -1.8994 1.8994 -1.8994 h 1.89982 v 5.699 h 1.89982 v 1.8999 h 1.89982 v 1.8998 h 1.89943 v 1.8998 h 1.89982 v 1.8998 h 1.89982 v 1.8995 h 1.89983 v 1.8998 h 1.89982 v 1.8998 h -3.79965 v 3.7997 h 1.89983 v 9.4987 h -1.89983 1.89983 v 1.8998 h -1.89983 v 7.5993 h 1.89983 v 1.8998 h -1.89983 v 1.8998 h 1.89983 v 1.8995 h 1.89982 v 5.6994 h -3.79965 v 13.2984 h 1.89983 -1.89983 1.89983 v 13.2984 h -1.89983 v 11.3985 h 1.89983 -1.89983 v 5.6994 h 1.89983 v 1.8999 h 1.89982 -1.89982 1.89982 v 11.3985 h 1.89982 v 3.7997 h 1.89982 v 7.5992 h -1.89982 v 9.4987 h 3.79925 v 1.8999 h 1.89982 v 1.8998 -1.8998 h 1.89982 v 1.8998 h 1.89983 v -1.8998 1.8998 h 1.89982 v 1.8994 h 1.89982 l 1.89982,1.8999 1.89982,1.8998 v 1.8998 h -1.89982 v 1.8998 -1.8998 1.8998 l 1.89982,1.8998 v 3.7997 -3.7997 h -1.89982 v -1.8998 1.8998 h 1.89982 l -1.89982,-1.8998 v -1.8998 h 1.89982 -1.89982 1.89982 v -1.8998 1.8998 h -1.89982 l 1.89982,-1.8998 h -1.89982 v 1.8998 h -1.89982 v 1.8998 h -1.89982 v 1.8998 h -1.89982 v 3.7997 h -1.89983 v 1.8998 h 1.89983 v 1.8998 h 1.89982 v 1.8994 h 1.89982 v 1.8999 h 1.89982 v 1.8998 h 1.89982 v 1.8998 h 1.89982 v 1.8998 h 3.79925 v 1.8998 h 3.79965 v 1.8999 h 7.59928 v 1.8994 h 3.79926 -7.5989 v -1.8994 h -5.69946 v 1.8994 h 1.89982 v 3.7997 h 1.89982 v 1.8998 h 1.89982 v 3.7996 h 1.89982 -1.89982 v 1.8998 h 1.89982 v 1.8995 h -1.89982 v 3.7996 h 1.89982 -1.89982 1.89982 v 1.8998 h 1.89982 v -1.8998 1.8998 h 7.5989 v -1.8998 h 3.79964 v -1.8998 h 1.89982 v -1.8998 h -1.89982 v -3.7993 h -1.89982 v -3.7996 h -1.89982 v -3.7997 h 1.89982 v 1.8999 h 1.89982 v 3.7996 h 3.79964 v 1.8998 h 1.89982 v 1.8998 h 1.89982 v -1.8998 h 1.89944 v -1.8998 1.8998 -1.8998 h 1.89982 v -1.8998 h -1.89982 1.89982 -7.5989 v -1.8998 h -1.89982 v -1.8999 h -1.89982 1.89982 v -1.8998 1.8998 h -5.69946 v -1.8998 h 7.59928 v -1.8994 h 1.89982 v -5.6995 h -1.89982 13.29836 v -1.8998 h 1.8917 -1.89982 1.89982 v -1.8998 h 1.89982 v -5.6991 h 3.79964 l 1.89943,1.8998 h 3.79965 v 1.8994 -1.8994 1.8994 -1.8994 1.8994 -1.8994 h 1.89982 v 1.8994 h 1.89982 v -1.8994 h 9.4991 v 1.8994 h -1.89982 3.79964 v 1.8999 h -1.89982 v 1.8998 h 1.89982 v 1.8998 h 3.79926 v 1.8998 h 1.89982 v 3.7997 h -1.89982 5.69946 v 1.8994 h -1.89982 v 1.8998 h -3.79964 v 3.7997 h -1.89982 v 1.8998 h -3.79926 v 3.7996 h -3.79964 v 3.7993 h 1.89982 v 1.8998 h 1.89982 v 1.8998 h 1.89982 -3.79964 v 1.8998 h -1.89982 v 1.8999 -1.8999 1.8999 h -13.29875 v 1.8998 -1.8998 1.8998 h -1.89943 v 5.6994 h -3.79964 v 1.8995 h 1.89982 v 1.8998 -1.8998 1.8998 -1.8998 1.8998 h 1.89982 v 1.8998 h 3.79925 v 1.8998 h 1.89983 -1.89983 v 3.7997 h 1.89983 v 1.8998 h -3.79965 v 1.8994 -1.8994 1.8994 -1.8994 1.8994 -1.8994 h -1.89943 v 1.8994 h 1.89943 -1.89943 v 9.4991 h -1.89982 1.89982 -1.89982 v 1.8999 h -3.79964 v 1.9075 h -5.69908 v -1.8998 h -3.79964 v -1.8998 h -5.69946 v 1.8998 h -3.79926 v 1.8998 h -1.89982 v -5.6994 h 1.89982 -1.89982 v -1.8999 h -1.89982 v 5.6995 h -1.89982 1.89982 v 1.8998 h 1.89982 -1.89982 v 1.8998 h -1.89982 v 1.8999 h -1.89982 v -1.8999 l -1.89982,1.8999 h -3.79965 v 1.8998 h -1.89982 v 5.699 -5.699 1.8998 -1.8998 1.8998 h -3.79925 v 1.8998 h 1.89943 v 1.8994 h 1.89982 v 1.8999 h 1.89982 v 3.7996 h 1.89983 -1.89983 v 1.8998 -1.8998 3.7996 h 1.89983 v -1.8998 h 1.89982 v 1.8998 h 1.89982 v 3.7993 h -1.89982 v 1.8998 h -1.89982 v 1.8999 h -1.89983 v 1.8998 h -1.89982 v 1.8998 -1.8998 3.7996 h -1.89982 v 5.6991 h 1.89982 v 5.6994 h 1.89982 v 5.6995 h 1.89983 v 1.8998 h 1.89982 v 1.8998 -1.8998 1.8998 h -3.79965 v 1.8995 h -1.89982 v 3.7996 h -1.89982 1.89982 v 1.8999 h -1.89982 v -1.8999 h -1.89943 v 1.8999 h -3.79964 1.89982 -3.79964 v 1.8998 h -5.69947 v -1.8998 1.8998 h -1.89943 v -1.8998 h -1.89982 v 1.8998 h -3.79964 v -1.8998 h -1.89983 v 1.8998 h -3.79964 1.89982 -1.89982 1.89982 v 1.8998 -1.8998 h 1.89982 v 1.8998 h -1.89982 3.79965 v 1.8998 h -1.89983 v 1.8994 h -1.89982 v 3.7997 h -1.89982 v 7.5993 h 1.89982 v 1.8998 h 1.89982 v 5.6991 l -1.89982,1.8998 v 1.8998 h -1.89982 v 1.8998 h -1.89982 v 1.8999 h -1.89982 v 1.8998 h -1.89982 v 3.7992 h -1.89943 v 1.8998 h 1.89943 -1.89943 v 3.7997 h -1.89983 v 1.8998 h -3.79964 v 1.8998 h -3.79964 v 1.8995 h -1.89982 v 5.6994 h -1.89943 v 1.8999 h -1.89983 1.89983 -1.89983 v -1.8999 h -3.79964 v -1.8998 h -7.59116 1.89983 -1.89983 v -1.8998 h -1.89982 v -1.8998 h -1.89982 v -1.8995 1.8995 -1.8995 h -1.89982 v 1.8995 -1.8995 1.8995 h -1.89982 v -1.8995 1.8995 -1.8995 1.8995 h -1.89982 v -1.8995 1.8995 -1.8995 h -3.79926 v -1.8998 h -3.79964 v -1.8998 h 3.79964 v -1.8998 h 1.89983 v -3.7997 h 1.89943 v -3.7992 h 1.89982 v -1.8998 h -1.89982 v -5.6995 h 1.89982 v -1.8998 h 3.79964 v -1.8995 h 1.89982 v -1.8998 h 1.89982 v -1.8998 h 5.69947 v -1.8998 h 1.89982 v -3.7997 h 1.89943 v -1.8998 h 3.79964 v -5.6995 h 3.79965 v -3.7992 h 1.89982 v -3.7996 h -1.89982 v -1.8999 h 1.89982 v -3.7996 h 1.89982 v -1.8995 h 1.89943 v -1.8998 h -1.89943 v -1.8998 h -3.79964 v 1.8998 -1.8998 h -3.79965 v 1.8998 -1.8998 h -1.89982 v 1.8998 h -1.89982 v -1.8998 3.7996 -1.8998 h -1.89943 v 3.7993 h -1.89982 v 3.7996 h -1.89982 v 1.8999 h -3.79965 v -1.8999 1.8999 h -1.89982 v -1.8999 1.8999 h -1.89982 v 1.8998 h -1.89982 v 1.8998 h -1.89982 v 1.8998 h -1.89982 v -1.8998 h -1.89943 1.89943 v -3.7996 h -7.5989 v -1.8999 h -1.89982 v -1.8998 h -5.69907 v -1.8998 h -5.69947 v 1.8998 h -1.89982 v 1.8998 -1.8998 h -3.79964 v -1.8998 h -1.89982 v 1.8998 -1.8998 1.8998 h -3.79964 v -1.8998 1.8998 -1.8998 h 1.89982 v 1.8998 h 1.89982 v -1.8998 h -3.79964 v -1.8995 1.8995 h -1.89944 v -1.8995 h -1.89982 v 5.6991 h 1.89982 l -1.89982,1.8999 h 1.89982 -1.89982 v -1.8999 1.8999 h 1.89982 -1.89982 v 1.8998 h -3.79964 v 1.8998 h -3.79964 v 1.8998 h -1.89982 v 1.8994 h -1.89944 v 3.7997 h -1.89982 v 3.7996 h -1.89981 v 3.7997 h 3.79963 v -1.8999 1.8999 h 1.89944 v 3.7996 -1.8998 h 1.89982 v 1.8998 h 1.89982 v 3.7993 h -3.79964 v 3.7996 h -1.89944 v 1.8998 h -1.89982 v -3.7996 h -3.79963 v 1.8998 h -3.79965 v 3.7997 h -1.89943 v 1.8998 h -1.89982 1.89982 v 1.8998 h -1.89982 v -5.6995 h 1.89982 -1.89982 1.89982 v -3.7996 h 1.89943 v -1.8998 h 1.89982 v -5.6991 h -3.79925 v 3.7996 h -1.89982 v 3.7993 h -1.89982 v 1.8998 h -3.79964 v 1.8998 -1.8998 h -3.79965 v 1.8998 -1.8998 h -1.89982 v -1.8998 h -3.79964 v 1.8998 h -7.5989 v 1.8998 h 1.89983 v -1.8998 h 1.89982 -1.89982 v 1.8998 h -1.89983 v 1.8999 h -3.79964 v 1.8998 h -1.89982 v 1.8998 h -7.59116 5.69947 v -1.8998 h 1.89982 -3.79964 v 1.8998 h -1.89983 v -1.8998 1.8998 h -1.89982 v -1.8998 1.8998 h -1.89982 v 1.8994 h -5.69907 v 1.8998 h -3.79965 v 1.8999 h -3.79964 v 1.8998 h -3.79925 v 1.8998 h -1.89982 v 1.8998 h -1.89982 v 1.8995 H 577.526 v 1.8998 h -1.89982 v 5.6995 h -1.89982 v -5.6995 1.8998 h -1.89982 v 3.7997 -1.8999 5.6995 -3.7996 h 1.89982 v 3.7996 h -1.89982 v 9.4987 h -1.89943 v 7.5993 h -1.89982 1.89982 v 1.8998 -1.8998 h 1.89943 -1.89943 1.89943 v 1.8998 h 3.79964 v 3.7993 h 3.79965 v -1.8998 h 5.69907 v 1.8998 h 1.89982 v 3.7996 h -1.89982 v -1.8998 h -1.89943 v 1.8998 h -1.89982 v 1.8999 -1.8999 1.8999 h -1.89982 v 5.6994 H 577.526 v 1.8998 h -7.59889 v -5.6994 h -3.79964 v 3.7996 h 1.89982 v 1.8998 h -1.89982 v 3.7993 h 1.89982 v 1.8998 h 1.89982 v 1.8998 h -1.89982 v 1.8998 h 1.89982 v 1.8998 h 1.89943 v 1.8999 l 1.89982,1.8998 h 3.79964 v -1.8998 h 1.89983 v 1.8998 -7.5993 h 1.89982 v 1.8998 h 1.89982 v 1.8998 -1.8998 h 1.89943 -1.89943 v -1.8998 h -1.89982 1.89982 v -1.8998 h 3.79925 -1.89982 v 5.6994 h 1.89982 v 3.7997 h 1.89982 v -1.8998 h 1.89982 v 1.8998 h 1.89983 v 5.6991 -1.8998 1.8998 h -1.89983 v -1.8998 h -5.69946 v 5.6994 h 1.89982 -1.89982 v 1.8999 h -1.89943 v -1.8999 h -1.89982 v 1.8999 h -1.89982 v 3.7992 H 577.526 v 1.8998 h -1.89982 v 1.8998 -1.8998 1.8998 h -1.89982 v 1.8998 h -3.79925 v -1.8998 l -1.89982,-1.8998 h -1.89982 v -1.8998 h -1.89983 v -1.8994 H 560.428 v -1.8998 h -3.79964 v 1.8998 h -3.79964 v 1.8994 h -1.89944 l -1.89982,1.8998 v 1.8998 h -1.89982 v 1.8998 h -1.89982 v 1.8999 H 543.33 v 1.8998 h -1.89982 v 3.7996 h -1.89982 v 1.8999 h -1.89943 v 5.6991 h -1.89983 v 1.8998 h 1.89983 v -1.8998 1.8998 H 543.33 v 5.69941 h -1.89982 v 1.8999 -1.8999 1.8999 h -1.89982 v -1.8999 h -3.79926 v 1.8999 h -1.89982 v 1.8994 h -1.89982 v 5.6994 h 3.79964 v 1.8998 h -1.89982 v 1.8999 H 526.232 v -1.8999 1.8999 -1.8999 1.8999 -1.8999 h -3.79926 v 1.8999 l -1.89982,-1.8999 v 1.8999 -1.8999 1.8999 -1.8999 h -3.79964 v 1.8999 h -1.89982 v 3.7996 h -1.89982 v 1.8998 -1.8998 h -5.69946 1.89982 -1.89982 v 1.8998 h -1.89943 1.89943 -1.89943 1.89943 -5.69133 v 1.8999 -5.6995 l 5.69946,-7.5993 -9.49872,-11.39851 -3.79964,-11.3986 -3.79964,-1.8998 -1.89982,-5.6995 -3.79965,-1.8998 h -3.79925 v -3.7996 l -3.79964,-3.7992 -7.59929,1.8998 -3.79925,-5.6995 -3.79964,3.7997 v 9.4986 h -3.79965 l -3.79925,-1.8998 -7.59928,-1.8998 v -5.699 l -1.89982,-1.8999 -3.79965,-1.8998 -5.69907,3.7997 h -3.79964 l -5.69947,-1.8999 -7.59889,-3.7996 -5.69947,3.7996 -1.89982,7.5989 -3.79964,1.8998 -3.79925,1.8998 -1.89982,1.8999 v 3.7996 l -1.89209,1.8998 -17.09722,-1.8998 -7.59929,-1.8998 1.89982,-3.7997 -5.69907,-3.7996 h -3.79964 l -1.89983,-5.699 3.79965,-3.7997 -3.79965,-5.6995 1.89983,-3.7992 v -5.6995 l 1.89982,-1.8998 v -3.7992 l -1.89982,-5.6995 1.89982,-3.7996 v -5.6995 l 1.89982,-1.8998 9.49872,1.8998 5.69946,-1.8998 3.79925,-3.7993 -1.89982,-5.6995 -1.89943,-1.8998 h -1.89982 l -3.79964,-5.699 -5.69947,-5.6995 -1.89943,-1.8998 v -3.7997 l 3.79925,-3.7996 1.89982,-1.8995 v -3.7996 l -3.79964,-7.5989 -3.79925,-1.8998 v -3.7997 l -1.89982,-3.7996 -3.79965,-3.7993 -7.59928,-5.6994 -7.5989,-3.7997 -3.79964,-7.5993 -5.69907,-1.8994 h -3.79965 l -3.79964,-3.7996 -3.79964,-7.5993 -3.79925,-1.8995 h -5.69947 l -3.79964,-1.8998 -1.89982,-3.7996 -11.39854,-3.7997 h -9.48324 l -5.69908,-1.8998 h -3.79964 l -1.89982,1.8998 -5.69908,-1.8998 h -3.79964 l -7.5989,3.7997 -5.69946,-3.7997 -1.89982,3.7997 5.69946,5.6994 v 3.7993 l -3.79964,3.7996 1.89982,3.7997 -3.79964,1.8998 -1.89982,-5.6995 -1.89982,3.7997 h -1.89982 l -1.89982,-1.8998 h -1.89982 v 7.5988 h -1.89944 l -5.69946,1.8999 h -1.89982 l -7.5989,-3.7993 -5.69946,5.6991 -1.89982,3.7996 h -1.89982 l -1.89982,-1.8998 -1.89982,-1.8998 1.89982,-3.7997 -1.89982,-7.5988 h 3.79964 v -3.7997 l -1.89982,-5.6991 h 1.89982 l 1.89982,-3.7996 -1.89982,-5.6995 -3.79964,-3.7996 -3.79926,-1.8998 -1.89982,-3.7993 v -5.6994 l -5.69946,-1.8999 v -7.5989 h 3.79964 l 1.89982,-5.6994 v -1.8999 l -5.69946,-1.8994 -1.89982,-5.6994 h -1.89982 v -5.6995 h -5.69908 l -3.79152,-1.8998 -1.89982,-9.4988 -9.4991,-9.4987 h -11.39854 v -5.6994 l -3.79964,-3.7997 -7.5989,-1.8998 -1.89982,-7.5989 -1.89982,-5.6994 v -3.7997 l -3.79964,-3.7992 v -5.6995 l -1.89982,-3.7996 -5.69908,-5.6991 v -11.3989 l -3.79964,-5.6991 -1.89982,-5.6995 -3.79965,-1.8998 -5.69907,-7.5989 -1.89982,-3.7996 1.89982,-5.6995 3.79925,-3.7996 1.89982,-7.5989 1.89983,-5.6995 v -11.3985 l -5.69908,-7.5989 -1.89982,-7.5993 v -3.7997 l 3.79925,-1.8998 h 5.69947 l 3.79964,-3.7992 5.69907,-7.5993 3.79965,-1.8998 h 15.19818 l 5.69946,-1.8995 -3.79964,-5.6994 3.79964,-3.7997 3.79964,-9.4987 3.79926,1.8994 1.89982,5.6995 1.89982,1.8998 3.79964,1.8998 3.79964,-1.8998 h 1.89982 l 1.89982,5.6995 3.79926,-5.6995 h 3.79964 l 1.89982,-3.7996 -5.69946,-5.6991 -1.89982,-5.6994 -1.89944,-9.4988 -1.89982,-9.4987 -3.79964,-1.8998 h -3.79964 l -9.49872,-1.8998 -5.69946,-5.7072 1.89982,-5.6995 -1.89982,-5.6994 v -9.4988 l 5.69946,-1.8998 5.69908,3.7996 7.59928,-1.8998 1.89982,-5.6995 h 7.5989 l -1.89982,-5.699 5.69946,-1.8998 h 7.5989 l 5.69946,-3.7997 -5.69946,-3.7996 5.69946,-1.8998 1.89982,-1.8999 v -11.3985 l 1.89982,-5.6991 -1.89982,-5.6994 5.69908,-3.7997 1.89982,3.7997 9.4991,-1.8999 1.89982,1.8999 v 7.5988 l 3.79965,1.8999 3.79925,3.7996 h 11.39854 l 3.79964,3.7996 5.69946,-5.6994 1.89982,-1.8998 h 5.69946 l 3.79926,-3.7993 -11.39854,-11.3985 -1.89982,-3.7997 3.79964,-3.7996 h 3.79964 l 7.5989,-7.5993 v -7.5989 l 3.79964,1.8999 v -7.5993 h 1.89982 l 7.59116,1.8998 v -7.5989 l -3.79964,-3.7997 v -3.7996 l 1.89982,-3.7997 1.89982,-5.699 1.89944,-1.8998 v -3.7997 l 5.69946,-1.8998 h 3.79964 l 3.79964,5.6995 h 3.79964 l 1.89944,-5.6995 3.79964,-5.6991 -1.89982,-3.7996 -5.69908,-3.7993 h -5.69946 v -1.8998 l 1.89982,-3.7996 1.89982,-1.8999 -1.89982,-3.7996 -1.89982,-5.6991 1.89982,-3.7996 v -7.5993 l -1.89982,-5.6991 h -7.59928 l -3.79926,1.8998 -11.39892,-7.5992 -11.39854,-5.6995 1.89982,-7.5989 -3.79964,-1.8998 -3.79926,-5.6995 -1.89982,-7.5989 -1.89982,-1.8998 v -1.8998 l 1.89982,-3.7997 v -7.5989 l 7.5989,-3.7996 1.89982,-3.7997 -3.79964,-3.7992 v -3.7996 l 3.79964,-3.8074 -1.89982,-5.6991 -3.79926,-5.6995 -5.69946,1.8998 -3.79964,-5.6994 v -5.6991 l -1.89982,-5.6994 -5.69946,-1.8999 -1.89944,-5.6991 -3.79964,-1.8998 -1.89982,1.8998 -7.5989,-7.5992 3.79926,-7.5989 v -3.7997 l 1.89982,-3.7996 3.79964,-1.8998 1.89982,-5.6991 h 3.79926 l 5.69946,5.6991 1.89982,-3.7993 v -7.5993 l -3.79964,-7.5989 -3.79964,-1.8998 -1.89944,-3.7996 -3.79964,-1.8998 -3.79964,1.8998 -5.69908,-1.8998 1.89944,-5.6995 v -3.7993 l -3.79926,-3.7996 1.89982,-3.7993 v -3.7996 l 1.89944,-1.8998 h 5.69946 l 1.89982,-3.7993 5.69908,1.8998 3.79964,-5.6994 -1.89982,-5.6995 1.89982,-3.7992 5.69946,1.8998 3.79964,-5.6995 1.89982,-3.7992 7.5989,-3.7997 v -9.4987 l 7.59928,3.7993 5.69908,-1.8999 h 1.89982 l 3.79964,-5.699 3.79926,-1.8999 3.79964,-1.8998 v -5.6994 l -3.79964,-5.6991 -1.89944,-3.7997 v -5.6994 h 1.89944 l 7.59928,3.7996 13.29836,-3.7996 3.79965,3.7996 v 3.7993 h 3.79964 l 7.59889,-1.8998 3.79965,-1.8999 3.79964,-7.5989 v -3.7996 l -3.79964,-1.8998 -1.89982,-1.8999 1.89982,-1.8998 v -3.7992 l -1.89982,-5.6995 -1.89983,-3.7996 v -3.7993 l 3.79965,-3.7996 v -5.6991 l 1.89982,-5.6995 5.69946,-3.7996 5.69908,1.8998 1.89982,-3.7992 3.79964,-3.7997 v -3.7992 l -15.19818,-3.7997 -3.79964,-3.7992 -1.89982,-5.7072 3.79964,-5.6995 5.69946,3.7996 9.49872,-3.7996 5.69907,-5.6995 1.89982,-3.7992 3.79965,1.8998 3.79964,15.1982 5.69907,7.5993 9.49911,7.5989 11.39854,9.4987 h 11.3908 l 11.39854,-5.6991 7.59928,-7.5993 7.5989,-3.7992 5.69946,1.8998 5.69907,-5.6995 5.69947,-3.7996 3.79964,1.8998 9.49872,3.7996 h 17.09761 l 11.39854,-1.8998 7.59116,-3.7996 7.59928,-9.4987 7.5989,-7.5989 11.39853,-3.7997 5.69946,-3.7996 11.39893,3.7996 h 13.29797 l 9.49911,-1.8998 7.59889,-7.5993 5.69947,-3.7996 1.89982,-5.6991 h 9.49872 l 5.69946,-1.8998 3.79964,-5.6995 3.79152,-5.6991003 1.89982,-5.699409958787 5.69946,5.699409958787 7.5989,3.7993 h 7.5989 l 3.79964,-1.8998 3.79964,1.8998 h 7.5989 l 1.89982,1.8998003 v 5.6995 l 1.89982,5.6991 v 3.7996 l 1.89982,3.7996 3.79964,-1.8998 1.89982,5.6991 -1.89982,3.7996 -3.79964,5.6991 1.89982,7.5993 3.79964,3.7996 5.69907,1.8999 h 3.79964 l 5.69947,1.8998 7.59889,5.6991 v 5.6994 l 3.79965,3.7993 3.79964,7.5993 5.69946,-1.8999 3.79926,1.8999 5.69946,-1.8999 h 5.69907 l 7.59116,5.6991 3.79965,7.5993 1.89982,5.6995 v 3.7992 l -1.89982,3.7997 3.79964,1.8998 5.69946,1.8998 3.79925,5.6991 5.69947,-1.8998 1.89982,1.8998 -1.89982,7.5993 3.79964,7.5992 -1.89982,5.6991 -3.79964,1.8998 1.89982,5.6995 5.69946,3.7993 5.69908,7.5992 5.69946,3.7993 5.69946,-5.6991 9.49872,-1.8998 h 5.69908 l 1.89982,5.6991 h 3.79964 l 3.79964,-3.7993 3.79926,-1.8998 3.79964,3.7993 v 9.4991 l 5.69946,1.8998 h 9.49872 l 3.7919,5.6991 3.79926,3.7996 3.79964,1.8998 3.79964,1.8998 v 15.1982 l -1.89982,5.6995 -1.89982,5.6991 -1.89982,3.7996 3.79964,3.7993 h 5.69946 l 7.5989,-7.5989 7.59928,1.8998 3.79926,7.5989 v 3.7996 l -3.79926,1.8998 1.89982,3.7993 5.69908,3.7996 h 5.69946 l 5.69907,-1.8998 1.89983,1.8998 3.79964,1.8999 1.89982,3.7996 h -1.89982 v 1.8998 h 1.89982 v 1.8998 h 1.89982 v 5.6991 h -1.89982 3.79964 v 5.6995 h 1.89982 v 1.8998 l -1.89982,-1.8998 v 1.8998 -1.8998 1.8998 h 1.89982 v 1.8998 h 1.89982 v 5.6991 h -1.89982 1.89982 v 1.8998 h 1.89944 v 1.8999 h 1.89982 v 1.8998 h -1.89982 v 1.8998 h 1.89982 v 3.7996 h 1.89982 -1.89982 1.89982 v 3.7997 l -1.89982,1.8998 h -1.89982 l -1.89944,-1.8998 v 1.8998 h 1.89944 v 1.8998 h 3.79964 v 3.8074 h -1.89982 v -1.8998 1.8998 -1.8998 h -1.89982 v 1.8998 -1.8998 1.8998 -1.8998 1.8998 h -1.89944 1.89944 v 1.8998 h 1.89982 v -1.8998 3.7996 -1.8998 1.8998 h 1.89982 v 11.3986 -1.8999 3.7993 h -1.89982 1.89982 -1.89982 v 1.8998 -1.8998 h 3.79964 v 1.8998 h 1.89982 v 1.8999 h 1.89982 v 1.8998 h -3.79964 v 5.6994 h 1.89982 -1.89982 1.89982 v 1.8999 h -1.89982 v 1.8998 h 3.79964 v -1.8998 1.8998 h 1.89982 v 1.8998 h -1.89982 v 1.8998 h 1.89982 -1.89982 1.89982 v 5.6991 h 1.89944 l -1.89944,1.8998 v 1.8998 h -1.89982 v 1.8998 h 1.89982 v 1.8999 h 1.89944 v 3.7996 h 1.89982 v 5.6995 h -1.89982 v 1.8998 h 1.89982 v 7.5993 h 1.89982 -1.89982 v 3.7992 h 1.89982 v 3.7997 h 1.89982 v 1.8998 h 1.89982 v 3.7992 h 1.89982 v 1.8999 h 1.89982 v 3.7996 h 1.89982 v 1.8998 h -3.79964 v -1.8998 l -1.89982,1.8998 h -1.89982 v 1.8998 h 1.89982 v 3.7997 h 1.89982 v 1.8998 h -5.69946 v 1.8998 h 1.89982 v 5.6991 h -1.89982 v 1.8999 h -1.89982 v -3.7993 h -1.89982 v -1.8998 5.6991 h 1.89982 v 1.8998 h 1.89982 v 1.8998 h 1.89982 v 7.5993 h 1.89982 v -1.8998 9.4986 h -3.79964 v -1.8998 h -1.89982 v -1.8998 h -1.89982 v -1.8998 1.8998 -3.7996 h 1.89982 -1.89982 v -1.8999 h -1.89944 v -1.8998 h -1.89982 l 1.89982,-1.8998 h -1.89982 v -1.8998 h -1.89982 v -1.8998 1.8998 -1.8998 h -1.89982 v -1.8999 h -7.5989 1.89944 v -1.8998 h -1.89944 3.79926 l -1.89982,-1.8998 h -1.89944 v -1.8998 h -1.89982 v -3.7993 h -1.89982 v 1.8999 -1.8999 h 3.79964 -1.89982 v -3.7996 h 1.89982 v 1.8998 -1.8998 h -3.79964 v -1.8998 h -1.89982 1.89982 l -1.89982,-1.8998 v -5.6991 h -3.79964 v -3.7997 1.8998 h -1.89982 v 1.8999 -1.8999 1.8999 h -1.89982 v 5.6994 h -3.79965 v 1.8998 -1.8998 1.8998 h -1.89943 1.89943 v 1.8999 h -1.89943 1.89943 -1.89943 v 5.6991 h 1.89943 -1.89943 v 1.8998 h 1.89943 -1.89943 v 1.8998 h 1.89943 v 1.8998 h -1.89943 v 1.8999 h 1.89943 v 1.8998 h -1.89943 v 3.7996 h 1.89943 -1.89943 v 1.8998 h -1.89982 v 1.8999 -3.7997 h -1.89982 v -1.8998 h -1.89982 1.89982 -1.89982 1.89982 -1.89982 l 1.89982,-1.8998 h -1.89982 v -7.5989 h -1.89982 v -1.8999 h -1.89982 v -3.7996 h -1.89982 v -1.8998 h -1.89944 z"
     style="clip-rule:evenodd;fill:#000000;fill-rule:nonzero;stroke:none;stroke-width:3.95828px"
     id="path1326" />
</svg>
