<?xml version="1.0" encoding="UTF-8" standalone="no"?>
<svg
   xmlns:dc="http://purl.org/dc/elements/1.1/"
   xmlns:cc="http://creativecommons.org/ns#"
   xmlns:rdf="http://www.w3.org/1999/02/22-rdf-syntax-ns#"
   xmlns:svg="http://www.w3.org/2000/svg"
   xmlns="http://www.w3.org/2000/svg"
   xmlns:sodipodi="http://sodipodi.sourceforge.net/DTD/sodipodi-0.dtd"
   xmlns:inkscape="http://www.inkscape.org/namespaces/inkscape"
   version="1.0"
   width="1024pt"
   height="1024pt"
   viewBox="0 0 1024 1024"
   preserveAspectRatio="xMidYMid meet"
   id="svg2211"
   sodipodi:docname="vector.svg"
   inkscape:version="1.0.2-2 (e86c870879, 2021-01-15)">
  <defs
     id="defs2215" />
  <sodipodi:namedview
     pagecolor="#ffffff"
     bordercolor="#666666"
     borderopacity="1"
     objecttolerance="10"
     gridtolerance="10"
     guidetolerance="10"
     inkscape:pageopacity="0"
     inkscape:pageshadow="2"
     inkscape:window-width="1366"
     inkscape:window-height="697"
     id="namedview2213"
     showgrid="false"
     inkscape:zoom="0.1940918"
     inkscape:cx="1174.0128"
     inkscape:cy="760.26375"
     inkscape:window-x="-8"
     inkscape:window-y="-8"
     inkscape:window-maximized="1"
     inkscape:current-layer="svg2211"
     fit-margin-top="0"
     fit-margin-left="0"
     fit-margin-right="0"
     fit-margin-bottom="0"
     inkscape:document-rotation="0" />
  <metadata
     id="metadata2205">
Created by potrace 1.10, written by Peter Selinger 2001-2011
<rdf:RDF>
  <cc:Work
     rdf:about="">
    <dc:format>image/svg+xml</dc:format>
    <dc:type
       rdf:resource="http://purl.org/dc/dcmitype/StillImage" />
    <dc:title></dc:title>
  </cc:Work>
</rdf:RDF>
</metadata>
  <path
     d="m 911.05538,203.28422 v 15.05968 l 15.0597,7.52984 v 22.58799 l 7.5298,7.52984 15.0597,52.70735 7.5299,15.05968 15.0581,7.52984 -7.5298,15.05968 h -7.5299 l -7.5298,15.05815 22.5895,15.05968 v 15.05968 h -7.5298 l -7.5299,15.05814 7.5299,7.52984 -15.0597,52.70889 7.5298,15.05968 -15.0596,7.5283 -7.5299,-7.5283 -7.5298,15.05814 7.5298,15.05969 -7.5298,7.52984 7.5298,30.11782 h 15.0597 v 30.11936 h 22.5895 v 15.05815 h 7.5299 l 30.11782,30.11936 v 15.05968 l -7.5299,7.52984 h 7.5299 L 1024,670.12205 v 22.58952 l -7.5299,15.05968 -15.0597,15.05815 -7.52982,22.58952 v 22.58952 h -30.1178 l -15.0597,-15.05968 h -22.5895 v 7.52984 h -22.588 l -15.0597,-7.52984 -15.0581,22.58952 h -22.5896 l -22.5879,-7.52984 -7.5299,7.52984 -7.5298,15.05815 -15.0597,15.05966 -45.1775,-15.05966 -7.52984,22.5895 -15.05968,22.58952 -30.11783,7.52831 -15.05968,7.52984 -7.52984,15.05968 -7.52984,22.58952 -15.05968,7.52831 v -22.58799 l -15.05815,7.52984 v -15.05968 l -15.05968,15.05968 -15.05968,-15.05968 -15.05815,22.58952 -15.05968,-7.52984 -22.58798,30.11783 -7.52984,-7.52984 v 15.05968 l -15.05968,7.52984 v 22.58947 l -7.52985,7.5299 -22.58952,-7.5299 v -15.05963 l -15.05814,-7.52984 v -15.05968 l -15.05968,-15.05968 v 7.52984 l 7.52984,15.05968 v 7.52984 h -15.05815 v -7.52984 h -7.52984 v 7.52984 l -7.52984,7.52984 -7.52984,-7.52984 v -30.11936 h -7.52984 l -15.05968,-7.52831 -15.05968,7.52831 -7.52984,-15.05815 -15.05968,7.52984 h -22.55732 v -7.52984 l -30.11783,-15.05968 -15.05968,7.52984 -7.52984,-7.52984 h -15.05815 l -7.52984,22.58952 -7.52984,7.52831 -7.52984,-15.05815 -15.05968,7.52984 v -7.52984 h -7.52984 l -7.52984,15.05815 h -15.05968 l -7.52984,-7.52831 -22.58952,22.58799 h -15.05815 l -7.52984,7.52984 H 158.122 l -15.05815,15.05968 v 7.52984 l -15.05968,15.05969 -7.52984,-7.5299 -15.05968,15.0597 -15.058135,-15.0597 7.52984,-7.52979 -7.52984,-15.05968 h 7.52984 l -7.52984,-15.05968 h -15.05969 l -22.58798,-30.11783 v -15.05968 l 7.52984,-15.05968 -7.52984,-15.05815 h -15.05968 l -7.52984,-15.05968 H 7.5298247 L -1.5258789e-5,805.65609 30.119325,783.06812 v -37.6492 l 7.52984,-15.05968 v -30.11783 l 7.52984,-22.58952 h -7.52984 v -7.52984 l 22.58798,-7.52984 v -15.05815 l 22.58952,-7.52984 7.52985,-7.52984 v -22.58952 l 22.587975,22.58952 h 22.58952 l 7.52984,-15.05968 7.52984,-22.58952 7.52984,7.52984 7.52985,-7.52984 v -15.05815 l 7.52984,-7.52984 v -7.52984 l 22.58952,-15.05968 7.52984,15.05968 h 30.11782 l 22.58953,-30.11936 -15.05969,-15.05814 h -15.05968 l -15.05814,-7.52984 -7.52984,-22.58953 7.52984,-22.58798 7.52984,-15.05968 V 429.1733 l 15.05814,-7.52985 7.52984,-15.05968 15.05969,-7.5283 15.05814,-15.05968 v -45.17751 l 15.05968,-22.58952 7.52984,-7.52984 7.52984,-30.11783 -7.52984,-7.52984 -7.52984,-22.58952 v -15.05968 l 15.05968,-7.52831 15.05815,7.52831 -7.52984,-15.05815 15.05968,-7.52984 15.05815,30.11783 7.52984,-22.58799 -22.58799,-22.58952 15.05815,-7.52984 h 7.52984 l 15.05968,7.52984 7.52984,15.05968 h 15.05815 l 15.05968,-7.52984 h 7.52984 l 7.52984,15.05968 h 7.52984 l 7.52984,-7.52984 7.52984,-30.11936 7.52984,-15.05968 -7.52984,-7.52984 v -7.52831 l -7.52984,-7.52984 v -15.05968 l 15.05968,-7.52984 -7.52984,-15.05968 30.11936,7.52984 h 7.52984 l 7.52984,-22.587985 22.58799,-7.52984 7.52984,15.05968 h 15.05968 l 7.52984,7.528305 h 15.05815 v -7.528305 l 7.52984,-7.52984 v -7.52984 h 15.05968 v 7.52984 h 7.52984 l 15.05968,-7.52984 -7.52984,-7.52984 22.58799,-15.05968 h 22.58952 l 15.05814,37.6492 h -7.52984 v 15.058145 l 15.05969,-7.52984 v -7.528305 h 7.52984 l 7.52984,7.528305 h 7.52984 V 90.339685 l 7.52984,-15.05968 h 7.52984 l -7.52984,15.05968 7.52984,-7.52984 h 7.52984 l 7.52984,7.52984 22.58798,45.177505 15.05969,30.11783 -0.0323,7.52984 v -7.52984 l 22.58952,22.58952 15.05815,-15.05968 7.52984,7.52984 7.52982,7.52984 v 7.52984 l -7.52982,7.52984 7.52982,15.05968 15.0597,7.52984 v 22.58799 h 15.0596 l 7.5299,-15.05968 h 30.1193 l 15.0582,-7.52831 7.5298,-15.05968 v -15.05968 h 22.5896 z"
     style="clip-rule:evenodd;fill:#000000;fill-rule:nonzero;stroke:none;stroke-width:15.6884px"
     id="path1380" />
</svg>
