<?xml version="1.0" encoding="UTF-8" standalone="no"?>
<svg
   xmlns:dc="http://purl.org/dc/elements/1.1/"
   xmlns:cc="http://creativecommons.org/ns#"
   xmlns:rdf="http://www.w3.org/1999/02/22-rdf-syntax-ns#"
   xmlns:svg="http://www.w3.org/2000/svg"
   xmlns="http://www.w3.org/2000/svg"
   xmlns:sodipodi="http://sodipodi.sourceforge.net/DTD/sodipodi-0.dtd"
   xmlns:inkscape="http://www.inkscape.org/namespaces/inkscape"
   version="1.0"
   width="1024pt"
   height="1024pt"
   viewBox="0 0 1024 1024"
   preserveAspectRatio="xMidYMid meet"
   id="svg2211"
   sodipodi:docname="vector.svg"
   inkscape:version="1.0.2-2 (e86c870879, 2021-01-15)">
  <defs
     id="defs2215" />
  <sodipodi:namedview
     pagecolor="#ffffff"
     bordercolor="#666666"
     borderopacity="1"
     objecttolerance="10"
     gridtolerance="10"
     guidetolerance="10"
     inkscape:pageopacity="0"
     inkscape:pageshadow="2"
     inkscape:window-width="1366"
     inkscape:window-height="697"
     id="namedview2213"
     showgrid="false"
     inkscape:zoom="0.1940918"
     inkscape:cx="960.19648"
     inkscape:cy="760.26375"
     inkscape:window-x="-8"
     inkscape:window-y="-8"
     inkscape:window-maximized="1"
     inkscape:current-layer="svg2211"
     fit-margin-top="0"
     fit-margin-left="0"
     fit-margin-right="0"
     fit-margin-bottom="0"
     inkscape:document-rotation="0" />
  <metadata
     id="metadata2205">
Created by potrace 1.10, written by Peter Selinger 2001-2011
<rdf:RDF>
  <cc:Work
     rdf:about="">
    <dc:format>image/svg+xml</dc:format>
    <dc:type
       rdf:resource="http://purl.org/dc/dcmitype/StillImage" />
    <dc:title></dc:title>
  </cc:Work>
</rdf:RDF>
</metadata>
  <path
     d="m 332.64,172.81309 h 26.09058 l 13.04596,-19.5676 h 26.09058 l 6.52298,-13.04596 6.52298,-6.52298 26.09191,19.56894 19.56761,-13.04596 h 19.56894 l 13.04595,-6.52298 19.56761,6.52298 13.04595,-6.52298 32.6149,32.61489 19.54103,26.09059 13.04463,19.56893 6.52298,6.52298 52.1825,26.09059 91.31904,-6.52298 78.27173,-19.56761 26.0906,-13.04596 6.523,-19.56893 v -19.56761 l 6.5229,-13.04595 13.046,-6.52298 h 19.5676 l 6.523,13.04595 13.0459,-6.52297 13.0181,13.04595 13.046,6.52165 6.5229,-13.04463 13.046,-6.52297 13.0446,6.52297 13.046,-19.56893 h 19.5689 l 13.04474,-6.52298 6.5229,6.52298 6.523,19.56893 v 19.56761 l -19.5689,26.09191 -13.04474,13.04596 -26.0919,-6.52298 -19.5676,6.52298 -13.0459,13.04596 -6.523,19.5676 -6.523,13.04596 -6.523,13.04596 v 6.52165 h -6.5216 v 6.52297 l -6.523,6.52298 -6.523,6.52298 -6.523,13.04596 h -6.5229 l -6.523,6.52165 h -6.523 v 6.52298 h -6.523 v 13.04595 l 6.523,6.52298 -13.046,13.04596 h -6.5229 v 6.52298 h -6.5217 l 6.5217,6.52297 -6.5217,6.52298 6.5217,6.52298 v 13.04463 h -19.5676 v 13.04596 l -6.523,6.52297 -6.523,6.52298 h -6.523 v 19.56761 h -6.5216 l -6.523,6.52298 -6.52298,6.52298 v 19.56891 l -6.52298,6.52298 h -39.13785 v 6.52298 h -6.52165 v 6.52165 h -13.04596 l -6.52298,6.52298 h -13.04595 v 6.52298 l -6.52298,13.04595 -6.52165,6.52298 -6.52298,6.52298 v 19.56761 l -6.52298,6.52297 h -6.52298 v 6.52298 h -6.52297 l -6.52298,6.52298 v 26.09059 l -6.52298,6.52297 h -13.04463 l -13.04595,6.52298 h -6.52298 v 13.04596 l 6.52298,6.52298 v 45.65952 l 6.52297,6.52298 v 6.52297 l 6.52298,6.52165 v 6.52298 l -6.52298,6.52298 h -6.52297 l -6.52298,6.52298 h -39.08208 l -13.04595,13.04596 v 13.04462 h -6.52298 v 6.52298 h -13.04596 v 6.52298 H 541.366 l -6.52297,6.52298 h -6.52298 v 6.52298 h -19.56761 v 6.52297 h -6.52298 l 6.52298,6.52298 v 6.52298 l -6.52298,6.52298 h -19.56893 l -6.52165,6.52298 -6.52298,6.52165 h -39.13654 v 19.56893 l -6.52298,6.52298 h -13.04596 l -26.09191,-13.04596 h -13.04596 l -13.04462,13.04596 v 6.52298 h -19.56894 l -6.52298,6.52165 -6.52298,6.52298 -6.52165,6.52298 v 6.52297 l -6.52297,6.52298 -6.52298,6.52298 h -6.52298 l -6.52298,6.52298 h -32.61489 l -6.52165,-26.09191 -6.52298,-13.04596 h -6.49641 l -26.09058,-26.09059 h -6.52298 l -6.52298,-6.52297 h -13.04463 l -6.52297,-6.52298 h -13.04596 l -6.52298,-6.52165 H 150.0245 v -6.52298 l -6.52297,-6.52298 h -6.52298 v -32.61489 l 6.52298,-6.52298 v -19.5676 h -6.52298 v -13.04596 h 6.52298 v -26.09059 l -13.04596,-13.04595 h -13.04463 v -6.52298 l -6.52296,-6.52298 -6.52298,-6.52298 -6.52298,-6.52298 h 6.52298 v -13.04462 l -6.52298,-6.52298 h -6.52298 l -6.52297,6.52298 h -6.52165 v 6.52297 l -6.52298,6.52165 -6.52298,-6.52165 -6.52298,-6.52297 v -6.52298 l -6.52298,-6.52298 v -6.52298 l -6.52298,-6.52298 H 26.09059 V 570.70545 L 19.56761,557.6595 v -13.04596 l 6.52298,-6.52165 V 511.99998 H 13.04596 L 6.5229797,518.52295 9.7412115e-6,525.04593 V 505.477 L 13.04596,485.90806 32.61357,459.8175 45.65952,446.77154 65.22846,440.24856 71.75144,420.68095 65.22846,407.635 v -19.56761 l 6.52298,-19.56893 -6.52298,-13.04596 6.52298,-19.56894 13.04463,-19.5676 H 97.84202 L 123.93392,303.27 h 26.09058 l 6.52298,-26.09058 13.04596,-6.52298 6.52298,-13.04596 13.04595,-26.09191 13.04463,-6.52298 h 13.04596 l 19.56893,13.04596 13.04463,-13.04596 -13.04463,-26.09058 6.52165,-13.04596 -6.52165,-26.09059 19.56761,-19.56893 13.04596,-6.52298 19.5676,6.52298 h 32.61489 l 13.04596,13.04596 v 19.5676 z"
     style="clip-rule:evenodd;fill:#000000;fill-rule:nonzero;stroke:none;stroke-width:13.5906px"
     id="path1553" />
</svg>
