<?xml version="1.0" encoding="UTF-8" standalone="no"?>
<svg
   xmlns:dc="http://purl.org/dc/elements/1.1/"
   xmlns:cc="http://creativecommons.org/ns#"
   xmlns:rdf="http://www.w3.org/1999/02/22-rdf-syntax-ns#"
   xmlns:svg="http://www.w3.org/2000/svg"
   xmlns="http://www.w3.org/2000/svg"
   xmlns:sodipodi="http://sodipodi.sourceforge.net/DTD/sodipodi-0.dtd"
   xmlns:inkscape="http://www.inkscape.org/namespaces/inkscape"
   version="1.0"
   width="1024pt"
   height="1024pt"
   viewBox="0 0 1024 1024"
   preserveAspectRatio="xMidYMid meet"
   id="svg2211"
   sodipodi:docname="vector.svg"
   inkscape:version="1.0.2-2 (e86c870879, 2021-01-15)">
  <defs
     id="defs2215" />
  <sodipodi:namedview
     pagecolor="#ffffff"
     bordercolor="#666666"
     borderopacity="1"
     objecttolerance="10"
     gridtolerance="10"
     guidetolerance="10"
     inkscape:pageopacity="0"
     inkscape:pageshadow="2"
     inkscape:window-width="1366"
     inkscape:window-height="697"
     id="namedview2213"
     showgrid="false"
     inkscape:zoom="0.1940918"
     inkscape:cx="1266.7524"
     inkscape:cy="760.26375"
     inkscape:window-x="-8"
     inkscape:window-y="-8"
     inkscape:window-maximized="1"
     inkscape:current-layer="svg2211"
     fit-margin-top="0"
     fit-margin-left="0"
     fit-margin-right="0"
     fit-margin-bottom="0" />
  <metadata
     id="metadata2205">
Created by potrace 1.10, written by Peter Selinger 2001-2011
<rdf:RDF>
  <cc:Work
     rdf:about="">
    <dc:format>image/svg+xml</dc:format>
    <dc:type
       rdf:resource="http://purl.org/dc/dcmitype/StillImage" />
    <dc:title></dc:title>
  </cc:Work>
</rdf:RDF>
</metadata>
  <path
     d="m 739.26883,146.93557 -32.1428,18.36694 -13.7563,9.18394 4.592,4.59197 v 4.59197 l 4.5919,4.59104 v 4.59197 l 4.592,13.77591 4.592,9.18394 v 4.59197 l 4.5919,4.59197 v 9.18394 l 13.776,13.77498 v 4.59197 h -4.592 v 36.73482 l 4.592,4.59197 v 9.18395 h -4.592 l -4.592,4.59196 v 4.59104 h -9.1839 v 4.59197 l 4.5919,18.36788 h 4.592 v 4.59197 h -4.592 l -4.5919,-4.59197 h -18.3679 l -4.592,-4.59197 h -9.1829 v 18.36695 l -4.592,13.77591 v 9.18394 l -4.592,4.59104 v 9.18394 l -4.5919,-4.59198 h -4.592 v 27.55183 l 4.592,13.77497 v 9.18395 l 4.5919,4.59197 v 4.59196 l 13.775,-9.18393 9.1839,-4.59198 v -4.59197 l 4.592,-4.59103 4.5919,4.59103 v 4.59197 l 4.592,4.59198 v 4.59197 l 4.592,9.18393 v 4.59196 l 9.1839,13.77498 v 4.59197 h 4.592 l 18.367,18.36788 9.1839,4.59197 4.592,4.59197 4.5919,4.59104 h 4.5921 l 4.5919,4.59197 v 22.95985 h 4.592 v 13.77498 l -4.592,4.59197 v 13.7759 l -4.5919,9.18302 v 9.18393 l -4.5921,4.59196 v 18.36786 l -4.5919,9.1831 v 4.5919 l 4.5919,9.184 4.5921,9.1839 13.7748,13.7749 h 4.592 l -9.1839,13.7759 -4.592,9.184 -4.5919,4.5919 -4.592,13.7751 -4.592,9.1839 -9.1829,27.5508 -4.592,9.184 -4.592,13.775 v 13.7759 l -4.5919,9.184 v 45.9197 l -4.592,4.592 v 9.1839 l -4.592,4.592 -4.592,4.5909 h -18.3678 l -13.7751,-9.1829 h -4.5919 v -4.592 l -4.592,-4.5919 v -32.143 l -4.592,-4.5919 h -4.592 v -4.592 l -9.1839,4.592 h -4.592 v -4.592 l -4.5919,4.592 h -4.592 v 4.5919 h -4.592 l -4.592,4.5911 v 4.592 l 4.592,4.592 v 4.5919 h -4.592 v 9.184 h 4.592 v 4.592 l 4.592,4.5919 h 4.592 l -4.592,4.592 v 9.1829 l 4.592,4.592 v 9.184 h 4.5919 v 4.5919 l -4.5919,4.592 v 13.775 h 4.5919 v 13.776 l 4.592,4.5919 v 4.592 l 4.592,4.5919 v 18.3669 h 4.5919 v 4.592 l 4.592,4.592 v 4.5919 l 4.592,4.592 -4.592,4.592 v 18.367 l -4.592,4.592 h -9.1839 l -4.592,9.1839 -9.1829,4.591 -18.3679,4.592 h -9.1831 v 4.5919 l -4.5919,4.592 v 4.59204 h -18.3679 v 4.5919 -9.18394 h -4.592 l -9.1839,4.59204 -4.592,-4.59204 v -4.592 l -4.592,-4.5919 h -4.592 v 9.1839 l -4.5919,9.18394 -4.592,4.592 -4.592,4.5919 h -4.5919 l 4.5919,-4.5919 v -18.36794 l 4.592,-13.7749 v -13.7759 l 4.592,-4.592 4.5919,-9.1839 v -9.1831 h -4.5919 v 4.592 h -4.592 v 9.183 l -4.592,18.3679 v 13.775 h -4.5919 l -4.592,4.5919 -4.5919,4.592 v 22.97854 l -4.5921,4.592 h -4.5919 l -4.592,-4.592 v -55.10074 h -9.1829 v 18.3679 h -4.592 l -4.592,-9.184 h -13.7759 v 4.592 l -4.5919,9.1839 h -4.592 l -4.592,-9.1839 v -9.184 h -4.592 l -13.775,4.592 -13.7759,9.184 -9.1642,4.5919 -9.184,4.592 h -4.5919 l -9.184,-9.1839 v -13.776 l -4.592,-4.5919 -4.5919,-9.184 -9.1831,-4.5919 h -32.1428 l -4.592,-4.5911 v -4.592 l 4.592,-4.592 4.592,-4.5919 v -36.7348 h -9.184 l -4.5919,-4.592 h -4.592 l -4.592,4.592 -9.1839,4.5919 v 18.3669 l 4.5919,9.1839 -4.5919,9.184 h -9.1831 v -18.3679 4.592 l -4.592,4.5919 v 13.776 l -4.5919,4.592 v 4.5911 h -9.184 v -9.1831 h -4.5919 v -22.9599 l 9.1839,-9.1829 9.1831,4.592 h 4.5919 l 4.592,-4.592 -9.1831,-4.592 -4.5919,-13.7759 -9.184,-13.7759 -18.3668,-9.1831 h -9.184 l -32.1429,-32.1427 -13.7759,-9.184 22.9598,-4.592 18.367,-4.592 18.3679,-9.183 22.9589,-13.7759 9.1839,-9.1839 13.775,-4.5921 18.3679,-4.5919 9.184,-4.592 4.5919,-13.7749 -13.7759,-13.7759 -18.3679,-4.592 -9.183,-4.5919 -4.592,-4.5911 v -9.184 l 4.592,-9.1839 9.183,-4.592 4.592,-9.1839 v -13.775 l -4.592,-9.1839 -9.183,-4.592 -4.592,-13.7758 -4.592,-18.3671 4.592,-4.592 h 27.551 l 13.7759,4.592 13.7749,9.184 13.7759,13.775 4.592,-9.1831 13.775,-13.7759 18.3679,-4.592 13.7759,4.592 9.183,4.592 h 9.1839 l 4.5919,-4.592 4.592,-4.592 9.1831,-4.5919 v -13.775 l 9.1839,-22.9598 v -9.18395 l -9.1839,-4.59197 -4.592,-9.18302 4.592,-22.95982 4.5919,-9.18301 -9.183,-13.77591 13.775,-55.10084 9.184,-45.93839 9.1829,-27.55183 9.184,-4.59197 22.9598,-4.59103 13.775,4.59103 9.184,4.59197 h 9.1829 l 4.592,-4.59197 v -9.183 l -4.592,-4.59197 -4.5919,-4.59197 -4.592,-4.59197 h -13.7749 l -36.7349,4.59197 -13.7759,4.59197 -9.184,-4.59197 -9.1829,-36.73483 v -13.77591 l 4.5919,-13.77498 -4.5919,-4.59197 v -27.55089 l 4.5919,-13.77591 v -13.77497 l 4.592,-18.36789 v -22.95984 l 4.592,-13.77498 h 13.7749 l 9.184,-9.18394 4.5919,-9.18394 -9.1839,-18.36695 h -9.1829 l -9.184,-4.59197 v -41.32493 l -4.592,-18.367875 v -36.73483 l -4.592,-9.18394 -4.5919,-9.18394 v -13.77497 l 4.5919,-4.59197 13.776,-9.1839403 18.3669,-4.59197 h 22.9598 l 4.592,9.1839403 v 13.77591 l 4.5919,4.59197 h 9.184 l 4.592,-4.59197 v -4.59197 l -4.592,-4.59197 v -4.59197 l -4.592,-4.5919703 V 4.7412111e-6 h 4.592 L 573.99823,4.5919747 l 13.7759,13.7759103 13.7749,4.59197 4.592,13.77497 22.9598,4.59197 h 18.367 l 4.592,4.59197 h 13.7759 l 13.7562,-4.59197 18.367,-4.59197 h 18.3679 l 9.1839,4.59197 13.7749,18.36788 9.184,27.55089 v 9.18394 l 4.5919,13.775905 v 27.55089 l -4.5919,4.59103 h -4.592 l -4.592,4.59198 z"
     style="clip-rule:evenodd;fill:#000000;fill-rule:nonzero;stroke:none;stroke-width:9.56738px"
     id="path1290" />
</svg>
