<?xml version="1.0" encoding="UTF-8" standalone="no"?>
<svg
   xmlns:dc="http://purl.org/dc/elements/1.1/"
   xmlns:cc="http://creativecommons.org/ns#"
   xmlns:rdf="http://www.w3.org/1999/02/22-rdf-syntax-ns#"
   xmlns:svg="http://www.w3.org/2000/svg"
   xmlns="http://www.w3.org/2000/svg"
   xmlns:sodipodi="http://sodipodi.sourceforge.net/DTD/sodipodi-0.dtd"
   xmlns:inkscape="http://www.inkscape.org/namespaces/inkscape"
   version="1.0"
   width="1024pt"
   height="1024pt"
   viewBox="0 0 1024 1024"
   preserveAspectRatio="xMidYMid meet"
   id="svg2211"
   sodipodi:docname="vector.svg"
   inkscape:version="1.0.2-2 (e86c870879, 2021-01-15)">
  <defs
     id="defs2215" />
  <sodipodi:namedview
     pagecolor="#ffffff"
     bordercolor="#666666"
     borderopacity="1"
     objecttolerance="10"
     gridtolerance="10"
     guidetolerance="10"
     inkscape:pageopacity="0"
     inkscape:pageshadow="2"
     inkscape:window-width="1366"
     inkscape:window-height="697"
     id="namedview2213"
     showgrid="false"
     inkscape:zoom="0.1940918"
     inkscape:cx="1266.7524"
     inkscape:cy="760.26375"
     inkscape:window-x="-8"
     inkscape:window-y="-8"
     inkscape:window-maximized="1"
     inkscape:current-layer="svg2211"
     fit-margin-top="0"
     fit-margin-left="0"
     fit-margin-right="0"
     fit-margin-bottom="0" />
  <metadata
     id="metadata2205">
Created by potrace 1.10, written by Peter Selinger 2001-2011
<rdf:RDF>
  <cc:Work
     rdf:about="">
    <dc:format>image/svg+xml</dc:format>
    <dc:type
       rdf:resource="http://purl.org/dc/dcmitype/StillImage" />
    <dc:title></dc:title>
  </cc:Work>
</rdf:RDF>
</metadata>
  <path
     d="m 514.62803,2.6217797 v 3.94351 l 2.629,1.3145 V 10.5088 l -1.3145,1.31451 2.629,6.57225 1.3145,2.62901 6.5723,1.31424 2.629,2.62901 -1.3145,6.57225 2.629,1.3145 v 2.62901 l -2.629,3.94352 h -2.629 l -3.9433,1.3145 h -3.9435 l -2.629,1.31451 1.3145,3.94324 -2.629,5.25802 -1.3142,2.62874 -1.3145,3.94351 2.6287,2.62901 3.9435,-1.3145 3.9435,-2.62901 5.2578,-1.31451 5.258,2.62901 3.9433,1.31451 h 2.629 l 3.9435,-1.31451 2.6287,2.62901 1.3145,3.94351 3.9436,2.62874 1.3145,2.62901 3.9378,-1.3145 1.3145,6.57225 2.629,6.57252 2.6288,9.20127 v 7.88676 l 2.629,3.94351 3.9435,2.62901 2.629,2.62874 v 1.3145 l -3.9435,3.94352 -1.3145,2.629 -1.3145,3.94325 v 2.62901 l -2.629,2.62901 1.3145,2.62901 -2.6287,2.62874 1.3142,6.57252 1.3145,2.62874 3.9435,2.62901 1.3145,1.3145 1.3142,-2.629 1.3146,-1.31451 3.9435,1.31451 3.9435,-1.31451 2.629,-1.3145 2.6287,1.3145 -1.3142,2.62901 2.6288,1.3145 1.3145,3.94887 h -1.3145 v 2.62901 l 1.3145,2.62901 2.629,3.94325 -1.3145,2.629 -1.3145,2.62901 1.3145,5.25775 -2.629,1.31451 -3.9433,2.62901 -2.629,3.94351 -1.3145,3.94324 v 5.25802 l 2.629,7.88676 5.2578,5.25775 2.629,3.94351 2.629,2.62901 v 5.25775 l 1.3142,3.94351 v 7.88676 l 1.3145,2.62901 2.629,1.31451 3.9435,-2.62901 2.629,1.3145 1.3145,1.31451 1.3143,5.25801 5.258,2.62874 2.629,-1.3145 3.9432,-1.31424 h 2.629 l 1.3145,2.62874 v 11.83001 l -2.629,3.94324 -2.629,5.25802 -1.3145,3.94325 2.629,2.62901 -1.3145,5.25801 -6.5722,2.62901 v 2.62874 l 2.629,1.31451 v 2.62901 l -2.629,2.62901 v 2.62874 l -3.9435,3.94351 v 1.3145 l 1.3145,3.94325 -2.6288,2.62901 -1.3145,2.62901 v 3.94351 l -1.3145,2.62901 -1.3145,2.62874 v 9.20126 l 2.629,6.57253 v 1.3145 l -1.3145,1.31986 -1.3145,3.94351 v 5.25775 l -2.629,6.57225 -2.629,3.94352 v 3.94351 l 2.629,2.62874 -1.3145,5.25802 -3.9435,5.25802 -1.3142,3.94324 -1.3145,3.94351 2.6287,1.31451 -1.3142,2.62874 -1.3145,3.94351 3.9432,2.62901 2.629,-1.3145 2.629,1.3145 1.3145,5.25775 2.629,1.31451 2.6288,3.94351 1.3145,3.94325 -1.3145,1.3145 2.629,1.3145 3.9435,-2.629 2.6287,3.94351 v 2.62901 h 1.3145 l 7.8871,-2.62901 h 3.9379 l 2.629,1.3145 3.9432,-2.62901 2.629,-1.3145 1.3145,-1.3145 3.9433,-1.31424 2.629,-3.94351 1.3145,-5.25775 v -3.94352 l 2.629,-3.94351 2.629,-1.31451 h 5.2577 l 2.6291,1.31451 3.9432,-2.62901 2.629,2.62901 h 3.9435 l 1.3145,-3.94351 3.9436,-2.62875 h 2.6287 l 2.629,1.31451 1.3145,1.31424 2.629,1.3145 2.6288,-2.62874 1.3145,-2.62901 6.5722,-2.62901 2.6237,-2.62901 1.3145,-1.31423 2.629,-3.94352 v -2.62901 l 3.9432,-7.88675 1.3145,2.62874 3.9435,2.62901 v 3.94351 l -1.3145,3.94351 1.3145,2.62874 3.9433,-3.94324 3.9435,1.3145 3.9435,-2.62901 1.3145,6.57226 -3.9435,2.62901 -1.3145,2.629 -2.629,2.62875 1.3145,3.94351 1.3145,3.94351 -1.3145,2.62901 1.3145,3.94325 2.629,3.94351 v 3.94325 l 2.629,-1.31424 2.6288,-1.31451 -1.3145,-5.25801 -1.3143,-5.25775 v -3.94352 l 2.6288,-2.62901 v 3.94352 l 2.629,1.3145 2.629,1.31451 1.3145,-2.62901 v -3.94352 l 2.6287,-1.3145 v -2.62874 l 1.3145,-1.31451 h 2.629 l 2.6288,-2.629 h 1.3145 l 2.629,-1.31451 3.9435,-1.3145 2.629,-2.62874 1.3145,-2.62901 2.6287,-2.62901 v -3.94351 l -2.6287,-3.94325 -1.3145,-3.94351 2.629,-2.62901 1.3142,-2.62874 1.3146,-6.57252 2.629,-5.25775 2.629,1.3145 1.3142,-2.62901 v -2.62901 l 1.3145,-2.629 3.9382,-1.31451 -1.3145,-2.62874 1.3145,-2.62901 2.629,1.31451 2.6287,-2.62901 v -3.94325 l 1.3145,-5.25802 3.9435,-3.94351 2.6288,-3.94351 3.9435,-1.31424 v -3.94351 l -1.3145,-1.31451 -1.3145,-2.62874 1.3145,-5.25802 2.629,-5.25775 3.9432,-1.3145 h 3.9436 l 2.629,-2.62901 1.3145,-5.25802 v -7.88675 l 2.629,-5.25775 v -3.94352 l 3.9432,1.31451 3.9436,-1.31451 7.8867,-7.88676 h 3.9435 v 1.31424 h 5.2578 v 3.94351 l 3.9435,-1.3145 2.629,-1.31451 3.9432,1.31451 1.3145,2.62901 3.9379,-1.31451 1.3145,2.62901 7.8868,-2.62901 2.629,2.62901 2.629,1.31451 h 3.9433 l 1.3145,1.3145 v 2.62901 l 2.629,1.31424 h 3.9435 l 2.629,1.3145 h 1.3145 l 2.6287,2.62901 1.3145,3.94351 v 2.62874 l 2.629,1.31451 2.629,-2.62901 3.9433,-1.31424 1.3145,1.31424 -1.3145,1.3145 v 6.57253 l -1.3145,1.3145 -3.9433,3.94325 5.2578,2.629 v 5.25802 l 2.629,3.94325 1.3145,5.25775 v 3.94351 l 1.3145,3.94351 6.5723,1.31451 h 2.629 l 3.9435,-2.62901 3.9433,1.3145 1.3145,-3.94351 2.6233,-2.62901 2.629,3.94352 1.3145,2.629 2.629,1.31451 3.9433,-2.62901 -1.3142,-5.25802 v -2.62874 l 2.6287,-1.3145 v -6.57226 l 1.3145,2.62874 h 3.9435 l 1.3145,-2.62874 5.2578,3.94325 1.3145,2.62901 1.3145,1.3145 h 3.9432 l 3.9436,1.31424 h 7.8867 l 1.3145,3.94351 1.3145,2.62901 2.629,1.3145 v 3.94352 l -1.3145,1.3145 -1.3145,3.94325 1.3145,5.25775 2.629,3.94351 1.3143,3.94351 3.9435,1.31451 v 2.62901 l -1.3145,2.62874 1.3145,3.94351 3.9435,3.94324 v 3.94352 l 1.3145,3.94351 v 5.25775 l 1.3145,2.62901 3.9432,1.3145 h 1.3145 l 3.9379,1.31451 v 1.3145 l 3.9436,1.31451 2.6287,2.62874 -1.3142,3.94351 1.3142,2.62901 2.629,3.94324 1.3145,1.31451 v 3.94351 l -3.9435,2.62901 -6.5723,2.62874 -6.5722,3.94352 -3.9435,-1.31451 h -3.9433 l -5.258,-3.94324 -2.629,-3.94352 -5.2578,-1.3145 h -3.9435 l -2.6287,2.62901 -6.5725,-1.31451 h -6.5723 l -2.629,5.25775 -2.629,1.31451 -2.629,2.62901 v 3.94351 l 5.258,2.62874 2.629,6.57252 -1.3145,1.31424 -3.9435,-2.62874 -1.3145,3.94324 1.3145,5.25802 v 1.31451 l 1.3145,2.629 -1.3145,2.62875 1.3145,3.94351 h 1.3145 v 2.62901 h -1.3145 l -1.3145,3.94324 -3.9432,1.31451 h -2.629 l -1.3145,2.62901 2.629,1.3145 2.6287,3.94351 -1.3142,5.25775 3.9432,2.62901 h 3.9435 l 1.3145,5.25775 -2.629,2.62901 2.629,2.62901 3.9433,1.31424 1.3145,5.25801 1.3145,2.62901 2.629,-1.3145 1.3145,2.62901 -1.3145,3.94324 2.629,2.62901 3.9432,-5.25775 V 461.383 l 2.629,-1.3145 h 3.9436 l 3.9432,1.3145 -2.629,2.62901 v 5.25775 l -3.9433,3.94351 2.6291,2.62874 2.6287,2.62901 v 9.20153 l -1.3145,1.31424 1.3145,3.94351 -1.3145,3.94887 -2.6288,-1.3145 -2.629,2.629 -3.9435,-2.629 -1.3142,-2.62874 -2.629,-2.62901 -1.3145,5.25775 -1.3145,1.3145 -1.3145,2.62901 v 2.62901 l -1.3145,2.62874 -2.629,-1.31451 h -1.3145 l 1.3145,2.62901 h -2.6288 l -1.3145,1.31451 -3.9435,3.94324 -2.629,-1.31423 -3.9432,1.31423 h -6.5616 l -1.3145,-1.31423 h -3.9432 l -2.629,-2.62901 h -2.6291 l -1.3142,2.62901 -2.629,2.62874 -2.629,-1.31451 -2.629,-2.62874 h -2.629 l -7.8868,-2.62901 -1.3145,1.31451 v -1.31451 l 2.629,-1.3145 v -1.31451 l 1.3145,-1.31423 1.3145,-2.62901 v -1.31451 h 2.6287 l 2.6291,-5.25774 1.3145,-2.62901 h 1.3145 l 2.629,-2.62901 -3.9435,-3.94352 -2.629,-1.3145 -2.6288,1.3145 h -5.258 l -3.9433,1.31451 -2.629,5.25802 -1.3145,1.3145 v 1.31451 l -1.3145,2.62874 h -6.5725 l -2.6287,2.629 h -10.5158 l -2.629,2.62901 v 5.25775 l 1.3145,2.62901 -1.3145,2.62874 -1.3145,2.62901 -1.3145,3.94352 -1.3142,3.94351 -1.3145,5.25775 v 3.94351 l -1.3145,2.62874 h -3.9382 l -1.3143,1.31451 h -3.9435 l -1.3145,3.94351 h -10.5157 l -3.9435,1.31451 -1.3143,2.629 -1.3145,2.62901 -1.3145,1.31424 -1.3145,2.62901 v 2.62901 l -1.3145,1.3145 h -5.2577 l -1.3145,-1.3145 v -1.31451 l -1.3146,-1.3145 -1.3145,-1.31451 h -3.9435 l -1.3142,-1.3145 h -6.5725 l -2.6291,1.3145 -2.629,2.62901 -3.9432,1.31451 h -3.9435 l -2.6288,-1.31451 -2.629,-1.3145 h -6.5669 l -3.9435,-1.31451 -3.9432,-2.62874 -1.3145,-2.62901 -1.3145,-3.94351 v -5.25802 l -1.3145,-1.31423 h -3.9433 l -1.3145,2.62874 -3.9435,6.57252 h -9.2013 l -6.5725,-3.94351 h -6.5722 l -2.629,3.94351 -2.6288,-1.3145 -9.2015,-9.20127 -1.3145,-2.62901 -2.6288,-1.3145 -5.258,6.57225 v 3.94352 l -1.3089,2.62901 -1.3145,1.3145 1.3145,3.94351 -3.9435,3.94325 -2.629,3.94351 h -3.9432 l -2.629,-1.3145 h -2.629 l -3.9433,1.3145 -3.9435,-1.3145 -2.629,2.62901 -3.9435,1.31423 -1.3143,-1.31423 -5.258,-2.62901 -2.629,-1.31451 -2.6287,-1.3145 -3.9436,1.3145 -3.9432,-1.3145 -2.629,-1.31451 -2.629,1.31451 -1.3145,1.3145 v 2.62901 l -1.3145,1.31451 -1.3145,2.62874 v 6.57252 l -1.3145,2.62874 v 1.31451 l -2.6288,1.3145 -2.629,2.62901 h -1.3145 l -3.9379,-1.31451 -2.629,1.31451 -3.9435,1.3145 -2.6287,2.62901 -3.9436,1.31451 h -5.2577 l -1.3145,2.62874 -1.3145,1.3145 -2.629,1.31451 v 1.3145 l -1.3145,1.3145 h -2.6288 l -1.3145,1.31451 -1.3145,1.31424 h -3.9435 l -1.3145,2.629 h 2.629 v 6.57253 h -2.629 l -1.3145,2.62901 -1.3145,3.94323 v 2.62901 l 3.9435,3.94326 2.629,1.31451 h 2.629 l 3.9433,1.3145 2.629,5.25773 v 3.94352 l 2.629,2.62901 2.6287,1.3145 v 1.3145 l 1.3145,1.31451 1.3145,-1.31451 h 1.3145 l 2.629,2.62901 h 1.3146 l 1.3142,-1.3145 1.3145,2.62876 v 1.3145 l -1.3142,1.31451 -2.6291,1.3145 -5.258,-1.3145 -2.6287,1.3145 -1.3145,1.31451 -1.3145,2.629 -1.3145,3.94323 v 13.14505 l -1.3145,3.94351 -1.3145,1.3145 -1.3145,1.31451 v 2.62901 l 1.3145,2.63436 -1.3145,1.3145 v 5.25777 l 1.3145,2.62901 1.3145,3.94323 -1.3145,3.94351 1.3145,2.62901 h 2.629 l 1.3145,1.31451 v 10.51578 l -1.3145,2.62901 1.3145,7.88674 1.3145,1.31451 v 2.62875 l -1.3145,2.62901 1.3145,3.94352 v 5.25773 l 1.3142,6.57252 -2.6287,2.62876 -1.3145,5.25802 -1.3145,2.62872 h 2.629 l -1.3145,2.62901 v 1.3145 l 2.629,35.49081 -11.83,57.8363 -22.3455,27.61 -46.001,34.1766 -18.4025,26.289 -30.2277,40.7491 -30.2323,19.7175 -2.629,7.8868 -1.3145,-1.3142 v 2.6287 l 1.3145,3.94353 v 3.9433 l -2.629,2.629 -3.9432,-1.3145 -3.9435,3.9435 h -5.258 l -3.9433,1.3145 -2.629,3.9489 -2.629,1.3145 h -3.9432 l -2.6291,1.3145 -1.3145,2.629 -3.9379,2.6287 h -1.3145 l -1.3145,-3.9432 v -7.8871 l 1.3145,-3.9432 -1.3145,-3.9435 -2.629,-2.629 -3.9432,-2.62883 h -9.2013 l -3.9435,1.31453 h -2.629 l -1.3145,-3.94353 h -3.9433 v -5.2577 l -1.3145,-2.6291 v -7.887 l -1.3145,-2.6287 v -1.3145 l -1.3145,-3.9435 -2.629,-3.9433 -3.9432,-1.3145 -1.3145,-1.3145 -5.2581,-1.3145 -1.3142,-1.3145 h -1.3145 l -1.3145,-2.629 -3.9435,-3.9435 -1.3145,-1.3142 -1.3145,-2.6291 -1.3145,-2.629 -3.9433,-1.3145 -1.3145,-2.6287 v -5.258 l -1.3145,-1.3145 h -2.6234 l -2.629,-1.3146 h -2.629 l -2.629,1.3146 h -3.9432 l -2.6291,-1.3146 h -2.629 l -1.3145,1.3146 -2.6287,1.3145 -3.9435,-1.3145 -2.629,-3.9433 -2.6288,-1.3145 -6.5725,-2.629 -2.629,-2.629 -1.3145,-6.5722 -11.8297,-11.83 h -2.629 l -3.9433,-3.9433 -5.258,-1.3145 -1.3145,-3.9435 -3.9433,-1.3145 -2.6236,-1.3145 -2.629,-1.3142 -3.9433,-2.6291 -1.3145,-3.9435 -1.3145,-2.629 -5.2577,-1.3145 -2.629,-3.9432 -3.9435,-1.3145 -2.6291,-2.6291 -3.9432,-6.5722 -1.3145,-3.9435 1.3145,-1.3145 v -5.2578 l -1.3145,-3.9435 -2.629,-2.6344 v -2.629 l -2.629,-1.3145 -1.3143,1.3145 -2.629,1.3145 -1.3145,2.629 v 2.6288 h -2.629 l -2.6287,-1.3145 -2.6293,-1.3143 -3.9432,1.3143 v 7.887 l -1.3145,1.3145 h -2.6291 l -2.6287,1.3145 -2.629,2.6288 -1.3145,1.3145 -2.629,1.3145 -3.9433,-1.3145 h -2.6236 l -2.629,1.3145 v 3.9435 l -1.3143,1.3145 -2.629,1.3142 -1.3145,1.3145 -1.3145,2.6291 v 2.629 l -1.3145,1.3145 -10.5158,-5.258 -3.9435,-3.9433 2.629,-3.9435 -3.9432,-2.629 -2.629,-1.3145 -1.3145,1.3145 -2.629,1.3145 -2.6288,-2.629 h -2.629 v 1.3145 l -3.9435,1.3145 -5.2577,-1.3145 -6.5726,2.629 h -2.629 v -9.2013 l -6.5722,-2.629 -2.6288,1.3145 -2.629,-3.9435 v -6.5723 l -2.6236,-1.3145 -5.2578,1.3145 -2.629,-2.629 h -5.2577 l -3.9436,1.3145 -1.3145,-5.2577 -2.6287,-1.3145 -3.9435,-2.629 -1.3145,-5.2578 -3.9435,-3.9435 h -6.572295 l -2.629,-3.9435 -3.9432,-1.3145 -3.9435,-6.5722 h -6.5726 l -1.3145,6.5722 -6.5722,-1.3145 -3.9433,-2.6287 -1.3145,-2.629 -2.629,-3.9436 -3.9379,-3.9432 -2.629,-5.258 -2.629,-6.5723 h -3.9432 l -1.3145,-2.629 v -5.2578 l -2.6291,-1.3145 -6.5722,-5.258 -2.629,-5.2577 -5.2578,-1.3145 1.3143,-5.258 v -2.629 l 1.3145,-3.9433 3.9435,-1.3145 h 2.629 l 5.2577,-1.3145 2.6291,-2.629 1.3145,-3.9432 2.6287,-2.6291 2.629,1.3145 h 9.2013 l 3.9435,1.3146 h 3.9435 l -1.3145,-3.9436 2.6287,-3.94347 1.3145,-5.25777 3.9436,-3.94351 1.3145,-6.57224 v -5.25777 l -2.6291,-2.62901 v -3.94351 l 2.6291,-3.94351 v -5.25774 l 1.3142,-2.629 v -2.62876 l -1.3145,-5.25802 h 2.6287 l 1.3145,-2.62901 h 5.2581 l 1.3145,-1.3145 -1.3145,-3.94323 -2.6291,-3.94352 1.3145,-5.25776 -1.3145,-3.94912 2.6291,-2.62876 v -1.3145 l -3.9436,-2.62901 -1.3142,-1.31451 2.6287,-2.62872 -1.3145,-5.25802 1.3145,-2.62901 2.6291,-2.62901 5.2577,-3.94326 2.629,-10.51575 5.257995,-1.3145 1.3143,-5.25802 2.629,1.3145 h 2.629 l 2.629,2.62901 2.629,-1.3145 2.6287,-3.94352 v -5.25776 l 1.3145,-1.31451 h 3.9436 v -13.14504 h 2.629 l 5.2524,-1.31451 h 6.5722 v -5.25773 l 1.3145,-5.25802 v -1.31425 h -2.629 l -3.9435,-1.31451 1.3145,-5.25801 1.3145,-11.83 h -3.9435 l -3.9433,1.31451 -3.9435,-1.31451 -1.3145,-3.94324 v -2.62901 l 5.258,-2.62901 1.3146,-3.94325 -2.6291,-1.3145 -9.2012,-5.25802 3.9435,-7.88676 14.459,-31.54757 7.8868,-17.08829 h 17.0883 l 5.258,1.31451 h 13.145 l 1.3145,5.25775 h 6.5723 l 3.9435,-1.31424 2.6287,-2.62901 h 5.258 l 6.5669,-1.3145 v -5.26337 l 2.6291,-2.62901 v -3.94325 l 3.9432,-2.62901 2.629,-6.57225 5.2578,-1.31451 1.3145,2.62901 h 2.629 l 5.258,-2.62901 2.629,2.62901 2.6287,2.62874 -2.6287,2.62901 -1.3145,2.62901 2.6287,3.94325 -1.3142,2.62901 2.6287,2.629 h 3.9436 l 3.9432,1.31451 v 3.94324 l 2.629,2.62901 -1.3145,3.94352 3.9435,3.94351 -2.629,1.31424 1.3145,2.62901 v 2.629 l 5.258,3.94325 h 2.629 l 2.6288,5.25802 h 2.629 l 1.3145,-2.62901 1.3145,-2.62901 2.6287,1.3145 h 1.3145 l 2.6291,-2.62874 -1.3146,-5.25801 -3.9432,-1.31451 -1.3145,-6.57225 v -2.62901 l 1.3145,-5.25802 -2.629,-7.88676 h 2.629 l 3.9432,1.31451 5.2524,-1.31451 -1.3145,-2.62874 3.9436,-3.94351 3.9435,-6.57226 -3.9435,-1.3145 1.3145,-3.94352 3.9435,-1.3145 2.6287,-3.94351 3.9435,-3.94325 h 5.2578 l 2.629,-5.25802 1.3145,-5.25775 1.3145,-3.94351 2.629,-2.629 5.2578,-1.31451 h 5.258 l 5.2577,-2.62874 2.629,-3.94351 2.629,-3.94325 1.3143,-2.62901 2.629,-1.3145 3.9435,-2.62901 2.629,-5.25775 v -5.25802 l -1.3145,-5.25775 -2.629,-2.62901 -1.3145,-3.94351 -2.629,-5.25775 1.3145,-5.25802 1.3145,-3.94324 3.9435,-1.31451 5.2577,-2.62901 h 5.2581 v -2.62901 l 5.2524,-5.25775 5.258,2.62901 3.9432,-1.3145 h 6.5723 v 2.62874 h -5.2578 v 5.25802 l 5.2578,5.25775 v 3.94351 l 3.9435,2.62901 3.9432,5.25775 10.5161,2.62901 h 2.629 l 3.9432,1.3145 v 2.62901 l 1.3145,9.20126 5.2578,-3.94351 6.5725,1.31451 v 2.629 l 3.9435,1.31451 v 6.57225 l 5.2578,1.31451 2.629,-2.62901 h 5.2524 l 1.3142,-2.62874 3.9435,-2.62901 1.3145,-2.62901 1.3145,-1.3145 -2.629,-1.31451 -2.629,-5.25775 3.9435,-7.88676 5.2581,-3.94351 3.9432,-5.25802 6.5725,-2.62901 2.6288,-2.62874 -1.3145,-5.25802 -1.3143,-3.94324 -5.258,-3.94351 -1.3145,-2.62901 1.3145,-3.94325 -1.3145,-6.57252 -5.2577,1.3145 -6.5726,-6.57225 -1.3145,-5.25802 -3.9432,-5.25775 3.9432,-3.94351 5.258,-3.94352 2.6291,-6.57225 h 9.2012 l 7.8868,-1.3145 -1.3145,-2.62901 -2.629,-3.94325 v -1.3145 l 1.3145,-3.94887 -1.3145,-3.94351 -1.3143,-15.77325 -3.9435,1.3145 -2.629,-3.94351 -3.9432,2.62901 h -2.6291 l -6.5725,-2.62901 -3.9432,-3.94324 -5.2581,-3.94352 -5.2577,-5.25775 -3.9435,-7.88676 v -2.62901 l 2.629,-5.25801 -1.3145,-2.62874 -2.6288,-1.31451 -1.3145,-3.94351 5.2578,-1.31451 v -3.94324 l -1.3145,-2.62901 v -5.25802 l 1.3145,-3.94324 3.9435,-2.62901 v -3.94352 l 3.9432,-1.3145 6.5723,-5.25775 -1.3142,-5.25775 -3.9435,-2.62901 v -2.62901 l 1.3145,-1.3145 1.3145,-1.31451 6.5722,-2.629 2.629,-2.62875 1.3145,-2.629 2.6291,-3.94352 5.2577,-2.62874 2.629,-2.62901 1.3145,-3.94351 h 6.5723 l 2.629,-1.3145 2.6287,-3.94352 v -2.62874 l -2.629,-2.62901 -1.3145,-3.94324 2.629,-3.94351 6.5723,-6.57226 3.9435,-5.25802 2.629,-2.62901 1.3142,-5.25775 v -7.88675 l -1.3142,-1.31451 -1.3145,-2.62901 2.6287,-3.94887 1.3145,-3.94351 1.3145,-1.3145 3.9435,-5.25775 2.6288,-3.94352 -1.3143,-3.94351 2.6288,-2.62874 v -2.62901 h -5.2578 l -3.9435,-1.3145 -2.6287,-3.94325 1.3142,-3.94351 -1.3142,-2.62901 h -2.629 l -2.629,-5.25802 -3.9433,-2.62874 -2.6292,-2.62901 v -5.25775 l -1.3143,-3.94351 5.2578,-1.31451 1.3145,-1.3145 1.3145,-2.62901 V 93.3274 l -3.9435,-2.62901 1.3145,-5.25775 2.629,-2.62901 3.9435,2.62901 3.9432,-2.62901 1.3145,-2.62901 -1.3145,-2.62874 -5.2577,-5.25802 -2.629,-3.94351 2.629,-3.94325 1.3145,-2.629 -1.3145,-3.94352 1.3145,-5.25775 1.3145,-2.62901 V 39.43406 l -2.629,-5.25775 1.3145,-1.31451 3.9432,1.31451 5.258,1.31423 3.9433,2.62901 2.629,-2.62901 1.3145,-2.62874 5.258,5.25775 h 5.2524 l 2.6287,-2.62901 v -5.25775 l 6.5726,-1.3145 h 5.2577 l 7.887,-2.62874 2.6288,2.62874 1.3145,-5.25775 1.3145,-3.94351 -1.3145,-2.62901 -3.9433,-2.62901 v -2.62874 l -2.629,-3.9435203 -5.258,-1.3145 3.9435,-2.62874 3.9435,1.31424 1.3143,-1.31424 2.629,-3.94350995878791 1.3145,1.31449995878791 1.3145,1.3145 z"
     style="clip-rule:evenodd;fill:#000000;fill-rule:nonzero;stroke:none;stroke-width:2.73877px"
     id="path1306" />
</svg>
