<?xml version="1.0" encoding="UTF-8" standalone="no"?>
<svg
   xmlns:dc="http://purl.org/dc/elements/1.1/"
   xmlns:cc="http://creativecommons.org/ns#"
   xmlns:rdf="http://www.w3.org/1999/02/22-rdf-syntax-ns#"
   xmlns:svg="http://www.w3.org/2000/svg"
   xmlns="http://www.w3.org/2000/svg"
   xmlns:sodipodi="http://sodipodi.sourceforge.net/DTD/sodipodi-0.dtd"
   xmlns:inkscape="http://www.inkscape.org/namespaces/inkscape"
   version="1.0"
   width="1024pt"
   height="1024pt"
   viewBox="0 0 1024 1024"
   preserveAspectRatio="xMidYMid meet"
   id="svg2211"
   sodipodi:docname="vector.svg"
   inkscape:version="1.0.2-2 (e86c870879, 2021-01-15)">
  <defs
     id="defs2215" />
  <sodipodi:namedview
     pagecolor="#ffffff"
     bordercolor="#666666"
     borderopacity="1"
     objecttolerance="10"
     gridtolerance="10"
     guidetolerance="10"
     inkscape:pageopacity="0"
     inkscape:pageshadow="2"
     inkscape:window-width="1366"
     inkscape:window-height="697"
     id="namedview2213"
     showgrid="false"
     inkscape:zoom="0.1940918"
     inkscape:cx="1266.7524"
     inkscape:cy="760.26375"
     inkscape:window-x="-8"
     inkscape:window-y="-8"
     inkscape:window-maximized="1"
     inkscape:current-layer="svg2211"
     fit-margin-top="0"
     fit-margin-left="0"
     fit-margin-right="0"
     fit-margin-bottom="0" />
  <metadata
     id="metadata2205">
Created by potrace 1.10, written by Peter Selinger 2001-2011
<rdf:RDF>
  <cc:Work
     rdf:about="">
    <dc:format>image/svg+xml</dc:format>
    <dc:type
       rdf:resource="http://purl.org/dc/dcmitype/StillImage" />
    <dc:title></dc:title>
  </cc:Work>
</rdf:RDF>
</metadata>
  <path
     d="m 1024,471.93774 -4.2144,12.64311 v 8.42874 h -4.2144 v 4.21437 h -4.2143 v 16.85662 h -4.2144 v 8.42874 h -4.2144 v 16.85662 h -4.21433 v 21.07184 h -4.2144 v 8.42788 h -4.2144 4.2144 v 4.21437 h -4.2144 v 12.64311 h -4.2143 v 4.21437 l -4.2144,4.21437 v 4.21437 h -8.4288 l -4.2143,-4.21437 h -8.4278 l -4.2144,-8.42874 -12.6431,4.21437 -4.2144,12.64311 h -4.2144 l -16.8566,-4.21437 4.2143,8.42874 -8.4287,4.21351 v 8.42874 l 4.2144,4.21437 v 4.21437 l 4.2143,4.21437 -4.2143,8.42788 -4.2144,16.85748 -4.2144,4.21437 h -4.2144 l -4.2143,-8.42874 h -4.2144 l -8.4287,4.21437 h -8.4107 l -4.2144,-8.42874 -8.4279,-4.21437 h -4.2144 l -8.4287,4.21437 12.6431,12.64311 -4.2144,12.64311 -8.4287,-16.85748 -8.4278,4.21437 4.2143,8.42874 -8.4287,-4.21437 -8.4287,4.21437 v 8.42874 l 4.2143,12.64225 4.2144,4.21437 -4.2144,16.85662 -4.2143,4.21437 -8.428,12.64306 v 25.3206 l -8.4287,8.4288 -8.4278,4.2144 -4.2144,8.4278 -8.4288,4.2143 v 12.6432 l -4.2143,8.4287 -4.2144,12.6423 4.2144,12.6431 8.4287,4.2144 h 8.4288 l 8.4278,8.4287 -12.6422,16.8566 h -16.8575 l -4.2144,-8.4288 -12.6431,8.4288 v 4.2144 l -4.2143,4.2143 v 8.4288 l -4.2144,4.2143 -4.2144,-4.2143 -4.2144,12.6423 -4.2143,8.4287 h -12.6423 l -8.4288,-8.4287 -4.2143,-4.2136 v 12.6423 l -4.2144,4.2144 -12.6422,4.2144 v 8.4278 l -12.6431,4.2143 v 4.2144 h 4.2144 l -4.2144,12.6431 v -4.2143 4.2143 l -8.428,-8.4287 v -4.2144 h -4.2143 l -4.2144,-8.4287 v -4.2135 l 4.2144,-8.4287 4.2143,-4.2144 v -4.2144 h 4.2144 v -12.6423 h -4.2144 v -8.4287 h 4.2144 -4.2144 v -16.8575 h 4.2144 v -8.4287 h -8.4287 v -4.2135 h -4.2144 v -4.2143 l -4.2144,4.2143 v -4.2143 h -12.6431 v 4.2143 l -4.2143,4.2135 v -4.2135 l -4.1963,4.2135 v 4.2143 -4.2143 h -12.6431 l -4.2144,4.2143 v -8.4278 l -4.2144,-4.2143 h -4.2143 l -4.2144,-4.2144 v 4.2144 h -4.2144 v -8.4288 l -4.2144,-4.2144 h 4.2144 v -4.2143 h -4.2144 v -4.2144 l -4.21434,-4.2136 h -4.21437 l -4.21437,-4.2143 v 4.2143 -4.2143 h -4.21437 v 12.6423 h -4.21437 l -4.21437,8.4287 h -8.42874 l -8.42788,4.2144 -8.42874,8.4287 -4.21437,4.2135 v -4.2135 h -4.21437 v -4.2143 h -4.21437 v -4.2144 l 4.21437,-4.2144 h -4.21437 v -12.6431 h -4.21437 v -12.6423 l -4.21437,4.2144 h -8.42874 v -4.2144 h -8.42788 v -4.2144 h -8.42874 v -4.2143 h -8.42788 v -4.2144 h -4.21437 v 4.2144 l -8.42874,-8.4288 v -4.2144 h -4.21437 v -4.2143 H 480.3935 v -4.2144 h -12.64311 v -4.2134 4.2134 l -4.21437,-4.2134 v -8.4288 h -16.85748 v 4.2144 h -4.21437 v -4.2144 h 4.21437 v -4.2144 l -4.21437,-4.2144 -8.42788,-12.6422 v -16.8575 h -8.41071 l 12.64225,-12.64225 v -12.64311 l -4.21437,-4.21437 -4.21437,4.21437 V 691.115 h 4.21437 l -4.21437,-4.21437 h -4.21437 v -4.21437 h -12.64225 v -4.21437 h 4.21437 v -8.42874 h -4.21437 v 8.42874 h -12.64311 v 8.42874 h 4.21437 v 4.21437 l 4.21437,-4.21437 v 4.21437 h -4.21437 v 4.21437 h -4.21437 v -4.21437 4.21437 h -8.42874 v 4.21437 h -4.21437 v 4.21437 h -4.21437 v 4.21437 l -4.21437,4.21351 h -4.21437 v -4.21351 l -4.21437,-4.21437 h -4.21437 v -4.21437 h -4.21437 v -4.21437 h -4.21437 v 8.42874 h -4.21437 v 4.21437 H 332.9103 v 8.42788 h 4.21437 -4.21437 v 4.21437 -4.21437 l -4.21437,4.21437 h -4.21437 v -4.21437 h -4.21437 v 4.21437 h -4.21437 v -4.21437 h -21.07099 v -8.42788 l -8.42788,-4.21437 -4.21437,-12.64311 -8.42874,-4.21437 v -8.42874 H 252.839 v -16.85662 l -4.21437,-8.42874 4.21437,-8.42874 4.21437,-8.42788 -4.21437,-8.42874 h -16.85662 l 4.21437,-4.21437 8.42788,-8.42874 4.21437,-4.21437 v -8.42874 l -4.21437,-4.21437 v -4.21351 h -8.42788 v -4.21437 l -8.42874,-8.42874 4.21437,-8.42874 -4.21437,-4.21437 -4.21437,-4.21351 h -16.85662 v 12.64225 h -8.42874 l -4.1972,4.21437 h -8.42789 l 8.42789,-8.42874 v -8.42788 h -8.42789 l 4.21437,-8.42874 -8.42874,4.21437 -4.21437,4.21437 -4.21437,8.42788 -4.21437,-4.21437 -8.42788,4.21437 h -4.21437 l -4.21437,-8.42788 -4.21437,4.21351 -4.21437,4.21437 -8.42874,-4.21437 -4.21437,-4.21351 -4.21437,4.21351 -4.21436,-4.21351 v -4.21437 l -4.21437,-8.42873 h -4.21437 l -8.42789,-8.42874 -12.643105,4.21437 h -8.42874 v -4.21437 l 8.42874,-8.42874 h -12.6431 l 4.21436,-12.64225 h -16.85662 v -8.42874 l -4.21437,-8.42874 v -8.42788 l -4.21437,-8.42874 -4.21437,-8.42874 h -12.6431 v -4.21437 l 4.21436,-4.21437 h 12.64311 v -8.42788 l -16.85747,4.21437 4.21436,-4.21437 v -8.42874 l -4.21436,-8.42874 h -8.42874 l -4.21437,-12.64225 v -4.21437 h -4.21437 l -8.42789,-4.21437 v -12.64311 l 4.21437,4.21437 8.42789,4.21437 -4.21437,-8.42874 v -4.21437 l 4.21437,-4.21437 h 4.21437 v -8.42788 l -4.21437,-8.42874 h -4.21437 l -8.42789,-8.42874 h -4.21437 L 8.4287247,387.68811 12.643095,375.045 8.4287247,370.83063 12.643095,353.97401 4.2143647,349.75964 V 337.11653 L -5.2587889e-6,328.68865 v -8.42874 L 8.4287247,316.04554 l 8.4287403,-16.85662 4.21437,-4.21437 12.64226,-4.21437 4.21437,-8.42874 8.42874,-4.21437 16.85747,8.42874 8.42789,-4.21437 8.42874,-12.64311 8.42873,-8.42874 12.642255,4.21437 4.21437,-4.21437 v -8.42788 l 8.42874,-8.42874 8.42788,8.42874 v -16.87465 l -4.21437,-8.42874 -4.21437,-4.21437 v -16.85662 h 12.64311 l 8.42788,-8.42874 -8.42788,-16.85748 v -16.85662 h 4.21437 l 16.85662,-8.42874 12.64311,-4.21437 v -29.49972 l 4.21437,-12.64225 h 12.64311 l -4.21437,-8.42874 h 12.64225 l 4.21437,4.21437 4.21437,-4.21437 h 16.85748 l 12.64225,-8.428735 4.21437,4.21437 V 134.8139 h 12.64311 l 4.21437,12.64225 v 8.42874 l 8.42874,21.07099 21.07098,-4.21437 4.21437,8.42874 4.21437,-8.42874 h 16.85747 v 8.42874 h 12.64226 l 4.21437,4.21437 -8.42789,12.64225 4.21437,4.21437 8.42789,-8.42874 4.21437,4.21437 4.21437,-4.21437 12.6431,12.64311 4.21437,-4.21437 4.21437,12.64311 h 8.42789 l 4.21437,-8.42874 h 8.42874 v 8.42874 l 4.21436,4.21437 h 8.42874 l 4.21437,8.42788 h 12.64311 v 4.21437 l 4.19635,4.21437 4.21437,4.21437 4.21437,-4.21437 h 29.49973 l 8.42874,4.21437 v 12.64311 l 4.21437,-4.21437 4.21437,4.21437 v 4.21437 l -4.21437,8.42788 4.21437,4.21437 8.42874,-4.21437 4.21437,4.21437 v 12.64311 l -4.21437,4.21437 v 8.42788 l 12.64225,-4.21437 v -12.64225 l 8.42874,-4.21437 4.21437,-4.21437 h 4.21437 v 4.21437 l 4.21437,4.21437 h 4.21437 l 4.21437,-4.21437 4.21437,-8.42874 h 12.64225 v -8.42788 l 8.42874,8.42788 h 4.21437 l 4.21437,4.21437 v 8.42874 h 8.42788 l 4.21437,4.21437 4.21437,-4.21437 v -8.42874 h 8.42874 l 4.21437,-4.21437 h 12.64311 l 4.21437,4.21437 8.42788,-4.21437 4.21437,-4.21437 h 8.42874 l 4.21437,-8.42788 v -21.07099 h 21.0358 l 4.2144,4.21437 4.2143,-4.21437 h 8.4288 l 4.2144,4.21437 v 16.85662 l 4.2143,4.21437 h 29.4997 l -4.2144,8.42874 8.428,8.42788 -4.2144,8.42874 v 8.42788 l 8.4287,8.42874 -4.2143,12.64311 v 4.21437 h 4.2143 v 33.7141 h 12.6431 l 4.2144,-4.21437 v -4.21437 l 8.4288,-4.21437 4.2143,-4.21437 h 16.8566 l -4.2144,12.64226 8.4288,8.42874 v 16.85748 h 8.4279 v 4.21436 l 8.4287,4.21437 h 25.2853 l 4.2144,-4.21437 4.2144,-8.42873 h 8.4287 v 4.21437 l 12.6431,8.42873 16.8567,4.21437 4.2144,8.42789 8.4287,25.28536 4.2144,12.64311 12.625,-8.42874 4.2144,12.64311 h 12.6431 v 8.42788 h 12.6423 v 4.21437 l 8.4287,8.42874 -4.2143,4.21437 h 12.6422 v 4.21437 l 4.2143,4.21437 h 4.2144 l 8.4287,-4.21437 16.8575,-4.21437 4.2144,8.42874 12.6423,-8.42874 h 8.4287 l 4.2144,4.21437 -4.2144,4.21437 12.6422,4.21437 8.4288,-16.85748 12.64233,4.21437 h 4.2144 l 4.2143,4.21437 -4.2143,8.42874 4.2143,4.21437 8.4288,-4.21437 z"
     style="clip-rule:evenodd;fill:#000000;fill-rule:nonzero;stroke:none;stroke-width:8.78065px"
     id="path1364" />
</svg>
