<?xml version="1.0" encoding="UTF-8" standalone="no"?>
<svg
   xmlns:dc="http://purl.org/dc/elements/1.1/"
   xmlns:cc="http://creativecommons.org/ns#"
   xmlns:rdf="http://www.w3.org/1999/02/22-rdf-syntax-ns#"
   xmlns:svg="http://www.w3.org/2000/svg"
   xmlns="http://www.w3.org/2000/svg"
   xmlns:sodipodi="http://sodipodi.sourceforge.net/DTD/sodipodi-0.dtd"
   xmlns:inkscape="http://www.inkscape.org/namespaces/inkscape"
   version="1.0"
   width="1024pt"
   height="1024pt"
   viewBox="0 0 1024 1024"
   preserveAspectRatio="xMidYMid meet"
   id="svg2211"
   sodipodi:docname="vector.svg"
   inkscape:version="1.0.2-2 (e86c870879, 2021-01-15)">
  <defs
     id="defs2215" />
  <sodipodi:namedview
     pagecolor="#ffffff"
     bordercolor="#666666"
     borderopacity="1"
     objecttolerance="10"
     gridtolerance="10"
     guidetolerance="10"
     inkscape:pageopacity="0"
     inkscape:pageshadow="2"
     inkscape:window-width="1366"
     inkscape:window-height="697"
     id="namedview2213"
     showgrid="false"
     inkscape:zoom="0.1940918"
     inkscape:cx="1266.7524"
     inkscape:cy="760.26375"
     inkscape:window-x="-8"
     inkscape:window-y="-8"
     inkscape:window-maximized="1"
     inkscape:current-layer="svg2211"
     fit-margin-top="0"
     fit-margin-left="0"
     fit-margin-right="0"
     fit-margin-bottom="0" />
  <metadata
     id="metadata2205">
Created by potrace 1.10, written by Peter Selinger 2001-2011
<rdf:RDF>
  <cc:Work
     rdf:about="">
    <dc:format>image/svg+xml</dc:format>
    <dc:type
       rdf:resource="http://purl.org/dc/dcmitype/StillImage" />
    <dc:title></dc:title>
  </cc:Work>
</rdf:RDF>
</metadata>
  <path
     d="m 976.37096,642.97741 h -23.8582 l -35.7217,11.90725 -11.9073,11.90726 -11.9073,23.81448 -11.9072,11.9073 h -23.8145 v 11.9048 l -11.9073,11.9073 v 11.9072 l 11.9073,23.8146 v 47.6265 l -23.8123,11.9073 v 11.9072 l -35.7218,35.7218 -23.8145,11.9073 -11.9072,11.9072 v 23.8121 h -35.7192 v -11.9048 l -11.9073,-11.9073 -11.9072,-23.8145 h -59.534 v -47.629 l -11.9072,-11.9073 h -35.7218 l -11.9073,35.7218 -11.9072,11.9073 v 11.9072 l -11.9073,11.9073 h -47.57809 v -11.9073 l -11.90726,-11.9072 11.90726,-11.9073 11.90726,11.9073 v -35.7218 l -23.81452,-11.9073 v -47.6265 l -35.71934,11.9072 -47.62903,23.8121 -47.62661,11.9072 h -35.72177 l -23.81451,11.9073 H 273.8645 l -11.90726,11.9072 H 226.23547 L 214.32822,821.5814 V 785.8596 L 202.42096,773.9548 178.60887,762.0476 166.70161,773.9548 142.8871,750.1403 H 130.97984 V 726.3258 L 119.07258,714.4185 V 690.6064 H 107.16533 V 678.6992 L 95.25807,666.79192 v -130.9774 h 11.90726 v -11.90726 h 11.90725 V 512 L 107.16533,500.09517 V 488.18791 L 95.25807,476.28065 V 464.3734 h 11.90726 V 440.55888 H 95.25807 107.16533 V 428.65163 L 95.25807,416.74437 V 404.83711 H 83.35081 V 381.02502 H 71.44355 V 369.11776 H 59.5363 L 47.62904,357.21051 H 35.72178 v -11.90726 l -11.90726,11.90726 v 11.90725 L 11.90727,357.21051 V 333.39599 L 9.7412112e-6,321.48874 V 273.86213 L 11.90727,250.04762 23.81452,238.14036 H 35.72178 L 47.62904,226.2331 59.5363,214.32827 71.44355,190.51376 h 47.62903 l 11.90726,-11.90726 11.90726,-23.81452 11.90725,-23.81451 11.90726,-11.90726 h 59.53386 l 11.90726,11.90726 h 23.81209 l 23.81451,11.90726 23.81452,11.90725 h 11.90726 l 47.62902,-47.62902 v 11.90725 l 23.81209,11.90726 11.90726,11.90726 23.81452,11.90725 11.90725,-11.90725 23.81209,11.90725 11.90726,11.90726 v 11.90726 l 23.81451,11.90726 23.81452,11.90725 h 11.90726 l 11.90725,23.81209 h 23.81212 l 11.9072,-11.90483 23.8145,11.90483 v 35.72177 l -11.9072,11.90726 -23.8145,23.81452 v 35.71934 l 11.9072,11.90726 h 11.9073 l 23.8121,11.90726 11.9072,11.90725 23.8146,11.90726 23.812,35.71935 11.9072,35.72177 11.9073,11.90726 v 23.81451 h 35.7218 l 11.9072,-11.90726 23.8145,-11.90725 23.8123,-11.90726 h 59.5337 l 11.9072,23.81451 V 512 l 11.9073,11.90726 23.8145,11.90726 v 35.72177 l 11.9073,23.81209 11.9072,23.81451 h 23.8145 l 47.62684,-11.90726 H 1024 l -11.9072,11.90726 -11.9073,11.90726 -23.81224,11.90726 z"
     style="clip-rule:evenodd;fill:#000000;fill-rule:nonzero;stroke:none;stroke-width:24.8088px"
     id="path1228" />
</svg>
