<?xml version="1.0" encoding="UTF-8" standalone="no"?>
<svg
   xmlns:dc="http://purl.org/dc/elements/1.1/"
   xmlns:cc="http://creativecommons.org/ns#"
   xmlns:rdf="http://www.w3.org/1999/02/22-rdf-syntax-ns#"
   xmlns:svg="http://www.w3.org/2000/svg"
   xmlns="http://www.w3.org/2000/svg"
   xmlns:sodipodi="http://sodipodi.sourceforge.net/DTD/sodipodi-0.dtd"
   xmlns:inkscape="http://www.inkscape.org/namespaces/inkscape"
   version="1.0"
   width="1024pt"
   height="1024pt"
   viewBox="0 0 1024 1024"
   preserveAspectRatio="xMidYMid meet"
   id="svg2211"
   sodipodi:docname="vector.svg"
   inkscape:version="1.0.2-2 (e86c870879, 2021-01-15)">
  <defs
     id="defs2215" />
  <sodipodi:namedview
     pagecolor="#ffffff"
     bordercolor="#666666"
     borderopacity="1"
     objecttolerance="10"
     gridtolerance="10"
     guidetolerance="10"
     inkscape:pageopacity="0"
     inkscape:pageshadow="2"
     inkscape:window-width="1366"
     inkscape:window-height="697"
     id="namedview2213"
     showgrid="false"
     inkscape:zoom="0.1940918"
     inkscape:cx="1266.7524"
     inkscape:cy="760.26375"
     inkscape:window-x="-8"
     inkscape:window-y="-8"
     inkscape:window-maximized="1"
     inkscape:current-layer="svg2211"
     fit-margin-top="0"
     fit-margin-left="0"
     fit-margin-right="0"
     fit-margin-bottom="0" />
  <metadata
     id="metadata2205">
Created by potrace 1.10, written by Peter Selinger 2001-2011
<rdf:RDF>
  <cc:Work
     rdf:about="">
    <dc:format>image/svg+xml</dc:format>
    <dc:type
       rdf:resource="http://purl.org/dc/dcmitype/StillImage" />
    <dc:title></dc:title>
  </cc:Work>
</rdf:RDF>
</metadata>
  <path
     d="m 370.87106,362.16874 h -0.60056 v 0.60069 h 0.60056 z m -1.80169,1.20113 v -2.40214 h 0.60056 v 0.60057 h 1.8017 v 0.60044 h 0.60056 l -0.60056,-0.60044 v -1.20113 h 0.60056 v 2.40226 h 0.60057 v 1.80157 h -0.60057 v 0.60057 l -0.60056,0.60056 h -0.60057 v -0.60056 H 370.2705 V 364.571 h -0.60057 v -1.20113 z m 10.20911,-9.00823 v -2.40226 h 2.40226 v 0.60057 h -0.60056 v 0.60056 h -0.60045 v 0.60057 h 0.60045 v -0.60057 h 0.60056 v 1.8017 h -0.60056 v 1.201 h -1.8017 v -0.60044 h 1.20125 v -0.60056 h -0.60056 v -0.60057 z m 0.60069,-10.8098 v -0.60057 h 0.60056 v 0.60057 h 1.20101 v 3.60327 h -0.60056 v 0.60056 h -1.8017 v 1.8017 h -0.60044 v 0.60044 h -0.60057 v 1.20113 h -0.60044 v 1.20113 h -0.60069 v 0.60056 h 0.60069 v 0.60045 h 0.60044 v 0.60056 h -0.60044 v 0.60057 h -0.60069 v 0.60056 h -0.60056 v 0.60057 h -0.60057 v 0.60056 h -1.20112 v -1.20113 h 0.60056 v -1.20113 l 0.60044,-0.60056 v -1.80158 h 0.60057 v -1.80169 h 0.60056 v -1.80157 h 0.60069 v -1.20113 h 0.60044 v -1.20113 h 0.60057 v -0.60045 l 0.60044,-1.2e-4 v -0.60044 l 0.60069,-1.2e-4 v -0.60045 h -0.60069 v -0.60044 z m -7.80722,-8.40767 v -0.60056 h 0.60056 v 0.60056 h 0.60045 v 0.60057 h 0.60056 v -1.20113 h 1.20113 v 0.60056 h -0.60056 v 0.60057 h -0.60057 v 0.60056 h -1.80157 v 3.00271 h -0.60057 V 338.147 h -0.60056 v -1.8017 h 0.60056 v -0.60056 h -0.60056 v -0.60057 z m -11.41037,-79.87648 v -0.60057 h 0.60057 v -0.60056 h 0.60056 v 1.20101 h 0.60057 v 1.80169 h 0.60056 v 0.60057 h -0.60056 v 0.60056 h 0.60056 v 2.40226 h -0.60056 v 0.60057 h 0.60056 l -0.60056,0.60044 v 1.20113 h -0.60057 v 2.40214 h -0.60056 v 0.60056 h 0.60056 v 0.60057 h -0.60056 v 0.60056 h -2.40214 v -0.60056 H 357.659 v -0.60057 h -1.20125 v -0.60056 h -0.60057 v -0.60045 h -1.20113 v -1.80169 h -1.201 v -1.20113 h -0.60057 v -1.20113 h 0.60057 v -0.60044 h 0.60056 v -0.60057 h 0.60044 v -0.60056 h 1.20113 v -0.60057 h 0.60057 v -0.60056 h 1.20125 v -0.60057 h 0.60044 v -0.60056 h 1.20101 v -0.60056 h 0.60069 v -0.60057 z m 306.25506,11.41061 v -1.80169 h 0.6007 v 1.20113 h 1.2008 v 0.60056 z m 7.2065,-18.61702 v -0.60056 h 3.0031 v 0.60056 h 1.801 v 0.60057 h 1.2015 v 0.60056 h 0.6008 v 0.60057 h 1.2005 l 0.601,0.60056 v -1.20113 h 0.6005 v -0.60056 h -0.6005 v -2.40215 h 0.6005 v -0.60057 h 0.6004 v -0.60056 h 1.2013 V 244.458 l 2.4023,-1.1e-4 v 1.20124 h -0.6009 v 0.60057 h -1.2008 v 0.60056 h -1.2014 v 2.40215 h 0.6008 v 1.20113 l 0.6006,0.60057 -0.6006,0.60056 -1.2013,0.60057 -0.6004,1.20099 -0.6005,1.20113 v 2.40227 h -0.601 v -1.8017 h -1.2005 v -0.60057 h -1.2014 v 1.20102 h -0.6009 v 0.60056 h -0.6001 v 0.60057 h -0.6003 v 0.60056 h -0.6004 v 1.20113 h -1.8017 v -0.60056 h -0.6007 v 0.60056 h -2.4023 v 0.60057 h -1.2013 v 0.60056 h -0.6004 v -0.60056 h -0.6003 v -0.60057 h -0.6007 v -1.80169 h -0.6008 v -1.80169 h 0.6008 v -0.60057 h 0.6007 v -0.60056 h 0.6003 v -0.60057 h 0.6004 v -1.20102 h 0.6006 v -0.60056 h -0.6006 v -0.60057 h 0.6006 v -0.60056 h -0.6006 v -0.60057 h 0.6006 v -1.20112 h 0.6007 v -0.60057 h 1.2009 z m -231.18942,-3.00282 h -0.60008 v -0.6007 h 2.40214 v 0.60057 h 0.6002 v 0.60045 h -2.40226 z m -65.45363,-1.20102 v -1.20113 h 0.60044 v 0.60056 h 0.60069 v 0.60057 h -0.60069 v 0.60045 h 0.60069 v 0.60057 h -1.20113 v -0.6007 h -0.60069 v -0.60043 z m 66.65635,-4.20382 h -0.60081 v -0.60057 h 1.2015 v 1.20113 h -0.60069 z m -24.62292,-1.8017 h -0.60032 v -0.60045 h 1.80157 v 0.60045 h 0.60081 v 1.20113 h -1.20174 l -0.60032,-0.60056 z m -2.40238,-0.60045 v -1.20113 h 1.2015 v 0.60056 h 0.60056 v 0.60057 z m 17.41614,-2.40226 h -0.60081 v -0.60056 h 1.20101 v 0.60056 h 0.60056 v 0.60056 h 0.60081 v 0.60057 h -3.00319 v -0.60057 h 1.20162 z m -24.02211,-3.60326 0.60044,-0.60056 h 1.80145 v 0.60056 h 1.20113 v 0.60057 h 0.60032 v 0.60043 h 0.60057 v 0.60057 h -1.20089 v -0.60057 h -0.6002 l -0.60093,0.60057 v 0.60056 h -1.201 v -0.60056 h -0.60045 v -0.60057 h -0.60044 v -0.60043 h -1.20137 v -0.60057 z m -5.40533,-1.80169 v -0.60057 h 1.20113 v 0.60057 h 0.60044 v 1.20113 h 0.60057 v 0.60056 h -0.60057 v 0.60057 h -0.60044 v 0.60043 h -0.60056 v -0.60043 h -0.60057 v -0.60057 l -0.60056,0.60057 v -0.60057 h -0.60045 v -1.20113 h 0.60045 v -0.60056 z m 28.82651,-3.60328 h -0.60081 v -0.60056 h 1.80181 v 0.60056 h 1.20138 v 0.60057 h -1.20138 v 0.60056 h -0.60032 v -0.60056 h -0.60068 z m -7.20642,-3.00269 v -0.60057 h 0.60045 v 0.60057 h 1.20149 v 0.60043 h 0.60057 v 1.20113 l -0.60057,0.60057 v -0.60057 h -0.60117 v -0.60056 h -1.20077 v -0.60057 h -0.60032 v -0.60043 z m 13.21207,-0.60057 v -0.60056 h 2.4025 v 0.60056 h 0.60008 v 1.201 h 0.60068 v 0.60057 h -0.60068 v 1.20113 h -0.60008 v -1.20113 h -0.60044 v -0.60057 h -0.60093 v 0.60057 h 0.60093 v 1.20113 h -1.20174 v -0.60057 H 439.932 v 0.60057 h -0.60008 v 0.60056 h -0.60069 v -1.20113 h -0.60105 v -0.60056 h 1.20174 v -1.80157 z m -4.8044,-1.20113 v -0.60056 h 0.60056 v 0.60056 h 1.8017 v 1.20113 h 0.60032 v 1.201 h -1.80121 v 0.60057 h -0.60081 v 0.60056 h -1.20088 v -1.20113 h -1.2015 v -0.60043 h 0.60081 v -1.8017 z m -6.60548,1.20113 h -0.60118 v -0.60056 h 3.00307 v 0.60056 h 0.60081 v 0.60057 h -0.60081 v 0.60043 h -1.20113 v -0.60043 h -1.20076 z m 18.61678,-10.81005 v -0.60057 h 0.60032 v 0.60057 h 0.60044 v 1.20113 h 0.60081 v -0.60057 h 0.60069 v 0.60057 h 1.20064 v 0.60045 h 0.60081 v 1.80169 h -1.20101 v -0.60056 h -0.60044 v 0.60056 h 0.60044 v 0.60057 h 0.6002 v 1.201 h -1.20064 v -0.60044 h -0.60069 v 0.60044 h 0.60069 v 0.60056 h -1.2015 v -2.40213 h -0.60044 v -0.60056 h 1.20125 v -0.60057 h -0.60081 v -0.60056 h -0.60044 v 0.60056 h -0.60032 v -0.60056 l -0.60057,-0.60045 0.60057,-0.60057 h -0.60301 v -0.60056 z m -9.6088,3.00271 v -0.60057 h 1.20138 v -0.60056 h 0.60068 v 1.20113 h 0.60008 l -0.60008,-0.60057 h 0.60008 v 1.8017 h -1.20076 v 0.60056 h -0.60106 v -0.60056 h -0.60032 v -0.60057 h -1.80169 v -0.60056 h 0.60081 v -0.60057 h 0.60068 v 0.60057 z m 4.80464,-0.60057 v -1.80158 h 0.6002 v 1.80158 h 0.60057 v 0.60057 h -2.40214 v -0.60057 z m 7.80674,-3.60327 h -0.60032 v -0.60057 h 1.80133 v 0.60057 h -0.60069 v 1.20113 h 0.60069 v -0.60057 h 1.20113 v -0.60056 h 1.80181 v 0.60056 h 0.60057 v 0.60057 h 0.6002 v 1.20113 h -0.6002 v 0.60045 h -1.80206 v 0.60056 h -0.60032 v -1.80158 h -2.40214 v -0.60056 h -0.60032 v -0.60057 h 0.60032 z m 6.60609,1.20113 h -0.60118 v -1.20113 h 2.40226 v 1.20113 h -1.20051 v 0.60056 h -0.60057 z m -75.0656,-5.4052 v -1.20102 h 0.60068 v 0.60057 h 0.60057 v 1.20101 h -0.60057 v 1.8017 h -0.60068 v -0.60057 h -0.60045 v -0.60056 h -0.60044 v -1.20113 z m 31.82933,-19.82049 v -1.8017 h 2.40226 v 0.60057 h -1.2015 v 0.60056 h 1.2015 v 0.60057 l -0.60094,0.60045 h 0.60094 v 2.40226 h -0.60094 v -1.20113 h -0.60056 v 0.60057 h -0.60032 v 0.60056 h -0.60044 v -0.60056 h -0.60081 v 0.60056 h 0.60081 v 0.60057 h -1.2015 v 0.60056 h 0.60069 v 0.60057 h -0.60069 v 0.60056 h -0.60032 v 1.80156 h -0.60032 v -1.80156 h 0.60032 v -3.00282 h -0.60032 v 0.60056 h -0.60069 v 0.60057 h -0.60081 V 187.403 h 0.60081 v -0.60057 h -0.60081 v -1.20102 h 0.60081 v -0.60056 h 0.60069 v -0.60057 h 0.60032 v 1.8017 h 0.60032 v 0.60045 h 0.60069 v -0.60045 z m 158.53444,3.00271 h -0.601 v -1.20113 h 0.601 V 187.403 h 1.201 v 1.80169 h -0.6003 v 1.20113 h -0.6007 z m -61.24904,-0.60056 v -0.60057 h 1.20089 v 0.60057 h 0.60044 v 0.60056 h -3.00282 v -0.60056 z m 57.04964,9.00847 h -0.6004 v 0.60056 h 0.6004 z m 100.8842,40.23699 h -2.4024 v 1.20113 h 2.4024 z m -3.0028,0.60056 h -0.6003 v 1.20102 h 0.6003 z m -1.2008,1.20102 h -0.601 v 0.60056 h 0.601 z m -18.0165,51.05107 h -0.6009 v 0.60057 h 0.6009 z m -12.0113,0 h -0.6004 v 0.60057 h 0.6004 z m -67.2528,-87.67917 h -0.6006 v 0.60056 h 0.6006 z m 0,-3.00271 h -0.6006 v 1.20101 h 0.6006 z m 54.0478,-64.86249 v 1.20113 h 1.2007 v 1.20113 h 0.6007 v 0.60057 h -1.8014 v -0.60057 h -1.8018 v 1.80158 h -0.6003 v 0.60057 h -0.6007 v 3.00269 h -1.2014 v 0.60057 h -0.6003 v 0.60056 h -1.8018 v 0.60057 h -0.6004 v 0.60056 h -3.0025 v 0.60057 h -0.6006 v 1.20101 h -0.6011 v -0.60056 h -0.6004 v 0.60056 h -0.6003 v 0.60057 h -0.6004 v 0.60056 h 0.6004 v 0.60057 l 0.6003,-0.60057 h 1.8021 v -0.60056 h 1.8013 v 0.60056 h 1.2012 v 0.60057 h 1.2007 v -1.20113 h 1.2015 v 0.60043 h 1.2008 v -0.60056 h 0.6009 v -0.60057 h 2.4023 v -0.60056 h 0.6005 v 1.80169 h -1.2015 v 0.60057 h 0.601 v 0.60056 h -2.4023 v 2.40226 h 0.6007 v -0.60056 h 1.2006 v -0.60057 h 1.8019 v -0.60056 h 0.6003 v -0.60057 h 0.6007 v -1.20113 h 0.6008 v -0.60056 h 0.5981 v 0.60056 h 1.8014 v 1.20113 h 0.6008 l 0.6003,-0.60056 v 0.60056 h 1.8019 v -0.60056 h -1.2015 v -0.60057 h 0.6009 v -0.60056 h 1.2009 v 1.20113 h 0.6003 v 0.60056 h 1.2015 v -0.60056 h 0.6006 v 0.60056 h 1.2009 v 1.20113 h 0.6008 v 0.60057 h 1.2006 v 0.60056 h -0.6002 v 0.60057 h -1.8019 v 0.60056 h 1.2015 v 0.60045 h -0.6008 v 0.60057 h -0.6007 v 0.60056 h 0.6007 v -0.60056 h 0.6008 v 0.60056 h -0.6008 v 0.60057 h -0.6007 v 0.60056 h -1.2008 v 1.20113 h 0.6006 v 0.60057 h -1.2011 v 1.20113 h -0.601 v -0.60057 h -0.6003 v 1.80157 h 0.6003 v 2.40226 h -0.6003 v 2.40226 h -0.6003 v -1.20113 h -0.6006 v -0.60057 h -0.6009 v 0.60057 h -0.6004 v 0.60056 h 0.6004 v 1.20102 h 0.6009 v 1.20113 h 2.4022 v 0.60056 h 0.6005 v -1.20113 h 0.6006 v 0.60057 h 0.6002 v -0.60057 h 0.6007 v -0.60056 h 1.8014 v -0.60045 h 1.8021 v 0.60045 h 0.6002 v 0.60056 h 0.6005 v -0.60056 h 0.6011 v -0.60045 h 0.6006 v -0.60057 h 0.6003 v -1.20113 h 0.6001 v -3.00282 h 0.6008 v -0.60044 h -0.6008 v 0.60044 h -0.6001 v -2.40213 h -0.6003 v -0.60057 h 2.402 v -0.60056 h 0.6004 v 1.80169 h 0.6004 v -0.60056 h 0.6003 v -0.60057 h 0.601 v 0.60057 h 2.4024 v -0.60057 h 1.8011 v -0.60056 h 1.8018 v -0.60057 h 0.6003 v -0.60056 h 0.6008 v 0.60056 h 1.2014 v -0.60056 h 0.6002 v 0.60056 h 0.6006 v 0.60057 h 0.6008 v 0.60056 h 0.6007 v -0.60056 h 0.6002 v 0.60056 h 0.6004 v -0.60056 h 0.6011 v 0.60056 h 0.598 v -1.20113 h 0.6003 v -0.60056 h 0.6003 v -0.60057 h 0.6011 v -0.60056 h 1.8012 v -0.60057 h 0.6005 v 1.201 h 1.8016 v -0.60056 h 1.2015 v -1.201 h 1.2009 v 1.201 h -0.6003 v 0.60056 h 0.6003 v 1.20113 h 0.6003 v -1.20113 h 3.0031 v 3.00283 h 0.6005 v -0.60057 h 1.8016 v 0.60057 h 1.2013 v 0.60056 h 0.6003 v 1.20113 h 0.6004 v 0.60057 h 1.2015 v 0.60056 h 0.6002 v 1.20102 h -0.6002 v 2.40226 h -0.6005 v 0.60056 h 0.6005 v -0.60056 h 0.6002 v -1.20113 h 0.6006 v -1.20113 h 1.2015 v 0.60056 h 0.6003 v 0.60057 h 1.201 v 0.60056 h 0.6008 v 0.60057 h 0.6005 v 0.60056 h 1.2007 v 0.60044 h -0.6005 v 2.40226 h 0.6005 v 1.20113 h -0.6005 v -0.60057 h -0.6002 v 0.60057 h 0.6002 v 1.20113 h 0.6005 l 0.6008,-0.60057 v 0.60057 h 0.6006 v 0.60056 h 0.6004 v 1.20113 h 0.6007 v 0.60045 h -0.6007 v 0.60057 h -0.6004 v 0.60056 h -0.6006 v 0.60057 h -0.6008 v 0.60056 h 0.6008 v -0.60056 h 1.201 v -0.60057 h 1.2014 v -0.60056 h 0.6005 v -1.80158 h -0.6005 v -0.60057 h 0.6005 v -0.60056 h 0.6004 v -1.20113 h -1.8016 v -1.20113 h -0.6007 v -0.60057 h 1.2014 v -0.60056 h 0.6005 v 0.60056 h 0.6004 v -0.60056 h 0.6002 v 1.80169 h 0.6011 v -0.60056 h 0.6005 v 0.60056 h 0.6003 v 1.20113 h 0.6004 v 3.00271 h 0.5982 v 0.60057 h 0.6007 v 1.80156 h 0.6007 v 1.20113 h -1.2014 v 0.60057 h 0.6007 v 0.60056 l 0.6007,0.003 h 0.6002 v 1.20113 h 0.6004 v 0.60057 h 0.6011 v -0.60057 h -0.6011 v -1.80158 h 0.6011 v 0.60056 h 0.6004 v -0.60056 h 1.2008 v 0.60056 h -0.6004 v 0.60057 h 0.6004 v 0.60056 h 0.6009 v 4.20371 l -0.6009,0.60057 h 0.6009 v 4.80441 h -0.6009 v 1.80169 h -1.8012 v -0.60056 h 0.6004 v -0.60057 h 0.6004 v -3.00271 h -2.4023 l -0.6002,-0.60057 v 0.60057 h -1.2014 v -0.60057 h -0.6008 v -0.60056 h -0.6001 v -0.60057 h -1.8019 v -0.60056 h -0.6005 v -0.60057 h -0.6003 v -0.60056 h -1.2014 v -0.60057 h -3.0028 v 0.60057 h 1.8019 v 1.80169 h 1.2009 v -0.60056 h 0.6008 v 0.60056 h 1.8014 v 1.20102 h 0.6009 v 1.20113 h -1.2014 v -0.60056 h -0.6003 v 0.60056 h 0.6003 v 0.60057 h 0.6005 v 0.60056 h 0.6009 v 0.60057 h 0.6006 v 0.60056 h -0.6006 v 2.40213 h 1.8011 v -0.60057 h 0.6008 v -0.60056 h -0.6008 v -1.80156 h 0.6008 v -1.20113 h 0.6007 v -0.60057 h 1.2009 v 0.60057 h -0.6002 v 0.60056 h 0.6002 v 1.8017 h 0.6004 v 0.60043 h 0.6011 v 1.20113 h 3.603 v 1.20113 h 0.6003 v 1.20102 h -0.6003 v 0.60056 h -0.6002 v 0.60057 h -0.6007 v 0.60056 h 0.6007 v -0.60056 h 1.2005 v 5.40484 l -0.6003,0.60056 v 1.20113 h -0.6002 v 0.60057 h -0.6007 v 1.80156 h -0.6009 v 1.80169 h -0.6004 v 0.60057 h -1.2008 v 0.60056 h 0.6004 v 0.60057 h -0.6004 v 1.80158 h -0.6011 v 1.8017 h -0.6004 v 0.60056 h -1.2009 v 0.60043 h -0.6007 v 0.60057 h -1.2009 v 0.60056 h -1.201 v 0.60057 h -0.6009 v 3.00282 h -0.6005 v 1.80159 h -0.6003 v 0.60056 h 0.6003 v 0.60057 h -0.6003 v 0.60056 h -0.6006 v 1.20113 h -3.6036 v 0.60043 h -0.6001 v 0.60057 h -0.6008 v 1.20113 h -0.6005 v 1.80158 h -0.601 v 1.20113 h -1.2004 v 0.60057 h -0.6005 v 0.60056 h -0.601 v 0.60056 h -1.2007 v 0.60057 h -1.2015 v 0.60056 h -0.6006 v -0.60056 h -1.2009 v 0.60056 h 0.6006 v 0.60057 h 0.6003 v 1.80156 h -0.6003 v 0.60057 h -0.6006 v 1.20113 h -1.8015 v 0.60056 h -0.6005 v 0.60057 h -0.6007 v 0.60056 h -0.6008 l 0.6008,0.60045 h 0.6007 v 4.80452 h -0.6007 v 0.60057 h -0.6008 v 0.60056 h -0.6003 v 1.201 h -0.6005 v 1.20113 h -1.2016 v 0.60057 h -1.2005 v 0.60056 h -1.8021 v 0.60057 h -0.6003 v 1.20113 h -0.6004 v 1.20101 h -0.6008 v 0.60057 h -0.6007 v 1.20113 h -0.6004 v 1.20113 h -0.5979 v 2.40213 h -0.6003 v 1.80414 h -0.6011 v 1.20113 h -0.6003 v 1.20113 h -0.6003 v 0.60057 h -0.6007 v 1.20113 h -0.6008 v 0.60056 h -1.8014 v 0.60057 h -0.6009 v 0.60044 h -0.6006 v 0.60057 h -0.6002 v 0.60056 h -0.6005 v -0.60056 h -1.8017 v 0.60056 h -1.8021 v 0.60057 h -0.6003 v 1.20113 h -0.6003 v 0.60056 h -0.6005 v 1.20113 h -0.6008 v 1.20101 h -0.6007 v 1.20113 h -1.2008 v 4.8044 h -0.6009 v 0.60056 h -1.2007 v 0.60057 h -0.6005 v -0.60057 l -0.6009,0.60057 v -0.60057 h -3.0028 v 0.60057 h -0.6005 v 1.20113 h -0.6002 v 3.0027 h -0.6004 v -0.60057 h -0.6011 v 0.60045 h 0.6011 v 1.20113 h 0.6004 v 0.60056 h -1.2015 v 0.60057 h -0.6004 v 3.0027 h 1.2015 v 0.60056 h -0.6011 v 1.20113 h -0.6004 v 0.60057 l -0.6004,0.60056 h 0.6004 v 0.60057 h 0.6004 v 1.20101 h -0.6004 v 0.60056 h -0.6004 v 0.60057 h -0.6006 v -0.60057 h -0.6007 v 0.60057 h -0.6007 v 0.60056 h -0.6003 V 295.51 h -3.0025 v 0.60057 l 0.6004,0.60056 h 1.8018 v 0.60057 h 0.6003 v -0.60057 h 1.201 V 295.51 h 0.6007 v -0.60056 h 0.6006 v -1.20113 h 0.6004 v -0.60057 h 0.6004 v -0.60056 h 1.2015 v -2.40226 h 1.2007 v 0.60056 h 1.8018 v 0.60057 h 0.6003 v -1.20113 h 0.6007 v 0.60056 h 1.2014 v 0.60057 h 1.8016 v -0.60057 h -0.6009 v 0.60057 l -0.6003,-0.60057 h -0.6004 v -0.60056 h -0.6005 v -0.60057 h -1.2016 v -0.60056 h -1.2005 v 0.60056 h 1.2005 v 0.60057 h -1.8011 v -5.40472 h -0.601 v -0.60057 h 0.601 v -0.60056 h -0.601 v -0.60057 h 1.2016 v -1.80169 h 1.8012 v 0.60056 h 1.2014 v 0.60057 h 3.6031 v -1.20113 h 4.8042 v -0.60044 h 1.2015 v 0.60044 h 0.6005 v -0.60044 h 2.4023 v -1.20113 h 0.6002 v -0.60057 h 0.6006 v -1.20113 h 2.4021 v 0.60057 h 0.6011 l 0.6003,-0.60057 v 0.60057 h 0.6005 v -1.20113 l -0.6005,-0.60057 h -1.2014 v 0.60057 h -0.6003 v -1.20101 h 0.6003 v -0.60057 h 1.2014 v -0.60056 h 1.8014 v -0.60057 h 1.2012 v -0.60056 h 1.201 v -0.60057 h 1.2015 v -0.60056 h 0.6003 v -0.60057 h 1.8019 v -0.60056 h 0.6003 v -0.60057 h 0.6005 v -0.60056 h -1.2008 v -1.20113 h -0.6005 v -0.60057 h 1.2008 v 0.60057 h 0.6005 v 0.60056 h 0.6007 v 0.60057 h 0.6005 v -1.20113 h -0.6005 v -0.60057 h -0.6007 v -1.201 l 0.6007,0.60044 h 0.6005 v 0.60056 h 0.6005 l 0.6003,0.60057 h 1.8021 v -0.60057 h 2.4022 v -0.60056 h -0.6005 v -1.20113 h 1.2007 v -0.60057 h 0.6006 v -1.80157 h -0.6006 v -0.60056 h 1.8021 v -1.20113 h 0.6003 v -1.20113 h 0.6003 v -0.60057 h 0.6007 v 0.60057 h 0.6008 v -0.60057 h 0.6005 v -0.60056 l 0.6002,-0.60057 h 0.6005 v -0.60044 h 0.6008 v -0.60057 h 1.8017 l 1.2012,1.20101 0.6004,1.20113 -0.6004,0.60057 -1.2012,-0.60057 h -1.2011 v 3.00283 l -1.2014,3.60326 -4.8039,0.60057 v 1.20113 l 1.8012,0.60056 2.4022,0.60057 0.6005,2.40214 -1.2007,1.20113 -0.6005,1.201 1.2007,1.20113 2.4023,-1.20113 1.8019,0.60057 0.6004,0.60056 -0.6004,1.20113 1.2006,1.20101 v 1.8017 l -1.2006,0.60056 -0.6005,1.20113 h 1.8011 v 1.8017 l -0.6002,1.80157 0.6002,1.80169 v 1.20101 l 0.6011,2.40226 0.6005,3.00283 1.2007,-0.60057 0.5982,0.60057 v 1.80157 h 2.402 l 1.2015,1.20113 0.6004,1.80169 -1.2008,1.20101 v 1.8017 l 1.2008,1.20113 1.802,-0.60057 1.2005,1.20113 1.8019,-0.60056 1.201,1.20113 0.6009,1.80157 -0.6009,1.80169 h 1.8016 l 0.6007,1.20113 1.8016,0.60057 h 0.6004 l 0.6011,2.40213 1.2009,4.20384 0.6003,4.80439 1.2012,3.60327 1.8017,4.8044 v 3.60339 l 0.6006,1.20101 h 1.2009 l 1.2015,0.60056 1.2007,0.60057 1.802,1.80414 1.8016,-0.60057 0.6005,0.60057 0.6006,1.80169 -1.8021,0.60057 0.601,1.80157 0.6005,1.20113 -0.6005,1.80169 h -1.201 l -0.6006,1.8017 -0.6005,0.60044 -1.2015,-1.20101 h -0.6002 l -1.2013,3.00271 -1.8016,0.60056 -3.003,1.8017 -0.6005,2.40213 -2.4023,0.60057 -1.2005,1.80157 -1.8022,1.20113 -2.4022,1.20113 -1.8014,0.60057 -0.6009,2.40226 -1.8012,0.60044 -1.2013,1.20113 -0.6004,1.20101 0.6004,1.20113 -0.6004,0.60056 v 2.40226 l 1.8017,0.60057 0.6007,0.60056 1.2005,1.20113 -1.8012,1.20101 -3.0032,0.60056 -2.402,0.60057 h -0.6008 l -0.6001,1.20113 0.6001,1.20101 v 2.40226 l -1.2005,0.60056 -1.2015,0.60057 v 1.80157 l 1.2015,1.20113 v 2.40226 l 1.2005,0.60044 h 0.6008 v 1.20113 l -0.6008,1.20113 v 3.0027 l -0.6001,3.00283 v 1.20113 l -2.4024,0.60044 h -2.4022 l -0.6004,-0.60044 v -1.8017 h -1.2014 l -1.8014,0.60057 h -3.0024 l -1.2015,0.60056 -1.8017,1.20101 -0.6006,1.20113 -1.2009,3.0027 -0.6007,0.60057 h -1.8013 l -1.8018,1.20113 -1.8021,0.60056 -1.2005,1.20113 -0.6005,0.60057 -1.8019,1.201 -1.2012,1.20113 -1.799,0.60057 h -3.0027 l -2.4022,-1.20113 -1.2015,1.80169 -1.2007,2.40214 -0.6008,0.60057 -0.6007,2.40226 6.0061,7.80979 5.4047,9.00847 1.8015,7.80722 1.2014,16.21489 0.6004,10.20912 v 9.00847 l 0.6002,5.40484 v 6.60854 l -1.2006,1.20113 h -1.2014 l -1.8015,-0.60057 -1.2013,1.8017 -0.6004,1.20101 -1.2008,0.60056 h -1.8017 v 3.0027 l -0.6006,1.8017 -1.2014,0.60056 h -2.4024 l -1.2007,0.60057 h -1.2015 l -0.6002,1.20113 3.0024,1.80157 1.2015,-0.60057 h 1.8014 l 0.6009,1.8017 h 1.2009 l 1.2014,-0.60057 v 1.8017 l -0.6011,1.80157 0.6011,0.60057 1.2008,-0.60057 0.6004,1.8017 1.2013,1.20113 v 2.40213 l 0.6005,1.8017 0.6003,3.0027 -0.6003,0.60057 v 1.20113 l -1.2012,1.20113 0.6007,6.60597 v 2.40226 h 1.8015 l 2.402,1.80169 0.6012,1.80157 0.6004,2.40214 v 3.00283 l 0.6003,3.0027 v 4.20383 l 3.6033,1.8017 1.2013,1.80157 1.2009,1.20113 h 2.4021 l 0.6009,0.60056 -1.2014,1.20113 -1.2008,0.60057 v 3.0027 h -3.003 l -1.8014,1.8017 -0.6007,1.20113 v 1.80157 l 1.201,1.80169 h -1.8017 l -1.2008,2.40214 -1.8018,1.20113 v 1.20113 l -1.8018,0.60057 -0.6007,1.20112 0.6007,1.20101 1.2014,1.20113 v 1.20113 l 1.8018,1.20101 -1.8018,0.60057 -1.2014,-1.20101 -0.6007,0.60044 -0.6003,1.20113 0.6003,1.80169 -0.6003,1.20113 -0.6005,1.80415 0.6005,1.20113 v 1.201 h -2.4022 l 1.201,2.40214 -0.6006,1.20125 1.2013,0.60045 v 1.8017 l 1.2008,0.60056 0.6007,-0.60056 1.2014,-1.8017 1.8018,0.60056 0.6004,1.8017 -0.6004,1.20113 1.2007,0.60057 1.8019,-0.60057 2.4021,-0.60056 1.8015,-0.60057 0.6008,-0.60056 -0.6008,-1.8017 1.2014,-0.60045 0.6002,0.60045 0.6005,1.8017 0.6009,1.80169 1.8012,-0.60056 h 1.2015 l 0.6005,1.80169 h 4.2039 l 0.6006,3.0027 2.4021,-0.60057 1.2007,-0.60056 h 1.199 l 2.4023,0.60056 1.8012,0.60057 1.2016,1.20101 h 1.8016 v -1.20101 l 2.4018,0.60056 1.2013,1.80158 v 1.20113 l 1.8019,1.20113 0.6006,1.201 -0.6006,1.8017 -0.6009,2.40226 -1.201,-1.20113 -3.6031,1.20113 h -2.4022 l -3.0032,0.60056 v 2.40215 l -1.2007,1.20113 h -2.4023 l -1.8019,-1.8017 -0.6003,-0.60045 -0.6005,1.20102 -1.2014,1.20113 -1.8014,-1.20113 -2.4023,-0.60057 -1.8015,-0.60045 -0.6004,0.60045 1.2005,2.40226 v 4.80439 l -0.6001,1.20113 -0.6004,2.40215 0.6004,1.80156 -0.6004,1.20113 -1.2015,1.80169 1.2015,1.80159 1.2005,1.20113 1.2014,1.20113 0.6008,1.20113 -0.6008,1.20113 -1.8015,1.20113 -1.8019,-1.20113 -1.2007,1.20113 -0.6006,2.40212 1.8013,1.20113 v 3.00272 l -0.6005,1.20113 -0.6002,0.60056 -2.4023,0.60057 0.6002,1.80156 v 2.40226 l 1.2015,1.20113 1.8013,1.20102 1.2015,2.40226 h 1.2005 l 0.6009,1.20099 -0.6009,1.8017 1.2014,1.80169 1.8015,0.60057 h 2.4022 v 1.20113 l -1.2009,1.20102 0.6005,1.80169 -1.201,1.80401 -1.8015,2.40226 -0.6008,0.6007 -0.6005,1.80156 -1.201,1.80158 0.6001,1.20113 0.6009,0.60068 v 3.60315 l -0.6009,2.40214 -1.2005,1.20125 -1.802,2.40214 -3.0025,3.00283 -1.2012,1.80156 0.6005,1.8017 1.2009,1.20113 v 1.20113 l -1.2009,1.80169 -1.2014,0.60045 h -3.0024 l -0.6003,1.8017 -1.2016,1.20113 -2.4022,1.20113 -1.2009,1.80156 -0.6003,1.20113 -1.2016,1.20102 -3,1.20113 -0.6003,0.60043 -0.6006,0.6007 v 1.20113 l 1.8012,1.201 0.6011,2.40214 -3.0032,2.40226 -1.8014,0.60057 v 1.80169 l -1.8015,1.20113 -0.6007,1.80157 v 2.40226 l 0.6007,1.20113 v 1.80156 l -2.4024,0.60056 0.6002,1.80159 1.2015,0.60056 0.6007,1.20113 -1.2014,2.40226 v 1.201 l 1.8014,3.60339 2.4024,2.40226 2.4023,1.80158 1.8018,1.80169 3.0026,1.201 h 1.201 l 1.8018,-1.201 1.2014,1.80157 1.8012,-0.60057 0.6007,7.20936 0.6007,1.8017 -0.6007,1.80169 v 0.60044 l 1.201,1.80169 0.6003,1.20113 -3.6028,0.60056 h -4.2043 l -1.2008,3.00272 -2.4021,1.80156 -1.8018,1.80183 1.8018,2.40212 0.6004,2.40215 3.0025,3.00283 2.4025,-0.60057 0.6002,3.00269 -0.6002,1.80183 0.6002,1.20089 2.4024,1.80169 0.6007,1.8017 0.6007,2.40226 -1.2014,1.20113 -3.0026,1.20088 -1.8018,2.40226 -2.4022,1.8017 -1.201,2.40226 -0.6004,1.20099 1.2008,2.40226 1.2013,0.60057 -0.6007,0.60056 -0.6006,1.20102 -1.8012,1.20113 -0.6011,1.201 h -2.4021 l -1.2007,1.20126 -2.4022,-0.6007 v -3.00269 l -1.8022,-0.60045 v -1.20113 l -3.0026,-0.60057 -2.4021,1.8017 -0.6004,-4.20396 v -1.20099 l -1.8018,-0.60046 h -1.2009 l -4.8042,-1.20124 -1.802,-2.40226 -1.8018,-1.20102 v -1.80169 l -2.4019,-2.40213 v -2.40226 h 2.4019 v -1.20113 h -3.0028 l -1.8012,0.60068 -2.3998,-1.20113 -2.4022,2.40215 v 1.20113 h -2.4021 l -2.4023,1.20113 -1.8019,0.60056 -0.6002,1.80145 -0.6007,2.40226 1.2009,2.40226 0.6006,1.8017 1.2013,1.20099 0.6004,2.40226 v 2.40215 l -1.2011,2.40213 -1.8014,1.20126 -1.2015,0.60056 -0.6005,1.201 -1.2008,1.8017 -1.2015,1.80169 -2.4023,1.20102 h -2.402 l -2.4021,0.60057 -1.201,1.20112 -0.6005,1.8017 -0.6008,2.40226 -1.2009,2.40202 h -2.4024 l -1.8015,1.80169 -1.201,1.80169 -1.7994,0.60057 -0.6003,1.80414 1.8016,0.60057 -1.8016,3.00269 -1.2012,1.20126 -0.6009,0.60032 0.6009,1.20113 -2.402,0.60068 -1.8017,-0.60068 h -1.2015 l 0.6011,1.8017 0.6004,1.80169 -0.6004,2.40226 v 1.201 l 0.6004,3.00271 1.8017,0.60057 0.6006,2.40226 -1.2015,1.201 h -0.6005 l -1.2007,-0.60044 -0.6011,1.201 -0.6004,1.20113 h -1.2009 l -1.2015,-2.40213 h -1.2005 l -2.4024,-1.80169 v -1.20113 l -0.6005,-1.20113 1.2009,-0.60045 -1.8019,-1.8017 0.601,-1.80156 -1.2013,-1.20113 v -1.8017 l -1.8018,-0.60056 h -1.8012 l -1.2017,-1.20102 0.6008,-1.20124 -1.201,-1.80158 0.6002,-1.201 1.2017,-1.20113 -1.2017,-1.20113 -1.2005,-1.20113 -2.4024,1.20113 h -1.2013 l -0.6006,-1.20113 -2.4023,0.60056 -1.2006,3.00283 -1.8018,1.201 v 1.80158 l -1.19847,1.20124 v 2.40226 l -3.00306,0.60045 h -2.40226 l -1.201,1.20113 -1.80183,0.60057 h -3.00258 l -0.60032,-2.40215 h -6.00565 l -2.40226,-0.60068 h -7.80721 l -3.60364,7.80722 -6.60341,14.4132 -1.80156,3.60325 4.20358,2.40226 1.20113,0.60057 -0.60044,1.80158 -2.40226,1.20124 v 1.20102 l 0.60032,1.8017 1.80194,0.60043 1.80132,-0.60043 h 1.80158 l -0.60032,5.4047 -0.60056,2.40226 1.80145,0.60046 h 1.20149 v 0.60056 l -0.60057,2.40226 v 2.40226 h -3.00307 l -2.40201,0.60057 h -1.20125 v 6.00565 h -1.80194 l -0.6002,0.60043 v 2.40226 l -1.201,1.80158 -1.20138,0.60057 -1.20076,-1.20102 h -1.2015 l -1.20064,-0.60068 -0.60057,2.40226 -2.40225,0.60057 -1.20126,4.80438 -2.40238,1.8017 -1.20064,1.20102 -0.60093,1.20369 0.60093,2.40214 -1.20162,1.20113 0.60069,0.60057 1.80157,1.20113 v 0.60043 l -1.20064,1.20113 0.60032,1.8017 -0.60032,2.40214 1.20064,1.80181 0.60057,1.80158 -0.60057,0.60044 h -2.40226 l -0.60032,1.20113 h -1.20088 l 0.60056,2.40226 v 1.20113 l -0.60056,1.20101 v 2.40226 l -1.20138,1.80157 v 1.80169 l 1.20138,1.20113 v 2.40215 l -0.60118,3.00269 -1.80096,1.80183 -0.60093,2.40226 -1.20089,1.80156 0.60032,1.80145 h -1.80182 l -1.8012,-0.60043 h -4.19906 l -1.20089,-0.60057 -1.20137,1.201 -0.60032,1.80183 -1.20126,1.20113 -2.40201,0.60056 h -1.20125 l -1.80194,0.60044 -0.6002,1.80169 v 1.20113 l -0.60044,2.4022 2.40226,0.6005 1.20076,2.4022 3.00282,2.4022 1.20126,0.6006 v 2.4022 l 0.60032,1.2012 h 1.80194 l 1.20064,3.0027 1.20174,2.4021 1.8012,1.8017 1.20126,1.8016 0.60032,1.2011 1.80194,1.201 3.00258,0.6007 v 0.6006 l -0.6002,1.8017 -3.00307,1.201 -3.00283,0.6005 -3.60326,-1.8015 -0.60032,1.8015 h -1.80194 l -0.60032,1.2036 -0.60057,0.6007 -1.80182,-1.2013 h -2.40213 l -2.40214,0.6006 -0.60044,-1.2011 -2.40226,1.8018 h -1.80194 l -0.60032,1.2009 -2.40226,0.6007 -2.40226,-1.8016 -1.8017,-0.6007 -1.80133,1.8016 -1.20161,0.6007 v -0.6007 l -1.80109,-0.6005 -4.80207,0.6005 -2.40189,1.8017 1.80108,1.8017 v 1.2011 l -1.80108,1.2011 -1.20175,3.0027 -0.60019,4.2039 -0.60032,0.6005 -0.60069,1.8017 h -4.8044 l -2.40214,1.201 -1.80194,2.4023 -0.60032,0.6004 -1.20162,3.6035 -1.80108,1.2009 -0.60093,2.4023 -0.60057,0.6006 -3.00258,2.40225 v 3.6033 l -2.40226,1.2011 -1.20088,4.8044 h -4.20396 l -1.19868,1.201 h -0.60081 l -1.80108,1.2011 -1.80182,2.4023 h -1.20137 l -2.4019,2.4023 h -1.20113 l -1.80206,1.201 -1.8012,2.4021 -1.20138,-0.6006 h -2.40214 l -1.80169,0.6006 -4.20371,0.6006 -1.20113,-0.6006 h -1.80157 l -1.20113,0.6006 h -1.20113 l -1.20101,0.6005 h -3.00038 l -2.40214,-1.2011 v -1.8017 l -1.80169,-1.201 -3.00283,0.6006 -1.20088,-0.6006 -1.8017,-1.8016 h -7.20641 l -1.20113,-1.8017 -1.20113,-0.6005 h -0.60044 l -4.20396,1.2011 -1.20113,-4.2039 -0.60044,-2.4022 -2.40226,-1.8017 -0.60056,-1.8017 -1.20113,-0.6004 1.20113,-1.8017 1.20113,-1.8016 1.80169,-2.40225 0.60044,-1.2012 1.8017,-2.4021 2.40226,-2.4021 2.40214,-1.2012 2.40226,-0.6007 1.201,-2.4021 1.8017,-0.6006 3.00282,-1.8015 1.8017,-1.2012 1.80145,-2.4022 0.60069,-3.0026 -0.60069,-2.4023 v -1.8017 l 0.60069,-0.6005 0.60044,-0.6006 v 1.2011 h 0.60056 l 0.60057,-0.6005 -0.60057,-0.6006 1.8017,0.6006 1.20113,-0.6006 1.80157,-1.2011 1.8017,-1.201 1.20113,-1.2012 1.201,-1.8017 0.60069,-1.8015 -0.60069,-1.2013 -1.201,-2.4021 -0.60057,-0.6006 -1.20125,-1.201 h -2.40202 l -1.20113,-1.2012 v -3.6032 l -0.60056,-1.8017 -1.20113,-3.6033 v -1.8016 l 1.20113,-1.201 1.20113,-1.2013 1.20113,-3.0027 0.60044,-3.0027 -1.20101,-1.80172 -0.60056,-2.40213 -0.60057,-1.80182 -1.20113,-1.80157 -0.60056,-2.40214 v -3.60339 l -0.60057,-1.80157 -1.201,-1.20113 -4.20384,-4.20384 0.60045,-1.80156 1.20125,-4.20396 -1.20125,-1.80169 h -2.40226 l 0.60068,-1.20102 -0.60068,-1.20113 h -3.60315 l -1.20113,0.60057 v -1.201 l 0.60057,-1.20113 v -0.60045 l -0.60057,-2.40226 -1.20113,-1.20113 -1.80157,-0.60068 -0.60069,-0.60045 v -1.20113 l -0.60044,-1.80157 -1.20113,0.60057 v 1.201 h -1.8017 l -0.60056,-0.60044 -2.40214,0.60044 -1.80169,0.60045 -1.8017,0.60068 -1.79912,0.60045 -0.60057,-1.20113 -0.60056,-0.60045 h -3.00259 l -0.60056,1.80158 -0.60056,0.60068 -0.60057,-1.20113 h -3.0027 l -0.60069,-3.60339 -2.40214,-0.60044 1.20101,-1.20346 -1.80157,-2.40226 v -3.6035 l -1.20101,-0.60045 -0.60056,-1.8017 h -1.20113 l -1.20113,-2.40226 -1.20113,-0.60043 1.20113,-1.20113 0.60056,-0.60057 1.20101,-1.20113 1.20125,-1.20101 1.20101,-1.20113 1.20125,-1.201 1.20089,-0.60057 h 3.00282 l 1.8017,-0.60069 h 0.60056 v -0.60044 l 1.20113,-0.60056 0.60044,-0.60057 h 1.20101 l 1.20113,-0.60056 v -1.8017 l 0.60057,-0.60045 -0.60057,-0.60056 -0.60056,-0.60057 h -0.60057 v -1.20113 l -0.60044,-1.80156 v -2.40226 l 0.60044,-1.20113 v -1.20102 l -0.60044,-1.20124 -1.20101,-0.60057 -0.60057,-1.80158 -0.60056,-1.20113 v -2.40213 h -1.20113 l -1.20113,-0.60056 -0.60056,-1.20113 v -1.20102 h -1.8017 l -1.20113,-0.60056 -0.60032,-1.20113 v -1.20113 l -1.20125,-0.60057 v -0.60043 l 0.60056,-1.8017 -0.60056,-0.60056 -1.20101,-0.60057 v -2.40214 l 0.60044,-0.60068 h 1.20113 l 0.60069,0.60068 1.20089,-1.20125 v -1.20101 l 0.60056,-0.60044 -0.60056,-1.20126 v -1.80169 l 0.60056,-1.80157 -0.60056,-1.20126 1.20125,-1.20088 1.20101,-1.8017 0.60056,-1.80169 v -1.8016 h -2.40226 l -1.20113,-0.60057 0.60057,-1.20113 1.20125,-1.20101 1.20101,-0.60068 1.20113,-0.60057 v -0.60045 l 1.20113,-1.20113 0.60056,-1.20113 0.60056,-1.201 0.60057,-1.20113 0.60044,-1.20357 1.20101,-0.6007 h 0.60057 l 0.60056,-0.60056 0.60057,-0.60057 h 1.80169 l 0.60056,-0.60043 v -0.60057 l -0.60056,-1.20113 v -0.60056 l 1.20113,-0.60045 h 0.60056 l 1.80158,-0.60068 1.80169,0.60068 1.20113,-0.60068 v -0.60045 l 0.60057,-0.60068 v -1.20113 l -0.60057,-1.20102 v -0.60043 l 0.60057,-1.20113 0.60056,-0.60045 v -3.00294 l -0.60056,-1.20102 -1.20126,-1.20113 -1.80157,-0.60043 h -3.60327 l -2.40225,-1.20126 -1.20113,-1.201 -0.60057,-1.20126 -0.60044,-0.60044 -0.60057,-1.20113 h -1.20101 l -3.60338,-1.80169 -3.00283,-0.60045 -1.80157,-1.20113 v -4.20396 l -1.20101,-1.20113 v -3.00258 l 0.60044,-2.40226 v -3.60326 l 0.60057,-1.20101 1.80157,-1.80181 6.00565,-4.80441 3.60327,-3.60326 1.80169,-1.80169 1.8017,-0.60057 3.60326,-1.20101 v -1.80157 l -1.20113,-1.80169 -1.201,-1.20113 -0.60057,-1.20113 v -4.20371 h -10.81261 l -1.8017,-0.6007 -0.60056,-0.60043 v -1.20113 l -0.60045,-1.80183 -0.60068,-1.80156 -0.60045,-1.80158 v -2.40226 l -0.60056,-2.40471 -0.60057,-1.80169 v -1.8017 l -1.20113,-0.60043 h -1.20113 l -1.80169,-0.60057 h -1.80145 v -1.80158 l 0.60044,-1.20113 v -2.40226 l -0.60044,-1.20113 -1.80182,-1.20113 -2.40214,-1.201 -2.40213,-1.20101 -1.80182,-0.60057 -1.80157,-1.20124 -2.40214,-0.60045 h -2.39969 l -3.00283,-0.60057 h -9.60879 l -1.8017,-0.60068 h -1.80157 l -1.80169,-0.60056 -2.40214,-0.60045 h -1.8017 l -2.40213,-0.60057 -2.40226,-0.60043 v -4.20396 l 1.80169,-1.80158 0.60057,-1.80169 v -1.80157 l 0.60056,-1.20113 0.60044,-0.60056 1.20113,-0.60057 0.60045,-0.60043 0.60068,-1.20113 0.60057,-1.20113 -0.60057,-4.20384 -1.80169,-4.80439 -1.20101,-4.20384 v -2.40226 l -0.60056,-1.20113 -1.20113,-0.60044 v -2.40226 l 6.00565,-2.40226 7.20641,-1.80158 9.60879,-3.00282 4.20384,-1.8017 0.60056,-1.80156 v -2.40215 l 1.20113,-1.20113 1.8017,-0.60056 h 3.00258 v -1.20113 l -0.60032,-1.8017 -1.20126,-0.60056 -1.201,-0.60057 -1.8017,-0.60056 -0.60056,-1.201 -1.20113,-1.80158 -1.20101,-1.80426 h -1.20113 l -1.8017,-0.60045 -1.20113,-1.20113 -1.80157,-1.20113 -0.60056,-1.20113 -1.20113,-0.60068 -1.80158,-0.60045 -1.20113,-1.80145 -0.60056,-2.40226 -0.60057,-3.60339 0.60057,-3.00282 0.60056,-2.40213 0.60057,-1.20113 0.60056,-1.80158 1.20113,-0.60068 1.80158,-1.8017 3.0027,-2.40201 1.80169,-1.20113 0.60057,-1.20113 1.20113,-1.8017 v -1.20101 l 0.60044,-0.60057 1.20113,-1.20113 v -1.20113 h 0.60057 l 1.80169,-0.60056 0.60057,-0.60057 0.60056,-1.201 1.20113,-0.60056 1.80157,-2.40226 1.20113,-0.60045 1.80158,-1.20113 0.60068,-1.20113 v -1.20113 l 1.20101,-0.60057 0.60057,-1.80169 v -0.60044 l -0.60057,-1.80169 0.60057,-1.20113 0.60044,-0.60057 v -1.80158 l 1.80169,-3.60326 -0.60056,-0.60056 h -1.80157 l -0.60057,-1.20113 v -3.00283 l -0.60056,-1.20101 h -1.20113 l -1.20113,-1.20113 v -1.80157 l 1.20113,-0.60069 h 0.60068 l 1.20101,-1.201 0.60057,-0.60057 0.60044,-1.80169 0.60069,-1.20113 v -1.80158 l 1.201,-1.20113 h 1.20113 l 1.20113,-0.60057 3.60327,-2.40213 2.40214,-1.2037 2.40226,-1.20101 v -1.20113 l 0.60056,-1.20113 v -1.201 l 0.60057,-0.60057 v -6.60866 l 0.60056,-1.20113 v -1.20101 l -0.60056,-1.80169 0.60056,-1.20113 1.20113,-1.20101 v -4.80452 l 0.60057,-1.80157 -0.60057,-1.20113 -1.20113,-0.60057 v -1.20113 l -0.60056,-0.60044 h -3.0027 l -1.8017,1.20101 -1.20113,-0.60057 -0.60056,-0.60044 -0.60057,-1.20113 -1.20101,-0.60056 -0.60068,-0.60057 1.20125,-1.20101 v -1.20113 h -5.40484 l -1.80157,-1.20113 -2.40226,-0.60056 -0.60057,-0.60057 1.20101,-0.60056 0.60069,-1.20101 v -2.40226 l -0.60069,-1.20113 v -0.60056 l 0.60069,-1.20101 1.20113,-1.20113 2.40201,-0.60057 1.8017,-1.80169 v -1.20113 l -0.60057,-3.0027 0.60057,-1.20113 0.60056,-0.60057 -0.60056,-1.80157 v -0.60057 l -1.20113,-1.20113 -1.8017,-1.201 -1.20088,-0.60057 v -0.60056 h 1.20088 l 1.20113,-0.60057 0.60057,-0.60056 -0.60057,-1.20113 -0.60044,-0.60057 -1.80157,-1.20113 -0.60069,-1.20101 -1.20113,-1.20113 -1.20101,-0.60056 -1.80169,0.60056 -1.20101,-1.20113 -0.60057,-1.201 v -5.40484 l -1.20113,-1.20101 v -1.8017 l 1.20113,-1.20113 h 0.60057 v -1.20357 l 0.60044,-0.60057 0.60057,-0.60056 h 1.80169 l -0.60056,-1.8017 -0.60069,-1.20113 v -1.80157 l -0.60044,-2.40214 -1.20101,-3.00282 -1.20113,-2.40226 0.60056,-1.20101 1.20101,-1.20113 0.60057,-1.20113 1.80169,-0.60056 1.20101,-1.20113 -0.60044,-1.80158 v -3.60326 l -1.20113,-1.20113 -0.60069,-0.60057 v -0.60056 l 0.60069,-1.20113 -1.8017,-3.00271 -1.20101,-1.20113 -0.60056,-0.60056 -1.8017,-3.0027 -3.60339,-6.00565 1.20113,-1.20113 2.40226,-1.20113 v -3.0027 l 0.60057,-0.60057 0.60056,-1.20113 1.20113,-0.60044 v -3.00283 l -1.20113,-0.60056 -0.60056,-1.20101 -0.60057,-1.20113 v -1.20113 l 0.60057,-1.80169 v -0.60057 l -1.8017,-1.80157 -0.60056,-2.40226 v -3.0027 l 0.60056,-0.60057 1.20113,0.60057 h 2.40226 l 1.20101,0.60056 0.60057,0.60057 h 2.40226 v -0.60057 l 0.60044,-1.20113 v -1.20113 l 0.60069,-1.80169 1.20113,-0.60045 1.20088,-1.20113 0.60069,-1.20113 0.60044,-0.60056 v -1.20101 h 1.20113 l 1.8017,-0.60056 v -1.20113 l 0.60056,-2.40214 0.60057,-0.60313 0.60056,-1.20113 v -4.8044 h 1.20113 l 2.40214,-1.20101 0.60044,-1.80169 -0.60044,-1.80158 -0.60057,-1.80169 -1.201,-1.20113 v -3.60327 l 0.60056,-1.80169 -0.60056,-1.80158 -0.60057,-1.20113 v -0.60056 l 1.20113,-0.60057 0.60044,-1.20113 v -1.80157 h -1.201 l -1.20126,-0.60056 -1.201,-1.20113 -2.40226,-1.20113 v -1.20113 l 1.20113,-1.80158 1.20113,-0.60056 0.60056,-1.8017 -0.60056,-0.60044 -1.20113,-1.20113 -0.60057,-1.80169 -1.20113,1.20113 -0.60056,2.40213 -0.60057,1.20113 -1.80157,1.20113 h -1.20113 l -1.20113,-1.20113 -3.60327,1.20113 -1.20101,-0.60056 -1.20113,-1.8017 -1.20113,-1.201 -0.60056,-1.20113 -1.8017,-0.60057 -1.80157,-1.20113 -0.60056,-0.60056 -2.40214,-0.60057 -1.8017,-0.60056 -1.20113,-1.20101 v -1.20113 l -0.60056,-1.20113 -0.60057,-0.60057 v -4.20371 l 0.60057,-1.80169 v -1.80157 l -1.80157,-0.60057 -1.20113,-1.20113 -1.8017,-0.60056 1.20113,-1.80157 0.60057,-1.20113 -0.60057,-1.20113 v -3.60327 l 2.40214,-1.20113 1.20113,-0.60057 0.60056,-0.60056 1.20113,-1.20101 1.8017,-1.20113 v -1.20113 l 0.60056,-0.60056 1.20113,-0.60057 h 0.60045 l 0.60056,0.60057 v 1.20113 l 0.60044,-0.60057 0.60057,-0.60056 1.80169,-1.8017 3.60339,-1.20113 3.60327,-2.40214 0.60057,-1.20113 h 1.20113 l 1.20113,0.60057 h 1.80157 l 0.60044,0.60056 0.60057,1.8017 h 1.20113 l 0.60056,-0.60057 v -0.60056 l -0.60056,-1.20113 v -1.20101 l 0.60056,-1.20113 1.20113,-1.20358 1.20113,-2.40226 v -0.60056 l -0.60056,-0.60057 -0.60057,-1.201 1.20113,-1.20113 0.60044,-1.20113 0.60069,-0.60057 v -1.80169 l -0.60069,-1.20101 0.60069,-1.20113 v -1.20113 l 0.60057,-1.80157 -0.60057,-1.8017 -1.20113,-1.20113 -1.80169,-1.20101 -1.8017,-1.80169 -1.80157,-1.20113 -0.60069,-3.0027 -0.60044,-1.8017 -0.60044,-1.80157 h -1.20113 l -0.60069,-1.20113 v -1.8017 l 0.60069,-1.80169 0.60044,-1.20101 1.20113,-0.60056 0.60044,-0.60057 v -1.20113 l 0.60069,-2.40213 h 0.60044 l 1.8017,1.20113 h 4.20395 l 2.40214,-1.8017 1.20113,-1.80169 0.60044,-1.20113 0.60057,-1.20113 h 2.40226 l 0.60056,-0.60045 v -1.80169 l -1.20113,-1.80157 -1.20113,-1.8017 -1.80157,-1.20113 -0.60069,-1.80157 h -3.60327 l -2.40213,-1.20113 -1.8017,-3.00283 -1.20113,-3.0027 -1.20113,-1.20113 0.60069,-1.20101 0.60044,-0.60056 -0.60044,-1.20113 v -3.0027 h 1.20101 v 0.60056 h 1.80169 v 0.60057 h 1.20113 v 0.60056 h 1.80157 v 0.60044 h 1.20126 v 0.60057 h 1.201 v 0.60056 h 1.20101 v 0.60057 h 0.60069 v 1.20113 l 0.60044,0.60056 v 1.20113 h 0.60057 v 1.20113 h 0.60056 v 1.80158 h 0.60057 v 0.60056 h 0.60056 v 0.60057 h 0.60057 v 0.60056 h 0.60056 v 0.60057 h 0.60056 v 0.60056 h 0.60057 v 0.60057 h 0.60044 v 0.60056 h 1.19869 v 0.60044 h 0.60056 v 0.60069 h 0.60057 v 0.60044 h 0.60056 v 0.60057 h 0.60032 l -0.60032,0.60056 h -1.20113 v 0.60057 h 0.60057 v 0.60056 h 1.20088 v 1.20113 h -0.60032 v 0.60057 h 0.60032 v 1.80157 h 0.60069 v 0.60057 h 0.60044 v 1.80169 h 0.60057 l -0.60057,0.60057 h 0.60057 v 0.60056 h 0.60056 v 1.20101 h -0.60056 v 0.60069 H 367.879 v 0.60044 h -0.60044 v 0.60056 h 1.80157 v 0.60057 l 0.60069,0.60056 v 0.60057 h 1.20101 v 1.20101 h 0.60056 v 0.60056 h 1.20113 v 0.60057 h 1.80157 v 0.60056 h 7.80723 l 0.60056,-0.60056 h 1.80157 v 0.60056 h 1.20113 v 0.60056 h 0.60045 v 1.20113 h 1.80181 v 0.60057 h 0.60045 v 1.20113 h 0.60056 v 1.20101 h -0.60056 v 0.60056 h -0.60045 v 0.60057 h -0.60056 v 0.60056 h -0.60057 v 0.60057 h -0.60068 v 0.60056 h -2.40214 v 2.40214 h -0.60057 v 2.40226 h -1.80157 v 0.60056 h -3.0027 v 0.60057 h -2.40226 v 0.60044 h -1.8017 v 0.60069 h -0.60056 v 0.60044 h -0.60057 v 0.60057 h -0.60044 v 0.60056 h 0.60044 v 0.60057 h -0.60044 v 2.40213 h 0.60044 l -0.60044,0.60057 v 1.80169 h -1.20113 v 0.60057 h -0.60056 v 0.60044 h -0.60057 v 9.60892 h -0.60056 v 0.60044 h -0.60057 v 0.60057 h -0.60056 v 0.60056 h 0.60056 l -0.60056,0.60057 h 0.60056 v 0.60056 h -0.60056 v 0.60057 h 0.60056 v 0.60056 H 367.879 v 0.60057 h 1.8017 v -2.40226 h 1.20113 v -1.20113 h 0.60056 v -0.60057 h 0.60057 v -0.60044 h 0.60056 v 0.60044 h 0.60044 v -1.20101 h 0.60057 v -0.60056 h -1.20101 v 0.60056 h -1.20113 v -1.20113 h 0.60057 v -0.60056 h 1.80157 v -0.60057 h 0.60056 v 0.60057 h -0.60056 v 0.60056 h 0.60056 v -0.60056 h 0.60057 v -0.60057 h 0.60044 v -1.20113 h 0.60069 v -1.201 h 0.60044 v 1.201 h 0.60069 v -1.201 h 0.60044 v -0.60057 h 0.60069 v -1.20113 h 0.60044 v 1.20113 h 0.60057 v 0.60057 h 0.60056 v 0.60056 h 0.60057 v 2.40214 l -0.60057,0.60056 v 0.60057 h -0.60056 v -1.8017 l -0.60057,-0.60056 v -1.80157 h -0.60044 v 0.60056 h -0.60069 v 0.60044 h 0.60069 v 0.60057 h -0.60069 v 0.60056 h 1.20113 v 3.00283 h -0.60044 v 2.40214 h -0.60069 v 0.60056 h -0.60044 v 1.20113 h -0.60069 v 1.20113 h -0.60044 v 1.80157 h -0.60069 v 0.60057 h -0.60044 v 0.60056 h -0.60057 v 1.8017 h 0.60057 v 0.60044 h -0.60057 v 1.20113 h -0.60056 v 1.20113 h -0.60057 v 0.60057 h -1.201 v 0.60056 h -0.60057 v 0.60057 h -0.60056 v 0.60056 h -0.60057 v 0.60044 h -1.20113 v 0.60057 h -0.60056 v 0.60056 H 367.879 v 1.8017 h -0.60056 v 0.60044 l -0.60057,0.60069 h 0.60057 v 1.20101 h 1.20113 v 2.40226 h 0.60056 v 0.60056 h 0.60057 v -0.60056 h 0.60056 v 0.60056 h 0.60057 v 0.60044 h 0.60056 l 0.60057,-0.60044 v -0.60056 h 0.60056 v -0.60057 h 0.60044 v -3.0027 h -0.60044 v -4.20396 h 1.20101 v 0.60057 h 1.20113 v 0.60056 h 3.0027 v -0.60056 h 0.60069 v 1.20113 h 0.60044 v -1.20113 h 1.20113 v -0.60057 h 0.60057 v -1.201 h 1.20113 v -0.60057 h 0.60056 l 0.60044,-0.60056 v -1.8017 h 0.60057 v -1.80157 h -0.60057 v -6.00565 h 0.60057 v -0.60057 h -0.60057 v -1.20113 h 0.60057 v -1.80157 h -0.60057 l 0.60057,-0.60056 v -7.20642 h -0.60057 v -0.60056 h -0.60044 v -0.60057 h -0.60056 v -1.201 h 1.201 v -5.40484 h 1.20113 v -0.60057 h 1.20113 v -1.20113 h 0.60045 v -0.60044 h 0.60068 v -1.20113 l 0.60057,-0.60057 v -0.60056 h 0.60056 v -1.8017 h 0.60045 v -0.60056 h 1.80169 v -0.60044 h 0.60044 v -0.60057 h 0.60057 v -1.20113 h 0.60069 v -1.20113 h 0.60044 v -0.60056 h -0.60044 v -2.40214 h -0.60069 v -1.20113 h -0.60057 v -1.20101 h 0.60057 v -2.40226 h -0.60057 v -1.20113 h -1.20088 v -1.20113 h -1.20125 v -0.60056 h -1.20101 v -0.60044 h -1.20125 v -0.60069 h -1.20101 v -0.60044 h -0.60057 v -3.60327 h -0.60056 v -1.8017 h -0.60057 v -1.20113 h -0.60044 v -0.60056 h -0.60056 v -0.60057 h 1.201 v -1.20113 h 0.60057 v -3.60326 h -0.60057 v -0.60069 h 0.60057 v -0.60044 h -1.80157 v -0.60057 h -0.60057 v -0.60056 h -0.60056 v -1.20113 h -1.20113 v -0.60057 h -1.20101 v -0.60056 h -1.20113 v -0.60057 l -0.60069,0.60057 v -0.60057 h -0.60044 v -0.60056 h -1.8017 v -0.60057 h -0.60056 v -0.60044 h -0.60057 v -1.20113 h -0.60044 v -0.60057 h -0.60056 v -0.60056 h -0.60057 v -3.0027 h -0.60056 v -0.60057 h 0.60056 v -0.60056 h 0.60057 v -1.20113 h 1.201 v -1.80158 h -0.60044 v 0.60057 h -0.60056 v -3.60327 h 0.60056 v -1.20113 h 1.20101 v -0.60056 h 0.60056 v -0.60057 h 0.60057 v -1.80169 h 0.60044 v -0.60045 h 0.60069 v -1.80169 h 0.60044 v -3.00527 l 0.60069,-0.60044 h -0.60069 v -1.20113 h -0.60044 v -0.60057 h -0.60069 v -0.60056 h -0.60044 v -0.60057 h 1.20113 v -1.80157 h -1.20113 v -0.60057 h -0.60057 v -0.60057 h 0.60057 v -0.60056 h 0.60044 v 0.60056 h 1.20113 v -0.60056 h 0.60069 v 0.60056 h 1.20113 v -0.60056 h -0.60069 v -1.8017 h -0.60044 v -0.60056 h -0.60069 v -0.60057 h -0.60044 v -0.60056 h -0.60069 v -0.60057 h 0.60069 l 0.60044,-0.60056 v -0.60057 h 0.60069 v 0.60057 h 0.60044 v -0.60057 h 0.60069 v -0.60056 h 1.20101 v -0.60057 h 0.60056 v -0.60043 h -0.60056 v -0.60056 h 0.60056 v -0.60057 h 0.60057 v -1.20113 h -1.20113 v -1.20113 h 0.60056 v -1.20113 h 0.60057 v 0.60057 l 0.60056,-0.60057 v 0.60057 h 1.20113 v 0.60056 h 0.60044 v 0.60057 h 0.60057 v -0.60057 h 3.60339 v 0.60057 h 1.20101 v -0.60057 h 5.40484 v 0.60057 h 2.39969 v 0.60056 h 2.40226 v 0.60057 h 0.60056 v -0.60057 h 0.60057 v 0.60057 h 2.40201 v 0.60056 h 1.80182 v 0.60057 h 1.80169 v 0.60056 h 3.00271 v 0.60043 h 4.20407 v -0.60043 h 5.40472 v 0.60043 h 1.20064 v -0.60043 h 2.40226 v -0.60056 h 0.60081 v 0.60056 h 1.20125 v 1.201 h 0.6002 v 0.60056 h 1.2015 v 0.60057 h 1.80108 v 0.60056 h 0.59873 v -0.60056 h 1.80108 v -1.20113 h 0.60069 v -1.201 h 1.20125 v -0.60056 h 1.80158 v 0.60056 h 1.80157 v -0.60056 h 1.20137 v -0.60057 l 0.60032,0.60057 v -0.60057 h 0.60032 v 0.60057 h 1.80182 v -0.60057 h 1.20113 v 0.60057 h 4.20383 v 1.20099 h 1.20138 v 0.60057 h 0.60056 v 0.60056 h -0.60301 v 1.20113 h -0.60105 v 0.60057 h -0.60044 v 1.20113 h -1.80182 v -0.60057 h -0.60044 v 0.60057 h -0.6002 v 0.60056 h -0.60057 v 0.60046 h -0.60068 v 1.20113 h -0.60081 v 0.60056 h -1.80121 v -0.60056 h 1.80121 v -0.60057 h -1.80121 v 0.60057 h -0.60105 v 0.60056 H 437.535 l 0.60032,0.60057 H 437.535 v 1.20112 h 3.00258 v 0.60057 h 1.20149 v -0.60057 h 1.20077 v -0.60056 h 0.60044 v -0.60056 h 1.80182 v -0.60057 h 0.60044 v 1.20113 h -1.80121 v 0.60056 h 2.40226 l -0.60105,-0.60056 h 0.60105 v -0.60056 h 0.60057 v -0.60057 h 0.60032 v -0.60056 h -0.60032 v -1.20113 h 0.60032 v -0.60046 h 1.20113 v -0.60056 h 0.60081 v -1.8017 h 0.6002 v -0.60056 h 0.60032 l -0.60032,-0.60057 v 0.60057 h -0.6002 v 0.60056 h -0.60081 v -0.60056 h -0.60081 v -1.20113 h -0.60032 v -4.20382 h -1.20089 v -0.60046 h 0.60057 v -0.60056 h -0.60057 v 0.60056 h -0.60105 v -0.60056 h -0.60044 v -1.20113 h -0.60032 v -0.60057 h 1.20076 v 1.20113 h 0.60105 v -0.60056 h 1.20089 v -0.60057 h 0.60032 v 1.20113 h 2.40214 v -0.60056 h -1.20052 v -0.60057 h -1.20162 v -0.60056 h -2.40226 v -1.20113 h 0.60105 v -0.60057 h -1.20149 v -1.20112 h 0.60044 v -0.60044 h 0.60105 l -0.60105,-0.60056 h 0.60105 v -0.60057 h -0.60105 v -1.20113 h -0.60044 v -0.60056 h -0.60032 v -0.60057 h -1.2015 l -0.60044,-0.60056 v -0.60057 h -2.40226 v -0.60056 h -0.6002 v -0.60057 h -0.60032 v -2.40214 h 0.60032 v -0.60057 h 1.80169 v 0.60057 h 0.60057 v 1.20113 h 1.20064 v -0.60057 h -1.20064 l 0.6002,-0.60056 v -0.60057 h -0.6002 v -0.60056 h -0.60057 v -0.60057 h 2.40226 v -0.60043 h 2.40226 v 0.60043 h 0.60057 v 1.20113 h -0.60057 v 0.60057 h 1.20089 v 1.20113 h 0.60032 v -0.60057 h 1.20162 v 1.20102 h -1.20162 v 0.60056 h -0.60032 v 0.60057 h -1.20089 v 0.60056 h 1.80121 v -0.60056 h 0.60081 v -0.60057 h 0.60081 v 0.60057 h -0.60081 v 0.60056 h 0.60081 v 0.60057 h -0.60081 v 1.201 h 0.60081 v -0.60057 h 0.6002 v -2.40213 h -0.6002 l 0.6002,-0.60056 h 1.201 v -0.60057 h -0.60068 v -1.20113 h 0.60068 v -0.60056 h -0.60068 v 0.60056 h -1.80133 v -0.60056 h -1.20113 v -1.80158 h 0.60032 v -0.60057 h -0.60032 v -0.60056 h -0.60032 v -0.60057 h 1.20064 v -0.60056 h -0.60032 v -0.60057 h -1.20089 v -0.60043 h -0.60105 v -0.60057 h -0.60044 v -1.20113 h -1.20077 v -0.59812 h -1.80169 v -0.60056 h -1.20125 v -0.60045 h -1.20101 v -0.60057 h 1.20101 v -0.60056 h 0.60068 v -1.20113 h 0.60057 v -0.60057 h 0.6002 v 1.20113 h 0.60044 v -0.60056 h 0.60105 v -1.20113 h 0.60045 v -0.60057 h 0.60032 v -0.60043 h 0.60044 v 0.60043 h 0.60105 v 0.60057 h 0.60057 v 1.20113 h -0.60057 v -0.60057 h -1.20149 v 0.60057 h 0.60044 v 1.80169 h 0.60105 v -0.60056 h 1.80121 v 0.60056 h 0.60081 v 1.20102 h -0.60081 v 0.60056 h 1.20162 v 0.60057 h -0.60081 v 0.60056 h 1.20101 v 0.60057 h 0.60032 v -1.8017 h -0.60032 v -1.80158 h 1.201 v -0.60056 h 1.20126 v 1.20113 h 0.60032 l -0.60032,-0.60057 h 0.60032 v -0.60056 h 0.60056 v -0.60057 h -0.60056 v -1.20113 h 0.60056 v -1.80156 h 0.60093 v 0.60043 h 0.60057 v -1.201 h 0.6002 v -0.60056 h 0.60032 v -0.60057 h 1.20174 v -0.60056 h 1.20052 v 0.60056 h 0.60068 v -0.60056 h 0.60106 v -0.60057 h 1.20052 v -0.60056 h 0.60068 v -1.20113 h -1.8012 v -0.60045 h -1.80206 v -0.60057 h -1.20089 v -0.60056 h -0.60105 v -0.60057 h -0.60032 v -0.60056 h -1.20077 v -0.60057 h 0.60057 v -1.201 h 3.00246 v 0.60057 h 1.201 v 0.60043 h 1.20126 l 0.60032,0.60057 h 1.20137 v 0.60056 h 0.60069 v 0.60057 h 0.6002 v 0.60056 h 1.80193 v -0.60056 h -0.60044 v -0.60057 h 2.40226 v -0.60056 h 0.60057 v -0.60057 h -1.20174 v -1.201 h 0.60117 v 0.60057 h 0.60057 v -0.60057 h 0.60032 v -0.60056 h 0.6002 v -0.60057 h 0.60068 v -0.60056 h 1.20138 v 1.20113 h 0.60032 v 0.60056 h 0.60044 v -0.60056 h -0.60044 v -1.20113 h -0.60032 v -1.20102 h 0.60032 v -0.60056 h 0.60044 V 200.624 h 0.60081 v 0.60057 h 0.60069 V 200.624 h -0.60069 v -0.60056 h 1.20088 v -0.60057 h 0.60057 v 0.60057 h 0.60081 v -0.60057 h 1.20101 v -0.60056 h -1.20101 v -0.60057 h 2.40238 v -1.20113 h 0.60044 v -0.60056 h 0.60045 v 1.20113 h 0.60019 v 1.20113 h 1.80194 v 0.60056 l 0.60032,-0.60056 v 0.60056 h 0.60057 v -1.80169 h 1.2015 v -0.60057 h 1.20064 v 0.60057 h 0.60105 v -0.60057 h 0.60057 v -0.60056 h -0.60057 v -0.60057 h -0.60105 v -0.60056 h 1.80194 v -0.60057 h 0.60032 v 0.60057 h 0.60093 v -0.60057 h 1.20088 v 0.60057 h 1.20113 v -0.60057 h 1.80158 v -1.20113 h 1.80194 v -0.60056 h 0.59762 v 0.60056 h -0.60007 v 1.8017 h 0.60007 v -0.60057 h 0.60045 v -0.60056 h 0.60117 v -0.60057 h 1.20089 v 1.20113 h 1.20101 v -0.60056 h 0.60068 v 0.60056 h 1.80133 v 0.60057 h 0.60081 v -0.60057 h -0.60081 v -0.60056 h 0.60081 v -0.60057 h -0.60081 v -0.60056 h 0.60081 v -1.201 h 1.20089 v 0.60043 h 1.80194 v 0.60057 h 0.60032 v -0.60057 h 0.60019 v -0.60043 h 1.20175 v 0.60043 h 1.20064 v -0.60043 h 0.60068 v -0.60057 h 3.00307 v -0.60056 h 2.40214 v -0.60057 h 1.80133 v 0.60057 h 0.60093 v -0.60057 h 1.20089 v -0.60056 h 1.80181 v -0.60057 h 1.80145 v -0.60045 h 1.2015 v -1.20113 h -0.60069 v 0.60057 h -1.20149 v 0.60056 h -1.20077 v -1.80169 l -0.60081,-0.003 v 0.60056 h -0.60068 v 1.20113 h -0.60032 v -0.60056 h -0.60032 v -1.20113 h -0.60057 v -1.20113 h 0.60057 v -0.60045 h -0.60057 v 0.60045 h -1.20137 v 0.60056 h -1.20089 v 0.60057 h 0.60069 v 1.20113 h -1.20162 v -0.60057 h -0.60032 l 0.60032,-0.60056 v -0.60057 l -0.60032,0.60057 v -1.80158 h 1.20125 v -2.40226 h 0.60069 v -0.60057 h 0.6002 v 0.60057 h -0.6002 v 0.60056 h 0.6002 v 0.60057 h 1.20137 v -0.60057 h 0.60057 v -0.60056 h -0.60057 v -0.60057 h 1.20089 v -1.20113 h 1.201 v 0.60057 h -0.60068 v 0.60056 h -0.60032 v 0.60057 h 0.60032 v 1.20113 h -0.60032 v 0.60056 h 0.60032 v -0.60056 h 0.60068 v -0.60044 h 1.80158 v -0.60056 h 0.60068 v 0.60056 h 1.80169 v -0.60056 h -0.60019 v -0.60057 h -1.2015 v -0.60056 h -0.60068 v -0.60057 h 3.60375 v 0.60057 h 1.8012 v -0.60057 h 0.60081 v 1.201 h 0.6007 v 0.60057 h 1.79887 v -0.60057 h -0.60068 v -0.60056 h 1.20138 v 0.60056 h 0.60043 v -1.201 h -2.40201 v -0.60056 h 3.00246 v 0.60056 h 1.20149 v 0.60057 h -0.60105 v 0.60056 h 0.60105 v 0.60057 h 0.60045 v -0.60057 h 0.60019 v -0.60056 h 0.60045 v 1.201 h 0.60117 v -1.201 h 0.60057 v -0.60057 h 0.6002 v -0.60056 h 0.60032 v 0.60056 h 1.20149 v 0.60057 h 2.40215 v 0.60056 h 0.60068 v 0.60057 h 1.20077 v 0.60056 h -0.60045 v 0.60044 h -0.60032 v 0.60056 h 1.20077 v 0.60057 h -0.60045 v 0.60056 h -0.60032 v 0.60057 h -0.60068 v 0.60056 h -0.60106 v 0.60057 h -0.60032 v 1.20113 h -0.60032 v 0.60045 h -0.60045 v 0.60056 h -0.60081 v 1.20113 h 0.60081 v 0.60057 h 0.60045 v -1.20113 h 0.60032 v -0.60057 h 0.60032 v -0.60056 h 0.60106 v -0.60045 h 0.60068 v -0.60057 h 1.20077 v 0.60057 h 0.60092 v -0.60057 h 0.60045 v -0.60056 h -0.60045 v -0.60057 h 1.80109 v 0.60057 h 1.80181 v 1.20113 h -0.60007 v 0.60045 h -0.60081 v 1.20113 h -0.60093 v 0.60056 h 1.80181 v -1.20113 h 0.60045 v 0.60057 h 0.60068 v -0.60057 h 1.20138 v -1.80158 h 1.20077 v -0.60056 h 0.60081 v -0.60057 h 0.60056 v -0.60056 h 1.20064 v 0.60056 h -1.20064 v 0.60057 h -0.60056 v 0.60056 h 0.60056 v 1.20102 h 0.60032 v -1.20102 h 0.60032 v -0.60056 h 2.40226 v 0.60056 h 1.80194 v -1.20113 h -0.60032 v -0.60056 h -1.20162 v -1.20113 h 0.60106 v -0.60057 h 1.8012 v 1.20113 h 0.60068 v -0.60056 h 1.20126 v -0.60057 h 1.20089 v -0.60056 h -1.20089 v -0.60057 h -1.20126 v -0.60056 h 1.80158 v -1.201 h 2.39969 v -0.60057 h 0.60045 v -0.60056 h 0.60105 v -0.60057 h 0.60057 v -0.60056 h 1.2006 v -0.60057 h 0.6006 v 0.60057 h -0.6006 v 1.20113 h 0.6006 v 0.60056 l 0.6009,-0.60056 h 0.6003 v -0.60057 h 0.6004 v 0.60057 h 2.4022 v 0.60056 h -0.6003 v 0.60057 h -0.6004 v 1.80156 h 1.2007 l 0.6006,-0.60056 v 0.60056 h 0.6009 v -0.60056 h 0.6005 v 0.60056 h -0.6005 v 0.60057 h -0.6009 v 0.60056 h 1.2014 v 1.20113 h 0.6004 v 0.60057 h 0.6002 v -0.60057 h -0.6002 v -1.80169 h 1.2013 v 2.40226 h 0.6007 v 1.20101 h -0.6007 v 0.60057 h -0.6011 v 0.60056 h -0.6002 v 3.0027 h -0.6004 v 0.60056 h 1.2006 v 0.60057 h -0.6002 v 0.60056 h -0.6004 v -0.60056 h -0.6005 v 0.60056 h 0.6005 l -0.6005,0.60057 v 0.60056 h -1.8018 v 0.60057 h -0.6004 v 1.80158 h 0.6004 v 0.60056 h 0.6003 v -0.60056 h -0.6003 v -1.20102 h 0.6003 v -0.60056 h 2.4024 v -0.60057 h 0.6002 v -0.60056 h 0.6011 l 0.6007,0.60056 h 0.6003 v -0.60056 h 0.6002 v -0.60057 h -1.2005 v 0.60057 h -0.6007 v -0.60057 h -0.6011 v -0.60056 h 0.6011 v -1.20113 h 0.6007 v -0.60057 h 0.6003 v -1.201 h 0.6002 v -0.60056 h -0.6002 l 0.6002,-0.60057 v -1.20113 h -0.6002 v -1.20101 h -0.6003 v -1.20113 h 0.6003 l -0.6003,-0.60057 v -1.20113 h -0.6007 v -1.80145 h -0.6011 v -0.60056 h -0.6002 v -2.40226 h -1.8018 v -1.80157 h -0.6006 v -0.60056 h -0.6003 v -0.60057 h -1.8019 v -2.40214 h -0.6004 v -0.60057 h -0.6003 v -0.60056 h -0.6009 v -1.20113 h 0.6009 v -0.60057 h 1.2007 v 0.60057 h 1.2015 v 0.60056 h 1.2007 v 0.60057 h 3.0026 v 0.60056 h 0.6011 v -0.60056 h 2.402 v -0.60057 h 1.8014 v 0.60057 h 1.8021 v -0.60057 h 1.2006 v -0.60056 h 1.802 v -0.60057 h 0.6002 v -0.60056 h 0.6012 v 0.60056 h -0.6012 v 0.60057 h 1.2017 v 0.60056 h 0.6003 v 1.20113 h 1.2009 v -0.60056 h 0.6009 v 0.60056 h 1.2008 v 0.60057 h 3.0026 v 0.60056 h 0.6011 v 0.60057 h 0.6005 v 0.60056 h 1.1981 v 0.60045 h 0.6008 v 0.60057 h 0.6007 v -0.60057 h 0.6004 v 0.60057 h 0.6005 v -1.20102 h 0.6005 v 1.20102 h 1.2013 v 0.60056 h 1.201 v -0.60056 h 0.6008 v -0.60057 h -0.6008 v 0.60057 h -1.201 v -0.60057 h -0.6005 v -1.20101 h 0.6005 v -0.60057 h 0.6003 v -0.60056 h -0.6003 v -0.60057 h -1.2013 v 0.60057 h -0.6005 v 1.20113 h -1.8016 v -0.60057 h -1.2013 l -0.6002,-0.60056 v -0.60057 h -0.6004 v -0.60056 h -1.2014 v -0.60057 h -0.6004 v -0.60056 h 0.6004 v -0.60057 h -0.6004 v 0.60057 h -1.802 v -0.60057 h -3.6027 v -0.60056 h -0.6007 v -0.60057 h 1.2007 v -1.201 h -0.6 v -0.60056 h 0.6 v -3.00271 h 1.2012 v -0.60057 h -0.6008 v -0.60056 h 0.6008 v -1.20113 h -1.2012 v -0.60057 h -0.6 v -0.60056 h -0.6007 v -1.20113 h -0.6009 v -0.60057 h 0.6009 v -0.60043 h -0.6009 v -1.20113 h 0.6009 v -1.8017 h 0.6007 v -0.60045 h 1.2004 v -0.60056 h 0.6008 v -4.20383 h 0.6007 v -1.20113 h 0.6007 v -0.60056 h 0.6001 v -1.20102 h 0.6005 v -0.60056 l 0.601,-0.60057 v -1.20113 h 0.6005 v -0.60056 h 0.6004 v -0.60057 h 0.6004 v -0.60056 h 0.601 v -1.201 h 0.6004 v -0.60057 h 1.2007 l 0.6008,-0.60056 v -0.60057 h 0.6007 v -1.80169 h 0.6004 v -1.20358 l 1.1986,0.002 v -1.20102 h 0.6007 v -0.60056 h 1.2009 v -0.60057 h 0.6005 v -1.20113 h 1.2014 v -1.80156 h 0.6002 v -0.60057 h 0.6004 v 0.60057 h 0.6011 v 0.60056 h 0.6006 v -0.60056 h 2.4021 v -1.8017 h 0.6004 v -0.60056 h 0.6004 v -0.60057 h 0.6005 v -0.60056 h 2.4022 v 0.60056 h -0.6005 v 0.60057 h 0.6005 v 0.60056 h 1.2015 v -0.60056 h 0.6003 v -0.60057 h 1.2012 v 0.60057 h 0.6007 v 1.80156 h -0.6007 v 0.60057 h 1.8014 v 1.20113 h 0.6005 v -0.60057 h 1.2014 v 0.60057 h 0.6003 v 0.60056 h 3.0028 v -0.60056 h 1.8017 v 0.60056 h 0.6004 v 2.40215 h 0.601 v 1.1999 z M 396.70367,954.30895 h -0.60056 v 0.6006 h 0.60056 z m 126.7082,-768.13608 h -0.60105 v 0.60056 h -0.60032 v 0.60057 h 0.60032 v -0.60057 h 0.60105 z m 121.90187,105.09887 h -0.6002 v 0.60057 h -1.2015 v 0.60056 h 1.2015 v -0.60056 h 0.6002 z m 35.4326,-110.50616 h -0.6005 v 0.60057 h 0.6005 z M 385.89705,288.8663 h -0.60056 v 0.60057 l -0.60057,-0.60057 v 0.60057 h 1.20113 z M 674.73824,166.35349 h -0.6008 l 0.6008,0.60057 z m -28.824,99.09518 h -0.6006 v 0.60057 h 0.6006 z M 448.35042,253.43786 h -0.60019 v 0.60056 h 0.60019 z m -3.6029,-2.40213 h -0.60056 v 0.60056 h 0.60056 z m 150.72712,-75.07062 h -0.6007 v 0.60056 h 0.6007 z m 10.2093,-4.20384 h -1.8017 v 1.20113 h 0.6003 v -0.60057 h 1.2014 v 0.60057 h 0.6005 v -0.60057 h -0.6005 z m -154.33057,71.46747 h -0.60056 v 1.20102 h 0.60056 v 0.60056 h 0.60081 v -0.60056 h -0.60081 z M 600.88304,172.3627 h -0.6006 v 0.60043 h -0.601 v 1.20113 h -1.2007 v 0.60057 h 1.2007 v -0.60057 h 1.2016 v -0.60056 h 1.8012 v 0.60056 h 0.6008 v -1.20113 h -2.402 z m 6.6055,1.80156 h -0.6005 v 0.60057 h 0.6005 z m -65.45366,3.00271 v -1.80158 h 1.80158 v 0.60057 h 0.60081 v 0.60056 h -1.20175 v 1.80169 h -1.20064 v 0.60057 h 1.20064 v 0.60045 h 0.60094 v 0.60057 h -0.60094 v 0.60056 h 0.60094 v 0.60057 h -0.60094 v 0.60056 h -0.60032 v -0.60056 h -0.60032 v -0.60057 h -0.60043 v -0.60056 h -0.60094 v 0.60056 h -0.60044 v -0.60056 h -3.00271 v -1.20102 h -1.20124 v -0.60057 h -1.20102 v -0.60056 h -0.60019 v -2.40226 h 0.60019 v 0.60057 h 0.60032 v 0.60056 h 0.6007 v 0.60057 h 1.20124 v -1.20113 h 0.60032 v -0.60057 h 0.60032 v -0.60056 h 0.60106 v 1.80169 h 0.60069 v -0.60056 h 1.8017 v 0.60056 h -0.60094 v 1.20102 h 0.60094 v -0.60057 z m 6.00516,-0.60045 h -0.60007 v 0.60057 l -0.60068,0.60056 v 0.60056 h -0.6007 v 1.20102 h 0.6007 v 0.60057 h -1.20151 v -1.80159 h 0.60081 v -1.20112 h 0.6007 v -1.20113 h 0.60068 v -0.60057 h 1.20064 v -0.60056 h 0.60094 v 2.40226 h -1.20151 z m -19.81802,1.20113 h -1.20089 v 0.60056 h -0.60045 v -0.60056 h 0.60045 v -0.60056 h 1.80157 v 0.60056 h 1.20088 v -0.60056 h 0.60057 v 0.60056 h -0.60057 v 0.60056 h -1.80156 z m 16.21537,3.60328 v -4.80441 h 0.60007 v 0.60057 h 0.60032 v 1.20101 h -0.60032 v 3.00283 z m -14.41381,-4.80441 v -0.60056 l 0.60057,0.60056 v -0.60056 h 0.60094 v -0.60057 h 0.60056 v 0.60057 h -0.60056 v 0.60056 z M 427.3353,170.561 v -1.20101 h 1.80218 v 0.60056 h 0.6002 v 1.20102 h -0.6002 V 170.561 Z m -2.40214,-2.40214 h -0.60044 v -0.60057 h 1.20088 v 0.60057 h 1.20138 v 0.60056 h 0.60032 v 0.60057 h -2.40214 z m -7.2069,-0.60057 v -1.20113 h 0.60118 v 0.60057 h 0.60056 v 0.60056 z m 124.30716,-3.60326 v -1.80169 h 1.20064 v 0.60056 h 0.60094 v -0.60056 h 0.60081 v 1.20113 h -1.20175 v 1.80169 h -1.80121 v -0.60056 h -0.60081 v 0.60056 h -0.60056 v 0.60044 h -0.60032 v -0.60044 h 0.60032 v -1.80169 h 1.20137 v 0.60056 z m -7.80722,-0.60056 v -0.60057 h 0.60019 v 0.60057 h 1.20102 v 0.60056 h -1.20102 v 0.60057 h -0.60019 v -0.60057 h -2.40239 v 0.60057 h -0.60043 v -1.20113 h 1.20064 v -0.60057 h 1.20162 v -0.60056 h 0.60056 v 0.60056 h -0.60056 v 0.60057 z m -6.60659,0 h -0.60019 v -0.60057 h 1.20076 v 0.60057 h 0.60081 v 0.60056 h -1.20138 z m 9.00848,0 v -1.20113 h 0.60032 v 0.60056 h 0.60045 v 0.60057 h 0.60032 v -0.60057 h 1.20162 v 0.60057 h -0.60057 v 0.60056 h -3.00295 z m 143.52155,-0.60057 h -0.6005 v -0.60056 h 1.2013 v 1.20113 h -0.6008 z m 4.2037,0.60057 v -2.40215 h 1.2014 v 0.60057 h -0.6006 v 0.60045 h 1.2009 v 0.60056 h 0.6005 v -0.60056 h 0.6009 v 0.60056 h -0.6009 v 0.60057 z m -131.50902,-2.40215 h -1.80194 v -0.60056 h 1.20162 v -0.60057 h 2.40226 v 1.20113 h -1.20173 v 0.60057 h -0.60021 z m 123.70052,-4.20382 v -0.60057 h 0.6009 v 0.60057 h 0.6006 v 1.201 h 0.6003 v 1.20113 h 1.201 v 0.60056 h -0.6009 v 1.8017 h -0.6001 v -0.60057 h -1.2009 v -1.20113 h -0.6009 v -0.60056 h -2.4023 v -1.20113 h -0.6006 v -1.80157 h 1.8021 v 0.60057 z m -120.69916,1.201 v -0.60044 h 0.60056 v 0.60044 h 0.60094 v 0.60056 h -0.60094 v 0.60057 h -0.60056 v -0.60057 h -0.60032 v -0.60056 z m -7.80722,-1.201 h -0.60007 v -0.60057 h 1.20064 v 1.20113 h -0.60057 z m -6.60548,-1.20113 v -1.20113 h 2.40213 v 0.60056 h 0.60081 v 0.60057 h -1.20173 v 0.60056 h -1.20064 v -0.60056 z m 3.60315,-9.60904 v -0.60057 h 0.60019 v -0.60056 l 0.60081,0.60056 h -0.60081 v 0.60057 h 0.60081 v 3.00269 h -0.60081 v 0.60057 h -1.2004 v 0.60056 h -0.60081 v 0.60057 h -0.60092 v 0.60056 h 0.60092 v 0.60057 h -1.20124 v -0.60057 h -0.60032 v 1.20102 h -0.60057 v -1.20102 h -1.80169 v 0.60057 h -1.80194 v -1.20113 h -0.60032 v -0.60057 h 0.60032 v -0.60056 h 1.20137 v -0.60057 h 0.60057 v 0.60057 h 1.20075 v -0.60057 h 0.60094 v -0.60056 h 0.60057 v -0.60044 h 1.20064 v -0.60056 h 0.60092 v -0.60057 h 0.60081 v -0.60056 z m -51.04093,-3.60328 h -0.60008 v -0.60056 h 1.80169 v 0.60056 h 0.60057 v 1.20102 h -0.60057 v -0.60057 h -1.20161 z m -10.20912,1.20102 v -3.00271 h 0.60032 v 0.60056 h 0.60081 v 0.60057 h 0.60069 v 1.20101 h -0.60069 v 0.60057 z m 5.40472,-7.20654 v -0.60056 h 0.60081 v -0.60057 h 1.80157 v 1.20113 h 0.60056 v 1.20113 h 0.60081 v 0.60057 h -0.60081 v 1.201 h -0.59811 v 0.60056 h -1.80158 v -0.60056 h -1.20113 v -2.40213 h 0.60045 z m 143.52154,3.0027 -0.6002,0.60056 v -0.60056 h -0.6005 v -0.60044 h 0.6005 v -1.20113 h 3.0025 v 1.20113 h -0.6002 v 0.60044 h 0.6002 v 0.60056 h -1.2008 v 1.20113 h -0.6007 v 0.60057 h -1.8015 v -0.60057 h 1.2007 z m -6.6059,-4.20383 v -1.20113 h 1.201 v 0.60057 l 0.6003,-0.60057 v 1.20113 h -0.6003 v 1.20113 h -0.6003 v 0.60057 h -0.6007 v -1.20113 h -0.6007 v -0.60057 z m -114.69559,-7.20678 v -2.40214 h 1.20076 v 1.20113 h 0.60093 v 1.20101 z m 99.07999,-37.837298 h -0.6009 v 1.20113 h 0.6009 z m -21.0172,-21.01929 v -0.60056 h 1.2015 v 0.60056 h 1.2005 v 0.60057 h 0.601 v 0.60056 h 0.6005 v 0.60057 h 0.6006 v 0.60056 h 1.201 v 0.60057 h 0.6007 v 1.20101 h -0.6007 v 0.60057 h -0.6007 v 1.80169 h -0.6003 v 2.40213 h -0.6006 v 1.20113 h 0.6006 v 0.60057 h -0.6006 v 1.80169 h -0.6005 v 0.60057 h 0.6005 v 1.20101 h -0.6005 v 1.8017 h -0.601 v 3.00269 h -0.6003 v 0.60057 h -0.6002 v 1.80158 h 0.6002 v -0.60057 h 0.6003 v -1.20113 h 0.601 v -0.60045 h 0.6005 v -2.40226 h 0.6006 v -1.80156 h 0.6003 v -3.00271 h 0.6007 v 0.60045 h 0.6007 v -0.60045 h 0.6004 v -0.60057 h 0.6005 v -1.20113 h 1.2015 v -0.60056 h -0.601 v -0.60057 h -0.6005 v -0.60056 h 0.6005 v -0.60057 h 3.6038 v 0.60057 h 0.6002 v 1.20113 h 0.6001 v 0.60056 h -0.6001 v 1.8017 h 0.6001 v 0.60045 h 1.8022 v 1.20113 h 1.2011 v 0.60056 h -0.6008 v 0.60057 h 1.2013 v 1.80156 h 1.2009 v 2.40226 h 0.6005 v -0.60056 h 0.601 v -0.60057 h 0.6003 v 0.60057 h 0.6005 v 0.60056 h -0.6005 v 0.60045 h 1.2007 v 0.60057 h 1.2017 v 0.60056 h 0.6004 v 1.20113 h -0.6004 v 0.60057 h 0.6004 v 0.60056 h -0.6004 v 0.60057 h 0.6004 v 2.40226 h 0.6003 v 3.60326 h -0.6003 v 0.60056 h 0.6003 v 0.600568 h -0.6003 v 2.40226 h -0.6004 v 1.20113 h -0.6004 v 0.60043 h -0.6013 v 1.20113 h -1.2007 v -0.60056 h -0.6003 v 0.60056 h -1.2015 l 0.6005,0.60057 h -1.2007 v -0.60057 h -0.6007 v 0.60057 h -0.6005 v 0.60056 h -0.6008 v 0.60057 h -1.2008 v 0.60056 h -0.6008 v 0.60057 h -3.0028 v 0.60056 h -1.2007 v 0.60045 h -1.2015 v 0.60057 h -0.6005 v 0.60056 h -0.6005 v -0.60056 h -0.6004 v 1.20113 h -0.6007 v -0.60057 h -0.6007 v -0.60056 h -3.6029 v 0.60056 h -0.6006 v 0.60057 h -1.2013 v -0.60057 h 0.6004 v -0.60056 h -0.6004 v 0.60056 h -1.8019 v 0.60057 h -1.8013 v -0.60057 h -0.6007 v 0.60057 h -1.2011 v 0.60056 h -0.6002 v 0.60057 h -0.6006 v 0.60056 h -0.601 v 0.60057 h -0.6003 v 0.60056 h -1.2009 v 1.201 l -0.601,-0.60056 v 0.60056 h -0.6004 v 0.60057 h -1.2009 v 0.60056 h -0.6009 v 0.60057 h -0.6006 v 0.60056 h -0.6002 v 0.60057 h -0.6004 v 0.60056 h -3.6039 v 0.60057 h -0.6002 v -0.60057 h -0.6003 v -1.80156 h -0.6006 v -1.8017 h 0.6006 v -1.80158 h 0.6003 v -1.80169 h 0.6002 v -0.60057 h 0.6013 v -1.20113 h 0.6005 v -1.80156 h 0.6003 v -0.60057 h 0.6002 v -1.20113 h 0.6009 v -0.60056 h 0.6007 v -0.60045 h -0.6007 l 0.6007,-0.60057 h -0.6007 v -1.20113 h 0.6007 v -1.20113 h 0.6004 v -1.80169 h 0.6002 v -0.60044 h -0.6002 v -1.201128 h 0.6002 v -1.20113 h 0.6006 l 0.6009,-0.60056 h -0.6009 v -0.60057 h -0.6006 v -0.60056 h 0.6006 v -0.60057 h -0.6006 v -0.60056 h 0.6006 v -1.80157 h 0.6009 v -1.20113 h 0.6006 v -0.60056 l 0.6003,-0.60057 v -0.60056 h 1.2014 v 0.60056 h 0.6006 v -0.60056 h -0.6006 v -1.20113 h -0.601 v -0.60045 h 0.601 v -1.8017 h 0.6006 v -3.00282 h 0.6003 v -2.40213 h 0.6003 v -1.20113 h 0.601 v -2.40215 h 0.6006 v -1.20113 h 0.6002 v -0.60056 h 0.6003 v -0.60057 h 0.6008 v -3.60326 h 1.2013 v -0.60056 h 0.6003 v 0.60056 h 0.6004 v 2.40213 h 0.6011 v 1.20113 h 0.6005 v 0.60057 h 0.6003 v -6.60597 z M 437.54906,117.10901 v -1.80158 h 0.60032 v 0.60056 h 1.20174 v 0.60057 h 0.60008 v 1.80158 h -0.60008 v -0.60057 h -1.20174 v -0.60056 z m 191.55938,-8.40742 v -0.60057 h 0.6004 v 0.60057 h 1.2012 v 0.60056 h 0.6006 v 1.20113 h -0.6006 v 2.40213 h -1.2012 v -1.20113 h -0.6004 v 0.60057 h -3.0029 v -0.60057 h -0.6007 v 0.60057 h -1.2007 v -0.60057 h -1.8021 v -1.201 h 0.6007 v -0.60056 h 0.6008 v 0.60056 l 0.6006,-0.60056 v -0.60057 h 1.2007 v 0.60057 h 1.2015 v -0.60057 h 0.6002 v 0.60057 h 0.6005 v -1.20113 z M 621.30114,106.9 v -3.00282 h 1.2006 v 0.60057 h 1.2015 v 1.80169 h -1.2015 V 106.9 h -0.6003 v 0.60057 h -0.6003 v 1.20102 h -0.6006 v 0.60056 h -1.2013 v -0.60056 h -0.6004 V 106.9 Z M 522.21613,66.663262 h -0.60021 v -0.60056 h 0.60021 v -0.60044 h 1.20137 v 1.80157 h -1.20137 z m 11.41097,-1.201 h -0.60129 v -0.60056 h 1.20173 v 0.60056 h 0.60021 v 0.60044 h -0.60021 v 0.60056 h -1.20173 v -0.60056 h 0.60129 z m 21.61961,-21.61973 v -0.60044 h 4.19893 v 0.60044 h 0.6007 v 1.20113 h 0.60007 v 0.60056 h 0.60044 v 1.20113 h 0.60105 v 1.20113 h -0.60105 v 0.60057 h 3.00299 v -0.60057 h 0.6008 v -1.80169 h 1.2007 v 0.60056 h 0.6007 v 0.60057 h 3.003 v 0.60056 h -0.6008 v 0.60057 h 0.6008 v -0.60057 h 0.6005 v 1.8017 h 0.6003 v 0.60056 h 0.6003 v 0.60057 h 0.6013 v 0.60056 h 0.6004 v 0.60057 h 0.6003 v 1.80158 h 0.6002 v 1.80169 h 0.6009 v 1.8017 h -0.6009 v 0.60056 h -0.6002 v 0.60044 h 0.6002 v 1.20113 h 0.6009 v -0.60057 h 0.6007 v 0.60057 h 0.6005 v 1.20113 h -1.2012 v 1.80169 h -1.2011 v 0.60057 h -0.6003 v 1.20101 h 0.6003 v 0.60057 h -0.6003 v 1.80169 h -1.2017 v 0.60057 h 0.6013 v 1.201 h 0.6004 v 5.40484 h -0.6004 v 0.60056 h -3.0032 v 0.60057 h 0.6008 v 1.20113 h 1.2008 v 0.60056 h 0.6003 v 0.60045 h 0.6013 v 0.60057 h -1.2016 v 0.60056 h 0.6003 v 0.60057 h 1.2017 v 0.60056 h 0.6003 v 4.80439 h 0.6002 v 0.60057 h -0.6002 v 0.60056 h -0.6003 v 0.60045 h -0.6004 v 0.60057 h -0.6013 v 1.20113 h -0.6003 v 0.60056 h -0.6003 v 0.60057 h -0.6005 v -0.60057 h -1.2015 v 0.60057 h -4.2037 l 0.6008,0.60056 v 0.60057 h -0.6008 v -0.60057 h -0.6006 v 0.60057 h -1.2008 v -1.20113 h -0.60054 l 0.60054,-0.60057 h -0.60054 v 0.60057 h -0.60105 v -0.60057 h -1.80121 v 0.60057 h -0.60081 v -0.60057 h -1.80132 v -0.60056 h 0.60044 v -0.60057 h -1.80206 v -1.20113 h -1.20052 v -0.60045 h -0.60068 v -0.60056 h -0.60094 v -0.60057 h -0.60044 v -0.60056 h 0.60044 v -0.60057 h -0.60044 v -1.201 h -0.6002 l -0.60068,0.60044 v -0.60044 h -1.20113 v 0.60044 h -0.60045 v -0.60044 h -0.60057 v -0.60056 h -1.20149 v 0.60056 h -0.60032 v 0.60044 h -0.60045 v -0.60044 h -0.60081 v -0.60056 h -1.20088 v 0.60056 h -0.60044 v -1.80169 h 0.60044 v -0.60057 h -0.60044 v -1.20113 h -0.60056 v -0.60056 h -0.60094 v 0.60056 h -0.60032 v 0.60057 h -0.60032 v 0.60056 h -0.60068 v 0.60057 h -1.8017 v -0.60057 h -0.60045 v -0.60056 H 538.426 v -1.8017 h -0.60045 v -0.60045 h 0.60045 v -0.60056 h -0.60045 v -0.60057 h 0.60045 v -0.60056 h -0.60045 v -0.60057 h -0.60044 v -0.60056 h -0.60045 v -2.40226 h -0.60068 v -1.80157 h 0.60068 v -3.00282 h 0.60045 v -1.80158 h -0.60045 v -0.60057 h -2.40201 v -0.60056 h 0.60045 l -0.60045,-0.60057 h -0.60057 v -1.20113 h -0.60117 v -0.60043 h -1.20052 v 1.201 h -0.60057 v -0.60057 h -0.60081 v -1.201 h 0.60081 v -0.60056 h 1.20077 v -0.60057 h 1.20149 v -1.80158 h 0.60057 v -1.20113 h 0.60045 v -0.60056 h 0.60007 v -0.60057 h 0.60081 v -0.60056 h 1.20113 v -0.60057 h 0.60044 v 0.60057 h 1.80182 v -0.60057 h 0.60032 v -1.20113 h -0.60032 v -0.60056 h -0.60045 v -0.60057 H 538.426 v -2.40213 h 0.60092 v -0.60056 h 0.60045 v -0.60057 h 0.60032 v -0.60056 h 1.20138 v -1.20102 h 0.60068 v -0.60056 h 0.60032 v -2.40226 h 0.60032 v 1.20113 h 0.60094 v 1.20113 h 0.60056 v 0.60056 h 0.60044 v -0.60056 h 0.6002 l -0.6002,-0.60057 h 0.6002 v -0.60056 h 0.60068 v -0.60057 h 4.20409 v 0.60057 h 1.80181 v -0.60057 h 1.80158 v -0.60056 z m -21.0188,16.81521 h -1.20175 v 0.60057 h 1.20175 z m -13.21256,-16.81521 v -0.60044 h 3.00283 v 0.60044 h 0.60045 v 0.60056 h 0.60043 v 0.60057 h 2.40215 v 0.60056 H 527.021 v 0.60057 h 1.20089 v -0.60057 h 0.60069 v -0.60056 h 0.60044 v 0.60056 h 1.20088 v 0.60057 h 0.60106 v 0.60056 h 1.20064 v 0.60057 h 0.60045 v 1.20101 h 0.60117 v 0.60057 h 0.60056 v 0.60056 h 0.60021 v 1.8017 h -0.60021 v 1.201 h -0.60056 v 0.60056 h -1.20162 v 0.60057 h -0.60019 v 1.20113 h -1.20151 v 1.20113 h -0.60043 v 0.60056 H 527.021 v 0.60057 h -3.00282 v -0.60057 h -2.40202 v 0.60057 h -1.80205 v -0.60057 h -0.60032 v -0.60056 h -1.20126 v -1.20113 h -0.60068 v -1.20113 h 0.60068 v 0.60056 h 2.40201 v 0.60057 h 0.60081 v 0.60056 h 0.60081 v 0.60057 h 0.60021 v -0.60057 h 0.60032 v -1.20113 h 1.20149 v 0.60057 h 1.20088 v -1.20113 h -0.60043 v -1.201 h -0.60045 v -0.60057 h -1.20149 v 0.60057 h -0.60032 v -0.60057 h -1.80183 v -0.60056 h -1.20075 v -0.60057 h -0.60045 v -0.60056 h -0.60081 v -1.20113 h 1.20126 v -0.60057 h 0.60032 v -0.60045 h -0.60032 v -0.60056 h -0.60045 v -1.20113 h 0.60045 v -1.20113 h 0.60032 v -1.20113 h -1.20077 v -0.60057 h 1.8012 v 0.60057 z M 423.73448,33.032489 h -0.60081 v -0.600451 h 0.60081 l 0.60044,0.600451 v 1.20113 h 0.60044 v 0.600565 h 1.2015 v 1.20113 h 0.60032 v 0.600565 h 0.60044 v 1.801564 h 0.60032 v 0.600565 h 0.60118 v 0.600565 h 0.60056 v 0.600565 h 0.6002 v 1.20113 h -1.80194 v -0.600565 h -1.20076 v -0.600565 h -1.80182 v -2.402129 h -0.60044 v -0.600565 h -0.60044 v -0.600565 h -0.60081 v -2.402146 h -0.60057 v -0.600565 h 1.20138 z M 544.4336,13.211888 h -0.6008 v 0.600565 h 0.6008 z m -14.4138,26.424125 h -0.598 v 1.20113 h 0.60045 v 0.600565 h 0.60043 v -0.600565 h -0.60043 V 40.236578 Z M 547.43594,5.4046572 h -0.6007 v -0.600434 h 4.80441 v 0.600434 h 0.60068 v 1.20113 h 1.20064 v 0.600565 h -0.60019 v 0.600565 h 0.60019 v 1.201016 h 0.60105 v 2.4022598 h -0.60105 v 0.600565 h 1.20162 v 1.801564 h 0.60021 v 0.600565 h 0.60032 v 0.600565 h -0.60032 v 1.20113 h 0.60032 v 1.801581 h 1.80194 v 1.20113 h 0.60032 v 0.600565 h 0.60068 v 1.20113 h 1.2015 v 0.600565 h 1.20051 v 1.801695 h -0.60032 v 0.600434 h 0.60032 v 0.600565 h 0.60105 v 1.20113 h -0.60105 v 0.600565 h -1.20051 v 0.600565 h -0.6007 v 0.600451 h -1.20148 v -0.600451 h -0.60032 v 0.600451 h 0.60032 v 3.002694 h -0.60032 v 1.20113 h 0.60032 v 1.20113 h 0.60068 v 3.002711 h -0.60068 v 1.20113 h 0.60068 v 1.801564 h -0.60068 v 0.600565 h -0.60032 v 0.600565 h -1.20126 v 0.600565 h -4.20347 v 0.600565 h -0.60068 v -0.600565 h -4.20371 v 0.600565 h -0.6007 v 0.600565 h -1.80169 v 0.60057 h -3.00258 v 0.60056 h -1.20149 v -0.60056 h -0.60056 v 1.20112 h -0.60021 v 1.20113 h -0.60057 v 0.60057 h -1.20137 v 0.60056 h -1.20075 v 0.60057 h -1.20162 v 0.60045 h -0.60021 v -0.60045 h -1.20089 v -0.60057 h -0.60116 v -1.20113 h -0.60032 v -0.60056 h -0.60021 v -0.60057 h -0.60057 v -0.60056 h -0.6008 v -0.60043 h -0.60057 v -0.60057 h -1.19844 v -0.600564 h -1.20137 v -0.600565 h -1.80132 v -0.600565 h 3.00269 v -0.600565 h -0.60068 v -2.402146 h -1.80133 v -0.600565 h -2.40226 v 0.600565 h -0.60057 v -0.600565 h 0.60057 v -0.600565 h -1.20162 v 0.600565 h -0.60032 v -0.600565 h 0.60032 v -0.600565 h 0.60105 v -1.20113 h 3.60328 v 0.600565 h 0.60019 v -0.600565 h 1.80194 v 0.600565 h 0.60032 v -0.600565 h -0.60032 v -0.600565 h -1.20125 v -0.600565 h -0.60069 v -0.600565 h -0.60019 v -1.20113 h 1.20088 v -0.600434 h 2.40202 v -1.801695 h 0.60105 v 0.600565 h 0.60044 v -3.002825 h 0.6002 v -1.201016 h 0.60044 v -1.20113 h 0.6013 v -0.600434 h 0.60045 v -0.600565 h 1.20051 v -0.600565 h 0.60069 v -1.801695 h -1.20101 v 1.20113 h -2.40238 v 0.600565 h -1.20064 v -0.600565 h -0.60105 v -0.600565 h 0.60105 v -0.600565 h 0.60044 v -0.600565 h 0.6002 v -0.600565 h 1.20174 v -0.600565 h -0.6013 v -0.600565 h 0.6013 v -0.600565 h 0.60045 v -0.600565 h 1.8012 v -0.600565 l -0.60069,0.600565 v -1.20113 h -0.60032 v -0.600565 h 0.60032 v -0.600565 h 1.20162 v -0.600565 h 0.60032 v 0.600565 h 0.60032 v -1.201016 h 0.60045 v 0.600451 h 0.60092 v -1.201016 h 1.80145 v 0.600565 h 0.60094 v -1.20113 h 0.60044 v -0.600565 l 0.60032,0.600565 v 1.20113 h 0.60032 v -0.600565 h 0.60094 v -0.600565 h 0.60081 v -1.20113 h 1.20051 V 9.6084982 h 0.60069 v -0.600565 h 0.60081 v -0.600565 h 0.60057 v -0.600565 h 0.60007 v -0.600565 h 3.0027 v -0.600451 h -3.60277 v -0.600565 z m -23.41923,-1.200999 v -0.600565 h 1.80158 v 0.600565 h 0.60068 v 1.200999 h 0.60045 v 1.801695 h 0.60032 v 0.600565 h -0.60032 v 1.201016 h -0.60045 v 0.600565 h -0.60068 V 10.209063 H 522.2149 V 9.6084982 h -1.80194 v -1.20113 h -0.60044 v -0.600451 h -0.6002 v -3.002825 h 0.6002 v -0.600565 h 1.80218 v -0.600565 h 1.20039 v 0.600565 h 0.60119 z M 456.15752,0.60038224 V -1.8275879e-4 h 3.00295 V 0.60038224 h 0.60106 V 1.2009472 h 0.60019 v 0.600451 h 1.20101 v 0.600565 h 0.60069 v 0.600565 h -0.60069 v 0.600565 h -0.60069 v 1.20113 h -1.20051 v 0.600434 h -2.40226 l -0.60069,-0.600434 h -1.80157 v -0.600565 h -1.2015 v -1.801695 h 0.60093 v -1.201016 h 0.60057 V 0.60038224 Z m 5.40533,0 h -0.60068 V -1.8275879e-4 h 1.80206 V 0.60038224 h 0.6002 V 1.2009472 h -1.20089 v 0.600451 h -0.60069 z M 378.09325,358.53954 v -0.60056 h 0.60069 v -0.60057 h 0.60044 v -0.60056 h 1.8017 v -0.60057 h 0.60056 v 0.60057 h -0.60056 v 0.60056 h -0.60057 v 0.60057 h -1.80157 v 0.60056 z M 442.94558,255.8411 v -1.20113 h 0.60057 l 0.60093,-0.60057 v -0.60056 h 1.80108 v -0.60057 h 0.60106 v -0.60056 h 0.60056 v 0.60056 h -0.60301 v 0.60057 h -0.60105 v 0.60056 h -0.60032 v 0.60057 h -1.20089 v 0.60056 h -0.60105 v 0.60057 z m 102.68315,-69.06191 v -1.20358 h 1.20151 v -0.60056 h 0.60056 v -0.60057 h 1.20076 v -0.60056 h 1.20137 v -0.60057 h 1.20064 v 0.60057 h -0.60032 v 0.60056 h -0.60032 v 1.20113 h -0.60056 v 0.60057 h -1.80157 v 0.60043 h -1.20137 z M 527.0144,110.50573 v -2.40215 h 0.60032 v -0.60056 h 1.80182 v 0.60056 h -1.20126 v 0.60057 l 0.6007,0.60056 v 0.60045 h -0.6007 l -0.60056,0.60057 z"
     style="clip-rule:evenodd;fill:#000000;fill-rule:nonzero;stroke:none;stroke-width:1.25128px"
     id="path1274" />
</svg>
