<?xml version="1.0" encoding="UTF-8" standalone="no"?>
<svg
   xmlns:dc="http://purl.org/dc/elements/1.1/"
   xmlns:cc="http://creativecommons.org/ns#"
   xmlns:rdf="http://www.w3.org/1999/02/22-rdf-syntax-ns#"
   xmlns:svg="http://www.w3.org/2000/svg"
   xmlns="http://www.w3.org/2000/svg"
   xmlns:sodipodi="http://sodipodi.sourceforge.net/DTD/sodipodi-0.dtd"
   xmlns:inkscape="http://www.inkscape.org/namespaces/inkscape"
   version="1.0"
   width="1024pt"
   height="1024pt"
   viewBox="0 0 1024 1024"
   preserveAspectRatio="xMidYMid meet"
   id="svg2211"
   sodipodi:docname="vector.svg"
   inkscape:version="1.0.2-2 (e86c870879, 2021-01-15)">
  <defs
     id="defs2215" />
  <sodipodi:namedview
     pagecolor="#ffffff"
     bordercolor="#666666"
     borderopacity="1"
     objecttolerance="10"
     gridtolerance="10"
     guidetolerance="10"
     inkscape:pageopacity="0"
     inkscape:pageshadow="2"
     inkscape:window-width="1366"
     inkscape:window-height="697"
     id="namedview2213"
     showgrid="false"
     inkscape:zoom="0.1940918"
     inkscape:cx="1266.7524"
     inkscape:cy="760.26375"
     inkscape:window-x="-8"
     inkscape:window-y="-8"
     inkscape:window-maximized="1"
     inkscape:current-layer="svg2211"
     fit-margin-top="0"
     fit-margin-left="0"
     fit-margin-right="0"
     fit-margin-bottom="0" />
  <metadata
     id="metadata2205">
Created by potrace 1.10, written by Peter Selinger 2001-2011
<rdf:RDF>
  <cc:Work
     rdf:about="">
    <dc:format>image/svg+xml</dc:format>
    <dc:type
       rdf:resource="http://purl.org/dc/dcmitype/StillImage" />
    <dc:title></dc:title>
  </cc:Work>
</rdf:RDF>
</metadata>
  <path
     d="m 889.55798,157.86264 v 4.2667 h 17.0669 v 12.8001 l 4.2667,8.53252 h 4.2658 l 12.8001,8.5334 4.2667,4.2667 v 4.2667 l -4.2667,4.2667 4.2667,4.26583 4.2667,4.2667 v 8.53339 l -4.2667,4.2667 v 8.5334 l 4.2667,8.53339 4.2667,4.2667 4.2659,8.53253 4.2667,8.53339 v 29.86603 l -8.5326,8.5334 v 17.06593 l 4.2659,4.2667 8.5334,4.2667 -12.7993,8.5334 4.2659,25.59933 8.5334,17.06592 -8.5334,4.2667 -4.2659,8.5334 v 12.80009 l -4.2667,8.5334 -8.5334,4.26671 h -8.5334 l 4.2666,4.2667 4.2668,8.53252 -4.2668,4.2667 -8.5333,8.5334 -8.5325,-4.2667 -4.2667,4.2667 -4.2667,-4.2667 h -8.5335 l -8.5333,-4.2667 -4.2667,-8.5334 -4.2667,-4.26582 h -4.2658 l -4.2667,4.26582 -4.2667,4.2667 v 17.0668 h -12.80009 l -4.26672,-4.2667 h -8.53257 v 4.2667 l -4.26671,4.26583 4.26671,8.5334 v 42.66699 l -4.26671,4.2667 h -8.53335 l -8.53343,8.53339 h -4.26671 v -8.53339 l -4.26663,-8.5334 -4.26674,-4.2667 h -8.53253 l -8.5334,8.5334 v 17.06679 l -4.2667,12.79924 -4.2667,8.53339 v 12.8001 l -4.2667,4.2667 -8.53252,4.2667 4.2667,12.79923 4.26582,17.0668 h 8.5334 l 8.5334,4.26582 h 25.59931 l 8.53343,4.2667 v 8.5334 l -4.26671,4.2667 -4.26672,4.28408 4.26672,4.2667 8.53343,4.2667 4.26663,8.5334 h 8.53343 l 12.79916,4.2667 h 21.3327 l 12.8001,4.2667 8.5334,8.53339 4.2667,4.26582 v 8.5334 l -4.2667,4.2667 -4.2668,4.2667 v 25.59933 l -4.2666,4.2667 -8.5334,4.26669 h -21.3326 v 12.79924 l -4.2668,4.2667 -8.53331,4.2667 v 8.53339 l 8.53331,8.5334 4.2668,21.33262 4.2667,4.26671 -4.2667,8.5334 v 4.26583 l -4.2668,-4.26583 h -4.26659 l -4.26672,-4.2667 v 4.2667 l -4.26585,-4.2667 v -4.2667 h -17.06678 v 12.79923 h -17.06677 l -4.26587,-4.26583 -4.2667,-4.2667 h -4.2667 v -4.2667 h -4.2667 v -4.26671 h -8.5334 v -4.2667 h -8.5334 v 4.2667 h -12.79923 l -4.24845,4.26671 h -12.8001 l -4.26669,4.2667 h -8.5334 l -4.2667,4.2667 h -4.2667 v 8.53252 h -8.53253 v -8.53252 l -4.2667,-4.2667 v -17.0668 h 17.06593 v -4.26583 l -4.2667,-8.5334 H 706.1126 v -4.2667 l -8.5334,-4.2667 h -4.2667 v -4.2667 h -8.5334 v -4.26669 h -4.26582 v -8.5334 h -17.0668 l -4.2667,4.2667 v 12.80009 h -8.5334 l -4.2667,-4.2667 v -4.26669 l -4.2667,-4.2667 h -4.26583 l 4.26583,-4.2667 h 4.2667 v -8.53341 h -4.2667 l 4.2667,-4.26583 h -8.53253 v 4.26583 h -4.2667 v 4.26671 l -4.2667,-4.26671 v -12.79922 h -17.06679 l -4.26584,4.2667 v 4.26669 h -4.2667 v -4.26669 l 4.2667,-4.2667 v -4.2667 l -8.53339,-8.5334 v -4.26583 l 4.26669,-12.8001 v -4.2667 h -4.26669 v -4.2667 h -8.5334 l -4.2667,-4.2667 h -4.26583 v 4.2667 h -12.80009 v 4.2667 h -4.2667 v 4.2667 l 4.2667,4.2667 h -4.2667 v 4.2667 h -4.26671 v 4.2667 l -4.2667,4.26583 h -4.2667 l -4.2667,-4.26583 v -4.2667 l 4.2667,-4.2667 -4.2667,-4.2667 h -4.26669 l -8.53253,-8.5334 h -4.2667 l -4.2667,4.2667 h -4.2667 v 8.5334 h 4.2667 v 4.2667 l 4.2667,4.2667 h 4.2667 v 12.79923 l 4.2667,4.2667 v 8.53339 h -4.2667 v 4.26583 h -12.8001 l -4.24845,4.26671 -4.2667,4.2667 h -4.26669 l -4.26671,-4.2667 -4.2667,4.2667 -4.2667,8.5334 h -4.2667 v -8.5334 l -4.2667,-4.2667 h -8.53252 l -4.2667,8.5334 v 4.2667 h 4.2667 l 8.53252,4.26669 v 4.2667 h 4.2667 v 4.2667 l 4.2667,4.2667 v 8.5334 h 4.2667 v 4.26583 h 4.2667 l 4.26671,4.26669 4.26669,4.2667 4.2667,4.26671 h 17.06593 l 8.53339,4.2667 v 4.2667 l 4.2667,4.26583 v 12.80009 l -4.2667,4.2667 h -8.53339 l -4.2667,4.2667 h -4.2667 v -4.2667 h -8.53253 v -4.2667 h -4.2667 v -4.2667 l 4.2667,-4.2667 h -4.2667 l -4.26669,-4.26669 v -4.26583 l -4.26671,-4.2667 h -4.2667 v 4.2667 h -4.2667 l -4.2667,8.53252 h -4.2667 l -4.2667,4.2667 h -8.53252 v 4.2667 l -4.2667,4.2667 -4.2667,8.5334 v 12.8001 l 8.5334,8.53252 8.53252,4.26672 h 4.2667 v 8.53343 h 4.2667 v 8.53334 l 4.2667,8.53257 8.5334,4.26663 h 4.26671 v 4.26672 l 4.26669,-4.26672 4.2667,-4.26663 4.2667,4.26663 v 4.26672 l 4.26583,4.26676 -4.26583,12.7992 4.26583,8.5334 8.5334,12.8 h 4.2667 v 4.2668 h 4.26669 l 4.2667,4.2667 h 4.2667 l 4.26584,8.5334 4.2667,4.2658 -4.2667,4.2667 v 8.5334 l -8.53254,8.5335 v 4.2666 h -25.59932 v -4.2666 h -4.2667 v -17.0669 h -8.53339 l -4.26671,-4.2667 h -4.2667 v -4.2658 h -8.5334 v -4.2667 l -4.2667,4.2667 h -8.53252 v -4.2667 l -4.2667,-8.5334 v -8.5334 h -4.2667 v -4.2667 l -4.2667,-4.2667 h -4.2667 l -8.53253,4.2667 h -4.2667 l -4.2667,-4.2667 -4.26669,-4.2667 v -8.5325 l -4.2667,-4.2667 h -21.33262 v 4.2667 l -4.2667,-4.2667 v -4.2667 h -8.5334 v 17.0659 h -4.2667 l -8.5334,4.2667 h -21.33262 l -8.5334,4.2667 v 4.2667 h -8.53254 l -8.53339,-4.2667 h -8.5334 l -4.2667,4.2667 v 4.2666 l -8.5334,8.5335 4.2667,4.2667 v 4.2667 l 4.2667,4.2658 4.2667,4.2667 v 4.2667 l -4.2667,4.2667 v 4.2667 l -4.2667,8.5334 h -4.2667 v 4.2658 l 4.2667,4.2667 4.2667,4.2667 4.2667,4.2667 v 4.2667 l -4.2667,4.2666 v 29.86621 l -4.2667,4.2666 h -4.2667 l -8.5334,4.2667 h -34.09623 v -4.2667 L 270.9736,1024 h -17.0668 v -4.2668 h -4.2667 l -8.53253,-8.5333 h -17.0668 l -12.79922,4.2666 h -8.5334 l -8.5334,4.2667 h -4.2667 l -8.5334,4.2668 -4.2667,-4.2668 h -4.2667 l -4.26583,-4.2667 h -4.26669 l -4.2667,-4.2666 v -8.5334 l -4.2667,-4.26591 -4.2667,-8.5334 17.06679,-8.5335 8.53253,-8.5333 8.5334,-4.2667 12.8001,-4.2667 h 8.5334 l 8.53253,-4.2667 v -8.5324 l 8.53339,-8.5335 4.2667,-8.5334 v -8.5325 l -4.2667,-4.2667 -8.53339,-8.5334 h -8.53253 l -8.5334,-4.2668 -4.2667,-4.2666 v -12.8001 l -4.2667,-4.2667 h -8.5334 v -4.2658 l -4.2667,-4.2667 -4.2667,-8.53346 h -12.79922 l -4.2667,-4.26672 -4.2667,-4.26663 4.2667,-8.53257 H 134.4427 l -17.0668,-8.53334 -4.2667,4.26663 -4.26582,4.26671 -4.2667,8.53257 v 8.53335 l -4.26671,4.26676 v 4.2667 l -4.266695,-4.2667 -4.2667,-8.53348 -4.2667,-8.53334 -4.26669,-12.7992 v -8.53343 l 4.26669,-8.53344 v -8.53251 l -12.80009,-4.26669 h -4.2667 v -21.3335 l 8.5334,-4.2667 4.2667,-4.26669 v -29.86516 l 12.80009,-8.5334 4.266695,-4.2667 8.53341,-17.06679 12.79922,-12.80011 12.8001,-17.06592 21.33263,-4.2667 8.5334,-4.2667 V 669.8726 l 4.26669,-4.2667 8.53253,-17.06592 -4.2667,-21.33349 h 12.8001 l 4.2667,-12.80009 4.2667,-4.26584 12.8001,-12.8001 12.79923,-21.33262 v -17.0668 l 8.53339,-4.2667 8.5334,-4.2667 17.06593,-17.06592 12.8001,-17.0668 8.5334,-8.53253 8.53339,-12.8001 8.53254,4.2667 8.5334,4.2667 h 21.33262 l 12.80009,-12.8001 12.79924,-8.5334 8.5334,-4.26582 h 12.80009 l 4.2667,8.53252 4.2667,4.2667 12.79923,4.2667 8.5334,12.8001 v 4.26583 h 8.5334 l 8.53252,-12.79923 8.5334,-8.5334 8.53341,-8.5334 -4.26671,-4.26582 -4.2667,-17.06681 12.80011,-4.2667 8.53338,-4.26669 4.26669,-17.06593 v -4.2667 h 21.33264 l 12.80009,-8.53339 25.58108,-21.33264 v -12.80009 l 4.2667,-4.2667 v -4.2667 h 4.2667 l 4.2667,-4.2667 h 4.2667 v -4.2667 h -12.8001 l -4.2667,-4.26669 h -4.2667 v -21.33264 l -4.26669,4.2667 h -4.26584 l -8.5334,4.2667 -12.80009,-4.2667 -21.33264,17.06594 h -12.79921 l -29.86689,8.53339 -8.5334,-4.2667 -8.53253,-12.79923 -8.5334,4.2667 -8.5334,-4.2667 -25.59932,-8.5334 h -8.5334 l -4.26671,8.5334 -8.53339,4.2667 -8.53253,-8.5334 -4.2667,-12.80009 -8.5334,-12.79923 -4.26669,-4.26671 -12.78185,-4.2667 -12.79924,-4.26669 -12.80009,4.26669 h -21.33349 l -12.79924,-4.26669 -4.2667,-4.2667 v -25.59932 l -4.2667,-12.8001 4.2667,-4.26671 4.2667,-12.79922 -4.2667,-21.33263 -4.2667,-12.8001 v -8.53338 l -4.26669,-4.26671 -4.2667,-12.80009 -8.53253,-25.59932 v -12.79924 l 4.2667,-4.2667 8.53253,-4.2667 h 8.53339 l 4.2667,-8.53339 4.2667,-8.53253 -4.2667,-25.6002 4.2667,-4.28408 17.06593,-4.2667 8.5334,-8.53339 8.5334,-4.2667 h 34.13272 l 12.79923,4.2667 4.2667,8.53339 12.80009,12.8001 12.79924,17.06593 17.06679,17.0668 -4.2667,12.79922 -8.53339,4.2667 -12.79924,4.2667 -8.53339,12.79923 -4.2667,12.8001 -8.5334,8.5334 -8.53253,4.2667 4.26583,4.2667 12.8001,-4.2667 8.53339,-4.2667 12.79924,-4.2667 12.80009,-17.0668 17.0668,-4.26582 4.2667,17.06592 v 17.0668 l -4.2667,8.53338 v 8.53253 l 8.53253,4.2667 v 21.33263 l 17.0668,4.2667 21.33262,-4.2667 4.2667,-21.33263 -12.8001,-17.06592 v -4.26669 h 8.5334 l 12.80011,-4.2667 4.26669,-8.5334 h 21.33262 l 8.5334,8.5334 v 12.80008 h 21.33262 l 12.78185,-4.26669 4.2667,-4.26669 v -8.5334 l 8.5334,-4.2667 h 4.2667 l 12.8001,4.2667 12.79923,8.5334 8.5334,4.26669 h 4.26669 l 8.5334,-4.26669 25.59932,-8.5334 -17.06679,-12.8001 -4.2667,-17.06593 -12.79923,-4.2667 4.2667,-8.5334 4.2667,-12.79922 8.53253,-4.2667 -4.2667,-12.8001 -4.26583,-4.2667 -4.2667,-12.79923 8.53253,-8.5334 8.5334,-4.2667 12.80009,-4.26669 4.2667,-12.8001 4.26671,-8.53253 12.79922,-4.2667 h 12.8001 l 4.2667,-4.2667 v -12.8001 l -8.5334,-4.26583 h -8.5334 l -4.26582,-8.5334 -12.80011,-4.2667 12.80011,-12.80009 4.26582,4.2667 h 12.8001 l 4.2667,-8.5334 4.2667,-4.2667 4.2667,-8.5325303 8.53253,-4.266699958788 8.5334,4.266699958788 8.5334,17.0659303 4.2667,4.2667 8.53252,4.2667 4.2667,4.26669 4.2667,4.2667 4.26671,4.2667 v 4.2667 l -4.26671,4.26583 v 17.0668 l 8.5334,4.2667 h 8.5334 l 8.5334,4.26583 8.53253,4.2667 v 4.2667 l 4.26669,8.5334 8.51515,4.26669 8.5334,4.2667 8.53341,4.2667 h 12.80009 l 8.53253,4.2667 4.2667,4.2667 4.2667,8.53253 v 8.5334 l 4.2667,4.2667 h 8.53339 l 8.53256,4.2667 v 4.2667 l 4.26663,4.26583 8.53344,4.26669 8.53343,8.5334 8.53248,4.2667 4.26672,4.2667 h 4.26671 l 8.53339,4.26671 4.2667,-4.26671 v -21.33349 l 17.0668,-8.53253 8.5325,4.2667 4.2667,8.53252 4.2668,4.2667 z"
     style="clip-rule:evenodd;fill:#000000;fill-rule:nonzero;stroke:none;stroke-width:8.8897px"
     id="path1374" />
</svg>
