<?xml version="1.0" encoding="UTF-8" standalone="no"?>
<svg
   xmlns:dc="http://purl.org/dc/elements/1.1/"
   xmlns:cc="http://creativecommons.org/ns#"
   xmlns:rdf="http://www.w3.org/1999/02/22-rdf-syntax-ns#"
   xmlns:svg="http://www.w3.org/2000/svg"
   xmlns="http://www.w3.org/2000/svg"
   xmlns:sodipodi="http://sodipodi.sourceforge.net/DTD/sodipodi-0.dtd"
   xmlns:inkscape="http://www.inkscape.org/namespaces/inkscape"
   version="1.0"
   width="1024pt"
   height="1024pt"
   viewBox="0 0 1024 1024"
   preserveAspectRatio="xMidYMid meet"
   id="svg2211"
   sodipodi:docname="vector.svg"
   inkscape:version="1.0.2-2 (e86c870879, 2021-01-15)">
  <defs
     id="defs2215" />
  <sodipodi:namedview
     pagecolor="#ffffff"
     bordercolor="#666666"
     borderopacity="1"
     objecttolerance="10"
     gridtolerance="10"
     guidetolerance="10"
     inkscape:pageopacity="0"
     inkscape:pageshadow="2"
     inkscape:window-width="1366"
     inkscape:window-height="697"
     id="namedview2213"
     showgrid="false"
     inkscape:zoom="0.1940918"
     inkscape:cx="1266.7524"
     inkscape:cy="760.26375"
     inkscape:window-x="-8"
     inkscape:window-y="-8"
     inkscape:window-maximized="1"
     inkscape:current-layer="svg2211"
     fit-margin-top="0"
     fit-margin-left="0"
     fit-margin-right="0"
     fit-margin-bottom="0" />
  <metadata
     id="metadata2205">
Created by potrace 1.10, written by Peter Selinger 2001-2011
<rdf:RDF>
  <cc:Work
     rdf:about="">
    <dc:format>image/svg+xml</dc:format>
    <dc:type
       rdf:resource="http://purl.org/dc/dcmitype/StillImage" />
    <dc:title></dc:title>
  </cc:Work>
</rdf:RDF>
</metadata>
  <path
     d="m 660.74138,145.29666 v 6.91909 l -6.9191,6.91909 -13.8382,20.75727 -13.8382,13.83677 v 6.91909 l 6.9191,6.9191 6.9191,6.91909 27.6764,13.83818 6.9191,13.83677 6.9191,6.91909 13.8381,6.91909 h 13.8367 l 6.9191,13.83818 v 13.83818 h 6.9191 l 27.6764,13.83819 6.919,6.91909 v 27.67493 l -13.8381,20.75586 -6.9191,13.83819 v 34.59404 l 13.8382,13.83818 -6.9191,6.91909 h -6.9191 v 6.91909 l 13.8368,13.83819 v 55.35131 l 6.9191,20.75586 6.9191,6.9191 6.9191,13.83818 6.9191,13.83818 6.9191,13.83818 h -6.9191 v 13.83818 l -6.9191,13.83677 v 48.43223 l 6.9191,6.91909 13.8382,-6.91909 h 20.7558 l 6.919,13.83818 -6.9175,20.75732 v 6.9176 l 6.919,6.9191 13.8367,-6.9191 h 6.9191 l 6.9191,-6.9176 6.9191,13.8367 v 13.8382 l -13.8367,13.8382 -6.9191,13.8382 v 27.6749 l 6.9191,13.8382 13.8367,6.9191 13.8382,13.8382 h 6.9191 v 13.8368 l 6.9191,6.9191 13.8368,6.919 6.9191,6.9191 v 6.9191 l 6.9191,13.8382 v 20.7558 l -13.8369,20.7573 v 6.919 l -13.8381,6.9191 -13.8367,6.9178 v 27.6764 l 6.9191,6.9191 v 6.9191 h -27.6764 l -6.9191,-6.9191 v -20.7573 l -34.5954,-34.5941 -13.8369,-6.9191 -6.9191,6.9191 v 20.7559 l -6.9191,20.7573 -13.8382,20.7573 -6.9191,13.8366 -13.8366,6.9191 -6.9191,6.9191 -6.9191,13.8382 v 13.83821 l -13.8382,6.9191 h -6.9191 L 695.33678,1024 v -34.59551 l -6.9191,-20.7573 v -13.8366 l 6.9191,-13.8382 v -27.6764 l -6.9191,-6.9178 -13.8368,-13.8381 h -27.6764 l -6.9191,-6.9191 -6.9191,-13.8382 -6.9191,-13.8367 v -13.8382 h -6.919 l -13.8367,-13.8382 -6.9191,-13.8381 -13.8382,-13.8382 h -13.8369 l -6.9191,-6.9177 -6.919,-6.9191 -13.8382,-6.9191 -6.9191,-6.9191 v -6.9191 h -13.8382 l -13.8367,6.9191 -6.9191,6.9191 -13.8382,-6.9191 h -6.919 l -13.8085,-6.9191 v -6.9191 l -6.9191,-6.9191 -6.9191,-6.9176 -13.8382,-13.8382 h -34.5941 l -13.8367,-6.9191 -6.9191,-6.9191 -6.9191,-6.9191 -6.9191,-13.8382 v -20.7558 l -13.8382,-13.83823 v -34.59404 l -6.9191,-6.91909 h -13.8368 l -6.9191,-6.91909 v -20.75728 l 6.9191,-6.91909 V 574.2704 h -34.5955 v 20.75586 h -6.9191 l -6.9191,6.91909 -13.8381,-13.83818 h -13.8367 l -13.8382,6.91909 h -6.9191 v -13.83677 l -6.9191,-13.83818 h -13.8369 l -6.919,-6.91909 -13.8382,-6.91909 v -6.91909 h -6.9191 l -6.9191,-6.91909 6.9191,-13.83818 6.9191,-6.9191 V 505.0809 l -6.9191,-13.83818 h 13.8382 v -20.75727 h -6.9191 v -6.91768 h 6.9191 v -6.91909 h -13.8382 v -6.91909 h -13.8382 v -6.91909 6.91909 -20.75728 h 6.9191 v -6.91909 l 6.9191,-6.91909 v -6.91909 h 6.9191 v -13.83677 h 6.9191 v -6.91909 h 13.8381 v -6.91909 l -6.919,-6.91909 v -6.91909 h -6.9191 v -20.75587 h -6.9191 l -6.9191,-6.91909 h -6.9191 l -6.9191,-6.91909 h -6.9191 v -6.91909 6.91909 h -6.9191 v -6.91909 h -6.9191 v -13.83816 h -6.9191 v -20.75727 h 6.9191 v -6.91909 h 6.9191 v -6.91769 l -13.8382,-13.83818 v -6.91909 l -6.919,-6.91909 v -13.83677 l -6.9191,-6.91909 v -6.91909 h -13.8367 l -6.9191,-6.91909 v -20.75728 h 6.9191 l 6.9191,-6.91768 6.9191,6.91768 v -6.91768 h 20.7557 v -41.51454 h 20.7573 v -6.91909 h 6.9191 v 6.91909 -6.91909 h 27.6764 v -6.91909 l -6.9191,-6.91909 h 6.9191 v -6.91769 l 6.919,-6.91909 V 89.94534 l 6.9191,-6.91909 V 55.3513 h 13.8369 v 6.91909 h 6.9191 v 6.91909 h 6.9191 v 6.91768 h 6.9191 v 6.91909 h 6.9191 l 6.9191,6.91909 6.919,6.91909 v 6.91909 h 13.8382 l 6.9191,-6.91909 V 83.02625 h 13.8367 l 6.9191,-6.91909 V 48.43221 h 34.5954 l -6.919,-13.83819 V 13.83675 h 13.8368 L 377.09678,-2.0258789e-5 397.85258,6.9176597 l 13.8382,6.9190903 6.919,6.91909 6.9191,13.83818 v 13.83819 l 13.8369,6.91909 h 6.9191 l 13.8382,-6.91909 h 6.9191 V 27.67493 l 13.8381,-6.91909 h 6.9191 l 6.9191,6.91909 v 20.75728 l 6.9191,6.91909 6.9191,-6.91909 h 13.838 l 6.9191,-6.91909 6.9191,6.91909 h 6.9191 l 6.9191,-6.91909 h 20.7559 l 6.9191,13.83818 20.7573,20.75586 h 20.7558 l 6.919,13.83818 -6.919,6.91909 6.919,13.83818 20.7573,-6.91909 6.9191,6.91909 v 20.75587 l 13.8382,-13.83678 6.9191,6.91769 v 13.83818 l -13.8382,6.91909 z"
     style="clip-rule:evenodd;fill:#000000;fill-rule:nonzero;stroke:none;stroke-width:14.4159px"
     id="path1320" />
</svg>
