<?xml version="1.0" encoding="UTF-8" standalone="no"?>
<svg
   xmlns:dc="http://purl.org/dc/elements/1.1/"
   xmlns:cc="http://creativecommons.org/ns#"
   xmlns:rdf="http://www.w3.org/1999/02/22-rdf-syntax-ns#"
   xmlns:svg="http://www.w3.org/2000/svg"
   xmlns="http://www.w3.org/2000/svg"
   xmlns:sodipodi="http://sodipodi.sourceforge.net/DTD/sodipodi-0.dtd"
   xmlns:inkscape="http://www.inkscape.org/namespaces/inkscape"
   version="1.0"
   width="1024pt"
   height="1024pt"
   viewBox="0 0 1024 1024"
   preserveAspectRatio="xMidYMid meet"
   id="svg2211"
   sodipodi:docname="vector.svg"
   inkscape:version="1.0.2-2 (e86c870879, 2021-01-15)">
  <defs
     id="defs2215" />
  <sodipodi:namedview
     pagecolor="#ffffff"
     bordercolor="#666666"
     borderopacity="1"
     objecttolerance="10"
     gridtolerance="10"
     guidetolerance="10"
     inkscape:pageopacity="0"
     inkscape:pageshadow="2"
     inkscape:window-width="1366"
     inkscape:window-height="697"
     id="namedview2213"
     showgrid="false"
     inkscape:zoom="0.1940918"
     inkscape:cx="1052.9361"
     inkscape:cy="760.26375"
     inkscape:window-x="-8"
     inkscape:window-y="-8"
     inkscape:window-maximized="1"
     inkscape:current-layer="svg2211"
     fit-margin-top="0"
     fit-margin-left="0"
     fit-margin-right="0"
     fit-margin-bottom="0" />
  <metadata
     id="metadata2205">
Created by potrace 1.10, written by Peter Selinger 2001-2011
<rdf:RDF>
  <cc:Work
     rdf:about="">
    <dc:format>image/svg+xml</dc:format>
    <dc:type
       rdf:resource="http://purl.org/dc/dcmitype/StillImage" />
    <dc:title></dc:title>
  </cc:Work>
</rdf:RDF>
</metadata>
  <path
     d="m 429.19812,519.86925 v -1.42789 h 1.42818 v 1.42789 h 1.42819 v 1.42819 h -4.28427 v -1.42819 z m -11.4249,-29.99131 v -1.42818 h 2.85608 v 1.42818 h 1.42818 v 2.85638 h -1.42818 v -1.42819 h -2.85608 v 1.42819 l -1.42819,-1.42819 v -1.42819 z m 27.12853,-187.09166 h -1.42818 l 1.42818,-1.42818 h 1.42819 v 1.42818 h 1.42818 v 1.42819 h 1.42819 v 4.28426 h -2.85637 v -1.42818 h -1.42819 l 1.42819,-1.4279 h -1.42819 z m -21.42277,-35.70375 v -4.28455 h 1.42818 v 1.42818 h 1.42819 v 1.42819 h 1.42818 v 1.42818 z m -2.85608,-2.85637 v -4.28455 h 1.42818 v 1.42818 h 1.4279 v 1.42819 h -1.4279 v 1.42818 z m 44.27315,-2.85637 v -9.99701 h 2.85637 v 4.28456 h 1.42819 v 1.42819 h 1.42818 v 1.42789 h 1.4279 v 1.42819 h -2.85608 v 1.42818 h -1.42819 v 1.42819 h -1.42818 v -1.42819 z m 5.71274,-5.71245 h -1.42818 v -4.28456 l 1.42818,-1.42818 h 2.85608 v -1.42819 h 1.42819 v -1.42789 h 5.71274 v 5.71245 h -1.42819 v 1.42819 h -1.42818 v 1.42818 h -1.42819 v 1.42819 h -1.42818 v 1.42789 h -2.85637 v -1.42789 h -1.4279 z m 44.26589,-65.69477 h -1.42819 v 1.42819 h 1.42819 v 1.42819 l 1.42818,-1.42819 h -1.42818 z M 763.3527,229.9503 h -1.4282 v 1.42819 h 1.4282 z m -71.4081,308.48215 h -1.42788 v 1.42819 h 1.42819 z m 125.6812,-305.6345 h -1.4279 v 1.42818 h 1.4279 z M 449.18601,364.18777 h -1.42818 v 1.4279 h 1.42818 z m 247.0478,168.52438 h -1.42819 v 4.28426 h -1.42818 v 1.42819 h 1.42818 v -1.42819 l 1.42819,-1.42818 h 1.42818 v -1.42819 h -1.42818 z M 780.4889,241.36822 h -1.4282 v 1.42818 h -2.8564 v 1.4279 h 2.8564 v -1.4279 h 1.4282 z m 1.4282,2.85608 h -1.4282 v 1.42818 h -1.4282 v 2.85637 h 1.4282 v -2.85637 h 1.4282 z m 47.1225,32.84796 h -1.4282 v 1.42819 h 1.4282 z M 724.7908,522.71428 h -1.4281 v 1.42818 h 1.4281 z m 54.2696,-271.35982 h -1.4282 v 1.42819 h 1.4282 z M 462.03241,518.4239 v 1.42819 h 1.42818 z m 0,-2.85637 h -1.42819 v 1.42819 h 1.42819 z M 779.0604,254.20647 h -1.4282 v 1.42818 z m 55.6922,14.28185 h -1.4281 v 1.42818 h -1.4282 v 1.42819 h -4.2843 v -1.42819 h 1.4282 v -1.42818 h -2.8564 v 4.28426 h -4.2845 v -1.42789 h -2.8561 v -1.42819 h -1.4282 v 1.42819 h -1.4282 v 1.42789 h 4.2846 v 1.42819 h 2.8561 v 1.42818 l 1.4282,-1.42818 v 1.42818 h 1.4281 v -1.42818 h 1.4282 v -1.42819 h 1.4282 v 1.42819 h -1.4282 v 1.42818 h 4.2843 v -2.85637 h 1.4282 v -1.42789 h 1.4281 z M 452.03686,506.99173 h -1.42819 v 1.42819 h 1.42819 z m 15.70974,-4.28455 h -2.85637 v 1.42818 h -7.14063 v 1.42819 h -1.42819 v -1.42819 h -2.85637 v 2.85637 h 2.85637 v 1.42819 h -1.42818 v 1.42818 h 1.42818 v 1.42819 h 1.42819 v 1.42818 h 1.42818 v -1.42818 h -1.42818 v -1.42819 h -1.42819 v -1.42818 h 1.42819 v -1.42819 h 1.42818 v 1.42819 h 1.42819 v -1.42819 h 1.42789 v -1.42818 h 2.85637 v -1.42819 h 2.85637 z M 820.4647,257.06517 h -2.8564 v 1.42818 h 2.8564 z M 667.65936,34.26888 v -1.428185 h 1.42819 v 1.428185 h 1.42818 v 2.85637 h 2.85637 v 1.428185 h 1.42819 V 37.12525 h 1.42818 v 1.428185 h 1.42788 v 1.428185 l 1.42818,-1.428185 v 1.428185 h 4.28456 v 1.428185 h 4.28428 v 1.428185 h 2.85637 v 1.42819 h 2.85637 v 1.42818 h 1.42819 v 1.42819 h 2.85606 v 1.42818 h 5.71274 v 1.42819 h 2.85637 v 1.42818 h 1.42818 v 1.42819 h 1.42819 v 1.42818 h 7.14065 v 1.42819 h 1.42819 v 1.42818 h 1.42818 v 2.85608 h 1.42819 v 1.42819 l 1.42787,1.42818 v 1.42819 h -1.42787 v 2.85637 h 2.85605 v -1.42819 h 2.8564 v 2.85608 h 1.4282 v 1.42819 l 1.4281,1.42818 h 1.4282 v 2.85637 h 1.4282 v 1.42819 h 1.4282 v 1.42818 h 1.4282 v 2.85637 h -1.4282 v 7.14064 h -1.4282 l -1.4282,1.42818 v 1.42819 l -1.4282,1.42818 v 7.14063 h -2.8563 v 2.85637 l -1.4282,1.42819 v 2.85637 h -1.4282 v 2.85608 h -1.42818 v 4.28455 h -1.42787 v 2.85608 h -2.85637 v 1.42819 h -1.42819 v 1.42818 h -1.42818 v 2.85637 h -1.42819 v 2.85608 h -1.42818 l -1.42792,1.42819 h -2.85637 v 1.42818 l -1.42818,1.42819 v 1.42818 l -1.42819,2.9e-4 v 1.4279 l -1.42818,1.42818 v 1.42819 l -1.42819,2.9e-4 v 1.42818 h -1.42818 v 1.42819 h -1.42819 v 1.42818 h -1.42818 v 1.42819 h -4.28425 v 1.42818 h -1.42818 v 2.85608 h -1.42819 v 4.28456 h -1.42818 v 2.85608 h -2.8561 v 1.42818 l -1.42819,-1.42818 v 1.42818 h -2.85637 v 2.85637 h -1.42818 v 1.42819 h -4.28425 v 1.42818 h -4.28455 v 1.42819 h -2.85637 v 2.85637 h -1.42819 v 4.28426 l -1.42818,1.42819 h 1.42818 v 8.56911 h -1.42818 v 4.28426 l 1.42818,1.42819 v 5.71274 h 1.42819 v 2.85608 h 1.42818 v 1.42818 h 1.42819 v 2.85637 h 1.42818 v 7.14064 h -1.42818 v 1.42818 h -1.42819 v 1.42819 h -1.42818 v 17.13734 h -1.42819 v 1.4279 h -1.42818 v 1.42818 h -1.42819 v 4.28456 h -1.42818 v 1.42818 h -1.42792 v 2.85637 h -1.42818 v 1.42819 h -1.42819 v 1.42818 h -1.42818 v 1.4279 h -1.42819 v 7.14092 h -1.42818 v 4.28426 h -1.42819 v 2.85638 h -1.42787 v 1.42818 h -4.28456 v 1.42819 h -2.85637 v 1.42818 h -2.85637 v 1.4279 h -2.85637 v 1.42818 h -1.42791 v 9.9973 h 1.42791 v 1.42818 h -1.42791 v 2.85608 h -1.42818 v 1.42819 h -1.42819 v 1.42818 h -2.85637 v 2.85637 h -1.42819 v 14.28796 h -1.42787 v 4.28426 h -1.42819 v 2.85637 h -1.42818 v 2.86219 h -2.85637 v 1.42819 h -2.85637 v 2.85637 h -2.8561 v 7.14063 h -1.42818 v 7.14093 h -2.85637 v 1.42818 h 1.42818 v 1.42819 h -1.42818 v 1.42789 h -1.42819 v 1.42819 h -1.42818 v -1.42819 l -1.42819,-1.42789 v 2.85608 h 1.42819 l -1.42819,1.42818 h 1.42819 l -1.42819,1.42819 v 5.71245 h -1.42818 l 1.42818,1.42818 h -2.85637 v 1.42819 h -1.42787 v 1.42818 h -1.42819 v 1.42819 h -1.42818 v 1.42818 h -2.85638 v 4.28426 h -1.42818 v 4.28456 h -1.4221 v 5.71274 h -1.42818 v 17.1324 h 1.42818 v 2.85637 h 1.42819 v 2.85608 h 1.42818 v 2.85637 h 1.42819 v 2.85637 h 1.42791 v 4.28426 h 1.42819 v 2.85637 h 1.42818 v 4.28456 h 1.42819 v 2.85637 h 1.42818 v 9.997 h -1.42818 v -1.42818 h -1.42819 v 1.42818 h -2.85637 v 1.4279 h -1.42791 v 1.42818 h -1.42819 v 1.42819 h -1.42818 v 1.42818 h -1.42819 v 1.42819 h -2.85636 v 1.42818 h -2.85608 v 1.42819 h -1.42818 v 1.42789 h -4.28456 v 1.42819 h -1.42818 v 2.85637 h -1.42819 v 2.85637 h -1.42818 v 1.42818 h -1.42818 v 1.42819 h -1.42819 v 2.85637 h -1.42789 v 14.28767 h -1.42819 v 2.85637 h -1.42818 v 1.42818 l -1.42819,1.42819 h -4.28455 v 7.14063 h -1.4279 v -1.42818 h -1.42818 l 1.42818,1.42818 h -7.14092 v 1.42819 h -1.42819 v 2.85637 h -7.14063 v -1.42819 h -5.71274 v 4.28456 h -1.42819 v 2.85608 h -5.71245 v 1.42818 h -1.42818 v 5.71274 h -1.42819 v 2.85637 h -1.42818 v 1.42819 h -5.71245 v -1.42819 h -1.42819 l 1.42819,-1.42818 h -2.85637 v 1.42818 h -1.42819 v -1.42818 h -2.85637 v 1.42818 l -1.42818,1.42819 v 1.42789 h 1.42818 v 1.42819 h 1.42819 v -1.42819 h 1.42818 v 5.71856 h -1.42818 v 2.85637 h -1.42819 v 1.42819 h -1.42818 v -1.42819 h 1.42818 v -1.42818 h -1.42818 v 1.42818 h -1.42208 v -1.42818 h -4.28427 v 1.42818 h -1.42818 v 1.42819 h 1.42818 v 1.42818 h -1.42818 v 4.28426 h -5.71274 l -1.42819,1.42819 v 1.42819 h -4.28455 v 1.42818 h -1.4279 v 1.42819 h -2.85637 v -1.42819 h 1.42819 v -1.42818 h -2.85637 v -1.42819 h -1.42819 v 1.42819 h -2.85637 v -5.71245 h -4.28426 v 1.42818 h 1.42818 v 1.42789 h 1.42819 v 2.85638 h -1.42819 v -1.42819 h -2.85637 v 1.42819 h -2.85637 v -1.42819 h -2.85637 v 1.42819 h -2.85637 v 1.42818 h 2.85637 v -1.42818 h 2.85637 v 1.42818 h 2.85637 v -1.42818 h 2.85637 v 1.42818 h 1.42819 v 1.42819 h 1.42789 v 1.42818 h -2.85608 v 1.42789 l -1.42818,1.42819 v 5.71274 h 1.42818 v 4.28456 h -1.42818 v 1.42818 h -2.85637 v 1.42819 h 1.42818 v 1.42789 h -4.28455 l -1.42819,-1.42789 h -1.42818 v 1.42789 h -2.85608 v -4.28426 h -1.42819 v 1.42818 h -4.28455 v -1.42818 h -1.42819 v 2.85637 h -1.42818 v 1.42789 h -1.42789 l -1.42819,1.42818 v -5.71244 h -1.42818 v 4.28426 l -1.42819,-1.42789 v 1.42789 h -1.42819 v -1.42789 h -5.71244 v 1.42789 h -1.42819 v -1.42789 h -1.42818 v -1.42819 h -1.42819 v -1.42818 h -1.42818 v -2.85637 h -1.42819 v -2.85638 h -2.85637 v -2.85637 h -1.42789 v -2.85637 h 1.42789 v -1.42789 h 5.71274 v -2.85637 h -2.85637 l -1.42819,-1.42818 v -1.42819 h -1.42818 v -2.85608 h 1.42818 v -1.42818 h -1.42818 v -1.42819 h -1.42789 v -7.14063 h 1.42789 v -2.85637 h -1.42789 v -1.42819 h -1.42237 v 1.42819 h -1.42819 v 1.42818 h -7.14063 v 1.42819 h -1.42818 v 1.42789 h 2.85637 v 2.85637 h 1.42818 v -2.85637 h 1.42818 l 1.4279,1.42819 v 1.42818 h 1.42818 v 1.42819 h 1.42819 v 2.85637 h -2.85637 v -1.42819 h -1.4279 v -1.42818 h -1.42818 v 1.42818 h 1.42818 v 1.42819 h 1.4279 v 1.42818 h 1.42818 v 1.42789 h 1.42819 v 1.42819 h 2.85637 v 1.42819 h -1.42819 v 1.42818 h -2.85637 v 1.42819 h -1.42818 v -1.42819 h -1.4279 v 4.28426 h 1.4279 v 2.85637 h -1.4279 v 1.42819 h -2.85636 v 1.42818 h -1.42819 v -1.42818 h -5.71274 v -1.42819 h -1.42818 v -2.85637 h -1.42819 v -2.85607 h -1.42789 v -4.28456 h 1.42789 v 1.42819 h 1.42819 v -1.42819 h -1.42819 v -8.56882 h 1.42819 v -7.14063 h -1.42819 v -1.42819 h -4.28426 v 1.42819 h -1.42819 v -5.71274 h -1.42818 v -1.42819 h 2.85637 v 1.42819 h 1.42818 l -1.42818,1.42818 h 2.85637 v 1.42819 h 5.71245 v 4.28455 h -1.42819 v 1.42819 h 1.42819 v -1.42819 h 1.42818 v -4.28455 h -1.42818 v -1.42819 h -2.85637 l -1.42819,-1.42818 v 1.42818 h -1.42789 v -2.85637 h -2.85637 v -1.42818 h -4.28456 v -1.42819 l -1.42789,1.42819 h -1.42819 v -1.42819 h -4.28455 v -2.85608 h -4.28427 v 1.42819 h -2.85637 v -2.85637 h -1.42818 v 2.85637 l -1.42819,-1.42819 v -2.85637 h -1.42818 v 1.42819 h -2.85637 v 2.85637 h -1.42819 v -1.42819 h -1.42818 v -2.85637 h -2.85608 v -1.42818 h -4.28456 v 1.42818 h 1.42819 v 1.42819 h 1.42818 v 4.28426 h -1.42818 v 1.42819 h 5.71245 v 2.85637 h -1.4279 v 1.42818 h -1.42818 v 1.42819 h -1.42819 v -2.85637 h -1.42818 v 2.85637 h -1.42819 v 1.42818 h 5.71274 v -1.42818 h 2.85608 l 1.42819,-1.42819 v -1.42818 h 5.71274 v -1.42819 h 1.42818 v -1.42818 h 2.85637 l 1.4279,-1.42819 h 2.85637 v 1.42819 h 2.85637 v 1.42818 h 2.85637 v 1.42819 h 2.85608 v 2.85637 h -1.42819 v 1.42818 h -1.42789 v 1.42819 h -1.42819 v 2.85637 h -1.42818 v 1.42789 l -1.42819,1.42819 v 2.85637 h 1.42819 v 4.28455 h 1.42818 v 4.28427 h 1.42819 v 2.85637 h 1.42789 v 1.42818 h 2.85637 v 1.42789 h 1.42819 v 1.42819 h 1.42818 v 1.42818 h 1.42819 v 1.42819 h 1.42789 v 4.28456 h 1.42819 v 2.85637 h 1.42818 v 1.42818 h 1.42819 v 1.42819 h 1.42818 v 1.42789 h 1.42819 v 1.42818 h 1.42818 v 1.42819 h 1.42819 v 1.42818 h 1.42818 v 2.85637 h 4.28426 v 1.4279 h 2.85637 v 1.42818 h 4.28456 v 1.42819 h 5.71245 v 1.42818 h 2.85637 v 1.42819 h 2.85637 v 1.42818 h 2.85637 v 1.42819 h 2.85608 v 1.42818 h 2.85637 v 1.42819 h 1.42818 v 1.42818 h 1.42819 v 1.42819 h 1.42818 v 1.42789 h 2.85608 v 2.85637 h 1.42819 v 7.14064 h 5.71274 v 2.85637 h 2.85608 v 1.42818 h 1.42818 v -1.42818 h 5.71274 v -1.42819 h 2.85637 v -1.42818 h 1.42819 v 1.42818 h 1.42789 v -2.85637 h 1.42819 v -1.42789 h 1.42818 v -5.71274 h 1.42819 v -1.42819 h -1.42819 v -4.28426 h 1.42819 v 2.85637 h 1.42818 v -2.85637 h 1.42819 v -1.42819 h 2.85608 v -1.42818 h 1.42818 v -1.42819 h 8.55719 l 1.42818,1.42819 h 7.14064 v -1.42819 h 2.85637 v -2.85637 h 1.42789 l 1.42819,-1.42818 h 15.71585 l 1.42818,-1.42819 h 2.85608 v -1.42818 h 1.42819 v -1.4279 h 1.42818 v -1.42818 l 1.42819,-1.42819 h 5.71245 v -1.42818 h 4.28455 v -1.42819 h 1.42819 v -2.85607 h 1.42818 v -1.42819 h 1.42819 v -4.28455 h 1.42818 v -1.42819 h 1.42819 v -1.42819 h 1.42789 v -2.85637 h 1.42819 l -1.42819,-1.42818 h 1.42819 v -4.28426 h 1.42818 v -1.42819 h 1.42819 v -1.42818 h 2.85636 v -1.42819 h 1.4279 v -1.42819 h 1.42818 v -1.42789 h 1.42819 v -1.42818 h 1.42818 v -1.42819 h 1.42819 v -1.42818 h 4.27845 v -1.42819 h 2.85636 v -1.42818 h 4.28455 v -1.42819 h 4.28429 v -1.42789 h 2.85637 v -1.42819 h 2.85637 v -1.42818 h 2.85606 v -1.42819 h 1.42818 v -1.42818 h 1.42819 v -1.42819 l 1.42818,-1.42818 v -1.42819 h 1.42819 v -1.42818 l 1.42818,-1.42819 v -2.85608 h 1.42819 v -2.85637 h 1.42818 v -1.42818 h 1.42819 l -1.42819,-1.42819 h 1.42819 v -1.42818 h 1.42791 v -4.28427 h 1.42819 v -15.71585 h 1.42818 v -8.56882 h -1.42818 v -2.85608 h -1.42819 v -5.71274 h -1.42791 v -2.85608 h 1.42791 v -1.42819 h 1.42819 v -1.42818 h 1.42818 v -1.42819 h 1.42819 v -1.42818 h 1.42818 v -1.42819 h 1.42819 v -1.42818 h 1.42818 v -5.71245 h 1.42788 v -2.85637 h 1.42818 v -2.85637 h 1.42819 v -2.85637 h 1.42818 l 1.42819,-1.4279 h 1.42818 v -1.42818 h 8.56884 v -1.42819 h 18.55419 v 1.42819 h 2.85637 v 2.85608 h 1.42788 v -1.4279 h 2.85637 v -1.42818 h 7.14065 l 1.42819,-1.42819 v 1.42819 h 12.85308 l 1.42818,1.42818 h 4.28425 v 1.4279 h 2.85637 v 1.42818 h 1.42819 v 9.99701 h -1.42819 v 2.85637 h -2.85637 v 2.85637 h -1.42819 v 2.85637 h 1.42819 v 2.85637 h 1.42818 v 2.85608 h 1.42819 v 2.85637 h 1.42819 v 2.85637 h -1.42819 v 1.42818 h 1.42819 v 1.4279 h 1.42818 v 2.85637 h 1.42819 v 1.42818 h 1.42818 v 1.42819 h 1.42819 v 7.14063 h -2.85637 v 2.85637 h -1.42819 v 5.71274 h -1.42818 v 1.4279 h -1.42819 v 1.42818 h -2.85637 v 2.85637 h -1.42819 v 2.85637 h 1.42819 v 1.42819 h 2.85637 v 2.85608 h -1.42819 v 1.42818 h -1.42818 v 2.85637 h -1.42819 v 1.42819 h -1.42787 l -1.42819,1.42818 v 1.42819 h -1.42818 v 5.71245 h -1.42819 v 1.42818 h -1.42818 v 8.56882 h 1.42818 l -1.42818,1.42819 h -1.42819 v 1.42818 h -1.42818 v 1.42819 h -1.42791 v 1.42818 h -1.42819 v -2.85637 h -1.42818 v 1.42819 h -1.42819 v 5.71245 l 1.42819,1.42818 1.42818,1.42819 v 1.42818 h 1.42819 v 2.85637 h 1.42791 v 1.42819 h 1.42818 v 1.42818 h 1.42819 v 1.42819 h 1.42818 v 2.85608 l -1.42818,1.42818 h 2.85637 v 5.71274 h 1.42818 l -1.42818,1.4279 h -1.42819 v 1.42818 h 2.85637 v -1.42818 h 1.42819 v -1.4279 h 1.42787 v 2.85608 h -1.42787 v 1.42818 h 1.42787 v -1.42818 h 2.85637 v 1.42818 h 9.9973 v 2.85637 h 1.42791 v 1.42819 h 4.28456 v -1.42819 h 1.42818 v 1.42819 h 1.42817 v -1.42819 h 1.4282 v 1.42819 h 4.2842 v 1.42818 h 2.8564 v 1.42819 h 2.8561 v 2.85637 h 1.4282 v -1.42819 h 1.4282 v -1.42818 h -2.8564 v -1.42819 h -2.8561 v -2.85637 h 1.4282 v -1.42818 h 1.4279 v -1.42819 h -2.8561 v -1.42818 h -2.8564 v 2.85637 h -1.4281 v 1.42818 h -1.4282 v -1.42818 h -1.4279 v -1.42819 h -1.4282 v -1.42818 h 2.8561 v 1.42818 h 1.4282 v -1.42818 h 1.4281 v -1.42818 h -1.4281 v -1.4279 h -1.4282 v -1.42818 h -1.4279 v 1.42818 h -1.4282 v -2.85637 h -1.42817 v 1.42819 h -2.85637 v -1.42819 h -1.42818 v 1.42819 h -1.42819 v -1.42819 h -5.71246 v -1.42818 h 1.42818 v -1.42819 h -1.42818 v -1.42818 h -1.42819 v -1.42819 h -1.42818 v 1.42819 h -4.28456 v -1.42819 h 2.85637 v -1.42789 h 2.85637 v -1.42819 h -2.85637 v -1.42818 h -1.42819 v -1.42819 h -2.85637 v 1.42819 h -1.42787 v -1.42819 h -1.42819 v -1.42818 h -1.42818 v -1.42819 h -1.42819 v -2.85637 h 1.42819 v -1.42818 l 1.42818,-1.42819 v -4.28426 h 1.42819 v -2.85637 h 1.42787 v -1.42819 h 1.42819 v 1.42819 h 2.85637 v -1.42819 h -2.85637 v -5.71245 h 1.42818 v -1.42818 h 1.42819 v -2.85637 h 1.42819 v -1.42819 h -1.42819 v -1.42789 h 1.42819 v -1.42819 h 1.42818 v 1.42819 h 1.42819 v -1.42819 h -1.42819 v -1.42818 h 1.42819 v -1.42819 h 2.85637 v -1.42818 h 2.85609 v -1.42819 h 5.71274 v 1.42819 h 9.99697 v -4.28456 h -1.4282 v -2.85637 h 1.4282 v -2.85608 h -1.4282 v -1.42818 h -1.4282 v -8.56882 h 2.8564 v -4.28456 h -1.4282 v -1.42818 h -1.4282 v 1.42818 h -1.4281 v -2.85637 h 1.4281 v -8.56882 h 1.4282 v -1.42818 l 1.4282,-1.42819 v -2.85608 h 1.4282 v -8.56911 h 1.4279 v -2.85608 h 1.4282 v -2.85637 h -1.4282 v -1.42818 h -1.4279 v -1.42819 h -1.4282 v -1.42818 h -4.2845 v -4.28456 h -1.4282 v -2.85608 h -1.4279 v -1.42818 h -2.85637 v -1.42819 h -2.85637 v -1.42818 h -1.42818 v -2.85637 h -1.42819 v -1.4279 h 1.42819 v -5.71274 h -1.42819 v -2.85637 h -1.42791 v -1.42818 H 713.354 v 1.42818 h -1.42819 v -1.42818 h -4.28455 v -4.28427 h -1.42819 v -1.42818 h -1.42819 v -2.85637 h -1.42818 v -2.85637 h -1.42819 v -1.42818 h -1.42787 v -1.4279 h -2.85637 v -1.42818 h -5.71274 v -1.42819 h -1.42791 v -1.42818 h -1.42819 v -1.42819 h -5.71274 v 1.42819 h -4.28455 v 1.42818 h -5.71244 v 1.42819 h -1.42818 v 1.42818 h -1.42819 v 1.4279 h -2.85637 l -1.42791,-1.4279 h -7.14092 v -2.85637 h -1.42819 v -2.85637 h -1.42787 v -1.42818 h -2.85637 v -1.42819 h -2.85637 v -1.42789 h -7.14093 v 1.42789 h -7.14065 v -1.42789 h -1.42819 v -4.28456 h 1.42819 v -1.42818 l -1.42819,-1.42819 h 1.42819 v -2.85637 l 1.42818,-1.42818 v -1.42819 h 1.42819 v -1.42789 h 1.42818 v -1.42819 h 1.42819 v -2.85637 h 1.42791 v -1.42818 h 1.42818 v -1.42819 h 1.42819 v -2.85608 h 1.42819 v -5.71274 h 1.42818 v -9.997 h -1.42818 v -10.00893 l 1.42818,-1.42819 v -4.28455 h 1.42819 v -2.85608 h 2.85637 v -1.42819 h 2.85637 v -2.85637 h 1.42787 v -2.85637 h 1.42819 v -1.42818 h 1.42818 l 1.42819,-1.4279 v -2.85637 h 1.42818 v -1.42818 h 1.42819 v -1.42819 h 1.42818 v -2.85637 h 1.42791 v -2.85637 h -1.42791 v -2.85608 h 1.42791 v -1.42818 h 1.42819 v -1.42819 h 1.42818 v -1.42818 h 2.85637 v -1.42819 h 1.42819 v -1.42818 h 2.85606 v -1.42819 h 2.85637 v -1.42789 h 1.42819 v -1.42818 h 2.85637 v -1.42819 h 1.42818 v -1.42818 h 1.42819 v -1.42819 h 1.42818 l 1.42819,-1.42818 h 1.42791 v -1.42819 h 1.42818 v -2.85637 h 1.42819 v -1.42819 h 1.42818 v -2.85607 h 1.42819 v -2.85637 h 1.42818 v -5.71246 h 1.42819 v -4.28455 h -1.42819 v -7.14064 h -1.42818 v -11.42518 h 1.42818 v -1.42819 h 1.42819 v -8.56882 h -1.42819 v -7.14092 h 1.42819 v -8.56882 h 1.42787 l -1.42787,-1.42819 v -7.14063 h -1.42819 v -2.85637 l -1.42818,-1.42819 v -1.42818 h -1.42819 v -2.85637 h -1.42818 v -1.42819 h -1.42819 v -2.85608 h 1.42819 v -1.42818 h 1.42818 v -1.42819 h 1.42819 l 1.42818,-1.42818 h 2.85606 v -1.42819 h 2.85637 v -1.42818 h 1.42819 v -1.42819 h 2.85637 v -1.42818 h 2.85637 v -1.42819 h 1.42819 v -1.42818 h 1.42818 v -1.42819 h 1.42791 v -1.42818 h 1.42819 v -7.14093 h 1.42818 v -1.42818 h 1.42819 v -1.42819 h 4.28455 v -1.42818 h 7.1406 l 1.4282,-1.42819 h 11.4191 v -1.42818 h 9.997 v -1.42819 h 4.2846 v -1.42818 h 2.8563 v -1.42819 h 2.8564 v -1.42818 h 1.4282 v -1.42819 h 1.4282 v -1.42818 h 1.4279 v -1.42819 h 1.4281 v -1.42818 h 1.4282 v -1.42819 h 1.4282 v -2.85608 h 1.4282 v -2.85637 h 1.4282 V 129.95 h 1.4282 v -2.85607 h 1.4279 v -4.28456 h 1.4282 v -5.71274 h 1.4281 v -4.28426 h 1.4282 v -5.71274 h 1.4282 V 91.39628 h 1.4282 V 89.9681 h 2.8561 v -1.42819 h 2.8563 v 1.42819 h 1.4282 v 4.28426 h 1.4282 v 1.42818 h 1.4282 v 2.85637 h 1.4282 v 2.85608 h -1.4282 v 1.42819 h 1.4282 v -1.42819 h 1.4282 v 2.85637 h -1.4282 v 1.42819 h -1.4282 v -1.42819 h -2.8564 v 2.85637 h 1.4282 v 8.56882 h 1.4282 v 5.71245 h -1.4282 v -1.42818 h -1.4282 v 1.42818 h -1.4282 v 2.85637 h -1.4282 v 7.14064 h -1.4281 v 11.42519 h -1.4282 v 1.42818 h -4.2843 v 1.42819 h -1.4282 v 1.42818 h -1.4281 v 2.85637 h -1.4282 v 2.85637 l -1.4279,-2.9e-4 v 1.42819 h -1.4282 v 1.42789 h -1.4282 v 1.42819 h -1.4282 v 4.28426 h -1.4282 v 1.42819 h -2.8563 v -1.42819 h -1.4279 v 1.42819 h -1.4282 v 4.28455 h -1.4282 v 1.42819 h -1.4282 v 2.85608 h -1.4282 v 4.28455 h -1.4281 l 1.4281,1.42819 h -1.4281 v 4.28426 h 1.4281 v 1.42819 h -1.4281 v 1.42818 h 2.8563 v 4.28456 h -1.4282 v 1.42818 h -1.4281 v 1.42819 h -2.8564 v 1.42818 h 1.4282 v 1.42819 h 1.4282 v 2.85637 h -2.8564 v 1.42818 h -2.8564 v 4.28427 h -1.4279 v -1.42819 h -4.2846 v 11.42519 h 1.4282 v 2.85637 h 2.8564 v 1.42819 h 1.4279 v 2.85637 h 1.4282 v 1.42818 h 1.4282 v 1.42819 h 1.4282 v 1.42789 h -1.4282 v 1.42819 h 1.4282 v -1.42819 h 1.4282 v 1.42819 h 2.8563 v 2.85637 h 4.2846 v 1.42818 h 4.2842 v 1.42819 h 1.4282 v 1.42818 h 4.2846 v 1.42789 h 2.8561 v 1.42819 h 2.8563 v 2.85637 h -1.4282 v 4.28455 h 1.4282 v -1.42818 h 1.4282 v -2.85637 h 2.8561 v 1.42818 h 2.8563 v 1.42819 h 4.2846 v 1.42818 h 2.8564 v 1.4279 h 1.4282 v 1.42818 l 1.4281,-1.42818 v 1.42818 h 1.428 v 1.42819 h 1.4281 v 1.42818 h 1.4282 v 1.42819 h 1.4282 v 7.14092 h -1.4282 v 4.28427 l -1.4282,1.42818 h 2.8564 v 2.85637 h 2.8564 v 1.42819 h 1.4282 v 1.42789 h 1.4278 v 1.42819 h 1.4282 v 2.85637 h 1.4282 v -1.42819 l 1.4282,-1.42818 h 1.4282 v -2.85608 h 1.4282 v -4.28456 h 2.8563 v -4.28455 h -1.4281 v 1.42818 h -1.4282 v 2.85637 h -1.4282 v -2.85637 h -1.4282 v -5.71245 h 1.4282 v -1.42818 h 1.4282 v -2.85637 l 1.4282,-1.42819 v -2.85637 h 1.4281 v -1.42818 h -1.4281 v -1.4279 h -2.8564 v -1.42818 h -1.4282 v -1.42819 h -2.8564 v 1.42819 H 811.89 v -2.85637 h 1.4282 v -2.85637 h 1.4282 v -2.85608 h -1.4282 l -1.4282,1.42789 h 1.4282 v 1.42819 h -2.856 v -1.42819 h -2.8564 v 2.85638 h -1.4282 v -1.42819 l -1.4282,1.42819 v -2.85638 h -2.8563 v -1.42789 h -1.428 v -1.42818 h -1.4281 v -2.85637 h -1.4282 v -2.85637 h -1.4282 v -5.71245 h -2.8564 v -1.42819 h -1.4282 v -1.42818 h -1.4282 v -1.42819 h -1.4281 v -1.42818 h -1.4282 v -1.42819 h -1.4279 v -5.71274 h -1.4282 v -1.42819 h -1.4282 v -1.42818 h 1.4282 v -1.42819 h -2.8564 v -1.42818 h -1.4281 v -4.28426 h 1.4281 v -1.42819 h 2.8564 v -1.42818 h -1.4282 v -4.28456 h -1.4282 v -4.28426 h 1.4282 v -4.28456 h 1.4282 v -8.56882 h 5.7124 v -2.85637 h 4.2846 v -1.42818 h 14.2819 v 1.42818 h 1.4281 v 1.42819 h 1.4282 v 2.85637 h 1.4282 v 2.85607 h 1.4282 v 2.85638 h 1.4282 v 2.85637 h 1.4279 v 5.71244 h 1.4282 v 2.85637 h 1.4282 v 1.42819 h 1.4281 v 1.42819 h 2.8503 v 1.42818 h 7.1409 v -1.42818 h 2.8564 v -1.42819 h 2.8561 v -1.42819 h 1.4282 v -1.42818 h 1.4282 v -1.42819 l 1.4281,-1.42818 v -5.71274 h -1.4281 v -5.71216 h -1.4282 v -1.42818 h -4.2843 v -1.42819 h -4.2846 v 1.42819 h -5.7127 v -5.71274 h 2.8564 V 165.659 h 2.8563 v -2.85608 h 1.4282 v 2.85608 h 2.8564 v -1.42819 h 1.4279 v -1.42819 h 1.4282 v -1.42818 h 2.8564 v -1.42819 h 1.4281 v -1.42818 h 2.8561 v -1.42819 h 2.8564 v 1.42819 h 1.4282 v -1.42819 h 1.4281 v 1.42819 h 1.4282 v -1.42819 h 1.4282 v 1.42819 h 1.4279 v -1.42819 h 4.2846 v 1.42819 h -4.2846 v 1.42818 h 4.2846 v -1.42818 h 1.4282 v 7.14093 l 1.4281,2.85607 -1.4281,1.42819 -1.4282,2.85637 2.8563,2.85608 2.8564,7.14092 4.2843,7.14064 5.7127,2.85637 h 8.5688 l 1.4282,4.28426 4.2846,2.85637 2.8564,4.28427 2.856,4.28455 v 4.28456 l -1.4282,1.42818 h -5.7124 l -1.4282,2.85637 -1.4282,2.85608 -2.8563,4.28456 -5.7125,4.28455 h -9.997 l -4.2846,-2.85637 h -1.4281 l -1.4282,5.71245 v 2.85637 l -1.4282,1.42819 -2.8564,1.42818 -1.4279,2.85637 -1.4282,4.28426 v 4.28456 l 1.4282,2.85637 h 2.8561 l 2.8564,8.56882 1.4282,7.14063 4.2845,2.85637 4.2843,4.28456 4.2845,2.85608 2.8564,2.85637 1.4282,4.28455 -1.4282,4.28427 v 2.85637 l -1.4282,2.85637 1.4282,2.85637 v 4.28426 l -1.4282,1.42819 -1.4282,2.86248 -2.8564,2.85608 1.4282,2.85637 1.4282,1.42818 v 1.42819 l -2.8564,5.71245 -2.856,2.85637 -1.4282,2.85637 v 2.85608 l 1.4282,2.85637 v 1.42818 l -1.4282,1.42819 h -2.8564 l -1.4282,-4.28456 -1.4281,-1.42818 h -4.2846 l -2.8561,-1.42819 h -2.8564 l -1.4281,2.85637 -8.5688,5.71274 -8.5689,2.85637 -7.1409,7.14064 v -2.85637 l -1.4282,-1.42819 h -1.4282 l -2.856,1.42819 -1.4282,1.42818 v 2.85637 l -4.2846,2.85608 -2.8561,2.85637 -1.4282,1.42819 -2.8563,1.42818 -5.7128,2.85637 v 8.56882 l 1.4282,2.85637 -1.4282,2.85637 -2.8563,4.28426 4.2845,1.42819 2.8564,2.85637 4.2845,1.42819 v 4.28426 l -1.4282,4.28455 v 9.99701 l 1.4282,1.42818 1.4282,2.85637 v 2.85608 l 2.8561,2.85637 4.2846,1.42819 5.7124,1.42818 1.4282,1.42819 4.2845,2.85637 4.2846,1.42818 1.4282,2.85608 2.8561,2.85637 2.8564,4.28456 2.8563,1.42818 8.5688,-2.85637 2.8561,2.85637 h 2.8564 l 4.2845,-2.85637 1.4282,-2.85637 1.4282,-5.71245 2.8564,-2.85637 1.4279,4.28456 2.8563,2.85608 1.4282,1.42818 -1.4282,4.28456 -2.8563,1.42818 -2.8561,4.28427 v 2.85637 l 5.7124,2.85637 2.8564,2.85607 2.8564,1.42819 h 2.8561 v 4.28456 l -1.4282,2.85637 -2.8561,1.42818 v 1.42819 l 1.4282,2.85607 1.4279,4.28456 -1.4279,4.28426 v 8.56912 l 2.8561,2.85637 1.4282,4.28426 1.4281,4.28455 -1.4281,4.29038 -5.7125,2.85637 h -2.8564 v 11.4249 l -1.4282,2.85637 -1.4282,1.42818 -1.4281,5.71274 v 2.85637 l -4.2843,1.4279 h -2.8564 v 2.85637 l -1.4281,1.42818 -1.4282,2.85637 -2.8564,2.85608 -2.8561,1.42818 -1.4282,4.28456 v 2.85637 l -1.4282,2.85637 v 1.42818 h -5.7127 l -1.4279,-1.42818 -2.8563,-1.42819 h -5.7125 l -2.8564,-1.42818 -1.4282,1.42818 v 7.14064 l 1.4282,5.71274 4.2843,4.28426 v 1.42819 l -1.4279,4.28426 v 2.85637 l 1.4279,2.85637 1.4282,2.85637 2.8564,1.42819 v 7.14063 l -2.8564,1.42819 -1.4282,2.85637 -1.4279,1.42818 v 7.14064 l -5.7128,2.85637 -2.8563,2.85637 4.2845,7.14063 4.2846,7.14064 4.2843,7.14092 4.2845,4.28427 4.2843,7.14092 -1.4282,2.85637 v 1.4279 l 4.2845,4.28455 v 8.56882 l 1.4282,4.28456 -2.8563,2.85637 -4.2846,1.42818 -1.4279,2.85608 -2.8563,2.85637 -1.4282,2.85637 2.8563,5.71245 2.8561,7.14063 1.4282,5.71855 v 4.28455 l 1.4282,2.85637 1.4282,4.28456 h -4.2846 l -1.4279,1.42818 -1.4282,1.42792 v 2.85637 h -1.4281 l -2.8564,2.85637 v 4.28424 l 2.8564,2.85637 v 12.85309 l 1.4281,2.8561 2.8561,2.85637 4.2846,-1.42819 2.8563,1.42819 2.8561,2.85637 1.4282,2.85637 4.2846,2.85637 1.4281,1.42818 1.4282,2.85606 -1.4282,1.42819 -2.8563,1.42818 h -2.8564 v 1.42819 l 2.8564,1.42818 4.2845,2.8561 2.8564,2.85637 v 1.42819 l 1.4282,4.28455 -1.4282,1.42819 -1.4282,2.85637 1.4282,7.14061 v 2.85637 l -4.2846,4.28428 -5.7127,1.42819 -2.8561,2.85637 -1.4282,2.85606 v 1.42819 l 1.4282,2.85637 v 5.71274 l -1.4282,2.85637 -2.8563,1.42791 1.4281,1.42818 5.7125,1.42819 4.2846,2.85637 h 12.853 v 2.85637 l -1.4281,1.42787 -1.4282,1.42819 1.4282,1.42818 2.856,1.42819 1.4282,2.85637 1.4282,1.42819 2.8564,1.42818 4.2842,-2.85637 h 7.141 l 1.4278,1.42819 v 2.85637 l 2.8564,1.42818 1.4282,2.8561 -1.4282,4.28455 v 11.42517 l -2.8564,2.8561 -1.4278,2.85637 1.4278,4.28456 v 2.85637 l -1.4278,2.85637 v 15.71554 l -1.4282,1.42819 v 2.8561 l -1.4282,2.85637 v 2.85637 l -5.7127,2.85637 -5.7125,2.85637 -4.2843,2.85637 -4.2845,2.85606 -2.8564,1.42818 h -2.8563 l -2.8564,2.85637 v 4.28429 l -1.4279,2.85637 -1.4282,4.28455 -1.4282,1.42788 -2.8564,2.85637 h -1.4282 l -2.856,1.42818 v 4.28456 l 2.856,2.85637 h 2.8564 l 1.4282,2.8561 v 7.14092 l 1.4282,2.85606 h 4.2843 l 1.4282,1.42819 -4.2843,8.56907 v 4.2843 l -1.4282,1.4282 -1.4282,2.8564 1.4282,4.2845 v 1.4279 l -1.4282,4.2846 -2.8564,1.4281 v 2.8564 l -1.4282,2.8561 -4.2842,2.8564 -2.8564,1.4282 -4.2845,5.7127 -2.8564,1.4282 -1.4282,2.8561 -1.4279,1.4281 -4.2846,1.4282 h -1.4281 v 2.8564 l -2.8564,2.8561 -1.4279,1.4282 v 2.8563 l -2.8564,4.28463 -1.4281,2.8564 -4.2846,2.856 -7.1406,5.7128 -4.2846,4.2843 -2.8564,1.4281 -1.4278,4.2846 -2.8564,-1.4282 v -4.2845 l -2.8564,-2.8561 v -5.7128 l -1.4282,-4.2842 -4.2843,-1.4282 -2.8563,-5.71283 v -4.2845 l -1.4282,-2.8561 -1.4282,-1.4282 -2.8564,-1.4282 -4.2842,1.4282 -2.8564,2.8561 -1.4282,-1.4279 1.4282,-2.8564 v -1.4282 l -5.7127,4.2846 -1.4279,1.4279 -2.8564,-1.4279 -5.7124,-4.2846 -2.8564,-2.8563 -1.4282,-1.4279 1.4282,-4.2846 v -1.4281 l -8.563,-4.2846 -1.4282,-1.4282 1.4282,-7.1406 1.4282,-2.8564 -8.5688,-2.8561 h -7.141 l -2.8563,-1.4282 -2.8564,-4.2845 -1.4282,-2.8564 h -4.28428 l -2.85637,1.4282 -2.85606,4.2846 -1.42818,2.8563 h -2.85637 l -2.85637,-2.8563 -1.42819,-5.7128 -1.42791,-4.2843 -4.28456,1.4282 -1.42818,-2.8563 -2.85637,-2.85642 -1.42819,-2.85637 1.42819,-2.85637 1.42818,-1.42787 -4.28455,-7.14093 -2.85606,-5.71247 v -5.71274 l -1.42819,-2.85637 -5.71274,1.42819 -4.28428,-1.42819 -2.85637,1.42819 -1.42237,2.85637 v 2.85637 l -2.85606,1.42818 -2.85637,-1.42818 h -1.42819 v 2.85637 l -12.85308,5.71247 h -9.99702 l -2.85606,2.85637 -4.28456,8.5688 -2.85637,4.2846 h -4.28455 l -4.28429,-1.4282 -4.28455,-2.8564 h -5.71243 l -7.14066,-1.42819 -5.71274,-2.85637 -2.85637,-2.85606 -4.27843,-1.42818 h -7.14064 l -4.28456,-1.42819 -4.28455,-1.42818 h -7.14063 l -5.71274,1.42818 -7.14064,-7.14065 -4.28426,-7.14093 -4.28456,-5.71243 -2.85637,-5.71274 -4.28455,-5.71247 -1.42819,-5.71274 v -11.42517 l -1.42789,-2.85637 -4.28456,-2.8561 -2.85637,-2.85637 -4.28426,-1.42818 -1.42819,-1.42819 -4.28455,1.42819 -4.28456,1.42818 h -2.85026 v -2.85637 l -1.42818,-2.85606 -4.28427,-5.71274 -5.71274,-4.28455 -2.85608,-2.85637 -5.71274,-1.42792 h -5.71274 l -2.85608,-2.85637 -4.28455,-1.42818 -4.28456,1.42818 -17.13706,-4.28455 -7.14092,-1.42819 -1.42819,-7.14061 -2.85637,-5.71247 -1.42789,-1.42819 -1.42819,-1.42818 -1.42818,-1.42819 -7.13482,-2.85637 -7.14092,-2.85637 -7.14063,-2.85606 -2.85637,-4.28455 -1.4279,-5.71247 v -4.28456 l -1.42818,-1.42818 v -8.5688 l -5.71274,-2.85637 h -1.42819 l -2.85608,2.85637 -7.14092,4.28424 -7.14064,-1.42818 -4.28455,-2.85606 -4.28427,-1.42819 -2.85637,-2.85637 -2.85637,2.85637 h -2.85637 l -4.28455,-1.42818 -2.85608,-1.42819 h -8.56301 l 1.42819,-7.14065 v -5.71274 l 1.42818,-5.71243 4.28427,-5.71274 1.42818,-5.71247 v -9.99699 l -2.85608,-2.85637 -7.14092,-2.85637 -5.71245,-2.85637 v -1.42818 l 1.42818,-8.56884 v -18.5661 l 4.28427,-1.42818 1.42818,-1.42819 2.85637,-1.42818 1.42819,-4.28429 v -4.28455 l -2.85637,-2.86219 -2.85637,-5.71274 -1.42819,-5.71243 v -1.42818 l -1.42789,-1.42819 -5.71274,-1.42818 -7.14093,-1.42819 -2.85608,-1.4279 v -5.71274 l -2.85637,-1.42818 -4.28426,-2.85637 -4.28456,-1.42819 -1.42818,-1.42818 v -4.28427 l -2.85637,-2.85637 -4.28456,-1.42818 -2.85608,-1.42819 h -2.85637 l -1.42818,4.28456 1.42818,4.28455 -5.71244,2.85608 -1.42819,4.28456 -2.85637,1.42818 -4.28456,-4.28455 -4.28426,-8.56882 -1.42818,-1.42819 -5.71274,1.42819 -7.13482,1.42818 -1.42789,1.42819 h -7.14093 l -4.28455,1.42818 -4.28427,1.4279 h -1.42818 v -5.71245 h -2.85637 l -8.56882,-5.71245 h -4.28456 v -2.85637 l 1.42819,-2.85637 -7.14064,-7.14064 -1.42818,-4.28455 1.42818,-5.71274 2.85637,-4.28427 4.28427,-2.85637 2.85637,-1.42818 v -9.99701 l -4.28456,-1.42818 h -9.997 l -1.42819,-1.42819 -1.42818,-2.85637 -1.42819,-4.28426 -1.42789,-2.85637 -7.14093,-2.85637 -5.71245,-1.4279 -2.85637,-1.42818 h -2.85637 l -1.42818,-1.42819 -5.70663,-1.42818 h -2.85608 l -8.56911,-2.85637 h -1.4279 l -1.42818,-1.4279 -4.28456,-1.42818 h -8.56882 l -2.85637,-2.85637 h -4.28455 l -5.71245,-2.85637 -2.85637,-1.42819 -2.85637,-2.85637 h -4.28456 l -2.85608,1.42819 -4.28455,1.42818 -2.85608,-1.42818 -2.85637,-1.42819 -1.42819,-4.28426 -1.42818,-2.85637 1.42818,-2.85637 1.42819,-2.85608 v -4.28456 l -1.42819,-4.28455 -5.71244,-8.56882 h -7.14093 l -2.85026,-4.28456 -1.42819,-4.28426 -1.42818,-2.85637 1.42818,-2.85637 v -1.42818 h 5.71245 l 4.28456,-1.4279 2.85637,-1.42818 4.28426,-2.85637 1.42818,-4.28456 v -7.14063 l 1.42819,-1.42819 2.85637,-1.42818 2.85637,-2.86219 4.28426,-5.71274 5.71274,-7.14063 4.28427,-5.71274 1.42819,-1.42819 -1.42819,-2.85608 -2.85637,-2.85637 -1.4279,-5.71245 -1.42818,-4.28455 1.42818,-2.85637 1.4279,-4.28427 1.42818,-1.42818 -1.42818,-4.28456 1.42818,-4.28455 v -4.28427 l -1.42818,-4.28455 v -2.85637 h 4.28456 l 19.994,1.42818 h 2.85637 l 1.4279,-1.42818 1.42818,-1.4279 5.71274,-2.85637 1.42208,-1.42818 v -2.85637 h 2.85637 l 2.85608,-2.85637 h 2.85637 l 1.42819,-1.42819 8.56911,-5.71245 h 2.85607 l 1.42819,1.42819 v 2.85608 l 1.42818,-4.28427 v -4.28455 l 4.28456,-1.42819 4.28426,-4.28426 2.85637,-1.42819 h 2.85637 l 2.85637,1.42819 h 9.99701 l 2.85608,-1.42819 4.28455,-1.42818 2.85637,-1.42819 4.28427,4.28456 h 2.85637 l 4.28455,-1.42819 h 7.13482 l 2.85608,-1.42818 1.42819,-1.42819 h 5.71273 l 4.28456,1.42819 4.28426,-1.42819 h 5.71274 l 1.42819,-2.85608 1.42789,-2.85637 2.85637,-7.14092 h 4.28456 l 1.42789,-1.42819 1.42819,-1.42818 5.71274,-2.85608 h 9.997 l 2.85637,-2.85637 h 2.85637 l 2.85608,-1.42819 h 9.9973 l 4.27844,-1.42818 2.85608,-2.85608 v -8.56911 l -4.28426,-1.42818 v -1.42819 l 1.42818,-1.42818 h 1.42819 l 1.42789,-2.85608 5.71274,2.85608 2.85637,2.85637 1.4279,-1.42819 1.42818,-2.85608 1.42819,-2.85637 -2.85637,-2.85637 v -4.28426 l 4.28455,-2.85637 2.85637,-2.85637 v -4.28427 l -5.71274,-2.85637 -4.28426,1.42819 -2.85637,-2.85637 h -2.85637 v -5.71274 l -1.42819,-2.85608 1.42819,-1.42819 1.42818,-5.71274 2.85637,-4.28426 2.85637,-5.71856 1.4279,-2.85637 2.85637,-2.85637 h 2.85637 l 4.28455,-2.85637 1.42819,-2.85637 5.71245,-1.4279 2.85637,-1.42818 2.85637,-2.85637 1.42789,-4.28456 v -7.14063 l 4.28456,-2.85608 -2.85637,-5.71274 1.42818,-2.85637 -1.42818,-4.28455 -2.85608,-1.42819 h -2.85637 l -1.42819,-5.71245 -1.42818,-4.28426 -1.42819,-1.42819 -1.42818,1.42819 -2.85608,-2.85637 v -1.42819 l 2.85608,-1.42818 v -4.28456 l 1.42818,-2.85637 h 5.71274 l 2.85608,-1.42819 v -4.28426 h 1.42819 v -1.42818 h 7.14092 V 241.356 l 1.42819,-1.42818 h -1.42819 l 1.42819,-1.4279 v -1.42818 h 1.42818 v 1.42818 h 4.28427 v 4.28427 h 1.42818 v 1.42818 h -1.42818 v 1.42819 h 1.42818 v 2.85607 h 1.42819 v 1.42819 l 1.42818,1.42819 v 1.42818 h 1.42819 v 1.42819 h 1.42818 v 1.42818 h 1.4279 v 2.85637 h -1.4279 v 4.28456 h 1.4279 v 2.85608 h 2.85637 v 2.85637 h 1.42818 v 1.42818 h 1.42819 v 1.42819 h 1.42818 v 4.28426 h 2.85608 v 2.85637 l -1.42789,-1.42818 v 4.28455 h 1.42789 v 1.42819 h 1.42819 v 2.85637 h 1.42818 v 2.85608 h 1.42819 v 1.42818 h 1.42236 v 1.42819 h 1.42819 v 1.42818 h 1.42789 v 1.42819 h 1.42819 v 1.42818 l 1.42818,1.42789 h 1.42819 v 2.85637 h 1.42818 v 1.42819 h -2.85637 v 1.42819 h -1.42818 v 2.85636 h 1.42818 v 8.56882 h 2.85637 v 5.71274 h 1.42819 v 5.71245 h 1.42818 v 8.56882 h -1.42818 v 1.42819 h 1.42818 v 2.85637 l 1.4279,-1.42819 v 1.42819 h 1.42818 v 2.85637 h 1.42819 v 1.42818 l 1.42818,1.42819 v 1.42789 h 1.42819 V 354.18 h -1.42819 v 1.4279 h -2.85637 v 1.42818 h -1.42818 v 2.85637 l 1.42818,1.42819 v 1.42818 h 1.42819 v 1.42819 h 2.85637 v -1.42819 h 2.85637 v -1.42818 h 1.42818 v 1.42818 h 1.42819 v -2.85637 h 2.85608 v -2.85637 h 1.42818 V 354.18 h 2.85637 v -1.42818 h 1.42819 v -1.42819 h 1.42818 v -1.42818 h 2.85608 v -1.42819 h 1.42818 v -1.42818 h 2.85638 v -1.42819 h 1.42818 V 344.183 h 2.85637 v -1.42819 h 1.42789 v -1.42818 h 1.42819 v -1.42819 h 1.42818 v -1.42818 h 1.42819 v -1.42819 h 1.42818 v -1.42818 h 1.42819 v -2.85637 h 1.42819 v -1.42819 h 1.42818 v -1.42789 h 2.85637 v -1.42819 h 2.85608 v -2.85637 h -1.42819 v -2.85637 h -1.42789 v -1.42818 h 2.85608 v 1.42818 h 2.85637 v -1.42818 h 1.42818 v -1.4279 h -2.85637 v -1.42818 h -7.14063 v -1.42819 h -2.85637 v -1.42818 h -1.42819 v -2.85637 h -1.42818 v -4.28456 h -1.42819 v -2.85608 h 1.42819 V 281.3446 h 1.42818 v -4.28426 h 1.42819 v -1.42819 h 1.42819 v -1.42818 h 1.42818 v -1.42819 h 1.42819 v -1.42818 h 1.42818 v -1.42819 h 1.42789 l -1.42789,-1.42818 h 1.42789 v -1.42819 l 1.42819,-1.42818 v -2.85608 h -2.85608 v 1.42789 h 1.42789 v 1.42819 h -2.85607 v -1.42819 h -1.42819 v -2.85608 h -1.42818 v -2.85637 h -1.42819 v -7.14063 h -1.42819 v -1.42819 h -1.42818 v -2.85637 l -1.42819,1.42819 v -1.42819 h -1.42818 v -1.42818 h -1.42819 v -4.28427 h -1.42789 v -1.42818 h -1.42818 v -4.28455 h -2.85637 v 4.28455 h -5.71245 l 1.42789,-1.42818 h -1.42789 v 2.85636 h -1.42819 v 8.56882 h -2.85637 v -7.14063 h 1.42819 v -2.85637 h 1.42818 v -2.85637 h 1.42819 v -2.85637 h 1.42789 v -1.42818 h 1.42818 v -2.85637 h 1.42819 v -1.4279 l 1.42819,-1.42818 v -1.42819 h 1.42818 v -1.42818 h 1.42819 v -2.85637 h 1.42818 v -1.42819 h 1.42789 v -1.42789 l 1.42819,-1.42819 h 1.42818 v -2.85637 h 1.42819 v -1.42818 h 2.85637 v -1.42819 h 1.42819 v -1.42818 h 1.42818 v 2.85637 h -2.85637 v 4.28426 h 9.997 v -1.42818 h 2.85637 v -1.4279 h 1.42819 v -7.14092 h 1.42789 v -5.71245 l -1.42789,1.42818 v -5.71274 h 1.42789 l 1.42819,-1.42818 v -1.42819 h 2.85637 v -2.85637 h 1.42818 v -1.42818 h 1.42237 v -1.42819 h 2.85608 v -1.42818 h 2.85637 v -4.28427 l 1.42819,-1.42818 h -1.42819 v -2.85637 h 1.42819 v -1.42819 h 1.42818 v -1.42818 h 1.42819 v -2.85608 h 1.42818 l 1.4279,-1.42819 h 1.42818 l 1.42819,-1.42818 v -2.85637 h 2.85637 v -2.85637 h 1.42818 v -8.56882 h -1.42818 v -1.42819 h -2.85637 v 1.42819 h -7.14064 v -1.42819 h -4.28455 v -1.42818 h 1.42818 v -1.42819 h 1.42819 v -4.28426 h -1.42819 v -1.42819 h 2.85637 v -1.42818 h 4.28427 v -1.42819 l 1.42818,-1.42818 h 1.42819 v -1.42819 h 1.42818 v -1.42818 h 2.85637 v -2.85637 h 1.4279 v -1.42819 h 1.42818 v -1.42818 h -1.42818 v -1.43401 h -1.4279 v 1.42819 h -1.42818 v 1.42818 h -2.85637 v 1.42819 h 1.42818 v 2.85608 h -7.14063 v 1.42818 h -1.42819 v 2.85637 h -2.85637 v 1.42819 h -1.42818 v 1.42818 h -1.42819 v 1.42819 h -1.42789 v -2.85637 h 1.42789 v -1.42819 h 2.85637 v -1.42818 h 1.42819 v -1.42819 h 1.42818 v -1.42818 h 1.42819 V 137.095 h 1.42818 v -1.42818 h 1.4279 v -1.42819 h 2.85637 v -1.42818 h 1.42818 v -1.42819 h 1.42819 v -1.42818 h 1.42818 v -1.42819 h 2.85608 v -1.42818 h 1.42819 v -1.42819 h 1.42818 v -1.42818 h 2.85637 v -1.42819 h 1.42819 v -2.85608 h 18.57222 v -1.42818 h 2.85637 v -1.42819 l 1.42819,1.42819 v -1.42819 h 4.28426 l 1.42818,-1.42818 h 5.71275 v -1.42819 h 4.28426 v -1.42818 h 4.28455 v -1.42819 h 1.42819 v -1.42818 h 1.42818 v 1.42818 h 1.42819 v -2.85637 h 2.85026 v -1.42818 h 1.42818 v -1.42819 h 2.85609 v -1.42818 h 1.42819 v -1.42819 h 2.85637 v -1.42818 h 1.42818 v -1.42819 h 1.42819 V 98.5343 h 1.42818 v -1.42819 h 1.42788 v -1.42818 h 1.42818 v -1.42819 h 1.42819 v -1.42818 h 1.42818 v -2.85637 h 1.42819 V 88.537 h 2.85637 v -2.85608 h 1.42818 v -1.42818 h 1.42819 v -2.85637 h 2.8561 V 78.54 h 1.42818 v -1.42819 h 1.42819 v -1.42818 h 1.42818 v -1.42819 h 1.42819 v -2.85608 h 1.42818 v -1.42818 h 1.42819 v -1.42819 h 1.42787 v 1.42819 h 1.42819 v -2.85637 h -1.42819 v -1.42819 h 1.42819 v -1.42818 h 1.42818 v -2.85637 h 1.42819 v -1.42819 h 1.42818 V 58.5457 h 1.42819 v -1.42819 h 1.42818 v -1.42818 h 1.42819 v -1.42819 h 1.42818 v -1.42818 h 1.42819 v -2.85608 h 1.42791 v -1.42819 h 1.42819 v -1.42818 h 1.42818 v -1.42819 h 2.85637 v -1.42818 h -1.42818 v -1.42819 h 1.42818 v -1.428181 h 2.85637 v -1.428185 h 2.85606 v -1.428185 h 2.85637 v -1.428185 h 1.42819 v -1.428185 h 4.28428 v -2.856371 h 1.42819 v 2.856371 h 1.42237 z M 469.16315,502.71939 v 1.42819 h 1.42819 v 1.42818 h 2.85608 v -1.42818 h -2.85608 z M 746.195,152.81115 h -1.4282 v 1.42818 h 1.4282 z m 111.3897,8.56882 h -1.4282 v 2.85637 h 1.4282 z m -354.16081,11.42519 v -1.42819 h 1.42818 v -1.42818 h 2.85637 v 1.42818 h -1.42818 l -1.42819,1.42819 h 1.42819 l -1.42819,1.42818 h 1.42819 v 4.28456 h -4.28456 v -2.85637 h 1.42819 v -1.42819 h -2.85637 v -1.42818 z m 0,-9.99643 v -4.28455 h 1.42818 v -1.42819 h 1.42819 v 1.42819 h -1.42819 v 1.42818 h 1.42819 v 1.42819 h -1.42819 v 1.42818 h 1.42819 v 1.42819 h -2.85637 l -1.42819,1.42818 v -2.85637 z M 843.297,134.24503 v -1.42818 h 4.2846 v 1.42818 h 1.4282 v 1.42819 h 2.8564 v 1.42818 h 1.4281 v 1.42819 h 2.8561 v 1.42818 h 1.4282 v 2.85637 h 1.4282 v 4.28456 h -1.4282 v 2.85608 h -2.8561 v 1.42818 h -1.4282 v 1.42819 h -7.1409 v 1.42818 h -2.8564 v 1.42819 h -1.4281 v 1.42818 h -1.4282 v 1.42819 h -1.4279 V 157.0957 H 833.3 v -1.42818 h -4.2842 v -2.85637 h 1.4282 v -1.42819 h -1.4282 v -2.85608 h 1.4282 v -2.85637 h -1.4282 v -2.85637 h 2.856 v -2.85608 H 833.3 v -1.42818 h 1.4282 v -1.42819 h 1.4282 v -1.42818 h 4.2843 v -1.42819 h 1.4282 z m -18.5661,11.42548 h -1.4282 v -1.42818 h 4.2846 v 1.42818 h -1.4282 v 1.42819 h 1.4282 v 1.42818 h -2.8564 v 2.85608 h 4.2846 v 1.42819 h -1.4282 v 1.42818 h -4.2846 v -1.42818 h -4.2842 v -2.85608 h -1.4282 v -1.42819 h 1.4282 v -1.42818 h 1.4282 v -1.42819 h 2.856 v 1.42819 h 1.4282 z m -88.539,-61.4105 v -2.85637 l 1.4282,1.42819 v 1.42818 h 1.4282 v 1.42819 h -1.4282 v 1.42818 h -1.4282 v 1.42819 h -1.4282 v 2.85637 h -1.4282 v -2.85637 h 1.4282 V 85.6882 Z M 780.465,67.12266 v -1.42818 h 8.5688 v 1.42818 h 1.4282 v 1.42819 h 1.4282 v 1.42818 h 1.4282 v 1.42819 h -1.4282 v 1.42818 h -1.4282 v 2.85637 h -1.4282 v 2.85608 h -1.4281 v 1.42819 h -1.4282 v 5.71274 h -1.4282 v 1.42818 h -2.8561 v -2.85637 h -1.4282 v -2.85608 h -1.4281 v -2.85637 h -1.4282 V 72.8354 h -1.4282 v -1.42818 l 1.4282,-1.42819 v -1.42818 h 1.4282 v -1.42819 z m 48.5516,8.56882 h -1.4282 V 74.2633 h 2.8564 v 1.42818 h 2.8561 v 1.42819 h 1.4282 v 1.42818 h 2.8564 v 1.42819 h 1.4282 v 1.42818 h 1.4278 v 2.85637 h -2.856 v -1.42818 h -4.2846 v -1.42819 h -2.8561 v -1.42818 h -1.4282 z m -1.4282,-28.56254 v -1.42818 h 4.2843 v 1.42818 h 4.2846 v 1.42819 h -1.4282 v 1.42818 h -2.8564 v 4.28456 h -2.8561 v -1.42819 h -2.8563 v -5.71274 z m 11.4253,4.28456 -1.4282,-1.42819 h 1.4282 l 1.4278,1.42819 v -1.42819 l 1.4282,1.42819 h -1.4282 v 1.42818 h -1.4278 z M 709.05404,1.4281847 V -2.5878791e-7 h 1.42819 V 1.4281847 h 1.42818 v 1.428185 h 2.85637 v -1.428185 h 1.42788 v 1.428185 h 7.14094 v 1.428186 h 1.4282 v 2.85637 h 1.4279 v 1.428185 h 1.4282 v 1.428185 h -2.8561 v 4.2845553 h -1.4282 v 1.428185 h -1.4282 v 2.85608 h 1.4282 v -2.85608 h 5.7125 l -1.4282,1.428185 v 2.85608 h -2.8561 v 1.428185 h -1.4282 v 1.428185 h -1.4282 v -1.428185 h -2.85637 v 1.428185 h 1.42818 v 1.428185 h 1.42819 v 1.428185 h 1.4282 v -1.428185 h 1.4282 v -1.428185 h 4.2843 v 11.42519 h -4.2843 v 1.428185 h -1.4282 v -2.85608 h -4.28457 v 1.428185 h -7.14062 v -1.428185 h -1.42818 v -1.428185 h -11.42521 v 1.428185 h -5.71274 v -1.428185 h -1.42819 v -1.428185 h -1.42787 v -2.85637 h 1.42787 v -2.856079 h -1.42787 v 1.428185 h -4.28456 v 1.428185 h 1.42819 v 2.856079 h -1.42819 v -1.428185 h -1.42818 v -2.856079 h 1.42818 v -1.428185 h 1.42819 v -2.85637 h 1.42818 v -1.428186 h 1.42819 v -1.428185 h 1.42787 v -1.428185 h 1.42819 v -2.85637 h 1.42818 v -1.428185 h 1.42819 V 9.9975867 h 1.42818 v -1.428185 h 1.42819 v -2.856371 h 1.42818 v -4.284555 h 2.8561 v 4.284555 h 1.42819 v -1.428185 h 4.28455 v -1.428185 h -4.28455 v -1.428185 h 2.85637 z"
     style="clip-rule:evenodd;fill:#000000;fill-rule:nonzero;stroke:none;stroke-width:2.97563px"
     id="path1561" />
</svg>
