<?xml version="1.0" encoding="UTF-8" standalone="no"?>
<svg
   xmlns:dc="http://purl.org/dc/elements/1.1/"
   xmlns:cc="http://creativecommons.org/ns#"
   xmlns:rdf="http://www.w3.org/1999/02/22-rdf-syntax-ns#"
   xmlns:svg="http://www.w3.org/2000/svg"
   xmlns="http://www.w3.org/2000/svg"
   xmlns:sodipodi="http://sodipodi.sourceforge.net/DTD/sodipodi-0.dtd"
   xmlns:inkscape="http://www.inkscape.org/namespaces/inkscape"
   version="1.0"
   width="1024pt"
   height="1024pt"
   viewBox="0 0 1024 1024"
   preserveAspectRatio="xMidYMid meet"
   id="svg2211"
   sodipodi:docname="vector.svg"
   inkscape:version="1.0.2-2 (e86c870879, 2021-01-15)">
  <defs
     id="defs2215" />
  <sodipodi:namedview
     pagecolor="#ffffff"
     bordercolor="#666666"
     borderopacity="1"
     objecttolerance="10"
     gridtolerance="10"
     guidetolerance="10"
     inkscape:pageopacity="0"
     inkscape:pageshadow="2"
     inkscape:window-width="1366"
     inkscape:window-height="697"
     id="namedview2213"
     showgrid="false"
     inkscape:zoom="0.1940918"
     inkscape:cx="1266.7524"
     inkscape:cy="760.26375"
     inkscape:window-x="-8"
     inkscape:window-y="-8"
     inkscape:window-maximized="1"
     inkscape:current-layer="svg2211"
     fit-margin-top="0"
     fit-margin-left="0"
     fit-margin-right="0"
     fit-margin-bottom="0" />
  <metadata
     id="metadata2205">
Created by potrace 1.10, written by Peter Selinger 2001-2011
<rdf:RDF>
  <cc:Work
     rdf:about="">
    <dc:format>image/svg+xml</dc:format>
    <dc:type
       rdf:resource="http://purl.org/dc/dcmitype/StillImage" />
    <dc:title></dc:title>
  </cc:Work>
</rdf:RDF>
</metadata>
  <path
     d="m 824.94125,224.69902 -3.2101,6.42014 3.2101,6.42015 3.21,6.42014 6.4202,9.63021 9.6296,9.62955 6.4201,9.63022 v 12.83961 l -3.21,16.0497 -3.2101,12.84028 -9.6296,12.84028 9.6296,6.41949 3.2101,6.42014 v 25.67991 l -3.2101,19.26042 h 12.8403 v 9.62956 l 3.2093,25.67991 -3.2093,16.0497 -3.2101,19.26042 -6.4201,12.83963 3.21,6.42014 3.2101,6.42014 -3.2101,9.62956 -6.4201,9.63021 -3.2101,9.63021 -3.2094,9.62955 -9.6303,6.42014 -6.4201,3.21008 h -6.4201 l -3.2101,-3.21008 -6.4201,6.42015 -3.2094,3.21007 h -3.2101 l -12.8403,6.41948 -3.2094,3.21007 -3.2101,6.42014 3.2101,3.21007 6.4195,3.21007 3.2101,-3.21007 9.6302,-3.21007 h 3.2094 l 3.21,3.21007 3.2101,6.41949 -3.2101,3.21007 h -3.21 v 3.21007 l -3.2094,6.42014 -3.2101,9.63021 3.2101,6.42014 6.4194,6.41949 3.2101,9.6302 v 9.62956 h -6.4201 l -9.6296,3.21007 -3.21,-3.21007 -6.4202,-6.41949 -6.4195,-3.21007 h -6.4201 l -12.8403,6.42014 -6.42016,-3.21007 -6.41944,-3.21007 -12.84028,6.42014 -3.19639,-3.21007 H 719.0253 l 3.20941,6.41949 -3.20941,3.21007 -9.63021,9.63021 h -6.42014 l -6.42015,3.21007 -6.42014,3.21007 v 19.25977 l -3.20941,3.21007 h -12.84028 l -6.42014,-6.42014 h -3.20942 l -3.21007,3.21007 v 9.63021 l 3.21007,6.43322 h -3.21007 l -3.21007,3.21007 v 12.83963 l 3.21007,3.21007 3.21007,3.21007 6.41949,3.21007 3.21007,6.41948 h -12.83963 l -6.42014,6.42014 -6.42014,3.21007 -3.21007,3.21007 -6.42014,3.21008 3.21007,3.21007 h 3.21007 v 22.46983 l 3.21007,6.42014 -3.21007,6.41949 h -3.21007 l -3.21007,9.63021 h 3.21007 l 3.21007,3.21007 3.21007,6.42012 v 9.63021 l -6.42014,6.41953 -6.42014,6.42014 -3.20942,3.21007 -3.21007,3.21007 3.21007,3.21007 h 3.20942 l 6.42014,3.20937 h 6.42014 v 22.46993 l 3.21007,-6.4196 3.21007,-3.21 3.21007,6.4195 3.21007,6.4201 v 9.6302 l -3.21007,6.4202 6.42014,6.4201 v 9.6295 l -3.21007,9.6302 -3.21007,3.2101 h -12.84028 v 3.2095 l -6.42014,9.6302 v 6.4201 l -9.62956,19.2597 -6.42014,19.2599 v 16.0503 h -12.83963 l -6.42014,-6.4201 h -3.21007 l -3.21007,3.21 h -9.62956 v 3.2101 l 3.20942,6.4195 v 9.6302 l -3.20942,3.21 h -9.63021 l -9.63021,3.2101 -6.42014,3.2101 h -6.40641 l -6.42014,3.21 -12.83963,3.2101 -3.21007,3.2101 h -3.21007 v -6.4202 h -3.21007 l -3.21007,-3.21 h -3.21007 l -6.41949,-3.2101 -3.21007,-3.2101 v 3.2101 l -9.63021,9.6302 -3.21007,-3.2101 h -3.21007 v -3.21 l -3.20942,3.21 -3.21007,6.4202 -3.21007,6.4195 h -3.21007 v -3.2101 l -12.83963,-6.4195 h -3.21007 l -3.21007,6.4195 -3.21007,3.2101 v 6.42023 l 3.21007,3.21 -3.21007,3.2101 L 446.18893,1024 h -3.21007 l -9.62956,-9.6295 3.21008,-3.2101 -3.21008,-3.2101 3.21008,-3.21 v -3.2101 l -3.21008,-3.21013 3.21008,-3.2101 -6.42015,-3.2094 -3.21007,6.4195 h -6.42014 l -3.21007,-3.2101 v -3.2094 l 3.21007,-9.6302 -3.21007,-3.2101 -6.41947,-3.2101 -3.21008,-3.21 h -6.42014 l -6.42014,6.4201 h -3.21007 v -3.2101 h -3.21007 v -6.4201 l -6.40641,-3.2101 -6.42014,6.4202 -3.20942,3.21 -3.21007,-3.21 -3.21007,6.4201 -3.21007,3.2101 h -3.21007 l -12.83962,6.4201 h -3.21007 v -3.2101 l -3.21008,-3.21 3.21008,-3.2101 v -3.2101 l 3.21007,-3.21 -3.21007,-3.2101 v -3.2101 h -3.21008 l -6.42014,-6.4194 v -3.2101 l 3.21007,-3.2101 3.21007,-6.4201 v -6.4201 h 9.63022 l 6.41948,-9.6296 v -3.2101 h 3.21007 v -3.2101 h 12.84028 l -3.21007,-3.2101 v -3.21 h 3.21007 l 3.20942,-3.2094 v -3.2101 h 3.21007 l 9.63021,6.4195 3.21007,3.21 6.41949,3.2101 3.21007,-3.2101 3.21007,-6.4194 3.21007,-3.2101 6.42013,-12.8402 3.21007,-3.2101 -3.21007,-3.2101 h -3.21006 l 3.21006,-3.2101 h -3.21006 l -3.21007,-3.21 v 3.21 l -3.21007,3.2101 h -16.0497 v 9.6302 h -3.21007 v -3.21 l -3.21007,-3.2101 -3.21007,-3.2101 -3.21007,3.2101 v 3.2101 l -6.41949,-3.2101 h -3.21007 l -3.21007,-3.2101 -9.62955,-9.6296 -6.42014,-3.2101 -3.21007,-3.21 v -6.4202 l 3.21007,-3.21 -6.42015,-3.2094 v -3.2101 l 3.21008,-6.4201 h -3.21008 l -12.84028,-6.4202 v -3.21 l -3.21007,-3.2101 h -3.21007 l -3.20941,-3.2101 -9.63021,-3.21 h -9.62956 l -3.21007,3.21 -3.21007,6.4202 3.21007,3.21 h 9.62956 v 3.2101 h 3.21007 v 16.0497 l -3.21007,3.21 -12.83963,-12.8396 h -3.21007 v 3.2101 l -9.63021,6.4195 h -3.21007 l -3.21007,-3.2094 v -3.2101 l -3.21007,-6.4201 6.42014,-6.4202 3.21007,-3.21 3.21007,-3.2101 -3.21007,-3.2101 v -6.4201 l 3.21007,-3.2095 h 3.21007 v 3.2095 -3.2095 h 3.21007 l 3.21007,3.2095 h 3.21007 v -3.2095 l -12.84028,-12.8403 v -3.21003 l -3.21007,-3.20937 3.21007,-3.21007 h 3.21007 v -6.42014 h -3.21007 v -3.21007 l 3.21007,-3.21007 v -6.41953 l -3.21007,-6.42014 -3.21007,-3.21007 v -3.21005 h -3.21007 l -3.21007,-3.21007 h -6.41949 v 6.42012 h 3.20942 v 9.63021 l -9.62956,9.6296 h 3.21007 l 3.21007,3.21007 v 3.21007 l 3.20942,3.21007 -3.20942,6.41944 v 3.21003 h -3.21007 l -6.42014,-6.4194 3.21007,-3.21007 -3.21007,-3.21007 v -3.21007 l -3.21007,-6.42014 -9.62956,-6.41953 -3.21007,-3.21007 -9.63021,-6.42014 -3.21007,3.21007 -3.21007,3.21007 v 3.21007 h -3.20942 v 9.6296 h -3.21007 v 3.21007 h -3.21007 l -3.19699,-3.21007 -3.21007,3.21007 -3.21007,-3.21007 v -3.21007 h -9.62956 v -3.21007 l 3.21007,-3.20946 v -3.21007 h -3.21007 v -3.21007 h -3.21007 l -3.21007,-6.42012 -3.21007,-3.21007 h -6.41949 l -3.21007,3.21007 h -3.21007 l -6.42014,3.21005 h -6.42014 v -19.2604 h -3.21007 v -3.20942 h 3.21007 l 3.21007,-3.21007 h 3.21007 v -6.42014 l -6.42014,-6.42014 v -3.21007 l 3.21007,-6.41948 6.42014,6.41948 6.42014,3.21007 3.21007,3.21007 3.20942,-3.21007 3.21007,-3.21007 v -3.20941 l 3.21007,-3.21007 v -9.63021 l 3.21007,-6.42015 v -3.21007 l 3.21007,-6.42014 3.21007,-9.62955 h 12.83963 l 3.21007,-6.42014 v -3.21007 l -3.21007,-3.21008 v -3.20941 l -3.21007,-3.21007 h -3.21007 v -3.21007 h -3.20942 l -3.21007,-6.42014 v -12.83963 l 3.21007,-3.21007 v -3.21007 h 3.20942 l -3.20942,-3.21007 v -9.63021 l 3.20942,-3.21007 v -3.21007 h 3.21007 l 3.21007,-9.62956 v -3.21007 h 3.21007 l 3.21007,-6.42014 v -16.04969 h -3.21007 v -6.42014 l 3.21007,-3.21007 -3.21007,-3.21007 v -22.46984 h 3.21007 -3.21007 v -3.21007 h -22.46984 l -6.42014,-6.41949 3.21007,-6.42014 -3.21007,-6.42014 3.21007,-6.41949 12.84028,-9.63021 h 6.41949 v 3.21007 h 9.63021 l 9.63021,-6.42014 3.21007,-6.42014 3.21007,-6.42014 -12.84028,-6.41949 v -9.63021 l 3.21007,-9.63021 3.21007,-6.41948 6.42014,-3.21007 12.83963,3.21007 h 9.63021 v -6.42014 l -9.63021,-3.21008 h -9.63021 l -6.41949,-3.21007 v -6.42014 l 6.41949,-6.42014 12.84028,6.42014 6.42014,3.21007 h 3.20941 l 6.42014,-3.21007 9.63022,-9.62955 6.41948,-9.63021 3.21007,-3.21007 v -12.83963 l 3.21007,-9.63021 -6.42014,-6.42014 v -3.20942 l 9.63021,-3.21007 h 6.42014 v 3.21007 h 9.63021 l 3.20942,-3.21007 v -16.05035 l -6.41949,-3.21007 -3.21007,-3.21007 v -6.41949 l 3.21007,-3.21007 h 6.41949 l 3.21007,3.21007 3.21007,3.20942 12.84028,-3.20942 9.62956,-3.21007 3.21007,-6.42014 v -22.46984 l 6.42014,6.42014 v 3.21007 h 6.42014 l 6.42014,6.41949 6.41949,3.21007 6.40641,-3.21007 6.42014,-6.41949 3.21007,6.41949 9.63021,-3.21007 v -6.41949 h 6.41949 l 3.21007,-6.42014 3.21007,-9.63021 3.21007,-6.42014 v -12.83963 l -9.63021,-22.48357 -3.21007,-16.04969 -3.20942,-6.42014 -3.21007,-12.83962 v -16.05036 l 3.21007,-6.41948 v -9.63021 h -6.42014 l -3.21007,-6.42014 h -12.83963 l -9.63021,9.63021 -3.21007,6.42014 -3.21007,-3.21007 h -6.41948 v -12.84028 l -6.42014,-3.21007 -3.21008,-6.41949 -3.21007,-6.42014 v -6.42014 l 3.21007,-3.21007 12.84029,-3.21007 22.46918,-6.42014 3.21007,-3.20942 3.21007,-3.21007 -3.21007,-3.21007 v -16.0497 l 3.21007,-6.42014 v -9.63021 l -3.21007,-6.41949 v -3.21007 h -3.21007 l 6.42014,-9.63021 9.63021,-19.259765 12.83963,-22.46984 19.26041,-19.26042 28.88867,-25.67991 12.84029,-12.8396203 6.42014,-9.6302099587884 h 3.20941 V 9.6302047 l 6.42014,3.2100703 6.42014,6.41948 -6.42014,9.63021 3.21007,3.21007 9.62956,6.42015 3.21007,3.20941 -3.21007,3.21007 -6.41949,9.63021 -6.42014,12.84028 -6.42014,12.83963 -3.20941,6.42014 v 16.049695 h 9.62955 l 9.63022,3.21007 12.83962,3.21007 25.67991,6.42014 9.63021,3.21007 3.21007,6.42014 3.19634,9.62956 v 6.42014 l 19.26043,9.62956 16.04969,3.21007 6.42014,3.21007 6.41949,6.42014 6.42014,3.21007 3.21007,6.41949 9.62956,-3.21007 h 9.63021 v -6.41949 h 6.42014 l 9.63021,-6.42014 6.41949,-3.21007 16.05035,3.21007 12.83963,6.42014 16.05035,9.62956 16.0497,6.42014 12.82655,6.42014 12.83958,6.42014 h 12.84028 l 19.2598,-9.63021 9.6302,-3.21007 6.4202,3.21007 h 6.4194 l 9.6302,-9.63021 12.8403,-3.21007 h 9.6296 l 6.4201,3.21007 3.2101,-9.62956 6.4202,-3.21007 9.6295,-6.42014 6.4201,-3.21007 9.6302,-3.21007 3.2095,9.63021 3.2101,9.63021 v 12.83963 h -6.4196 l -6.4201,3.21007 h -12.8403 l -6.4194,3.21007 -3.2101,6.42014 v 3.21007 l 3.2101,9.62956 6.4194,9.63021 -3.2094,3.21007 -6.4201,3.21007 -6.4202,3.20941 z"
     style="clip-rule:evenodd;fill:#000000;fill-rule:nonzero;stroke:none;stroke-width:6.68819px"
     id="path1338" />
</svg>
