<?xml version="1.0" encoding="UTF-8" standalone="no"?>
<svg
   xmlns:dc="http://purl.org/dc/elements/1.1/"
   xmlns:cc="http://creativecommons.org/ns#"
   xmlns:rdf="http://www.w3.org/1999/02/22-rdf-syntax-ns#"
   xmlns:svg="http://www.w3.org/2000/svg"
   xmlns="http://www.w3.org/2000/svg"
   xmlns:sodipodi="http://sodipodi.sourceforge.net/DTD/sodipodi-0.dtd"
   xmlns:inkscape="http://www.inkscape.org/namespaces/inkscape"
   version="1.0"
   width="1024pt"
   height="1024pt"
   viewBox="0 0 1024 1024"
   preserveAspectRatio="xMidYMid meet"
   id="svg2211"
   sodipodi:docname="vector.svg"
   inkscape:version="1.0.2-2 (e86c870879, 2021-01-15)">
  <defs
     id="defs2215" />
  <sodipodi:namedview
     pagecolor="#ffffff"
     bordercolor="#666666"
     borderopacity="1"
     objecttolerance="10"
     gridtolerance="10"
     guidetolerance="10"
     inkscape:pageopacity="0"
     inkscape:pageshadow="2"
     inkscape:window-width="1366"
     inkscape:window-height="697"
     id="namedview2213"
     showgrid="false"
     inkscape:zoom="0.1940918"
     inkscape:cx="1266.7524"
     inkscape:cy="760.26375"
     inkscape:window-x="-8"
     inkscape:window-y="-8"
     inkscape:window-maximized="1"
     inkscape:current-layer="svg2211"
     fit-margin-top="0"
     fit-margin-left="0"
     fit-margin-right="0"
     fit-margin-bottom="0" />
  <metadata
     id="metadata2205">
Created by potrace 1.10, written by Peter Selinger 2001-2011
<rdf:RDF>
  <cc:Work
     rdf:about="">
    <dc:format>image/svg+xml</dc:format>
    <dc:type
       rdf:resource="http://purl.org/dc/dcmitype/StillImage" />
    <dc:title></dc:title>
  </cc:Work>
</rdf:RDF>
</metadata>
  <path
     d="m 776.58387,159.19096 4.3025,4.30167 4.3026,8.60511 h 8.6051 l 12.9068,4.30255 h -8.6043 4.3026 l 4.3025,4.30256 h -4.3025 l -4.3026,4.30255 -4.3025,4.30168 -4.3026,-4.30168 -4.3025,4.30168 -8.6051,4.30255 v 4.30256 h -4.3026 v -8.60511 h -4.3025 l -4.3026,4.30255 v 4.30256 l -4.3025,4.30255 4.3025,4.30256 v 4.30255 h -12.9077 v 8.60511 h 4.3026 v 4.30255 l -4.3026,4.30256 -8.6041,-8.60511 h -4.3026 l -4.3025,4.30255 v 8.60511 h 4.3025 l 4.3026,4.30168 4.3025,4.30255 v 17.21022 l 4.3026,4.30168 4.3025,4.30255 v 4.30255 l -4.3025,8.60511 -4.3026,8.60511 -4.3025,4.30255 -4.3026,4.30256 -4.3025,8.60423 v 25.81532 h 4.3025 l 4.3026,-4.30255 4.3025,4.30255 v 12.90679 l -4.3025,8.60511 -4.3026,8.6051 -4.3025,8.60424 v 34.42043 l -4.3026,4.30168 v 21.51276 l -4.3025,4.30256 v 21.51189 l -8.6052,8.60511 h -8.6042 l -4.3026,4.30255 -8.6051,8.60511 h -8.6042 v 4.30168 l -8.6051,8.60511 h -12.9076 l 4.3025,4.30255 h 4.3026 -4.3026 l -4.3025,4.30256 v 12.90678 h 4.3025 l 4.3026,-8.60423 8.6051,-4.30255 12.9076,-8.60511 8.6042,-12.90679 17.2102,-4.30255 8.6043,-4.30256 8.6051,-12.90766 8.6042,-4.30255 8.6051,4.30255 h 4.3026 l 8.6051,8.60511 -4.3026,4.30255 h -4.3025 l -4.3026,4.30256 -8.6051,4.30255 -25.8144,8.60423 -8.6051,8.60511 -12.9068,4.30256 -8.6052,8.6051 -17.2092,8.60424 -8.6051,8.6051 -8.6052,4.30256 -8.5867,4.30255 -4.3026,8.60423 v 12.90765 h 4.3026 v -4.30254 h 4.3025 v -4.30255 h 4.3026 v 17.2102 l -4.3026,4.30256 h -4.3025 l -4.3026,-4.30256 h -8.6041 l -4.3026,4.30256 -8.6051,4.30255 -8.6051,8.60511 -4.3026,8.60423 h -4.3025 l -8.6043,4.30255 -4.3026,4.30256 v 4.30255 l -4.3025,8.60423 v 4.30256 l 4.3025,8.6051 v 8.60511 l 4.3026,8.60511 4.3025,4.30255 v 21.5119 l -4.3025,4.30255 -8.6051,8.60511 -4.3026,4.30168 -4.3025,8.60511 -4.3026,8.6051 -4.3025,4.30256 -4.3026,8.60423 v 21.51277 l 4.3026,4.30255 v 4.30256 l -4.3026,8.6051 v 12.90679 l -4.30253,4.30255 v 30.13541 l 4.30253,8.60423 v 12.90766 l -4.30253,8.60511 v 8.60511 l -4.30256,8.60423 v 8.60511 l -4.30255,12.90766 4.30255,8.60423 -4.30255,4.30255 v 17.21022 l -4.30255,8.60423 -4.30256,8.60511 -4.30255,12.90766 v 21.51194 l 8.60511,8.6051 v 12.9076 l -4.30256,4.3017 -8.60511,8.6051 -12.90678,8.6051 h -8.60511 l -4.30255,4.3026 v 4.30251 h -4.30256 v 4.3026 h -4.30255 l -4.30256,4.3025 h -12.90678 l -4.30256,-4.3025 H 466.8245 l -4.30255,4.3025 -4.30256,-4.3025 h -4.30255 l -4.30255,-4.3026 h -4.30256 v -4.30251 h -4.30255 l -4.30256,-4.3026 h -4.30255 v -4.3025 h -4.30255 v 4.3025 h -4.30256 l -4.30255,4.3026 -4.28503,4.30251 h -21.51189 v 4.3026 l -8.60423,8.6051 h -8.60511 l -4.30256,4.3017 V 1024 h -8.6051 l -4.30256,-4.3026 v -4.3017 h -17.20934 v -17.21021 h -4.30255 v -4.3026 h -4.30254 v -8.6051 h -4.30256 v 4.3026 l -4.30255,-4.3026 h -8.60511 v -12.9068 l 4.30255,-4.3025 -4.30255,-4.3026 v -4.3025 h -4.30255 v -4.3026 h -4.30256 v -4.3025 l -4.30255,-4.3026 v -4.3017 l -4.30256,-4.30253 v -21.51277 h 4.30256 v -4.30255 l 4.30255,-4.30256 -4.30255,-4.30255 v -4.30168 h 4.30255 v -4.30255 h 4.30256 l -4.30256,-4.30256 v -4.30255 h 4.30256 v -12.90766 l 4.30255,-4.30168 -4.30255,-4.30256 v -4.30255 h 4.30255 v -8.60511 l -4.30255,-4.30255 h -4.30256 v 4.30255 h -4.30255 v -4.30255 h -4.30256 v -4.30168 l 4.30256,-8.60511 v -4.30255 h 4.30255 v -8.60511 h -4.30255 v -4.30255 l 4.30255,-8.60511 v -4.30255 l 4.30256,-4.30168 v -4.30256 l -4.30256,-4.30255 h -4.30255 v -25.81445 l 4.30255,-4.30255 v -4.30256 h 4.30256 v -8.6051 h -12.90679 v -4.30256 h -4.30255 l -8.60511,-4.30255 h -4.30256 l -4.30255,-4.30256 v -4.30255 l 4.30255,-4.30168 v -4.30255 h 4.30256 v -8.60511 h -4.30256 v -4.30255 h -4.30255 v -4.30256 h -4.30255 v -17.20934 l 4.30255,-4.30255 h -4.30255 v -8.60511 l -4.30256,4.30256 h -4.30255 v -25.81445 h -8.60423 v -12.90766 l -4.30256,-4.30256 -4.30255,4.30256 v -17.20934 h -4.30255 v -4.30256 h -4.30256 v -4.30255 h -8.60511 v -12.90766 l 4.30256,-4.30256 V 585.1508 l -4.30256,-4.30256 h -4.30255 v -17.21021 h -4.30255 4.30255 v -4.30256 l -4.30255,-4.30255 v -12.90678 h -4.30256 v -12.90766 h 4.30256 l 4.30255,-4.30255 4.30255,-4.30168 h 4.30256 v 4.30168 l 4.30255,4.30255 h 4.30256 l 4.30255,4.30256 h 4.30255 v -8.60511 l 4.30256,-4.30168 v -4.30255 h 4.30255 v -4.30256 h 12.90766 v -4.30255 h 4.30256 v -4.30255 l 4.30255,4.30255 h 30.117 l 8.60423,-8.60511 v 8.60511 l 4.30256,4.30255 h 8.60511 l 8.60422,-4.30255 4.30255,-8.60511 h 8.60511 l 8.60511,8.60511 4.30255,4.30255 h 8.60423 l 4.30256,-4.30255 v -4.30255 l -4.30256,-8.60424 v -4.30255 l 4.30256,-4.30255 h 25.81444 l 8.60511,8.6051 h 12.90766 v 4.30168 l -4.30255,4.30256 v 8.6051 l 4.30255,4.30256 h 17.20934 l 8.60511,-4.30256 v -12.90766 l 4.30255,-4.30168 8.60424,-4.30255 h 4.30255 v -8.60511 l -4.30255,-4.30255 v -8.60511 l 4.30255,-8.60511 4.30255,-4.30255 8.60511,-4.30256 4.30256,-4.30167 8.60423,-12.90767 v -12.90678 l 4.30255,-8.60511 4.30256,-12.90766 4.30255,-8.60511 4.30255,-4.30255 h 4.30256 l 8.60511,-4.30256 h 8.6051 l 4.30256,-4.30167 8.60423,-8.60511 h 12.90766 l 8.60426,-4.30256 h 4.3026 l 17.2102,-8.6051 8.6051,-8.60424 4.3026,-8.6051 V 327.0037 l -4.3026,-4.30255 v -4.30168 l 8.6042,-8.60511 v -25.81532 l -4.3026,-4.30255 -4.3025,4.30255 h -4.3026 l -4.3025,4.30255 -4.3026,-4.30255 h -12.9067 v 4.30255 l -4.3026,4.30256 -4.3026,4.30255 -4.30254,-4.30255 -4.30255,-4.30256 -4.30255,-4.30255 h -21.51277 v -8.60423 l 4.30255,-4.30255 8.60511,-4.30256 4.30255,-4.30255 4.30256,-4.32008 h -4.30256 v -4.30256 l -4.30255,-4.30255 -4.30256,-4.30255 h -4.30255 v -8.60511 l -4.30255,-8.60423 -8.60511,-4.30256 h -4.30256 l -4.30255,-4.30255 -12.90678,-25.81533 v -8.60423 l -4.30256,-4.30255 4.30256,-4.30256 4.30255,-4.30255 4.30255,-8.60511 4.30256,-4.30167 h 4.30255 l 4.30255,-4.30256 v -12.90766 l -4.30255,-8.60511 -8.60511,-4.30168 h -12.90678 l -4.30256,-4.30255 v -12.90765 l -8.6051,-8.60511 v -8.605108 l 4.30255,-4.30255 h 4.30255 l 4.30256,4.30255 h 4.30255 l 4.30256,4.30256 h 12.90766 l 4.30255,4.302548 4.30256,4.30256 h 8.60423 l 4.30255,-4.30256 8.60511,-4.302548 8.60423,-8.60511 v -8.60423 l -8.60423,-8.60511 -4.30256,-4.30255 -4.30255,-8.60511 v -4.30168 h 4.30255 l 4.30256,-4.30255 h 4.30255 v -8.60511 l 4.30256,-4.302555 h 17.20941 l 4.3025,8.605105 h 12.9077 l 8.6051,-4.30255 h 12.9067 l 8.6051,-4.302555 h 8.5868 l 8.6042,-8.605108 4.3025,-4.302554 v -8.605108 l 8.6051,-12.9067858 h 12.9077 l 8.6051,-4.302553958788 h 12.9068 l 8.6052,4.302553958788 12.9067,12.9067858 8.6051,12.907662 8.6051,8.605108 8.6043,12.907665 12.9076,21.51189 12.9068,17.20934 4.3025,12.907658 v 25.81531 l 8.6051,8.60424 v 12.90766 l 4.3026,8.60511 z"
     style="clip-rule:evenodd;fill:#000000;fill-rule:nonzero;stroke:none;stroke-width:8.96438px"
     id="path1224" />
</svg>
