<?xml version="1.0" encoding="UTF-8" standalone="no"?>
<svg
   xmlns:dc="http://purl.org/dc/elements/1.1/"
   xmlns:cc="http://creativecommons.org/ns#"
   xmlns:rdf="http://www.w3.org/1999/02/22-rdf-syntax-ns#"
   xmlns:svg="http://www.w3.org/2000/svg"
   xmlns="http://www.w3.org/2000/svg"
   xmlns:sodipodi="http://sodipodi.sourceforge.net/DTD/sodipodi-0.dtd"
   xmlns:inkscape="http://www.inkscape.org/namespaces/inkscape"
   version="1.0"
   width="1024pt"
   height="1024pt"
   viewBox="0 0 1024 1024"
   preserveAspectRatio="xMidYMid meet"
   id="svg2211"
   sodipodi:docname="vector.svg"
   inkscape:version="1.0.2-2 (e86c870879, 2021-01-15)">
  <defs
     id="defs2215" />
  <sodipodi:namedview
     pagecolor="#ffffff"
     bordercolor="#666666"
     borderopacity="1"
     objecttolerance="10"
     gridtolerance="10"
     guidetolerance="10"
     inkscape:pageopacity="0"
     inkscape:pageshadow="2"
     inkscape:window-width="1366"
     inkscape:window-height="697"
     id="namedview2213"
     showgrid="false"
     inkscape:zoom="0.1940918"
     inkscape:cx="1266.7524"
     inkscape:cy="760.26375"
     inkscape:window-x="-8"
     inkscape:window-y="-8"
     inkscape:window-maximized="1"
     inkscape:current-layer="svg2211"
     fit-margin-top="0"
     fit-margin-left="0"
     fit-margin-right="0"
     fit-margin-bottom="0" />
  <metadata
     id="metadata2205">
Created by potrace 1.10, written by Peter Selinger 2001-2011
<rdf:RDF>
  <cc:Work
     rdf:about="">
    <dc:format>image/svg+xml</dc:format>
    <dc:type
       rdf:resource="http://purl.org/dc/dcmitype/StillImage" />
    <dc:title></dc:title>
  </cc:Work>
</rdf:RDF>
</metadata>
  <path
     d="m 967.06692,159.3254 11.3775,11.37757 v 11.37757 l -11.3775,11.37757 -11.3776,11.37757 v 34.13272 l -22.7551,22.75514 v 11.37526 l 11.3775,11.37757 v 34.13271 l 11.3776,11.37757 11.3776,11.37526 11.3775,11.37757 11.3776,22.75514 11.37758,11.37757 11.3776,11.37757 v 34.1304 l -22.75288,22.75514 -11.3775,11.37758 -11.3776,22.75514 v 56.88554 l 11.3776,22.75514 v 22.75515 l 11.3775,22.75282 v 22.75514 l 11.37758,22.75515 v 22.75514 l 11.3776,11.37757 -11.3776,22.75514 h -11.37758 l -11.3775,-11.37757 h -22.7552 l -11.3775,-11.37757 h -34.1328 v 11.37757 h -22.7528 l -11.3776,-11.37757 -11.3775,-11.37757 h -34.1327 l -11.3776,11.37757 h -11.3776 v 22.75514 l 11.3776,11.37526 11.3776,22.75514 h -11.3776 v 11.37757 l -22.7528,-11.37757 h -45.51033 l -22.75514,11.37757 h -22.75283 l -34.13271,11.37757 -22.75283,11.37758 -45.51028,-22.75515 -11.37758,11.37757 -11.37757,11.37758 h -11.37757 l -22.75514,22.75282 11.37757,11.37757 v 11.37757 l 45.51029,-11.37757 v 22.75515 h 11.37757 l 11.37757,-22.75515 11.37757,-11.37757 11.37757,11.37757 v 22.75515 h -11.37757 l -11.37757,22.75509 v 34.1304 l -11.37757,22.7552 -11.37757,22.7551 -11.37758,-11.3775 h -34.13271 l -34.13271,22.7551 -11.37758,34.1327 34.13272,11.37534 22.75514,11.3775 L 557.48591,1024 H 523.3532 l -22.75283,-22.7551 -22.75514,-11.37534 v -11.3776 l -11.37757,-11.3775 h -22.75283 v 11.3775 l -11.37757,11.3776 -11.37757,11.37534 V 1024 L 409.58211,1001.2449 386.82697,989.86956 375.4494,1012.6224 364.07183,1024 352.69426,1012.6224 v -11.3775 l -11.37757,-11.37534 -11.37758,-11.3776 v -68.2654 h -22.75282 v 11.3776 h -34.13272 l -11.37757,22.7551 v 34.1327 h -22.75514 l -11.37754,-11.3775 -34.08405,-11.3776 -11.37757,-11.3776 -22.75283,11.3776 H 147.9513 v -34.1327 l -11.37757,-11.3776 v -11.3776 l -11.37757,-11.3775 h -22.75515 l -11.377565,11.3775 h -34.13271 l -11.37757,-11.3775 v -22.7529 l 11.37757,-11.37752 V 841.96347 H 45.553165 L 34.175585,830.58589 22.798015,819.20832 11.420445,796.4555 V 694.06199 l 11.37757,-11.37526 11.37757,-11.37757 11.37758,-22.75514 v -11.37757 l 11.37757,-22.75514 -11.37757,-22.75515 v -22.75282 l 11.37757,-11.37757 h 34.13271 V 546.15819 L 102.44101,534.78062 V 500.64791 H 79.685875 l -11.37757,11.37757 h -11.37757 l -11.37757,11.37757 h -11.37758 l -11.37757,-11.37757 h 11.37757 v -22.75283 l 22.75515,-22.75514 11.37757,-22.75514 v -22.75515 l 11.37757,-11.37525 11.37757,-11.37757 h 11.377565 l 22.75515,-11.37757 h 11.37757 l 11.37757,11.37757 h 45.50797 l 11.37757,-11.37757 11.37757,-11.37757 11.37757,-11.37758 h 34.13268 l 11.37758,11.37758 h 22.75282 L 318.6102,352.74411 V 329.98897 L 307.23263,307.23383 V 284.481 L 295.85506,273.10343 V 238.97072 L 284.47749,216.21789 V 170.7076 l 11.37757,-22.80148 11.37757,-22.75515 11.37757,-11.37757 h 22.75515 l 22.75282,-11.37757 h 45.51029 L 443.75886,68.26312 466.514,22.75515 h 34.1304 L 512.02197,11.37758 534.77711,9.7412115e-6 546.15468,11.37758 568.90983,22.75515 h 45.51028 l 22.75283,11.37757 h 45.51028 l 11.37757,11.37757 v 11.37757 l -11.37757,11.37526 11.37757,22.75514 h 11.37758 l 11.37757,11.37757 h 34.13039 l 22.75519,-11.37757 11.3312,11.37757 h 45.508 l 22.7551,11.37757 22.7551,11.37757 h 34.1304 l 11.3776,-11.37757 11.3776,22.75515 h 11.3776 l 11.3775,11.37757 11.3776,11.37757 z"
     style="clip-rule:evenodd;fill:#000000;fill-rule:nonzero;stroke:none;stroke-width:23.7052px"
     id="path1262" />
</svg>
