<?xml version="1.0" encoding="UTF-8" standalone="no"?>
<svg
   xmlns:dc="http://purl.org/dc/elements/1.1/"
   xmlns:cc="http://creativecommons.org/ns#"
   xmlns:rdf="http://www.w3.org/1999/02/22-rdf-syntax-ns#"
   xmlns:svg="http://www.w3.org/2000/svg"
   xmlns="http://www.w3.org/2000/svg"
   xmlns:sodipodi="http://sodipodi.sourceforge.net/DTD/sodipodi-0.dtd"
   xmlns:inkscape="http://www.inkscape.org/namespaces/inkscape"
   version="1.0"
   width="1024pt"
   height="1024pt"
   viewBox="0 0 1024 1024"
   preserveAspectRatio="xMidYMid meet"
   id="svg2211"
   sodipodi:docname="vector.svg"
   inkscape:version="1.0.2-2 (e86c870879, 2021-01-15)">
  <defs
     id="defs2215" />
  <sodipodi:namedview
     pagecolor="#ffffff"
     bordercolor="#666666"
     borderopacity="1"
     objecttolerance="10"
     gridtolerance="10"
     guidetolerance="10"
     inkscape:pageopacity="0"
     inkscape:pageshadow="2"
     inkscape:window-width="1366"
     inkscape:window-height="697"
     id="namedview2213"
     showgrid="false"
     inkscape:zoom="0.1940918"
     inkscape:cx="1266.7524"
     inkscape:cy="760.26375"
     inkscape:window-x="-8"
     inkscape:window-y="-8"
     inkscape:window-maximized="1"
     inkscape:current-layer="svg2211"
     fit-margin-top="0"
     fit-margin-left="0"
     fit-margin-right="0"
     fit-margin-bottom="0" />
  <metadata
     id="metadata2205">
Created by potrace 1.10, written by Peter Selinger 2001-2011
<rdf:RDF>
  <cc:Work
     rdf:about="">
    <dc:format>image/svg+xml</dc:format>
    <dc:type
       rdf:resource="http://purl.org/dc/dcmitype/StillImage" />
    <dc:title></dc:title>
  </cc:Work>
</rdf:RDF>
</metadata>
  <path
     d="m 893.6807,660.94343 h -18.61867 z m -18.61867,0 v 18.6187 h 18.61867 -37.23733 18.61866 -18.61866 v -18.6187 z M 130.33444,549.23553 h -18.61866 18.61866 -18.61866 l -0.004,18.6187 0.004,-18.6187 h 18.61866 -18.61866 z m 409.59544,-37.2338 v -18.6186 z m 465.45142,-18.6186 v 18.6186 z m 18.6187,0 h -18.6187 z m -353.74327,-93.0934 h -18.62245 18.61866 z m 148.94931,-93.0892 v 37.2332 h 18.61867 -18.61867 18.61867 v 18.6187 h -37.23733 l -18.61866,18.6187 v 37.2373 h 18.61866 v 18.6187 h 37.23733 l 18.61866,-18.6187 h 37.23733 -18.61867 18.61867 v 18.6187 -18.6187 l -18.61867,18.6187 h -18.61866 v 37.2373 -18.6187 37.2374 h 18.61866 v 37.2337 h 18.61867 v 18.6187 h -18.61867 v 111.7079 h -18.61866 18.61866 -18.61866 v 18.6187 h -18.61866 l -18.61867,18.6187 h -18.61866 v 18.6186 h 18.61866 v 18.6187 h -18.61866 v -18.6187 37.2374 -18.6187 18.6187 h 18.61866 v 37.2373 h -18.61866 18.61866 -18.61866 v 18.6187 h -18.61866 v -18.6187 h -18.61867 37.23354 v -18.6187 h -18.61867 18.61867 v -18.6186 h -37.23354 18.61867 -37.23733 v 18.6186 -18.6186 h -18.61867 v 18.6186 H 633.0232 v -18.6186 18.6186 -18.6186 h -37.23733 v -18.6187 H 577.1672 v -18.6187 h -37.23353 v 18.6187 H 521.315 v 37.2373 h -18.61866 v -18.6186 18.6186 h -18.61866 v -18.6186 h -18.61867 v 18.6186 -18.6186 18.6186 h -18.61866 18.61866 -37.23732 v -74.4746 h 18.61866 -37.23354 v -18.6187 18.6187 h -18.61866 v -18.6187 18.6187 -18.6187 18.6187 h -18.61866 l 18.61866,37.2373 h -18.61866 18.61866 -18.61866 v 18.6187 h 18.61866 -18.61866 18.61866 v 18.6186 h -37.23733 v 18.6187 -18.6187 h -18.61866 l -18.61867,18.6187 h -18.61866 v 18.6187 h -18.61866 v -18.6187 H 260.6575 279.27617 260.6575 v 18.6187 -18.6187 37.2373 -18.6186 18.6186 h -18.61866 v 18.6151 h -37.23733 v -18.6151 h -37.23353 v -18.6186 18.6186 -18.6186 h 18.61866 v -37.2374 18.6187 h -18.61866 v -18.6187 h -18.61867 18.61867 v -18.6186 h -37.23733 v -18.6187 l -18.61867,18.6187 H 93.09332 v 18.6186 H 74.47466 v 18.6187 H 55.85599 v -18.6187 18.6187 L 37.23733,772.65543 18.61866,754.03683 H -2.5878853e-7 v -37.2374 H 18.61866 v -55.856 h 18.61867 v -18.6146 h 18.61866 v -18.6186 H 74.47466 55.85599 74.47466 v -18.6187 18.6187 h 37.23732 v 18.6186 h 18.61867 -18.61867 l 18.61867,-18.6186 h -18.61867 v -18.6187 h 18.61867 v -55.856 h 18.61866 v -74.4711 h 18.61867 v -37.2373 h 18.61866 -18.61866 18.61866 v -37.2374 h 37.23353 v -18.6186 h 37.23733 v 18.6186 l 37.23733,37.2374 h -18.61866 v 37.2373 H 260.6575 v 37.2373 h 18.61867 l 18.61866,18.6151 h -18.61866 v 37.2374 -18.6187 h 18.61866 v 18.6187 h -18.61866 18.61866 v 18.6186 -37.2373 l 18.61866,-18.6187 v 18.6187 h 18.61867 v -18.6187 h 18.61866 v -18.6151 h 18.61867 v -18.6186 h 18.61866 v -18.6187 h 18.61866 v -18.6187 h 18.61867 v -18.6186 18.6186 h 18.61866 v 18.6187 h 37.23354 v 18.6187 H 521.315 v 18.6186 h 18.61867 v 18.6151 l 18.61866,-18.6151 v 18.6151 H 577.171 558.55233 l 18.61867,18.6187 h 37.23353 v -18.6187 l -18.61866,-18.6151 v 18.6151 -18.6151 H 577.1672 v -18.6186 18.6186 -18.6186 18.6186 l 18.61867,-18.6186 v 18.6186 h 18.61866 v -18.6186 18.6186 h -18.61866 18.61866 v 18.6151 -37.2337 h 18.61867 v -18.6187 h 18.61866 v -18.6187 h 37.23733 -18.61867 v -18.6186 18.6186 h -18.61866 v -37.2373 18.6187 -18.6187 h 37.23354 v 18.6187 h -18.61867 37.23733 -18.61866 37.23732 v -18.6187 h -18.61866 v -18.6187 h 18.61866 v -18.6186 h 18.61867 v 37.2373 l 18.61866,-18.6187 v -18.6186 h 18.61867 v -18.6187 h -18.61867 37.23354 v -18.6187 h -18.61867 18.61867 v -18.6146 h 18.61866 z m -353.75461,-55.856 h 37.23733 v 18.6186 h 18.61866 -18.61866 18.61866 -18.61866 v 18.6187 -18.6187 18.6187 l 18.61866,-18.6187 v 18.6187 -18.6187 18.6187 h -18.61866 18.61866 v 18.6187 -18.6187 55.8519 h -18.61866 18.61866 -18.61866 37.23732 v 18.6187 -18.6187 h 18.61867 l -18.61867,18.6187 v 18.6187 -18.6187 h -18.61866 v 18.6187 -37.2374 h -18.61866 v -18.6146 18.6146 -18.6146 18.6146 -18.6146 18.6146 h -18.61867 v -18.6146 h 18.61867 -18.61867 18.61867 v -18.6186 h -18.61867 v -18.6187 h 18.61867 v 18.6187 h 18.61866 -18.61866 v -18.6187 h -18.61867 v -18.6187 h 18.61867 -18.61867 v -18.6186 18.6186 H 465.45143 Z M 800.576,176.87343 v 18.6186 h 18.61867 v 74.4711 H 800.576 v -37.2373 h -18.61866 v 18.6187 -18.6187 18.6187 h -18.61866 v -37.2374 l 18.61866,-18.6151 H 800.576 Z"
     style="clip-rule:evenodd;fill:#000000;fill-rule:nonzero;stroke:none;stroke-width:38.792px"
     id="path1384" />
</svg>
