<?xml version="1.0" encoding="UTF-8" standalone="no"?>
<svg
   xmlns:dc="http://purl.org/dc/elements/1.1/"
   xmlns:cc="http://creativecommons.org/ns#"
   xmlns:rdf="http://www.w3.org/1999/02/22-rdf-syntax-ns#"
   xmlns:svg="http://www.w3.org/2000/svg"
   xmlns="http://www.w3.org/2000/svg"
   xmlns:sodipodi="http://sodipodi.sourceforge.net/DTD/sodipodi-0.dtd"
   xmlns:inkscape="http://www.inkscape.org/namespaces/inkscape"
   version="1.0"
   width="1024pt"
   height="1024pt"
   viewBox="0 0 1024 1024"
   preserveAspectRatio="xMidYMid meet"
   id="svg2211"
   sodipodi:docname="vector.svg"
   inkscape:version="1.0.2-2 (e86c870879, 2021-01-15)">
  <defs
     id="defs2215" />
  <sodipodi:namedview
     pagecolor="#ffffff"
     bordercolor="#666666"
     borderopacity="1"
     objecttolerance="10"
     gridtolerance="10"
     guidetolerance="10"
     inkscape:pageopacity="0"
     inkscape:pageshadow="2"
     inkscape:window-width="1366"
     inkscape:window-height="697"
     id="namedview2213"
     showgrid="false"
     inkscape:zoom="0.1940918"
     inkscape:cx="1266.7524"
     inkscape:cy="760.26375"
     inkscape:window-x="-8"
     inkscape:window-y="-8"
     inkscape:window-maximized="1"
     inkscape:current-layer="svg2211"
     fit-margin-top="0"
     fit-margin-left="0"
     fit-margin-right="0"
     fit-margin-bottom="0" />
  <metadata
     id="metadata2205">
Created by potrace 1.10, written by Peter Selinger 2001-2011
<rdf:RDF>
  <cc:Work
     rdf:about="">
    <dc:format>image/svg+xml</dc:format>
    <dc:type
       rdf:resource="http://purl.org/dc/dcmitype/StillImage" />
    <dc:title></dc:title>
  </cc:Work>
</rdf:RDF>
</metadata>
  <path
     d="m 912.81448,225.23441 -17.556,5.852 -5.852,5.85199 v 11.70399 l 5.852,5.85199 h 11.704 l 11.704,-5.85199 h 5.852 v 23.40797 l 5.852,11.7028 5.8519,11.70399 v 17.55598 l 5.852,11.7028 5.852,5.85199 5.8509,11.70399 -5.8509,11.70397 h -5.852 v 5.85199 l 5.852,23.40679 -11.704,17.55598 h 17.5549 l 5.852,5.85199 17.556,-5.85199 h 17.5547 l 5.85202,11.70399 v 5.85199 h 17.556 l 5.852,11.7028 -5.852,5.85199 v 17.55598 h -11.704 l -17.55602,-5.85199 h -5.8507 l -5.852,5.85199 -11.704,5.8508 -5.852,5.852 -5.852,11.70399 -5.8509,5.85199 -11.704,-5.85199 -5.8519,11.70398 5.8519,5.852 v 29.25878 h -5.8519 l -11.704,17.55598 -17.556,11.70399 -17.5547,17.55479 -29.26,5.85199 -17.5548,11.70399 -11.704,5.85199 -11.704,11.7028 -17.556,11.70399 -17.5548,5.85199 -17.556,11.70399 -5.852,11.70399 -5.8519,17.55479 11.7039,17.55598 h 5.852 v 11.70398 h -11.704 l -5.8519,-5.85199 -11.7028,-5.85199 -11.704,17.55479 -11.70283,11.70398 -23.40798,11.70399 -5.85199,17.57982 -5.85199,5.852 h -11.67896 l -11.70399,17.55598 -5.85199,5.85199 -11.7028,-11.70399 h -23.40798 l -17.55598,5.852 H 590.987 l -5.852,5.85199 -5.85199,-5.85199 h -17.55479 l -5.85199,5.85199 -5.852,11.7028 v 5.85199 l -11.70399,5.852 -23.40678,11.70398 -5.85199,-11.70398 h -5.852 l -17.55598,5.85199 -5.85199,5.85199 -23.40679,5.852 v 35.11077 l -11.70399,11.7028 h -17.55598 l -11.70279,5.85199 h -11.70399 l -11.7028,5.85199 -5.85199,5.852 v 11.70398 l -11.70399,11.70399 -5.85199,17.55479 -5.852,11.70399 -17.53213,5.85199 -29.25877,5.852 H 198.93918 l -5.852,-29.25878 17.55598,-35.11196 -5.85199,-17.55598 -17.55598,-23.40679 -5.852,-11.70399 v -11.70279 l -5.85199,-5.852 -17.55479,-5.85199 v -35.11077 l 11.7028,-5.852 V 746.07378 L 152.12442,734.36979 V 716.815 l -17.55599,-17.55598 -5.85199,-5.852 v -29.25878 l -11.7028,-17.55598 5.852,-5.85199 5.85199,-5.852 5.852,-11.70398 5.85199,-5.85081 V 599.7775 l -5.85199,-5.85199 -17.55599,11.70399 -5.85199,-11.70399 v -11.70399 l -5.85199,-17.55479 h 11.70398 l 5.852,-5.85199 -5.852,-17.55599 -5.85199,-11.70279 -5.85199,-5.852 -5.852,-11.70398 L 76.04969,500.29599 58.4949,488.592 v -29.25878 l -5.852,-23.40678 v -5.85199 l 5.852,-5.852 v -17.55598 l -11.70399,-5.85199 v -23.40679 l -5.852,-5.85199 -5.82815,-5.852 -17.55479,-5.85199 H -1.0258789e-5 v -5.85199 L 5.8519797,342.29694 H 11.70397 l 35.11077,-11.70399 v -5.852 l 11.70399,5.852 h 5.852 l 11.70398,-5.852 11.70399,-5.85199 17.55479,-5.85199 5.852,-17.55479 -5.852,-11.70399 L 99.4815,272.0742 87.7787,260.37021 h 5.852 l 5.85199,-5.85199 -5.85199,-11.7028 h -5.852 l -11.70399,-5.85199 v -11.70399 l 11.70399,-5.85199 17.55479,-11.70399 v -17.55479 l 5.852,-11.70399 11.70398,-5.85199 -5.85199,-17.55598 5.85199,-23.40679 5.852,-17.55598 5.85199,-5.85199 h 11.7028 l 11.70399,-5.85081 h 11.70279 l 17.55598,5.85081 5.852,17.55598 5.85199,17.55598 H 210.667 l 11.7028,-11.70399 5.85199,-11.70399 5.85199,-5.85199 V 96.51915 l 5.852,-5.85199 h 17.55598 v 5.85199 l 5.85199,11.7028 11.7028,17.55598 h 11.70399 V 108.22195 L 275.03655,96.51915 V 84.81516 h 23.40798 v 5.852 l 11.70398,35.11077 11.7028,17.55598 -0.0249,5.8508 h 11.70399 l 23.40678,-11.70279 17.55597,-5.852 h 11.70399 l 5.85199,5.852 5.85199,11.70279 11.70399,11.70399 v -17.55479 l 5.852,5.8508 5.85199,11.70399 5.85199,5.85199 h 11.7028 l 11.70399,11.70399 5.85199,17.55598 v 17.55479 l 17.55479,5.852 11.70399,5.85199 h 17.55598 l 5.85199,5.85199 v 11.70399 l 11.7028,17.55479 11.70399,-5.85199 v -23.40679 l 11.70399,-5.85199 h 11.70279 l 11.70399,5.85199 17.55479,-5.85199 11.70399,5.85199 5.85199,-5.85199 h 5.852 l 5.85199,-5.85199 5.85199,-11.70399 5.852,-5.8508 23.38295,-11.70399 5.85199,-11.70399 5.85199,-11.70399 11.70399,-5.85199 5.85199,-11.70399 v -17.55479 l 5.852,-17.55598 5.85199,-23.40678 v 11.70398 l 5.852,11.7028 5.85199,5.85199 v 5.852 l -5.85199,23.40678 5.85199,5.852 11.7028,-5.852 h 5.85199 l 5.85197,11.70399 -5.85197,5.85199 v 23.40798 l -11.7028,5.85199 v 11.7028 l 5.852,5.85199 11.70277,-5.85199 5.852,-5.8508 h 5.852 l 23.4079,-5.852 5.852,5.852 v 29.25877 l 5.852,11.70399 v 11.7028 l 11.704,-5.852 h 11.7028 l 5.852,-11.70279 5.852,-11.70399 17.5561,-11.70399 h 17.5547 l 11.7039,-5.85199 h 11.704 v -5.8508 l 11.704,-5.852 5.852,5.852 v 5.8508 l 5.852,17.55598 h 23.4067 z"
     style="clip-rule:evenodd;fill:#000000;fill-rule:nonzero;stroke:none;stroke-width:12.1926px"
     id="path1352" />
</svg>
