<?xml version="1.0" encoding="UTF-8" standalone="no"?>
<svg
   xmlns:dc="http://purl.org/dc/elements/1.1/"
   xmlns:cc="http://creativecommons.org/ns#"
   xmlns:rdf="http://www.w3.org/1999/02/22-rdf-syntax-ns#"
   xmlns:svg="http://www.w3.org/2000/svg"
   xmlns="http://www.w3.org/2000/svg"
   xmlns:sodipodi="http://sodipodi.sourceforge.net/DTD/sodipodi-0.dtd"
   xmlns:inkscape="http://www.inkscape.org/namespaces/inkscape"
   version="1.0"
   width="1024pt"
   height="1024pt"
   viewBox="0 0 1024 1024"
   preserveAspectRatio="xMidYMid meet"
   id="svg2211"
   sodipodi:docname="vector.svg"
   inkscape:version="1.0.2-2 (e86c870879, 2021-01-15)">
  <defs
     id="defs2215" />
  <sodipodi:namedview
     pagecolor="#ffffff"
     bordercolor="#666666"
     borderopacity="1"
     objecttolerance="10"
     gridtolerance="10"
     guidetolerance="10"
     inkscape:pageopacity="0"
     inkscape:pageshadow="2"
     inkscape:window-width="1366"
     inkscape:window-height="697"
     id="namedview2213"
     showgrid="false"
     inkscape:zoom="0.1940918"
     inkscape:cx="1266.7524"
     inkscape:cy="760.26375"
     inkscape:window-x="-8"
     inkscape:window-y="-8"
     inkscape:window-maximized="1"
     inkscape:current-layer="svg2211"
     fit-margin-top="0"
     fit-margin-left="0"
     fit-margin-right="0"
     fit-margin-bottom="0" />
  <metadata
     id="metadata2205">
Created by potrace 1.10, written by Peter Selinger 2001-2011
<rdf:RDF>
  <cc:Work
     rdf:about="">
    <dc:format>image/svg+xml</dc:format>
    <dc:type
       rdf:resource="http://purl.org/dc/dcmitype/StillImage" />
    <dc:title></dc:title>
  </cc:Work>
</rdf:RDF>
</metadata>
  <path
     d="m 659.56606,127.95721 v 9.03608 h 9.03608 l 12.04811,3.01203 h 18.07156 l 6.02348,9.03547 3.01203,9.03608 12.04811,12.0475 6.02341,6.02406 h 9.0361 l 9.0361,3.01203 9.036,3.01203 v 6.02405 l 3.0114,6.02406 9.0361,-3.01203 h 12.0475 l 3.0121,15.05953 3.012,9.03608 12.0481,18.08382 9.0361,15.05953 v 9.03609 l 6.0234,9.03608 6.0241,6.02406 9.036,3.01202 3.0115,12.0475 3.012,9.03609 3.0121,15.05952 3.012,12.04812 v 6.02344 l -6.0241,6.02406 v 6.02405 l 9.0361,12.04749 v 6.02406 l 3.012,6.02406 h 12.0475 l 6.0241,-3.01203 h 3.012 l 6.024,6.02405 v 9.03547 l -9.036,3.01203 h -3.0121 v 3.01203 l 6.0241,9.03608 3.012,6.02406 v 9.03547 l -3.012,3.01203 h -9.0361 l -3.012,3.01203 v 3.01203 l 9.0361,9.03547 18.0715,15.06014 h 18.0593 l 9.0361,-3.01203 3.012,3.01203 3.012,9.03608 6.0235,6.02344 h 12.0481 l 3.0121,6.02406 v 6.02406 l 3.012,9.03547 3.0114,3.01203 12.0481,3.01202 12.0475,6.02406 18.0722,6.02344 6.0234,6.02406 9.0361,3.01203 3.012,3.01202 6.02396,3.01203 h 9.0356 l 3.012,6.02406 3.012,6.02406 v 3.01141 l 3.012,6.02406 -3.012,3.01202 h -3.012 l -9.0361,3.01203 -6.0235,3.01203 -9.03606,6.02344 -6.024,3.01203 -3.0114,9.03609 -6.024,-3.01203 h -9.0361 l -12.0481,3.01203 -9.0356,9.03608 h -6.024 l -6.0234,-3.01203 -9.0361,3.01203 -18.0716,9.03547 h -12.0481 l -12.0475,-6.02344 -12.0481,-6.02406 -15.0595,-6.02405 -15.0602,-9.03609 -12.0474,-6.02406 -15.0602,-3.01141 -6.0235,3.01141 -9.0361,6.02406 h -6.024 v 6.02406 h -9.0354 l -9.0361,3.01203 -3.0121,-6.02406 -6.024,-3.01203 -6.0235,-6.02406 -6.024,-3.01141 -15.0595,-3.01203 -18.0593,-9.03608 v -6.02344 l -3.01201,-9.03609 -3.01203,-6.02406 -9.03608,-3.01202 -12.04754,-3.01203 -24.09561,-6.02406 -9.03608,-3.01141 H 653.542 v -15.06014 l 9.03609,-18.07156 6.02405,-12.0475 6.02406,-9.03608 3.01203,-3.01203 -3.01203,-3.01203 -9.03609,-6.02405 -3.01202,-3.01203 6.02405,-9.03547 -6.02405,-6.02406 -6.02406,-3.01203 v -9.03547 H 653.542 l -6.02344,9.03547 -12.04811,12.04812 -27.10642,24.09561 -18.07154,18.07155 -12.04812,21.08359 -9.0232,18.07155 -6.02405,9.03608 h 3.01202 v 3.01203 l 3.01203,6.02406 v 9.03547 l -3.01203,6.02406 v 15.05952 l 3.01203,3.01203 -3.01203,3.01203 -3.01202,3.01203 -21.08359,6.02405 -12.04811,3.01203 -3.01203,3.01203 v 6.02406 l 3.01203,6.02344 3.01203,6.02405 6.02405,3.01203 v 12.0475 h 6.02406 l 3.01203,3.01203 3.01203,-6.02406 3.01141,-3.01202 6.02406,-6.02345 h 12.04811 l 3.01141,6.02345 h 6.02406 v 9.03608 l -3.01203,6.02406 v 15.05952 l 3.01203,12.06038 3.01203,6.02406 3.01203,15.05952 9.03608,21.08358 v 12.04811 l -3.01203,6.02406 -3.01202,9.03608 -3.01203,6.02345 h -6.02406 v 6.02405 l -9.03547,3.01203 -3.01203,-6.02405 -6.02405,6.02405 -6.02406,3.01203 -6.02344,-3.01203 -6.02406,-6.02405 h -6.02406 v -3.01203 l -6.02405,-6.02345 v 21.08359 l -3.01203,6.02344 -9.03547,3.01203 -12.04811,3.01203 -3.01203,-3.01203 -3.01203,-3.01203 h -6.02344 l -3.01203,3.01203 v 6.02406 l 3.01203,3.01202 6.02344,3.01142 v 15.06014 l -3.01141,3.01203 h -9.03609 v -3.01203 h -6.02405 l -9.03609,3.01203 v 3.01202 l 3.01203,3.01203 3.01203,3.01203 -3.01142,9.03547 v 12.04811 l -3.01202,3.01142 -6.02345,9.03608 -9.03608,9.03609 -6.02406,3.01202 h -3.01203 l -6.02344,-3.01202 -12.04811,-6.02406 -6.02344,6.02406 v 6.02405 l 6.02344,3.01203 h 9.03608 l 9.03547,3.01142 v 6.02405 h -9.03547 l -12.04811,-3.01203 -6.02344,3.01203 -3.01203,6.02406 -3.01203,9.03547 v 9.03608 l 12.0475,6.02407 -3.01141,6.0234 -3.01203,6.02406 -9.03609,6.02405 h -9.0232 v -3.01203 h -6.02405 l -12.0475,9.03609 -3.01203,6.02405 3.01203,6.02349 -3.01203,6.02405 v -3.01202 h -9.03609 v 3.01202 l -6.02405,6.02406 h -15.05953 v 3.01203 h -12.04811 l -3.01203,-3.01203 v -3.01203 l -3.01141,-3.01203 v -6.02405 H 334.302 l -3.01203,-3.01146 -3.01203,-3.01203 -3.01203,-3.01202 3.01203,-6.02406 v -9.03608 l -6.02405,-6.02406 h -3.01142 v -6.0234 l -3.01203,-3.01204 h -3.01202 v -3.01203 l -3.01203,-3.01202 h -3.01203 l -6.02406,-3.01203 h -6.02405 l -3.01203,-6.02345 -3.01202,-3.01202 h -12.0475 l -6.02406,-3.01203 v -9.03609 l -6.02344,-6.02344 v -3.01203 l -3.01203,-3.01203 -3.01203,-3.01202 h -6.02405 l -3.01203,3.01202 v 3.01203 l -2.99915,3.01203 h 3.01142 l 3.01203,3.01142 v 9.03608 h -3.01203 v 3.01203 h -3.01142 v -3.01203 l -3.01202,-6.02406 v -3.01202 h -3.01203 v -3.01142 h -3.01203 v -3.01203 l -3.01203,-3.01203 h -6.02344 v 3.01203 l -3.01203,3.01203 -3.01203,3.01142 -3.01202,3.01202 h -3.01203 v -3.01202 l 3.01203,-6.02345 h 3.01202 v -3.01203 l 3.01203,-9.03608 -3.01203,-9.03608 -3.01202,-6.02345 -3.01203,-3.01202 -3.01203,-6.02406 v -6.02406 l -6.02344,-6.02344 3.01141,-9.03608 -3.01141,-9.03609 -3.01203,-3.01203 v -12.04749 h 3.01203 l 3.01141,-3.01203 -3.01141,-6.02406 -3.01203,-3.01203 h -6.02406 l -6.02405,3.01203 -6.02406,-3.01203 -6.02406,-3.01141 v -6.02406 l -3.01141,-9.03608 -3.01203,-3.01203 h -15.06014 l -6.02344,-3.01142 -3.01203,-3.01202 -6.02406,-6.02406 -3.01202,-9.03608 3.01202,-6.02406 v -9.03547 l 3.01203,-9.03608 3.01203,-3.01203 -3.01203,-6.02345 h -6.02405 l -6.02406,-6.02404 -6.02406,-3.01203 v -12.04811 h -12.0475 l -9.03608,-6.02406 v -6.02344 l 3.01203,-6.02406 -3.01203,-3.01203 -6.02344,3.01203 h -6.024055 l -6.02405,3.01203 h -6.02345 l -2.99976,-3.01203 -3.01202,-6.02406 v -18.07155 l -3.01203,-3.01203 -9.03547,-3.01203 -6.02406,3.01203 h -9.03608 l -6.02345,-6.02344 v -9.03609 l -6.02405,-21.08358 -3.01203,-12.04811 3.01203,-9.03547 v -3.01203 l -6.02406,-9.03608 -9.03608,-6.02406 -9.03547,-3.01203 L 3.0120447,504.47605 2.4741212e-5,498.4526 v -6.02405 L 3.0120447,489.41652 h 3.01203 v -33.13108 l 3.01203,-6.02406 3.0120303,-3.01203 6.02344,-3.01203 3.01203,-6.02344 v -15.06014 l 3.01203,-3.01141 6.02405,6.02344 12.04812,3.01203 h 3.01202 l 6.02345,-6.02406 9.03608,-9.03547 v -3.01203 l -12.04811,-6.02405 v -6.02406 l 6.02405,-18.07156 6.02406,-15.05952 3.01203,-15.05953 3.01203,-12.0481 3.01141,-6.02406 3.01203,-9.03608 3.01203,-15.05953 h 3.01203 l 21.08358,-12.0475 v -3.01203 l -3.01142,-6.02405 v -9.03609 h 54.215895 l 3.01202,9.03609 3.01203,3.01202 h 15.05953 l 6.02406,-6.02405 3.01141,-3.01203 h 6.02406 l 6.02405,3.01203 6.02406,-6.02406 h 36.13207 l 3.01202,-39.16863 9.03609,-15.05953 3.01141,-12.0475 3.01203,-12.04811 6.02406,-12.04811 3.01203,-3.01142 3.01202,3.01142 21.08359,15.06014 48.19121,9.03608 9.03609,-18.07155 6.02405,-9.03609 3.01142,-9.03608 15.06014,-3.01203 9.03608,-3.01203 6.02344,6.02406 v 9.03608 l 15.04726,-3.01203 h 33.1317 l 6.02344,-3.01202 9.03608,-6.02406 3.01203,-3.01203 15.05953,6.02406 15.06014,3.01203 12.0475,3.01202 h 18.07155 l 9.03609,-6.02405 12.04811,-9.03609 9.03547,-9.03547 9.03609,-15.05952 9.03547,3.01202 12.03523,9.03547 3.01202,-3.01202 54.2165,-12.0475 v -15.06014 l -3.01203,-9.03547 3.01203,-3.01203 6.02406,-6.02406 9.03547,3.01203 6.02405,3.01203 h 9.03548 l 3.01202,6.02344 3.01203,6.02406 -3.01203,3.01203 z"
     style="clip-rule:evenodd;fill:#000000;fill-rule:nonzero;stroke:none;stroke-width:6.27557px"
     id="path1370" />
</svg>
