<?xml version="1.0" encoding="UTF-8" standalone="no"?>
<svg
   xmlns:dc="http://purl.org/dc/elements/1.1/"
   xmlns:cc="http://creativecommons.org/ns#"
   xmlns:rdf="http://www.w3.org/1999/02/22-rdf-syntax-ns#"
   xmlns:svg="http://www.w3.org/2000/svg"
   xmlns="http://www.w3.org/2000/svg"
   xmlns:sodipodi="http://sodipodi.sourceforge.net/DTD/sodipodi-0.dtd"
   xmlns:inkscape="http://www.inkscape.org/namespaces/inkscape"
   version="1.0"
   width="1024pt"
   height="1024pt"
   viewBox="0 0 1024 1024"
   preserveAspectRatio="xMidYMid meet"
   id="svg2211"
   sodipodi:docname="vector.svg"
   inkscape:version="1.0.2-2 (e86c870879, 2021-01-15)">
  <defs
     id="defs2215" />
  <sodipodi:namedview
     pagecolor="#ffffff"
     bordercolor="#666666"
     borderopacity="1"
     objecttolerance="10"
     gridtolerance="10"
     guidetolerance="10"
     inkscape:pageopacity="0"
     inkscape:pageshadow="2"
     inkscape:window-width="1366"
     inkscape:window-height="697"
     id="namedview2213"
     showgrid="false"
     inkscape:zoom="0.1940918"
     inkscape:cx="1266.7524"
     inkscape:cy="760.26375"
     inkscape:window-x="-8"
     inkscape:window-y="-8"
     inkscape:window-maximized="1"
     inkscape:current-layer="svg2211"
     fit-margin-top="0"
     fit-margin-left="0"
     fit-margin-right="0"
     fit-margin-bottom="0" />
  <metadata
     id="metadata2205">
Created by potrace 1.10, written by Peter Selinger 2001-2011
<rdf:RDF>
  <cc:Work
     rdf:about="">
    <dc:format>image/svg+xml</dc:format>
    <dc:type
       rdf:resource="http://purl.org/dc/dcmitype/StillImage" />
    <dc:title></dc:title>
  </cc:Work>
</rdf:RDF>
</metadata>
  <path
     d="m 24.732795,328.54395 v -2.25077 z M 155.25585,315.03979 v -2.25077 z m 0,0 h 2.2508 z m 270.0579,249.83079 v 2.2508 h 2.2508 -2.2508 v -2.2508 h -2.2507 z m 38.2617,-2.2508 -4.5015,-4e-4 -2.2508,2.2512 h -2.2508 v 2.2508 -2.2508 2.2508 -2.2508 h -2.2507 2.2507 v -2.2508 l 9.0031,-4e-4 z m -164.2924,-162.0517 2.2508,2.2508 h -2.2508 2.2508 -2.2508 v 2.2508 h 2.2508 -2.2508 2.2508 -2.2508 v 2.2507 -2.2507 h -2.2508 v -2.2508 h 2.2508 v -2.2508 h 2.2508 z m 182.2981,166.5519 h 2.2508 z m 11.2539,2.2507 h 2.2507 z M 247.53095,328.53615 h 2.2508 z m 263.3152,236.32713 h 2.2508 z m 9.0031,-4.5016 h -2.2508 z m -36.0114,-31.5094 h 2.2508 z m 31.5095,18.0057 h 2.2507 z M 256.53955,290.285 v 4.50108 l -2.2508,-2.25077 h 2.2508 -2.2508 2.2508 z m 258.8078,252.08428 v -2.2507 h -2.2508 2.2508 z m 0,-11.2534 h -2.2508 z m 18.0056,13.5042 h 2.2508 z m 6.7523,2.2508 h -2.2507 v 4.5015 h -2.2508 v 2.2508 h -6.7523 v -2.2508 h -2.2508 2.2508 v -4.5015 h 11.2538 v -2.2508 z M 261.03195,276.79414 h 2.2507 z m 2.2507,0 v -2.25077 z m 0,2.25076 v -2.25076 h 2.2508 v 2.25076 z m 153.029,155.29988 v -2.2508 h 2.2507 v 2.2508 z m -150.78,-155.29988 h 4.5015 v 4.50108 h -2.2508 2.2508 l -2.2508,2.25077 v 2.25077 h -2.2507 v -6.75185 h -2.2508 2.2508 v -2.25077 h -2.2508 2.2508 v -2.25076 z m 258.805,249.83078 h -2.2508 2.2508 v -2.2507 z m 4.5015,0 v 6.7518 h -2.2508 v 2.2508 h -4.5015 v 2.2508 -2.2508 h -2.2508 v -4.501 h 2.2508 v -2.2508 h 4.5015 z M 265.54175,270.02625 h 2.2507 v 2.25077 h -2.2507 v 2.25077 -6.75185 z m -4.5016,-6.75185 v -2.25077 2.25077 -2.25077 h 2.2508 v 2.25077 z m 6.7523,2.25077 v 2.25077 h -2.2507 v -2.25077 z m -2.2507,-6.75231 v 2.25077 h 2.2507 v 2.25077 h -2.2507 z m 186.7904,186.80972 v 2.2508 h -2.2507 v -2.2508 2.2508 -2.2508 z m 29.2595,24.7575 h -2.2507 z m -36.0113,-36.0114 v 2.2508 h 2.2507 v 2.2508 h 2.2504 v 2.2507 h 2.2507 -2.2507 v 2.2508 h -2.2504 v -2.2508 h -4.5015 l -2.2508,-2.2507 v -2.2508 h -4.5015 v -2.2508 h -4.5011 v -2.2507 h -2.2507 v -2.2508 2.2508 -2.2508 h -2.2508 v 2.2508 h -4.5015 v -2.2508 h -2.2508 v 2.2508 h -2.2508 v -2.2508 h 11.2539 v -2.2508 2.2508 h 2.2507 v -2.2508 2.2508 h 9.0026 v 2.2508 h 2.2508 z m 216.0422,177.8154 v -2.2508 z m 2.2508,0 h 2.2507 z M 171.00985,123.73176 v -2.25077 h 2.2508 v 2.25077 z m 504.1311,490.66762 v -2.2507 z M 400.57505,357.82595 h -2.2508 z m 0,0 h 2.2507 z m -13.5042,-13.50416 v -2.25077 2.25077 h 2.2508 z m 285.8156,252.08479 h 2.2508 z M 382.56335,333.07161 v 2.25077 -2.25077 h -2.2508 2.2508 -2.2508 z m 0,2.25077 h 2.2508 v 4.50154 h 2.2507 v 2.25077 -2.25077 h -2.2507 v -2.25077 h -2.2508 z m -6.7523,-13.50415 h -2.2503 2.2503 v 2.25077 -2.25077 h -2.2503 v 2.25077 -4.50108 2.25076 z m 0,0 h 2.2508 z m 317.3309,279.09255 v -2.2507 z M 416.32265,346.5721 h 2.2507 z m -40.5134,-42.76324 v 4.50108 h -2.2508 2.2508 v 2.25077 h -2.2508 v -2.25077 2.25077 h 2.2508 -2.2508 v 9.00308 h -2.2503 2.2503 -2.2503 v -9.00308 h 2.2503 v -4.50108 h 2.2508 z m 204.8117,189.05732 v 4.501 h 2.2508 v 4.5016 h -2.2508 v -4.5016 h -2.2508 v -4.501 z M 380.31675,299.30091 v 2.25077 z m 54.0175,49.51554 v -2.25077 z m 195.7963,175.55593 h 2.2508 v 4.5015 -2.2508 h -2.2508 z M 434.33425,348.81645 h 2.2508 z m 193.5616,168.80403 h -2.2508 z m 4.5015,2.2507 h 2.2508 v 13.5042 h -2.2508 2.2508 v -4.5015 h -2.2508 v -6.7519 h -2.2507 2.2507 -2.2507 v -4.5015 h -2.2508 4.5015 z m -15.7554,-15.7549 v 4.5011 -2.2508 h -2.2503 v -2.2507 h -2.2508 2.2508 v -2.2508 2.2508 z M 450.09975,351.06814 h 2.2508 z m 159.7904,139.54404 -2.2503,2.2507 h 2.2503 -4.5011 v -2.2507 h 2.2508 v -2.2508 2.2508 l 2.2503,-2.2508 z M 459.10195,346.56614 h -2.2508 z m 0,2.25077 h 2.2507 z m 0,-2.25077 v 2.25077 h -2.2508 2.2508 v -2.25077 h -2.2508 4.5015 v -2.25077 2.25077 z m 9.0025,-2.25077 v 2.25077 z m 0,-4.50153 h 2.2508 z m 380.3424,310.60794 v -2.2507 z m 2.2508,0 v -2.2507 z m -60.7694,-45.0135 v 2.2508 h -2.2503 2.2503 -2.2503 v -2.2508 z m 220.55025,123.7886 v 2.2508 z M 789.92825,567.14468 v 4.5016 h 2.2508 v 4.5011 h 2.2507 v 4.5015 h 2.2508 v 6.7518 h 2.2508 -2.2508 2.2508 v 9.0031 h -4.5016 v 6.7523 h -2.2507 v 6.7519 h -2.2508 v -4.5011 h 2.2508 v -2.2508 h -2.2508 2.2508 -2.2508 v 2.2508 -4.5016 h 2.2508 v -2.2507 h 2.2507 v -13.5046 h -2.2507 v -4.5011 h -2.2508 v -2.2508 h -2.2503 v -2.2507 h 2.2503 v -2.2508 h -2.2503 2.2503 -2.2503 2.2503 -2.2503 v -6.7523 h 2.2503 -2.2503 z m 63.0193,38.2618 v 2.2507 h -2.2508 v -2.2507 z m -60.769,-56.2674 v 2.2507 h -4.5015 v -2.2507 h 2.2508 v -2.2508 2.2508 z m -319.5656,-279.0922 h 2.2508 v 2.25076 h 2.2507 v 20.25555 h 2.2508 v 2.25076 h -2.2508 2.2508 -2.2508 2.2508 v 4.50154 h -2.2508 2.2508 -2.2508 v 2.25077 h 2.2508 -2.2508 2.2508 -2.2508 2.2508 v 2.25077 h -2.2508 v 2.25077 h 2.2508 v 9.00262 -2.25077 h -2.2508 v 2.25077 h 2.2508 -2.2508 v 2.25077 h 2.2508 -2.2508 v 4.50154 h -2.2507 v 2.25076 h 2.2507 -2.2507 v 2.25077 l -2.2508,2.25077 h -2.2508 v 4.50108 h 4.5016 v -2.25077 h 2.2507 -2.2507 l 2.2507,-2.25077 v -4.50108 h 2.2508 v -6.7523 2.25077 h 2.2503 v 4.50153 h -2.2503 2.2503 -2.2503 2.2503 -2.2503 2.2503 l -2.2503,2.25077 v 6.75185 h -2.2508 2.2508 -2.2508 v 4.50154 h -2.2507 2.2507 v 2.25077 h -2.2507 v 2.25077 h -2.2508 v 2.25077 h -6.7523 v 2.25077 -2.25077 2.25077 -2.25077 h -2.2504 4.5012 -2.2508 v -2.25077 h 2.2508 v 2.25077 -2.25077 h 2.2507 v -4.50154 2.25077 h 2.2508 v -2.25077 h -6.7523 v -2.25077 2.25077 -2.25077 h -2.2504 v 2.25077 h -13.5046 v 2.25077 -2.25077 h -2.2507 v 4.50154 h -6.7519 v 2.25077 -2.25077 2.25077 l -2.2507,-2.25077 v 2.25077 -2.25077 2.25077 h -6.7523 v 2.25077 h -2.2508 v 2.25077 -2.25077 h -13.5042 v -2.25077 2.25077 -2.25077 h -6.7523 v -2.25077 2.25077 -2.25077 h -9.0026 v -2.25077 2.25077 -2.25077 h -2.2508 v -2.25077 h -6.7523 v -2.25077 h -4.5011 v -2.25077 2.25077 -2.25077 h -4.5015 v -4.50154 h -2.2508 v 2.25077 h -2.2507 v -4.50108 h -2.2508 2.2508 v -2.25077 h -2.2508 2.2508 v -4.50153 h 2.2507 -2.2507 2.2507 v -2.25077 h -2.2507 2.2507 v -2.25077 h -2.2507 2.2507 -2.2507 2.2507 -2.2507 2.2507 v -2.25077 h -2.2507 2.2507 v -2.25077 h -2.2507 2.2507 v -9.00262 2.25077 h 2.2508 v -4.50154 h -2.2508 2.2508 v -2.25077 h 2.2508 v -4.50153 h 2.2507 v -2.25077 h 2.2504 l 4.5015,-4.50108 h 2.2508 v -2.25077 h 2.2507 v -2.25077 h 2.2508 v -2.25077 h 2.2508 v -2.25076 h 4.501 v -2.25077 h 2.2508 v -2.25077 h 4.5015 v -2.25077 2.25077 -2.25077 h 2.2508 v -2.25077 h 4.5015 v -2.25077 h 4.5016 v -2.25077 h 6.7519 v -2.25077 h 29.2595 v 2.25077 h 4.5015 v 2.25077 h 2.2508 l 2.2508,2.25077 h 2.2507 z m 29.2595,4.50108 v -2.25077 z m 488.3756,382.63442 v -2.2508 z m -15.7549,-22.5077 h -2.2508 z m -22.5077,-15.7549 h 2.2508 z m -94.5309,-74.2731 h -2.2508 v -2.2508 h 2.2508 z m 63.0192,40.5133 h 2.2508 z m -67.5212,-49.515 h -2.2508 v -2.2508 h 2.2508 v 2.2508 -2.2508 z m -4.5011,-2.2508 v -2.2508 h 2.2503 v 2.2508 -2.2508 2.2508 z m 9.0026,2.2508 h -2.2508 2.2508 -2.2508 v -2.2508 2.2508 -2.2508 2.2508 z m 36.0114,27.0074 h 2.2508 z m 33.7615,20.256 v 2.2507 -2.2507 2.2507 z m 83.27725,146.2963 h -2.2508 v 2.2508 h 2.2508 v 4.5011 -2.2504 2.2504 h -4.5016 v 4.5015 h -2.2508 v 2.2508 h -2.2507 2.2507 -2.2507 v 9.0026 l -4.50115,2.2507 h -9.0031 l -2.2508,4.5016 v 6.7523 l -4.5015,2.2507 v 2.2508 l 4.5015,4.5011 2.2508,-2.2503 2.2508,2.2503 2.2507,6.7523 2.2508,9.0026 h 4.5015 l 4.50115,2.2508 2.2508,6.7523 -2.2508,4.5015 4.5016,9.0027 -6.7523,4.5015 v 11.2534 l -2.25045,6.7523 -4.5015,4.5107 -4.5015,2.2508 -9.0031,2.2507 h -9.0026 l -4.5015,-2.2507 -2.2508,-4.5016 v -4.501 h -6.7519 l -2.2508,-2.2508 -4.5015,-2.2508 h -9.0026 l -4.5015,2.2508 h -2.2508 v 9.0026 l -6.7523,6.7523 h -2.2508 l -4.5011,-2.2508 -4.5015,4.5016 h -4.5016 l -6.7518,-2.2508 h -2.2507 l -4.5016,2.2508 h -9.0031 l -2.2507,4.5011 v 2.2507 l -2.2504,4.5016 -2.2507,2.2508 -4.5016,2.2507 -4.5015,2.2508 h -6.7518 l -2.2508,2.2508 -2.2508,2.2507 -2.2507,4.5011 -2.2508,-6.7518 -2.2508,-4.5016 -9.0026,-2.2507 -4.5016,2.2507 -4.5015,2.2508 h -9.0026 l -2.2416,2.2508 -4.5011,4.5015 -9.0031,4.5011 -4.5015,4.5015 -2.2508,4.5015 -4.501,6.7519 -4.5016,-2.2508 -6.7523,2.2508 h -13.5042 l -4.5015,2.2508 h -40.5134 l -4.5015,2.2507 -4.5015,2.2508 -2.2508,2.2508 -2.2504,-2.2508 -4.5014,-4.5015 h -2.2508 l -4.5015,2.2507 -2.2412,-2.2507 -2.2508,-2.2508 -2.2507,-2.2508 -4.5016,-2.2507 -11.2533,-6.7519 -29.2596,-20.256 -51.7654,-36.0114 -9.0031,-6.7523 -20.2464,-13.5041 -51.7653,-38.2618 -40.5135,-31.5093 -51.7576,-45.0136 -18.0056,-18.0057 -15.755,-18.0062 -2.2507,-2.2507 -22.5077,-20.2555 -27.0079,-29.2596 h -13.4945 l -4.5015,-2.2508 -4.5016,2.2508 -4.5015,-2.2508 h -6.7519 l -4.5015,-2.2508 -4.5016,2.2508 -4.5015,4.5016 -2.2503,6.7518 -18.0057,-4.5011 -31.5098,-4.5015 -76.5156,-13.5041 -36.0114,-6.7523 -2.2508,-4.5016 -4.5015,-6.7519 -6.75189,-6.7614 -4.50154,-6.7523 -9.00262,-9.0026 -4.50153,2.2507 -8.993445,-2.2507 h -9.00308 l -6.75185,2.2507 h -4.50154 l -2.25077,9.0026 -2.25077,4.5016 h -2.25076 l -2.25077,-4.5016 -6.75185,-6.7518 -2.25077,-2.2508 -4.50154,-4.5015 -2.25077,-2.2508 -4.50154,-2.2507 -2.25077,-6.7523 v -42.7633 l -13.50415,-6.7523 -2.25077,-4.5011 v -15.7549 l -4.50108,-2.2508 h -4.50154 l -2.25077,-4.5015 -2.25077,-9.0031 2.25077,-6.7518 -2.25077,-11.2534 -4.5010803,-9.0031 -2.25077,-4.5011 -2.25077,-6.7523 -2.25077,-4.5015 v -4.5011 l 2.25077,-4.5016 v -4.50103 l 2.25077,-4.50154 -2.25077,-2.25077 -2.25077,-6.75231 L 1.4741208e-5,378.09616 H 2.2507747 v -2.25077 h 6.75231 v -2.25076 h 4.5010803 v 2.25076 h 2.25077 v -2.25076 2.25076 -2.25076 h 4.50154 v -2.25077 h 2.25077 v -2.25077 h 4.50108 v -2.25077 h 4.50154 v -2.25077 h 2.25077 v 2.25077 -2.25077 2.25077 h 2.25076 v 2.25077 h 2.25077 v -2.25077 h -2.25077 v -4.50108 h 2.25077 v -4.50154 h 2.25077 v -4.50108 h 2.25031 v -2.25077 h 2.25077 v -2.25077 2.25077 -2.25077 l 2.25077,2.25077 h 9.00308 v -4.50154 h 2.25077 v -2.25077 h 4.50154 -2.25077 v 2.25077 h 2.25077 v -4.50108 h 2.25031 v -2.25077 h -2.25031 2.25031 v -4.50153 h 2.25077 v -6.75231 h 2.25076 v -2.25077 h -2.25076 2.25076 v -2.25077 h 2.25077 v -2.25077 h 2.25077 v 2.25077 h 2.25077 -2.25077 v -2.25077 h -2.25077 v -6.75185 h 2.25077 -2.25077 2.25077 v -11.25384 h -2.25077 v -4.50108 h -4.50153 2.25076 -2.25076 v -6.75231 h 2.25076 v -4.50154 h 2.25077 v -2.25077 h 4.50154 v -2.25077 h 2.25077 v -2.25077 h 4.50108 v -2.25077 h 4.50154 v -2.25076 2.25076 -2.25076 h 4.50154 v -2.25077 l 2.25077,-0.009 h 2.25077 v -2.25076 h 4.501525 v -2.25077 h 6.75185 v -2.25077 h 6.75231 v -2.25077 h 4.50108 l 2.25077,-2.25077 h 2.25077 v -2.25077 h 4.50155 v 2.25077 h 2.2508 -4.5016 v 2.25077 h 2.2508 v -2.25077 2.25077 -2.25077 h 4.5011 v 2.25077 h -2.2503 2.2503 v -2.25077 h -2.2503 2.2503 -2.2503 2.2503 v -2.25077 h -4.5011 v -2.25077 h 6.7518 v -2.25077 h 2.2508 v -2.25077 h 4.5015 v -2.25077 h 2.2508 v -4.50154 h 2.2508 v -2.25076 h 4.5015 v -2.25077 h 2.2508 v 4.50153 h 6.7518 v 2.25077 h 2.2508 -2.2508 v -6.7523 h -6.7518 2.2508 v -2.25077 h 4.501 v -2.25077 h 2.2508 v -2.25077 2.25077 -2.25077 h 2.2508 v -2.25077 h 2.2507 v 2.25077 h 2.2508 v 2.25077 -2.25077 2.25077 h 2.2503 v -2.25077 2.25077 -2.25077 h 2.2508 v 2.25077 h 2.2508 v -2.25077 h -6.7519 2.2503 -2.2503 v -4.50108 2.25077 -2.25077 h 2.2503 v 2.25077 h 4.5016 -2.2508 v -2.25077 2.25077 -2.25077 h -4.5011 l 2.2503,-2.25077 v 2.25077 -2.25077 h 4.5016 v -2.25077 h 2.2507 v -2.25077 h 4.5016 v -2.25077 h 2.2507 v -2.25077 h 4.5016 v -2.25077 h 2.2507 v -2.25076 h 2.2504 v -2.25077 h 2.2507 v -2.25077 h 2.2508 v -6.75231 h 2.2508 -2.2508 2.2508 -2.2508 2.2508 v -24.75754 h 2.2507 v -4.50154 h -2.2507 2.2507 v -18.0057 h 2.2508 v -9.00261 h 2.2508 -2.2508 2.2508 v -2.25077 h 4.4919 v 2.25077 h 2.2507 v 6.75167 h 2.2504 -2.2504 2.2504 v 4.50154 h -2.2504 2.2504 -2.2504 v 2.25077 h 2.2504 -2.2504 2.2504 v 20.25555 h 2.2507 -2.2507 2.2507 v 4.50154 h 2.2508 v 2.25077 h 2.2508 v 2.25077 h 2.2507 v 2.25076 h 2.2508 v 2.25077 h 2.2508 v 2.25077 h 2.2507 v 2.25077 -2.25077 2.25077 h 2.2508 v 2.25077 h 2.2508 -2.2508 2.2508 v 2.25077 h 2.2503 v 2.25077 h 2.2508 v 2.25077 h 2.2507 -2.2507 2.2507 v 2.25077 h 2.2508 v 4.50108 h 2.2508 v 2.25077 h 2.2507 -2.2507 2.2507 v 2.25077 -2.25077 2.25077 h 2.2508 v 4.50153 h 2.2503 v 2.25077 h 2.2508 v 4.50154 h 2.2508 -2.2508 2.2508 v 4.50108 h 2.2507 v 6.75231 h 2.2508 v 9.00262 h 2.2508 -2.2508 2.2508 v 6.7523 -2.25077 h -2.2508 2.2508 v -2.25076 h -2.2508 v 4.50153 h -2.2508 v 9.00308 h -2.2507 v 4.50154 h -2.2508 v 2.25077 -2.25077 h -2.2508 v -2.25077 2.25077 h -2.2503 2.2503 -2.2503 v 2.25077 h 2.2503 v -2.25077 2.25077 h 2.2508 v 6.75184 h -2.2508 v 6.75231 h -2.2503 v 11.25339 l 2.2503,-2.25077 h -2.2503 2.2503 v 4.50153 h -2.2503 v 11.25339 h -2.2508 v -2.25077 h -2.2507 v -2.25077 h -2.2508 2.2508 -2.2508 v 2.25077 h 4.5015 v 2.25077 h -4.5015 v 2.25077 h -2.2508 v 2.25077 h -2.2507 l 2.2507,2.25077 h -2.2507 v 2.25077 h -2.2508 v 2.25077 h 2.2508 -2.2508 v 4.50154 h -2.2503 v 2.25076 h -2.2508 v 6.75185 h -2.2508 v 2.25077 h -2.2507 v 2.25077 h -2.2508 v 2.25077 h -2.2508 v -2.25077 h -2.2507 v -2.25077 h -2.2508 v -2.25077 h -2.2508 v -4.50108 h -2.2507 v -4.50153 2.25076 -2.25076 h -2.2504 v 2.25076 -2.25076 h -2.2507 v -2.25077 h -4.5016 v -2.25077 h -4.5015 v -2.25077 h -2.2508 V 319.567 h -6.7518 v -2.25077 h -2.2508 v -2.25077 h -2.2508 v -2.25077 h -2.2507 v -2.25077 h -2.2503 v -2.25077 h -2.2508 v -2.25077 h -6.7523 v -2.25077 h -9.0031 v 2.25077 h 2.2508 -2.2508 v 2.25077 l -2.2508,2.25077 h -2.2503 v 2.25077 h -4.5015 v 2.25077 -2.25077 h -2.2508 v -2.25077 h -20.256 v 2.25077 h -4.5011 l -2.2507,2.25077 h -2.2508 v 2.25077 h -2.25076 v 2.25077 h -2.25077 v 2.25077 h -2.25077 v 27.00785 h 2.25077 v 4.50108 -2.25077 4.50154 h 2.25077 v 9.00308 h -2.25077 v 2.25077 h -2.25077 v 2.25077 h -2.25077 v 2.25076 h -2.25031 v 6.75185 h -2.25077 2.25077 -2.25077 v 2.25077 h -2.25077 v 4.50154 h -2.25077 2.25077 -2.25077 v 4.50108 h -2.25077 v 4.50154 h -2.25077 v 9.00305 h 2.25077 v 4.5011 h -2.25077 v 2.2508 h 2.25077 v 2.2507 h 2.25077 v 2.2508 h 2.25077 v 2.2508 h 2.25077 v 2.2508 h 6.75185 v 2.2507 h 4.50154 v 2.2508 h 2.25076 v 6.7523 h -2.25076 v -2.2508 h -2.25077 v 2.2508 h 2.25077 -2.25077 2.25077 v 2.2508 l 2.25076,2.2507 v -2.2507 2.2507 h 2.2508 v 2.2508 h 4.5011 v 2.2508 h 2.2507 v 2.2507 h 4.5016 v 2.2508 h 2.2507 v 2.2508 h 6.7519 v 2.2507 h 4.5015 v 2.2508 h 6.7523 v 2.2508 h 2.2508 v 4.5011 h 2.2508 -2.2508 2.2508 -2.2508 2.2508 -2.2508 v 2.2507 h 2.2508 v 2.2508 h -2.2508 v 2.2508 -2.2508 2.2508 h 2.2508 v -4.5011 h 2.2507 v -2.2508 h 11.2534 v -2.2508 h 4.5016 v -2.2507 h 4.501 v -2.2508 h 2.2508 v -2.2508 h 2.2508 v -2.2507 h 2.2507 v -2.2508 h 2.2508 v -4.5015 h 2.2508 v -2.2508 h -2.2508 2.2508 v -2.2508 h 2.2507 v 2.2508 h 4.5016 v -2.2508 h 2.2508 v -2.2507 h 2.2503 -2.2503 2.2503 v -4.5016 h 4.5015 v -2.2507 h 11.2534 v -2.2508 h 4.5015 v -2.2508 h 2.2508 v -2.2507 h 2.2508 v -6.7519 h 2.2507 v -2.2508 h 2.2503 v -2.2507 l 2.2508,-2.2508 h 9.0031 v 2.2508 -2.2508 h 2.2508 v 6.7518 -2.2507 h 2.2507 v 2.2507 h 4.5016 v 2.2508 -2.2508 2.2508 h 2.2507 v -2.2508 2.2508 h 4.5011 v 2.2508 -2.2508 2.2508 h 2.2508 -2.2508 2.2508 -2.2508 v 2.2508 h 2.2508 -2.2508 l 2.2508,2.2507 h -2.2508 2.2508 v 2.2508 h 13.5041 v 2.2508 h -2.2507 2.2507 -2.2507 v 2.2507 h 2.2507 v 2.2508 h 4.5016 -2.2508 2.2508 v 11.2534 h 2.2507 -2.2507 v -2.2508 2.2508 -2.2508 h -2.2508 v 4.5016 h 2.2508 v 2.2507 h -2.2508 2.2508 v -2.2507 h 2.2507 -2.2507 2.2507 -2.2507 v -2.2508 2.2508 h -2.2508 v -2.2508 h 4.5015 v -15.7549 h -2.2507 v 2.2507 -2.2507 h -2.2508 v -2.2508 h 6.7523 v -2.2508 h 2.2508 v -2.2507 h 2.2507 v -2.2508 h 2.2508 v -4.5016 h 2.2504 -2.2504 2.2504 v -2.2507 6.7523 h 2.2507 v 4.5011 h 2.2508 v 2.2507 -2.2507 l 2.2508,2.2507 h 2.2507 v 2.2508 -2.2508 2.2508 h 6.7519 v 2.2508 h 11.2538 v 2.2507 h 13.4854 v 2.2508 -2.2508 2.2508 h 36.021 v 2.2508 -2.2508 h 2.2508 v 2.2508 -2.2508 2.2508 l 2.2507,-2.2508 v 2.2508 -2.2508 2.2508 h 2.2508 v -2.2508 2.2508 h 2.2508 v -2.2508 2.2508 h 2.2508 v -2.2508 2.2508 h 2.2507 v -2.2508 2.2508 -2.2508 l 2.2508,2.2508 v -2.2508 h 2.2508 v 2.2508 -2.2508 2.2508 -2.2508 2.2508 -2.2508 h 2.2507 v 2.2508 -2.2508 h 20.2555 v 4.5015 h 2.2508 v 2.2508 h 4.5016 v 2.2508 -2.2508 2.2508 h 2.2507 v 2.2508 h 2.2504 v -2.2508 h 2.2507 v 2.2508 -2.2508 2.2508 h 4.5016 v 2.2507 h 9.0026 v 2.2508 -2.2508 h 2.2507 v 2.2508 h 2.2508 v 2.2508 h 4.5015 v -4.5016 h 2.2416 -2.2507 2.2507 v -2.2507 l 2.2508,2.2507 h 2.2503 v 2.2508 h 2.2508 -2.2508 v 2.2508 h 2.2508 v -2.2508 2.2508 l 2.2508,-2.2508 v 2.2508 h 4.5015 v 2.2507 h 4.5011 v 2.2508 -2.2508 h 2.2507 v 2.2508 h 9.0031 v 2.2508 -2.2508 2.2508 h 2.2508 v 2.2507 h -9.0031 v -2.2507 2.2507 -2.2507 h -4.5015 v 4.5015 h -2.2503 6.7518 v -2.2508 4.5011 l 2.2508,2.2508 h -2.2508 2.2508 -2.2508 v 2.2507 h 2.2508 v 2.2508 h -2.2508 v 2.2508 h -2.2508 v 2.2507 h -2.2507 v -2.2507 h -4.5011 v 2.2507 h -4.5015 v 9.0031 h 2.2508 v 2.2508 -2.2508 h 2.2507 v 2.2508 h 2.2508 v 2.2508 h 2.2503 v -2.2508 h 2.2507 v 2.2508 -2.2508 2.2508 -2.2508 h 2.2508 v 2.2508 -2.2508 h 15.7554 v -2.2508 h 2.2508 v -2.2507 h 2.2503 -2.2503 2.2503 v -2.2508 h -2.2503 2.2503 -2.2503 2.2503 -2.2503 v -9.0031 h 2.2503 -2.2503 2.2503 v -4.501 h -2.2503 v -2.2508 h 4.5011 v -2.2508 h 2.2507 v 2.2508 h 2.2508 v 2.2508 h 2.2508 v -4.5016 h -6.7523 v -2.2508 2.2508 h -4.5011 v -2.2508 h -2.2508 v 2.2508 -2.2508 h -2.2508 v -2.2507 h 29.2596 v 2.2507 h 2.2508 v -2.2507 2.2507 -2.2507 2.2507 h 15.7549 l -2.2508,2.2508 v 2.2508 h -9.0031 v 4.5015 h -2.2503 v -2.2507 h -6.7523 v 6.7518 h 2.2508 v 6.7523 h -2.2508 v 4.5015 h 6.7523 v -2.2507 2.2507 -2.2507 h 2.2503 v -2.2508 2.2508 -2.2508 h -4.501 v -2.2508 h 2.2507 v -2.2508 h 2.2503 v -4.5015 h -2.2503 2.2503 -2.2503 v -2.2508 h 6.7519 v 2.2508 h -2.2508 v 6.7523 h 2.2508 v -9.0031 h 2.2507 v 2.2508 h 2.2508 v -6.7523 h 2.2508 v -4.5011 h 2.2507 v 2.2508 h 2.2504 v -2.2508 2.2508 h 2.2507 -2.2507 15.7554 v 2.2508 h 2.2507 v -2.2508 2.2508 -2.2508 2.2508 h 6.7518 v 2.2508 -2.2508 2.2508 h 6.7523 v 2.2507 -2.2507 2.2507 h 4.492 v 2.2508 h 6.7523 v 2.2508 h 4.5015 v 2.2507 h 2.2508 v 2.2508 h 4.5011 v 2.2508 h 2.2507 v 2.2507 h 2.2508 v 2.2508 h 2.2508 v 2.2508 h 2.2507 v 4.5015 -2.2508 h -2.2507 v -2.2507 h -2.2508 v -2.2508 h -6.7523 v -2.2508 h -4.5011 v -2.2507 h -4.5015 v -2.2508 h -4.5015 v -2.2508 h -4.5016 v -2.2507 h -2.2507 v -2.2508 h -6.7519 v -2.2508 h -2.2508 v -2.2507 2.2507 h -2.2508 2.2508 -2.2508 v 2.2508 -2.2508 h -2.2507 v 2.2508 h 2.2507 v 2.2508 h -2.2507 2.2507 v 4.501 h 2.2508 v -2.2508 h -2.2508 v -2.2507 h 2.2508 v 2.2507 h 2.2508 -2.2508 2.2508 v 2.2508 h 2.2507 v 4.5016 h 2.2504 v 6.7523 -2.2508 h -2.2504 v 2.2508 h -2.2507 v -2.2508 h -4.5016 v 2.2508 h -4.5015 v 2.2507 h -2.2508 v 4.5011 h -9.0026 v 2.2508 h -4.5015 v 9.0031 h -2.2508 2.2508 v 6.7518 h -2.2508 v 4.5015 h -2.2507 v 2.2508 h -2.2508 v 2.2508 h -2.2508 v 4.5015 h -2.2503 2.2503 -2.2503 l -2.2508,2.2508 v -2.2508 2.2508 h -2.2508 v -2.2508 h -4.5015 v 4.5011 h -2.2508 v 2.2508 -4.5011 2.2508 -11.2539 h -2.2507 v -2.2508 h -2.2503 2.2503 v 4.5016 -2.2508 2.2508 l -2.2503,2.2507 v -2.2507 4.5015 h -2.2508 v -4.5015 h 2.2508 -2.2508 2.2508 v -2.2508 h -2.2508 v -2.2508 h -2.2507 v -2.2507 h -6.7524 2.2508 -2.2508 v -2.2508 h -2.2503 l -4e-4,2.2508 h -4.5011 l -2.2508,2.2507 v -2.2507 2.2507 h -2.2508 v 2.2508 h -2.2507 v 2.2508 h -2.2508 v 2.2507 h -2.2508 2.2508 -2.2508 v 2.2508 h -2.2508 v 2.2508 h 2.2508 v -2.2508 h 2.2508 v -2.2508 h 4.5015 v -2.2507 4.5015 h 4.5016 v 2.2508 h 4.5015 v 2.2508 h 2.2503 v 2.2507 -2.2507 l 2.2508,2.2507 v 2.2508 h 4.5016 v 4.5011 h 2.2507 v 4.5107 -2.2508 h -2.2507 v 2.2508 h -2.2508 6.7523 -2.2508 v 2.2508 h -4.5015 9.0026 v 2.2507 h 2.2507 v -2.2507 h 2.2508 v 2.2507 -2.2507 l 2.2508,2.2507 h -2.2508 2.2508 v -2.2507 h 2.2507 v -2.2508 h 6.7519 v 2.2508 l -2.2503,-2.2508 v 2.2508 h -2.2508 v 2.2507 h -2.2508 2.2508 -2.2508 v 2.2508 h -2.2507 v 2.2508 h -2.2508 2.2508 -2.2508 v 2.2508 h -2.2508 v 2.2507 h -2.2507 v 2.2508 h -4.5011 v 2.2508 h -4.5015 v 2.2507 h -6.7519 v 2.2508 h -9.0031 v -2.2508 2.2508 h -2.2507 v 2.2508 -2.2508 h -4.5016 2.2508 -13.5041 v -2.2508 h -4.5016 v -2.2507 h -8.9935 v -2.2508 h -2.2507 v -2.2508 h 4.5015 v 2.2508 -2.2508 h -2.2508 v -2.2507 h -9.003 v 2.2507 h 6.7523 v -2.2507 4.5015 h -2.2508 v 2.2508 h -2.2508 2.2508 -2.2508 v 2.2507 h -2.2507 l -2.2508,2.2508 h -4.5011 v 2.2508 h -4.5015 v 2.2507 h -6.7523 v -2.2507 2.2507 h -4.5011 v -2.2507 h -2.2508 2.2508 -2.2508 v -4.5016 h -2.2507 v -2.2507 h -6.7524 v -2.2508 h 2.2508 -2.2508 v -2.2508 h 2.2508 -2.2508 v -4.5011 h 2.2508 v -2.2508 h 2.2508 v 2.2508 -2.2508 h 2.2508 v 2.2508 h 2.2507 v 2.2508 -2.2508 h 4.5016 v 2.2508 h 6.7518 v 2.2508 h 2.2508 v -2.2508 h 2.2508 -9.0031 v -2.2508 h -9.0026 v -2.2508 h -4.5016 v 2.2508 h -9.0031 l 5e-4,-2.2508 h -4.5015 l -2.2508,-2.2507 v 2.2507 -2.2507 2.2507 -2.2507 2.2507 -2.2507 h -4.5015 v 2.2507 h 2.2508 v -2.2507 2.2507 h -6.7519 v -2.2507 2.2507 h -2.2508 l -2.2508,-2.2507 v 2.2507 -2.2507 h -9.003 4.5015 v 2.2507 h 2.2508 v 2.2508 -2.2508 h 6.7523 v 2.2508 -2.2508 h 2.2503 v 2.2508 h 4.5016 v -2.2508 h 6.7523 v 2.2508 h 2.2507 -2.2507 4.5015 v 2.2508 h 4.5015 v 6.7519 h 4.5011 v 4.5015 h 2.2508 v 2.2508 h 2.2507 v 2.2507 h 4.5016 v 2.2508 h -2.2508 9.0026 v -2.2508 h 2.2508 v 2.2508 -2.2508 h 2.2508 -2.2508 v -2.2507 h 6.7523 v -2.2508 h 2.2503 v 2.2508 -2.2508 h 4.5015 v -2.2508 h 4.5016 v -2.2507 2.2507 -2.2507 h 2.2507 v 2.2507 -2.2507 2.2507 -2.2507 2.2507 l 2.2508,-2.2507 h 2.2508 v 2.2507 h 2.2507 -2.2507 4.5015 v 2.2508 -2.2508 2.2508 -2.2508 2.2508 h 6.7519 v 2.2508 h 6.7523 v -2.2508 h 2.2508 v 2.2508 h -2.2508 v 2.2507 h -2.2508 v -2.2507 2.2507 -2.2507 2.2507 h -2.2507 4.5015 v -2.2507 h 6.7518 v 2.2507 h -2.2507 v 2.2508 h 2.2507 v -4.5015 h 2.2508 v 2.2507 -2.2507 2.2507 h 2.2508 v -2.2507 2.2507 -2.2507 h 9.003 v -2.2508 2.2508 -2.2508 h 4.5016 v -2.2508 h 2.2503 v 2.2508 -2.2508 h 4.5016 v -2.2507 h 2.2507 v -2.2508 h 4.5016 v -2.2508 h 2.2507 v -2.2507 h 2.2503 v -2.2508 2.2508 -2.2508 2.2508 h 13.5046 v -2.2508 h 2.2504 v 9.0031 h -2.2504 v 6.7518 h -2.2507 v 6.7523 h 2.2507 -2.2507 2.2507 v 2.2508 h 2.2504 v 2.2507 h 4.5015 v -2.2507 h 2.2508 -2.2508 2.2508 v -4.5016 2.2508 h 2.2507 v -2.2508 h 4.5016 v -9.0026 h 4.5015 v -2.2507 h 4.5011 v -2.2508 h 4.5015 v -2.2508 h 17.9869 v -2.2507 2.2507 -2.2507 h 11.2539 v 2.2507 h 4.5011 v 2.2508 h 2.2507 v 2.2508 h 2.2508 v 2.2507 h -2.2508 18.0057 v -2.2507 2.2507 h 2.2508 v -2.2507 2.2507 -2.2507 h 2.2507 v 2.2507 h 2.2508 v 11.2534 h 2.2508 v 2.2508 h 2.2507 v 2.2507 h 2.2508 v 2.2508 h 9.0027 v 4.5011 -2.2508 h 4.5015 -2.2508 2.2508 v 4.5016 h 2.2508 v 13.5041 h 2.2503 v 2.2508 h 2.2507 v 4.5015 h 4.5016 v 2.2508 h 2.2507 v 2.2507 -2.2507 2.2507 h 13.5042 v -2.2507 h 2.2508 v -2.2508 h 2.2508 v -2.2508 h 6.7523 v -2.2507 h 4.501 v -2.2508 h 4.4924 v -2.2508 2.2508 -2.2508 h -2.2508 v -2.2507 h -11.2538 v -2.2508 h -2.2503 v -2.2508 h -2.2508 v -2.2507 2.2507 -2.2507 2.2507 h 11.2534 v 2.2508 h 4.5015 v 2.2508 h 4.5011 v 2.2507 h 4.5016 v 2.2508 -2.2508 2.2508 h 9.003 v 2.2508 l -2.2507,2.2507 v -2.2507 2.2507 -2.2507 2.2507 h -2.2508 2.2508 v 2.2508 h -2.2508 v 2.2508 h 4.5015 v -2.2508 h -2.2507 4.5015 v -4.5015 h -2.2508 2.2508 v -2.2508 2.2508 -2.2508 2.2508 h 2.2508 v -2.2508 2.2508 h 11.2533 v 2.2507 h 2.2508 v -2.2507 2.2507 h 15.7549 v 2.2508 h 2.2508 v -2.2508 2.2508 h 13.5041 v 2.2508 h 4.5016 v 2.2507 -2.2507 2.2507 h 2.2508 v 2.2508 h 4.501 v 2.2508 h 2.2508 v 2.2508 h 2.2507 v 4.5015 -2.2508 l -2.2507,2.2508 v -4.5015 h -2.2508 v 2.2507 h -2.2503 v -2.2507 h -2.2507 v -2.2508 2.2508 -2.2508 h -2.2508 v 2.2508 -2.2508 2.2508 -2.2508 h -6.7523 v 4.5015 h 2.2507 -2.2507 2.2507 v 2.2508 h 2.2508 v 2.2508 l 2.2508,2.2507 h -2.2508 2.2508 -2.2508 2.2508 -2.2508 v 2.2508 h 2.2508 -2.2508 l 2.2508,2.2508 v 2.2507 h -2.2508 2.2508 v 6.7519 h -2.2508 2.2508 -2.2508 v 2.2508 h 2.2508 v 2.2508 -2.2508 6.7523 h -2.2508 v 2.2508 h -2.2508 2.2508 -2.2508 v 4.5015 h -4.5011 v -2.2508 h -4.5015 v -2.2507 h -2.2508 v -2.2508 h -2.2507 v 2.2508 h -2.2508 v 2.2507 h -2.2508 v 2.2508 -2.2508 h -2.2507 v 2.2508 h -2.2508 v -2.2508 4.5011 h -4.5011 v 6.7523 h 2.2503 -2.2503 2.2503 -2.2503 v 2.2508 h -4.5015 v 2.2507 h -2.2508 2.2508 -2.2508 v 2.2508 -2.2508 2.2508 h -2.2507 v 2.2508 l -2.2508,2.2507 h 2.2508 -2.2508 l 2.2508,2.2508 h -2.2508 2.2508 v 2.2508 h 2.2507 v 2.2507 h 2.2508 v 2.2508 h 2.2508 v 6.7519 h 2.2507 v 2.2508 h 2.2503 v 4.5015 h 2.2508 v 2.2508 h 2.2508 v -2.2508 2.2508 h 2.2507 v -2.2508 2.2508 -2.2508 h 2.2508 v 2.2508 h 4.5015 v -2.2508 h 4.5016 v -2.2508 h 4.5011 v -2.2507 h 2.2507 v -2.2508 h 2.2508 v -2.2508 h 2.2508 v -2.2507 h -2.2508 2.2508 -2.2508 2.2508 -2.2508 2.2508 v -13.5042 h 2.2508 v -4.5011 h 2.2507 v -2.2508 h 9.0026 v -2.2507 h 2.2508 v 6.7518 h 2.2508 v 2.2508 h 2.2507 v 2.2507 h 4.5011 v 2.2508 h 6.7523 v 2.2508 h 9.0031 v -2.2508 h 6.7518 v -2.2508 2.2508 h 2.2508 v -2.2508 h 4.4919 v -2.2507 h 2.2508 -2.2508 2.2508 v -2.2508 h 11.2539 v 4.5015 h -2.2508 2.2508 v 2.2508 h -2.2508 2.2508 v 2.2508 -2.2508 h 2.2507 v 6.7519 h 2.2508 -2.2508 v 2.2508 h 2.2508 v -6.7519 h -2.2508 v -2.2508 h -2.2507 v -2.2508 h 4.5015 v 2.2508 -4.5015 h -2.2508 v -4.5011 2.2508 -2.2508 h -2.2507 v -2.2508 h 4.5015 v -2.2507 h 2.2503 v -2.2508 h 2.2507 v -4.5015 h 2.2508 v -2.2508 l 2.2508,-2.2508 v -4.5015 h 2.2508 v -11.2534 h -2.2508 v 2.2507 h -2.2508 v 2.2508 h -2.2508 v 4.5011 -2.2507 h -2.2507 v -6.7519 h 2.2507 v -2.2508 h 2.2508 -2.2508 v -2.2508 h 2.2508 -2.2508 2.2508 v -2.2507 h 2.2508 v -2.2508 h 2.2508 v -9.0031 h 2.2507 v -13.5041 h 2.2508 -2.2508 2.2508 -2.2508 2.2508 -2.2508 v -2.2508 h 2.2508 v -2.2507 h -2.2508 2.2508 v -9.0031 h 2.2503 v -2.2508 h -2.2503 v -2.2508 h 2.2503 -2.2503 2.2503 -2.2503 v -2.2507 h 2.2503 v -2.2508 h 2.2508 v -2.2508 h -2.2508 2.2508 v -2.2507 h 2.2508 v -4.5011 h 2.2507 v -2.2508 2.2508 -2.2508 h 11.2534 v 4.5011 h 2.2508 v 2.2508 h 4.5015 v 2.2507 h 2.2508 v 2.2508 h -2.2508 2.2508 v -2.2508 h 2.2507 v 2.2508 -2.2508 h 2.2508 -2.2508 2.2508 v -4.5011 h 4.5016 v 2.2508 -4.5015 h 2.2503 v -4.5011 h 2.2508 v -4.5015 h 4.5015 v -2.2508 h 2.2508 v 2.2508 h 4.5015 v 2.2507 h 2.2503 v 4.5016 h 4.5015 v -2.2508 9.0026 h 4.5016 -2.2508 2.2508 v 6.7523 h 2.2507 v 4.5011 h 2.2508 v 2.2508 h 2.2508 v 2.2508 h 6.7519 v 4.5015 l 2.2507,2.2508 h -2.2507 2.2507 -2.2507 v 2.2507 h 2.2507 v -2.2507 2.2507 l 2.2508,2.2508 v -2.2508 h -2.2508 v -2.2507 h 2.2508 v 2.2507 h 2.2411 v 2.2508 l 2.2508,2.2508 h 2.2507 v 2.2507 h 2.2508 v 2.2508 h 4.5015 v 2.2508 -2.2508 2.2508 h 2.2508 v 2.2507 h 2.2504 v 2.2508 h 4.5015 v 2.2508 h 2.2508 v 2.2508 h 2.2507 v 2.2507 h 2.2508 v 2.2508 h 2.2508 v 2.2508 h 2.2507 -2.2507 2.2507 v 2.2507 h 2.2508 v 2.2508 h -2.2508 2.2508 v 2.2508 -2.2508 h 2.2508 v 2.2508 h 2.2503 v 2.2507 h 2.2507 -2.2507 l 2.2507,2.2508 v 2.2508 h 2.2508 v 2.2507 h 2.2508 v 4.5016 h 2.2507 v 2.2507 h 2.2508 v 2.2508 h 2.2508 v 4.5016 h 2.2503 v 2.2507 h 2.2508 v 4.5011 h 2.2508 v 2.2507 h 2.25075 v 4.5016 h 2.2508 v 4.5011 h 2.2508 v 2.2508 h 2.2507 v 4.5015 h 2.2508 v 4.5015 h 2.2508 v 6.7519 h 2.2507 v 6.7523 h 2.2503 -2.2503 2.2503 v 6.7518 h 2.2508 v 9.0031 h 2.2508 -2.2508 2.2508 v 9.0026 h 2.2507 -2.2507 v 2.2508 -2.2508 2.2508 -2.2508 2.2508 -2.2508 h -4.5016 v -2.2508 h -2.2503 v 2.2508 -2.2508 h -2.2507 v 2.2508 h 2.2507 -4.5015 v -2.2508 z m -90.02905,-153.0482 v 2.2508 h 2.2508 -2.2508 v 2.2508 h -2.2508 v -2.2508 h 2.2508 -2.2508 2.2508 -2.2508 v -2.2508 z m 0,0 v -2.2507 z m -63.0193,-45.0135 v 2.2508 h -2.2507 v -2.2508 2.2508 h -2.2508 v -2.2508 z m -11.2533,-49.5156 v 2.2508 z m 18.0057,-24.7575 v -2.2508 z m 24.7575,2.2507 v 2.2508 h 2.2508 -2.2508 v 2.2508 h 2.2508 v 15.7549 h 2.2507 -2.2507 v 13.5042 h -2.2508 v 9.003 h 2.2508 v 11.2535 h -2.2508 2.2508 v 6.7523 h 2.2507 v 2.2507 h 2.2508 v 2.2508 l -2.2508,2.2508 v 4.501 h 2.2508 -2.2508 2.2508 v 2.2508 h -2.2508 2.2508 -2.2508 v 2.2508 h 2.2508 -2.2508 2.2508 v 2.2507 h -2.2508 2.2508 v 9.0031 h 2.2508 v 6.7519 h -2.2508 v 2.2508 h -2.2508 v 9.003 h -2.2507 v 2.2508 h -2.2508 v 2.2508 h -4.5011 v 2.2507 -2.2507 6.7523 h -2.2507 v -2.2508 h -2.2508 v -4.5015 l -2.2508,2.2507 h 2.2508 -2.2508 v 2.2508 h -2.2507 2.2507 -2.2507 v -2.2508 h -2.2508 v 2.2508 h -2.2503 v -2.2508 2.2508 -2.2508 h -2.2508 v 2.2508 -2.2508 h -2.2508 2.2508 v -2.2507 h -2.2508 2.2508 v -2.2508 h -2.2508 v -4.5015 h -2.2507 v 4.5015 h -2.2508 2.2508 v -2.2508 h -2.2508 2.2508 -2.2508 2.2508 -2.2508 v -2.2507 4.5015 h -2.2508 v -2.2508 h -2.2508 2.2508 v -2.2507 h -2.2508 v -2.2508 h -4.5015 v -4.5015 h -2.2508 v -4.5016 2.2508 h -2.2502 v -2.2508 h 4.501 v -6.7519 2.2508 -2.2508 h 2.2508 l 2.2507,2.2508 h 2.2508 v -15.7549 h -2.2508 v -2.2508 h -2.2507 v -2.2507 h -2.2508 v -2.2508 h -2.2508 v -2.2508 h 2.2508 -2.2508 v -4.5015 2.2508 h -2.2502 v -4.5016 h -2.2508 v -2.2507 h -2.2508 l 2.2508,2.2507 v 6.7523 h 2.2508 -2.2508 v 4.5016 -2.2508 h -4.5015 v -9.0031 h 2.2507 v -6.7523 h -2.2507 2.2507 -2.2507 v -18.0057 h 2.2507 -2.2507 2.2507 v -2.2508 h -2.2507 2.2507 v -2.2507 2.2507 -2.2507 h 2.2508 v -2.2508 h 2.2508 v -9.0026 h 2.2502 -4.501 l 2.2508,-2.2508 h 4.501 -2.2508 2.2508 v -2.2507 h -2.2508 2.2508 -2.2508 v -2.2508 2.2508 h -2.2502 v -2.2508 h 2.2502 -2.2502 4.501 -2.2508 v -2.2508 h 4.5016 v 4.5011 h 2.2507 v 6.7523 h 2.2508 -2.2508 2.2508 v 2.2508 h 2.2508 v 2.2507 -4.5015 h 2.2508 v -2.2508 h -2.2508 v -4.501 h 2.2508 -2.2508 2.2508 -2.2508 v -2.2508 h 2.2508 -2.2508 v -6.7523 h -2.2508 v -2.2508 h 2.2508 -2.2508 2.2508 v -2.2508 4.5016 h 2.2508 v 2.2508 h 2.2507 v -2.2508 h 2.2508 v 2.2508 -2.2508 h 4.5011 v 2.2508 -2.2508 h 2.2508 v -4.5016 h 2.2507 -2.2507 4.5015 v -2.2507 2.2507 h 2.2508 v 2.2508 h 4.5015 v -2.2508 2.2508 z m 2.2508,0 h -2.2508 2.2508 v -2.2507 z"
     style="clip-rule:evenodd;fill:#000000;fill-rule:nonzero;stroke:none;stroke-width:4.68948px"
     id="path1555" />
</svg>
