<?xml version="1.0" encoding="UTF-8" standalone="no"?>
<svg
   xmlns:dc="http://purl.org/dc/elements/1.1/"
   xmlns:cc="http://creativecommons.org/ns#"
   xmlns:rdf="http://www.w3.org/1999/02/22-rdf-syntax-ns#"
   xmlns:svg="http://www.w3.org/2000/svg"
   xmlns="http://www.w3.org/2000/svg"
   xmlns:sodipodi="http://sodipodi.sourceforge.net/DTD/sodipodi-0.dtd"
   xmlns:inkscape="http://www.inkscape.org/namespaces/inkscape"
   version="1.0"
   width="1024pt"
   height="1024pt"
   viewBox="0 0 1024 1024"
   preserveAspectRatio="xMidYMid meet"
   id="svg2211"
   sodipodi:docname="vector.svg"
   inkscape:version="1.0.2-2 (e86c870879, 2021-01-15)">
  <defs
     id="defs2215" />
  <sodipodi:namedview
     pagecolor="#ffffff"
     bordercolor="#666666"
     borderopacity="1"
     objecttolerance="10"
     gridtolerance="10"
     guidetolerance="10"
     inkscape:pageopacity="0"
     inkscape:pageshadow="2"
     inkscape:window-width="1366"
     inkscape:window-height="697"
     id="namedview2213"
     showgrid="false"
     inkscape:zoom="0.1940918"
     inkscape:cx="1266.7524"
     inkscape:cy="760.26375"
     inkscape:window-x="-8"
     inkscape:window-y="-8"
     inkscape:window-maximized="1"
     inkscape:current-layer="svg2211"
     fit-margin-top="0"
     fit-margin-left="0"
     fit-margin-right="0"
     fit-margin-bottom="0" />
  <metadata
     id="metadata2205">
Created by potrace 1.10, written by Peter Selinger 2001-2011
<rdf:RDF>
  <cc:Work
     rdf:about="">
    <dc:format>image/svg+xml</dc:format>
    <dc:type
       rdf:resource="http://purl.org/dc/dcmitype/StillImage" />
    <dc:title></dc:title>
  </cc:Work>
</rdf:RDF>
</metadata>
  <path
     d="m 207.69633,287.86549 h 4.1125 z M 96.661735,172.72013 h 8.224995 v -4.11248 h 4.1125 v -4.11248 l 4.1125,-4.11249 4.1124,-4.11164 4.1125,4.11164 h 8.2242 v 4.11249 h 4.1125 l 4.1125,-4.11249 v -8.22413 l -4.1125,-4.11248 v -4.11248 h -4.1125 v -4.11249 h 8.225 v -4.11248 h 8.224 l 4.1125,4.11248 h 4.1125 v -4.11248 h 4.1125 v -4.11248 h 4.1125 l 4.1125,-4.11165 v -4.11248 h 4.1124 v -4.11249 h 4.1125 v -4.11248 l 4.1125,-4.11248 h 12.3375 l 4.1124,-4.11249 h 4.1125 v 4.11249 l 4.1125,4.11248 4.1125,4.11248 h 4.1125 v -4.11248 h 4.1125 v 4.11248 l 12.3366,16.4491 h 12.3375 v -4.11248 h 4.1125 v 4.11248 l 4.1125,4.11248 v 4.11249 h 8.2249 v -4.11249 h 8.2241 v -4.11248 h 4.1125 l 4.1125,-4.11248 v -4.11165 h 4.1124 l 4.1125,4.11165 v -4.11165 h 8.225 v -4.11248 4.11248 h 8.225 v 8.22413 h 4.1124 v 4.11248 l 4.1125,4.11249 4.1125,4.11248 v 8.22497 l 4.1125,4.11164 -4.1125,4.11249 h 8.2242 v 4.11248 l 4.1125,4.11248 h 8.225 v 4.11249 l 4.1124,4.11248 v 4.11249 h 8.225 v 16.44909 h 8.2241 v 16.44994 h 4.1125 v 4.11248 l 4.1124,4.11248 h 4.1125 v 4.11165 l 4.1125,4.11248 v 4.11249 l 4.1125,4.11248 v 4.11248 h 4.1125 l -4.1125,-4.11248 h 8.225 l 4.1124,-4.11248 v 4.11248 h 8.2242 l 4.1125,-8.22497 v 4.11249 -4.11249 l 4.1125,-4.11248 h 8.225 l 4.1125,-4.11165 v -12.33745 h 4.1124 v 4.11249 l 4.1125,4.11248 h 4.1125 v -8.22497 4.11249 h 4.1125 v -4.11249 h 4.1125 l 4.1125,-4.11248 h 8.2249 v -4.11248 h 8.2241 l 4.1125,-4.11249 h 4.1125 l 4.1124,4.11249 h 8.225 v -4.11249 l 4.1125,-4.11164 v -4.11249 l 4.1125,-4.11248 h -8.225 v -4.11248 h -4.1125 v -4.11249 h 4.1125 -4.1125 v -12.33745 l 4.1125,4.11248 h 8.225 l 4.1125,4.11249 v -4.11249 h 4.0957 v -4.11248 h -4.1125 l 4.1125,-4.11248 v -4.11249 h 4.1125 v -16.44909 h 4.1125 v -4.11249 h 4.1124 v 4.11249 l 4.1125,-4.11249 4.1125,-8.22496 4.1125,-4.11165 h -4.1125 v -12.33745 h -4.1125 v -4.11248 h -4.1125 V 94.58462 h 16.4492 v -4.11248 h 8.225 l -4.1125,-4.11165 h 4.1125 v -4.11248 4.11248 h 4.1124 v -4.11248 h 4.1125 l 4.1125,-4.11249 v 4.11249 h 8.2241 v -4.11249 h 8.225 v -4.11248 h 4.1124 l -4.1124,4.11248 4.1124,4.11249 v 4.11248 h 4.1125 v 16.4491 l 4.1125,4.11248 h 24.6741 V 98.6971 h 4.1125 -4.1125 v -4.11248 h -4.1125 v -4.11248 h -4.1124 v 4.11248 h -4.1125 v -16.4491 h -8.2242 v -8.22496 l -4.1125,4.11248 v -8.22497 h 4.1125 l -4.1125,-4.11248 v -4.11165 h 4.1125 l 4.1125,-4.11248 V 37.01153 h -4.1125 v -4.11249 h 4.1125 V 28.7874 h 4.1125 v -4.11249 h 4.1124 v 4.11249 l 4.1125,4.11164 v 4.11249 l 4.1125,4.11248 4.1125,-4.11248 v 4.11248 l 4.1125,4.11248 h 4.1125 v 8.22497 h 8.2241 v -4.11248 h 12.3375 v -4.11249 l 4.1125,4.11249 v -4.11249 h 4.1125 v 4.11249 l 4.1124,-4.11249 4.1125,4.11249 h 20.5616 v 4.11248 l 4.1124,4.11248 v -4.11248 h 4.1125 v -4.11248 l 4.1125,-4.11249 4.1125,-4.11248 v -4.11248 l 4.1125,-4.11249 4.1125,-4.11164 4.1124,-4.11249 4.1125,-8.22497 h 4.1125 l 4.1125,-4.11248 h 12.3199 l 4.1125,-8.2249703 h 4.1125 L 738.16483,9.741213e-6 h 4.1125 L 746.38983,12.33746 l 4.1125,4.11248 8.2241,16.4491 v 8.22497 l 4.1124,4.11248 8.225,4.11249 h 16.4492 l 8.2249,8.22496 4.1125,4.11165 h 8.225 l 8.224,8.22497 4.1125,4.11248 h 4.1125 l 16.45,-8.22497 4.1124,-4.11248 h 12.3367 l 4.1125,-4.11165 8.225,-4.11248 h 4.1124 l 8.2241,-4.11248 h 16.4499 l 8.225,8.22496 h 20.5616 l 8.2241,-4.11248 4.0958,-8.22497 4.1124,-4.11248 h 8.225 l 4.1125,4.11248 v 8.22497 l -4.1125,8.22413 -8.225,8.22497 v 8.22496 l 4.1125,8.22497 4.1125,12.33661 h -8.225 l -8.2249,4.11249 -4.1125,4.11248 4.1125,8.22497 4.1125,4.11248 v 16.4491 l 4.1124,4.11248 h 4.1125 l 4.1125,4.11249 v 4.11248 l -4.1125,8.22497 v 28.78655 l 4.1125,8.22496 v 12.33662 l -8.2241,8.22496 -4.1125,8.22497 h -8.2249 l -8.225,4.11248 -16.4491,8.22413 h -8.225 l -24.674,24.67407 -4.1125,8.22497 -4.1125,8.22496 -12.3374,4.11249 -4.1125,8.22496 -8.2242,8.22413 4.1125,8.22497 h 8.2242 l 8.2249,8.22497 4.1125,8.22497 4.1125,4.11164 v 16.44992 l -4.1125,4.11249 -8.2249,4.11248 -4.1125,4.11249 v 8.22501 l 4.1125,4.11159 h 4.1124 l 4.1125,8.22496 v 8.22498 l 4.1125,4.1125 v 20.5616 l -4.1125,4.1125 -4.1125,8.225 v 4.1124 l -4.1124,8.225 -4.1125,4.1116 -8.2242,4.1125 h -12.3375 l -8.2249,4.1125 h -4.1125 l -4.1125,4.1125 -4.1125,8.2249 -4.1125,4.1125 h -20.5615 l -4.1125,-4.1125 -8.2249,-4.1125 -4.1125,-4.1124 -8.2242,-4.1125 -8.225,-8.225 -8.2241,-4.1116 -12.3207,-4.1125 h -4.1124 l -4.1125,-4.1125 h -16.4492 l -4.1125,4.1125 -4.1124,8.2241 v 8.225 l -4.1125,8.2249 -4.1125,4.1125 -4.1125,-4.1125 -4.1125,-4.1124 h -8.2249 l -4.1125,4.1124 v 8.225 l -4.1125,4.1117 -4.1125,4.1125 h -12.3366 l -12.3374,12.3374 v 8.225 l 4.1125,4.1116 8.2249,8.225 4.1125,12.3374 12.3366,8.225 4.1125,8.225 8.2249,12.3366 v 20.5615 l -4.1124,12.3375 4.1124,12.3374 4.1125,12.3543 -4.1125,4.1124 v 4.1125 -4.1125 4.1125 l -12.3374,12.3367 v 8.225 l -4.1125,12.3374 -4.1125,16.449 -8.2241,16.4492 v 12.3374 l -4.1124,12.3375 4.1124,4.1125 8.2241,4.1125 4.1125,-4.1125 h 4.1125 l 8.225,8.225 4.1124,8.224 v 4.1125 h -12.3374 v 4.1125 l -4.1125,4.1125 v 12.3366 l 4.1125,8.225 4.1125,4.1125 8.2249,4.1125 12.3367,8.2249 h 4.1125 l 8.225,4.1125 v 4.1125 h 4.1124 l 8.225,4.1125 4.1125,8.2241 v 8.2249 l -4.1125,8.225 -4.1125,12.3367 -4.1125,4.1125 -4.1124,4.1124 4.1124,8.225 v 8.2241 l 8.2241,4.1125 h 4.1125 l 4.1125,-8.225 4.1125,-4.1116 h 16.4499 l 8.2242,4.1116 12.3374,8.225 4.1125,-12.3366 8.225,-4.1125 h 8.2241 l 4.1124,4.1125 v 8.2241 l -8.224,4.1125 4.1125,4.1125 4.1124,4.1124 v 4.1125 l -4.1124,8.225 -8.225,8.225 -4.1125,12.3366 -16.4499,12.3375 -16.4492,16.449 -12.3374,8.225 -16.4491,8.2249 -12.3374,12.3375 -4.1125,8.2242 h -4.1125 l -4.1125,4.1125 h -24.6741 v -8.2242 h -12.3374 l -8.2241,4.1117 -8.225,-4.1117 h -12.3367 l -4.1124,4.1117 -8.225,4.1125 -12.3375,4.1123 h -8.2249 v 12.3375 l 4.1125,4.1117 v 4.1125 h -4.1125 l -8.2241,4.1125 -4.1125,4.1124 -8.2249,16.44914 v 8.225 l -4.1125,8.2249 h -16.4492 l -8.225,-4.1125 4.1125,-4.1124 4.1125,-4.1125 4.1125,-8.2241 v -12.33754 l -16.4499,8.225 h -8.2241 l -12.3375,12.33664 -8.2074,4.1125 h -12.3366 l -8.2249,-4.1125 -8.225,-8.2241 -8.2242,-12.33754 -4.1125,-16.4491 v -65.7989 l -4.1124,-16.449 -4.1125,-4.1125 -8.225,-4.1125 -4.1125,-4.1117 -16.449,-8.2249 -4.1125,-4.1125 -4.1125,-12.3375 -4.1125,-16.4499 v -37.0098 l -8.2249,-24.6741 -4.1125,-8.225 -8.225,-16.449 h -4.1125 l -4.1125,8.2241 -8.2249,24.6741 v 12.3374 l -4.1125,8.225 -4.1125,4.1125 -12.3367,-12.3375 -4.1124,-8.2249 -4.1125,-4.1125 h -12.3375 l -8.224,4.1125 v 8.2249 l -4.1125,4.1125 h -8.225 l -12.3367,-4.1125 -4.1125,-8.2249 v -12.3367 l -4.1124,-4.1125 h -16.4332 l -4.1125,8.225 -4.1125,12.3366 -4.1125,8.225 -8.224,4.1125 -8.225,-12.3375 -12.3367,-12.3366 -4.1125,-8.225 h -12.3374 l -4.1125,4.1125 -4.1125,-4.1125 -8.2249,-12.3374 -4.1125,-8.2241 -4.1125,-8.225 4.1125,-20.5624 8.2249,-8.225 v -16.4491 l -4.1124,-8.225 v -4.1125 l 4.1124,-8.224 8.225,-4.1125 4.1125,-4.1125 4.1125,-4.1125 v -4.1125 l -8.225,-4.1117 -16.4499,-8.2249 -4.1125,-4.1125 v -20.5624 l -4.1125,-12.3366 -12.3366,-4.1125 -12.3374,-12.3374 v -8.2242 l -12.3367,-12.3375 4.1125,-8.2249 v -16.45 l 4.1125,-4.1116 h 8.2242 l 4.1125,-8.2249 v -4.1125 l 4.1124,-8.225 v -4.1125 h 4.1125 v -8.2242 l -4.1125,-8.2249 -4.1124,-4.1125 -4.1125,-8.225 v -8.224 l 8.2249,-4.1125 16.4491,-8.225 4.1125,-4.1125 8.2249,-4.1125 v -20.5616 l -4.1124,-12.3375 -4.1125,-8.2249 -4.1125,-4.1116 -4.1125,-8.225 -4.1125,-4.1125 -4.1125,-8.2249 -8.2249,-8.225 -4.1125,-8.225 -4.1125,-4.1117 v -16.4499 l -8.2241,-4.11247 h -8.2249 l -8.2242,-4.11249 -4.1125,-4.11164 h -4.1125 l -8.225,4.11164 v 4.11249 h -28.7865 l -4.112395,-8.22413 -4.1125,-4.11249 -8.225,-12.33745 v -4.11247 h -4.1125 l -8.2242,4.11247 -4.0957,-4.11247 4.1125,-4.11164 8.225,-4.11249 4.1124,-4.11248 h 8.225 l 4.1125,-4.11249 4.112495,-4.11248 h 8.2242 l 4.1124,-4.11248 -4.1124,-4.11249 -4.1125,-8.22496 h -4.1125 l -4.112495,-8.22497 -4.1125,-4.11165 4.1125,-8.22496 v 4.11248 h 4.112495 v 4.11248 -4.11248 4.11248 h 8.225 v 4.11165 -4.11165 4.11165 h 8.2249 v 4.11248 h 12.3366 v -4.11248 h 8.225 v 8.22497 h 12.3366 v 4.11248 -4.11248 4.11248 -4.11248 4.11248 -4.11248 4.11248 -4.11248 4.11248 -4.11248 4.11248 h 16.45 v 4.11248 h 4.1124 -4.1124 4.1124 -4.1124 4.1124 -4.1124 4.1124 v 8.22497 h 8.2241 v 12.33745 h 4.1125 v 4.11249 h 8.225 v -4.11249 h 4.1125 -4.1125 v -4.11248 h 4.1125 -4.1125 v 4.11248 -12.33745 h 4.1125 v 4.11248 -4.11248 h -4.1125 v -4.11248 4.11248 h 8.2249 v -8.22497 h 4.1125 -4.1125 v -4.11248 h 8.225 v -8.22497 h 4.1125 -4.1125 l 4.1125,-4.11248 h 4.1125 v -4.11165 4.11165 -4.11165 4.11165 -4.11165 4.11165 -4.11165 h 8.2242 v -4.11248 h -4.1125 4.1125 -4.1125 4.1125 -4.1125 4.1125 l -4.1125,-4.11248 h 4.1125 -4.1125 4.1125 v -4.11249 h -4.1125 v -4.11248 h -4.1125 v -8.22413 h -4.1125 v -4.11248 h -8.2242 v -4.11249 h -4.1125 v -4.11248 h -4.1124 v -4.11249 4.11249 -4.11249 4.11249 l -4.1125,-4.11249 v 4.11249 -4.11249 4.11249 -4.11249 4.11249 h -4.1125 4.1125 -4.1125 v 4.11248 -4.11248 4.11248 -4.11248 4.11248 h -4.1125 v 4.11249 h -4.1125 v -4.11249 4.11249 -8.22497 h -8.225 v 4.11248 -4.11248 4.11248 -4.11248 h -4.1124 4.1124 -4.1124 v -4.11249 h -4.1125 v -4.11248 4.11248 -4.11248 4.11248 -4.11248 4.11248 -4.11248 h -4.1125 v -4.11248 4.11248 -4.11248 h -8.2241 v -4.11249 h -4.1125 v -4.11248 h -4.1124 v -4.11248 h -4.1125 v -4.11165 h -8.225 v 4.11165 h 4.1125 -4.1125 v -8.22413 h -4.1125 4.1125 -4.1125 v -8.22497 h 4.1125 v 4.11248 -4.11248 h 8.225 v -4.11248 4.11248 -4.11248 4.11248 -4.11248 4.11248 -4.11248 h -12.3375 4.1125 l -4.1125,4.11248 h 4.1125 -4.1125 v -8.22497 4.11249 -4.11249 h -8.2249 v -4.11248 h -4.1125 v -4.11165 h -4.1125 4.1125 -4.1125 4.1125 -4.1125 4.1125 l -4.1125,-4.11248 h -4.1125 v -4.11248 h -4.1125 v -4.11249 h -4.112495 z"
     style="clip-rule:evenodd;fill:#000000;fill-rule:nonzero;stroke:none;stroke-width:8.56837px"
     id="path1348" />
</svg>
