<?xml version="1.0" encoding="UTF-8" standalone="no"?>
<svg
   xmlns:dc="http://purl.org/dc/elements/1.1/"
   xmlns:cc="http://creativecommons.org/ns#"
   xmlns:rdf="http://www.w3.org/1999/02/22-rdf-syntax-ns#"
   xmlns:svg="http://www.w3.org/2000/svg"
   xmlns="http://www.w3.org/2000/svg"
   xmlns:sodipodi="http://sodipodi.sourceforge.net/DTD/sodipodi-0.dtd"
   xmlns:inkscape="http://www.inkscape.org/namespaces/inkscape"
   version="1.0"
   width="1024pt"
   height="1024pt"
   viewBox="0 0 1024 1024"
   preserveAspectRatio="xMidYMid meet"
   id="svg2211"
   sodipodi:docname="vector.svg"
   inkscape:version="1.0.2-2 (e86c870879, 2021-01-15)">
  <defs
     id="defs2215" />
  <sodipodi:namedview
     pagecolor="#ffffff"
     bordercolor="#666666"
     borderopacity="1"
     objecttolerance="10"
     gridtolerance="10"
     guidetolerance="10"
     inkscape:pageopacity="0"
     inkscape:pageshadow="2"
     inkscape:window-width="1366"
     inkscape:window-height="697"
     id="namedview2213"
     showgrid="false"
     inkscape:zoom="0.1940918"
     inkscape:cx="1266.7524"
     inkscape:cy="760.26375"
     inkscape:window-x="-8"
     inkscape:window-y="-8"
     inkscape:window-maximized="1"
     inkscape:current-layer="svg2211"
     fit-margin-top="0"
     fit-margin-left="0"
     fit-margin-right="0"
     fit-margin-bottom="0" />
  <metadata
     id="metadata2205">
Created by potrace 1.10, written by Peter Selinger 2001-2011
<rdf:RDF>
  <cc:Work
     rdf:about="">
    <dc:format>image/svg+xml</dc:format>
    <dc:type
       rdf:resource="http://purl.org/dc/dcmitype/StillImage" />
    <dc:title></dc:title>
  </cc:Work>
</rdf:RDF>
</metadata>
  <path
     d="m 757.23633,249.53664 v 25.81492 l 17.2111,25.81667 17.2095,34.42047 -17.2095,17.21111 8.6056,17.21112 v 34.42222 l 17.2095,8.60556 v 17.20936 l 25.8167,17.21111 17.2092,-8.60556 25.8167,8.60556 v 17.21111 l 17.2111,17.20936 17.2095,8.60556 25.8166,-8.60556 8.6056,34.42223 -17.2111,8.60555 -17.2095,17.21112 -17.2111,8.6056 v 17.2093 l -8.6056,8.6055 h -34.4222 v 43.0277 l 8.6056,17.2095 25.8166,25.8167 h 17.2111 l 25.8151,-8.6056 17.2111,-25.8166 8.6055,-17.2095 25.8148,-8.6056 h 17.2111 l -8.6055,8.6056 -60.237,68.8409 17.2092,-8.6037 h 34.4222 l 25.8151,8.6037 8.60547,17.2111 17.2111,8.6056 v 43.0278 l -17.2111,17.2111 h -8.60547 l -8.6056,8.6039 v 17.2111 l 8.6056,17.2111 h 8.60547 l -8.60547,17.2093 -8.6056,8.6055 v -17.2092 l -25.815,8.6037 v -17.2093 l -17.2111,-8.6055 -8.6056,17.2111 -34.4222,-8.6056 h -25.8148 l -8.6056,8.6056 -25.8166,17.2092 v 8.6056 l 17.2111,25.8167 -8.6056,8.6055 8.6056,17.2111 -17.2111,8.6056 h -8.6056 l -8.6056,8.6039 h -8.6055 l -25.815,8.6056 -34.4223,8.6055 -8.6055,-17.2111 -17.2111,-8.6039 -17.2111,-8.6056 -34.4204,-34.4222 -8.6056,8.6056 -17.2111,-8.6056 -8.6055,-17.2111 v -8.6056 h -17.2095 v -8.6055 l -8.6056,-8.6037 -25.8166,8.6037 -8.6056,25.8166 h -17.2111 l -17.2092,8.6056 v 17.2111 l 17.2092,8.6056 -8.6056,8.6055 v 8.6056 l -34.4203,17.2095 -8.6056,17.2111 -17.2111,17.2111 -8.6055,-8.6056 -8.6056,-8.6055 -8.6056,-17.2111 -17.2111,-17.2095 h -17.2094 l -17.2112,8.6039 -17.2111,-8.6039 v -8.6056 l -17.2092,-8.6055 17.2092,-25.8167 -17.2092,-34.4222 h -17.2111 l -8.6056,-17.2093 -17.2095,17.2093 -17.2111,-8.6037 h -25.8148 l -8.6055,-34.4222 25.8148,-25.8151 17.2111,-25.8166 h -17.2111 l -8.6056,-8.6056 -17.2092,-8.6056 -25.8167,-25.8166 h -25.8167 l 8.6056,-34.4204 -25.78,-25.8166 -8.6055,-17.2095 v -17.2111 l -25.8148,-17.2111 -17.2112,8.6055 v -17.211 l 8.6056,-8.6038 -8.6056,-34.42222 -8.6055,8.60556 -8.6056,-25.81667 17.2111,-8.60556 8.6056,-25.81491 -8.6056,-8.60556 v -8.60555 l -25.8166,-17.21112 v -8.60555 l -25.8167,-17.20936 -8.6055,8.6038 -17.209495,-17.20936 h -17.2111 l -8.6056,-8.60556 -34.4203,8.60556 -17.2112,8.60556 V 378.61648 L 3.4741211e-5,344.19426 8.6055347,326.9849 l 17.2095003,-8.60556 17.2111,-43.02778 -17.2111,-17.20936 51.6315,-17.21111 25.816595,-25.81667 -8.605495,-17.20936 -8.6056,-34.42223 -8.6055,-17.21111 -25.8167,-8.60556 h -17.2092 l -8.6056,-17.20936 25.8148,-25.81666 8.6056,8.60555 h 17.2111 l 8.6055,-17.21111 h 8.6056 v 8.60556 l 17.211095,-8.60556 8.6055,17.21111 8.6056,-8.60555 8.6056,-25.81492 h 17.2094 l 8.6056,8.6038 17.2111,-8.6038 34.4222,17.20936 v 8.60556 h 25.8148 l 17.2111,-8.60556 8.6056,17.21111 17.2095,-8.60555 17.2111,8.60555 h 8.6055 v 34.42047 l 8.6056,8.60556 8.6056,-8.60556 v -8.60555 h 8.6055 v 8.60555 h 17.2111 v -8.60555 l -8.6055,-17.20936 v -8.60556 l 17.2111,17.21111 v 17.20936 l 17.2092,8.60556 v 17.21111 l 25.8167,8.60556 8.6056,8.60556 h 17.2094 l 8.6056,8.60555 8.6055,17.21111 17.2112,-8.60555 v 17.20936 l 34.4203,17.21111 v 43.02603 l 17.2111,-17.20936 8.6056,17.20936 h 25.8166 l 17.2095,-17.20936 v 17.20936 l 34.4222,17.21111 25.8148,17.21111 17.2112,8.60556 17.1744,17.20936 25.8167,-8.6038 25.8148,-25.81667 17.2111,-25.81667 17.2111,-25.81492 z"
     style="clip-rule:evenodd;fill:#000000;fill-rule:nonzero;stroke:none;stroke-width:17.9297px"
     id="path1304" />
</svg>
