<?xml version="1.0" encoding="UTF-8" standalone="no"?>
<svg
   xmlns:dc="http://purl.org/dc/elements/1.1/"
   xmlns:cc="http://creativecommons.org/ns#"
   xmlns:rdf="http://www.w3.org/1999/02/22-rdf-syntax-ns#"
   xmlns:svg="http://www.w3.org/2000/svg"
   xmlns="http://www.w3.org/2000/svg"
   xmlns:sodipodi="http://sodipodi.sourceforge.net/DTD/sodipodi-0.dtd"
   xmlns:inkscape="http://www.inkscape.org/namespaces/inkscape"
   version="1.0"
   width="1024pt"
   height="1024pt"
   viewBox="0 0 1024 1024"
   preserveAspectRatio="xMidYMid meet"
   id="svg2211"
   sodipodi:docname="vector.svg"
   inkscape:version="1.0.2-2 (e86c870879, 2021-01-15)">
  <defs
     id="defs2215" />
  <sodipodi:namedview
     pagecolor="#ffffff"
     bordercolor="#666666"
     borderopacity="1"
     objecttolerance="10"
     gridtolerance="10"
     guidetolerance="10"
     inkscape:pageopacity="0"
     inkscape:pageshadow="2"
     inkscape:window-width="1366"
     inkscape:window-height="697"
     id="namedview2213"
     showgrid="false"
     inkscape:zoom="0.1940918"
     inkscape:cx="1266.7524"
     inkscape:cy="760.26375"
     inkscape:window-x="-8"
     inkscape:window-y="-8"
     inkscape:window-maximized="1"
     inkscape:current-layer="svg2211"
     fit-margin-top="0"
     fit-margin-left="0"
     fit-margin-right="0"
     fit-margin-bottom="0" />
  <metadata
     id="metadata2205">
Created by potrace 1.10, written by Peter Selinger 2001-2011
<rdf:RDF>
  <cc:Work
     rdf:about="">
    <dc:format>image/svg+xml</dc:format>
    <dc:type
       rdf:resource="http://purl.org/dc/dcmitype/StillImage" />
    <dc:title></dc:title>
  </cc:Work>
</rdf:RDF>
</metadata>
  <path
     d="m 609.97053,612.52821 v -3.4079 h 2.5558 v 1.7039 h 0.852 v 3.408 h -0.852 v -1.704 h -0.8518 v 1.704 h -0.852 v -1.704 z m -5.9639,-11.0752 v -1.7041 h 0.852 v -0.852 h 0.8518 v 1.704 h 1.7038 v -1.704 h 0.852 v 2.556 l -0.852,0.852 v 0.8519 h 0.852 v 2.556 h -2.556 v 0.852 h -0.852 v -1.704 h -0.852 v -1.704 h 0.852 v 0.852 h 0.852 v -0.852 h -0.852 v -1.7038 z m -312.6497,-35.7827 v -0.852 h 1.7038 v 0.852 h 0.852 v 3.4079 h -0.852 v 0.852 h -0.8519 v 0.852 h -1.7039 v -5.1118 z m -111.6034,74.9759 h -0.852 v 0.852 h 0.852 v 0.852 h 0.852 v -0.852 h -0.852 z m -0.852,-19.5958 h -0.852 v 2.556 h 1.704 v 0.852 h -0.852 v 0.852 h 0.852 v 1.7039 h 0.852 v 0.852 h 0.852 v 0.852 h 0.852 v 1.7038 h 0.852 v -1.7038 h -0.852 l -0.852,-0.852 v -2.5559 h -1.704 v -0.852 h 0.852 v -0.852 h -0.852 v -0.852 h -0.852 z m 0.852,-3.4078 h -0.852 v 0.852 h -0.852 v 0.852 h -0.8518 l 0.8518,0.852 v -0.852 h 0.852 v -0.852 h 0.852 z m 2.556,23.0031 h -0.852 v 0.852 z m 97.9674,-23.8549 h -0.852 v 0.852 h -0.852 v 0.852 h 0.852 v -0.852 h 0.852 z m -156.7479,-31.523 h -0.852 v 2.5558 h 0.852 z m 55.3708,24.7072 h -0.852 v 1.704 h 0.852 v 4.2598 h 0.852 v -4.2598 h -0.852 z m 2.5558,-11.9273 h -1.7038 v 3.4078 h 0.8518 v 2.5559 h -0.8518 v -0.852 h -0.852 v 1.704 h -1.704 v -1.704 h -0.852 v 1.704 h 0.852 v 0.852 h 0.852 v 1.7038 h 0.852 l -0.852,0.852 v 0.852 h 0.852 v -3.4078 h 1.7038 v -1.704 h 0.852 v -2.5559 h 0.852 v -0.852 h 0.852 v -0.852 h 0.852 v -0.852 h -0.852 v 0.852 h -0.852 v 0.852 h -0.852 v 0.852 h -0.852 v -2.5558 h 0.852 z m -58.7789,-9.3718 h -0.852 v 2.556 h 0.852 z m 37.4827,-62.1936 v -0.852 h 0.852 v 0.852 h 0.852 v 0.852 h 1.7038 v 0.852 h 0.852 v 4.2598 h 0.852 v 0.8519 h -0.852 v 1.704 h 0.852 v 5.1118 l -0.852,0.852 h 0.852 v 3.408 h -0.852 v 0.8519 h -1.7038 v 2.5559 h -0.852 v 7.6675 h 0.852 v 1.704 h 0.8518 v 1.7038 h 0.852 v 0.852 h 0.852 v 0.852 h -0.852 v 0.852 h -1.7038 v -0.852 h -2.556 v -0.852 h 0.852 v -0.852 h -1.704 v -1.7038 h -2.5558 v 1.7038 l -0.8519,0.852 v 1.704 h -1.704 v 0.852 h 1.704 v -0.852 h 2.5558 v 0.852 h 1.7039 v 0.852 h 0.852 v 0.852 h 0.852 v 1.7038 h 0.852 v -1.7038 h 0.8518 v -1.704 h 0.852 v 4.2598 h 0.852 v 2.556 h 0.852 v 2.5559 h 0.852 v 9.3716 h 0.852 v 3.4078 l -0.852,0.852 h 0.852 l -0.852,0.852 h 0.852 v 0.8519 h -0.852 v 3.408 h 0.852 v 0.852 h 0.852 v 1.704 h 2.556 v -0.852 h 2.5558 v -0.852 h 0.8519 v -0.852 h 0.852 v 1.7038 h -0.852 v 1.704 h 0.852 v 1.7038 h 1.704 v 0.852 h 0.8518 v -2.5558 h -0.8518 v -1.704 h -0.852 v -0.852 h 0.852 v -0.852 h 0.8518 v 0.852 h 1.704 v 1.704 h -0.852 v -0.852 h -0.852 v 0.852 h 0.852 v 0.852 h 0.852 v 0.852 h 1.704 v 0.852 h -0.852 v 0.852 h 0.852 v 0.852 h 0.852 v -4.2598 h 0.852 v -0.852 h 0.8518 v 0.852 h 0.852 v 0.852 h -0.852 v 0.852 h 0.852 v 0.852 h 0.852 v 0.8519 h -0.852 v 2.5559 h 0.852 v -0.852 h 1.704 l 0.852,-0.852 h -0.852 v -1.7038 h 0.852 l 0.852,-0.852 h 0.8519 v -0.852 h 0.852 v -0.852 h 0.852 v -0.852 h 0.8484 v -0.852 h -0.852 v -0.852 h 0.852 v -0.852 h 0.852 v -1.704 h 1.7038 v -5.1117 h 0.852 v -2.556 h 0.852 v -0.852 h 0.852 v -0.852 h 0.8519 v -2.5558 h 0.852 v -1.704 l 0.852,-0.852 v -1.7038 h 0.852 v -2.5559 h 0.852 v -1.704 h 0.852 v -0.852 h 2.5558 v -2.5558 h 1.704 v -0.852 h 1.704 v -0.852 h 1.7038 v -0.852 h 6.8157 v 0.852 h 0.852 v 0.852 h 2.556 v 0.852 h 5.1118 l 0.852,0.852 h 6.8157 l 0.852,-0.852 h 6.8087 v 0.852 h 1.704 v 0.8519 h 0.8518 v 0.852 h 0.852 v 0.852 h 1.7039 v 0.852 h 0.852 v 0.852 h 1.704 v 0.852 h 1.704 v 0.852 h 3.4078 v 0.852 h 9.3752 v -0.852 h 3.408 v -0.852 h 0.852 v 0.852 h 4.2597 v -0.852 h 1.704 v -0.852 h 5.9638 v 0.852 h 0.852 v 5.9638 l 0.8518,0.852 v 1.704 h -2.5558 v 0.852 h 0.852 v 0.8519 h 0.852 v 0.852 h 0.8518 v 1.704 h 0.852 v 0.852 h 1.704 v 0.852 h 0.852 v 0.852 h 0.8485 v 0.852 h 0.8518 v 0.852 h 0.852 v 0.852 h 0.852 v 1.7038 h -0.852 v 1.7039 h -0.852 v 3.4079 h 0.852 v 5.1117 h -0.852 v 0.852 h -2.5558 v -0.852 h -5.1119 l -0.852,0.852 h 2.5559 v 0.852 h 1.704 v 0.852 h 2.556 v 0.852 h 0.852 v 0.852 h 0.8518 v 2.5559 h -0.8518 v 1.704 h -0.852 v 0.852 h -0.852 v 1.7038 h 0.852 v 1.704 h -2.556 v 0.852 h -0.852 v 0.852 h -0.852 v 1.7038 h 0.852 v -0.852 h 0.852 v -0.852 h 2.556 v -0.852 h 0.852 v -0.852 h 0.8518 v -0.8519 h 0.852 v -0.852 h 0.852 v -1.7038 h 0.852 v -0.852 h 0.852 v -0.852 h 0.852 v -0.852 h 0.852 v -0.852 h 1.7038 v -0.852 h 1.7039 v -0.852 h 3.408 v -0.852 h 0.852 l 0.852,0.852 0.8518,2.5558 0.852,0.852 -0.852,1.704 v 1.704 l -0.8518,1.7038 v 1.704 l 0.8518,1.7038 0.852,2.5559 0.852,1.7039 1.704,3.4079 0.852,4.2598 -0.852,2.556 0.852,3.4078 0.852,1.704 h 1.7038 l 1.704,0.852 v 5.9637 l 0.852,1.704 5.1117,2.5558 v 16.1875 l 0.852,2.5594 1.704,0.852 0.852,0.852 1.704,1.7038 0.8518,0.852 2.556,2.556 0.852,1.704 h 0.852 l 0.8519,-1.704 0.8519,-3.408 h 1.7039 l 2.5525,-0.852 h 3.4078 l 3.4078,0.852 1.704,-0.852 3.408,3.408 1.7038,2.556 2.556,2.5558 1.704,2.556 0.8519,1.7038 -1.7039,4.2598 -3.408,3.4079 -5.1118,4.26 -5.1118,5.9637 -5.1117,5.9638 -2.556,1.704 -5.1118,6.8157 2.5558,0.852 2.556,2.5558 4.2599,2.556 v 2.5558 l -1.7039,0.852 -0.852,2.556 -1.704,4.2599 -1.704,3.4078 -0.852,5.1118 -0.852,4.26 0.852,1.7039 0.852,1.7039 1.704,2.5559 -14.4833,9.3716 -0.8519,-0.852 -1.704,-2.556 -0.8519,-4.2598 -4.2598,-5.1117 -6.816,2.5559 -0.8518,-2.5559 -1.704,-2.556 -4.2597,-2.5558 -5.9603,2.5558 -5.9638,-5.1118 -1.704,2.556 -2.556,0.852 -3.4078,-5.112 1.704,-2.5558 1.7038,-1.7039 -1.7038,-1.704 -1.704,-3.4078 -3.4079,-2.556 -2.5558,-1.704 -2.556,-4.2598 -9.3717,-8.5199 -1.704,-0.852 h -5.1118 l -0.852,-1.7038 h -0.8518 l -0.852,-2.556 -0.852,-1.7038 -0.8483,-1.7039 -2.556,-1.704 -1.704,-1.7039 h -5.1118 l -1.7039,-1.7039 -2.556,5.1118 -0.8518,2.5559 v 1.704 l -0.852,2.5558 v 1.704 l 0.852,1.7038 2.5558,2.556 0.852,2.5558 v 1.704 l 0.8519,0.8519 v 0.852 l 1.704,1.704 v 11.9274 l -0.852,2.556 v 3.4077 l -0.852,2.556 -2.5559,1.7038 -0.852,0.852 h -1.7038 l -2.556,0.852 h -1.704 v 0.852 l -2.556,7.6676 -0.8518,0.852 v 1.704 l 0.8518,0.8518 v 5.1118 l 0.852,1.7039 v 4.2598 l -1.7038,0.852 -1.704,0.852 h -3.4079 l -3.4078,0.852 -6.8158,-1.704 -5.1118,11.0794 -4.2563,3.4079 -7.6676,6.8158 2.556,3.408 -4.2598,5.1117 3.4078,3.408 5.1118,-3.408 2.556,2.556 2.5558,1.7038 2.556,3.408 0.852,0.852 0.8519,1.7038 3.4078,-3.4078 0.852,-3.4078 11.0757,-6.8159 4.26,4.2599 5.9638,-1.704 11.072,15.3357 -26.4113,18.7433 -1.704,-0.852 -18.7397,14.4834 2.556,4.2597 2.5558,5.1118 -6.8156,4.26 -1.704,1.7038 -11.0757,5.9639 -1.704,-0.852 v -0.852 l -0.852,-1.7039 h -1.7039 l -2.556,-0.852 h -0.8518 l -0.852,-1.704 -0.852,-0.8518 h -5.1118 l -1.704,-0.852 h -3.4079 l -1.704,0.852 -2.5558,1.7038 -2.556,2.556 -2.5523,-4.2598 -2.5558,-3.408 2.5558,-2.5558 0.852,-1.704 v -1.704 l -2.5558,-2.5559 v -2.5558 l -0.852,-2.556 -1.704,-0.852 -1.704,-0.852 h -0.852 l -0.852,-1.7038 -1.704,-2.556 -0.8518,1.704 -2.556,0.852 -2.5558,0.8518 -2.5559,1.704 -0.852,0.852 -0.852,-0.852 -2.556,-2.5558 v -1.704 l -0.852,-1.704 v -0.852 h 2.556 l 0.852,-0.852 v -1.7038 l -1.704,-0.8519 -0.852,-0.852 v -5.112 l -0.852,-0.8518 -1.7038,0.8518 h -1.704 l -2.556,-2.5558 -3.4078,-2.556 -0.8519,-3.4078 v -4.2599 l 0.8519,-0.852 2.556,-0.852 1.7038,-0.8518 0.852,-0.852 -1.704,-2.556 -2.5558,-3.4078 -1.7039,-1.704 -0.852,-2.5559 -2.5558,1.704 -3.408,1.7039 -4.2598,3.4078 -2.5523,2.556 -0.852,-1.704 -2.555995,-4.2598 -2.556,-2.5559 -3.4078,-4.2598 -1.7039,-3.408 -0.852,-1.7038 -0.852,-0.852 -0.852,-1.704 0.852,-1.704 h 0.852 l 0.852,-1.7038 -1.704,-2.556 -3.4078,-0.8519 h -0.852 l -1.704,-1.704 h -0.852 l -0.8518,0.852 -0.852,0.852 -1.704,-0.852 -0.852,-0.852 -0.852,0.852 h -1.7039 l -1.704,-0.852 -1.7038,1.704 h -0.852 l -2.556,-1.704 -0.852,-1.704 v -2.5558 l -0.8518,-0.852 h -0.852 l -2.556,0.852 h -1.704 v -1.704 l 0.852,-2.556 v -5.9637 l -0.852,-0.852 -0.8519,-0.852 -1.704,0.852 h -1.7038 l -0.8486,-0.852 h -1.7038 l -1.7039,-0.852 v -3.4078 l -0.852,-1.704 v -1.7038 l 1.7039,-0.852 v -1.704 h -2.5559 l -0.852,-1.704 0.852,-0.8519 v -3.4078 h -1.7038 l -1.704,1.704 h -0.852 l -0.852,-2.556 v -0.852 l 0.852,-0.852 0.852,-1.704 h -1.704 l -3.408,-0.852 h -0.852 l -1.7038,0.852 -0.852,1.704 h -0.852 l -1.7039,0.852 h -0.852 l -1.7038,-0.852 -2.556,-0.852 -1.704,-1.704 -0.852,-1.7038 v -9.3717 l -2.5558,-0.8518 -0.852,-2.556 v -1.704 l -0.852,-0.852 -1.704,0.852 h -2.5558 l -1.7039,-3.4078 h -1.704 v -0.852 l -2.556,-0.852 -0.852,-0.852 v -2.5559 l 0.852,-1.7039 v -1.7039 l -0.852,-0.852 -0.852,-1.704 -2.5558,-0.852 -1.7003,0.852 -0.8520003,-1.704 -0.852,-1.7038 v -1.704 l -0.852,-0.852 h -2.5558 l -0.852,-1.7038 v -1.704 l -0.852,-0.852 -0.852,-0.852 v -3.4079 L 3.4741212e-5,694.32691 1.7039347,692.62291 l 0.852,-1.7038 v -1.704 l -0.852,-1.704 v -2.5558 l 0.852,-0.852 1.704,-0.852 1.704,-0.852 0.8518,-1.7039 h -3.4078 l -0.852,-1.704 v -2.5558 h 2.556 l 1.7038,-0.852 v -0.8556 l 1.704,-0.852 v -0.852 l 0.852,-0.852 0.8520003,-0.852 v -1.7038 l -1.7040003,-0.852 0.852,-2.556 1.7040003,-0.852 1.7038,-1.7038 v -2.556 l 0.852,-1.7039 1.7039,-0.852 0.852,-3.4078 3.408,-1.704 1.7038,-1.7038 2.556,-1.704 1.704,-0.852 1.7038,-1.7038 h 5.9638 l 0.8519,-2.556 1.704,-0.852 0.852,-0.852 h 3.408 l 0.8518,-1.704 1.704,-0.852 v -1.7038 l 0.852,-1.7039 0.852,-0.852 h 0.852 l 0.852,-2.5558 1.7038,-1.704 0.852,-1.704 0.8519,-0.852 v -0.852 l -0.8519,-1.7038 h -0.852 v -1.704 l 0.852,-2.5558 1.7039,-0.852 0.852,0.852 3.4044,-1.704 h 2.5559 l 1.7038,-1.7039 1.704,-0.852 3.4078,-3.4078 0.852,-1.704 0.852,-2.556 -0.852,-2.5558 -4.2598,-4.2599 v -11.9311 l 0.852,-3.4079 0.852,-0.852 0.852,-2.5558 1.7038,-2.556 0.852,-2.5558 4.26,-4.2599 h 3.4077 l 0.852,0.8519 1.704,-1.7038 h -0.852 l -1.704,-0.8519 0.852,-0.852 h 2.556 l 1.7038,-1.704 0.852,-3.4078 2.556,-2.556 0.852,-2.5594 1.704,-3.408 0.852,-2.5558 1.7038,-1.704 v 0.852 l 0.852,1.704 v 0.852 l 2.5559,0.852 v 2.5558 l 0.852,0.852 3.4078,0.8519 h 3.4078 l 2.552495,-0.8519 5.1118,-5.1118 1.704,-0.852 v 1.704 h -0.852 v 1.7038 h 0.852 v 0.852 h 0.852 v 2.5559 h 1.7038 v 0.852 h -0.852 v 1.704 h 0.852 v 0.852 h 0.852 v 2.5558 h 0.852 v 0.852 h -0.852 v 0.852 h -0.852 v 0.852 h -0.852 v 1.704 h 0.852 v 2.5558 h 0.852 v 0.852 h 0.852 v 0.852 h 1.7039 v 0.8519 h 0.852 v -0.8519 h 1.704 v -0.852 h 2.5558 v 2.5559 h 0.852 v 0.852 h 1.704 l 0.852,0.852 h 0.852 v 2.556 h 0.8518 v -2.556 h 2.556 v -0.852 h 0.852 v -0.852 h 1.7039 v -0.852 h 0.8519 v -0.8519 h 0.8519 v -1.704 h 0.852 v -0.852 h 0.852 v -2.556 h 0.852 v -1.7038 h 3.408 v -0.852 l 0.852,0.852 h 0.8518 v -2.556 h 1.704 v -0.852 h -0.852 v -3.4078 h 0.852 v -0.852 h 1.704 v -1.7039 h -0.852 v -0.852 h -1.704 v 0.852 h -2.5558 v -2.556 h -0.852 v -0.852 h -2.556 v -0.852 h -0.852 v -5.9638 h 0.852 v -0.8519 h 0.852 v -2.5559 h 0.852 v -2.5559 h 0.852 v -1.7038 h 0.852 v -0.852 h 0.852 v -1.704 h 0.8518 v -1.704 h 0.852 v -0.852 l 0.852,-0.852 v -0.852 h 0.852 v -3.4078 h -0.852 v -0.852 h 0.852 v -1.7039 h 0.852 v -0.852 h 2.5558 v -2.556 h 0.852 v -0.852 h 0.8519 v -0.852 h 0.8486 v -0.852 h 0.852 v 0.852 h 0.852 v 0.852 h -0.852 v 1.704 h 0.852 v 0.852 h 0.8518 v -0.852 h 0.852 v 0.852 h 1.7039 v 0.852 h 1.704 v -0.852 h 2.5558 v -0.852 h 1.704 v -0.852 h 0.852 v -0.852 h 0.852 v -0.852 z m 17.0392,70.7135 h -1.704 v 0.852 h -0.852 v 2.556 h 0.852 v 0.852 h 0.852 v 0.852 h 1.704 v -0.852 h -1.704 v -1.704 h -0.852 v -1.704 h 1.704 z m 10.2234,1.704 h -0.852 v 0.852 h -0.852 v 0.852 h 0.852 v -0.852 h 0.852 z m 89.4431,1.704 h -0.852 v 0.852 h 0.852 z m -103.0792,-7.6676 -0.852,0.852 h 0.852 z m 3.408,23.8549 -0.852,0.852 h 0.852 z m 6.8157,14.4834 h -0.8519 v 1.7039 h 0.8519 v -0.8519 h -0.8519 z m -0.8519,2.5559 h -0.852 v 0.852 h 0.852 z m 1.7039,3.4078 h -0.852 v 1.704 h -0.8519 v 0.852 h 0.8519 v -0.852 h 0.852 z m -6.8157,1.704 h -0.852 v 0.852 h -0.852 v 0.852 h 0.852 v -0.852 h 0.852 z m 413.176,-80.9357 v -2.556 h 0.8518 v 0.852 h 0.852 v 0.852 h -0.852 v 0.852 z m -3.408,-5.112 h -0.852 v -0.8519 h 0.852 v -0.852 h 0.852 v 1.7039 h 0.852 v -1.7039 h 0.852 v 2.5559 h -0.852 v 0.852 h -1.704 z m -7.6676,-20.4472 v -0.852 h 2.556 v 0.852 h 2.556 v 0.8519 h 0.852 v -0.8519 h 0.8518 v 3.4078 h 0.852 l -0.852,-0.852 h 0.852 v -0.852 h 0.852 v 0.852 h 0.852 v 5.1119 h -0.852 v 1.7038 h -0.852 v 0.852 h -0.852 v 0.852 h 1.704 v 0.852 h 0.852 l -0.852,0.852 h -0.852 v 1.704 h -1.7038 v 1.7038 h -2.556 v 0.852 h -0.852 v 0.852 h -0.852 v -0.852 h -0.852 v 0.852 h -0.852 v -1.7038 h -0.852 v 0.8519 h -0.852 v -3.4079 h 0.852 v -0.852 l 0.852,-0.852 v -2.5558 h 0.852 v -1.704 h 0.852 v -0.852 h -0.852 v -1.704 h -1.704 v -0.8519 h -0.852 v -3.4079 h 0.852 v -0.8519 z m 7.6676,6.8157 h -0.852 v 2.556 h 0.852 z m 5.9638,0 h -0.852 v -0.852 h 1.704 v 1.704 h -0.852 z m -440.4345,-23.8554 v -1.704 h 0.852 v 0.852 h 0.8518 v 0.852 z m -7.6676,-1.704 h -0.852 v -0.852 h 1.704 v 0.852 h 0.852 v 1.704 h -1.704 z m -1.704,-8.5199 v -0.852 h 0.852 v -0.852 h 2.556 v 0.852 h -0.852 v 0.852 h 2.5558 v 0.852 h 0.852 v 3.408 h -1.7038 v 0.852 h -0.852 v 0.852 h -0.852 v 0.8519 h -0.852 v -1.7039 h 1.704 v -0.852 h -2.556 v 3.4079 h -0.852 v 0.852 h -1.7038 v -0.852 h -1.704 v -0.852 h 0.852 v -0.8519 h 0.852 v -0.852 h 0.852 v -5.112 z m 7.6676,5.112 v -0.852 h 0.8518 v 0.852 h 0.852 v 1.7039 h -0.852 v 0.852 h 0.852 v 0.852 h -1.7038 v -2.5559 h -0.852 v -0.852 z m 610.8172,-31.5229 v -1.7039 h 0.852 v 0.8519 h 0.8518 v 0.852 z m 153.3425,-19.5952 h -1.7038 v 0.8519 h -2.556 v 1.704 h -5.1118 l -0.8519,0.852 v -0.852 h -3.408 v 0.852 h -0.852 v -0.852 h -2.5558 v 0.852 h -3.408 v 0.852 h -0.852 v -0.852 h -7.6637 v -0.852 l -0.852,0.852 h -1.704 v -0.852 h -3.4078 v -0.852 h -1.704 v 0.852 h -2.5559 v -0.852 h -0.852 v 0.852 h -1.7039 v -0.852 h -0.8519 v 0.852 h -2.556 v 0.852 h -5.1118 v -0.852 h -8.5163 v -0.852 h -1.704 v -0.852 h -2.5559 v 0.852 h -1.7038 v 0.852 h -0.852 v -0.852 h -1.704 v 0.852 h -1.704 v -0.852 h 1.704 v -0.852 h -0.852 v -0.8519 h 0.852 v -0.852 h -1.7111 v 0.852 h -2.5523 v 0.852 h -0.8519 v 0.852 h -0.852 v -0.852 h -0.8519 v 0.852 h -1.704 v -0.852 h -1.704 v -0.852 h -1.704 l -0.852,-0.852 v 0.852 h -3.4078 v -0.852 h -0.852 v 0.852 h -5.1117 v 0.852 h -0.852 v -1.704 h -1.704 v -0.852 h -0.8518 v -0.852 h -0.852 v 0.852 h -1.704 v 0.852 h 0.852 v 0.852 h -2.556 v -0.852 h -0.852 v 0.852 h -1.704 v 0.852 h -0.8519 v 0.852 h -0.8519 v 0.852 h -1.704 v 0.852 h -2.5559 v -1.7038 h 0.852 v -0.852 h 0.8519 v -0.852 h -2.5559 v 0.852 h -2.5558 v 0.852 h -0.852 v 0.8519 h -0.852 v -0.8519 h -4.26 v 1.7038 h -0.8518 v 0.852 h -0.852 v 0.8519 h -0.8485 v 0.852 h -1.7038 v -2.5557 h 0.852 v -0.852 h 0.8518 v -1.704 h -0.8518 v 0.852 h -0.852 v 0.852 h -1.704 v 0.852 h -0.852 v 0.8519 h -3.4078 v -0.8519 h 0.852 v -0.852 h -0.852 v 0.852 h -0.852 v -0.852 h -0.852 v -1.704 h -0.852 v -0.852 h -0.8519 v 0.852 h 0.8519 v 3.4079 h 0.852 v 0.852 h 1.704 v 0.852 h 0.852 v 0.852 h 1.7038 v 2.556 h -0.852 v 0.852 h -0.8518 l -0.852,0.852 h -1.704 v -0.852 h -1.7039 v -0.852 h -0.852 v -0.852 h -0.852 v 0.852 h 0.852 v 0.852 h -1.704 v 0.852 h 0.852 v 1.7038 h -0.852 v 0.852 h -3.4078 v -0.852 h -1.704 v -0.852 h -0.852 v -0.852 h -0.852 v -0.852 h -0.8518 v -1.7038 h -0.852 v 2.5558 l 0.852,-0.852 v 1.704 h -0.852 v 0.852 h 0.852 v 0.852 h -0.852 v 1.7038 h -0.852 v 0.852 h -3.4079 v -0.852 h -0.852 l 0.852,-0.852 h -0.852 v -5.1118 h 0.852 v -0.852 h -0.852 v -2.5558 h 0.852 v -0.852 h -1.704 v 1.7038 h -0.852 v 1.704 h 0.852 v 0.852 h -0.852 v 0.852 h -0.8518 v -0.852 h -0.852 v 1.704 h -0.852 v 0.852 h -0.852 v 0.852 h -0.852 v 0.852 h -0.852 v 0.852 h -1.7038 v 2.5558 h -1.704 v -1.7038 h -0.852 v -0.852 h -0.852 v -1.704 h 0.852 v -0.852 h -0.852 v -1.7038 h -0.852 v -0.852 h -0.8518 v 1.7038 h -0.852 v 2.556 h 0.852 v 1.7038 h -0.852 v -0.852 h -1.7039 v 1.704 h -0.852 v 1.7038 h -0.852 v 0.852 l -0.852,0.852 v 0.852 l -0.8484,0.852 -1.704,1e-4 v 0.8518 h -1.7039 v -0.8519 h -0.852 v 1.7039 h -0.852 v -2.5559 h -0.8518 v 0.852 h -0.852 v -0.852 h -0.852 v 1.7039 h 0.852 v 0.852 h -1.704 v 0.852 h -0.852 v 1.704 h -0.852 v -1.704 h 0.852 v -0.852 h 0.852 v -0.852 h -0.852 v -0.8519 h -0.852 v 1.7039 h -0.852 v 0.852 h -1.704 v 0.852 h 0.852 v 0.852 l -0.852,0.852 v 0.852 h -2.5558 v -1.704 h -0.852 l 0.852,-0.852 h -0.852 v -3.4078 h -0.852 v -0.852 l 0.852,-10e-5 v -2.5558 h 0.852 v -1.704 h 0.852 v -3.4078 h -0.852 v -0.852 h -0.852 v 4.2598 h -0.852 v 1.704 h -1.7039 v -0.852 h -0.8519 v -0.852 h -0.8519 v -0.8518 l -0.852,0.852 h 0.852 v 0.8519 h 0.8519 v 1.7039 h 0.8519 v 5.1117 h -0.8519 v 0.852 h 0.8519 l -0.8519,0.852 v 1.704 l -0.8519,0.852 v -0.852 h -0.852 v 1.7038 h -0.852 v 0.852 h -0.852 v 0.852 h 0.852 v 0.852 h -1.704 v 1.704 h -4.2598 v -2.556 h 0.852 v -1.704 h 0.852 v -1.7038 h -0.852 v -1.704 h -0.852 v -0.852 h -0.852 v -0.852 h -0.852 v -0.852 h -0.852 v -0.852 h -0.852 v 1.704 h 0.852 v 1.7038 h 0.852 v 0.852 h 0.852 v 4.26 h -0.852 v 1.704 h -0.852 v 2.5558 h -0.852 v 1.7039 h -4.2597 v -0.8519 h -0.852 v 0.8519 h -0.852 v -0.8519 l -0.852,0.8519 v -1.7039 h -0.852 v -1.7038 h -0.8518 v -4.26 h 0.8518 v -3.408 h -0.8518 v 2.556 h -0.852 v 2.556 h -0.852 v -0.852 l -0.852,0.852 h 0.852 v 0.852 h 0.852 v 4.2598 h 0.852 l -0.852,0.8519 v 0.852 h 0.852 v 0.852 h -0.852 v 0.852 h -0.852 v 0.852 h -1.704 v 0.852 h -1.704 v 0.852 h -2.5523 v 0.852 h -2.556 v -1.704 h -0.8518 v 0.852 h -1.704 v 0.852 h -0.852 v 0.852 h -1.704 v -1.7038 h -0.852 v -1.704 h -0.8518 v -0.852 h -0.852 v -0.852 h -1.7039 v -0.852 h -0.852 v -1.704 h 0.852 v -1.7038 h 1.7039 v -0.852 l 0.852,-0.852 v -1.7039 h 0.8518 v -0.852 h -0.8518 v 0.852 h -0.852 v 1.7039 h -0.852 v 0.852 h -0.8519 v 0.852 h -0.852 v 0.852 h -0.852 v -4.2598 h -1.704 v -0.852 h -0.852 v 0.852 h 0.852 v 0.852 h 0.852 v 0.852 h -0.852 v 1.7038 h 0.852 v 0.852 h 0.852 v 0.852 h -0.852 v 0.852 h 0.852 v 1.704 h 0.852 v 0.852 h 0.852 v 0.852 h 0.8519 v 0.8519 h 0.852 v 2.5559 h -0.852 v 2.5559 h -0.8519 v 0.852 h -1.704 v -0.852 h -3.408 v -0.852 h -1.7038 v -0.8519 h -1.704 v -0.852 h -0.852 v -0.852 h -0.852 v 0.852 h 0.852 v 0.852 h 0.852 v 0.8519 h 0.852 v 0.852 h 0.852 v 0.852 h 0.852 v 0.852 h 0.8518 v 1.704 h -3.4078 v -0.852 h -0.852 v -0.852 h -2.5558 v -0.852 h -1.704 v 0.852 h -0.852 v 0.852 h 1.704 v 0.852 h 3.4078 v 1.7038 h -1.704 v 0.852 h -0.8518 v 1.704 h -0.852 v 0.852 h -2.5559 v 0.852 h -2.556 v -0.852 h -0.852 v -0.852 h -1.7038 v -0.852 h -1.704 v -1.704 h -0.852 l 0.852,-0.852 h -2.556 v 0.852 h 1.704 v 2.5558 h 0.852 v 0.852 h 0.852 v 0.852 l -0.852,0.852 v 1.704 h -0.852 v 0.852 h -0.852 v -0.852 h -0.852 v -0.852 h -0.852 v -0.852 h -0.8518 v 1.704 h -0.852 v 0.852 h -1.704 v 0.852 h -0.852 v 0.8519 h -1.7039 v -1.7039 h -0.8484 v 2.5559 h -0.852 v 0.852 l -0.852,0.852 v -0.852 h -1.704 v -0.852 h -0.852 v 1.7038 h 0.852 v 0.852 h -0.852 v 0.852 h -0.8518 v 0.852 h -0.852 v 0.852 h -1.7039 v 0.852 h -1.704 v 4.2598 h -0.852 v 1.704 h -0.8518 v 0.852 h -2.556 l -0.852,0.852 h -0.852 v 0.8519 h -0.852 v 1.7038 h -1.704 v 0.852 h -0.852 v 0.852 h -0.8518 v 0.852 h -0.852 v 1.704 h -0.852 v -1.704 h -1.7039 v 0.852 h 0.852 v 0.852 h 0.8519 v 2.556 h -0.8519 v 1.704 h -0.852 v 0.852 h -0.852 v 0.8519 h -0.852 v 2.5559 h -0.8519 v 0.8519 h -0.8519 v 1.704 l -0.852,0.8555 v 1.704 h -0.852 v 0.852 h -0.852 v 2.5558 h -0.852 v 2.5559 h -0.8518 v 1.704 h -0.852 v 3.4078 h -0.852 v 1.704 l -0.852,0.852 v 1.7038 h -0.852 v 0.852 h -0.852 v 3.408 h -0.852 l 0.852,0.8519 h -0.852 v 1.7039 h -0.852 v 0.852 h 0.852 l -0.852,0.8519 v 2.556 h 0.852 v 2.556 h -0.852 v 1.7038 h 0.852 v 0.852 h -0.852 v 13.6317 h 0.852 v 2.5558 h 0.852 v 1.704 h 0.852 v 5.1117 h -1.704 v 0.852 h -1.7039 v 0.852 h -1.7039 v 1.7038 h -0.852 v -1.7038 h -1.7039 v -1.704 h -0.852 v -2.5558 h -0.852 v -0.852 h -0.852 v 0.852 h -0.8518 v -1.7039 h -0.852 v 2.5559 h 0.852 v 0.852 h 1.7038 v 3.4078 h 0.852 v 0.852 h -1.704 v 0.852 h -0.8518 v -2.5558 l -0.852,-0.852 v -1.704 h -2.5525 v -1.7038 h 0.852 v -1.704 h -0.852 v -3.4079 h -0.852 v 1.704 h -0.852 v -2.556 h 0.852 v -0.852 h 0.852 v -0.852 h 1.704 v -1.7038 h -0.852 v 0.852 l -0.852,-0.852 v 0.852 h -0.852 l -0.852,-0.852 v -0.852 h -0.8518 v -0.852 h 0.8518 v -0.852 h -1.7038 v 1.7038 h -1.704 v 0.852 h 0.852 v 1.704 h -0.852 v -0.852 h -0.852 v 0.852 h -0.852 v -1.704 h -0.8518 v -0.852 h -1.704 v -3.4078 h -0.852 v 3.4078 h 0.852 v 0.852 h -0.852 v 2.556 h -0.852 v -1.704 h -0.852 v -2.5558 h 0.852 v -0.852 h -0.852 v 0.852 h -1.7039 v -3.408 h 0.852 v -2.5558 h -0.852 v -0.852 h 0.852 v -1.7039 h -1.704 v 3.4079 h -0.852 v 0.852 h -0.852 v -0.852 h 0.852 v -0.852 h -0.852 v -1.7039 h -1.7038 v 2.5559 h -0.852 v 0.852 h -0.852 v 0.852 h -0.852 v -1.704 h -0.852 v 0.852 h -0.8518 v -6.8158 h -0.852 v -4.2597 h 0.852 v -0.852 h 0.8518 v -0.852 h -0.8518 v -1.704 h -2.556 v 1.704 h -0.852 v -5.1118 h -0.852 v 1.7038 h -1.7038 v -2.5558 h -0.852 v 0.852 h -0.852 v -3.408 h -0.852 v -1.7039 h -0.852 v -3.4078 h -0.8519 v -0.852 h -1.704 v -0.852 h 0.852 v -0.852 h -0.852 v -1.704 h 0.852 v 0.852 h 1.7039 v 0.852 h 1.704 v 0.852 h 2.5558 v -0.852 h 1.704 v -3.4078 h 0.852 v -0.852 h -0.852 v -0.852 h 0.852 v -2.556 h 0.852 v 0.852 h 2.5558 v 4.26 h 0.852 l -0.852,0.852 h 0.852 v -1.704 h 1.704 v -0.852 h 0.852 v 1.704 h 0.852 v 0.852 h 1.7038 v 0.852 h 0.852 v -1.704 h -2.5558 v -1.704 h 0.8518 v -0.852 h 0.852 l 0.852,-0.852 h 0.852 v -0.8518 h 0.852 v -0.852 h -0.852 v 0.852 h -2.556 v -2.556 h -0.8518 v 1.704 h -0.852 v 0.852 h -0.852 v -2.556 h 0.852 v -0.852 h -0.852 v -0.8519 h -0.852 v -2.5559 h 0.852 v -1.7039 h 0.852 v -3.4078 l -0.852,0.852 h -0.852 v -0.852 h -0.852 v -1.704 h 0.852 v 0.852 h 0.852 v -2.556 h 0.852 v 2.556 h 1.7038 v -1.704 h 0.852 v -1.7038 h 0.852 v -0.852 h 1.704 l 0.8519,-0.852 v -0.852 h 3.408 v -0.852 h -0.852 v -0.852 h -2.556 v 0.852 h -1.7039 v 0.852 h -0.852 v -0.852 h -0.852 v 0.852 l -0.852,0.852 h -0.8518 v -0.852 h 0.8518 v -0.852 h 0.852 v -0.852 h -0.852 v 0.852 h -1.7038 v 0.852 h -1.704 v 0.852 h -0.852 v -1.704 h 0.852 v -0.852 h -0.852 v -2.5559 h 0.852 v -1.704 h -0.852 v 0.852 h -0.852 v -1.704 h 2.556 v -0.852 h 0.852 v -2.5558 h 0.852 v -1.704 h 0.8518 v -0.852 h -0.8518 v 0.852 h -0.852 v 0.852 h -1.704 v 0.852 h -0.852 v -0.852 h -0.852 v 0.852 h -0.8518 v 1.704 h -0.852 v -2.556 h 0.852 v -1.7038 h 0.8518 v -0.852 h -2.5558 v 2.5558 h -1.704 v -0.852 h -0.852 v 0.852 h -0.852 v -0.852 l -0.8518,-0.852 v -0.852 h -0.852 v -4.2598 h -0.852 v -2.5558 h 0.852 v -1.7039 h 1.7038 v -1.704 h 0.852 v -1.7038 h 0.852 v -0.852 h 0.852 v -1.704 h 0.852 v -0.852 h 0.852 v -1.7038 h 0.852 v -0.852 h 0.8518 v -0.852 h 0.852 v -0.852 h 1.704 v -0.852 h 0.852 v -0.852 h 0.852 v -0.852 h 0.8518 v -0.8519 h 1.704 v -0.852 h 0.852 v -0.852 h 1.7039 v -0.852 h 5.9638 v -0.852 h 0.852 v 2.5558 h -0.852 v 0.852 h 0.852 v 0.852 l -0.852,0.8519 h 4.2598 v 0.852 h -0.8518 v 1.704 l -0.852,0.852 v 0.852 h 0.852 v 0.852 h 0.8518 v -0.852 l 0.852,-0.852 v -0.852 h 0.852 v -0.852 h 0.852 v -0.852 l 0.852,-0.852 v 0.852 h 1.7039 v -0.852 h 0.852 v -0.8519 h 0.852 v -1.704 h 0.852 v 0.852 h 0.8518 v 0.852 h 0.852 v -0.852 h 2.556 v -3.4078 h 0.852 v 2.5558 h 0.852 v -1.7038 h 1.7038 v -1.704 h 0.852 v 0.852 h 0.852 v -2.556 h 2.556 v 0.852 h 0.8519 v -0.852 h 2.5558 v -0.852 h 1.704 v 0.852 l 0.852,-0.852 v 1.704 l 0.852,0.852 v 0.852 h 0.852 v -0.852 h -0.852 v -2.556 h -1.704 v -0.852 h -4.2598 v -0.852 h 0.852 v -0.852 h 1.7038 v -1.7038 h 1.704 v 0.852 h 1.704 v -1.704 h -0.852 v 0.852 h -0.852 v -0.852 h -0.852 v -1.7039 h -0.852 v -4.2598 h 1.704 v -0.852 h 0.852 v -0.852 h 2.556 v -0.852 h 5.9638 v 0.852 h 1.7038 v 1.704 h 0.852 v 0.852 h 0.8519 v 2.5558 h 0.852 v 0.852 h 0.852 v -1.7039 h -0.852 v -0.8519 h 0.852 v -0.852 h -0.852 v -2.556 h 0.852 v -0.852 h 0.852 v -0.852 h 0.852 v 0.852 h 1.704 v 1.704 h 1.7038 v -0.852 h -0.852 v -1.704 h 0.852 v -0.852 h -0.852 v -1.7038 h 0.852 v -0.852 h 1.7003 v -0.852 h 1.704 v -0.852 h 3.408 v -0.852 h 1.704 v 1.7039 h 5.9638 v 0.8519 h 0.8519 v 0.852 h 0.8519 v 0.852 h -0.8519 v 0.852 h 0.8519 v 0.852 h 0.8519 v 0.852 h 3.408 v -0.852 h 5.1118 v -0.852 h -5.9638 v -2.5558 h -0.852 v -0.852 h 0.852 v -0.852 h 1.704 v 0.852 h 3.4078 v -0.852 h 0.852 v -2.5559 h 1.704 v -0.852 h 1.704 v -0.852 h 1.7038 v 0.852 h 5.1119 v -0.852 h 0.8518 v 0.852 h 0.852 v 0.852 h 4.26 v 0.852 h 1.704 v -0.852 h -1.704 v -0.852 h -0.852 v -0.852 h -2.556 v -0.852 h -0.852 v -0.852 h -0.852 v -0.852 h -0.8518 v -0.852 h -1.704 v 0.852 h -2.5559 v 0.852 h -0.852 v -0.852 h -1.7038 v -1.704 h -0.852 v -0.852 h -0.852 v -0.852 h 0.852 v -7.6675 h 1.704 v -0.852 h 0.8518 v 0.852 h -0.8518 v 0.8519 h 0.8518 v 0.852 h 0.852 v 0.852 h 2.5559 v -0.852 h 0.852 v -0.852 h 3.4078 v -0.8519 h 3.408 v 0.8519 h 2.556 v 0.852 h 2.5558 v 0.852 h 0.8519 v -1.7038 h -0.8519 v -1.704 l 0.8519,-0.852 h 2.5524 v -0.8519 h 6.8157 v 0.8519 h 1.704 v 3.408 h 0.852 v 0.852 h 0.852 v 2.5558 h 1.7038 v 1.704 h 0.852 v -3.408 h -0.852 v -1.7038 h 0.852 v -1.704 h -0.852 v -2.5558 h -0.8518 v -0.852 h -0.852 v -2.5594 h 3.4078 v 0.852 h -1.704 v 0.852 h 1.704 l 0.852,0.852 h 0.852 v 0.852 h 0.852 v 1.7038 h 1.7038 v -2.5558 h -0.852 v -0.852 h 0.852 v -0.852 h -0.852 v -1.704 h -0.8518 v -0.852 l 0.8518,-0.852 h 0.852 v -0.852 h 0.852 v 0.852 h 0.852 v 0.852 h 2.5559 v 0.852 h 1.704 v 1.704 h 0.852 v -0.852 h 0.852 v 0.852 h 0.8518 v 0.852 h 1.704 v -0.852 h -0.852 v -0.852 l 0.852,-0.852 h 0.852 v -0.852 h -0.852 v -0.852 h -0.852 v -0.852 h -2.5558 v -0.852 h 1.7038 v -0.852 h -0.8518 v -1.7039 h 0.8518 v -0.852 h 0.852 v -1.704 h 5.1118 v 1.704 h -0.852 v 0.852 h 0.852 v 0.852 h 0.852 v -0.852 h 1.704 v 0.852 h 2.5558 v 0.8519 h 0.852 v -0.8519 h 0.852 v 0.8519 h -0.852 v 1.7039 h 0.852 v 0.8519 h -0.852 v 0.852 h 2.5559 v 0.852 h 1.704 v 0.852 h 0.852 v -1.7038 h -2.556 l -0.8519,-0.852 v -1.704 h 0.8519 v -1.7039 h -0.8519 v -0.852 h 1.7039 v -0.852 h -0.852 v -1.7038 h -1.7039 v -0.852 h -1.704 v -0.852 h -0.8519 v -0.852 h -0.8519 v -1.704 h 0.8519 v -0.852 h 0.8519 v 0.852 h 6.8123 v 0.852 h 2.5559 v -0.852 h -0.852 v -1.704 h -0.852 v -0.852 h 3.4079 v -0.852 h -0.8519 l 0.8519,-0.852 h -0.8519 v -0.8519 h -2.556 v -0.852 h -0.8519 v 0.852 h -0.852 v -0.852 h -1.7038 v -0.852 h 1.7038 v -0.852 h 0.852 v -0.852 h 0.8519 v -0.852 h 0.852 v -0.852 h -0.852 v -1.7038 h 0.852 l 0.852,-0.852 h 0.852 v -0.852 h 3.4078 v 2.5558 h -0.852 v 0.852 h 0.852 v -0.852 h 1.704 v 1.704 l -0.852,0.852 v 1.704 h -0.852 v 0.852 h -0.852 v 0.852 h 2.556 v 0.8519 h 0.852 v -1.7039 h 0.852 v -0.852 h 1.704 v -0.852 h 6.8156 v -0.852 h -0.8519 v -2.556 h -0.852 v -1.7038 h 2.5559 v -0.852 h 2.5559 v 0.852 h 1.704 v 0.852 h 0.8518 v 1.7038 h 1.704 v 0.852 h -0.852 v 0.852 h 0.852 v 2.556 h 0.852 v 0.852 h 1.704 v 0.8519 h 1.704 v -1.7039 h -0.852 v -1.7038 h 0.852 v -0.852 h 0.8519 v -4.2598 h 0.852 v -0.852 h 1.7039 v 0.852 h 5.1117 v 0.852 h 1.704 v 0.852 h 3.408 v -1.704 h -0.852 v -0.852 h -1.704 v -0.852 h -0.852 v -0.852 l 0.852,-0.852 0.852,0.852 v -0.852 h 0.852 v 0.852 h 1.704 v 0.852 h 1.7003 v -0.852 l 0.852,0.852 h 3.4078 v 0.852 h 0.852 v -0.852 h 1.704 v -2.55598 h 2.5558 l 0.852,-0.85199 v 0.85199 h 1.704 v 1.70398 h 1.7039 v -1.70398 h -0.852 v -0.85199 h 1.704 v -1.70381 h 1.704 v 0.85199 l 0.852,-0.85199 v 1.70381 h -1.704 v 2.55597 h 0.852 v -0.852 h 1.7038 v 0.852 h 0.852 v 0.852 h 0.852 v 0.852 h 2.556 v 0.852 h 1.7038 v -0.852 h 1.704 v 0.852 h 0.852 v 0.852 h 1.7039 v 0.852 h 0.852 v -0.852 h -0.852 v -0.852 h 0.852 v -0.852 h -0.852 v -1.704 h -0.8519 v -1.70398 h 1.7039 l 0.852,0.85198 v -2.55579 h -1.704 v -0.85199 h 0.852 v -0.852 h 1.7075 v -0.85199 h 0.852 v 0.85199 h 0.852 v 0.852 h 2.5558 v 0.85199 h 0.852 v 0.85199 h -4.2598 v 0.85199 h 1.704 v 0.85201 l 0.852,-0.85201 v 0.85201 h 0.8518 v 0.852 h 0.852 v 0.852 h 0.8519 v 0.852 h -3.4077 v 0.8519 h -2.556 v 1.7039 h 0.852 v 0.8519 h 1.704 v 0.852 h 0.852 v -1.7038 h 0.8518 v 0.852 h 1.7039 l -0.8519,0.852 h 0.8519 v -0.852 h 0.852 v 0.852 h 0.852 v -1.704 h 1.704 v -0.852 h 0.8518 v -1.7038 h -1.7038 v -1.704 h 0.852 v -0.8519 h 1.7038 v -1.70403 h 1.704 v -0.85199 h 0.852 v -0.85199 h 0.852 v 1.70398 h 0.8483 v -0.85199 h 0.852 v 0.85199 h 1.704 v 1.70383 h 2.556 v 1.704 h 1.7038 v 0.852 h -0.852 v 0.8519 h 0.852 v 0.852 h 0.852 v 0.852 h 0.852 v 0.852 h 1.704 v 0.852 h 0.852 v 0.852 h -0.852 v 0.852 h -1.704 v 1.7038 h 0.852 v 0.852 h 2.5558 v -0.852 h 0.852 v -0.852 h 0.852 v -0.852 h 0.8519 v 0.852 h 0.852 v 0.852 h -0.852 v 2.556 h 2.556 v 0.852 h 0.852 v -0.852 h 3.4078 v 0.852 h 1.704 l 0.852,-0.852 h 1.704 v -0.852 h 0.8518 v 0.852 h 1.704 v 0.852 h 0.852 v 1.704 h -0.852 v 1.7038 h 1.7039 v 0.852 h 0.852 v -0.852 h -0.852 v -0.852 h 1.704 v -0.852 h 1.7039 v 1.704 h 0.8519 v -0.852 h 0.852 v -0.852 h 0.852 v 1.7038 h 0.852 v 1.704 h 0.852 v -0.852 h 0.852 v -1.704 h -0.852 v -0.852 h 1.704 v -0.852 h 0.852 v 0.852 h 0.8518 v -0.852 h 0.852 v -0.852 h 1.704 v 0.852 h 0.852 v 1.704 h 1.7003 v -0.852 h 0.852 v 0.852 l 0.852,-0.852 h 0.852 v -0.852 h 0.852 v -0.852 h 1.704 v 1.704 h 0.8518 v 1.7038 h 0.852 v 1.704 h 1.7039 v -0.852 h 0.852 v -1.704 h 0.852 v -0.852 l 0.852,-0.852 h -0.852 v -3.4077 h 0.852 v -0.852 h 1.7038 v -0.852 h 2.556 v 1.7038 h 0.852 v -0.852 h 0.8518 v -1.7038 h 1.704 v 0.852 h 1.704 v -1.704 h 1.704 v 1.704 h 2.5559 v -0.852 h -0.852 v -0.852 h 0.852 v -0.852 h 0.852 v 0.852 h 2.5558 v -0.852 h 1.704 v -0.852 h 0.852 v 0.852 h 0.8518 v 0.852 h 1.704 v -0.852 h 5.1119 v 0.852 h 0.852 v 0.852 h 1.7039 v 0.852 h 0.852 v 2.5558 h 1.7039 v 0.852 h 0.852 v 2.5559 h 0.852 v 4.2598 h -0.852 v 3.4078 h 0.852 v 0.852 h -0.852 v 0.852 l -0.852,0.852 v 0.852 h 0.852 v 0.852 h -0.852 v 0.852 h -2.5559 v 0.852 h -0.852 v 0.8519 h -0.8519 v 0.852 h -0.852 v 0.852 l -0.8519,0.852 h 0.8519 v 0.852 h 0.852 v 0.852 h -3.4079 v 0.852 h -0.852 v 0.852 h -0.852 v 0.852 h -1.704 v 0.852 h -3.4078 z m -265.7919,24.7074 h -0.8518 v 0.852 h 0.8518 z m 35.7832,2.5558 h -0.852 v 1.7039 h 0.852 v 0.852 h 0.8519 v -0.852 h -0.8519 z m -1.704,-7.6674 h -1.704 v 0.852 h 1.704 v 0.8519 h -0.852 v 0.852 h 1.704 v 0.852 h -0.852 v 0.852 h 0.852 v 2.5558 h 0.852 v -4.2598 h -0.852 v -1.7039 h -0.852 z m -3.4078,-5.112 h -0.852 v 0.852 h 0.852 z m 96.2612,-9.3715 h -0.852 v 2.5559 h 0.852 z m -19.595,0 h -1.704 v 2.5559 h 0.852 v 0.852 h 1.7038 v -0.852 h -0.8518 z m 40.8947,-5.9638 -0.8519,0.852 h 0.8519 z m 20.4473,-34.0826 h -0.8518 v 0.852 h 0.8518 z m -137.1616,53.6739 h -1.704 v 1.704 h 0.852 v -0.852 h 0.852 z m -100.5197,86.9054 h -0.8519 v 0.852 h 0.8519 z m 117.5609,-92.8629 h -0.8518 v 1.7038 h 0.8518 z m -106.4917,60.4896 h -0.8519 v 1.704 h 0.8519 v 0.852 h 1.704 v -0.852 h -0.852 v -0.852 h -0.852 z m 62.1939,-12.7798 h -0.852 v 0.8519 h 0.852 z m -40.0424,83.4927 h -0.852 v 0.852 h 0.852 z m 62.1902,-98.8277 h -0.852 v 0.852 h 0.852 v 0.8519 h 1.7039 v -0.8519 h -1.7039 z m 264.0931,-239.41139 v -7.66775 h 5.9639 v 0.85199 h 0.8518 v 0.85199 h 0.852 v 4.25978 h -1.7038 v 0.852 h -1.704 v 0.85199 h -1.704 v -0.85199 h -1.704 v 0.85199 z m -4.2598,-5.96377 h -0.852 v -0.85199 h 1.704 v -0.85199 h 0.852 v 1.70381 h -0.852 v 2.55597 h 0.852 v 0.85199 h -2.556 v -1.70398 h 0.852 z m 34.9306,-26.4107 v -0.85199 h 1.704 v 0.85199 h 2.556 v 0.85199 h 0.8518 v 2.55581 l 0.852,-0.852 v 0.852 h 0.8519 v 0.85199 h 1.7004 v 0.85199 h 1.704 v -0.85199 h 0.852 v 0.85199 h 0.852 v 0.85199 h 4.2597 v 0.85199 h 0.852 v 0.85199 h 0.852 v 0.852 h -0.852 v 1.70398 h -0.852 v 0.85199 h -0.8518 v 2.5558 h -0.852 v 0.85199 h -0.852 v 0.85199 h -0.8519 v 0.852 h -2.556 v 0.85199 h -0.852 v 0.85199 h -1.704 v 0.85199 h -0.8518 v -0.85199 h -2.556 l -0.852,0.85199 h -0.852 v 0.85199 h -0.852 v 0.85199 h 0.852 v 0.852 h -1.7038 v -0.852 h -0.852 v 1.70399 h -1.704 v 0.85199 h -2.5559 v -1.70398 h -0.852 v -1.70381 h -0.852 v -1.70399 h 0.852 v -0.85199 h -0.852 v -1.70381 h -2.5558 v 0.85199 h -1.704 v -0.85199 h -2.556 v -0.85199 h 0.852 v -5.11195 h 1.704 v -0.85199 h 0.852 v -1.70381 h 0.852 v -0.85199 h 0.852 v -0.85199 h 0.8518 v -0.852 h 0.852 v -0.85199 h 0.852 V 235.105 h 1.704 v -0.85199 h 1.7039 v -0.85199 h 0.852 v -0.85199 z m 40.03577,4.25979 v -0.85199 h 3.4079 v 0.85199 h 0.8519 v 0.85199 l 0.8519,-0.85199 v 0.85199 h 0.852 v 1.70381 h 0.852 v 0.85199 h 0.852 v 0.85199 h 0.852 v 1.70399 h -0.852 v 2.55597 h -0.852 v 1.70381 l -0.852,-0.85199 h -0.852 v 0.85199 l -0.8519,0.85199 v 1.70398 h -0.8519 v -0.85199 h -0.8519 v -0.85199 h -0.852 v 0.85199 h 0.852 v 1.70381 h 0.8519 v 0.85199 h -1.7039 v 1.70399 h -1.704 v 0.85199 h -0.852 l -0.852,0.85199 h -2.556 v 0.85199 h -0.8518 v 0.85199 h -7.66757 v -0.85199 h -3.4078 v -0.85199 h -0.852 l -0.8519,-0.85199 h -3.4078 v -5.11178 h 0.852 v -0.85199 h -0.852 v -3.40797 h 2.5558 v -0.85199 h 1.7039 v -0.85199 h 0.852 v -0.85199 h 1.704 v -0.85199 h 10.22687 v -0.85199 h 0.8519 v -2.5558 h 1.704 v -0.852 h 0.852 z m -68.15067,-4.25979 h -0.852 v -0.85199 h 1.704 v 0.85199 h 0.852 v 0.85199 h 1.704 v 0.852 h 0.8518 v 0.85199 h 2.556 v 0.85199 h 0.852 v 1.70381 l 0.852,-0.85199 v 0.85199 l 0.852,0.85199 v 0.85199 h 0.8518 v 1.70399 h 0.852 v 6.81575 h -0.852 v 0.852 h -0.8518 v -1.70399 h -1.704 v -0.85199 h -0.852 v -0.85199 h -0.852 v 0.85199 h -2.5558 v 0.85199 h -2.556 v 0.85199 h 0.852 v 0.852 h -1.704 v 0.85199 h -0.852 v 0.85199 h -0.852 v -1.70381 h -1.7039 v 0.85199 h -1.7038 v 0.85199 h -0.852 v -0.85199 h -0.852 v -3.40797 h -0.852 v -2.5558 h 0.852 v -1.70398 h 0.852 v -0.85199 h 0.852 v -0.85199 h 0.8518 v -0.85199 h 0.852 v -0.852 h -0.852 v -0.85199 h -0.8518 v 1.70399 h -1.704 v 1.70381 h -0.852 v 0.85199 h -1.704 v 0.85199 h -0.852 v 0.85199 h -0.8518 v 1.70398 h -3.408 v -0.85199 h -1.704 l 0.852,-0.85199 h -1.7038 v -0.85199 h -0.852 v -0.85199 h -0.852 v -0.85199 h -0.8519 v -2.55581 h 0.8519 l 0.852,-0.85199 h 3.4078 v -2.55597 h 0.852 v -0.85199 h 0.852 v -1.70399 h 0.852 v -0.85199 h 2.5558 v 1.70398 h 1.704 v 1.70399 h 1.704 v -0.85199 h 0.852 v 0.85199 h 1.7038 v 0.85199 h -0.852 v 0.85199 h 0.852 v 0.85199 h 1.7039 v -1.70398 h 0.852 v -2.55598 h 0.852 z m 14.4834,2.5558 h -0.852 v -0.85199 h 3.4078 v 0.85199 h -0.852 v 0.852 h -1.7038 z m 24.7036,-8.51991 v -0.85199 h 8.5199 v 0.85199 h 2.556 v 2.55597 h -0.852 v 0.85199 h -0.852 v 0.852 l -0.852,0.85199 h -0.852 v 0.85199 h -2.5558 v 0.85199 h -1.704 v 0.85199 h -2.5558 v -0.85199 h -1.704 v -0.85199 l -0.852,-0.85199 v -0.85199 h -0.852 v -3.40797 h -0.8519 v -0.85199 z m -31.523,1.70398 v -0.85199 h 0.852 v 0.85199 h 0.8518 v 0.85199 h 2.5559 v 0.85199 h 0.852 v 0.852 h -0.852 v 0.85199 h -1.7039 v 0.85199 h -0.852 v 0.85199 h -1.7038 v -0.85199 h -0.852 v -0.85199 h -0.852 v -3.40797 h 0.852 z m -17.0355,0 h -0.852 v -0.85199 h 1.704 l 0.8518,0.85199 v 1.70381 h 0.852 v 0.85199 h -2.5558 z m -8.5199,0 v -0.85199 h 2.5558 v 0.85199 h 0.852 v 0.85199 h -0.852 v 0.85199 l -0.852,0.852 h -4.2598 v -2.55598 h 1.704 z m 38.3389,-5.11177 v -0.852 h 1.7038 v 0.852 h 1.704 v 0.85199 h 1.704 v 1.70381 h -0.852 v 0.85199 h 0.852 v 0.85199 h -0.852 v 0.85199 h -0.852 v 0.85199 h -5.9638 v -2.5558 h -0.852 v -0.85199 h -0.852 v -2.55597 h 3.408 z m -34.9308,1.70398 v -2.55598 h 0.852 v 0.852 h 1.704 v 0.85199 h -0.852 v 0.85199 z m 20.4475,-26.41139 v -0.85199 h 1.7038 v -0.85199 h 1.7039 v 0.85199 h -0.852 v 0.85199 h 0.852 v 1.70398 h 0.852 v 0.85199 h -0.852 v 1.70399 h 0.852 v 0.85199 h 0.852 v 1.70381 h 1.704 v 0.85199 h 0.852 v 1.70398 h -0.852 v 0.85199 h 1.704 v 3.4078 h -1.704 v 2.55597 h 0.852 v 0.85199 h -0.852 v 0.852 h 0.852 v 1.70398 h 0.852 v 0.85199 h 0.8518 v 5.11177 h -1.7038 v 0.852 h -4.26 v -0.852 h -1.7039 v -0.85199 h -1.7038 v 0.85199 h -2.556 v -0.85199 h -0.852 v -0.85199 h -0.852 v -0.85199 h -0.852 v -0.85199 h -2.5558 v -1.70399 h 0.852 v -0.85199 h -0.852 v -0.85199 h 2.5558 v -1.70381 h 2.556 v 0.852 h 0.852 v 0.85199 h 1.704 v 0.85199 h 0.8518 v 2.5558 h 0.852 v 1.70398 h 0.8519 v -0.85199 h 1.704 V 218.065 h -0.852 v -1.70398 h -0.852 v -1.70399 h -0.8519 v -0.85199 h -0.852 v -0.85199 h -0.8518 v -1.70381 h 1.7038 v -1.70398 h -0.852 v -3.4078 h 0.852 v -1.70398 h -2.5558 v -0.85199 h -0.852 v -0.85199 h 0.852 v -0.85199 h 0.852 v -0.852 h -0.852 v -0.85199 h -0.852 v -1.70398 z m -35.7832,16.18784 v -1.70416 h 1.704 v -0.85199 h 0.852 v 1.70398 h 1.704 v 1.70381 h -0.852 v 0.852 h -0.852 v 6.81593 h -0.852 v 0.85199 h -1.704 v -1.70399 h -1.7038 v 0.852 h -0.852 v 0.85199 h -1.704 v -2.55598 h -0.8519 v -0.85199 h -1.704 v -2.5558 h -0.852 v -0.85199 h -0.852 v -2.55597 h 0.852 v -1.70381 h 2.556 v 0.85199 h 0.8519 v 0.85199 h 0.852 v -0.85199 h 0.852 v 0.85199 h 0.852 v 0.85199 h 0.8518 v -0.85199 z m 46.8582,-9.37208 h -0.852 l 0.852,-0.85199 h 0.852 v 1.70398 h 1.7038 v 4.25978 h 1.704 v 1.70399 h 0.852 v 0.85199 h 0.8519 v 0.85199 h -0.8519 v 2.5558 h -0.852 v 0.85199 h 0.852 v 2.55598 h 1.7039 l -0.852,0.85199 h -2.5559 v 0.85199 h -0.852 v -0.85199 h -0.852 v 1.70398 h -0.8518 v -0.85199 h -0.852 v -0.85199 h -0.852 v -2.55598 h 0.852 v 0.85199 h 0.852 v -1.7038 h -0.852 v -0.85199 h 0.852 v -1.70399 h -0.852 v -1.70398 h 0.852 v -1.70381 h -0.852 v -0.85199 h 0.852 v -0.85199 h -0.852 v -0.852 h 0.852 v -0.85199 h -0.852 z m -30.6707,12.77987 v -0.85199 h 2.5558 v 0.85199 h 0.852 v 1.70398 h -0.852 v 0.85199 h -0.852 v 0.852 h -1.7038 l 0.8518,-0.852 h -1.7038 v 0.852 h -4.2599 v -0.852 h 0.852 v -0.85199 h 0.8519 v -0.85199 h 2.556 v -0.85199 z m 40.8948,-3.40779 0.8519,-0.85199 v 0.85199 h 0.852 v 3.40779 h 0.8518 v 0.85199 h -0.8518 v 0.85199 h -1.7039 l -0.852,0.85199 v 0.852 h -0.852 v -0.852 h -0.852 v -1.70381 h 0.852 v -4.25978 h 0.852 z m -86.8983,-3.40797 h -1.704 v -1.70381 h 2.556 v 1.70381 h 0.852 v 0.85199 h 2.5557 v -0.85199 h 3.408 v 0.85199 h 0.852 v -0.85199 h 0.8518 v 1.70399 h -0.8518 v 0.85199 h 0.8518 v 0.85199 h -2.5558 v 0.85199 h -0.852 v 4.25978 h -1.704 v -0.85199 h -0.8519 l 0.8519,-0.85199 h -0.8519 v -0.85199 h -0.8519 v -0.85199 h -0.8519 v -1.70398 h -0.852 v -0.852 h -0.852 z m 105.6386,4.25996 v -1.70398 h 2.5558 v 0.85199 h 0.852 v 3.40779 h -1.704 v -0.85199 h -0.852 v -1.70381 z m 26.41137,-5.96377 h -0.852 l 0.852,-0.85199 h 1.7039 v 0.85199 h 1.7039 l -0.8519,0.85199 h 1.7039 v 0.852 h 2.5559 v 0.85199 h 0.852 v 0.85199 h 0.852 l -0.852,0.85199 h 0.852 v 2.5558 h -0.852 v 0.85199 h -0.852 l -0.852,0.852 h -1.7039 v -0.852 h -1.7039 v -0.85199 h -0.852 v -0.85199 h -0.8519 v -0.85199 h -0.852 v -1.70381 h 0.852 v -0.85199 h -0.852 z m -87.75127,1.70381 v -0.85199 h 0.852 l 0.852,-0.85199 v 1.70398 h 0.8518 v 1.70381 h -0.8518 v 2.55598 h -1.704 v 0.85199 h 0.852 v 0.85199 h -0.852 v 0.85199 h -2.556 v 0.85199 h -0.852 v -1.70398 h 0.852 v -0.85199 h -0.852 v -0.85199 h -0.8518 v -0.85199 h 0.8518 v -0.852 h 2.556 v -2.5558 z m 52.8184,3.40797 v -1.70398 h 0.852 v 0.85199 h 1.704 v 1.70381 h 0.852 v 0.85199 h -1.704 v -1.70381 z m 28.96737,-2.55598 v -1.70398 h 0.8518 v 0.85199 h 0.852 v 1.70399 h 0.852 v 1.70381 h -2.5558 v -0.852 h -0.852 v -1.70381 z m -71.56537,-7.66775 -0.8484,-0.85199 v -0.85199 h 4.2598 v 1.70398 h 1.704 v 1.70381 h 2.5558 v 2.55598 l -0.852,0.85199 h 1.704 v 1.70381 h -0.852 v 0.85199 h 0.852 v 0.85199 h 0.852 v 0.85199 h -2.556 v -0.85199 h -1.7038 v -0.85199 h -0.852 v -0.85199 h -3.4079 v -0.85199 h 0.852 v -0.85199 h -0.852 v -0.852 h 1.7039 v -1.70381 h -0.8519 v -0.85199 h -1.7039 v -0.85199 z m 31.523,1.70399 v -0.85199 h 0.852 v 0.85199 h 1.704 v 0.85199 h 2.5559 v 1.70381 h -1.7039 v 0.85199 h -0.852 l -0.852,0.85199 h -0.852 v 0.85199 h -0.852 v -0.85199 h -0.8518 v -0.85199 h -0.852 v -0.85199 h -0.852 v -2.5558 z m 14.4833,-0.85199 v -0.852 h 3.408 v 0.852 h 0.852 v 3.40779 h -0.852 v 0.85199 h -0.852 v 0.85199 h -1.704 l -0.852,-0.85199 h -0.852 v -1.70381 h -0.852 v -0.85199 h 0.852 v -1.70398 z m -97.9674,0 v -5.11195 h 5.1118 v 0.85199 h 1.7038 v 3.40796 h -0.8518 v 0.852 h -4.26 v 0.85199 h -1.7038 v 0.85199 h -0.852 v -0.85199 h -0.852 v -0.85199 z m -3.4079,-0.852 h -0.852 v 0.852 h -0.852 v -0.852 h -0.8519 v -0.85199 h 0.8519 v -0.85199 h 0.852 v -0.85199 h 1.704 v 3.40797 h -0.852 z m 80.9334,-10.2239 v -1.7038 h 0.8519 v 0.85199 h 0.8519 v 0.85199 h 0.852 v 4.25978 h 0.852 v 0.85199 h 0.852 v 0.852 h 0.852 v -2.55598 h 0.852 v -0.85199 h 0.852 v -1.70381 h 0.852 v -0.85199 l 0.852,0.85199 v -0.85199 h 0.8518 v 0.85199 h 0.852 v 1.70381 h 0.852 v 2.55597 h 0.852 v 3.40797 h 0.852 v -0.85199 h 0.8519 v 0.85199 h -0.8519 v 1.70381 h -0.852 v -0.85199 h -2.556 v -0.85199 h -5.9638 v 0.85199 h -1.704 v -0.85199 h -1.7038 v -0.85199 h 1.7038 v -1.70381 h -0.8519 v -0.852 h -2.5559 v -0.85199 h -0.852 v -0.85199 h -0.8519 v -0.85199 h 0.8519 v -0.85199 h 1.704 v -1.70399 z m 15.3357,-0.85181 v -0.85199 h 2.556 v 0.85199 h 2.5558 v 0.85199 h 0.852 v 0.85199 h -0.852 v 2.5558 h 0.852 v 0.85199 h 0.852 v 4.25996 h -0.852 v 0.85199 h -2.5558 v -0.85199 h -1.704 v -0.85199 h -0.852 v -1.70398 h -0.852 v -1.70399 h 0.852 v -0.85199 h -0.852 v -0.85199 h -0.852 v -0.85199 h -0.852 v -0.85199 h -0.852 v -0.852 h 0.852 l 0.852,-0.85199 z m 11.0757,2.5558 h -0.8518 v -0.85199 h 3.4078 v 1.70398 h -2.556 z m 4.26,-7.66758 v -2.55597 h 2.5558 v 0.85199 h 0.852 v 0.85199 h 3.40787 v 0.85199 h 1.7038 v 0.85199 h 0.852 v 1.70399 h -0.852 v 0.85199 h -0.8519 v 0.85199 h -0.8519 v 0.85199 h -0.8519 v 0.85199 h -0.85197 v -0.85199 h -1.704 v -0.85199 h -0.852 v -0.85199 h -1.7038 v -0.85199 h -1.704 l -0.852,0.85199 v -0.85199 h -0.852 v -0.852 h 0.852 v -0.85199 h 0.852 v -0.85199 z m -79.2273,-10.2239 v -0.85199 h 5.112 v 0.85199 h 0.8518 v 1.70399 h -0.8518 v -0.852 h -2.556 v 0.852 h -0.852 v 0.85199 h 2.556 v 0.85199 h 5.1118 v 0.85199 h -0.852 v 0.85199 h -0.852 v 1.70381 h -2.5558 v -0.85199 h -0.852 v 0.85199 h -0.852 v -0.85199 h -0.852 v 0.85199 h -3.408 v 0.85199 l -0.8519,0.85199 h 3.4079 v 0.852 h 0.852 v -0.852 h 0.852 v 2.55598 h 0.852 l 0.852,-0.85199 h 0.8518 v 3.40779 h -0.8518 v 0.85199 h 0.8518 v 1.70398 h -0.8518 v 0.852 h -5.112 v -0.852 h -1.7039 v 0.852 h -2.5558 v 0.85199 h -1.704 v -0.85199 h -1.704 v -1.70399 h -0.8518 v -0.85199 h -1.704 v -0.85199 h -2.556 v -0.85199 h -3.408 v 1.70398 h -0.8519 v 0.85199 h -0.8519 v 0.85199 h -3.4079 v -0.85199 h -0.852 v -2.55597 l -0.8518,-0.85199 v -0.85199 h -0.8486 v -0.852 h -0.852 v 0.852 h -0.8518 v 0.85199 h -0.852 v -0.85199 h -0.8519 v -0.852 h -0.852 v 0.852 h -0.852 v 1.70398 h 0.852 v 0.85199 h 0.852 v 1.70398 h -0.852 v 0.85199 h -1.704 v 2.55581 h -1.704 v -0.852 h -0.852 v 0.852 h -0.852 v -3.4078 h 0.852 v -0.85199 h -1.704 v 0.85199 h -0.8518 v 0.85199 h -0.852 v 0.852 h -0.852 l -0.852,0.85199 v -1.70399 l 0.852,-0.85199 h -0.852 v -0.85199 h -2.5558 v 0.85199 h -1.704 v -0.85199 h -0.8519 v -0.85199 h 0.8519 v -0.85199 h 2.5558 v -0.85199 h 2.556 v 0.85199 h 1.704 v -0.85199 h -0.852 v -0.85199 h -0.852 v -0.852 h 2.5558 v 0.852 h 0.852 v -1.70399 h -0.852 v -0.85199 h -0.8518 v 0.85199 h -0.852 v -1.70381 h -1.704 v -0.85199 h -0.852 v 1.70381 h -0.852 v -0.85199 h -0.8518 v -0.85199 h -0.852 v 0.85199 h -0.852 v -2.5558 h 1.704 v -1.70399 h 0.8518 v -2.5558 h 0.852 v -0.85199 h 1.704 v 0.85199 h 0.852 v -0.85199 h 2.5558 v 0.85199 h 0.852 v 1.70381 h -0.852 v 0.85199 h -0.852 v -0.85199 h -1.7038 v 1.70399 h 1.7038 v 1.70381 h 0.852 v 0.85199 h 0.852 v 0.85199 h 0.852 v 0.85199 h 0.852 v -0.85199 h 0.852 v 0.85199 h 0.852 v -1.70381 h -0.852 v -1.70398 h -0.852 v -1.70381 h 0.852 v -0.85199 h 0.852 v 0.85199 h 0.852 v 0.85199 h 0.852 v 0.85199 h 0.8519 v 0.85199 h 1.7038 v -0.85199 h -0.8518 v -0.85199 h 0.8518 v -1.70398 h -0.8518 v -0.85199 h -0.852 v -0.852 h -1.7039 v -0.85199 h 5.9637 v 0.85199 h 0.852 v 0.852 h 1.7038 v 0.85199 h 0.852 v 1.70398 h -0.852 l -0.8518,0.85199 h 0.8518 v 2.5558 h 0.852 v -0.85199 h 0.852 l 0.852,0.85199 v 0.85199 h 1.704 v -1.70381 h 1.7038 v -0.85199 h 0.852 v 0.85199 h 0.852 v -1.70398 h 2.5559 v 1.70398 h 0.852 v -0.85199 h 0.852 v -0.85199 h 0.852 v -1.70398 h -1.704 v -0.85199 h -0.852 v -0.85199 h 0.852 v -1.70399 h 2.556 v -0.85199 h 2.5558 v 0.85199 h 2.556 z m 14.4834,-5.11177 v -0.852 h 2.556 v 0.852 h 0.8518 v 3.40779 h -6.8158 v -1.70381 h 1.704 l -0.852,0.85199 h 0.852 v -2.55597 h 0.852 z m -50.2627,-14.48334 0.852,-0.85199 v 0.85199 h 1.7038 v 0.85199 h 1.704 v 0.85199 h 0.852 v 0.85199 l 0.852,-0.85199 v 1.70399 h 0.852 v 0.85199 l 0.8518,-0.85199 v 1.70381 l 0.852,-0.852 v 0.852 h 3.408 v 0.85199 h 0.852 v -0.85199 h 0.8518 v 0.85199 h 0.852 v 0.85199 h 5.9639 v -0.85199 h 1.7038 v 0.85199 h 1.704 v 4.25996 h -4.2598 l -0.852,0.85199 h -0.852 v 0.85199 h -0.852 v -0.85199 h -1.7039 l -0.852,0.85199 v 0.85199 h -0.852 v 0.85199 h -1.7038 v -1.70398 h -3.408 v 0.85199 h -0.852 v -0.85199 h -0.8518 v -1.70398 h -0.852 v 0.85199 h -0.852 v 0.85199 h -0.852 v -0.85199 h -1.704 v 0.85199 h -1.7038 v -0.85199 h -0.852 v -0.85199 h 0.852 v -0.85199 h 1.7038 v -0.852 h 0.852 v -0.85199 h 0.852 v -0.85199 h -0.852 v -0.85199 h -0.852 v -0.85199 h -1.7038 v 0.85199 h -0.852 v -1.70381 h 0.852 v -2.55598 h -0.852 z m 22.1515,11.92753 h -0.852 l -0.852,0.852 v -0.852 h -0.852 v -0.85199 h 4.26 v 0.85199 h 1.7038 v 0.852 h 0.8519 v 1.70381 h 0.852 v 0.85199 h -0.852 v 0.85199 h -2.5557 v 2.55597 h -0.852 v 2.55581 h -2.556 v -3.4078 h -0.852 v -2.55597 h 1.704 v -0.85199 h -0.852 v -0.852 h 0.852 v -0.85199 h 0.852 z"
     style="clip-rule:evenodd;fill:#000000;fill-rule:nonzero;stroke:none;stroke-width:1.77513px"
     id="path1288" />
</svg>
