<?xml version="1.0" encoding="UTF-8" standalone="no"?>
<svg
   xmlns:dc="http://purl.org/dc/elements/1.1/"
   xmlns:cc="http://creativecommons.org/ns#"
   xmlns:rdf="http://www.w3.org/1999/02/22-rdf-syntax-ns#"
   xmlns:svg="http://www.w3.org/2000/svg"
   xmlns="http://www.w3.org/2000/svg"
   xmlns:sodipodi="http://sodipodi.sourceforge.net/DTD/sodipodi-0.dtd"
   xmlns:inkscape="http://www.inkscape.org/namespaces/inkscape"
   version="1.0"
   width="1024pt"
   height="1024pt"
   viewBox="0 0 1024 1024"
   preserveAspectRatio="xMidYMid meet"
   id="svg2211"
   sodipodi:docname="vector.svg"
   inkscape:version="1.0.2-2 (e86c870879, 2021-01-15)">
  <defs
     id="defs2215" />
  <sodipodi:namedview
     pagecolor="#ffffff"
     bordercolor="#666666"
     borderopacity="1"
     objecttolerance="10"
     gridtolerance="10"
     guidetolerance="10"
     inkscape:pageopacity="0"
     inkscape:pageshadow="2"
     inkscape:window-width="1366"
     inkscape:window-height="697"
     id="namedview2213"
     showgrid="false"
     inkscape:zoom="0.1940918"
     inkscape:cx="1266.7524"
     inkscape:cy="760.26375"
     inkscape:window-x="-8"
     inkscape:window-y="-8"
     inkscape:window-maximized="1"
     inkscape:current-layer="svg2211"
     fit-margin-top="0"
     fit-margin-left="0"
     fit-margin-right="0"
     fit-margin-bottom="0" />
  <metadata
     id="metadata2205">
Created by potrace 1.10, written by Peter Selinger 2001-2011
<rdf:RDF>
  <cc:Work
     rdf:about="">
    <dc:format>image/svg+xml</dc:format>
    <dc:type
       rdf:resource="http://purl.org/dc/dcmitype/StillImage" />
    <dc:title></dc:title>
  </cc:Work>
</rdf:RDF>
</metadata>
  <path
     d="m 779.09897,48.95795 v 8.90343 l 4.4522,4.4522 17.8079,4.45221 v 13.3566 l 8.9044,8.90356 13.3557,4.4522 4.4522,-8.9044 v -8.90356 h 8.90441 l 8.9044,8.90356 8.90349,13.3566 v 13.3566 l 4.4522,8.90441 4.45221,4.4522 h 8.9044 l 4.4522,17.8078 v 40.0672 l 8.9035,4.4522 h 8.9044 l 8.90441,17.8078 -4.45221,8.9044 -8.9044,8.9044 h -13.35661 l -4.4522,13.3566 v 22.2601 l -4.4522,17.8088 v 13.3557 l -4.4522,13.3566 v 26.7123 l 4.4522,4.4522 -4.4522,13.3566 v 13.3558 l 8.9044,35.6166 8.9044,4.4522 13.3557,-4.4522 35.6167,-4.4522 h 13.3566 l 4.45221,4.4522 4.4522,4.4522 4.4522,4.4522 v 8.9044 l -4.4522,4.4522 h -8.90441 l -8.90349,-4.4522 -13.35659,-4.4522 -22.26011,4.4522 -8.9044,4.4522 -8.90441,26.7305 -8.90349,44.522 -13.35661,53.4237 8.90441,13.3557 -4.4522,8.9044 -4.45221,22.261 4.45221,8.9035 8.90349,4.4522 v 8.9044 l -8.90349,22.2601 v 13.3566 l -8.90441,4.4522 -4.4522,4.4522 -4.4522,4.4522 h -8.90349 l -8.90441,-4.4522 -13.3566,-4.4522 -17.8079,4.4522 -13.3566,13.3566 -4.45221,8.9035 -13.35569,-13.3557 -13.35661,-8.9044 -13.3566,-4.4522 h -26.7123 l -4.4522,4.4522 4.4522,17.8079 4.4522,13.3566 8.9044,4.4522 4.4522,8.9044 v 13.3557 l -4.4522,8.9044 -8.9044,4.4522 -4.4522,8.9035 v 8.9044 l 4.4522,4.4522 8.9044,4.4522 17.8079,4.4522 13.35661,13.3566 -4.45221,13.3557 -8.9044,4.4522 -17.8079,4.4522 -13.3566,4.4522 -8.9035,8.9035 -22.261,13.3566 -17.8079,8.9044 -17.80881,4.4522 -22.2601,4.4522 13.3557,8.9044 31.16541,31.1646 h 8.90349 l 17.80881,8.9034 8.9035,13.3566 4.4522,13.3558 8.9044,4.4522 -4.4522,4.4522 h -4.4522 l -8.90441,-4.4522 -8.90349,8.9044 v 22.261 h 4.4522 l -17.80881,17.8078 -17.80789,8.9044 -8.90441,17.808 -22.2601,17.80884 -4.4522,-4.4522 v -22.26024 l 4.4522,-13.3566 h -4.4522 l -4.4522,8.9044 -4.4522,22.26024 h -13.35661 l -4.4522,8.9044 -22.24196,8.9225 v -8.9044 l -4.4522,-4.4522 -17.8079,8.9044 -13.35661,4.4522 -17.8079,4.4522 v -22.261 l -4.4522,4.4522 h -13.3566 l 4.4522,-8.90354 -4.4522,-8.9045 -13.3557,-4.4522 h -8.9044 l -4.4522,-8.9044 -4.45221,-4.4512 -4.45218,-8.9044 v -13.3566 l -8.90441,-8.9044 v -26.7124 l -4.4522,-13.3566 -13.3557,-17.8078 -13.3566,-22.2602 -8.9035,-13.3566 -8.9044,-8.9044 -8.9044,-13.3566 -13.3557,-13.3556 -8.9044,-4.4522 h -4.4522 v -26.7124 l 4.4522,-8.9044 4.4522,-13.3566 -4.4522,-17.8078 -4.4522,-8.9044 v -8.9044 l -8.9035,-22.2602 -4.4522,-17.8078 -8.9044,-22.261 -4.45221,-17.8088 -4.4522,-8.9036 -4.43316,-8.9044 4.4522,-8.9044 v -4.4512 l -8.9044,-8.9044 -4.4522,-13.3566 -8.9044,-8.9044 -8.90441,-13.3567 -4.4522,-13.3557 -4.4522,-17.8078 -4.4522,-13.3567 v -17.8079 l 4.4522,-13.3756 v -13.3558 l 4.4522,-13.3566 v -8.9044 l 4.4522,-8.9044 8.90441,-13.3556 v -26.7124 l -4.4522,-4.4522 -4.45221,-13.3566 -8.9044,-22.26 -4.4522,-13.3566 -17.8079,-17.808 -8.9044,-17.8088 v -31.1644 l -4.4522,-22.2602 -13.3557,-22.2609 -4.4522,-17.8079 v -8.9044 l 4.4522,-4.4522 v -4.4522 l -4.4522,-8.9044 h -17.80881 l -4.4522,4.4522 h -8.9044 l -8.90441,4.4522 -4.4522,-4.4522 -4.4522,-4.4522 h -13.3557 l -13.3566,-4.4522 h -8.9035 l -13.3566,-8.9035 -17.8079,-17.8088 v -4.4522 l 4.4522,-4.4513 h 4.4522 l 8.9035,-8.9044 8.9044,-8.9044 v -4.4522 l -8.9044,-13.3557 -4.4522,-4.4522 -8.9035,4.4522 v 13.3557 h -17.8088 l -4.4522,8.9044 -4.45221,8.9044 -8.9044,-4.4522 -4.43407,-4.4522 v -26.7123 l -4.4522,-4.45218 -4.4522,-8.90441 -13.3557,-13.3566 -8.9044,-13.35576 8.9044,-4.4522 4.45221,-8.9044 4.4522,-13.35564 4.4522,-8.9044 h 17.8079 l 4.4522,4.4522 V 57.8777 l 4.4522,8.90441 13.3566,4.4522 h 8.90441 l 4.4522,-4.4522 V 57.8777 l 8.9035,-4.4522 h 13.3566 l 4.4522,4.4522 4.4522,8.90441 13.3557,13.3566 4.4522,-4.4522 4.4522,-8.9044 V 53.4255 l 8.90441,-26.7123 4.4522,-8.9044 h 4.4522 l 8.90349,17.80887 4.45221,8.9044 8.9044,26.71224 v 40.06715 l 4.4522,17.8078 4.4522,13.3566 4.4522,4.4522 17.80881,8.9044 4.4522,4.4523 8.9035,4.4522 4.4522,4.4522 4.4522,17.8079 v 71.2343 l 4.4522,17.8078 8.9044,13.3566 8.9035,8.9036 8.88627,4.4522 h 13.35569 l 8.90441,-4.4522 13.3566,-13.3558 h 8.9035 l 8.9044,-4.4522 8.9035,-4.4522 v 13.3566 l -4.4522,8.9036 -8.9035,8.9044 8.9035,4.4522 h 17.8088 l 4.4522,-8.9044 v -8.9044 l 8.90441,-17.808 4.4522,-4.4522 8.90349,-4.4522 h 4.4522 v -4.4512 l -4.4522,-4.4522 v -13.3566 h 8.90441 l 13.35569,-4.4522 8.90441,-4.4522 4.4522,-4.4522 h 13.35659 l 8.9044,4.4522 8.9035,-4.4522 h 13.3566 v 8.9044 h 26.7123 l 4.45221,-4.4522 h 4.4522 l 4.4522,-8.9044 13.3557,-13.3557 8.88626,-4.4522 8.90441,-4.4522 13.35569,-8.9044 17.80881,-17.8079 17.8079,-13.3566 4.4522,-13.3567 8.9044,-8.9034 4.4522,-8.9044 v -4.4522 l -4.4522,-4.4522 -4.4522,-4.4522 8.9044,-4.4522 v -8.90355 l -4.4522,-4.4522 h -8.9044 l -8.9044,4.4522 -4.4522,13.35575 -13.3557,-8.90355 -8.9044,-4.4522 h -17.8079 l -4.4522,4.4522 -4.45221,8.90355 h -4.4522 l -8.9044,-4.4522 v -8.90355 l -4.4522,-8.90441 4.4522,-4.4522 4.4522,-4.4522 4.4522,-13.3566 4.4522,-8.90344 v -8.9044 l 13.35661,-13.35661 4.4522,-8.90355 13.3557,-13.35661 13.3566,-4.4522 h 22.2601 l 17.80881,8.9044 13.3557,4.45221 4.4522,-8.90441 13.3566,-4.4522 h 8.9044 l 8.9035,4.4522 v 17.80796 l 4.4522,8.90441 13.35661,13.3566 h 13.35569 l 17.80881,-4.4522 8.9044,-4.4522 v -8.90441 l -4.4522,-8.90355 -4.4522,-22.261 h 4.4522 L 756.8561,8.9034997 774.664,9.7412136e-6 h 8.9044 L 788.0206,4.4522097 l 4.4522,13.3556803 8.90441,13.35661 -13.35661,4.4522 -8.90349,13.35576 z"
     style="clip-rule:evenodd;fill:#000000;fill-rule:nonzero;stroke:none;stroke-width:9.27618px"
     id="path1230" />
</svg>
