<?xml version="1.0" encoding="UTF-8" standalone="no"?>
<svg
   xmlns:dc="http://purl.org/dc/elements/1.1/"
   xmlns:cc="http://creativecommons.org/ns#"
   xmlns:rdf="http://www.w3.org/1999/02/22-rdf-syntax-ns#"
   xmlns:svg="http://www.w3.org/2000/svg"
   xmlns="http://www.w3.org/2000/svg"
   xmlns:sodipodi="http://sodipodi.sourceforge.net/DTD/sodipodi-0.dtd"
   xmlns:inkscape="http://www.inkscape.org/namespaces/inkscape"
   version="1.0"
   width="1024pt"
   height="1024pt"
   viewBox="0 0 1024 1024"
   preserveAspectRatio="xMidYMid meet"
   id="svg2211"
   sodipodi:docname="vector.svg"
   inkscape:version="1.0.2-2 (e86c870879, 2021-01-15)">
  <defs
     id="defs2215" />
  <sodipodi:namedview
     pagecolor="#ffffff"
     bordercolor="#666666"
     borderopacity="1"
     objecttolerance="10"
     gridtolerance="10"
     guidetolerance="10"
     inkscape:pageopacity="0"
     inkscape:pageshadow="2"
     inkscape:window-width="1366"
     inkscape:window-height="697"
     id="namedview2213"
     showgrid="false"
     inkscape:zoom="0.1940918"
     inkscape:cx="1266.7524"
     inkscape:cy="760.26375"
     inkscape:window-x="-8"
     inkscape:window-y="-8"
     inkscape:window-maximized="1"
     inkscape:current-layer="svg2211"
     fit-margin-top="0"
     fit-margin-left="0"
     fit-margin-right="0"
     fit-margin-bottom="0" />
  <metadata
     id="metadata2205">
Created by potrace 1.10, written by Peter Selinger 2001-2011
<rdf:RDF>
  <cc:Work
     rdf:about="">
    <dc:format>image/svg+xml</dc:format>
    <dc:type
       rdf:resource="http://purl.org/dc/dcmitype/StillImage" />
    <dc:title></dc:title>
  </cc:Work>
</rdf:RDF>
</metadata>
  <path
     d="m 742.97988,111.90277 -4.7632,9.52637 v 33.34131 l -9.5263,4.76318 v 4.76319 l -4.7632,4.76221 v 19.05273 h -4.7632 v 14.28955 l 9.5264,9.52637 4.7632,9.52539 4.7631,-9.52539 v -9.52637 h 14.2887 v 14.28858 l -4.7632,9.52637 -4.7623,4.76318 v 4.76318 l -9.5263,9.52637 h -4.7632 l -4.7632,9.5254 v 14.28953 l -4.7632,14.28858 4.7632,9.52637 v 9.52637 l 4.7632,4.76318 h 4.7632 v 9.52637 l 4.7631,14.28858 9.5255,4.76318 4.7632,-4.76318 h 19.0527 v 9.52636 l 19.0517,4.76319 v 4.76318 h -28.5781 l -9.5263,4.76318 -19.0518,4.76222 -4.7632,4.76318 v 14.28955 l 4.7632,4.76318 14.2886,4.76319 h 9.5264 l 4.7631,14.28955 4.7632,4.76221 4.7632,9.52637 9.5253,4.76318 h 9.5264 l 4.7632,9.52637 4.7632,14.28858 -4.7632,14.28955 h 19.0527 l 4.7632,-4.76319 4.7623,-9.52636 4.7632,-14.28858 9.5263,-4.76319 h 19.0517 l 4.7632,4.76319 v 9.52539 l -4.7632,9.52637 v 9.52637 h 28.5791 v 9.52636 l -4.7631,4.76222 v 9.52636 h 14.2895 l 4.7632,-9.52636 4.7623,-19.05177 h 9.5263 v 4.76319 l 4.7632,4.76318 v 9.5254 l 14.2896,-14.28858 -4.7632,-14.28955 -9.5264,-14.28858 -4.7632,-14.28955 v -4.76319 h 23.8149 l 4.7632,-4.76318 h 9.5264 l 9.5263,4.76318 9.5255,4.76319 h 9.5264 l 9.5263,-9.52637 4.7632,-9.5254 4.76322,-4.76318 4.7632,4.76318 H 1024 v 4.76319 l -4.7632,4.76221 -9.5253,9.52637 h -14.28962 l -4.7632,4.76318 -4.7632,14.28955 -19.0518,19.05176 -4.7632,9.52637 v 23.81495 l 4.7632,19.05273 9.5255,9.52636 h 14.2895 v -14.28955 l 9.52642,-19.05273 h 4.7632 l 9.5263,4.76319 v 4.76318 l 4.7622,9.52636 4.7632,14.28955 v 4.76222 h -4.7632 l -4.7622,4.76318 v 9.52637 l -9.5263,4.76317 -9.52642,-4.76317 h -14.2895 l -4.7632,14.28957 -9.5255,4.7622 -4.7632,-4.7622 h -19.0527 l -9.5253,4.7622 v 19.0528 l 4.7621,9.5263 28.5791,4.7632 28.5782,9.5264 h 9.52642 v 14.2885 l 4.7632,4.7632 4.7631,4.7632 v 9.5263 l -4.7631,19.0519 v 14.2885 h -4.7632 l 9.5263,14.2895 v 4.7632 l -4.7631,9.5264 -9.5264,9.5263 -9.52642,4.7632 h -28.5782 l -9.5263,14.2887 -14.2896,4.7631 -14.2885,14.2896 h -19.0527 l -14.2887,-4.7632 h -14.2895 l -9.5264,4.7632 -14.2885,4.7621 h -14.2896 l -4.7631,-4.7621 -9.5264,-4.7632 h -9.5255 l -28.5791,-9.5264 -14.2885,4.7632 4.7622,9.5264 9.5263,9.5253 v 9.5264 l 4.7632,19.0527 v 14.2887 l -4.7632,14.2895 4.7632,9.5264 14.2896,4.7632 v 4.7621 l -9.5264,9.5264 -19.0527,9.5264 -4.7622,9.5263 v 4.7623 l -19.0527,19.0527 -14.2887,4.7632 -23.8159,4.7632 -14.2885,14.2895 -4.7632,4.7622 -14.2895,9.5264 -14.2896,14.2895 -4.7623,4.7632 -4.7631,9.5255 -9.5264,14.2895 -9.5264,23.8159 -4.7632,4.7622 -14.2885,4.7632 h -4.7632 v -33.3413 l -14.2895,-4.7632 -19.0518,-4.7632 9.5254,-4.7631 4.7632,-4.7632 -4.7632,-19.0519 9.5264,-9.5263 19.0527,9.5263 h 4.7632 l 4.7632,-4.7631 v -4.7632 l 4.7621,-14.2885 -9.5253,4.7631 -9.5264,-4.7631 -9.5263,-9.5264 v -14.2896 l -4.7632,-9.5263 -9.5264,-9.5255 -14.2886,-9.5263 v -23.8149 l 4.7632,-4.7632 -4.7632,-9.5264 h -14.2896 v -4.7632 l -4.7631,-9.5263 h -14.2692 l -14.2895,4.7632 -4.7632,-4.7632 h -14.2886 l 9.5263,-14.2887 -4.7632,-19.0527 v -4.7632 h 4.7632 l 4.7623,-9.5264 -4.7623,-9.5253 -4.7632,-4.7632 -4.7631,-9.5263 v -14.2887 l -4.7632,-9.5263 -4.7632,-9.5264 v -19.0527 h -4.7632 l -9.5253,4.7631 h -9.5264 l -4.7632,-4.7631 v -9.5254 l 4.7632,-4.7632 14.2885,-4.7631 h -19.0517 l -4.7632,-14.2896 v -4.7623 l -4.7631,-4.7632 -9.5255,4.7632 v 4.7623 h -9.5264 l -9.5263,4.7632 h -14.2896 l -14.2885,9.5264 -4.7632,9.5263 -4.7632,9.5254 h -9.5263 l -9.5255,4.7631 v -9.5263 l -4.7632,-9.5254 v -23.815 l -4.7632,-4.7632 -19.0527,4.7632 h -4.7632 l -4.7632,4.7623 -9.5263,4.7632 -4.7632,-4.7632 v -9.5255 l 9.5264,-4.7631 v -19.0528 l 4.7631,-4.7621 -4.7631,-9.5264 h -4.7632 l -9.5264,4.7632 -4.7632,-4.7632 4.7632,-19.0527 v -4.7632 l -4.7632,-4.7632 -4.7632,-9.5254 v -9.5264 l -4.7631,-4.76317 -9.5264,-4.76319 -9.5059,-9.52636 -4.7632,-9.5254 4.7632,-9.52637 v -4.76318 l -9.5255,-4.76318 -9.52636,-9.52637 -4.76319,-9.52636 h 4.76319 l 4.76318,-4.76222 v -9.52636 l 4.76318,-4.76319 v -19.05176 l 4.7632,-4.76318 v -9.52637 l 4.7632,-9.52637 v -38.10449 l -14.28854,4.76318 v -9.52637 h -9.52637 l -9.52637,4.76319 -4.76318,-4.76319 -9.52546,-4.76318 v 4.76318 l 4.76318,4.76319 4.76318,4.76318 v 4.76318 h -4.76318 v -4.76318 l -4.76318,-4.76318 h -4.76318 v -4.76319 l -4.76319,4.76319 h -19.05273 l -4.76318,4.76318 h -9.52538 v 4.76318 h -14.28955 v -4.76318 h -4.76318 l -9.52636,-4.76318 -14.28858,-14.28955 -4.76319,-4.76222 h -4.76318 v -23.81591 l -4.76318,-9.5254 -4.76319,-9.52637 4.76319,-4.76318 4.76318,-4.76318 v -4.76319 h -4.76318 l -4.76319,-4.76318 -4.76318,-9.52637 h 4.76318 l -4.76318,-4.76318 h -4.76318 l -14.28955,4.76318 -4.76319,-4.76318 v -4.76221 l -4.76318,-4.76319 h -4.76318 l -9.5254,9.5254 v 4.76318 l -9.52637,4.76319 v -14.28858 l 4.76319,-9.52636 9.52636,-9.52636 -4.76318,-9.5254 -9.52637,-4.76318 -4.76318,9.52539 H 52.37462 l -14.28954,4.76319 -9.506,14.28953 -4.76318,-4.76317 -4.76318,-4.76318 v -9.52637 l -4.76318,-4.76221 -9.5263703,9.5254 V 250.0312 H -1.0258789e-5 L 9.5263497,235.74262 14.28954,226.21626 h 9.52539 v -28.57813 l 14.28955,4.76318 4.76317,4.76318 h 9.52637 v -14.28955 l 4.76318,-9.52636 h 14.28858 v -4.76318 h 9.52637 v 28.57909 l 4.76318,4.76319 4.76318,4.76221 v 4.76318 l 4.76319,4.76319 4.76318,-4.76319 4.76318,-9.52539 9.5254,4.76221 4.76318,9.52637 v -9.52637 l 4.76319,-4.76221 4.76318,-4.76319 v -4.76318 h 9.52637 l 4.76318,4.76318 v 4.76319 l 9.5254,4.76221 9.52636,9.52637 h 14.28955 l 4.76319,-4.76319 -9.52637,-4.76318 -14.28955,-4.76221 4.76318,-14.28955 14.28955,-9.52637 h 14.28858 l 4.76319,4.76318 4.76318,-9.52636 4.76316,-9.52637 v -14.28858 l 4.76318,-9.52636 h 4.76318 v -9.52637 l -4.76318,-4.76318 -4.76318,4.76318 -4.76316,9.52637 h -4.76318 v -9.52637 l -19.05177,4.76318 v -4.76318 l -4.76318,-4.76318 9.52637,-9.5254 h 4.76318 l 4.76318,-4.76318 4.76319,-4.76319 9.52537,4.76319 9.52636,4.76318 9.52547,-4.76318 14.28954,-4.76319 h 9.52637 l 9.52533,-4.76318 h 19.03243 l 9.5264,4.76318 v -4.76318 h 4.7631 l -4.7631,-9.52637 -4.7632,-4.763175 v -9.52637 h 4.7632 l 4.7631,-4.76221 h 14.2886 l 4.7631,4.76221 4.7632,4.76319 h 9.5264 v -4.76319 h 14.2895 l 4.7632,4.76319 h 9.5255 l 4.7632,4.76318 h 4.7632 l 4.7631,-9.52637 9.5264,-19.05176 h 28.5781 l 4.7632,4.76318 h 9.5263 l 9.5264,-4.76318 9.5255,-9.52637 h 4.7631 l 4.7632,4.76319 v 9.52636 h 4.7632 l 9.5264,-4.76318 h 9.5263 l 4.7622,-4.76318 h 9.5263 v 4.76318 l 4.7632,4.76318 h 4.7632 l 4.7632,-4.76318 h 9.5255 l 9.5263,-4.76318 -4.7632,-9.52637 -14.2886,-4.76221 4.7632,-14.28955 h 14.2886 l 4.7632,-4.76319 h 19.0323 l 9.5264,4.76319 4.7632,9.52636 4.7631,4.76319 4.7632,9.52539 v 4.76319 h 4.7623 l 4.7632,4.76318 h 4.7632 v -4.76318 l 4.7631,-4.76319 h 14.2896 l 4.7632,4.76319 v 4.76318 l 4.7632,4.76318 h 4.7631 l 4.7622,-4.76318 9.5264,-4.76318 h 4.7631 l 9.5264,4.76318 h 4.7632 l 4.7623,4.76318 v 14.28858 h -14.2887 V 102.3764 h 9.5264 l 4.7623,4.76319 9.5263,-4.76319 -4.7631,4.76319 v 9.52636 h 9.5263 l 9.5264,-4.76318 4.7632,-4.76318 4.7632,4.76318 h 9.5263 l 4.7622,4.76318 4.7632,-4.76318 v -9.52637 l -4.7632,-9.526355 v -4.76319 l 4.7632,-9.52539 v 9.52539 l 4.7631,4.76319 h 14.2896 v 4.76318 l 4.7623,4.763175 h 4.7632 l 9.5263,-4.763175 v 14.289545 z"
     style="clip-rule:evenodd;fill:#000000;fill-rule:nonzero;stroke:none;stroke-width:9.92411px"
     id="path1248" />
</svg>
