<?xml version="1.0" encoding="UTF-8" standalone="no"?>
<svg
   xmlns:dc="http://purl.org/dc/elements/1.1/"
   xmlns:cc="http://creativecommons.org/ns#"
   xmlns:rdf="http://www.w3.org/1999/02/22-rdf-syntax-ns#"
   xmlns:svg="http://www.w3.org/2000/svg"
   xmlns="http://www.w3.org/2000/svg"
   xmlns:sodipodi="http://sodipodi.sourceforge.net/DTD/sodipodi-0.dtd"
   xmlns:inkscape="http://www.inkscape.org/namespaces/inkscape"
   version="1.0"
   width="1024pt"
   height="1024pt"
   viewBox="0 0 1024 1024"
   preserveAspectRatio="xMidYMid meet"
   id="svg2211"
   sodipodi:docname="vector.svg"
   inkscape:version="1.0.2-2 (e86c870879, 2021-01-15)">
  <defs
     id="defs2215" />
  <sodipodi:namedview
     pagecolor="#ffffff"
     bordercolor="#666666"
     borderopacity="1"
     objecttolerance="10"
     gridtolerance="10"
     guidetolerance="10"
     inkscape:pageopacity="0"
     inkscape:pageshadow="2"
     inkscape:window-width="1366"
     inkscape:window-height="697"
     id="namedview2213"
     showgrid="false"
     inkscape:zoom="0.1940918"
     inkscape:cx="1266.7524"
     inkscape:cy="760.26375"
     inkscape:window-x="-8"
     inkscape:window-y="-8"
     inkscape:window-maximized="1"
     inkscape:current-layer="svg2211"
     fit-margin-top="0"
     fit-margin-left="0"
     fit-margin-right="0"
     fit-margin-bottom="0" />
  <metadata
     id="metadata2205">
Created by potrace 1.10, written by Peter Selinger 2001-2011
<rdf:RDF>
  <cc:Work
     rdf:about="">
    <dc:format>image/svg+xml</dc:format>
    <dc:type
       rdf:resource="http://purl.org/dc/dcmitype/StillImage" />
    <dc:title></dc:title>
  </cc:Work>
</rdf:RDF>
</metadata>
  <path
     d="m 986.04302,318.57773 -22.7561,60.6814 7.5854,7.58537 -7.5854,15.17074 37.92678,30.33992 -7.58528,22.75611 v 15.17074 l -7.5854,7.58382 v 22.7561 l -15.1707,15.17074 v 15.17074 l 7.5853,15.17071 -22.7561,15.16919 -15.1693,15.17074 h -15.1707 l -7.5854,30.33993 h -7.5853 l -7.5854,7.58537 -15.1691,7.58536 7.5854,15.17074 -7.5854,15.17074 7.5854,7.58537 7.5853,7.58536 v 22.75456 l 7.5854,30.34148 7.5854,15.16919 7.5853,7.58537 h 7.5854 l -15.1707,15.17073 v 30.33993 l -30.3415,22.7561 -7.5854,15.17074 -15.1693,-7.58537 v 30.34148 l 7.5854,22.75456 -7.5854,15.17073 h -22.7561 l -7.5853,-7.58537 -7.5854,-15.17073 -22.7545,22.7561 -15.1707,-22.7561 h -7.5854 l 15.1708,-22.75456 -22.7561,7.58537 -7.5854,-7.58537 v -15.17074 l -22.7547,15.17074 h -7.5853 l -7.5854,-15.17074 -7.5854,15.17074 -7.5853,15.17073 -7.5854,15.1692 h 15.1693 v 15.17073 l -7.5854,15.17074 15.1708,7.58537 -7.5854,7.58382 h -15.1707 l -7.5854,22.7561 h -15.1693 v -15.17073 h -7.5854 l -15.1705,22.7561 h -15.1707 v 30.34148 l -22.7547,-15.17074 -15.1707,7.58537 -7.5854,-15.17074 -7.5854,15.17074 -7.5853,-7.58537 -22.7545,15.17074 15.1691,7.58537 -7.5854,22.75463 h -22.7544 l -7.5854,7.5853 h -7.5854 l -7.5853,-7.5853 -7.5854,7.5853 h -15.1707 l -7.5854,7.5854 -7.5854,-7.5854 v -22.75613 l -7.5854,-7.5838 h -7.5853 l -15.1384,7.5838 v 22.75613 h -7.5854 L 432.35442,1024 h -7.5854 l -15.1707,-7.5854 v -15.1707 l -7.5854,-15.16923 -7.5854,-7.58537 -15.1691,-7.58537 -22.7561,-7.58537 -15.1693,15.17074 h -15.1707 v 22.7546 l 7.5854,15.1707 h -37.9252 v -7.5853 h -15.17075 v -7.5854 h 7.58537 l 7.58538,-7.58543 h 7.5854 -7.5854 V 978.4893 h 7.5854 v -30.34148 l 7.5853,-7.58537 v -7.58536 h -7.5853 v -7.58537 h 7.5853 l 7.5854,-7.58537 v -7.58382 h 7.5854 v -7.58537 h 15.1707 l 7.5854,-7.58537 7.5853,7.58537 v -7.58537 l 7.5854,-7.58537 v -15.17073 l 7.5854,-7.58537 v -7.58383 h -7.5854 l 7.5854,-7.58536 v -7.58537 h 7.5853 l -7.5853,-7.58537 h 7.5853 v -15.17074 h 7.5854 v -7.58537 l 7.5854,-7.58536 h -7.5854 v -15.17074 h -7.5854 l 7.5854,-7.58382 7.5854,7.58382 v -15.16919 l 7.5853,-7.58537 h -7.5853 v -7.58537 h -7.5854 l -7.5854,-7.58537 h 7.5854 v -7.58536 h -15.1707 l -7.5854,-7.58537 -7.5854,-7.58383 h -7.5853 v -7.58536 h -7.5854 v 7.58536 l -7.5854,-7.58536 v -15.17074 h 22.7561 v -7.58537 h -7.5853 v -15.17074 h -7.5854 v 7.58537 h 7.5854 -7.5854 v 7.58537 -30.33993 h -15.1707 v -22.7561 l -7.5854,-15.17074 v -7.58537 h -7.5854 v 7.58537 h -7.5853 v -7.58537 h -7.5854 v -7.58536 h -22.75468 7.58537 v -7.58537 h -22.7561 l -7.58537,-7.58383 H 235.141 v -7.58536 h -7.58537 v -7.58537 h 7.58537 v -15.17074 l -7.58537,-7.58537 v 7.58537 -7.58537 l -7.58536,-7.58537 v 7.58537 -15.16919 h -15.17074 v -15.17071 l 7.58537,-7.58537 v -22.75611 h -7.58537 7.58537 v -22.7561 l -7.58537,-7.58382 v 7.58382 -7.58382 h -7.58537 7.58537 l -7.58537,-7.58537 h 7.58537 -7.58537 V 447.5259 l -7.58537,-7.58537 -7.58537,7.58537 v 7.58537 h -7.58536 v 7.58537 h 7.58536 -15.16908 v 7.58537 H 151.7036 v -7.58537 h -7.58537 v 7.58537 h -7.58537 l -7.58537,15.16919 h -7.58536 v 7.58536 h -7.58537 v -7.58536 l -7.58537,7.58536 H 91.0221 V 485.4512 H 75.85136 v -7.58537 7.58537 H 68.26599 V 470.28201 H 45.54235 v -7.58537 h -7.58537 v -22.75611 h -7.58537 v -7.58537 h -7.58536 v -7.58382 h 15.17073 v -7.58537 h 7.58537 v -7.58537 l -7.58537,-7.58536 V 386.8445 h -7.58537 v -15.17074 h 7.58537 v -7.58537 h 7.58537 v -7.58536 h 7.58537 v -15.16919 l -7.58537,-7.58537 v -7.58537 h 7.58537 v -7.58537 h 15.16917 v -7.58537 h 7.58537 v -37.92529 h 15.17073 l 7.58537,-7.58537 15.1693,-7.58537 h 7.58536 v -7.58537 h -7.58536 l 7.58536,-7.58382 7.58537,-7.58537 h 15.17074 v -15.17074 h 15.16909 l 7.58537,-7.58536 v 15.17073 h 15.17073 v -7.58537 h -7.58537 v -7.58536 l 7.58537,-7.58537 h -7.58537 l 7.58537,-7.58537 v -7.58537 h 7.58537 l 7.58537,-7.58537 v -7.58537 l 7.58537,-7.58382 v -7.58537 l 7.58537,-7.58537 v 7.58537 h 7.58536 v 7.58537 h 7.58537 v -7.58537 h 15.17074 l 7.58537,-7.58537 v -7.58536 h 7.58536 v -15.17074 l 7.58537,-7.58537 h 7.58537 V 75.852132 l 7.58537,-7.585368 v -7.585368 l 7.58537,-7.585368 h 7.58534 v -22.75456 l 7.5854,-7.585368 -7.5854,-7.585368 V 7.5853627 h 7.5854 V -5.2587888e-6 7.5853627 h 7.5854 V 22.7561 h 7.5853 v -7.585368 h 22.7547 V 22.7561 h 7.5854 l 7.5853,-7.585368 h -7.5853 7.5853 l -7.5853,-7.5853693 h 30.3414 V -5.2587888e-6 h 7.5854 L 402.04692,15.170732 v 15.170736 l 7.5854,7.585368 h 15.1707 v 15.169192 h 7.5545 -7.5854 l 7.5854,7.585368 v 22.756109 l -7.5854,7.58536 -7.5854,7.58537 -7.5853,7.585365 v 15.16919 l 7.5853,7.58537 v 7.58537 h -7.5853 v 7.58537 l 7.5853,7.58536 v 7.58537 h 7.5854 v 15.16919 h 7.5854 v 7.58537 h -7.5854 7.5854 v 7.58537 h 7.5853 v 7.58537 h 15.1708 v 7.58537 h 7.5853 v -7.58537 l 7.5854,7.58537 v 7.58537 h 7.5854 v 7.58536 h 15.1693 v -7.58536 h 7.5853 l 7.5854,7.58536 v 7.58537 h 53.0959 v -15.17073 7.58536 h 7.5854 v 15.17074 h 22.7561 v -7.58537 l 7.5854,7.58537 h -7.5854 v 7.58537 h 15.1693 v 15.16919 h 7.5854 v -7.58537 h 7.5853 v -7.58382 h 15.1708 v 7.58382 h 7.5853 v -7.58382 h -7.5853 7.5853 l 22.7559,7.58382 v 22.75611 l 22.7547,-22.75611 h 22.7561 l 7.5854,-15.16919 h 22.7544 l 15.1708,15.16919 h 15.1707 l 15.1693,-7.58382 h 22.7561 v 15.16919 l 30.3398,-15.16919 h 7.5545 v 15.16919 h 15.1693 l 15.1707,-30.33993 h 22.7561 l 22.7545,-7.58537 -7.5854,30.33993 h 15.1708 l 7.5853,-15.16919 22.7547,15.16919 22.7561,30.34147 z"
     style="clip-rule:evenodd;fill:#000000;fill-rule:nonzero;stroke:none;stroke-width:15.8041px"
     id="path1294" />
</svg>
