<?xml version="1.0" encoding="UTF-8" standalone="no"?>
<svg
   xmlns:dc="http://purl.org/dc/elements/1.1/"
   xmlns:cc="http://creativecommons.org/ns#"
   xmlns:rdf="http://www.w3.org/1999/02/22-rdf-syntax-ns#"
   xmlns:svg="http://www.w3.org/2000/svg"
   xmlns="http://www.w3.org/2000/svg"
   xmlns:sodipodi="http://sodipodi.sourceforge.net/DTD/sodipodi-0.dtd"
   xmlns:inkscape="http://www.inkscape.org/namespaces/inkscape"
   version="1.0"
   width="1024pt"
   height="1024pt"
   viewBox="0 0 1024 1024"
   preserveAspectRatio="xMidYMid meet"
   id="svg2211"
   sodipodi:docname="vector.svg"
   inkscape:version="1.0.2-2 (e86c870879, 2021-01-15)">
  <defs
     id="defs2215" />
  <sodipodi:namedview
     pagecolor="#ffffff"
     bordercolor="#666666"
     borderopacity="1"
     objecttolerance="10"
     gridtolerance="10"
     guidetolerance="10"
     inkscape:pageopacity="0"
     inkscape:pageshadow="2"
     inkscape:window-width="1366"
     inkscape:window-height="697"
     id="namedview2213"
     showgrid="false"
     inkscape:zoom="0.1940918"
     inkscape:cx="1266.7524"
     inkscape:cy="760.26375"
     inkscape:window-x="-8"
     inkscape:window-y="-8"
     inkscape:window-maximized="1"
     inkscape:current-layer="svg2211"
     fit-margin-top="0"
     fit-margin-left="0"
     fit-margin-right="0"
     fit-margin-bottom="0" />
  <metadata
     id="metadata2205">
Created by potrace 1.10, written by Peter Selinger 2001-2011
<rdf:RDF>
  <cc:Work
     rdf:about="">
    <dc:format>image/svg+xml</dc:format>
    <dc:type
       rdf:resource="http://purl.org/dc/dcmitype/StillImage" />
    <dc:title></dc:title>
  </cc:Work>
</rdf:RDF>
</metadata>
  <path
     d="m 500.59343,5.6919447 v 2.85237 l 8.5571,5.7047503 5.7047,5.70474 2.8524,5.70417 v 8.55711 l 5.7047,5.70475 5.7042,2.85237 5.7048,-2.85237 -2.8524,8.55654 v 2.85237 l -2.8524,2.85237 h -2.8523 l -5.7042,-2.85237 -5.7048,-2.85237 -5.7047,5.70474 2.8524,11.40949 -2.8524,2.85237 -5.7048,2.85237 11.4095,2.8518 8.5571,2.85237 v 19.96603 h 2.8519 l 2.8523,5.704735 v 8.55712 l -5.7042,11.40891 -2.8523,11.40949 v 25.69401 l 2.8523,11.4089 -2.8523,17.11424 -2.8524,19.96603 v 14.26128 l 2.8524,14.26128 5.7042,2.85237 5.7047,2.85237 2.8524,8.55711 2.8524,2.85238 2.8523,5.70416 -2.8523,11.40949 v 11.40891 l 2.8523,2.85237 8.5565,2.85237 8.5572,5.70475 v 5.70474 l -2.8524,8.55654 -2.8524,8.55712 -2.8524,8.55711 -5.7041,5.70417 v 11.40949 l -2.8524,11.40891 v 2.85237 l -5.7047,5.70475 2.8524,8.55711 5.7047,2.85179 h 5.7041 l 5.7048,2.85238 -8.5571,17.11365 2.8523,5.70475 h -8.5565 l -2.8523,-5.70475 h -2.8524 l -5.7048,2.85237 v 8.55712 h 2.8524 l 2.8524,2.85237 2.8524,5.70475 v 8.55653 l -5.7048,11.40949 v 8.55654 l -2.8524,5.70475 -2.8523,2.85237 5.7047,5.70474 2.8524,2.85238 2.8524,11.4089 5.7047,2.85238 h 11.4089 l 8.5566,-5.70475 5.7047,-5.70474 h 11.4095 l 14.2612,-14.26128 2.8524,5.70474 v 8.55654 l 2.8524,8.55711 2.8523,5.70475 h 8.5566 v 5.70474 l -8.5566,5.70475 -2.8523,2.85179 2.8523,11.40949 -8.5571,14.27348 -8.5565,5.70417 -2.8523,2.85237 h -14.2619 l -8.5566,2.85237 v 8.55711 l 2.8519,5.70475 h 5.7047 l 8.5571,-5.70475 2.8524,2.85237 v 8.55712 l 2.8524,8.55654 v 17.11365 l -2.8524,11.40949 v 8.55654 l -8.5571,2.85237 h -2.8524 l -5.7047,2.85237 v 14.26186 l -2.8519,8.55654 v 11.40946 l -5.7047,8.55658 -5.7048,2.85237 2.8524,2.85237 v 2.85237 l 2.8524,2.85238 8.5566,-2.85238 5.7047,-5.70474 v -14.26129 h 8.5571 l 2.8524,8.55654 2.8524,8.55712 v 28.51147 h 19.9659 l 5.7048,-2.8524 5.7042,-8.55645 2.8524,2.85235 2.8523,8.5565 2.8524,2.8524 11.3973,-5.7048 8.5571,-5.7041 5.7042,-5.70473 5.7047,2.85238 v 8.55645 l 8.5571,2.8524 8.5565,11.4095 5.7048,5.7042 2.8524,17.1142 2.8523,5.7042 h 17.1137 l 8.5571,2.8523 5.7048,2.8524 h 5.7041 l 5.7048,-2.8524 25.6696,-25.6695 5.7048,-2.8524 v -14.2613 l 2.8523,-5.7048 5.7048,-2.8523 5.7047,-8.55654 h 8.5449 l 2.8518,2.85238 v 5.70416 l 11.4095,-5.70416 v -8.55712 l 2.8524,-11.40949 5.7047,-2.85237 v 5.70474 h 2.8524 l 8.5565,2.85237 v 5.70475 l -2.8524,5.70474 v 5.70413 l 2.8524,8.55711 2.8524,5.7048 2.8523,5.7042 2.8524,2.8523 v -2.8523 l 2.8524,-2.8519 v -5.7047 l 2.8524,-5.7048 2.8518,-2.8523 2.8524,-2.85241 5.7047,2.85241 5.7048,2.8523 h 14.2612 l -2.8524,5.7048 2.8524,2.8524 2.8524,2.8523 h 8.5571 l 2.8524,5.7042 2.8523,2.8524 v 2.8524 h 5.7042 l 2.8524,2.8523 v 8.5572 l 2.8524,2.8523 5.7047,2.8524 h 5.7042 l 5.7047,5.7041 2.8524,2.8524 v 5.7047 l -2.8524,5.7043 -5.7047,5.7047 v 5.7047 l -5.7042,2.8524 h -5.7047 l -8.5571,2.8524 -5.7042,2.8517 -5.7048,5.7048 -5.7047,2.8524 -5.7048,2.8523 2.8524,5.7048 2.8524,2.8523 v 5.7048 h -5.7048 l -2.8523,2.8518 -2.8524,2.8524 v 11.4095 l 2.8524,2.8524 v 2.8517 h 2.8523 l 2.8524,-2.8517 v -2.8524 l 2.8524,5.7041 2.8523,2.8524 2.8524,8.5571 v 2.8524 l 2.8524,2.8523 v 2.8524 l 8.5566,8.5566 v 2.8524 h -2.8519 l -8.5571,2.8523 -5.7047,2.8524 h -2.8524 v 2.8524 l 2.8524,8.5565 2.8523,2.8524 v 2.8523 h 2.8524 l 2.8524,5.7048 h 2.8524 l 2.8523,2.8523 2.8519,2.8524 h 2.8523 v 2.8518 h 2.8524 l 2.8524,2.8524 h 2.8524 v 2.8524 h 2.8523 l 2.8524,2.8524 h 2.8518 v 2.8523 l -5.7042,2.8524 v 11.4211 l -2.8523,2.8524 h 2.8523 v 8.5571 h 2.8524 l 2.8518,2.8518 h 2.8523 v 2.8523 h 2.8524 v 2.8524 h 2.8524 v 5.7047 h 2.8523 l 2.8524,8.5566 2.8524,2.8524 2.8524,2.8524 h 11.4088 v 2.8523 h 2.8524 v 2.8524 l -2.8524,2.8524 v 17.1136 l 2.8524,2.8524 v 8.5571 -2.8524 h -11.4089 v 2.8524 l -2.8523,5.7042 -8.5572,5.7047 v 2.8524 h -2.8523 l -14.2613,17.11362 v 2.8524 l -8.5571,8.5571 -2.8524,5.7048 -2.8523,2.8518 -2.8519,2.8524 h -14.2618 l -8.5571,-2.8524 h -5.7042 l -2.8523,-2.8518 h -14.2619 l -5.7042,-2.8524 h -2.8524 l -2.8524,-2.8524 -11.4088,-2.8524 -2.8524,-2.8523 h -2.8524 l -5.7047,-5.7048 h -2.8524 l -5.7047,-5.70472 -8.5566,-5.7041 -5.7047,-2.8524 -2.8524,-2.8524 -2.8524,-2.8524 v -2.8523 l -2.8524,-2.8524 v -22.8184 l 2.8524,-2.8518 v -2.8524 l -2.8524,-2.8523 v -2.8524 l -2.8517,-2.8524 h -11.4095 v 2.8524 h -2.8524 l -5.7047,2.8524 -5.7048,5.7047 -2.8523,2.8518 -5.7042,2.8523 -2.8524,2.8524 -2.8524,2.8524 h -2.8524 l -2.8523,2.8523 h -8.5565 l -5.7048,-2.8523 h -5.7047 l -2.8519,-2.8524 h -11.4094 l -2.8524,-2.8524 h 2.8524 v -2.8523 l 2.8523,-5.7042 h 5.7048 v -14.2618 h -8.5571 v -2.8524 l -5.7048,-5.7047 h -5.7047 v -5.7043 l -5.7042,-5.7047 h -2.8523 v -2.8524 h -2.8524 l -5.7048,-8.5565 h -2.8523 l -2.8524,-2.8523 h -2.8518 v -2.8524 l -2.8524,-2.8524 v -2.8524 l 2.8524,-2.8523 v -2.8524 l -2.8524,-2.8524 -2.8408,-2.8523 v -2.8524 l 2.8524,-2.8518 h 2.8524 v -5.7048 l -2.8524,-2.8524 h -8.5571 l -2.8524,-2.8523 h -2.8517 v -2.8524 l 2.8517,-2.8518 v -5.7047 l 2.8524,-2.8524 2.8524,-5.7047 2.8523,-2.8524 2.8524,-2.8518 h 2.8524 v -2.8524 l 2.8524,-2.8524 v -8.5571 l -2.8524,-5.7047 h -2.8524 l -2.8524,-2.8524 -5.7047,-2.8524 -2.8524,-2.8517 2.8524,-2.8524 v -5.7048 l 2.8524,-2.8523 h -2.8524 v -2.8524 h -11.4089 v 2.8524 l -2.8523,2.8523 v -2.8523 h -2.8524 v 2.8523 h -2.8524 v -2.8523 h -2.8524 v -5.7048 l 2.8524,-2.8518 h -2.8524 l -2.8518,-2.8524 -2.8524,2.8524 h -2.8523 v -2.8524 h -2.8524 v -2.8523 h -2.8524 v -2.8524 h 2.8524 -2.8524 v -2.8524 h -2.8523 v 2.8524 -2.8524 h -2.8524 v -8.5571 h -2.8518 l -2.8523,-2.8524 -2.8524,5.7048 -2.8524,2.8523 -2.8524,2.8524 -2.8523,8.5571 -8.5572,8.5566 h -5.7042 v -8.5566 h -5.7047 l -2.8524,-2.8523 h -5.7047 v 2.8523 l -2.8524,2.8524 h -2.8517 l -2.8524,-2.8524 v -5.7047 l -2.8524,-2.8524 -2.8524,-5.7047 v -5.7048 l 2.8524,-2.8524 v -2.8517 l 2.8524,-5.7047 h -2.8524 v -2.8524 l -2.8524,-2.8524 v -2.8524 l 2.8524,-2.8523 v -5.7042 h -11.4095 l -2.8524,-2.8524 h -2.8523 l -2.8524,-2.8524 v -5.7047 h -2.8518 v 2.8523 l -5.7048,-2.8523 -2.8523,-5.7042 v -2.8523 h -2.8524 l -2.8524,-2.8524 h -2.8524 v -2.8524 2.8524 l -2.8517,2.8524 v 2.8523 l -2.8524,2.8518 v 2.8524 l -2.8407,2.8523 -2.8524,-2.8523 v -2.8524 h -2.8524 v -2.8518 h -2.8524 v -11.4094 l -2.8518,-2.8524 2.8518,-2.8524 v -5.7047 h -5.7042 v 2.8523 h -2.8523 v 5.7048 l -2.8524,2.8524 -2.8524,2.8523 h -2.8524 l -2.8523,-2.8523 h -2.8518 l -2.8524,5.7047 h -5.7047 l -2.8524,-2.8524 v -2.8523 l -2.8523,-2.8524 v -2.8524 l -2.8524,-2.8524 h -2.8518 l -11.4095,11.4095 -5.7048,2.8524 v 5.7047 h -2.8524 l -2.8523,2.8518 -2.8524,-2.8518 h -8.5565 l -5.7047,2.8518 h -2.8524 l -2.8524,-2.8518 h -8.5566 l -2.8523,-2.8523 h -11.4095 l -2.8524,2.8523 h -5.7047 v -2.8523 l -2.8524,-5.7048 v -5.7047 l -2.8524,-2.8524 v -8.5571 l -2.8524,-2.8518 v -2.8524 h -8.5565 v -11.4095 l -2.8523,-5.7041 v -8.55715 l -2.8524,-5.70474 v -5.70475 h -2.8524 v -8.55657 h 5.7048 l 5.7041,-5.70475 v -2.85237 l -2.8524,-5.70471 h -2.8523 l -2.8524,2.85237 h -2.8524 v 2.85234 -2.85234 h -5.6925 v -2.85237 l -2.8524,2.85237 v -2.85237 2.85237 h -5.7042 v -8.55654 l -2.8523,-2.85237 v -2.85237 h -2.8524 v -2.85237 h -2.8524 l -2.8524,2.85237 h -2.8523 l -5.7048,2.85237 -2.8524,5.70475 -2.8523,2.85179 v 5.70471 l -2.8524,8.55712 v 5.7042 l -2.8524,2.85237 h -8.5565 l -2.8523,2.85238 h -5.7048 v 2.85237 h -2.8524 v -5.70475 h -5.7047 l -2.8524,-2.85237 2.8524,-2.85237 v -14.26129 l 2.8524,-2.85237 2.8523,-2.85179 h 5.7048 l 2.8524,-5.70475 2.8523,-5.70474 2.8524,-2.85238 8.5565,-2.85237 v -2.85179 l -2.8524,-2.85237 v -2.85237 l -11.4088,-11.40949 v -5.70475 l 2.8523,-5.70416 v -17.11424 h 5.7042 v -5.70416 h -2.8524 l 2.8524,-2.85237 2.8523,-2.85238 v -5.71636 h -2.8523 v -2.85237 l -2.8524,-2.85238 h 2.8524 l -2.8524,-2.85236 v -2.85237 l -2.8524,-2.85238 v -5.70474 l -2.8524,-2.85237 h -2.8523 v -2.85179 h -2.8524 v -5.70475 h -2.8524 v -2.85237 h -2.8523 v -5.70475 h -2.8524 v -8.55653 h 2.8524 l -2.8524,-2.85238 v -2.85237 h 2.8524 v -5.70474 h 5.7047 v -5.70417 2.85237 h 2.8524 v -14.26186 h -2.8524 v -2.85237 h -2.8524 v -14.26128 l -2.8523,-2.85237 v -2.85238 h 2.8523 l -2.8523,-2.85237 v 2.85237 -2.85237 h -8.5572 v -5.70474 h -2.8523 v -2.8518 h -2.8524 l 2.8524,-2.85237 h -2.8524 v -2.85237 l -2.8524,2.85237 v 2.85237 h -2.8524 v -2.85237 h -2.8523 v -2.85237 h -5.7042 l -2.8523,-2.85237 v -2.85238 l -2.8524,2.85238 v -2.85238 h -2.8524 v 2.85238 -5.70475 h 2.8524 l -2.8524,-2.85237 v 2.85237 h -2.8523 v -2.85237 l -2.8524,2.85237 v -2.85237 h 5.7041 v -2.85237 h -2.8524 l -2.8523,-2.85238 v -2.85237 h -2.8524 v -2.85179 2.85179 h -2.8524 v -2.85179 l -2.8524,2.85179 v -2.85179 l -2.8523,2.85179 v -2.85179 h -2.8524 v 2.85179 h -2.8524 v -2.85179 h 2.8524 v -2.85237 h -2.8524 v 2.85237 -2.85237 h -2.8523 v 2.85237 l -2.8524,-2.85237 2.8524,-2.85237 h -5.7042 v -2.85238 h 2.8524 v -5.70474 l 2.8524,-5.70417 v -2.85237 l -2.8524,-2.85237 2.8524,-2.85237 v -14.26128 l 5.7041,-8.55712 2.8524,-5.70475 v -5.70474 h -5.7042 v 2.85237 h -5.7047 l -2.8524,-2.85237 v -2.85237 h -2.8523 l -2.8524,2.85237 h -11.4095 v -2.85237 h -5.6926 v -8.55654 h -2.8524 l -2.8523,-5.70475 -2.8524,-2.85237 -8.5565,2.85237 h -5.7048 v 2.85238 h -2.8523 l -2.8524,2.85237 v 8.55654 h -17.1137 l -2.8523,-2.8518 v -2.85237 h 5.7041 v -8.55712 h -2.8523 l 2.8523,-2.85237 v -2.85237 h -2.8523 l -2.8524,2.85237 h -2.8524 v 2.85237 l -11.4089,-2.85237 -2.8524,-5.70416 -2.8523,-2.85237 h -2.8524 v -8.55712 h 2.8524 l -2.8524,-2.85237 2.8524,-2.85238 h 2.8523 l 5.7042,5.70475 h 2.8524 l 2.8523,-5.70475 2.8524,-2.85237 v -2.85237 l -2.8524,-2.85237 v -2.8518 l 2.8524,-2.85237 -2.8524,-2.85237 -8.5565,-2.85237 v -2.85238 h -2.8524 v -2.85237 h -5.7047 v -5.70416 h -2.852395 l -5.7042,-5.70475 -2.8523,-2.85237 2.8523,-5.70475 v -8.5571 h 2.8524 l 5.704195,-2.85238 h 57.0451 l 14.2613,-2.85179 8.5571,-2.85237 2.8524,-5.70475 2.8524,-8.55711 5.7047,-5.70417 v -5.70474 l 2.8524,-2.85238 5.7041,-2.85237 h 5.7048 l 5.7047,-2.85179 h 8.5566 l 5.7047,-5.70474 v -17.11424 l 11.4089,-2.85237 2.8524,-2.85179 8.5571,-2.86457 h 2.8524 l 2.8523,5.70474 5.7048,-2.85237 11.4089,-5.70475 v -2.85237 l 2.8524,-5.70416 2.8524,-2.85238 h 8.5571 l 2.8524,2.85238 2.8523,-2.85238 h 2.8524 l 8.5565,-2.85237 h 11.4095 l 5.6926,5.70475 2.8523,-2.85238 5.7048,-8.55711 h 5.7041 l 2.8524,-2.85238 2.8524,-8.55653 11.4095,-5.70475 5.7042,-5.70474 5.7047,-8.55712 5.7047,2.85237 2.8524,2.85237 h 5.7041 v -5.70474 h -2.8523 l -5.7042,-8.55654 2.8524,-8.557105 2.8524,-5.70417 8.5565,-5.70474 8.5571,-2.85238 8.5566,-5.70474 5.7047,-5.70416 5.7048,-2.85238 8.5565,-5.70474 14.2618,-2.85237 8.5571,-8.55712 8.5566,-5.70475 5.7048,-8.55653 h 2.8523 v -14.26128 l -2.8523,-2.85238 2.8523,-5.70474 5.7048,2.85237 2.8517,-2.85237 2.8408,-5.7047503 2.8524,-2.85237 5.7047,-2.85237 2.8524,-2.852369958787 h 2.8518 L 494.88343,2.8523547 h 5.7048 v 2.85237 z"
     style="clip-rule:evenodd;fill:#000000;fill-rule:nonzero;stroke:none;stroke-width:5.94293px"
     id="path1340" />
</svg>
