<?xml version="1.0" encoding="UTF-8" standalone="no"?>
<svg
   xmlns:dc="http://purl.org/dc/elements/1.1/"
   xmlns:cc="http://creativecommons.org/ns#"
   xmlns:rdf="http://www.w3.org/1999/02/22-rdf-syntax-ns#"
   xmlns:svg="http://www.w3.org/2000/svg"
   xmlns="http://www.w3.org/2000/svg"
   xmlns:sodipodi="http://sodipodi.sourceforge.net/DTD/sodipodi-0.dtd"
   xmlns:inkscape="http://www.inkscape.org/namespaces/inkscape"
   version="1.0"
   width="1024pt"
   height="1024pt"
   viewBox="0 0 1024 1024"
   preserveAspectRatio="xMidYMid meet"
   id="svg2211"
   sodipodi:docname="vector.svg"
   inkscape:version="1.0.2-2 (e86c870879, 2021-01-15)">
  <defs
     id="defs2215" />
  <sodipodi:namedview
     pagecolor="#ffffff"
     bordercolor="#666666"
     borderopacity="1"
     objecttolerance="10"
     gridtolerance="10"
     guidetolerance="10"
     inkscape:pageopacity="0"
     inkscape:pageshadow="2"
     inkscape:window-width="1366"
     inkscape:window-height="697"
     id="namedview2213"
     showgrid="false"
     inkscape:zoom="0.1940918"
     inkscape:cx="1266.7524"
     inkscape:cy="760.26375"
     inkscape:window-x="-8"
     inkscape:window-y="-8"
     inkscape:window-maximized="1"
     inkscape:current-layer="svg2211"
     fit-margin-top="0"
     fit-margin-left="0"
     fit-margin-right="0"
     fit-margin-bottom="0" />
  <metadata
     id="metadata2205">
Created by potrace 1.10, written by Peter Selinger 2001-2011
<rdf:RDF>
  <cc:Work
     rdf:about="">
    <dc:format>image/svg+xml</dc:format>
    <dc:type
       rdf:resource="http://purl.org/dc/dcmitype/StillImage" />
    <dc:title></dc:title>
  </cc:Work>
</rdf:RDF>
</metadata>
  <path
     d="m 1012.4425,511.9988 v 23.01171 l -11.5058,23.01171 -23.01165,23.01171 -23.0094,11.50586 -23.0117,11.50351 h -11.5059 l -23.0093,11.50585 h -34.5176 l -34.5152,34.51757 h -23.0117 l -23.0117,11.50585 h -11.5059 l -11.5059,11.50586 -11.5058,23.00937 -11.5059,34.51756 -11.5058,23.00937 v 34.51756 l -23.0117,34.51757 -11.5059,11.50585 -23.00935,11.50586 -11.50585,11.50585 -11.50586,23.00937 v 23.01171 l 11.50586,11.50585 v 23.01171 h -11.50586 l -23.01171,11.50351 -11.50585,11.50586 v 34.51754 l -23.00937,11.50593 h -46.02342 l -11.50586,-11.50593 v -23.01169 l 11.50586,-11.50585 v -11.50586 h -34.46835 l -11.50586,-11.50351 -11.50585,-11.50585 h -69.03279 l -11.50586,11.50585 v 11.50351 l 11.50586,23.01171 v 11.50586 l -11.50586,11.50583 H 379.68382 L 368.17797,983.72714 345.1686,960.71543 h -23.01171 l -11.50585,23.01171 -23.01168,11.50583 h -23.00937 l -11.50585,-11.50583 v -23.01171 l -23.01171,23.01171 h -80.53864 l -11.50586,-11.50586 11.50586,-11.50585 -11.50586,-11.50586 -11.50585,-11.50351 V 926.20021 L 115.05622,914.69435 V 880.17679 H 103.55037 V 857.16742 L 92.04451,845.66157 H 80.53866 V 834.15571 L 69.0328,822.64986 H 57.52695 V 811.144 L 46.02109,799.63815 H 23.00938 V 742.11122 H 34.51524 V 730.60536 L 23.00938,719.09951 V 707.59365 L 34.51524,696.0878 V 638.56086 L 23.00938,627.05501 V 615.54915 H 1.9741211e-5 11.50587 L 34.51524,604.0433 H 57.52695 L 69.0328,592.53979 v -11.50586 l 13.91951,-29.58012 6.84727,-16.16209 15.03963,-15.04198 13.022,-3.02995 20.20438,-5.21864 11.50585,-11.50586 v -11.50585 l 11.50586,-11.50586 34.51756,-11.50585 11.50586,-11.50586 34.51522,-11.50585 11.50585,-11.50351 12.29088,-22.73051 8.4759,-18.57809 7.46358,-12.01202 7.85725,-10.38339 13.5258,-13.91716 -1.90749,-7.85726 6.17473,-21.10422 5.4436,-28.06163 11.50586,-11.50586 11.50585,-23.01171 v -34.51522 l -1.40366,-24.41538 -18.18441,-19.36311 -2.41365,-10.49587 8.69852,-29.68792 v -23.01171 l 23.01171,-23.01171 11.50585,-11.505853 11.50586,-11.505855 h 11.50585 V 86.293887 L 391.18968,97.79974 H 425.7049 L 448.71661,109.3056 471.72832,97.79974 506.24354,63.282177 517.7494,51.778665 529.25525,28.766955 540.76111,17.2611 h 23.01171 l 34.51522,34.517565 -11.50586,11.503512 -23.00936,23.01171 V 97.79974 l 34.51522,34.51757 11.50585,23.01171 h 46.02342 l 11.50586,-11.50586 v -11.50585 l 11.50585,-23.01171 h 11.50583 l 11.5059,-11.50586 h 23.0117 v 11.50586 l 11.5058,11.50585 v 23.01171 l 34.5153,69.03279 11.5058,11.50585 h 11.5059 l 23.0117,11.50586 11.5058,23.00936 v 23.01171 h 11.5059 l 11.5059,11.50586 11.5058,11.50585 v 11.50586 h 11.5059 l -11.5059,11.50351 -11.5058,11.50586 -23.0094,11.50585 -11.5059,11.50586 v 23.01171 h 57.527 l 11.5058,11.50585 11.5059,11.50586 11.5058,11.50585 11.5059,-11.50585 11.5058,-11.50586 v -11.50585 h 34.5153 l 11.5058,11.50585 11.5059,-11.50585 h 11.50575 l 11.5059,-11.50586 11.5058,11.50586 v 69.03278 l -23.0093,23.01171 v 11.50586 l 11.5058,11.50585 v 11.50586 z"
     style="clip-rule:evenodd;fill:#000000;fill-rule:nonzero;stroke:none;stroke-width:23.9725px"
     id="path1258" />
</svg>
