<?xml version="1.0" encoding="UTF-8" standalone="no"?>
<svg
   xmlns:dc="http://purl.org/dc/elements/1.1/"
   xmlns:cc="http://creativecommons.org/ns#"
   xmlns:rdf="http://www.w3.org/1999/02/22-rdf-syntax-ns#"
   xmlns:svg="http://www.w3.org/2000/svg"
   xmlns="http://www.w3.org/2000/svg"
   xmlns:sodipodi="http://sodipodi.sourceforge.net/DTD/sodipodi-0.dtd"
   xmlns:inkscape="http://www.inkscape.org/namespaces/inkscape"
   version="1.0"
   width="1024pt"
   height="1024pt"
   viewBox="0 0 1024 1024"
   preserveAspectRatio="xMidYMid meet"
   id="svg2211"
   sodipodi:docname="vector.svg"
   inkscape:version="1.0.2-2 (e86c870879, 2021-01-15)">
  <defs
     id="defs2215" />
  <sodipodi:namedview
     pagecolor="#ffffff"
     bordercolor="#666666"
     borderopacity="1"
     objecttolerance="10"
     gridtolerance="10"
     guidetolerance="10"
     inkscape:pageopacity="0"
     inkscape:pageshadow="2"
     inkscape:window-width="1366"
     inkscape:window-height="697"
     id="namedview2213"
     showgrid="false"
     inkscape:zoom="0.1940918"
     inkscape:cx="1266.7524"
     inkscape:cy="760.26375"
     inkscape:window-x="-8"
     inkscape:window-y="-8"
     inkscape:window-maximized="1"
     inkscape:current-layer="svg2211"
     fit-margin-top="0"
     fit-margin-left="0"
     fit-margin-right="0"
     fit-margin-bottom="0" />
  <metadata
     id="metadata2205">
Created by potrace 1.10, written by Peter Selinger 2001-2011
<rdf:RDF>
  <cc:Work
     rdf:about="">
    <dc:format>image/svg+xml</dc:format>
    <dc:type
       rdf:resource="http://purl.org/dc/dcmitype/StillImage" />
    <dc:title></dc:title>
  </cc:Work>
</rdf:RDF>
</metadata>
  <path
     d="m 352.65373,674.77335 h 3.3907 z m -10.1723,-64.4223 h 3.3908 z m -3.3907,-40.68689 v 3.39075 z m 0,3.39075 h 3.3907 z m -30.5148,-61.03283 v 3.39075 z m 30.5148,50.86127 h 3.3907 z m -3.3902,-10.17225 v 3.39075 z m 3.3902,3.39075 h -3.3902 z m -3.3902,-6.78082 v 3.39076 z m -27.1252,-54.25132 v 6.7815 h -3.3908 v 3.39075 -10.17225 z m 0,-3.39076 h -3.3908 z m 37.2969,54.25133 h -3.3908 z m -3.3908,3.39075 h 3.3908 v -3.39075 3.39075 z m -23.7346,-50.86126 v 3.39075 z m 30.5147,50.86126 h -3.3907 v -3.39075 h 3.3907 z m -33.9075,-64.42289 v -3.39075 z m 3.3908,-3.39075 v 3.39075 z m 3.3907,0 v 3.39075 z m 20.3438,-6.78081 v 3.39075 z m -3.3908,-16.95307 h -3.39 z m 3.3908,3.39075 v -3.39075 z m 3.3907,-3.39075 h -3.3907 z m 3.3908,0 v 3.39075 h -3.3908 3.3908 z m 0,0 h 3.3907 l -3.3907,3.39075 z m 0,-10.17225 v 6.7815 h -3.3908 v -3.39075 3.39075 -3.39075 h 3.3908 v -3.39075 h -3.3908 z m 3.3907,6.7815 h -3.3907 z m 3.3908,-3.39075 h -3.3908 v -3.39075 h 3.3908 -3.3908 3.3908 z m -6.7815,-16.95376 v 3.39076 z m 10.1722,13.56301 h -3.3907 3.3907 -3.3907 3.3907 v -3.39075 z m 6.7809,6.7815 h -3.3908 v -3.39075 h 3.3908 z m -6.7809,-13.563 v -3.39075 z m -3.3907,-6.78151 h 3.3907 z m 3.3907,0 v 3.39076 z m 6.7809,13.56301 h 3.3907 z m -3.3908,-10.17225 v 3.39075 z m -3.3901,-6.78082 h -3.3907 v 3.39076 h 3.3907 -3.3907 v 3.39075 -3.39075 h -3.3908 v -3.39076 h 3.3908 v -3.39075 h 3.3907 z m 10.1716,16.95307 h -3.3907 v -3.39075 h 3.3907 z m -13.5623,-27.12532 v 3.39075 z m 10.1716,20.34382 v 3.39075 z m -6.7809,-13.56232 v -3.39075 z m 0,-3.39075 h -3.3907 v 3.39075 -3.39075 z m 3.3901,0 h 3.3908 z m 440.7348,427.21046 h -3.3907 v 3.3908 h -3.3908 v -6.7815 h 3.3908 v 3.3907 z m -3.3907,-81.3766 h 3.3907 -3.3907 v 3.3907 z m 0,-13.563 v 10.1722 -3.3907 h -3.3908 3.3908 -3.3908 3.3908 -3.3908 3.3908 v -3.3908 h -3.3908 3.3908 -3.3908 3.3908 z m 10.1716,-105.1105 v -3.3908 l 3.3907,3.3908 z m 10.1722,0 v -3.3908 z m 0,-16.9531 h -3.3907 3.3907 -3.3907 z m 13.5623,-47.46915 h -3.3908 v -3.39076 h 3.3908 z m 3.3908,-27.12532 v 6.7815 -3.39075 h -3.3908 3.3908 -3.3908 3.3908 v -3.39075 3.39075 z m 0,0 v -3.39075 z m 0,-13.56232 v 6.78081 z m 6.7815,-81.37665 v 3.39075 z M 742.52583,288.22698 v -3.39075 h 3.3907 v 3.39075 z m 105.1119,172.92416 v 6.78082 h -3.3908 v -6.78082 z m 3.3907,0 v -3.39075 z m -3.3907,-13.563 v 3.39075 z m -91.5475,-159.35978 v -3.39075 z m 91.5475,145.79885 v -3.39076 z m 0,-6.78151 v -3.39075 z m 0,-10.17156 h 3.3907 z m -33.9075,-81.37664 v -3.39075 z m 6.7815,6.7815 v 6.78151 h 3.3907 -3.3907 3.3907 v 6.7815 -3.39075 h -3.3907 v -6.78151 h -3.3908 3.3908 -3.3908 V 342.479 Z m -40.6869,-74.59652 h 3.3907 z m 13.563,16.95375 h -3.3908 z m -20.3445,-50.86127 h -3.3901 v -3.39075 h 3.3901 z m 50.8612,61.03007 v 27.12601 h -3.3907 v -6.7815 h -3.3908 v -3.39075 h -3.3901 v -13.56301 h -3.3907 v -3.39075 h 3.3907 v -3.39075 3.39075 l 3.3901,-3.39075 v 3.39075 -3.39075 3.39075 -3.39075 3.39075 z m -27.1253,-74.59445 h 3.3907 z m -10.1715,-27.13982 h 3.3907 z m 0,-77.98659 v -3.39075 3.39075 -3.39075 z m -505.1598,396.71029 v -3.39075 l -6.7815,-13.56301 h -6.7815 l -6.7815,6.7815 h -10.1723 v -3.39075 l -6.7808,-6.7815 v -3.39075 l -3.3908,3.39075 v 10.17225 l -3.3907,3.39075 v -13.563 l -3.3908,6.7815 h -10.1715 l -3.3908,-6.7815 v -6.7815 l -3.3907,-3.39075 -3.3908,-6.78082 -3.3907,-3.39075 v -3.39075 l 6.7815,-6.7815 6.7815,-6.78081 3.39,-3.39075 v -13.56301 l 6.7815,-6.7815 3.3908,-3.39075 h 6.7815 l -3.3908,-10.17157 -3.3907,-6.78149 h 3.3907 l -6.7815,-10.17156 -6.7815,-10.17226 v -3.39075 l -3.39,-3.39075 -6.7815,-20.34382 -10.1723,-6.7815 -3.3907,-10.17156 -6.7809,-10.17225 -3.3907,-6.78082 -3.3908,-6.7815 -6.7815,-10.17225 v -6.78082 l -6.7815,-6.7815 -3.3907,-6.78081 -6.7808,-3.39075 -3.3908,-3.39075 v -3.39075 h 3.3908 v -3.39075 h 3.39 v -3.39076 h 3.3908 -3.3908 3.3908 v -3.39075 h 3.3907 v -6.7815 h 3.3908 -3.3908 3.3908 v -3.39075 l 3.3907,-3.39075 v -3.39075 h 3.3908 -3.3908 3.3908 v -3.39075 h 3.3907 -3.3907 3.3907 v -3.39076 l 3.3908,-3.39075 v -3.39075 h 3.3907 v -3.39075 h 3.3908 v -3.39075 h 3.3901 -3.3901 3.3901 v -3.39075 h 3.3907 v -3.39075 h 6.7815 v -3.39075 h 3.3908 l 3.3907,-3.39076 h 33.9076 v 3.39076 h 50.8612 l 3.3908,3.39075 h 3.3907 v -3.39075 h 6.7808 v 3.39075 -3.39075 h 6.7815 v 3.39075 -3.39075 3.39075 h 20.3439 v 3.39075 -3.39075 3.39075 h 6.7815 l 3.3907,-3.39075 h 6.7815 v -3.39075 h 13.5623 v -3.39076 h 6.7815 v -3.39075 h 3.3907 -3.3907 l 3.3907,-3.39075 v -10.17225 h 3.3908 -3.3908 3.3908 v -10.17156 h 3.3907 v -6.78151 l 3.3901,-3.39075 v -3.39075 h 3.3908 V 176.317 h 3.3907 v -3.39075 h 3.3908 v -6.7815 h 3.3907 v -3.39076 h 3.3908 v -3.39075 h 3.3907 v -3.39075 l 3.3908,-3.39075 6.7815,-6.78081 v -3.39075 h 3.39 v -3.39075 h 3.3908 v -10.17226 l 3.3907,-3.39075 V 81.37735 h 3.3908 v -3.39076 h 3.3907 v -3.39075 h 3.3908 v -3.39075 h 3.3907 v -3.39075 h 3.3901 l 3.3908,-3.39074 h 3.3907 v -3.39075 h 3.3908 V 57.6421 h 6.7815 v -3.39076 h 3.3907 v -3.39075 h 3.3901 v -3.39075 h 3.3907 l 3.3908,-3.39075 h 3.3907 v -3.39075 h 3.3908 v -3.39075 h 3.3907 l 3.3908,-3.39075 h 6.767 v 3.39075 l 3.3908,-3.39075 h 3.3907 v 3.39075 -3.39075 3.39075 h 3.3908 v -3.39075 h 6.7807 v 3.39075 -3.39075 h 23.7353 l 3.3907,-3.39075 v 3.39075 l 3.3908,-3.39075 h 10.1716 v -3.39076 h 3.3907 v -3.39075 h 3.3908 -3.3908 V 13.56233 h -3.3907 V 6.7815197 h -3.3908 3.3908 V 1.9741212e-5 L 566.25163,3.3907697 h 6.7816 v 3.39075 h 6.7807 l 3.3908,3.3907503 h 3.3907 l 3.3908,3.39075 h 6.7815 v 3.39075 h 10.1716 l -3.3908,3.39075 v 6.78151 h -3.3901 v 3.39075 h 13.5624 v 3.39075 h 13.563 l 3.3907,-3.39075 h 10.1716 l 3.3907,-3.39075 h 6.7815 v -3.39076 h 3.3908 v -3.39075 h 10.1716 v 3.39075 h 3.3907 v 3.39076 h 3.3908 v 6.78081 h 6.7815 v 3.39075 h 13.5484 v 3.39075 h 6.7815 v 3.39075 h 3.3908 v 3.39075 h -3.3908 3.3908 v 3.39075 h 10.1716 v 3.39075 h 6.7815 v -3.39075 h 13.5623 v -3.39075 h 6.7815 v -3.39075 h 3.3907 v -3.39075 h 3.3908 v -3.39075 h 3.3907 -3.3907 l 3.3907,-3.39075 h 3.3908 v 13.563 h -3.3908 V 57.6421 h -3.3907 v 6.78081 h -3.3908 v 6.78149 h -3.3907 3.3907 v 6.78081 h 3.3908 v 6.78151 h 3.3907 v 3.39075 h 3.3908 v 3.39075 h 10.1716 v -3.39075 h 3.3907 l 3.3908,-3.39075 h 3.3907 v -3.39076 h 6.7815 v -6.7815 h 6.7808 v -3.39075 h 3.3908 v -3.39075 h 3.3907 l 3.3908,-3.39074 v 3.39074 h -3.3908 3.3908 v 3.39075 h -3.3908 3.3908 v 10.17225 -3.39075 16.95376 h 3.3907 -3.3907 3.3907 -3.3907 v 3.39075 h 3.3907 -3.3907 v 10.17156 h -3.3908 3.3908 -3.3908 3.3908 -3.3908 v 3.39075 h -10.1722 v 3.39076 h 10.1722 v -3.39076 3.39076 -3.39076 3.39076 l -3.3907,3.39075 v -3.39075 3.39075 h 3.3907 v -3.39075 h 3.3908 -3.3908 3.3908 v 13.563 h 3.3907 -3.3907 3.3907 -3.3907 v 3.39075 h 3.3907 -3.3907 3.3907 -3.3907 v 3.39075 h 3.3907 v -3.39075 h 3.3908 -3.3908 3.3908 v -10.17225 h 10.1722 v -3.39075 h 6.7809 v -3.39075 3.39075 -3.39075 h 10.1722 v 10.17225 h -3.3907 v 6.78081 h -3.3908 v 3.39075 h 3.3908 -3.3908 v 3.39075 h 3.3908 v -3.39075 6.78151 -3.39076 h 3.3907 v -3.39075 h 3.3908 v -3.39075 h 3.3907 v -6.7815 h 3.39 -3.39 6.7808 v -3.39075 h 3.3907 v -6.78081 h 3.3908 v -3.39076 h 6.7815 v 6.78082 h -3.3908 3.3908 v 3.39075 -3.39075 3.39075 h 3.3908 l -3.3908,3.39075 v 10.17225 h -3.3908 v 6.78081 h 3.3908 -3.3908 3.3908 -3.3908 3.3908 -3.3908 v 10.17226 h -3.3907 3.3907 -3.3907 v 3.39075 h 3.3907 v 3.39075 h -6.7815 v 3.39075 h -3.3907 3.3907 v 6.7815 h -3.3907 3.3907 v 3.39076 h 3.3908 v 6.7815 h 3.3907 l -3.3907,3.39075 h 3.3907 -3.3907 3.3907 v 16.95307 h -3.3907 3.3907 v 3.39075 h -3.3907 v 3.39075 -3.39075 h -3.3908 v 3.39075 h -3.3907 v 3.39075 h -3.3908 v -3.39075 3.39075 h -3.39 v 3.39075 -3.39075 3.39075 -3.39075 h -16.9537 V 206.831 h -3.3901 v -3.39075 h -3.3908 v -16.95307 h -3.3907 v -10.17225 h 3.3907 v -3.39075 h -3.3907 v -3.39076 h -3.3908 3.3908 -3.3908 v -3.39075 h 3.3908 -3.3908 v -10.17225 h 6.7815 v -3.39075 3.39075 h 3.3908 v -3.39075 h 3.3901 v -3.39075 h 3.3907 v -6.78081 3.39075 h -3.3907 v 3.39075 h -3.3901 v 3.39075 h -13.563 v -3.39075 l -3.3908,3.39075 v -6.7815 3.39075 h -3.3907 3.3907 -3.3907 3.3907 -3.3907 v 10.17225 h -3.3908 v -3.39075 h 3.3908 -3.3908 v 3.39075 h -3.3907 v -3.39075 3.39075 -3.39075 h -3.3908 v 3.39075 h 10.1723 -3.3908 v 3.39075 h 3.3908 v 3.39075 h 3.3907 v 3.39076 h -3.3907 v 6.78081 h 3.3907 v 6.7815 h -6.7815 v 10.17225 h -6.7815 v -3.39075 h -6.7808 3.3901 v 3.39075 h -3.3901 3.3901 v -3.39075 3.39075 h 3.3907 v -3.39075 6.7815 h 3.3908 v 3.39076 h -3.3908 v 3.39075 h -3.3907 6.7815 v -3.39075 h 3.3907 v 6.78081 h 3.3908 -3.3908 3.3908 v 3.39075 h -3.3908 3.3908 v 6.7815 h 3.3907 -3.3907 3.3907 v 3.39075 h -3.3907 v -3.39075 h -3.3908 v 3.39075 -3.39075 3.39075 l -3.3907,-3.39075 v 3.39075 l -3.3908,-3.39075 v 3.39075 h -6.7808 v 3.39075 -3.39075 3.39075 l 3.3901,-3.39075 v 3.39075 -3.39075 h 13.563 v 3.39075 h 3.3907 v 6.78082 h 3.3908 v -3.39076 3.39076 h -3.3908 3.3908 -20.3445 v -3.39076 3.39076 h -10.1716 v -3.39076 h -3.3907 v 3.39076 h 3.3907 -6.7815 v 3.39075 -3.39075 3.39075 -3.39075 h -3.3907 3.3907 v 3.39075 h 3.3908 -3.3908 v 3.39075 h 3.3908 v -3.39075 3.39075 l 3.3907,-3.39075 v 3.39075 -3.39075 3.39075 -3.39075 h 13.5623 v 3.39075 h 3.3908 -3.3908 v -3.39075 h -3.3907 3.3907 v -3.39075 3.39075 -3.39075 h 3.3908 v 3.39075 -3.39075 3.39075 -3.39075 h 3.3907 v 3.39075 -3.39075 3.39075 h 3.3908 v 3.39075 -3.39075 h 3.3907 v 10.17225 -3.39075 h -3.3907 v -3.39075 h -3.3908 v 3.39075 -3.39075 3.39075 -3.39075 3.39075 h 3.3908 -3.3908 3.3908 -3.3908 3.3908 v 3.39075 h 3.3907 v 3.39075 h 6.7815 -3.3907 v 6.7815 h 3.3907 v 6.78082 h -13.563 3.3908 v 3.39075 h 3.3907 -3.3907 v 3.39075 -3.39075 3.39075 h -6.7815 v -3.39075 3.39075 -3.39075 h -3.3908 v 3.39075 h 3.3908 l -3.3908,3.39075 v -3.39075 h -3.3907 3.3907 v -3.39075 h -3.3907 v 3.39075 h -3.3901 v -6.7815 h -3.3907 3.3907 -10.1722 v -3.39075 3.39075 h 3.3907 v 3.39075 h 6.7815 v 10.17225 h -6.7815 v -3.39075 h -3.3907 v -3.39075 h -3.3908 l 3.3908,3.39075 v 3.39075 -3.39075 3.39075 h 3.3907 -3.3907 v 6.78081 -3.39075 h 3.3907 v -3.39075 3.39075 h 3.3908 -3.3908 v 3.39075 h -6.7815 v 3.39075 h -6.7808 v -3.39075 h -3.3908 v 3.39075 -3.39075 3.39075 -3.39075 h -3.3907 v 3.39075 h -3.3908 v -3.39075 3.39075 -3.39075 3.39075 -3.39075 h -6.7815 v -3.39075 h -3.3907 v -3.39075 h -3.3908 v -3.39075 h -3.3907 v -3.39075 h -3.3908 v 3.39075 h -6.7808 v -3.39075 3.39075 h -3.3907 v 3.39075 h -3.3908 v 3.39075 h -6.7815 v 3.39075 h -6.7808 v 3.39075 h -3.3908 3.3908 v 3.39076 -3.39076 h 3.3901 v -3.39075 3.39075 -3.39075 h 3.3907 v -3.39075 h 10.1723 v -3.39075 h 6.7815 v -3.39075 h 3.39 v 3.39075 -3.39075 h 3.3908 v 3.39075 h 3.3907 v 6.7815 h 3.3908 -3.3908 v 3.39075 l 3.3908,-3.39075 v 3.39075 -3.39075 h 3.3907 v 3.39075 h 3.3908 -3.3908 v 3.39076 h 3.3908 v 3.39075 h 3.3907 v -3.39075 h 13.5624 v 3.39075 h -3.3901 6.7808 v -3.39075 h 6.7815 v 3.39075 h -3.3907 3.3907 -3.3907 3.3907 v -6.78151 h 3.3908 v -3.39075 h 10.1715 -3.3907 v -3.39075 h 3.3907 v -3.39075 h 3.3908 v 3.39075 h 3.3907 v 3.39075 h 3.3908 v 3.39075 h -6.7815 3.3907 v 3.39076 h 3.3908 v 6.7815 h -3.3908 v -3.39075 3.39075 h 3.3908 v -3.39075 h 3.3907 v 3.39075 h 6.7815 v 10.17156 h 3.3908 v 6.7815 h 3.3907 v 6.78151 h 3.3908 -3.3908 v 3.39075 h 3.3908 v 3.39075 h -6.7815 3.3907 v 10.17156 h 3.3908 v 3.39075 h -3.3908 3.3908 v 6.78151 h -3.3908 3.3908 v 3.39075 h 3.3901 -3.3901 v 3.39075 h 3.3901 -3.3901 v 3.39075 h 3.3901 v 6.78081 h -3.3901 v 3.39075 h 3.3901 v -3.39075 3.39075 h 3.3907 -6.7808 v 3.39075 -3.39075 3.39075 h -3.3908 10.1716 v 6.78151 h -3.3907 6.7815 -3.3908 3.3908 -3.3908 v 3.39075 h -3.3907 3.3907 -3.3907 v 3.39075 h 3.3907 v -3.39075 3.39075 h 3.3908 v 3.39075 h 3.3907 v -3.39075 h 3.3908 v -10.17225 h 3.3907 v 6.7815 -3.39075 3.39075 h 3.39 -3.39 l 3.39,3.39075 v 3.39075 h -3.39 v 3.39075 h 3.39 v 6.7815 h 3.3908 v 3.39076 h -3.3908 3.3908 -3.3908 v 3.39075 h 3.3908 v 16.95305 h 3.3907 v -3.39075 10.17156 h -3.3907 3.3907 -3.3907 v 3.39076 h 3.3907 -3.3907 v 10.17225 h -3.3908 v 3.39075 -3.39075 h 3.3908 v -3.39075 h 3.3907 v 3.39075 h -3.3907 3.3907 -3.3907 v 3.39075 -3.39075 3.39075 h 3.3907 -3.3907 3.3907 -3.3907 3.3907 v 16.95307 h -3.3907 v -3.39075 6.7815 h -3.3908 3.3908 -3.3908 v 3.39075 h 3.3908 -3.3908 v 3.39075 h 3.3908 -3.3908 v 3.39075 -3.39075 h 3.3908 v 3.39075 h -3.3908 v 3.39075 h 3.3908 -3.3908 v 3.39075 h -3.39 6.7808 v 6.78082 h -3.3908 v 3.39075 h 3.3908 -3.3908 v 3.39075 h -3.39 3.39 v 3.39075 h -3.39 3.39 v 3.39075 h -3.39 3.39 v 3.39075 h -3.39 v 20.34382 h -3.3907 3.3907 v 3.39075 h -3.3907 3.3907 v 3.39075 h -3.3907 v 3.39075 h 3.3907 -3.3907 3.3907 -3.3907 3.3907 v 3.39075 h -3.3907 3.3907 -3.3907 v 3.39076 h -3.3908 v 3.39075 h 3.3908 v 6.7815 h -3.3908 v 3.39075 h 3.3908 -3.3908 3.3908 -3.3908 v 16.95307 h -3.3907 v 3.39075 h 3.3907 v 3.39075 h -3.3907 3.3907 v 3.39075 h -3.3907 v 13.56298 h -3.3908 v 3.39078 h -3.3907 v 3.4045 h 3.3907 -3.3907 v 13.563 h -3.3901 v 6.7815 h -3.3908 v 6.7809 h -3.3907 v 3.3907 h 3.3907 -3.3907 3.3907 l -3.3907,3.3908 h 3.3907 -3.3907 v 3.3908 h -3.3908 v 3.3907 h 3.3908 v 3.3908 h -3.3908 v 3.3907 h 3.3908 v 3.3908 h -3.3908 v -3.3908 6.7815 h -3.3907 v 3.3908 h -3.3908 3.3908 -3.3908 3.3908 v -3.3908 h 3.3907 v 3.3908 h -3.3907 v 3.3907 h -3.3908 v 3.3908 h -6.7815 v 3.3907 h 3.3908 v -3.3907 h 6.7815 v -3.3908 h 6.7815 v -3.3907 3.3907 h -3.3908 3.3908 -3.3908 v 3.3908 h -6.7815 v 27.1252 h -3.3907 v 3.3908 h 3.3907 v -6.7808 h 3.3908 -3.3908 3.3908 v -6.7815 h -3.3908 v -6.7815 h 3.3908 v -3.3907 h -3.3908 v -3.3908 h 6.7815 v 6.7815 h -3.3907 6.7815 -3.3908 3.3908 v -3.3907 h 3.3907 v 6.7815 h -3.3907 v 10.1715 h -3.3908 3.3908 v 16.9537 -3.3907 h -3.3908 v 3.3907 l -3.3907,3.3908 v 10.1716 h -3.3908 3.3908 -3.3908 v 3.3908 h -3.3907 6.7815 v 13.563 h -3.3908 3.3908 -3.3908 v 13.5622 h -3.3907 v 16.9538 h -3.3908 v 3.3907 h 3.3908 v 3.3908 h -3.3908 v 3.3907 h 3.3908 v 3.3908 -10.1723 h 3.3907 v 3.3908 h 3.3908 -3.3908 v 6.7815 h 3.3908 v 3.3907 h 6.7815 v -6.7815 h 3.3907 v -3.3907 h 3.3908 v -3.3908 h 3.3901 v -3.3907 h -3.3901 3.3901 v -3.3908 h 3.3907 v 3.3908 h -3.3907 v 13.563 h -3.3901 v 3.3907 h -3.3908 v 6.7809 h -3.3907 v 3.3907 h -3.3908 v 3.3908 l -3.3907,3.3907 h 3.3907 -3.3907 3.3907 v 3.3908 h -3.3907 3.3907 v 3.3907 h -3.3907 v 13.5631 h -3.3908 3.3908 v 3.3907 h 3.3907 -6.7815 v 3.3908 h 3.3908 -3.3908 3.3908 v 6.7807 h -3.3908 v 3.3908 h -3.3907 v -6.7808 h -3.3908 v 3.3908 -3.3908 3.3908 h -3.3907 v 10.1715 h -3.3908 v 6.7815 h -3.3907 3.3907 v 6.7815 h -3.3907 13.563 v -3.3908 h 3.3907 v 3.3908 h 3.3908 -3.3908 v 6.7808 h -3.3907 v 10.1723 h -3.3908 v 3.3907 h 3.3908 v 3.3908 h 3.3907 v 3.3907 h -3.3907 3.3907 v 6.7808 h -3.3907 v 3.3908 h -3.3908 v 6.7815 h -3.3907 l -3.3908,3.3907 h -3.3907 v 3.3908 h -6.7808 v -3.3908 3.3908 h -3.3908 v 6.7808 h -6.7815 v 3.3908 h -6.7808 3.3901 -3.3901 v 3.3907 h 3.3901 v 6.7815 h -3.3901 v 6.7815 h -3.3908 v 3.3908 h -6.7815 v 3.3907 h -3.3907 v 3.3908 h -6.7815 v 3.3907 h -6.7815 3.3907 -3.3907 v 3.3908 h -3.3908 3.3908 -3.3908 3.3908 v 3.3907 h -3.3908 v 13.5623 h 6.7815 -3.3907 3.3907 v 3.3908 l -3.3907,3.3907 h -6.7808 v 3.3908 h -3.3908 v 10.1722 -3.3907 3.3907 h -10.1722 v 3.3908 h -3.3908 v 3.39065 h -3.3907 v 3.3908 -3.3908 3.3908 h -10.1716 v -3.3908 3.3908 l 3.3907,-3.3908 v -6.78145 h 3.3908 v -10.1715 h 3.3901 v -3.3908 l -3.3901,3.3908 v 6.7808 h -3.3908 3.3908 -3.3908 v 6.7815 h -3.3907 v 3.39065 h 3.3907 -6.7815 v 6.7809 h -6.7815 v 3.3907 h -6.7807 v 3.3908 h -6.7815 v 3.3907 h -16.9538 v 3.3908 h -3.3907 v -3.3908 3.3908 h -3.3908 v -3.3908 3.3908 h -3.3901 v -3.3908 3.3908 h -3.3908 v -3.3908 h -10.1722 v 3.3908 -3.3908 h -13.5623 v 3.3908 -3.3908 3.3908 h -3.3907 v -3.3908 3.3908 h -3.3908 v -3.3908 3.3908 h -3.3907 v -3.3908 h -6.7815 v 3.3908 h -3.3908 v 3.3907 h -3.3907 v -3.3907 h -13.5624 v 3.3907 h -16.953 v -3.3907 h -6.7815 v -3.3908 h -16.9531 v -3.3907 3.3907 -3.3907 3.3907 -3.3907 h -6.7815 v 3.3907 h -3.3908 v -3.3907 h -13.5484 v -3.3908 h -3.3908 v -3.3907 h -10.1722 v -3.3908 h -3.3908 v -3.3907 h -6.7809 v -3.39075 h -3.3907 v -3.3907 h -3.3908 3.3908 v -3.3908 l -3.3908,3.3908 v -3.3908 h -6.7815 v -3.3907 h -3.3907 v -3.3908 h -6.7815 v -3.3907 h -10.1715 v -3.3908 h -6.7815 v -6.7815 h -3.3908 v -3.3907 h -3.3907 v -3.3908 h -3.3901 v -3.3907 h -10.1723 v -6.7809 h -3.3907 v -3.3907 h -3.3908 v -3.3908 h -3.3907 v -6.7815 h -6.7808 v -3.3908 3.3908 -6.7808 h -3.3908 v -6.7815 h -3.3907 3.3907 -3.3907 3.3907 -3.3907 v -10.1722 h -3.3908 v -6.7809 h -3.3907 v -3.3907 h -3.3908 v -6.7815 3.3907 -13.5623 h -3.3907 v 3.3908 -16.9538 h -3.3908 3.3908 -3.3908 3.3908 v -40.6752 h -3.3908 v -10.1716 h -3.3907 v -13.563 h -3.3901 v -6.7815 h -3.3908 v -3.3907 h -3.3907 v -6.7815 h -3.3908 3.3908 -3.3908 v -3.3908 h -3.3907 3.3907 -3.3907 v -3.3907 h 3.3907 -3.3907 v -10.1716 h -3.3908 3.3908 -3.3908 3.3908 -3.3908 v -13.563 h -3.3907 3.3907 -3.3907 v -10.1716 h -3.3901 v -3.3907 h 3.3901 -3.3901 3.3901 -3.3901 l 3.3901,-3.3908 h -3.3901 v -6.7815 h -3.3907 v -10.1722 h -3.3908 v -3.3908 h 3.3908 -3.3908 v -10.1715 h -3.3907 v -20.3439 h 3.3907 v -3.3907 h 3.3908 -3.3908 3.3908 v -3.3908 h -3.3908 v -10.1722 h 3.3908 v -3.3908 h -3.3908 v -3.3907 h 3.3908 -3.3908 3.3908 -3.3908 v -3.3908 h 3.3908 v -6.7807 h 3.3907 v -10.1723 h 3.3901 l -3.3901,-3.3907 v -6.7815 h -3.3907 v -3.3908 h -13.563 v -3.3907 h -3.3908 v -3.3908 h -3.3907 3.3907 -3.3907 v -6.7808 3.3907 -3.3907 h 3.3907 v -6.7816 h 3.3908 v -3.3907 h 3.3907 v -3.3908 3.3908 h 3.3908 v 3.3907 h 3.3907 v 3.3908 -10.1723 h -3.3907 3.3907 v -3.3907 h -3.3907 v -3.3908 h 3.3907 -3.3907 v -6.78072 h 3.3907 v -3.39075 3.39075 h -6.7815 v -3.39075 h 3.3908 v -3.39077 3.39077 -3.39077 h 3.3907 -6.7815 3.3908 -3.3908 v 3.39077 -3.39077 h -3.3907 3.3907 -3.3907 l 3.3907,-3.39076 v 3.39076 -3.39076 h 3.3908 v 3.39076 -3.39076 h 10.1722 v -3.39075 h 6.7808 v -3.39075 h -3.3907 v 3.39075 h -6.7808 v 3.39075 h -6.7815 v -3.39075 3.39075 h -3.3908 v -3.39075 h 3.3908 v -3.39075 h 3.3907 v -3.39075 h 3.3908 -3.3908 v 3.39075 h -6.7815 v 3.39075 h -3.3907 v -6.7815 h -3.3908 v -3.39075 h 3.3908 v -3.39075 h 3.3907 -3.3907 v -3.39075 3.39075 h -3.3908 l 3.3908,-3.39075 v -3.39075 h 3.3907 v -3.39076 h 3.3908 -3.3908 v -3.39075 3.39075 -3.39075 h 3.3908 v -3.39075 h -3.3908 3.3908 v -3.39075 h 3.3907 v -3.39075 h -3.3907 v -3.39075 h 3.3907 v -3.39075 h 3.3908 -3.3908 v 3.39075 h -3.3907 v -3.39075 3.39075 h -3.3908 v 3.39075 -6.7815 h 3.3908 v -3.39075 h -3.3908 v 6.7815 -3.39075 h -3.3907 v 3.39075 h -3.3908 v 3.39075 h 3.3908 -3.3908 v 6.7815 h -3.3907 v -6.7815 3.39075 h -3.3763 v 3.39075 h 3.3907 -3.3907 v -6.7815 h -3.3908 v -3.39075 h 3.3908 v -3.39075 h -3.3908 3.3908 v -13.56232 h 3.3907 -3.3907 3.3907 v -16.95306 h 3.3902 v -6.78151 h 3.3907 -3.3907 3.3907 -3.3907 3.3907 v -13.56231 l 3.3908,-3.39075 v -3.39075 h 3.3907 v -6.7815 h 3.3908 v -3.39076 h 3.3907 v -6.7815 h 6.7815 v -3.39075 3.39075 h 3.3908 v -3.39075 3.39075 h 3.3907 v 3.39075 h 3.3908 v 3.39075 h 3.39 v -3.39075 h -3.39 3.39 -3.39 v -3.39075 h -3.3908 v -3.39075 h -3.3907 v -10.17156 h 3.3907 v -10.17226 h -6.7815 v -3.39075 h 3.3908 -3.3908 V 427.2533 h 3.3908 v -6.7815 3.39075 h -3.3908 v -3.39075 3.39075 h -3.3907 v -3.39075 h -3.3908 v -10.17225 l -3.3907,3.39074 h 3.3907 -6.7815 v -3.39074 3.39074 -6.7808 h -3.3907 3.3907 -3.3907 3.3907 v -13.563 h -3.3907 v 3.39075 h 3.3907 -3.3907 v 3.39075 h -3.3908 3.3908 v 3.39075 h -3.3908 3.3908 v 6.7815 -3.39075 3.39075 h 3.3907 -3.3907 3.3907 v 6.78081 h 3.3908 v -3.39076 6.78151 h 3.3907 -3.3907 3.3907 v 3.39075 h -3.3907 v 6.7815 h -3.3908 v -3.39075 l -3.3907,3.39075 h 3.3907 -3.3907 3.3907 -3.3907 3.3907 -3.3907 v 6.78081 h 3.3907 l -3.3907,3.39075 v 10.17226 h -3.3908 v 3.39075 h -3.3907 v 3.39075 -3.39075 3.39075 -3.39075 h -3.3902 v 3.39075 h -3.3907 v -10.17225 h -3.3908 v 3.39075 -3.39075 6.7815 h 3.3908 v 3.39075 h -3.3908 3.3908 v 3.39075 h -3.3908 v -6.7815 h -3.3907 v 3.39075 h -3.3908 v 3.39075 -3.39075 h -3.3907 3.3907 -3.3907 v -3.39075 h -3.39 l 3.39,3.39075 v 3.39075 h 3.3907 v 6.7815 h -3.3907 v 10.17157 h -3.39 3.39 -3.39 v 3.39075 h -3.3908 v 10.17225 -3.39075 3.39075 -3.39075 3.39075 h 3.3908 -3.3908 3.3908 -3.3908 3.3908 v 10.17226 h -3.3908 v 3.39075 h -3.3907 v -10.17226 h 3.3907 -3.3907 v -3.39075 h -3.3908 v -3.39075 10.17225 h -3.3907 3.3907 -3.3907 3.3907 l -3.3907,3.39076 v 13.56231 h 3.3907 v 6.7815 h 3.3908 v 10.17157 l 3.3907,3.39075 h -3.3907 v -3.39075 6.7815 h -3.3908 v 3.39075 h -3.3907 3.3907 -3.3907 v -6.7815 3.39075 h 3.3907 -3.3907 v 3.39075 h 3.3907 v -13.56232 h -10.1722 v 3.39076 -3.39076 3.39076 -3.39076 3.39076 -3.39076 h -3.3901 v 3.39076 h -3.3908 v -13.56301 h -3.3907 v -6.78081 3.39075 h -3.3908 v -3.39075 z"
     style="clip-rule:evenodd;fill:#000000;fill-rule:nonzero;stroke:none;stroke-width:7.06464px"
     id="path1330" />
</svg>
