<?xml version="1.0" encoding="UTF-8" standalone="no"?>
<svg
   xmlns:dc="http://purl.org/dc/elements/1.1/"
   xmlns:cc="http://creativecommons.org/ns#"
   xmlns:rdf="http://www.w3.org/1999/02/22-rdf-syntax-ns#"
   xmlns:svg="http://www.w3.org/2000/svg"
   xmlns="http://www.w3.org/2000/svg"
   xmlns:sodipodi="http://sodipodi.sourceforge.net/DTD/sodipodi-0.dtd"
   xmlns:inkscape="http://www.inkscape.org/namespaces/inkscape"
   version="1.0"
   width="1024pt"
   height="1024pt"
   viewBox="0 0 1024 1024"
   preserveAspectRatio="xMidYMid meet"
   id="svg2211"
   sodipodi:docname="vector.svg"
   inkscape:version="1.0.2-2 (e86c870879, 2021-01-15)">
  <defs
     id="defs2215" />
  <sodipodi:namedview
     pagecolor="#ffffff"
     bordercolor="#666666"
     borderopacity="1"
     objecttolerance="10"
     gridtolerance="10"
     guidetolerance="10"
     inkscape:pageopacity="0"
     inkscape:pageshadow="2"
     inkscape:window-width="1366"
     inkscape:window-height="697"
     id="namedview2213"
     showgrid="false"
     inkscape:zoom="0.1940918"
     inkscape:cx="1266.7524"
     inkscape:cy="760.26375"
     inkscape:window-x="-8"
     inkscape:window-y="-8"
     inkscape:window-maximized="1"
     inkscape:current-layer="svg2211"
     fit-margin-top="0"
     fit-margin-left="0"
     fit-margin-right="0"
     fit-margin-bottom="0" />
  <metadata
     id="metadata2205">
Created by potrace 1.10, written by Peter Selinger 2001-2011
<rdf:RDF>
  <cc:Work
     rdf:about="">
    <dc:format>image/svg+xml</dc:format>
    <dc:type
       rdf:resource="http://purl.org/dc/dcmitype/StillImage" />
    <dc:title></dc:title>
  </cc:Work>
</rdf:RDF>
</metadata>
  <path
     d="m 821.46801,926.86949 h -1.6463 v 1.64632 z m 3.2927,-8.22422 v 9.87054 h -3.2927 v 1.64632 h -1.6463 v 9.8776 h -1.6463 v 4.93893 h -1.6463 v 1.6463 h -1.6464 v 1.6464 h -3.2923 v 1.6463 l -1.6463,1.6463 v 1.646 h -1.6463 v 4.9389 h 1.6463 v 4.939 h -1.6463 v 3.2923 h -1.6463 v 13.1705 h 1.6463 v 1.646 h -1.6463 v 6.5853 h 1.6463 v 8.2313 h -1.6463 v 1.6463 h -1.6464 v 1.6463 h -1.6463 v 11.52394 h 1.6463 v 3.2926 h 1.6464 v 3.2927 h 1.6463 v 1.6463 h -3.2927 v 1.646 h -1.6463 v 1.6463 h -1.6459 V 1024 h -1.6464 v -1.6463 h -1.6463 v -3.2923 h -1.6463 v -1.6463 h -3.2926 v -1.6464 l 1.6463,-1.6463 v -9.8779 h 1.6463 v -3.2923 h 1.6463 v -1.64634 h -1.6463 v -3.2926 h 1.6463 v -4.9387 h 1.6463 v -9.8779 h -1.6463 v -23.0407 h 1.6463 v -8.2313 h -1.6463 v -4.939 l -1.6463,-1.6463 h 1.6463 v -1.64594 h -1.6463 V 930.1695 h 8.2312 v 1.64601 h 3.2927 v -1.64601 l 1.6463,1.64601 v -1.64601 h 4.9386 v -1.64632 h 1.6464 v -1.64632 h 1.6463 v -1.64631 h 1.6463 v -1.64632 h 1.6463 v -1.64632 h 1.6463 v -3.29264 z m 24.6947,92.18453 v -1.6463 h 3.2923 v -1.646 h 1.6463 v 3.2923 h 1.6464 v 1.6463 h -1.6464 v 3.2926 h -3.2922 v -1.6463 h -4.939 v -1.6463 h 1.6463 v -1.6463 z m 4.9386,-16.46324 h -1.6463 v -1.6463 h 3.2927 v 3.2926 h -1.6464 z m 13.1703,-39.51 v -3.2926 h 4.9389 v 1.6463 h 3.2927 v 1.6463 h 1.6463 v 1.6464 h -3.2926 v 1.6463 h -1.6464 v 1.6459 h 1.6464 l -1.6464,1.6464 v 4.9389 h -1.6463 v 3.2926 h -1.6463 v 4.9387 h -3.2926 v -1.6463 h -1.6464 v 1.6463 h -1.646 v -3.2926 h -1.6463 v -1.6461 h -1.6463 v -1.6463 h 1.6463 v -1.6463 h 1.6463 v -3.2926 h 3.2924 v -1.6463 h 1.6463 v -1.6464 h -1.6463 v -4.9386 h 1.6463 v 1.6464 h 1.6463 v -1.6464 z m 4.9389,-210.7194 h -1.6463 v -1.64632 h 1.6463 v -1.64632 h 1.6464 v -3.29263 h 1.6463 v -1.64601 h 1.6463 v -1.64632 h 8.2312 v 9.8776 h 4.939 v 1.64632 l 1.646,1.64632 v 3.29264 h -1.646 v 3.29228 h -3.2927 v 1.64632 h -1.6463 v 1.64632 h -1.6463 v 1.64631 h -1.6463 v 1.64632 h -1.6463 v 3.29264 h -1.646 v 8.23128 h -1.6463 v 1.64632 h -1.6463 v 4.9386 h -1.6463 v 1.64632 h -1.6464 v 3.29264 h -1.6463 v 8.23159 h -1.6463 l 1.6463,1.64601 h -1.6463 v 1.64632 h -1.6463 v 19.7548 h -1.6463 v 4.93864 h -1.6464 v 1.64632 h -1.646 v 3.29264 h -1.6463 v 1.64632 h -6.5853 v -1.64632 h -1.6463 v 1.64632 h -1.6459 v 8.23159 h 3.2922 v 6.58492 h 1.6464 v 6.58496 h -1.6464 v 1.64632 h -1.6463 v 1.64632 h 1.6463 v 1.64632 h -1.6463 v 3.29264 h -1.6459 v 6.58527 h -1.6464 v 4.9386 h 1.6464 v 14.8162 h -1.6464 v 1.64632 h -1.6463 v 1.64632 h -1.6463 v 1.646 h -1.6463 v 9.87792 l 1.6463,1.64596 v 4.93896 h -1.6463 v 1.64632 h -4.939 v -1.64632 h -1.6463 v -8.23124 h 1.6463 v -1.64632 h -1.6463 v -1.64632 h -1.6463 v -1.64632 h 3.2926 v -6.58496 h -1.6463 v -1.64632 l -1.6463,1.64632 v -3.29264 h 4.9389 v -1.64632 h 1.6464 v -9.87755 h -1.6464 v -1.64632 h -4.9389 v 1.64632 h -1.646 v -1.64632 h -1.6463 v -1.64632 h -1.6464 v -1.64632 h 3.2927 v -1.64632 h 4.9386 v -4.93864 h -1.6463 v -4.93896 h 1.6463 v -3.29264 h 1.6463 v -13.17019 h 1.6464 v -4.93896 h -1.6464 v -3.29232 h -1.6463 v -1.64632 h -3.2926 v -1.64632 h 3.2926 v -1.64632 h 1.6463 v 1.64632 h 1.6464 v -1.64632 h 3.2926 v -6.58492 h -1.6463 v -8.23128 h 1.6463 v -4.93896 h 3.2926 v -3.29263 h -1.6463 v -1.64632 h -1.6463 v -3.29264 h -1.6463 v -1.64632 h -1.6463 v -1.64596 h -1.6464 v -1.64632 h -1.6463 v -8.23159 h 4.939 v 1.64631 h 1.6463 v 1.64632 h 1.6463 l 1.6463,1.64632 h 1.6464 v 1.64632 h 1.6459 v 1.64632 h 4.939 v -1.64632 h 1.6463 v -1.64632 h 1.6463 v -1.64632 h 1.6463 v -1.64632 h 1.646 v -1.64631 h 1.6464 v -1.64601 h 1.6463 v -1.64632 h 1.6463 v -8.23159 h 3.2926 v -1.64632 h -1.6463 v -8.23124 h -1.6463 v -4.93896 l 1.6463,-1.64632 v -4.93864 l 1.6463,-1.64632 z m 41.1567,-115.24669 h -3.2927 v -1.64632 h 1.6463 v -6.58494 h 1.6464 v -3.29264 h 1.6463 v -3.29264 h 1.6463 v -1.64598 h 4.9386 v -1.64632 h 1.6463 v -1.64632 h 1.6463 v 4.93862 h -1.6463 v 11.5239 h -1.6463 v 3.29264 h 1.6463 v 1.64632 h -1.6463 v 11.5239 h 1.6463 v 1.64631 h 1.6463 v 1.64632 h -1.6463 l 1.6463,1.64632 h -1.6463 v 1.64632 h 1.6463 v 3.29264 h -1.6463 v 6.58494 h -1.6463 v 4.93896 h -1.6463 v 1.64632 h -1.646 v 11.52389 h -1.6463 v 4.93862 h 1.6463 v 1.64632 h -1.6463 v 11.5239 h -1.6463 v 1.64632 h -1.6463 v 1.64632 h 1.6463 v 1.64632 h -1.6463 v 1.64632 h -1.6464 v 1.64631 h -1.6463 v 1.64633 h -1.6463 v 1.64632 h -1.646 v -6.58528 l -1.6463,-1.64632 v -3.29264 h 1.6463 v -3.29264 h -1.6463 v -6.58494 h -1.6463 v -1.64632 h 1.6463 v -3.2923 h -1.6463 v -1.64632 h 1.6463 v -1.64632 h -1.6463 v -3.29264 h 1.6463 v -1.64631 h 3.2923 v -3.29231 l 1.6463,-1.64632 h -1.6463 v -1.64631 h 1.6463 v -3.29264 h -1.6463 v -6.58528 h -1.646 v -1.64632 h 1.646 v -16.46319 h 3.2926 v -1.64598 h 1.6464 v -3.29264 h 1.6463 l -1.6463,-1.64632 z m -446.11557,6.58528 h -4.93896 v -1.64632 h 9.87758 v 1.64632 h 11.52423 v 3.29263 h 1.64632 v 1.64632 h 1.64632 v 1.64599 h 3.2923 v 1.64631 h -1.64632 v 1.64632 h -1.64598 V 643.707 h -3.29264 v -1.64631 h -1.64632 l -1.64632,-1.64599 h -1.64632 l -1.64632,-1.64632 h -3.29263 v -1.64632 h -6.58494 z m 454.34377,-57.61916 v -3.29263 h 1.6463 v 1.64632 h 3.2927 v 1.64631 z m 0,-4.93895 v -6.58494 h 1.6463 v 1.64632 h 1.6463 v 3.2923 h -1.6463 v 1.64632 z M 82.35601,256.8214 v -1.64632 h 3.29264 v 1.64632 h 1.64632 v 1.64632 h 3.2923 v 1.64631 h 1.64632 v 1.64632 h 1.64632 v 1.64599 h 3.29263 v 1.64632 h 4.93863 v 1.64631 h 3.29263 v 1.64632 h 3.29264 v 1.64632 h 3.29264 v 1.64632 h 1.64632 v 1.64599 h 1.64632 v 3.29263 h 1.64632 v 11.52423 h 1.64598 v 1.64632 h 1.64632 v 4.93863 h -1.64632 v 1.64631 h 1.64632 l 1.64632,-1.64631 h 1.64632 v 1.64631 h 1.64632 v 4.93863 h 1.64632 v 1.64631 h 1.64632 v -1.64631 h 3.2923 v 1.64631 h 1.64632 v 1.64632 h 1.64632 v 4.93896 h 1.64631 v 1.64632 h 1.63928 v -1.64632 h 1.64632 v 1.64632 h -1.64632 v 1.64632 h 1.64632 v -1.64632 h 1.64632 v -1.64632 h 1.64632 v 1.64632 h 1.64632 v 1.64632 h -1.64632 v 4.93895 h 3.29264 l 1.64632,-1.64631 v -1.64632 h 1.64631 v 1.64632 h 1.64599 v 1.64631 h 3.29264 v 1.64599 h 1.64631 v 1.64632 h 1.64632 v 1.64632 h -1.64632 v 1.64631 h 1.64632 v 3.29264 h 1.64632 v -3.29264 h 3.2923 v 1.64632 h -1.64598 v 3.29231 h -1.64632 v 1.64631 h 1.64632 v 3.29264 h 1.64598 v 4.93896 h 1.64632 v 1.64598 h 1.64632 v 1.64599 h 1.64632 v 1.64632 h 1.64632 v 1.64598 h 1.64632 v 1.64632 h 1.64632 v 1.64632 h 1.64632 v 1.64632 h 3.29263 v 4.93895 h 4.93863 v 1.64599 h 3.29263 v 3.29263 h 3.29264 v 1.64632 h 1.64598 v 1.64632 h 3.29264 v 1.64632 h 1.64632 v -1.64632 h -1.64632 v -3.29264 h 1.64632 v 1.64632 h 1.64632 v 1.64632 h 3.29264 v 4.93862 h 3.2923 v 4.93896 h 3.29264 v 3.29264 h 1.64632 v 1.64632 h 1.64632 v 3.29264 h 1.64632 v 1.64631 h -3.29264 v 1.64599 h -1.64632 v 1.64632 h 1.64632 v -1.64632 h 1.64632 v 1.64632 h 1.64632 v -3.29231 l 1.64632,1.64599 v 1.64632 h 1.64631 v 4.93895 h 1.64632 v 1.65303 h -1.64632 v 1.64632 h -3.29263 v 3.29264 h 1.64632 v 3.2923 h 1.64631 v 8.23159 h 1.64632 v 3.29264 h 1.64599 v 1.64631 h 3.29263 v 1.64632 h 1.64632 v 1.64632 l 1.64632,1.64599 v 1.64632 h 1.63928 v 3.29263 H 223.922 v 1.64632 h 6.58528 v 1.64632 h -3.29264 v 3.2923 h 4.93896 v 1.64632 h 1.64632 v 3.29264 h 3.29263 v 1.64632 h 1.64632 v 1.64632 h -1.64632 v 1.64598 h 1.64632 v 3.29264 h 4.93862 v 3.29264 h 3.29264 v -1.64632 h 4.93862 v 1.64632 h 1.64632 v 1.64632 h 1.64632 v 1.64632 h 3.29264 v 3.29263 h 1.64631 v 6.58494 h 1.64599 v 3.29264 h 1.64632 v 3.29264 h 1.64631 v 4.93862 l 1.64632,1.64632 v 1.64632 h 1.64632 v -1.64632 h 1.64632 v -1.64632 h 3.29264 v -4.93862 h -1.64632 v -1.64632 h -1.64632 v -1.64632 h -1.64632 v -1.64632 h -1.64632 v -3.29264 h 1.64632 l 1.64632,1.64632 h 1.64632 v 1.64632 h 1.64632 v 3.29264 h 3.29264 v 3.2923 h 1.64598 v 1.64632 h 1.64632 v 1.64632 h 3.29264 v 1.64632 h 1.64632 v 1.64632 h 1.64632 v 1.64632 h -1.64632 v 3.29264 l -1.64632,1.64631 h 1.64632 v 1.64632 h 8.23126 v 3.29231 h 1.64631 v 3.29263 h 1.64632 v -1.64632 h 1.64632 v -1.64631 h 1.64632 v 1.64631 h 1.64632 v 1.64632 h 1.64632 v 1.64632 h 1.64632 v 1.64632 h 1.64598 v 1.64632 h 1.64632 v 1.64598 h 1.64632 v 1.64632 h 1.64632 v 1.64632 h 1.64632 v 1.64632 h 1.64632 v 1.64632 h 1.63927 v 1.64632 h 1.64632 v 1.64632 h 1.64632 v 1.64598 h 1.64632 v 1.64632 h 1.64598 v 1.64632 h 1.64632 v 1.64632 h 1.64632 v 1.64632 h 1.64632 v 1.64632 h 1.64632 v 3.29263 h 1.64632 v 1.64632 h 1.64632 v 1.64632 h 1.64632 v 1.64599 h 1.64632 v 1.64631 h 1.64632 v 3.29264 h 1.64598 v 1.64632 h 1.64632 v 1.64632 h 1.64632 v 1.64632 h 1.64632 v 1.64598 h 1.64631 v 1.64632 h 1.64632 v 1.64632 h 1.64632 v 1.64632 h 1.64599 v 1.64632 h 1.64631 v 1.64632 h 1.64632 v 1.64632 h 1.64632 v 1.64631 h 1.64632 v 1.64632 h 1.64632 l 1.64632,1.64632 h 1.64632 v 1.64599 h 1.64632 v 1.64632 h 1.64632 v 1.64631 h 3.2923 v 1.64632 h 1.64632 v 1.64632 h 3.29264 v 1.64632 h 1.64631 v 1.64598 h 3.29231 l 1.64632,1.64632 h 1.64632 v 1.64632 h 3.29263 v 1.64632 h 1.64632 v 3.29264 h 1.64632 v 1.64632 h 1.64598 v 1.64598 h 3.29264 v 1.64632 h 1.64632 v 1.64632 h 1.64632 v 1.64631 h 3.29264 v 1.64632 h 1.64632 v 1.64632 h 3.28559 v 1.64632 h 1.64632 v 1.64632 h 1.64632 v 1.64632 h 1.64632 v 3.2923 h 1.64598 v 1.64632 h 1.64632 v 1.64632 h 1.64632 v 1.64632 h 1.64632 v 1.64632 h 3.29264 v 1.64632 h 4.93896 v 1.64631 h 1.64631 v 3.29231 h 1.64598 v 1.64632 h 1.64632 v 1.64632 h 1.64632 v 1.64631 h 1.64632 v 1.65303 h 1.64632 v 1.64632 h 1.64632 v 3.29264 h 3.2923 v 1.64631 h 1.64632 v 1.64632 h 1.64632 v 1.64632 h 1.64632 v 1.64632 h 3.29264 v 1.64632 h 1.64598 l 1.64632,1.64598 h 1.64632 v 1.64632 h 1.64632 v 1.64632 h 1.64631 v 1.64632 h 3.29264 v 1.64632 h -1.64632 v 1.64632 h 3.29264 v 1.64632 h -4.93896 v -1.64632 h -4.93895 v -1.64632 h -3.2923 v -1.64632 h -6.58528 v -1.64632 h -1.64632 l -1.64598,-1.64632 h -3.29264 v 1.64632 h -8.23126 v 1.64632 h -4.93895 v 1.64632 h -3.29264 v 1.64632 h -3.29264 v 1.64632 h -1.64632 v -1.64632 h -3.2923 v 1.64632 h -3.29264 v 1.64598 h -4.93895 v 1.64632 h -1.64632 v 1.64632 h -4.93862 v -1.64632 h -4.93896 v 1.64632 h -1.64632 l -1.64632,1.64632 v -1.64632 h -1.64632 v 4.93896 h -1.64632 v 3.2923 h 4.93896 v -1.64632 h 1.64632 v 3.29264 h 1.64632 v -1.64632 h 1.64632 v -1.64632 h 1.64632 v -1.64598 h 1.64631 v 1.64598 l -1.64631,1.64632 v 1.64632 h -3.29264 v 3.29264 h -1.64632 v 3.29263 h -1.64632 v 1.64632 h -1.64632 v 1.64632 h -1.64632 V 683.22 h 1.64632 v 3.29264 h 1.64632 v 1.64632 h 1.64632 v 1.64632 h 3.29264 v 3.2923 h 1.64632 v 1.64632 h 1.64631 v 11.5239 h 1.64632 v 11.52424 h 1.64599 v 6.58491 h 1.64632 v 6.58497 h 1.64631 v 4.93895 h 1.64632 v 4.93896 h 1.64632 v 3.29264 h 1.64632 v 6.58492 h 1.64632 v 4.93895 h 1.64598 v 6.58497 h 1.64632 v 6.58527 h 1.64632 v 3.29228 h 1.64632 v 6.58528 h 1.64632 v 3.29264 h 1.64632 v 1.64631 h 1.64632 v 4.93865 h 1.64632 v 3.29264 h 1.64632 v 4.93895 h 1.64631 v 1.64596 h 1.64598 v 1.64632 h 1.64632 v 3.29264 h 1.64632 v 1.64632 h 1.64632 v 1.64632 h 1.64632 v 1.64632 h 1.64632 v 1.64632 h 1.64632 v 1.64632 h 1.64598 v 1.64631 h 1.64632 v 1.64601 h 3.29264 v 1.64632 h 1.64632 v 1.64632 h 3.2923 v 1.64632 h 3.29264 v 1.64632 h 3.29263 v 1.64631 h 4.93896 v 1.64597 h 6.58494 v -1.64597 h 1.64632 v 1.64597 h 8.23126 v 1.64632 h 1.64632 v 1.65338 h 1.64632 v 1.64632 h 4.93895 v 1.64596 h 1.64632 v 1.64632 h 1.64632 v 3.29263 h 1.64632 v 1.64632 h 1.64632 v 1.64632 h 1.64598 v 4.93865 h 1.63962 v 1.64632 h 3.29263 v 1.64631 h 1.64599 v 1.64632 h 1.64632 v 1.64632 h 1.64632 v 1.64632 h 3.29263 v 3.29264 h 3.29231 v 1.64632 h -1.64599 v 1.64596 h 1.64599 v 4.93896 h 4.93895 v 1.64631 h 1.64632 v 1.64632 h 3.29264 v 1.64632 h 3.29264 v -3.29264 h 3.2923 v -1.64631 h 6.58528 v -3.29264 h -1.64632 v -1.64632 h -8.23126 v 1.64632 h -3.29264 v 1.64632 h -3.29264 v -1.64632 h -1.64632 v -3.29228 h 8.2316 v -1.64632 h 3.2923 v -1.64632 h 1.64632 v -1.64632 h 1.64632 v -3.29264 h -1.64632 v -1.64632 h 4.93896 v 3.29264 h 1.64632 v 1.64632 h 1.64631 v 1.64632 h 1.64599 v 1.64632 h 1.64632 v 3.29228 h 1.64632 v 1.64632 h 1.64631 v 1.64632 h 1.64632 v 3.29263 h 1.64632 v 1.64632 h 3.29264 v 3.29233 h 1.64632 v 1.64632 h 1.64632 v 1.64632 h 1.64598 v 1.64632 h 3.29264 v 4.93895 h 1.64632 v -1.64632 h 3.29264 v 3.29264 h -1.64632 v 3.29264 h 1.64632 v 1.64596 h 1.64632 l -1.64632,1.64632 v 4.93896 h 1.64632 v 8.23128 h 1.64598 v 3.29264 h 1.64632 v 1.64631 h 1.64632 v 6.58492 h -1.64632 v -1.64632 h -1.64632 v -3.29263 h -1.64598 v -1.64597 h -1.64632 v -4.93895 h -1.64632 v -1.64632 h -1.64632 v -1.64632 h -1.64632 v -1.64601 h -1.64632 v -1.64632 h -1.64632 v -1.64631 h -1.64598 v -1.64632 h -1.64632 v -1.64632 h -3.29264 v -1.64632 H 546.572 v -1.64632 h -1.64632 v -3.29228 h -1.64632 v -1.64632 h -1.64631 v -3.29264 h 1.64631 v -1.64632 h -1.64631 v -3.29263 h -4.93863 v 3.29263 h -1.64631 v 1.64632 h -9.87758 v 1.64632 h -1.64632 v 1.64632 h -3.29264 v 1.64632 h -3.29264 v 1.64632 h -6.58527 v 3.29228 h -1.64599 v 1.64632 h -1.64632 v 1.64632 h -1.64631 v -1.64632 h -3.29264 v -3.29264 h -1.64632 v -1.64596 h -3.2923 v -1.64632 h -1.64632 v -1.64632 h -1.64632 v 4.9386 h -1.64632 v 1.64632 h -1.64632 v 1.64632 h -1.64632 v 3.29264 h -1.64598 v 16.46319 h 1.64598 v 4.93864 l 1.64632,1.64632 v 6.58527 h 1.64632 v 8.23124 h 1.64632 v 6.58528 h 1.64632 v 3.29263 h 1.64632 v 3.2923 h 1.64631 v 3.2927 h 1.64599 v 8.2312 h 1.64632 v 4.939 h 1.64632 v 4.9389 h -1.64632 v 6.585 h 1.64632 v 3.2926 h -4.93863 v -1.6463 h -3.29263 v -1.6463 h -1.64632 v -1.6463 h -4.93896 v -1.646 l -1.64598,-1.6464 v -1.6463 h -1.64632 v -1.6463 h -1.64632 v -3.2926 h -1.64632 v -1.6464 h -1.64632 v -1.6463 h -1.64632 v -1.6463 h -1.64632 v -1.6463 h -1.64631 v -3.2923 h -1.64632 v -1.6463 h -1.64632 v -1.6463 h -1.64599 v -1.6464 h -1.64632 v -1.6463 h -1.64631 v -1.6463 h -1.64632 v -1.646 h -1.64632 v -1.64631 h -1.64632 v -1.64632 h -1.64632 v -1.64632 h -1.64598 v -1.64632 h -1.64632 v -3.29264 h -1.64632 v -1.64632 h -1.64632 v -3.29264 h 1.64632 v -1.64596 h -1.64632 v -3.29264 h -1.64632 v -6.58527 h -1.64632 v -6.58496 h -1.64632 v -8.23124 h -1.64632 v -8.2316 h -1.64632 v -6.58496 h -1.64631 v -4.93896 h -1.64599 v -3.29263 h -1.64632 v -1.64632 h -1.64632 v -3.29228 h -1.64631 v -1.64632 h -1.64632 v -1.64632 H 434.625 v -1.64632 h -3.2923 v -1.64632 h -3.29264 l -1.64632,-1.64632 v -6.58496 h -3.29263 v -3.29264 h -1.64632 v -1.64632 h -1.64599 v -1.64632 h -1.64632 v -1.64631 h -1.64632 v -1.64632 h -1.64631 v -3.29228 h -1.64632 v -3.29264 h -1.63962 v -1.64632 h -1.64598 v -1.64632 h 1.64598 v -1.646 h -1.64598 v -4.93896 h -1.64632 v -11.52423 h -1.64632 v -3.29228 h -1.64632 v -16.46319 h -1.64632 v -1.64632 h -1.64631 v -1.64632 h -1.64632 v -3.29264 h -1.64599 v -1.64601 h -1.64632 v -1.64631 h -1.64631 v -3.29264 h -1.64632 v -1.64632 h -1.64632 v -3.29264 h -1.64632 v -1.64632 h -1.64632 v -1.64632 h -1.64632 v -1.64632 h -1.64632 v -3.29228 h -3.2923 v -1.64631 h -1.64632 v -1.64632 h -3.29264 v -1.64632 l -1.64632,-1.64632 h -3.29263 v -1.64632 h -3.29231 v -1.64601 h -3.29263 v -1.64632 h -3.29264 v -1.64631 h -3.29231 v -1.64632 h -1.64631 v -1.64632 h -3.29264 v -1.64632 h -1.64632 v -1.64632 h -1.64632 v -1.64596 h -1.64632 v -1.64632 h -1.64632 v -1.64632 h -1.64632 v -1.64632 h -1.64632 v -6.58527 h 1.64632 v -4.93865 h 1.64632 v -1.64632 h -1.64632 v -1.64632 h -1.64632 v -6.58527 h -1.64598 v -3.29228 h -1.64632 v -4.93896 h -1.64632 v -3.29264 h -1.64632 v -1.64631 h -1.64632 v -6.58497 l -1.64631,-1.64632 v -3.29262 h -1.64599 v -1.64632 h -1.64632 v -1.64632 h -1.64632 v -3.2923 H 327.624 v -3.29264 h -1.64632 v -3.29264 l -1.64632,-1.64632 v -6.58494 h -1.63962 v -3.29263 h -1.64598 v -3.29264 h -1.64632 v -3.29264 h -1.64632 v -1.64598 h -1.64632 v -3.29264 l -1.64631,-1.64632 v -1.64632 h -1.64632 v -3.29264 h -1.64632 v -1.64598 h -1.64599 v -3.29264 h -1.64631 v -3.29264 h -1.64632 v -1.64632 h -1.64632 v -1.64631 h -1.64632 v -1.64632 h -1.64632 v -3.29264 h -1.64598 v -1.64598 h -1.64632 v -4.93896 h -1.64632 v -1.64632 h -1.64632 v -4.94566 h -1.64632 v -1.64632 h -1.64632 v -3.2923 h -1.64632 v -1.64632 h -1.64632 v -3.29264 h -1.64632 v -1.64632 h -1.64631 v -1.64632 l -1.64632,-1.64632 h -1.64599 v -1.64598 h -1.64632 v -4.93896 h -1.64632 v -1.64632 h -1.64631 v -1.64632 h -1.64632 v -1.64632 h -3.29231 v -1.64631 h -3.29263 v -1.64632 h -1.64632 v -1.64632 h -1.64632 v -1.64599 h -1.64632 v -1.64631 h -1.64632 v -3.29264 h -1.64632 v -3.29264 h -1.64631 v -3.2923 h -1.64632 v -3.29264 h -1.64598 v -4.93896 h -1.64632 v -3.29263 h -1.64632 V 571.273 h -1.64632 v -4.93862 h -1.64632 v -14.8162 h -1.64632 v -4.93862 h -1.64632 v -3.29264 h -1.64598 v -1.64632 l -1.64632,-1.64632 v -1.64632 h -1.64632 v -1.64632 h -1.64632 v -1.64598 h -4.93191 v -1.64632 h -1.64632 v -1.64632 h -1.64632 v -3.29264 h -1.64632 v -1.64631 h -1.64632 v -1.64632 h -4.93862 v -1.64632 h -3.29264 v -1.64632 h -1.64632 v -3.2923 h -1.64632 v -1.64632 h -1.64632 v -1.64632 h -9.87757 v -1.64632 h -3.29264 v -1.64632 h 1.64632 v -1.64632 h -1.64632 v -1.64632 h -1.64632 v 3.29264 h -4.93862 v -1.64632 h -1.64632 v -1.64632 h -6.58528 v -1.64598 h 1.64632 v -6.58528 h -1.64632 v -1.64632 h -3.2923 V 497.191 h -9.87791 v 1.64631 h -1.64599 v -8.23126 h -1.64632 v -1.64631 h -1.64631 v -1.64632 h -1.64632 v -1.64632 h -1.64632 v -1.64632 h -1.64632 v -1.64632 h -1.64632 v -1.64632 h -1.64632 v -3.2923 h 1.64632 l -1.64632,-1.64632 v -3.29264 h -1.64632 v -1.64632 h -3.2923 v -1.64632 h -1.64632 v -4.93862 h -1.64632 v -1.64632 h -3.29264 v -3.29263 h -1.64631 v -3.29264 h -1.64632 v -1.64632 h 1.64632 v -14.81587 h -1.64632 v -4.93895 h -1.63928 v -1.64632 h -1.64632 v -3.2923 h -1.64632 v -1.64632 h -1.64632 v -4.93896 h -3.29264 v -4.93862 l -1.64598,-1.64632 v -1.64632 h -1.64632 v -1.64632 h -1.64632 v -3.29934 h -1.64632 v -6.58527 h -1.64631 v -1.64632 h -1.64632 v -6.58494 h -1.64632 v -1.64632 h -1.64599 v -1.64632 h -1.64632 v -1.64632 h -1.64631 v -1.64632 h -4.93896 v -1.64632 h -1.64632 v -1.64632 h -1.64598 v -1.64598 h -1.64632 v -1.64632 h -1.64632 V 380.299 h -1.64632 v -1.64632 h -1.64632 v -3.29263 h -1.64632 v -1.64599 h -3.29264 v -1.64632 l -1.64632,-1.64632 h 1.64632 v -3.29263 H 97.1655 v 1.64632 h -1.64632 v 3.29263 H 93.8732 v -3.29263 h 1.64598 v -1.64632 h 1.64632 v -1.64632 h 1.64632 v -1.64632 h 1.64632 v -4.93896 h 1.64632 v -3.2923 h 1.64632 v -3.29264 h 1.64632 v -3.29264 h 1.64632 v -3.2923 h 1.64632 v -1.64632 h 3.2923 v 1.64632 h 1.64632 v 3.2923 h 1.64632 v 1.64632 h 1.64632 v 3.29264 h 1.64632 v 1.64632 h 3.29263 l 1.64599,-1.64632 h 1.64632 v -1.64632 h -1.64632 v -1.64632 h 4.93895 v -14.81586 h -1.64631 v -3.29264 h 1.64631 v -1.64632 h 3.29264 v -1.64598 h -1.64632 v -1.64632 h -1.64632 v 1.64632 h -3.29263 v -1.64632 h -3.29231 v 3.2923 h -1.64632 v -1.64598 h -1.64631 v -1.64632 H 116.921 v -1.64632 h -1.64632 v -3.29264 h 1.64632 v -1.64632 h 1.64632 v -1.64632 h 1.64631 v -1.64631 h 1.64632 v 1.64631 h 1.64599 v 1.64632 h 3.29264 v -1.64632 h 1.64631 v -1.64631 l -1.64631,-1.64632 v -6.58494 h -1.64632 v -1.64632 h -1.64632 V 306.217 h -1.64599 v -1.64632 h -1.64632 v -1.64632 h -6.58527 v -3.2923 h -1.64632 v -3.29264 h -1.64598 v -1.64632 h -3.29264 v -1.64632 h -4.93896 v -1.64632 H 97.1655 l -1.64632,-1.64631 h -3.2923 v -1.64632 h -4.93895 v -1.64632 h -3.2923 v -1.64599 h -1.64632 v -1.64632 h -1.64632 v -1.64631 h -4.93896 v -1.64632 h -6.58527 v -1.64632 h 8.23159 v -1.64632 h 1.64632 v -1.64632 h 1.64632 v -1.64598 h 1.64632 v 1.64598 h 1.64632 v 1.64632 h 3.2923 v -1.64632 h 1.64632 v -1.64598 h -4.93862 v -1.64632 h 3.2923 v -3.29264 h -1.64632 v -1.64632 h -1.64598 v -1.64632 h 1.64598 v -4.93862 h -3.2923 v -1.64632 z m 131.68875,131.70249 h -3.2923 v 1.64632 h 1.64598 v 1.64632 h -1.64598 v 1.65302 h 3.2923 z m 732.54485,79.02834 v -6.58495 h 1.6463 v 3.29231 h 1.6463 v -4.93862 h 3.2927 v 6.58494 h -1.6463 l 1.6463,1.64632 h -1.6463 v 4.93895 h 1.6463 v 3.29264 h 1.6463 v 3.29264 h -1.6463 v 6.58494 h 1.6463 v 6.58494 h -1.6463 v 4.93896 h -1.6463 v 4.93862 h 1.6463 v 6.58527 h -1.6463 v 1.64632 h -4.939 v -1.64632 h -3.2923 v -3.29264 h 1.6463 v -1.64631 h 1.646 v -1.64632 h 3.2926 v -4.93862 h -1.6463 v -13.17022 h 1.6463 v -4.93862 h -1.6463 v -1.64632 h 1.6463 v -1.64632 h -1.6463 v -8.23159 z m 1.6463,-34.5717 v -1.64632 h 1.6463 v 1.64632 h 1.6464 v 1.64632 h 1.6463 v 3.2923 h -1.6463 v 1.64632 h -1.6464 v 1.64632 h -1.6463 v -1.64632 l -1.6463,1.64632 v -3.29264 h -1.646 v -4.93862 z m -732.54483,-36.218 1.64632,-1.64599 v 1.64599 h 1.64632 l -1.64632,-1.64599 h 1.64632 v 4.93863 h 1.64631 v 6.58527 h -1.64631 v -3.29264 h -1.64632 v -1.64632 h -1.64632 z m 729.24883,-19.75449 v -1.64632 h 1.646 v 1.64632 h 1.6463 v 1.64632 h 1.6463 v 3.2923 h 1.6463 v 1.64632 h -1.6463 v 4.93896 h -1.6463 v -1.64632 h -1.6463 v -3.29264 h -1.646 v -4.93862 h -1.6463 v -1.64632 z M 192.63926,357.25322 h -1.64632 v -1.64632 h 3.29264 v 1.64632 h 1.64632 v 1.64632 h -3.29264 z m 740.77305,-11.5239 V 344.083 h 1.6464 v 1.64632 h 3.2922 v 1.64632 h 1.6464 v 1.64632 h -1.6464 v 1.64632 h -1.6463 v -1.64632 l -1.6459,1.64632 h -1.6464 v -1.64632 h -1.6463 v -1.64632 h -1.6463 v -1.64632 z M 181.12844,344.083 h -1.64632 v -3.29263 h 1.64632 v 1.64632 l 1.64632,1.64631 v 1.64632 h -1.64632 z m -14.8162,-9.87757 v -4.93896 h 3.29264 v 1.64632 h 1.64632 v 1.64632 h 1.64632 v 1.64632 h 1.64598 v 1.64631 h 1.64632 v 1.64632 h 1.64632 v 1.64632 h 1.64632 v 1.64599 h -3.29264 v -1.64599 h -6.58494 v -1.64632 h -1.64632 v -3.29263 z m -51.03521,-23.0478 v -6.58494 h 1.64631 v 3.2923 h 1.64599 v 3.29264 h 1.64632 v 4.93896 h -1.64632 v 1.64632 h -1.64599 v -6.58528 z m 808.26548,-64.20509 v -3.29264 h 3.2926 v -1.64632 h 1.6463 v 4.93896 h 1.646 v 4.93862 h -1.646 l 1.646,1.64632 h -1.646 v 6.58527 h 1.646 v 4.93896 h -3.2923 l -1.6463,-1.64632 v -4.93896 h 1.6463 v -4.93895 h -1.6463 v -1.64632 h -1.6463 v -3.2923 h -1.6463 v -1.64632 z m -13.1703,4.93862 h -1.6463 v -1.64599 h 1.6463 v -1.64631 h 4.939 v 3.2923 h -1.6463 v 1.64632 h -3.2927 z m 13.1703,-37.86366 h -3.2927 v -3.2923 h 1.6464 v -1.64632 h 8.2312 v 3.29264 h -1.646 v 3.2923 h -4.9389 z m -18.1089,-52.6879 v -1.64632 l 1.6464,1.64632 h 1.6459 v -1.64632 h 1.6463 v 1.64632 l 1.6464,1.64598 v 1.64632 h 1.6463 v 9.87791 h 1.6463 v 1.64632 h 1.6463 v 1.64632 h 3.2926 v 1.64598 h 1.6464 v 1.64632 h 1.6463 v 1.64632 h 1.646 v 3.29264 h 1.6463 v 3.29264 h -1.6463 v 4.93862 h -3.2923 v 1.64632 h -4.939 v -1.64632 h -1.6463 v -3.29264 h -1.6463 v -3.2923 h -1.6463 v -6.58528 h -1.6464 v -3.2923 h -1.6463 v -4.93896 h -1.6459 v -3.29263 h -1.6464 v -6.58528 h -1.6463 v -1.64598 z m -29.6334,9.87757 v -6.58527 h 4.9387 v 4.93896 h 1.6463 v 1.64631 h -3.2924 v 1.64632 h -1.6463 v -1.64632 z m 6.585,-146.523382 v -1.646319 h 1.6463 v 1.646319 h 1.6463 v 1.646319 h 1.6463 v 1.646319 h 1.6463 v 3.292303 h 3.2923 l 1.6463,1.646319 h 1.6464 v 3.292637 h 1.6463 v 1.646319 h 3.2926 v 4.938626 h -1.6463 v 8.23159 h 1.6463 v 1.64632 h 1.6463 v 4.93862 h 1.6464 v 6.58528 h 1.6463 v 3.29263 h 1.6463 v 3.2923 h -1.6463 v 6.58528 h 1.6463 v 3.29264 h -3.2926 v 1.64632 h -1.6464 v 3.2923 h -1.6463 v 6.58527 h -1.6463 v 6.58494 h 1.6463 v 4.93896 h 1.6463 v 3.2923 h -4.9389 v 1.64632 h -1.6463 v 1.64632 h -1.6464 v 3.29264 h -1.6463 v -1.64632 h -1.6459 v -3.29264 h -1.6464 v -3.2923 h -1.6463 v -1.64632 h -1.6463 v -1.64632 h -1.6463 v -1.64632 h -4.9387 v -1.64632 h -1.6463 V 97.1298 h -1.6463 v -1.64631 h 1.6463 v -3.29231 h 4.9387 v -6.58527 h -1.6463 v -3.2923 h 1.6463 v -1.64632 l 1.6463,-1.64632 v -1.64632 h 1.6463 v -3.29264 h 1.6463 v -1.64632 h 1.6463 v -6.58493 h -1.6463 v -6.58528 h -1.6463 v -3.2923 h -1.6463 V 49.3879 h -1.6463 v -1.64632 l -1.6463,-1.64632 v -1.64632 h -1.6461 v -4.938617 h -1.6463 V 26.340107 l 1.6463,-1.646319 z m -31.272,9.877579 1.6459,-1.646319 h 1.6463 v 1.646319 h 1.6464 v 1.646318 h 1.6463 v 1.646319 h 1.6463 v 3.292303 h -1.6463 v 1.646323 h -1.6463 v 1.64631 h -1.6464 v 1.64632 h -3.2922 v -1.64632 h -3.2927 v -1.64631 h -1.6463 v -1.646323 h -1.6463 v -1.645984 h 1.6463 v -1.646319 h 1.6463 v -1.646319 h 1.6463 V 34.571367 Z M 887.33081,1.6463287 888.97721,9.7412112e-6 h 1.6463 V 1.6463287 h 1.6463 v 1.646319 h 3.2926 v 1.646319 h 1.646 v 4.938957 h 1.6463 v 3.2923023 l 1.6463,1.646319 v 3.292638 h 1.6463 v 1.646319 h -1.6463 v 1.646319 h -1.6463 v 1.646319 h -1.6463 v 1.645984 h -6.5849 v 1.646318 h -1.6463 v -1.646318 h -1.6464 v -3.292303 h -1.646 v -1.646319 h -1.6463 v -1.646319 h 1.6463 V 4.9389667 l 1.646,-1.646319 z"
     style="clip-rule:evenodd;fill:#000000;fill-rule:nonzero;stroke:none;stroke-width:3.43011px"
     id="path1356" />
</svg>
