<?xml version="1.0" encoding="UTF-8" standalone="no"?>
<svg
   xmlns:dc="http://purl.org/dc/elements/1.1/"
   xmlns:cc="http://creativecommons.org/ns#"
   xmlns:rdf="http://www.w3.org/1999/02/22-rdf-syntax-ns#"
   xmlns:svg="http://www.w3.org/2000/svg"
   xmlns="http://www.w3.org/2000/svg"
   xmlns:sodipodi="http://sodipodi.sourceforge.net/DTD/sodipodi-0.dtd"
   xmlns:inkscape="http://www.inkscape.org/namespaces/inkscape"
   version="1.0"
   width="1024pt"
   height="1024pt"
   viewBox="0 0 1024 1024"
   preserveAspectRatio="xMidYMid meet"
   id="svg2211"
   sodipodi:docname="vector.svg"
   inkscape:version="1.0.2-2 (e86c870879, 2021-01-15)">
  <defs
     id="defs2215" />
  <sodipodi:namedview
     pagecolor="#ffffff"
     bordercolor="#666666"
     borderopacity="1"
     objecttolerance="10"
     gridtolerance="10"
     guidetolerance="10"
     inkscape:pageopacity="0"
     inkscape:pageshadow="2"
     inkscape:window-width="1366"
     inkscape:window-height="697"
     id="namedview2213"
     showgrid="false"
     inkscape:zoom="0.1940918"
     inkscape:cx="1266.7524"
     inkscape:cy="760.26375"
     inkscape:window-x="-8"
     inkscape:window-y="-8"
     inkscape:window-maximized="1"
     inkscape:current-layer="svg2211"
     fit-margin-top="0"
     fit-margin-left="0"
     fit-margin-right="0"
     fit-margin-bottom="0" />
  <metadata
     id="metadata2205">
Created by potrace 1.10, written by Peter Selinger 2001-2011
<rdf:RDF>
  <cc:Work
     rdf:about="">
    <dc:format>image/svg+xml</dc:format>
    <dc:type
       rdf:resource="http://purl.org/dc/dcmitype/StillImage" />
    <dc:title></dc:title>
  </cc:Work>
</rdf:RDF>
</metadata>
  <path
     d="m 832.68156,292.57175 v 33.75908 l 22.50608,22.50602 11.25304,22.50604 22.50598,33.75679 22.50359,22.50605 v 22.50605 l -11.25294,11.25073 v 45.0121 h 22.50598 l 11.25304,-22.50605 v 11.25303 l 11.25303,11.25302 11.25304,22.50605 h 11.25304 l 22.50595,-22.50605 v -11.25302 l 11.25301,11.25302 v 11.25303 l -11.25301,11.25302 v 67.51586 l -22.50595,11.25304 -11.25304,-22.50607 h -45.01215 l -22.50359,-22.50604 h -33.75902 l -33.75911,-11.25303 h -22.50388 l -11.25304,33.75907 h -22.50607 l 11.25303,22.50607 v 56.2628 l 11.25304,22.50608 11.25304,11.25303 11.25304,-11.25303 v -22.50608 h 22.50598 l 11.25304,22.50608 -11.25304,33.75901 v 45.00986 l -22.50598,11.25304 -11.25304,11.25304 -11.25304,33.75911 v 33.75663 -11.25304 l -22.50359,22.50598 -22.50608,22.50608 h -11.25303 l -45.01206,-22.50608 h -22.50397 l -11.25294,-11.25294 h -56.26271 l -11.25304,11.25294 -11.25304,22.50608 -11.25303,22.50608 -11.25304,11.25083 h -45.01206 l -11.25304,22.50608 -11.25303,11.25304 -11.25304,11.25304 h -11.25304 l -11.25294,11.25307 -11.25304,22.50361 V 1024 1012.747 l -11.25304,-11.2531 v -22.50361 h -11.25304 v -11.25307 h 11.25304 l 11.25304,-11.25304 -11.25304,-11.25304 V 933.9781 H 405.07578 V 922.72506 H 382.5697 v -11.25083 h -22.50388 v -22.50608 l -11.25304,-11.25304 h -11.25303 l -11.25304,-11.25304 v -11.25294 h -22.4577 v -11.25304 h -22.50608 v -33.75663 l -11.25304,-11.25303 h -11.25304 v -33.75912 h -11.25294 v -22.50607 11.25303 h -11.25304 v 11.25304 L 225.07784,753.93427 H 213.8248 V 742.68124 L 202.57176,731.4282 V 708.92451 H 180.06788 V 675.1654 h -11.25304 l -11.25303,-11.25304 v -56.2628 l -11.25304,-11.25304 v -33.75907 h -11.25304 l 22.50397,-22.50606 v -22.50375 h -11.25304 v -11.25303 l -11.25303,11.25303 h -11.25304 v -11.25303 h -11.25303 v -11.25302 h 11.25303 -11.25303 V 461.36251 L 101.29452,450.11178 V 427.60573 H 90.041481 V 405.09968 H 67.537604 V 393.84666 H 56.284566 V 382.59363 L 67.537604,371.34061 V 337.58383 H 45.031528 V 292.57175 H 56.284566 V 281.31873 L 45.031528,270.0657 33.778585,258.81497 V 202.54985 H 22.525547 v -11.25302 l 22.505981,-22.50376 22.503973,-11.25303 22.50598,-22.50605 22.506079,-33.75908 h 33.75662 l 33.75911,-33.756773 h 22.50388 l 22.50608,-22.506047 22.50607,11.253028 11.25294,11.253019 11.25304,11.250734 11.25304,-11.250734 h 22.50359 L 315.09497,45.01209 326.34801,33.759062 337.60105,11.253014 348.85408,-5.1293943e-6 h 22.50598 L 382.6131,22.506042 393.86614,45.01209 v 22.506047 l 11.25304,22.503763 22.50388,11.25301 11.25303,22.50606 -11.25303,11.25302 11.25303,22.50605 22.50608,22.50605 v 22.50376 l -22.50608,22.50604 v 22.50606 l 22.50608,22.50375 11.25304,22.50605 h 22.50607 l 45.00957,-22.50605 h 22.50608 v 22.50605 h 22.50397 l 33.75902,-11.25302 22.50359,-11.25303 11.25304,-11.25073 22.50608,-11.25302 11.25303,-11.25303 11.25304,-22.50604 v -22.50605 l -11.25304,-33.75679 11.25304,-11.25302 h 45.01206 l 11.25304,11.25302 22.50387,11.25303 11.25304,-11.25303 22.50608,11.25303 11.25304,-11.25303 11.25303,22.50605 22.50359,22.50376 -33.75662,67.51585 11.25303,22.50605 z"
     style="clip-rule:evenodd;fill:#000000;fill-rule:nonzero;stroke:none;stroke-width:23.4457px"
     id="path1232" />
</svg>
