<?xml version="1.0" encoding="UTF-8" standalone="no"?>
<svg
   xmlns:dc="http://purl.org/dc/elements/1.1/"
   xmlns:cc="http://creativecommons.org/ns#"
   xmlns:rdf="http://www.w3.org/1999/02/22-rdf-syntax-ns#"
   xmlns:svg="http://www.w3.org/2000/svg"
   xmlns="http://www.w3.org/2000/svg"
   xmlns:sodipodi="http://sodipodi.sourceforge.net/DTD/sodipodi-0.dtd"
   xmlns:inkscape="http://www.inkscape.org/namespaces/inkscape"
   version="1.0"
   width="1024pt"
   height="1024pt"
   viewBox="0 0 1024 1024"
   preserveAspectRatio="xMidYMid meet"
   id="svg2211"
   sodipodi:docname="vector.svg"
   inkscape:version="1.0.2-2 (e86c870879, 2021-01-15)">
  <defs
     id="defs2215" />
  <sodipodi:namedview
     pagecolor="#ffffff"
     bordercolor="#666666"
     borderopacity="1"
     objecttolerance="10"
     gridtolerance="10"
     guidetolerance="10"
     inkscape:pageopacity="0"
     inkscape:pageshadow="2"
     inkscape:window-width="1366"
     inkscape:window-height="697"
     id="namedview2213"
     showgrid="false"
     inkscape:zoom="0.1940918"
     inkscape:cx="1266.7524"
     inkscape:cy="760.26375"
     inkscape:window-x="-8"
     inkscape:window-y="-8"
     inkscape:window-maximized="1"
     inkscape:current-layer="svg2211"
     fit-margin-top="0"
     fit-margin-left="0"
     fit-margin-right="0"
     fit-margin-bottom="0" />
  <metadata
     id="metadata2205">
Created by potrace 1.10, written by Peter Selinger 2001-2011
<rdf:RDF>
  <cc:Work
     rdf:about="">
    <dc:format>image/svg+xml</dc:format>
    <dc:type
       rdf:resource="http://purl.org/dc/dcmitype/StillImage" />
    <dc:title></dc:title>
  </cc:Work>
</rdf:RDF>
</metadata>
  <path
     d="m 786.71641,99.9032 -16.6508,24.97454 8.3254,8.32541 v 24.97622 l 8.3254,41.62536 v 8.32541 l -8.3254,8.32541 -8.3254,16.65082 v 58.27617 l 16.6508,16.64912 16.6492,16.65082 -8.3255,8.32541 8.3255,8.32541 -24.9746,33.30164 16.6491,58.27618 h 16.6509 l -8.3254,8.32541 8.3254,8.32371 16.6491,24.97623 v 24.97623 l 16.6508,16.64912 24.9762,-8.32541 16.6492,24.97623 -8.3254,16.65082 8.3254,16.65082 8.3254,-8.32541 8.3254,16.6508 -33.3,33.29994 -16.6508,16.65082 v 24.97453 l 16.6508,8.32541 v 16.65082 l -8.3254,24.97623 -8.3254,24.97627 -16.6508,8.3237 -8.3254,8.3254 h -16.6508 v 33.3016 h -24.9746 l -8.3254,8.3254 -16.6508,33.3 h -41.62534 l -16.64913,16.6508 h -8.32541 l -16.65082,-16.6508 -8.32541,8.3254 8.32541,16.6491 v 16.6508 l 8.32541,8.3254 -8.32541,8.3255 v 16.6508 l -16.65082,-8.3254 -8.32538,16.6508 8.32538,8.3254 v 16.6508 h 8.32541 l -8.32541,8.3237 h -16.6491 l -8.32541,16.6508 8.32541,16.6509 v 8.3254 h -8.32541 v 24.9745 l -8.32541,8.32541 h -16.65082 l -8.32541,16.6509 -16.64912,-8.3255 -8.32541,-16.65081 -16.65082,-8.3254 -8.32541,8.3254 h -8.32541 l -8.32541,-8.3254 h -8.32541 l -16.65082,-8.3254 h -8.32541 l -8.32541,16.6508 v 8.32541 h -16.64912 l -8.2915,16.6509 -8.32541,-16.6509 -8.32541,8.3254 h -8.32541 l -16.64912,8.3255 -8.32541,-8.3255 v -8.3254 l 8.32541,-24.97621 -8.32541,-16.6491 H 395.4646 l -16.65082,8.3254 -8.32541,-8.3254 v -58.2762 l 8.32541,-16.6508 v -16.6508 h 8.32541 l -8.32541,-16.6509 -8.32541,-16.6508 -8.32541,-16.6491 -8.32541,-8.3254 -8.32541,-24.9763 v -66.5998 l -16.64913,-16.65086 v -8.32541 h 8.32541 l 8.32541,-8.32541 -16.65082,-16.65082 v -41.62535 l 8.32541,-16.65082 16.65082,-24.97623 v -33.29992 l -8.32541,-8.32541 -33.30164,-16.65082 h -8.32541 v -16.65082 l -8.32541,-16.64912 h -16.64912 l -16.65082,-8.32541 -8.32541,-8.32541 -8.32541,-16.65082 -33.29994,-16.65082 -8.32541,-8.32371 -8.32541,-8.32541 v -8.32541 l 16.65082,-16.65082 16.64912,-24.97454 8.32541,-8.32541 v -8.32541 l 16.65082,-8.32541 V 341.3333 l -8.32541,-8.32541 -16.65082,16.65082 v -24.97623 l -8.32541,-8.32541 -24.97453,8.32541 -8.32541,-16.65082 8.32541,-8.32371 -8.32541,-16.65082 h -24.97623 l -24.97623,-24.97623 -8.32541,-16.64912 8.32541,-24.97623 -16.64912,-8.32541 24.97453,-16.65082 8.32541,8.32541 8.32541,-16.65082 8.32541,16.65082 16.65082,-8.32541 24.97623,16.65082 V 174.8285 h 16.64912 l 16.65082,-24.97453 h 8.32541 v 16.64912 h 16.64913 l 8.32541,-24.97453 h 16.65081 l 8.32541,-8.32541 -16.65082,-8.32541 8.32541,-16.64913 V 91.57779 h -16.64912 l 8.32541,-16.65082 8.32541,-16.65082 8.32541,-16.65082 8.32541,16.65082 h 8.32541 l 24.97453,-16.65082 v 16.65082 l 8.32541,8.32541 24.97623,-8.32541 -16.65082,24.97623 h 8.32541 l 16.65082,24.97623 24.97454,-24.97623 8.32541,16.65082 8.32541,8.32541 h 24.97623 l 8.3254,-16.65082 -8.3254,-24.97623 V 33.29992 l 16.65081,8.32541 8.32541,-16.64912 L 512.01864,-2.0258788e-5 536.99487,16.6508 v 16.64912 l 16.64912,-16.64912 24.97623,8.32541 v 16.64912 l 33.30164,-16.64912 h 24.97453 l 16.65082,8.32371 -33.29994,8.32541 8.32541,16.65082 8.32541,-8.32371 41.62533,-8.32541 8.32541,8.32371 h 16.65082 l -8.32541,16.64913 16.64912,24.97623 24.97625,-8.32541 49.9507,16.65082 z"
     style="clip-rule:evenodd;fill:#000000;fill-rule:nonzero;stroke:none;stroke-width:17.346px"
     id="path1342" />
</svg>
