<?xml version="1.0" encoding="UTF-8" standalone="no"?>
<svg
   xmlns:dc="http://purl.org/dc/elements/1.1/"
   xmlns:cc="http://creativecommons.org/ns#"
   xmlns:rdf="http://www.w3.org/1999/02/22-rdf-syntax-ns#"
   xmlns:svg="http://www.w3.org/2000/svg"
   xmlns="http://www.w3.org/2000/svg"
   xmlns:sodipodi="http://sodipodi.sourceforge.net/DTD/sodipodi-0.dtd"
   xmlns:inkscape="http://www.inkscape.org/namespaces/inkscape"
   version="1.0"
   width="1024pt"
   height="1024pt"
   viewBox="0 0 1024 1024"
   preserveAspectRatio="xMidYMid meet"
   id="svg2211"
   sodipodi:docname="vector.svg"
   inkscape:version="1.0.2-2 (e86c870879, 2021-01-15)">
  <defs
     id="defs2215" />
  <sodipodi:namedview
     pagecolor="#ffffff"
     bordercolor="#666666"
     borderopacity="1"
     objecttolerance="10"
     gridtolerance="10"
     guidetolerance="10"
     inkscape:pageopacity="0"
     inkscape:pageshadow="2"
     inkscape:window-width="1366"
     inkscape:window-height="697"
     id="namedview2213"
     showgrid="false"
     inkscape:zoom="0.1940918"
     inkscape:cx="1266.7524"
     inkscape:cy="760.26375"
     inkscape:window-x="-8"
     inkscape:window-y="-8"
     inkscape:window-maximized="1"
     inkscape:current-layer="svg2211"
     fit-margin-top="0"
     fit-margin-left="0"
     fit-margin-right="0"
     fit-margin-bottom="0" />
  <metadata
     id="metadata2205">
Created by potrace 1.10, written by Peter Selinger 2001-2011
<rdf:RDF>
  <cc:Work
     rdf:about="">
    <dc:format>image/svg+xml</dc:format>
    <dc:type
       rdf:resource="http://purl.org/dc/dcmitype/StillImage" />
    <dc:title></dc:title>
  </cc:Work>
</rdf:RDF>
</metadata>
  <path
     d="m 156.09136,278.84796 v -0.77459 h 1.54916 v 0.77459 h 2.32375 v 0.77458 h 0.77458 v 0.77458 h 0.77458 v 0.77458 h 0.77442 v 0.77458 h -0.77458 v 0.77458 h 0.77443 v 4.64734 h -0.77459 v 3.87275 h -0.77458 v 0.77458 h -1.54916 v 0.77458 h -0.77458 v 4.64733 h -4.64733 v -0.77458 h -4.64734 v -0.77458 h -1.54916 v -0.77458 h -0.77458 v -0.77459 h -0.77458 v -0.77458 h -3.87275 v -0.77458 h -1.54916 v -0.77458 h -0.77459 v -1.54901 h -0.77458 v -0.77458 h 0.77458 v -1.54916 h 0.77459 v -0.77458 h 1.54916 v 0.77458 h 1.549 v 0.77458 h 0.77459 v -1.54916 h 0.77458 v -3.09817 l -0.77458,-0.77458 v -1.54917 h -0.77459 v -3.09816 h 3.87291 v 0.77458 h 0.77458 v -0.77458 h 0.77458 v 0.77458 l 0.77459,-0.77458 z m 233.89996,41.05203 0.77458,-0.77458 v 0.77458 h 2.32375 v 0.77458 h 0.77458 v 1.54901 h -0.77458 v -0.77459 h -1.54916 v -0.77458 h -1.54917 v 0.77458 h 1.54917 v 0.77459 h 0.77458 v 1.54916 h -2.32375 v -0.77458 h -0.77458 v -0.77458 h -0.77458 v -1.54917 h 0.77458 v -0.77458 z m -138.63463,0 h -0.77458 v -0.77458 h 1.54916 v 1.54916 h -0.77458 z m 112.30249,-16.26605 h -0.77443 v 0.77458 h 0.77443 z m -3.09817,6.97091 h -0.77458 v 0.77458 z m 1.54916,-3.09832 h -0.77458 v 0.77458 h -0.77458 v 0.77458 h 0.77458 v -0.77458 h 0.77458 z m 3.09817,-5.4216 v -2.32374 h 0.77458 v -0.77459 h 1.54917 v 0.77459 l -0.77458,0.77458 h 0.77458 v -0.77458 h 1.54916 v 0.77458 h -1.54916 v 2.32358 h -1.54917 v 0.77459 h -0.77458 v 1.54916 h 0.77458 v 0.77458 h -0.77458 v 1.54916 h 0.77458 v -0.77458 h 0.77459 v 1.54901 h 0.77458 v 0.77458 h -1.54917 v 0.77458 h -2.32374 v 0.77458 h -0.77443 v 0.77458 h -1.54916 v 0.77458 h -0.77458 l -0.77458,0.77458 h -2.32359 v 0.77459 h -0.77458 v 0.77458 h -0.77458 v -0.77458 h -0.77458 v -3.09817 h 0.77458 V 309.056 h 0.77458 v -0.77458 h 0.77458 v -0.77458 l 0.77443,0.77458 h -0.77443 v 0.77458 h 2.32359 v -0.77458 h -1.54916 v -0.77458 h 0.77458 v -2.32374 h 1.54916 v -0.77458 h 0.77458 l -0.77458,-0.77458 h 0.77458 v -0.77459 h 0.77458 v 0.77459 h 0.77458 v -2.32359 h 0.77443 v 0.77458 z m -2.32359,3.09817 h -0.77458 v 0.77458 h 0.77458 z m 5.42192,5.42191 h -0.77458 v -0.77458 h 1.54916 v 0.77458 h 0.77458 v 0.77458 h -1.54916 z m 25.5604,0 h -1.54916 v -0.77458 h 0.77458 v -0.77458 h 2.32374 v 0.77458 h -0.77458 v 2.32374 l -0.77458,-0.77458 z m -0.77458,-10.84367 h -0.77458 v -0.77458 h 0.77458 l 0.77458,0.77458 v 0.77458 h -0.77458 z m -10.0694,-2.32374 v -2.32375 h 1.549 v 0.77459 h 0.77458 v 0.77458 h -1.549 v 0.77458 z m 3.87275,-1.54916 h -0.77458 v -0.77459 h 2.32374 v 0.77459 l -0.77458,0.77458 h -0.77458 z m -3.87275,-4.64734 v -0.77458 h 0.77458 v 0.77458 h 0.77442 v -0.77458 h 1.54917 v 1.54917 h -0.77459 v 0.77458 h -0.77458 v -0.77458 h -0.77442 z m 0.77458,-4.64733 h -0.77458 v -0.77458 h 1.549 v 1.54916 h -0.77442 v 0.77459 h -0.77458 v -0.77459 h 0.77458 z m 127.78876,-12.39299 v -0.77458 h 3.09832 v 0.77458 h 0.77459 v 0.77458 h 0.77458 v 0.77459 h -0.77458 v 0.77458 h 0.77458 v 2.32358 h 0.77458 v 0.77459 h -0.77458 v 1.54916 h -3.09833 v -0.77458 h -1.54916 v 0.77458 H 510.812 v 0.77458 h 0.77443 v 1.54916 h -2.32359 v 0.77459 l -0.77458,0.77458 h -1.54916 v -0.77458 h -2.32359 v -0.77459 h 0.77458 v -0.77458 h -1.54916 v -1.54916 h 0.77458 l 0.77458,-0.77458 v -1.54917 h 0.77458 v -1.549 h 0.77443 v -0.77458 h 1.54916 v -0.77458 h 2.32374 v -1.54917 z m -3.87275,8.52008 h -0.77458 v 0.77459 h 0.77458 z m -128.56445,-5.42191 v -0.77458 h 0.77458 v 0.77458 h 0.77459 v 0.77458 h -1.54917 v 1.54917 l -0.77458,-0.77459 h -1.54916 v -2.32374 h 0.77458 v 0.77458 h 0.77458 v -0.77458 z m -80.54749,-2.32374 v -1.54917 l 0.77458,0.77458 h 0.77459 v 0.77459 z m 1.54917,-2.32359 v -1.54916 h 0.77458 v 0.77458 h 0.77442 v 0.77458 z m -3.09833,0 v -2.32359 h 1.54916 v 0.77458 h 0.77458 v 1.54901 h -0.77458 v 0.77458 H 296.278 l 0.77458,0.77458 v 0.77458 h -1.54916 v 0.77459 h -1.54917 v -0.77459 h 0.77459 v -0.77458 h 0.77458 v -0.77458 h 0.77458 v -0.77458 z m 5.42191,-8.51992 v -0.77459 h 0.77458 l 0.77459,0.77459 v -1.54901 h 0.77458 v 2.32359 h -0.77458 v 0.77458 h 1.54916 v 0.77458 h -1.54916 v 0.77458 h -0.77459 v -0.77458 h -0.77458 v 1.54916 h -0.77458 v -0.77458 h -0.77442 v -0.77458 h -0.77458 v 1.54901 h -0.77459 v -1.54901 h 0.77459 v -0.77458 h 1.549 v -0.77458 h -1.549 v -0.77458 h 0.77458 v -0.77459 h 0.77442 v 0.77459 z m 210.6641,-11.61873 0.77458,-0.77458 h 0.77458 v 0.77458 h 0.77458 v 0.77458 h 1.54901 v 0.77458 h 0.77458 v 0.77459 h 0.77458 v 1.54916 h 1.54916 v 0.77458 h 1.54917 v 1.54901 h -0.77458 v 1.54916 h 0.77458 l -0.77458,0.77458 0.77458,0.77458 h -0.77458 v 4.64749 h -0.77459 v -1.54916 h -0.77458 v 0.77458 h -0.77458 v 0.77458 h -2.32359 l -0.77458,0.77458 v -0.77458 h -2.32374 v -1.54916 h -0.77458 v -1.54901 h -0.77459 v -3.09832 l -0.77442,-0.77458 v -3.09817 l 0.77442,-0.77458 v -2.32375 h 0.77459 v -0.77458 z m -96.03391,-61.19352 h -0.77459 v -0.77458 h 3.09833 v 0.77458 h 1.549 l 0.77459,0.77458 h 2.32374 v 0.77459 h 3.09833 v 0.77458 h 0.77458 v 0.77458 h 1.549 v 0.77458 h 2.32375 v 0.77458 h 0.77458 v 0.77458 h 0.77458 v 0.77458 h 0.77442 v 0.77459 h -0.77442 v 1.54916 h -1.54916 v -0.77458 h -0.77458 v -0.77458 h -0.77459 v -0.77459 h -3.09816 v -0.77458 h -2.32375 v -0.77458 h -1.54916 v -1.549 h -2.32375 v -0.77459 H 420.203 v -0.77458 h -0.77458 v 0.77458 h 0.77458 v 0.77459 h -1.54916 v -0.77459 h -0.77458 v -1.54916 h -0.77458 z m 170.389,-4.64733 v 0.77458 h -0.77459 v -1.549 h 1.54917 v -0.77458 h 0.77458 v 1.549 h -0.77458 v 0.77458 z M 177.00648,355.5309 h -0.77458 v 0.77458 h 0.77458 v 0.77458 h 0.77458 v -0.77458 h -0.77458 z m 194.40104,-72.0353 h -0.77458 v 1.54917 h -0.77458 v -0.77458 h -0.77459 v 1.549 l -0.77458,-0.77458 v -0.77458 h -0.77458 l -0.77458,0.77458 -0.77442,0.77458 h -0.77459 v -0.77458 h -0.77458 v 0.77458 h 0.77458 v 0.77458 h -0.77458 v 0.77458 h 0.77458 v -0.77458 h 0.77459 v -0.77458 h 0.77442 v -0.77458 h 0.77458 v 0.77458 h 3.09833 v -0.77458 h 1.54916 v -0.77458 h -0.77458 z m -194.40104,65.06312 h -0.77458 v 0.77458 h -0.77458 v 0.77458 h -0.77458 v 0.77458 h -0.77459 l 0.77459,0.77458 v 1.54917 h 0.77458 v -2.32375 h -0.77458 l 0.77458,-0.77458 h 0.77458 v -0.77458 h 0.77458 z M 378.38191,283.4956 h -0.77458 v 0.77459 h 0.77458 z m -199.82469,61.96527 h -0.77458 v 1.549 h -0.77458 v 0.77458 h 0.77458 v -0.77458 h 0.77458 z m -6.19649,-13.16742 h -0.77458 v 0.77458 h 0.77458 z m 208.3435,-49.57211 h -0.77458 v 0.77458 h -0.77458 l 0.77458,0.77458 h -0.77458 v 0.77458 h 1.54916 z m 71.25961,46.47347 h -1.54916 v 0.77458 h 1.54916 v 0.77458 h 0.77458 v -0.77458 h -0.77458 z m 3.09833,0.77458 h -0.77458 v 0.77458 h 0.77458 z m 72.80435,-47.24853 h -0.77458 v 0.77459 h 0.77458 z m -192.07413,-0.77458 h -0.77459 v 0.77458 h 0.77459 l 0.77458,0.77459 h -0.77458 v 0.77458 h 0.77458 v -1.54901 h -0.77458 z m 41.82298,0 h -0.77458 v 0.77458 h 0.77458 z m -113.85371,37.95355 h -1.54916 v 1.54916 h 1.54916 z m 104.55936,-39.50287 h -0.77458 v 1.54916 h 0.77458 z m -43.37562,-2.32359 h -0.77458 v 0.77459 h -0.77458 v -0.77459 h -0.77458 v 0.77459 h 0.77458 v 1.54916 h 1.54916 z m 22.4624,-0.77458 h -0.77459 v 0.77458 h 0.77459 z m -18.58949,-1.54916 h -0.77458 v 1.54916 h 0.77458 z m 3.87275,0 h -0.77458 v 0.77458 h 0.77458 z m -24.78282,41.05203 h -0.77458 v 0.77458 h -1.54917 v 0.77459 h 2.32375 z m -50.34323,0 v 0.77458 h 0.77458 z m 131.66703,-1.549 h -0.77458 v 0.77458 h 0.77458 z m -57.31146,-41.05204 v 0.77459 h 0.77458 z m 58.86015,32.5318 h -0.77458 v 0.77458 h 0.77458 z m -41.04872,-34.08049 h -0.77458 v 0.77459 h 0.77458 z m -44.14673,41.8263 h -0.77458 v 0.77458 h 0.77458 z m 48.79722,-41.8263 h -0.77458 v 0.77459 h 0.77458 z m 4.64418,0 h -0.77459 v 0.77459 h 0.77459 z m -54.99056,40.27714 h -0.77442 v 0.77458 h -0.77459 v 0.77458 h 0.77459 v 0.77458 h 0.77442 v 0.77459 h 0.77458 l -0.77458,-0.77459 -0.77442,-0.77458 v -0.77458 h 0.77442 z m -5.42191,-0.77458 h -0.77443 v 0.77458 h 0.77443 z m 293.538,-130.9046 h -1.54917 v 1.54901 h 0.77459 v 0.77458 h 0.77458 v -0.77458 h 0.77458 v -0.77458 h -0.77458 z M 382.26428,311.3788 h -0.77442 v 0.77458 h 1.549 z M 659.53923,176.60272 h -0.77458 v 0.77458 h 0.77458 z m -11.61873,-0.77458 h -0.77458 v 0.77458 h 0.77458 z m 0.77458,-1.54916 h -0.77458 v 0.77458 h 0.77458 z M 383.8166,303.6322 h -0.77458 v 1.54916 h -0.77458 v 0.77459 h 0.77458 v -0.77459 h 1.549 v -0.77458 h -1.549 z m 3.09817,0.77458 h -0.77458 v 0.77458 h 0.77458 z m -2.32375,3.87275 h -0.77442 v 0.77458 h 0.77442 v 0.77458 h 1.54917 v -0.77458 h -1.54917 z m -1.549,-1.549 v 0.77458 h 0.77458 z m -27.10641,0.77458 h -0.77458 v 0.77458 h 0.77458 z m 37.17912,0 h -0.77458 v 0.77458 h 0.77458 z m -1.54916,0.77458 -0.77458,0.77458 h -0.77458 v 0.77458 h 0.77458 v -0.77458 h 0.77458 z M 663.41213,172.73454 h -0.77458 v 0.77459 h 0.77458 v 0.77458 h 0.77459 v 0.77458 h 1.54916 v -0.77458 h -1.54916 v -0.77458 h -0.77459 z M 377.62468,305.95942 h -0.77458 v 0.77458 h 0.77458 z m 8.52008,0 h -0.77458 v 0.77458 h -0.77458 v 0.77458 h 0.77458 V 306.734 h 0.77458 z m 3.09833,3.87274 h -0.77458 v 1.54901 h 0.77458 z m -7.74582,-5.42191 h -0.77458 v 0.77458 l -0.77458,-0.77458 v 1.54901 h 1.54916 z m 8.52008,0.77458 h -0.77442 l 0.77442,0.77459 h -0.77442 v 0.77458 h 0.77442 z m -4.64733,-3.09832 h -0.77458 v 1.54916 h 0.77458 v 0.77458 h 0.77458 v -0.77458 h -0.77458 z m -17.81459,10.0694 h -1.54916 v 0.77458 h 1.54916 z m -60.41262,-10.84367 h -1.54917 v 0.77458 h 1.54917 z m 80.54749,10.84367 v 0.77458 h 0.77458 z m 1.54916,1.54916 h -3.09817 v 0.77458 h 3.09817 z m 2.32374,0.77458 h -1.54916 v 0.77458 h 1.54916 z m -206.79119,14.71989 h -0.77458 l 0.77458,0.77458 v 0.77459 h 0.77459 v 0.77458 h 0.77458 v 0.77458 h 2.32358 v -0.77458 h -2.32358 v -0.77458 h -0.77458 v -0.77459 h -0.77459 z m -8.52023,24.78614 h -0.77443 v 0.77458 h 0.77443 z M 651.02451,171.18601 h -0.77458 v 0.77458 h 0.77458 z M 373.75587,298.21234 h -0.77458 v 0.77458 h -0.77458 v -0.77458 h -1.54916 v 2.32374 h 0.77458 v -0.77458 h 0.77458 v 0.77458 h -0.77458 v 0.77458 h -0.77458 v 1.54901 h 0.77458 v -1.54901 h 0.77458 v -0.77458 h 2.32359 v 0.77458 h 1.54916 v -0.77458 h 1.54916 v -0.77458 h -1.54916 v 0.77458 h -1.54916 v -0.77458 h -1.54901 v -0.77458 h 0.77458 z M 662.64639,171.18601 h -0.77458 v 0.77458 h 0.77458 z m -14.71674,-1.54916 h -0.77458 v 0.77458 h -0.77441 v 0.77458 h 0.77441 v 0.77458 h 0.77458 v 0.77459 h 0.77458 v -0.77459 h -0.77458 v -0.77458 h 0.77458 l -0.77458,-0.77458 z m -293.538,127.02632 v 0.77459 h 0.77458 z m 6.97076,-0.77458 h -0.77442 v 1.54917 h 0.77442 v 0.77458 h -0.77442 v 0.77458 h 3.09817 v -0.77458 h -1.54917 v -1.54917 h -0.77458 z M 661.8685,169.63794 h -0.77458 v 0.77459 h 0.77458 z M 335.03137,284.27381 h -0.77458 l 0.77458,0.77459 z m 29.43,10.06956 h -0.77458 v 3.09817 h 0.77458 v -0.77458 l -0.77458,-0.77458 h 1.54916 v -0.77458 h -0.77458 z m 10.0694,-2.32374 h -0.77458 v 0.77458 h -0.77458 v 0.77458 h 0.77458 v -0.77458 h 0.77458 z m 4.64733,-1.54916 h -1.549 v 0.77458 h 1.549 z m -19.36391,-1.54901 h -1.54916 v 0.77458 h 1.54916 z m -24.01171,-0.77458 h -0.77458 l 0.77458,0.77458 z m 36.40407,3.09817 h -0.77458 l 0.77458,0.77458 h -0.77458 v 0.77458 h -0.77442 v 0.77458 h -0.77459 v 0.77458 h 0.77459 v -0.77458 h 0.77442 v -0.77458 h 0.77458 z m 124.69296,-2.32359 v 0.77458 h -0.77458 v 0.77458 l 0.77458,-0.77458 h 0.77458 z M 359.80962,287.3723 h -0.77458 v 0.77458 h 0.77458 z m 18.58964,0 h -2.32374 v 1.54916 h 1.54916 v 0.77458 h 1.549 v -0.77458 h -1.549 v -0.77458 h 0.77458 z m 148.70467,0 h -3.09833 v 0.77458 h -3.09832 v 0.77458 h 0.77458 v 0.77458 h 0.77458 l 0.77458,0.77458 h 0.77458 v 0.77459 h 0.77459 v 0.77458 h 0.77458 v -0.77458 h 0.77458 l -0.77458,-0.77459 v -0.77458 h 2.32358 v -1.549 h -0.77442 z m -157.22349,-0.77458 h -1.54916 v 0.77458 h 1.54916 z m -34.08064,-0.77459 h -0.77458 v 0.77459 h 0.77458 z M 680.45703,165.7644 h -0.77458 v 0.77459 l -0.77458,0.77458 h -0.77458 v 0.77458 h 0.77458 v -0.77458 h 0.77458 v -0.77458 h 0.77458 z M 512.38704,285.82313 h -0.77458 v 0.77459 h 0.77458 z m -146.37777,-2.32358 h -0.77458 v 0.77458 h 0.77458 z m 10.0694,-0.77458 h -0.77458 v 0.77458 h -2.32359 v 0.77458 h 1.54901 v -0.77458 l 0.77458,0.77458 v -0.77458 h 0.77458 z m -27.88399,-1.54917 h -0.77442 v 0.77458 h 0.77442 z m -13.16725,-0.77458 h -0.77458 v 0.77458 h 0.77458 z m 12.39299,-0.77458 h -0.77459 v 0.77458 h 0.77459 z m 178.90783,-0.77458 h -0.77459 v 0.77458 h 0.77459 v 0.77458 h 1.54916 v -0.77458 h -1.54916 z m -187.43296,-0.77458 h -0.77459 v 0.77458 h 0.77459 z m 518.91915,-111.54007 0.7746,3.87291 -2.3236,1.54901 -1.5492,3.09833 v 3.87274 l 0.7746,0.77458 1.5492,3.09833 1.549,1.54901 0.7746,1.54916 0.7745,2.32375 2.3238,0.77458 2.3236,-0.77458 h 0.7746 l 0.7746,1.549 -0.7746,3.09833 -1.5492,0.77458 -0.7746,3.09817 2.3238,2.32374 1.5491,2.32375 3.8728,2.32359 3.8729,0.77458 3.8727,3.87275 h 1.5492 l 3.0982,-1.54901 2.3237,0.77458 0.7746,-0.77458 h 2.3236 l 4.6475,-3.09832 3.0981,-0.77459 2.3238,0.77459 2.3237,2.32374 0.7745,0.77458 4.6441,0.77458 1.5492,0.77459 v 2.32358 l 0.7746,3.09833 2.3237,0.77458 0.7744,3.09833 0.7746,2.32358 2.3238,2.32375 v 3.09817 l 2.3235,0.77458 0.7746,0.77458 h 2.3238 l 0.7746,2.32374 1.549,1.54901 6.1966,1.54916 v 1.54916 l -1.5491,1.54901 -0.7746,1.54916 -2.3238,-0.77458 -2.3236,1.54901 -0.7745,2.32374 v 2.32375 l -1.5492,1.549 v 1.54916 l 0.7746,1.54901 0.7746,2.32374 v 1.54901 l -0.7746,0.77458 0.7746,0.77458 1.549,0.77458 v 1.54917 l -1.549,3.09832 -1.5492,0.77459 -3.0982,0.77458 h -1.5491 v -1.54917 l -1.5492,-1.54916 -5.4219,1.54916 -3.0983,-1.54916 h -0.7746 v 2.32375 l 0.7746,1.54916 1.5491,2.32374 v 2.32359 l -3.0981,1.54916 -1.5492,2.32359 h -0.7746 l -2.3237,0.77458 -3.0982,-1.549 v 3.87275 l -3.0983,1.54916 -0.7746,1.54901 -1.549,2.32374 -2.3238,-0.77458 -0.7745,1.549 0.7745,2.32375 -1.5491,2.32359 -2.3236,-0.77459 -0.7746,1.54917 h -2.3237 l -0.7745,0.77458 v 1.54916 l -0.7745,1.54901 1.549,1.54916 v 1.54901 l -0.7745,2.32374 2.3236,0.77458 1.5492,-0.77458 1.5492,0.77458 0.7744,1.54916 1.5491,0.77459 1.5492,3.09816 v 3.09833 l -0.7746,1.54901 -2.3237,-2.32359 h -1.549 l -0.7746,2.32359 -1.5492,0.77458 -0.7746,1.54916 v 1.549 l -1.549,3.09833 3.0982,3.09833 0.7746,-0.77458 1.5492,0.77458 0.7744,2.32358 2.3237,0.77459 0.7746,2.3269 v 2.32374 l 1.549,2.32359 2.3238,-0.77458 1.5491,2.32374 0.7746,2.32375 -1.5492,1.549 v 1.54916 l 1.5492,1.54901 -0.7746,1.54916 -3.0983,1.54901 v 3.09832 l -0.7746,1.54917 v 0.77458 l 0.7746,0.77458 0.7746,3.09817 1.5491,2.32374 1.5492,0.77458 -0.7746,3.09817 4.6474,2.32375 4.6473,3.09832 1.5491,-0.77458 h 3.0984 l 0.7745,2.32359 v 3.09833 l -0.7745,1.549 0.7745,2.32375 0.7746,1.549 -0.7746,0.77458 -0.7745,1.54917 v 0.77458 h 2.3237 l 2.3236,1.54916 0.7746,1.54901 -1.5492,2.32374 -0.7746,2.32374 h -1.549 l -1.5491,-2.32374 h -1.5492 l -2.3237,0.77458 v 1.54916 l -0.7746,0.77443 -0.7744,2.32374 -0.7746,1.54917 v 1.54916 l 1.549,1.54916 v 3.09817 l -3.0982,-0.77458 h -0.7746 v 3.09833 l -1.5491,-0.77459 v 3.09817 l -2.3236,2.32375 -0.7746,0.77458 h -1.5492 l -1.5491,1.549 0.7746,1.54917 4.6474,4.64749 -1.5491,1.549 h -2.3238 l -0.7745,0.77458 -2.3238,2.32375 -1.549,-1.54917 h -4.6473 l -1.5492,-1.54916 -1.5492,-0.77458 v -3.09817 l -0.7745,-0.77458 -3.8728,0.77458 -0.7746,-1.54916 -2.3237,1.54916 0.7746,2.32375 -0.7746,2.32358 v 4.64734 l -0.7746,0.77458 -2.3236,0.77458 2.3236,1.54916 -2.3236,1.54916 h -3.0983 l -2.3236,0.77459 0.7746,2.32358 h -3.0952 l -0.7744,2.32375 -3.0983,0.77773 -2.3236,-1.549 -2.3238,0.77442 v 3.87291 l 0.7746,2.32359 -0.7746,2.32374 2.3238,2.32359 3.8727,0.77458 h 1.5492 l 1.549,0.77458 0.7746,3.87291 0.7746,3.87275 0.7746,2.32374 2.3237,2.32359 -0.7746,1.54916 h -1.5491 l -1.5492,2.32375 -0.7746,-2.32375 h -0.7746 l -1.549,0.77459 -1.5492,-0.77459 -0.7745,-0.77458 -0.7746,-2.32374 -1.549,-0.77443 -1.5492,3.87275 -1.5491,1.54917 1.5491,2.32374 -2.3237,0.77443 h -6.1965 l -1.5492,0.77458 -2.3236,3.09832 -1.5491,1.54901 h -2.3238 l -1.549,0.77458 v 1.54916 l 0.7746,3.09817 2.3236,3.09833 v 4.64733 l -0.7746,2.32374 -0.7746,3.09817 -1.549,1.54917 -0.7746,2.32374 0.7746,1.54916 2.3236,3.09817 1.5492,0.77458 0.7746,2.32375 1.5491,2.32358 v 4.64734 l 2.3236,2.32374 0.7746,1.54916 v 2.32375 l 1.5491,1.549 v 1.54917 l 0.7746,2.32374 0.7746,3.09817 3.0982,0.77458 1.5491,1.54917 v 2.32374 h 4.6474 l 3.8727,3.87275 0.7746,3.87275 1.5492,0.77458 h 2.3237 v 2.3269 h 0.7746 l 0.7746,2.32375 2.3236,0.77442 v 0.77458 l -0.7746,2.32375 h -1.549 v 3.09832 l 2.3236,0.77458 v 2.32359 l 0.7745,1.54916 1.5492,0.77459 1.549,1.549 0.7746,2.32375 -0.7746,1.54916 h -0.7744 l 0.7744,2.32374 v 1.54901 h -1.549 l 0.7746,3.09832 -0.7746,1.54917 0.7746,0.77442 0.7744,0.77458 v 3.87291 l 0.7746,2.32359 1.5492,2.32374 v 3.09833 l -1.5492,1.549 0.7746,1.54917 -0.7746,2.32374 -0.7746,0.77442 -1.549,0.77459 v 2.32374 h -3.0983 l -1.549,-1.54916 v -2.32359 l -1.5492,-0.77458 -0.7746,-1.54916 -0.7745,-1.54917 h -0.7746 l -0.7746,2.32375 -0.7746,1.54916 v 2.32359 l 0.7746,1.54916 -3.8728,-2.32374 h -0.7746 l -0.7745,-1.54901 -1.5492,-1.54916 -2.3236,0.77458 v 2.32359 l -0.7746,0.77458 -0.7745,-0.77458 h -2.3236 l -1.5492,-2.32359 -0.7746,1.549 -0.7746,1.54917 2.3238,2.32374 v 3.87275 l 1.549,2.32375 -0.7744,1.54916 -2.3238,-1.54916 -5.4219,2.32374 v 3.87275 l -1.5491,1.54901 h -0.7746 l -1.5492,-0.77443 -1.549,0.77443 -1.5492,-0.77443 -1.5491,-1.54916 -1.5492,-1.54916 -1.5492,1.54916 v 2.32359 l -0.7745,0.77458 -0.7745,1.54916 -3.0983,-1.54916 -2.3236,0.77458 -1.5491,-0.77458 h -2.3205 l -2.3237,-0.77458 -1.5492,-2.32359 h -3.0982 l -3.8729,-1.54916 -1.549,-1.54901 -0.7745,1.54901 -1.5492,0.77458 -0.7746,0.77458 -0.7746,-2.32374 -0.7745,-0.77443 -0.7746,0.77443 -1.549,0.77458 h -0.7746 l -1.5492,-0.77458 -2.3237,1.54916 0.7746,2.32374 v 2.32359 l -0.7746,1.54916 -1.549,0.77459 h -0.7746 l -0.7746,2.32374 0.7746,2.32359 1.5492,3.8729 1.549,3.09818 2.3237,3.09832 1.5492,0.77458 v 3.09816 l 0.7744,1.54916 -0.7744,0.77459 -2.3238,0.77458 -1.5491,2.3236 3.0983,2.32374 1.549,3.87274 0.7746,4.65064 0.7746,2.32375 -0.7746,2.3236 v 4.64732 l 0.7746,1.54916 h -0.7746 l -1.549,1.54916 -0.7746,1.54917 -0.7746,1.54916 -0.7746,1.54902 -2.3237,0.77458 -0.7744,2.32374 1.549,1.549 v 2.32374 l -1.549,0.77458 -1.5492,1.54917 -0.7746,1.54901 -0.7746,-0.77458 h -1.549 l 0.7744,2.32375 2.3238,1.54916 v 2.32374 l -0.7746,3.09816 -0.7746,1.54916 v 2.3236 h -2.3236 v 1.54917 l 1.549,1.54916 0.7746,4.64732 0.7746,3.09833 4.6473,1.54916 3.8728,1.54901 h 1.5492 l 0.7745,3.87291 v 2.32358 l 1.5492,1.54916 v 3.87291 l 1.5492,0.77443 1.5491,1.54917 0.7744,2.32374 v 4.64732 l 0.7746,2.32375 1.5492,1.54916 v 1.54902 l 2.3237,1.54916 0.7745,2.32358 0.7745,1.54916 2.3238,0.77458 0.7746,0.77458 v 3.87276 l 1.5491,1.54917 0.7746,1.54916 h 1.549 l 0.7746,0.77458 v 3.10148 l -2.3236,1.54917 -0.7746,-3.09833 -2.3237,-0.77458 v 1.54916 l -3.8728,1.54916 -3.0983,3.09816 -1.5492,4.64734 1.5492,1.54917 0.7746,0.77458 v 2.32374 l -0.7746,3.09816 -0.7746,2.32375 -0.7746,1.54916 v 1.54902 l -1.549,1.54916 -2.3237,1.54916 -0.7746,3.09816 -0.7746,2.32374 -0.7745,0.77459 h -4.6474 l -2.3237,1.54916 -2.3236,0.77458 h -1.5492 l -2.3236,0.77444 -1.5491,0.77458 -0.7746,-1.54902 -3.0983,0.77444 -2.3236,-0.77444 -3.095,1.54902 -1.5492,1.54916 -0.7746,3.09816 v 3.87291 l -0.7746,3.87276 v 1.54916 l 1.5492,2.32374 -0.7746,3.87274 0.7746,0.77459 -1.5492,2.32359 h -4.6473 l -0.7746,0.77458 -1.5491,0.77459 h -1.549 l -0.7746,-0.77459 -1.5492,-0.77458 -1.5492,0.77458 -0.7745,3.09833 -2.3236,1.54916 -2.3238,-0.77458 h -0.7745 l -1.5492,1.54917 -3.0982,-0.77459 -3.0983,0.77459 -0.7744,1.54899 h -2.3238 l -1.5491,2.32375 -1.5492,1.54916 h -3.0982 l -2.3237,2.3236 -2.3204,2.32374 -2.3236,0.77458 -1.5492,2.32375 0.7746,3.09815 -1.5492,1.54917 -1.5491,0.77458 0.7745,1.54902 v 2.32374 l 3.0984,0.77458 v 3.09816 l -2.3238,1.54916 -0.7746,0.77458 -0.7745,0.77459 v 3.87276 l 1.5491,2.32374 v 2.3269 l 2.3238,2.32358 -0.7746,3.09832 0.7746,1.54917 v 2.32374 l -5.4221,1.54902 1.5492,3.87291 3.8729,3.87273 0.7744,1.54917 -1.549,1.54901 0.7746,3.09833 1.549,2.32374 2.3237,2.32358 -3.0983,1.54916 -2.3236,-0.77458 -3.0983,-0.77458 -1.5492,0.77458 -3.0981,-1.54916 -1.5492,1.54916 -1.5492,1.54917 2.3238,3.09818 2.3237,-0.77459 0.7744,0.77459 v 2.32374 l 2.3238,0.77458 h 3.8729 v 2.32375 l 3.0982,0.77458 3.8727,1.54899 2.3237,0.77458 1.5492,0.77459 v 2.32359 l -1.5492,0.77458 0.7746,2.32375 -1.5491,0.77458 -1.5492,3.09816 0.7746,2.32374 -0.7746,3.09833 -0.7744,2.3236 0.7744,1.54916 0.7746,2.32358 v 3.09832 l -0.7746,1.54917 h -3.8727 l -0.7746,-1.54917 -0.7746,0.77458 0.7746,3.09833 -1.549,1.549 2.3236,2.32374 2.3237,-0.77458 1.549,0.77458 3.0983,0.77458 3.0982,1.54902 4.6475,3.09832 3.8727,2.32358 2.3238,1.54916 0.7744,2.32375 -1.549,1.54916 -0.7746,1.54917 1.5492,3.09817 0.7744,2.32375 3.0983,2.32358 v 1.54916 l -1.5491,1.54916 -1.5492,-0.77458 -0.7744,-1.54916 h -1.5492 l -0.7746,1.54916 0.7746,2.3269 -1.5491,0.77458 -1.549,-0.77458 h -1.5492 l -1.5492,1.54916 v 3.09818 l 1.5492,4.64732 1.5492,3.09829 -0.7746,5.422 v 7.7458 l 1.549,1.5491 -0.7744,2.3238 1.549,2.3236 2.3237,1.5491 h 0.7746 l 0.7744,2.3236 1.5492,1.5492 h -7.7458 l -2.3236,1.5492 -3.0984,2.3237 -2.3235,0.7746 -1.5492,0.7746 -0.7746,2.3235 -3.0983,0.7746 -1.5492,1.5492 -3.0981,-1.5492 -1.5492,0.7746 -0.7744,1.5492 h -1.5492 l -3.0983,0.7744 -0.7744,1.5492 -3.0984,0.7745 -0.7746,1.5492 -2.3237,0.7746 -0.77458,2.3236 h -2.32358 l -2.32374,3.0983 1.54916,0.7746 h 1.54916 l 1.549,2.3236 -0.77442,3.0983 -1.54916,1.5492 h -2.32374 l -2.3236,2.32355 h -2.32375 l -1.54916,-1.54915 -0.77458,0.77465 -2.32358,0.7745 h -1.54916 l -0.77458,-1.54915 h -1.54917 l -2.32359,-0.7744 h -5.41875 l -0.77458,2.32355 h -3.09818 v 1.5492 l -1.54916,0.7746 -0.77459,-0.7746 -1.54916,-0.7746 h -1.54899 l -1.54917,1.5492 v 4.6473 l -2.32374,0.7746 -1.54916,1.5492 -1.54917,-0.7746 -2.3236,-2.3238 -3.09832,1.5492 -3.09816,0.7746 -2.3236,2.3236 v 0.7745 l -0.77441,2.3238 -3.09833,0.7746 h -1.54916 l -0.77458,-0.7746 h -0.77458 l -0.77458,0.7746 -0.77444,0.7745 -0.77458,1.5491 -0.77458,1.5491 -1.54917,0.7746 h -3.095 l -1.54916,0.7746 -1.54916,0.7746 h -2.3236 l -0.77458,-0.7746 v -1.5492 l -0.77459,-1.5491 -2.32357,-0.7746 h -3.09833 l -3.09818,0.7746 -1.54916,0.7745 -1.54916,1.5492 -1.54917,-0.7746 -2.32357,-1.5491 h -4.64734 l -2.32375,0.7745 -2.32374,0.7746 -1.54917,2.3238 -1.54899,0.7746 -2.32375,0.7745 -1.54916,-1.5491 -2.32044,0.7746 -0.77458,-0.7746 h -1.549 l -3.09833,1.5491 -1.54916,-0.7745 -0.77458,-0.7746 -1.54902,-2.3238 -0.77458,-1.5491 h -2.32374 l -2.32358,-0.7746 -0.77458,-0.7745 -1.54916,-1.5491 -0.77458,-1.5492 H 592.159 l -0.77458,-1.5491 -2.3236,-1.549 -3.09832,-1.5492 -3.09816,-0.7746 h -3.09833 l -2.3236,1.5492 -4.64748,1.5491 -3.86959,0.7745 -5.42192,-0.7745 -4.64732,-3.0983 h -1.54917 l -0.77458,1.5492 0.77458,1.5491 -1.54916,2.3236 h -3.87275 l -1.54901,-1.5491 -2.32374,-0.7745 -3.09833,-1.5491 h -2.32358 l -2.32375,-1.5492 -2.32374,-1.549 -4.64733,1.549 -2.32375,1.5492 h -3.86944 l -1.54916,0.7746 -0.77458,-2.3238 -0.77458,-1.549 h -1.54917 l -1.549,-1.5492 -0.77458,-2.3237 -1.54917,-0.7746 h -2.32374 l -2.32359,0.7746 -3.87291,0.7746 h -5.42191 l -4.64733,2.3237 -1.54916,-0.7746 -3.09817,2.3236 h -0.77458 l -2.32375,1.5492 -2.32358,1.5492 -1.54917,3.0981 -1.54916,1.5492 -3.09501,1.5491 -3.87275,1.5491 -2.32375,-0.7746 -2.32374,-1.549 -2.32375,-3.0984 v -3.0981 l 0.77458,-2.3238 -2.32358,-1.549 -2.32375,-1.5491 -1.54916,-3.0984 -1.54901,-0.7745 -2.32374,-2.32365 -0.77458,-3.0984 v -3.8727 l -1.54901,-0.7746 h -1.54916 l -1.54916,0.7746 0.77458,3.0982 -1.54917,1.5491 -1.54916,-2.3236 -0.77458,-3.8729 -1.54901,-1.5491 -2.32374,-0.7746 -0.77458,-1.549 0.77458,-1.5492 v -1.5491 l -0.77458,-3.0982 -0.77458,-3.8729 v -3.0982 l -0.77443,-1.5491 v -2.3238 l -2.32374,-3.8728 v -2.3237 l -0.77458,-0.7744 -1.54601,-2.3238 -0.77443,-1.5491 0.77443,-2.3238 -1.54901,-1.549 -2.32374,-0.7746 v -0.7745 l -2.32359,-0.7746 h -0.77458 l -2.32374,-0.7746 -0.77459,-1.5492 v -3.0981 l -0.77442,-2.3236 v -2.32377 l -2.32374,-2.32375 -0.77459,-2.32374 0.77459,-1.549 v -1.54916 l -2.32375,-0.77458 -0.77458,-2.3236 -1.54916,-2.32374 -0.77443,-3.09833 0.77443,-2.32358 0.77458,-0.77458 v -2.32374 l -1.54901,-0.77458 -0.77458,-1.54902 -0.77458,-2.32374 h -4.64733 l -2.32375,-0.77459 h -2.32374 l -0.77458,-0.77458 -0.77458,-1.54899 -3.09817,-2.32375 -0.77458,1.54917 h -2.32359 l -0.77458,-1.54917 v 3.87274 l -1.54917,0.77458 v 1.54917 l 0.77459,3.09818 -2.32375,1.54916 -1.54585,-0.77458 -0.77458,-1.54916 -1.54916,-2.3236 -1.54917,1.54916 -0.77442,2.3236 -2.32374,-0.77458 -2.32375,1.54916 h -1.549 l -3.87291,-0.77458 -0.77458,-2.3236 v -2.32374 l -0.77459,-3.09816 -1.549,-2.32375 v -3.09832 l -3.09833,-1.54917 2.32375,-2.32359 0.77458,-0.77458 v -3.87274 l 0.77442,-0.77459 -0.77442,-0.77458 -2.32375,0.77458 -1.54916,1.54917 -1.549,-0.77458 v -1.54917 l -0.77459,-2.32374 -1.54916,-1.54917 h -0.77458 l -1.54916,-0.77458 h -2.32359 l -1.54916,-0.77441 v -1.54916 l -0.77459,-0.77459 h -2.32374 l -1.54901,-0.77458 -1.54916,-1.54916 -2.32374,0.77458 -2.32043,0.77458 -0.77459,-1.54916 -2.32374,0.77458 -0.77442,-1.54901 -2.32375,-0.77459 -1.54916,0.77459 -2.32359,0.77443 v -2.3236 h -3.09833 v -0.77458 h -2.32358 l -4.64749,4.64734 -2.32359,0.77458 -2.32374,-0.77458 v 2.32375 l -1.54917,3.09816 v 4.64749 l -0.77442,3.09815 -1.54916,1.54917 h -2.32375 l -2.32374,0.77458 -1.54901,3.09818 -0.77458,3.09832 0.77458,1.54917 0.77443,0.77458 v 2.32357 l -2.32359,0.77459 -1.54916,2.32374 -2.32359,2.3236 -0.77143,3.09832 v 2.32358 l -1.54916,1.54916 -1.54916,-0.77458 -0.77458,1.54917 0.77458,1.54916 -2.32359,0.77458 -0.77458,1.54902 v 1.54916 l -0.77458,1.54916 -1.54917,-0.77458 -1.549,3.09816 -0.77458,3.87291 -0.77459,1.54915 -1.54916,1.5492 0.77458,2.3236 1.54917,2.3237 v 2.3236 l -1.54917,1.5492 -0.77458,1.5491 -1.549,1.549 -2.32375,0.7746 -1.54916,0.7746 h -0.77458 l -1.54917,1.5492 h -1.549 l -0.77458,0.7745 v 1.5492 l -1.54917,0.7746 v 2.3236 l -0.77458,1.5491 -1.54916,-0.7746 -1.54901,-0.7745 v -2.3236 l -1.54916,1.549 v 2.3237 l 0.77458,3.0982 0.77458,3.0983 -1.54916,0.7746 -1.54916,0.7746 v -2.3237 l -1.54917,-2.3238 -0.77458,-2.3236 0.77458,-1.5492 -0.77458,-2.3237 -0.77458,-2.3236 1.54916,-1.5491 0.77459,-1.5492 2.32374,-1.5492 -0.77458,-3.8727 -2.32375,1.5491 -2.32358,-0.7745 -2.32375,2.3236 -0.77458,-1.5491 0.77458,-2.3237 v -2.3236 l -2.32374,-1.5491 -0.77443,-1.5492 -2.32043,4.6473 v 1.5492 l -1.54916,2.3237 -2.32375,2.3236 -3.87275,1.5492 -0.77458,1.5491 -1.54916,1.5492 -1.54916,-0.7746 -0.77459,-0.7746 -1.549,-0.7745 h -1.54916 l -2.32375,1.5491 -0.77442,2.3236 h -2.32374 l -1.54917,-1.549 -2.32374,1.549 -1.54901,-0.7744 h -3.09832 l -1.54901,0.7744 -1.54916,2.3237 v 2.3238 l -0.77458,3.0982 -1.54917,2.3237 -2.32374,0.7746 -0.77458,0.7746 -1.54901,0.7746 -2.32043,1.549 -1.54916,-0.7746 h -2.32375 l -4.64733,1.5491 h -0.77458 v -1.5491 l -1.54917,-2.3236 -2.32358,1.5492 -1.54917,-0.7746 0.77459,-0.7746 -0.77459,-2.3237 -1.54916,-2.3238 -1.549,-0.7746 -0.77459,-3.0982 -1.54916,-0.7745 -1.54916,0.7745 -2.32375,-1.5491 0.77459,-2.3236 0.77458,-1.5492 -1.54917,-0.7745 0.77459,-2.3238 0.77458,-2.3236 2.32374,-3.0983 0.77458,-3.0982 -1.54916,-1.5491 v -2.3236 l 1.54916,-2.32377 1.54917,-3.87291 v -3.09816 l 0.77442,-2.32374 0.77458,-0.77458 v -0.77444 l -1.549,-3.87291 v -5.4219 l 0.77442,-1.54916 0.77458,-1.54916 v -2.3236 l 0.77458,-1.54917 1.54917,-1.54916 -0.77459,-2.32357 v -0.77459 l 2.32375,-2.32374 v -1.54916 l 1.549,-1.54902 v -1.54916 l -1.549,-0.77458 v -1.54917 l 3.87275,-1.54899 0.77458,-3.09833 -1.54916,-1.54916 0.77458,-2.32375 1.549,-3.09816 1.54917,-2.32374 v -6.97077 l -0.77458,-1.54916 h -1.54901 l -2.32374,0.77458 -1.54917,0.77458 -3.09817,-1.54916 -0.77458,-3.09816 -0.77458,-0.77458 -1.549,-0.77459 -2.32375,1.54917 -1.54916,-0.77458 -0.77458,-1.54917 v -4.64734 l -0.77458,-2.32374 v -3.09816 l -1.54917,-1.54917 -1.549,-2.32374 -3.09833,-3.09818 -1.54901,-4.64749 v -3.09816 l 0.77443,-2.32374 1.54916,-2.3236 2.32375,-1.54916 1.549,-0.77458 -0.77442,-3.10148 0.77442,-1.54917 0.77458,-1.54916 -1.549,-2.32358 -0.77458,-1.54916 v -1.54916 h 0.77458 l -0.77458,-2.3236 -1.54917,-0.77458 0.77458,-1.54917 -1.54916,-0.77458 -1.54916,0.77458 -2.32359,0.77459 -2.32374,-0.77459 -0.77458,0.77459 -0.77459,1.54916 -0.77458,-0.77458 -2.32358,-1.54917 -0.77459,-1.54899 -0.77126,-3.87291 1.549,-1.54916 -0.77458,-1.54916 1.54916,-1.54902 v -1.54916 l 0.77458,-2.32375 0.77459,-1.54899 2.32358,-2.32375 v -0.77458 l -1.549,-1.54916 -2.32375,-1.54917 -1.54916,-2.32359 v -4.64732 l -1.54901,-5.42193 -1.54916,-3.87291 -0.77458,-3.87274 -2.32359,0.77459 -0.77458,-1.54917 -2.32374,-1.54916 -0.77459,-2.3236 -1.54916,-1.54916 -2.32358,0.77458 h -1.54917 l -2.32374,-0.77458 -3.09817,-1.54916 -3.09833,0.77458 -2.32374,1.54916 -2.32359,0.77458 -1.54916,-1.54916 0.77458,-2.32375 0.77458,-1.54916 1.54916,-3.09816 -0.77458,-2.32374 1.54901,-0.77458 h 2.32374 l 2.32375,-0.77444 h 1.54916 l 1.54901,-2.32374 v -1.54917 l -1.54901,-0.77458 0.77458,-3.87274 -1.54916,-1.54916 -3.87291,-0.77458 -0.77458,-1.54916 -1.54901,-3.87276 0.77443,-0.77459 v -1.54899 l -1.54901,-0.77458 v -2.32375 l -0.77458,-0.77458 -0.77458,-0.77458 -1.54916,2.32374 -0.77458,0.77459 -2.32359,-0.77459 -2.32375,1.54917 v 1.54899 h -2.32358 l -1.54917,-1.54899 -2.32043,-0.77458 -3.09832,-0.77459 h -1.54917 l -1.549,0.77459 -3.09833,0.77458 -0.77458,-3.87291 h -5.4219 l -0.77459,-2.32375 h -1.54916 l -2.3236,0.77459 -0.77458,-2.3236 -0.77458,-2.3269 -0.77458,-0.77458 -1.549,0.77458 0.77459,2.3236 -0.77459,0.77458 -2.32374,0.77458 -3.09833,0.77458 -2.32359,0.77458 -1.54917,-0.77458 0.77458,-1.54916 -0.77458,-2.32375 -2.32374,-0.77443 -1.549,2.3236 -0.77458,0.77458 -1.54916,-0.77458 v -2.3236 l -1.54916,-0.77458 0.77458,-1.54917 -1.54917,-3.09815 h 3.09833 v -1.54917 l -0.77458,-1.54916 0.77458,-2.3236 0.77458,-1.54916 -0.77458,-2.32375 0.77458,-1.54916 0.77458,-0.77458 1.549,1.54916 2.32374,-0.77458 -2.32374,-1.54899 v -1.54917 l -1.549,-1.54916 -0.77458,-1.54916 0.77458,-1.54902 2.32358,-0.77458 v -1.54916 l 2.32374,-1.54917 1.54917,-3.09815 h 2.3236 l -1.54917,-2.32375 v -2.32374 l 0.77458,-1.54902 2.32375,-2.32374 h 3.87291 v -3.87274 l 1.54899,-0.77459 1.54916,-1.54916 -0.77458,-0.77458 h -3.09816 l -1.54916,-1.54916 -1.54916,-2.3236 -4.64734,-2.32375 v -5.4219 l -0.77459,-3.87291 v -3.87276 l -0.77458,-3.09816 -0.77458,-2.32374 -3.09816,-2.3236 h -2.32374 v -3.09832 l -0.77458,-8.52009 1.54916,-1.54916 v -1.54916 l 0.77458,-0.77458 -0.77458,-3.87274 -0.77458,-2.32375 v -3.09818 l -1.54916,-1.54916 -0.77459,-2.3269 -1.54586,0.77458 -0.77458,-0.77458 0.77458,-2.32358 v -2.32374 l -1.54916,0.77458 h -1.54899 l -0.77459,-2.32374 h -2.32374 l -1.549155,0.77458 -3.87276,-2.32375 0.77458,-1.54916 h 1.54916 l 1.54902,-0.77443 H 101.9 l 1.54917,-0.77459 0.77441,-2.32374 v -3.87274 h 2.32374 l 1.54917,-0.77458 0.77443,-1.54916 1.54916,-2.32375 2.32375,0.77458 h 1.54916 l 1.54916,-1.54916 v -8.52008 l -0.77458,-6.97077 v -11.61872 l -0.77458,-13.16741 -1.54916,-20.91323 -2.3236,-10.0694 -6.97092,-11.62141 -7.745805,-10.0694 0.77458,-3.09817 0.77458,-0.77458 1.54916,-3.09833 1.549165,-2.32358 3.09818,1.54916 h 3.87273 l 2.32375,-0.77458 1.54916,-1.54917 2.32375,-1.54916 0.77443,-0.77458 1.54916,-1.54916 2.32375,-0.77458 2.32358,-1.54901 h 2.32374 l 0.77458,-0.77458 1.54902,-3.87275 0.77458,-1.54917 2.32374,-1.54916 1.54917,-0.77458 h 3.87274 l 2.32374,-0.77458 h 1.54901 v 2.32374 l 0.77458,0.77458 h 3.09833 l 3.09832,-0.77458 v -1.54916 l 0.77443,-3.87275 v -3.87291 l 0.77126,-1.549 v -1.54917 h -0.77458 l -1.54916,-0.77458 v -3.09817 l -1.54901,-1.54916 v -2.32374 l 3.09817,-1.54917 v -3.09817 l -0.77458,-1.54916 0.77458,-1.54916 h 0.77458 l 3.09817,-0.77443 3.87275,-0.77458 2.32375,-1.54916 -1.54917,-1.54916 -0.77458,-0.77458 -2.32358,-0.77458 v -3.09817 l 0.77458,-0.77458 -0.77458,-1.54917 0.77458,-1.54916 1.549,-1.54901 2.32375,-0.77458 0.77458,-3.09832 2.32374,-0.77443 3.09817,-1.54916 2.32375,-1.54916 1.54916,-2.32375 3.09817,-0.77458 0.77458,-3.09817 3.87291,-2.32374 2.32358,-0.77459 1.54917,-3.87275 h 0.77458 l 1.549,1.54917 0.77459,-0.77458 0.77458,-2.32375 h 1.54916 l 0.77458,-2.3269 -0.77458,-1.54916 -0.77458,-2.32359 2.32374,-0.77458 -0.77458,-2.32375 -0.77458,-0.77458 -2.32374,0.77458 -2.32359,-2.32358 -3.09833,-1.54917 h -1.549 l -0.77458,-1.54916 v -4.64733 l -2.32375,-6.19649 -1.54916,-4.64734 -0.77458,-6.19665 -1.54917,-5.42191 -0.77442,-3.09817 h -0.77458 l -2.32375,-0.77458 -0.77458,-1.54916 h -2.32358 l 0.77458,-2.32359 -0.77458,-2.32375 -1.54917,-1.54916 -2.32374,0.77458 -1.54917,-1.54916 -2.32358,0.77458 -1.54917,-1.54916 v -2.32359 l 1.54917,-1.54916 -0.77458,-2.32359 -1.54917,-1.54916 h -3.09817 v -2.32375 l -0.77458,-0.77458 -1.54916,0.77458 -0.77458,-3.87275 -0.77443,-3.09816 v -1.54917 l -0.77458,-2.32358 0.77458,-2.32375 v -2.32374 h -2.32374 l 0.77458,-1.54901 1.54916,-0.77458 v -2.32375 l -1.54916,-1.549 0.77458,-1.54916 -0.77458,-0.77459 -2.32374,-0.77458 -3.09833,1.54917 -1.549,-1.54917 0.77459,-1.54916 1.54899,-1.54916 -0.77458,-3.09817 -3.09816,-0.77458 -2.32374,-0.77459 v -1.54916 l 6.19648,-0.77458 1.54916,-4.65049 v -3.87275 h 1.54917 l 1.54916,0.77458 0.77442,-0.77458 -0.77442,-1.54916 -1.54916,-1.54916 h -1.54917 v -0.77458 h -0.77458 v -3.09833 l 0.77458,-1.54901 0.77459,-1.54916 1.54916,-0.77458 0.77458,-0.77458 -0.77458,-0.77458 h 0.77458 v 1.54916 h 0.77442 v 0.77458 h 1.54901 v 0.77458 h 0.77458 v 0.77458 h 1.54916 v 0.77458 h 2.32375 v 0.77459 h 9.29435 v -0.77459 h 2.32374 v -0.77458 h 1.54917 v -0.77458 h 1.549 v -2.32374 h 0.77442 v -0.77458 h -0.77442 v -1.54901 h -0.77442 v -1.54916 h -0.77443 v -1.54916 h -0.77458 v -0.77459 h -0.77458 v -2.32358 h 0.77458 v 0.77458 h 0.77458 v 0.77458 h 0.77443 v 0.77458 h 0.77442 v 0.77458 h 0.77442 l 0.77459,0.77459 h 0.77458 v 1.549 h 0.77458 v 1.54916 h 0.77458 v 1.54916 h 0.77458 v 0.77459 h 0.77458 v 0.77458 h 0.77459 v 1.549 h 0.77442 v 1.54917 h 0.77458 v 1.549 h 0.77458 l -0.77458,0.77458 v 0.77459 h -0.77458 v 2.32374 h -0.77442 v 0.77458 h 0.77442 v 2.32375 h -0.77442 v 0.77458 h 0.77442 v 0.77458 h 0.77458 v 0.77458 h 0.77458 v 0.77458 h 0.77458 v 0.77458 h 2.32359 v 0.77459 h 0.77458 v 2.32358 h 0.77458 v 1.54917 h -0.77458 v 0.77458 h -1.549 v 0.77458 h 0.77442 v 0.77458 h 0.77458 v -0.77458 h 0.77458 v 3.09817 h 1.54917 v 2.32374 h -0.77458 v 0.77458 h 0.77458 v 3.87275 h 0.77458 v -6.97076 h -0.77458 v -0.77458 h 0.77458 v -0.77458 h -0.77458 v -0.77458 h -0.77458 v -1.54917 h -0.77459 v -0.77458 h 0.77459 v -0.77458 h 0.77458 v -3.09817 h 3.09832 v -0.77458 h 3.09817 v 0.77458 h 1.54916 v -0.77458 h -1.54916 v -0.77458 h -1.549 v -0.77458 h -2.32375 v 0.77458 h -1.54916 l -0.77458,-0.77458 h -0.77458 v -0.77458 h -0.77459 v -0.77458 h -1.54916 v -0.77459 h -0.77442 v -2.32374 h -0.77458 v -0.77458 h 0.77458 v -0.77458 h 1.549 v -0.77459 h 1.54917 v -0.77458 h 0.77458 v -0.77458 h 0.77458 v -0.77458 h 0.77458 v -0.77458 h 0.77458 v -0.77458 h 1.54916 v -0.77459 h 0.77459 v 0.77459 h 3.09816 v -0.77459 h 1.54917 v -0.77458 h 2.32043 v -0.77458 h 0.77442 v -2.32359 h 0.77458 V 309.835 h 0.77458 v -0.77458 h 0.77459 v -0.77458 h 0.77458 v -0.77458 h 1.54916 v -0.77458 h 1.54916 v -0.77458 h 1.54901 v 0.77458 h 1.54916 v -0.77458 h 4.64733 v 0.77458 h 3.09833 v -0.77458 h 1.54916 v -0.77458 h 6.1965 v 0.77458 h 4.64733 v 0.77458 h 3.09817 v -0.77458 h 2.32374 v -0.77458 h 3.09833 v -0.77459 h 0.77458 v -0.77458 h 5.41545 v -0.77458 h 5.42191 v 0.77458 h -0.77458 l 0.77458,0.77458 v 0.77459 h 0.77458 v -1.54917 h 0.77458 v 3.09833 l -0.77458,0.77458 h -0.77458 v -0.77458 h -1.54916 v 0.77458 h -0.77458 v -0.77458 h -0.77459 v 0.77458 h 0.77459 v 0.77458 h -0.77459 v 0.77458 h -0.77442 v 2.32359 h -0.77458 v 0.77458 h 0.77458 v -0.77458 h 0.77442 v 1.54916 h 0.77459 v 3.09817 h 0.77458 v 2.32375 h 1.54916 v 0.77458 h 0.77458 v 0.77458 h 3.09817 v 0.77458 h 0.77458 v -0.77458 h 0.77458 v 0.77458 h 3.09817 v 0.77458 h 6.97092 v -0.77458 h 0.77458 v 0.77458 h 0.77458 v 1.54916 h 1.54917 v 0.77459 h 1.54916 v 0.77458 h 2.32358 v 0.77458 h 2.32375 v -0.77458 h -1.54916 v -0.77458 h -2.32375 v -0.77459 h -0.77442 v -1.54916 h 2.32358 v -0.77458 h -2.32358 v 0.77458 h -1.54916 v -0.77458 h -0.77459 v 0.77458 h -0.77458 v -0.77458 h -0.77458 v -1.54916 h 0.77458 v 0.77458 h 1.54917 v -0.77458 h -1.54917 v -0.77458 h -0.77458 v -0.77459 h -1.54916 v -0.77458 h 0.77458 l -0.77458,-0.77458 h 3.09832 v -0.77458 h 2.32375 v -0.77458 h 3.09817 v 0.77458 h 1.54916 v 0.77458 h 0.77458 l 0.77442,0.77458 v 0.77458 h -0.77442 v 3.09833 h 3.87275 v -0.77458 h 3.09817 v 0.77458 h 4.64749 v -0.77458 h 1.549 v -0.77458 h 0.77459 v -0.77458 h 0.77458 v -0.77459 h 0.77458 v -0.77458 h 1.54916 v -0.77458 h 2.32359 v 0.77458 l 0.77458,-0.77458 h 1.54916 v 0.77458 h 4.64734 v 0.77458 h 1.54916 v -0.77458 h 1.54916 v 0.77458 h 0.77458 v -1.54916 h 0.77458 v 0.77458 h 2.32359 v 0.77458 h 1.54916 v 0.77459 h 4.64734 v -1.54917 h -1.54917 v 0.77458 h -2.32358 v -0.77458 h 0.77458 v -0.77458 h -0.77458 v -0.77458 h -0.77459 v -0.77458 h 1.54917 v 0.77458 h 0.77442 v -1.54901 h -3.87275 v 0.77458 h 0.77458 v 0.77459 h 0.77458 v 0.77458 h 0.77459 v 0.77458 h -2.32375 v -0.77458 h -1.54916 v -0.77458 h -0.77443 v -1.54917 h -0.77458 v -1.549 h 0.77458 v 0.77458 h 0.77443 v -0.77458 h -0.77443 v -0.77458 h -0.77458 v 0.77458 h -0.77458 v -0.77458 h -0.77458 v -0.77459 h -0.77458 v 0.77459 h -1.54916 V 309.835 h -0.77443 v 0.77458 h -0.77458 V 309.835 h 0.77458 v -0.77458 h 1.54901 v 1.54916 l 0.77458,-0.77458 h 1.54916 v -0.77458 h 0.77458 v -0.77458 h 0.77458 v 1.54901 h 0.77443 v -0.77459 h 0.77458 v 0.77459 h 2.32374 v 0.77458 h -1.54916 l 0.77458,0.77458 h 3.87275 v 0.77458 h 1.54917 v -1.54901 h 0.77458 V 309.835 l -0.77458,-0.77458 v -0.77458 h 0.77458 v -0.77458 h -0.77458 v -0.77458 h -0.77459 v -4.64749 l 0.77459,0.77458 v 0.77458 h 0.77458 v -0.77458 h -0.77458 v -1.549 h 0.77458 v -0.77459 h -0.77458 v -0.77458 h 0.77458 v -0.77458 h 0.77458 v -0.77458 h -0.77458 v 0.77458 h -1.54917 v 2.32359 h -0.77458 v -2.32359 h 0.77458 v -0.77458 h 1.54917 v -0.77458 h -1.54917 v 0.77458 h -0.77458 v -1.54916 h -1.549 v -0.77459 h 0.77442 v -0.77458 h -2.32359 v -0.77458 h -0.77458 v -1.549 h -0.77458 v -1.54917 h -1.54916 l 0.77458,-0.77458 v -2.32359 h -0.77458 v 0.77459 l 0.77458,0.77458 h -1.54901 v -3.87291 h -1.54916 v -1.54901 h 0.77458 v -0.77458 h 0.77458 v -0.77458 l -0.77458,-0.77458 v -0.77458 h -0.77458 v -0.77458 h -0.77458 v -0.77458 h 1.54916 v -1.54917 h 1.54901 v 1.54917 h 0.77458 v 0.77458 h 0.77458 v 0.77458 h 0.77458 v -1.54916 h -0.77458 v -1.54917 h -0.77458 v -1.549 h 0.77458 v -0.77458 h -0.77458 v -0.77459 h 1.54916 v 3.87275 h 1.54917 l -0.77459,0.77459 h 0.77459 v -0.77459 h 0.77458 v -2.32374 h -0.77458 v 0.77458 h -0.77459 v -1.549 h 0.77459 v -0.77459 h 0.77458 v 0.77459 h 0.77442 v -1.54917 h -0.77442 v -0.77458 h 1.549 v -2.32374 h -1.549 v -0.77459 h 0.77442 v -0.77458 l 0.77458,0.77458 v -1.549 h 1.54917 v 0.77458 h -0.77459 v 0.77458 h 1.54917 v 0.77458 h -0.77458 l 0.77458,0.77458 v -0.77458 h 0.77458 v -0.77458 h 0.77458 v 0.77458 h 0.77458 v -1.54916 h 0.77458 v 0.77458 h 0.77459 v 0.77458 h -0.77459 v 0.77458 h 0.77459 v -0.77458 h 0.77442 v 0.77458 h 0.77458 v -0.77458 h 0.77458 v 1.54917 h 0.77458 v -1.54917 h 2.32375 v 1.54917 h 0.77127 v -0.77459 h 0.77458 v 0.77459 h -0.77458 v 0.77458 h 0.77458 v 0.77458 h 0.77458 v 2.32359 l 0.77458,0.77458 v -1.54901 h 1.54917 v -0.77458 h 0.77442 v -0.77458 h 0.77458 v 0.77458 h 0.77458 v -0.77458 h 0.77458 v 0.77458 h 0.77459 v 0.77458 h 0.77458 v 1.54901 h 2.32358 v 0.77458 h 0.77459 v -0.77458 h 0.77458 v -0.77458 h -0.77458 v 0.77458 h -0.77459 v -0.77458 h -0.77458 v -0.77458 h 0.77458 v -0.77459 h 0.77459 v -0.77458 h -0.77459 v -0.77458 h 3.09833 v -3.09817 h 1.54901 v 0.77458 h 1.54916 v 1.54901 h 0.77458 v 0.77458 h 0.77458 v 0.77458 h 0.77458 v 0.77458 H 333.477 v 0.77459 h 1.54916 v -3.09817 h 0.77459 l -0.77459,-0.77459 h 0.77459 v 1.54901 h 0.77458 v 1.54916 h 0.77458 v 0.77459 h 0.77442 v -0.77459 h -0.77442 v -3.09832 h 0.77442 v 1.54916 h 0.77458 v 0.77458 h 0.77459 v 2.32375 h 3.09832 l 0.77443,0.77458 h -0.77443 v 0.77458 l 0.77443,-0.77458 v -0.77458 h -0.77443 v -0.77458 h -2.32374 v -2.32375 h -0.77458 v -0.77458 h 1.54916 v -0.77458 h -1.54916 v 0.77458 h -0.77459 v -0.77458 h -0.77458 v -0.77458 h 1.54917 v -1.54917 h -1.54917 v -0.77458 h 0.77458 l -0.77458,-0.77458 h 0.77458 v -0.77458 h 1.54917 v -0.77458 h 2.32374 v 0.77458 h 1.54901 v 2.32374 l 0.77458,0.77458 v 1.54917 h 0.77458 v -1.54917 h -0.77458 v -2.32374 l -0.77458,-0.77458 h 1.54916 v -0.77458 h 0.77458 v -0.77459 h -1.54916 v 0.77459 l -0.77458,-0.77459 h 0.77458 v -0.77458 h 0.77458 v -0.77458 h 3.87291 v 0.77458 h -0.77458 v 1.54917 h 2.32358 v -1.54917 h 1.54917 v 0.77458 h 0.77458 v 0.77459 h -2.32375 v 0.77458 h 0.77459 l 0.77458,-0.77458 v 0.77458 h 0.77458 v -0.77458 h 0.77458 v -0.77459 h 1.54901 v 0.77459 h -1.54901 v 0.77458 h -0.77458 v 0.77458 h 1.54916 v 0.77458 h -0.77458 v 0.77458 h 0.77458 v -0.77458 h 0.77443 v -0.77458 h 0.77142 l -0.77458,-0.77458 h 3.87275 v 0.77458 h -0.77458 v 0.77458 h 0.77458 v -0.77458 h 0.77458 v 1.54916 h -0.77458 v 1.54917 h 0.77458 v 2.32358 h 0.77458 v -2.32358 h 1.54917 v -0.77459 h 0.77458 v -0.77458 h 1.54916 v 0.77458 l 0.77458,-0.77458 v 0.77458 h 1.54901 v 1.54901 h 0.77458 v -0.77458 h 0.77458 v 0.77458 h -0.77458 v 0.77458 h -0.77458 v 2.32375 h 0.77458 v -0.77459 l -0.77458,-0.77458 h 1.54916 v 0.77458 h 0.77458 v 1.54901 h 0.77458 v -3.09817 h 2.32359 v 0.77458 h 0.77458 v 0.77458 h 0.77458 v -0.77458 h 0.77459 v 0.77458 h 0.77458 v -0.77458 h 0.77458 v 3.09817 h -0.77458 l -0.77458,0.77458 h -0.77459 v -0.77458 h -0.77458 v 3.09833 h -1.54916 v 2.32374 h -0.77458 v 0.77458 h 1.54916 v -1.54916 h 1.54916 v -0.77458 h 3.87291 v 0.77458 h 1.54901 v 0.77458 h 3.09832 v 0.77458 h -1.54916 v 1.54917 h 1.54916 v 0.77458 h -0.77458 v 0.77458 h -0.77458 v -0.77458 l -0.77458,0.77458 h -0.77458 v 1.54901 h -0.77458 v 0.77458 h 0.77458 v 1.54916 h 1.54916 v -0.77458 h -0.77458 v -0.77458 h 1.54916 v 1.549 h -0.77458 v 0.77458 h 0.77458 v -0.77458 h 0.77458 v 0.77458 h -0.77458 v 0.77459 h 0.77458 v 0.77458 l 0.77459,0.77458 h -1.54917 v -0.77458 h -0.77458 v 0.77458 h -0.77458 v 0.77458 h 2.32374 v 0.77458 h -0.77458 v 0.77458 h -0.77458 v 0.77458 h -3.09817 v -0.77458 h -0.77458 v 0.77458 h -1.54916 v -0.77458 h -1.54917 v -1.549 h 1.54917 v -0.77458 h 0.77458 v 0.77458 h 3.09817 v -1.54917 h -0.77458 v 0.77459 h -2.32359 l -0.77458,-0.77459 h 0.77458 v -0.77458 h -0.77458 v 1.54917 h -1.54917 v 0.77458 h -0.77458 v 0.77458 l -1.54916,1.549 h -0.77458 v 1.54917 h 0.77458 v -0.77458 h 0.77458 v -0.77459 h 0.77458 v -0.77458 h 0.77458 v 2.32359 h 0.77459 v -1.54901 h 0.77458 v 0.77459 h 1.54916 v -0.77459 h 0.77458 v 0.77459 h 1.54901 v 0.77458 h 0.77458 v 1.549 h -0.77458 v 1.54917 h -0.77458 v -0.77459 h -0.77443 v 1.54917 h 1.54901 v 0.77458 h 1.54916 v -0.77458 h 1.54916 v -0.77458 h 0.77459 v -1.54917 l 0.77442,0.77458 v -0.77458 h 1.54916 v -0.77458 h 0.77458 v 0.77458 h 0.77459 l 0.77458,-0.77458 h 0.77458 v 0.77458 l 0.77442,-0.77458 v 0.77458 h 0.77458 v 0.77458 h -2.32358 v 1.54917 h -0.77458 v 1.54916 h -0.77459 v 0.77458 h 0.77459 v 2.32375 h 0.77458 v -1.54917 h 0.77458 v -0.77458 h 0.77442 v -1.54916 h -1.549 v -0.77458 h 1.549 v -0.77458 h 1.54917 v 0.77458 h 0.77458 v 0.77458 h 0.77458 l -0.77458,0.77458 h 0.77458 v -0.77458 h 0.77458 v 1.54916 h -0.77458 v 0.77458 h -0.77458 v 0.77459 h -0.77458 v -0.77459 h -0.77459 v 0.77459 h 0.77459 v 0.77458 h 2.32374 v 0.77458 h 1.54916 v 1.54916 h -2.32374 v 0.77458 h -0.77458 v 0.77458 h -0.77458 v 0.77458 h 0.77458 v 0.77459 h -1.54917 l -0.77458,0.77458 h -0.77442 v 0.77458 h 0.77442 v -0.77458 h 2.32375 v -0.77458 h 0.77458 v 0.77458 h 1.54916 l 0.77458,-0.77458 v -0.77459 h 1.54917 v -1.54916 h 0.77442 v 2.32375 h -0.77442 v 1.549 h -0.77459 v 0.77458 h -2.32374 v -0.77458 h -0.77458 v 0.77458 h -0.77458 v 0.77458 h 0.77458 v -0.77458 h 0.77458 l 0.77458,0.77458 h -0.77458 v 0.77459 h -0.77458 v 0.77458 h -1.54916 v 0.77458 h -0.77459 v -0.77458 h -0.77458 v 1.54916 h -0.77442 v 0.77458 h -1.54916 v -0.77458 h 0.77458 v -0.77458 h -1.54917 v -0.77458 h 0.77459 v -0.77458 h -0.77459 v 0.77458 h -1.54916 v -0.77458 h -0.77458 v -1.54917 h 0.77458 v -0.77458 h 1.54916 v -1.549 h -0.77458 v 0.77458 h -0.77458 v 0.77458 h -3.87275 v 0.77458 h -1.54916 v -0.77458 h 0.77458 v -0.77458 h -0.77458 v 0.77458 h -3.09817 v -0.77458 h -1.54916 v -0.77458 h -1.54917 v -0.77459 h -0.77458 v -1.54916 h 1.54916 v -0.77458 h -2.32374 v 0.77458 h -0.77458 v -0.77458 h -0.77443 v 0.77458 h 0.77443 v 0.77458 h 0.77458 v 0.77458 h -2.32359 V 309.835 h -0.77458 v -1.54916 h -1.54916 v -2.32358 h -0.77458 v -0.77459 h -0.77443 v -1.54916 h 0.77443 v 0.77458 h 1.54916 l 0.77458,-0.77458 h 0.77458 v -0.77458 h -0.77458 v 0.77458 h -1.54916 v -0.77458 h 0.77458 v -1.54901 h 0.77458 v -0.77458 h 0.77458 v -2.32374 h 0.77458 v -1.54901 h -0.77458 v 0.77458 h -1.54916 v 0.77459 h -2.32359 v 0.77458 h -2.32374 v 1.54916 h -0.77458 v 0.77458 h -2.32375 v 1.54901 h -0.77458 v -3.87275 h -0.77458 v -1.54917 h -0.77458 v 1.54917 h 0.77458 v 4.64733 h -0.77458 v 0.77458 h -0.77443 v 1.54901 h -0.77458 v 2.32374 h -0.77458 v 0.77458 h -0.77458 v 0.77458 h -0.77458 v 0.77458 h -0.77458 v 2.32359 l 0.77458,0.77458 v 0.77458 h 0.77458 v 0.77458 h 0.77458 v 0.77459 l 0.77458,-0.77459 h 0.77458 v -0.77458 h 0.77443 v -0.77458 h 2.32374 v -0.77458 h 1.54916 l -0.77458,0.77458 h 0.77458 v -0.77458 h 0.77459 v -0.77458 h 2.32374 v -1.54901 h 2.32359 v 0.77458 h 0.77458 v 0.77459 h 3.87275 v 0.77458 h 0.77458 v 0.77458 h 0.77458 v 0.77458 h 0.77458 l -0.77458,0.77458 h -0.77458 v 0.77458 h 1.54916 v -0.77458 h 1.54917 v 0.77458 h 2.32374 v 0.77459 h 0.77443 v 0.77458 h 3.8729 v 1.549 h 0.77459 v 0.77458 h 3.09816 v 0.77459 h 0.77459 v 2.32374 h 0.77458 v 0.77458 h 0.77458 v 0.77458 h 0.77442 v 0.77458 h 2.32375 v 0.77459 h 0.77458 v 0.77458 h 0.77458 v 1.54916 h 0.77458 v 0.77458 h 0.77458 v 0.77458 h 3.86629 v -0.77458 h 0.77458 v -1.54916 h 0.77458 v -3.87275 h -0.77458 v -0.77458 h -0.77458 v -0.77458 h -1.54917 v -1.54917 h -0.77458 v -0.77458 h 1.54916 v 0.77458 h 0.77459 l 0.77458,0.77458 h 0.77458 v 0.77459 h 0.77458 v 1.54916 h 0.77458 v 0.77458 h 1.54916 v 0.77458 h 0.77459 l 0.77442,0.77458 h 1.54916 v 0.77459 h -2.32358 v -0.77459 h -0.77459 v 1.54901 h -1.54916 v 1.54916 h -0.77458 v 0.77458 h -1.54916 v 0.77459 h -0.77458 v 3.09832 h 0.77458 v 0.77458 h 0.77458 v 0.77459 h 0.77458 v 0.77458 h 0.77458 v -1.54917 h 1.54916 v -0.77458 h 0.77459 v -0.77458 h 0.77442 v 0.77458 h 0.77458 v 0.77458 h 0.77458 v 0.77459 h 0.77458 v 2.32374 h 0.77459 v 1.54901 h 0.77458 v -0.77459 h 0.77442 v 0.77459 h 0.77458 v 0.77458 h 0.77458 v 1.54916 h 0.77459 v 0.77458 h 0.77458 v 0.77458 h 0.77458 v 0.77458 h 0.77458 v 1.54917 h 1.54901 v -0.77458 h 2.32374 v 0.77458 h 1.54916 v 0.77458 h 0.77458 v 1.549 h 0.77459 v 0.77459 h 0.77458 l -0.77458,0.77458 h 0.77458 v 0.77458 h 0.77442 v 0.77458 h -0.77442 v 0.77458 h 0.77442 v -0.77458 h 2.32375 v -0.77458 h -0.77459 v -0.77458 h 1.54917 v 0.77458 h 0.77458 v 0.77458 h 0.77458 v -2.32359 h 0.77442 v 0.77459 l 0.77459,0.77458 h 0.77458 v 0.77458 h 0.77458 v 0.77458 h 0.77458 v 1.54901 h 0.77458 v 0.77458 h 3.87275 v -1.54901 h 0.77458 v 1.54901 h 0.77459 v 0.77458 h 2.32043 v -0.77458 h 0.77458 v -2.32359 h 0.77458 v 0.77458 h 0.77458 v 0.77458 h 1.54901 v 0.77458 l 0.77458,0.77459 v 1.549 h 0.77458 v 0.77458 h 3.87291 v -0.77458 h 0.77458 V 355.535 h 0.77458 v -2.32359 h 0.77442 v -10.84382 h -0.77442 v -1.54901 h -0.77458 v -3.09832 h -0.77458 v -0.77459 h -0.77458 v -1.549 h 0.77458 v -0.77458 h 0.77458 v -1.54917 h -0.77458 v 0.77459 h -0.77458 l -0.77459,-0.77459 v -1.54916 h 0.77459 v -1.549 h 0.77458 v -0.77459 h -0.77458 v 0.77459 h -0.77459 v -3.09833 h -0.77458 v -0.77458 h -0.77458 v -2.32359 h -0.77458 v -2.32374 h -0.77458 v -2.32375 h -0.77458 v -2.32359 h -0.77443 v -3.09832 h -0.77458 v -3.09817 h -0.77458 v -6.19649 h -0.77458 v -6.97092 h 0.77458 v -0.77458 h 0.77458 v -0.77459 h 1.54901 v 0.77459 h -1.54901 v 1.54916 h 0.77458 v 1.549 h 0.77443 v 0.77459 h 0.77458 v 2.32374 h 0.77458 v 0.77458 h 0.77458 v 0.77458 h 1.54916 v -0.77458 h 1.54917 v 0.77458 h 0.77458 v 0.77459 h 1.549 v 0.77458 h 0.77459 l 0.77458,0.77458 h 0.77458 v 0.77458 h 0.77458 v 0.77458 h 1.54916 v 0.77458 h 2.32359 v 0.77458 h 3.09833 v 0.77458 h 7.74913 v -0.77458 h 3.87275 v -0.77458 h 1.54916 v -0.77458 h 1.54916 v -0.77458 h 0.77458 v -1.54916 h 0.77443 v -0.77458 h 3.09832 v 3.09832 h 0.77459 v -3.09832 h -0.77459 v -1.54901 h 1.54585 v -1.54916 h -0.77458 v 0.77458 h -2.32358 v -1.54916 l -0.77459,0.77458 v -3.09817 h 0.77459 v -0.77458 h 0.77442 v -2.32375 h 0.77458 v -1.549 h 1.54916 v -2.32375 h 0.77459 v -0.77458 h 0.77458 v -2.32359 h 1.549 v -0.77458 h 0.77458 v -0.77458 h 0.77459 v -0.77458 h 1.54916 v -0.77458 h 0.77458 v 0.77458 h 0.77458 v -0.77458 h 1.54917 v -0.77458 h 1.549 v 0.77458 h 0.77458 v -0.77458 h 0.77458 v -1.54917 l 0.77459,0.77458 v -1.54916 h 0.77458 l 0.77458,0.77458 h 0.77458 v -0.77458 h 0.77442 v 2.32375 h -0.77442 v 1.54916 h 0.77442 v 0.77458 h 0.77458 v 0.77458 h 0.77459 v 0.77458 h 0.77458 v -0.77458 h -0.77458 v -0.77458 h -0.77459 v -3.09833 h 1.54917 v -0.77458 h 0.77458 v 0.77458 h 1.54916 v 0.77459 h 3.09817 v 0.77458 h 2.32374 v -0.77458 h 4.64734 v 0.77458 h -0.77459 v 0.77458 h 0.77459 v -0.77458 h 1.54916 v 1.54916 h 0.77458 v 0.77458 h 2.32359 v -1.54916 h 0.77458 v 1.54916 h 0.77458 v -0.77458 h 0.77458 v -0.77458 h 0.77458 v -0.77458 h 0.77459 v 0.77458 h 2.32043 v -2.32375 h 1.54916 v -3.09832 h -0.77458 v 0.77458 h 0.77458 l -0.77458,0.77458 h -2.32375 v 0.77458 h -0.77458 v -1.549 h 1.54917 v -1.54917 h -0.77459 v 0.77459 h -1.549 v 0.77458 h -0.77458 v -0.77458 h -0.77458 v 0.77458 h -0.77459 v -0.77458 h 0.77459 v -0.77459 h -0.77459 v 0.77459 h -0.77458 v -3.87275 l -0.77458,-0.77459 v -1.54916 h -0.77458 v -1.54916 h -0.77458 v -0.77458 h -0.77458 v -1.54901 l 0.77458,0.77458 v -0.77458 h 0.77458 v -0.77458 h 0.77458 v -0.77458 h 0.77458 v -1.54917 h 0.77458 v -0.77458 h 1.54917 v -0.77458 h 0.77458 v -3.87275 h 0.77442 v -1.549 h 0.77458 v 0.77458 h 0.77459 v 0.77458 h 2.32374 v 0.77458 h 1.54901 v 1.54901 h 0.77458 v 1.54916 h 0.77458 v 0.77458 h 1.54916 v 0.77458 h 0.77458 v 1.54901 h 2.32375 v -0.77458 h 0.77458 v -3.09817 h -0.77458 v -1.54917 h 1.549 v -0.77458 h 3.87291 v -0.77458 h 0.77458 v -1.549 h 0.77443 v -0.77459 h -0.77443 v -1.54916 h -1.54916 v 0.77458 h -0.77458 v -0.77458 h -0.77458 v -0.77458 h -2.32359 v -1.54916 h -1.54916 v -0.77458 h -0.77458 v -0.77459 h -0.77459 v -0.77458 h -0.77458 v -1.54916 h -0.77458 l -0.77458,-0.77458 v -0.77458 h -0.77458 v -0.77459 h -0.77458 v -1.549 h -1.54901 v -0.77458 h -0.77458 v -0.77458 h -1.54916 v 0.77458 h -3.09817 v 1.549 h -0.77458 v -0.77458 h -0.77459 v -1.549 h -0.77458 v -3.09833 h 0.77458 v 2.32374 h 0.77459 v 0.77459 h 2.32358 v -3.87275 h -0.77442 v -4.64749 h -0.77458 v -4.64734 h 1.549 v 2.32375 h 0.77458 v -0.77458 h 0.77459 v -2.32375 h -0.77459 v -0.77458 h -1.549 v 0.77458 h -2.32375 v 0.77458 h -0.77458 v 0.77459 h -0.77458 v 0.77458 h -1.54916 v 0.77458 h -0.77458 v 2.32374 h -0.77458 v 1.54917 h 0.77458 v 2.32358 h -3.09817 v -0.77458 h -0.77458 v -0.77458 h -0.77459 l -0.77458,-0.77458 v -0.77458 h -0.77458 l -0.77442,-0.77458 v -2.32359 l -0.77458,-0.77458 v -9.30097 h 1.549 v -0.77459 h 0.77458 v -0.77458 h 3.09833 v -1.54916 h 1.54901 v -0.77458 h 1.54916 v -0.77458 h 1.54916 v -0.77458 h 0.77458 v -0.77459 h 0.77458 v -2.32374 h 0.77459 v -1.54901 h 2.32358 v -0.77458 h -1.549 v -5.42191 h -0.77458 v -1.54916 h -4.64749 v -0.77459 h -1.54901 v -0.77458 h -2.32374 v -0.77458 h -1.54917 v -0.77458 h -0.77458 v -0.77458 h 2.32375 v -0.77458 h -1.54917 v -0.77459 h 2.32375 v -0.77458 h 1.54916 v -0.77458 h 1.54901 v -0.77458 h 3.09832 v 0.77458 h 5.42192 v -0.77458 h 2.32374 v -0.77458 h 1.54901 v -0.77458 h 1.54916 v -0.77458 h 1.54916 v -0.77459 h 0.77458 v -0.77458 h 1.54917 v -0.77458 h 0.77458 v -0.77458 h 1.549 v -0.77458 h 0.77459 v -0.77458 h 1.54916 v -0.77459 h 0.77458 v -0.77458 h 0.77458 v -0.77458 h 1.54901 v -0.77458 h 0.77458 v -0.77458 h 0.77458 v -0.77458 h 1.54916 v -0.77459 h 2.32359 v -0.77458 h 1.54916 v -0.77458 h 0.77459 v -0.77458 h 0.77458 v -0.77458 h 1.54916 v -0.77458 h 1.54916 v -0.77458 h 1.54901 v -0.77459 h 2.32373 v -0.77458 h 2.3236 v -0.77458 h 1.54916 v -0.77458 h 2.32375 v -0.77458 h 1.54916 v -0.77458 h 1.54916 v -0.77458 h 1.54584 v -0.77459 h 2.3236 v -0.77458 h 1.54916 v -0.77458 h 2.32375 v -0.77458 h 2.32358 v -0.77458 h 3.8729 v -0.77458 h 3.09818 v -0.77458 h 3.09833 v -0.77459 h 0.77458 v 0.77459 h 0.77441 v -1.54917 h 0.77459 v 1.54917 h -0.77459 v 0.77458 h -1.54899 v 0.77458 h -0.77458 v 0.77458 h -0.77458 v 0.77458 h -0.77459 v 0.77458 h -0.77458 v 0.77458 h -1.54901 v 0.77459 h -0.77458 v 0.77458 h -0.77459 v 0.77458 h -0.77458 v 0.77458 h -0.77458 v 0.77458 h -0.77458 v 0.77458 h -1.54916 v 0.77458 h -1.54917 v 0.77459 l -0.77441,0.77458 h -0.77458 v -0.77458 h -1.54917 v -0.77459 h -1.54916 v 2.32375 h -3.09818 v 1.549 h -0.77458 v 3.09833 l 0.77458,0.77458 v 2.32359 h 0.77458 v 2.32374 h 0.77459 v 1.54917 h -0.77459 v -0.77459 h -3.09832 v 0.77459 l 0.77458,0.77458 v 1.54916 h 2.32374 v 0.77458 h 1.54902 v -0.77458 h 1.54916 v -0.77458 h 0.77458 v -4.64749 h 0.77459 v -0.77458 h 0.77458 v -1.54901 h 0.77458 v -1.54916 h 0.77441 v -0.77458 h 0.77458 v -0.77458 h 0.77459 v -0.77458 h 0.77458 v -0.77459 h 0.77458 v -1.549 h 0.77458 v -0.77458 h 0.77458 v -0.77458 h 0.77458 v -0.77459 h 0.77459 v -0.77458 h 0.77458 v -0.77458 h 0.77443 v -1.54916 h 0.77458 v -0.77458 h 0.77458 v -0.77458 h 0.77459 v -0.77459 h 0.77458 v -0.77458 h 0.77458 v -0.77458 h 0.77458 v -0.77458 h 0.77441 v -0.77458 h 0.77459 v -0.77458 h 0.77458 v -0.77458 h 0.77458 v -0.77459 h 1.54916 v 3.09833 h 0.77458 v 3.87274 h 0.77458 v 2.32374 h 0.77459 v 2.3236 h 0.77458 v 1.54916 h -0.77458 v 0.77458 h 0.77458 v 1.54901 h -0.77458 v 0.77458 h 0.77458 v 1.54916 h -0.77458 v 2.32375 h 0.77458 v 3.09817 h -0.77458 v -1.54901 h -0.77459 v -0.77458 h -0.77458 v -0.77458 h -0.77458 v -0.77458 h -0.77458 v -0.77458 h -0.77458 v -0.77459 h 0.77458 v -4.64748 h -0.77458 v -0.77459 h 0.77458 v -0.77458 h -0.77458 v 0.77458 h -1.54916 v -1.549 h -0.77459 v 1.549 h -0.77441 v 1.54917 h -0.77458 v -2.32375 h -0.77458 v -0.77458 h -0.77458 v 0.77458 h 0.77458 v 3.09833 h -0.77458 v -1.54916 h -0.77459 v -0.77459 h -3.87276 v 2.32375 h 1.54917 v -1.54916 h 0.77443 v 0.77458 h 0.77458 v 0.77458 h 0.77458 v 0.77458 h -0.77458 v 1.54916 h 0.77458 v 0.77458 l 0.77459,0.77459 v 0.77458 h 0.77458 v 0.77458 h 0.77458 v 0.77458 h 0.77458 v -0.77458 h 0.77441 v -0.77458 h 0.77459 v 0.77458 h 0.77458 v 0.77458 h 0.77458 v 0.77458 h 0.77458 v 0.77458 h 0.77458 v 2.32375 h -1.54916 v 0.77458 h -0.77458 v 2.32359 h -0.77458 v 1.54916 h -0.77459 v -0.77458 h -3.09815 v 0.77458 h -0.77459 v -0.77458 h -1.54916 v 0.77458 h 0.77458 v 0.77458 h 0.77458 v 0.77458 h 2.32375 v 0.77459 h 0.77458 v -0.77459 h 0.77441 l 0.77459,0.77459 v 3.87275 h -1.549 v 1.54916 h 1.549 v 0.77458 h 0.77458 v 0.77458 h 0.77458 v -0.77458 h 0.77458 v 0.77458 h 0.77458 v 0.77458 h 0.77458 v -1.54916 h 0.77458 v -1.54916 h 0.77459 v -0.77458 h 0.77458 v 1.54916 h 1.54901 v -0.77458 h -0.77458 v -0.77458 h 0.77458 v -4.64734 h 0.77459 v 0.77459 h 0.77458 v -1.54917 h 0.77458 v -9.29182 h -0.77458 l 0.77458,0.77458 h -0.77458 v -3.09817 h -0.77458 v -4.64733 h -0.77459 v -3.09833 h -0.77458 v -2.32374 h -0.77443 v -1.54902 h -0.77458 v -6.19648 h -0.77459 v -3.09833 h 0.77459 v -1.54916 h 0.77458 v -0.77458 h 0.77443 v -0.77458 h 0.77458 v -0.77458 h 0.77459 v -0.77459 h 0.77458 v -0.77458 h 0.77458 v -0.77458 h 1.54916 v -0.77458 h 0.77442 v -0.77458 h 0.77458 v -0.77458 h 0.77458 v -0.77458 h 0.77458 v -0.77459 h 0.77458 v -0.77458 h 0.77458 v -0.77458 h 2.3236 v -0.77458 h 3.09833 v -0.77458 h 1.54916 v -0.77458 h 2.32358 v -0.77459 h 1.54916 v -0.77458 h 2.31729 v -0.77458 h 11.62139 v 0.77458 h 2.3236 v 0.77458 h 2.32374 v 0.77459 h 1.54917 v 0.77458 h 1.54899 v 1.54916 h 0.77458 v 1.54916 h -0.77458 v 3.87274 h -0.77441 l 0.77441,0.77458 h -3.87274 v -0.77458 h -0.77458 v -0.77458 h -1.54902 v -0.77458 h 0.77444 v -0.77458 h -0.77444 v -0.77458 h -0.77458 v -0.77458 h -0.77458 v 0.77458 h 0.77128 v 1.54916 h -0.77458 v 4.64734 h 0.77458 v 3.09816 h -0.77458 v 0.77458 h -2.3236 v 0.77458 h 2.3236 v -0.77458 h 0.77458 v 0.77458 h 0.77458 v 1.54917 h 0.77458 v 0.77458 h -1.54916 v 1.54916 h 0.77458 v -0.77458 h 1.54917 v -0.77458 h 0.77458 v -1.54916 h 1.54899 v -1.54917 h 3.09833 v -0.77458 h 0.77458 v -0.77458 h 0.77458 v -0.77458 h 0.77458 v -0.77458 h 0.77458 v -1.549 h 0.77444 v -1.54916 h 0.77458 v 0.77458 h 3.09833 v -0.77458 h 0.77458 v 0.77458 h 0.77441 v 0.77458 h -0.77441 v 2.32375 h 0.77441 v 0.77458 h 0.77458 v -0.77458 h -0.77458 v -0.77459 h 0.77458 v -0.77458 h -0.77458 v -0.77458 h 0.77458 v -0.77458 h 0.77458 v 0.77458 h 0.77459 v 0.77458 h -0.77459 v 2.32358 h 0.77459 v -1.549 h 0.77458 v -0.77458 h 0.77128 v -0.77458 h 0.77458 v -1.54916 h 0.77458 v 1.54916 h 0.77458 v -3.09833 h 0.77458 v 0.77459 h 0.77458 v -0.77459 h 0.77459 v 0.77459 h 0.77458 v 0.77458 l 0.77441,0.77458 v 0.77458 h 0.77458 v 3.87274 h 0.77458 l -0.77458,-0.77458 h 0.77458 v 2.32374 h -0.77458 v 0.77459 h 0.77458 v -0.77459 h 0.77459 v -3.09832 h -0.77459 v -1.549 h 0.77459 v 0.77458 h 0.77458 v 1.549 h 1.54916 v -0.77458 h -0.77458 l 0.77458,-0.77458 h -1.54916 v -0.77459 h 0.77458 v -1.54899 h 0.77458 v -2.32375 h 2.3236 v -0.77458 h 1.55232 v -0.77458 h 8.52023 v 0.77458 h 0.77458 v 0.77458 h 0.77443 v -0.77458 h 1.54916 v 0.77458 h 3.09833 v 0.77459 h 1.549 v 0.77458 h -0.77459 v 0.77458 h 0.77459 v -0.77458 h 1.54916 v -0.77458 h 0.77458 v 1.54916 h 1.54916 v 1.54899 h -0.77458 v 0.77459 h -1.54916 l 0.77458,0.77458 h -0.77458 v 0.77458 h -1.54916 v 0.77458 h 3.09832 v -0.77458 h 0.77458 v -0.77458 h 0.77458 v -0.77458 h 1.54917 v 0.77458 h 0.77443 v -0.77458 h 3.09833 v -0.77459 h 4.64416 v -0.77458 l -0.77458,-0.003 v 0.77458 h -0.77458 v -0.77458 h 0.77458 v -0.77458 h 0.77458 l 0.77459,-0.77459 v -0.77458 l 0.77458,0.77458 v -0.77458 h 0.77443 v -0.77458 h 0.77458 v -0.77458 h 0.77459 v -1.54916 h 0.77458 v -0.77459 h 0.77458 v -2.32374 h 0.77458 v -0.77458 h 0.77458 v -2.32358 h 0.77441 V 153.367 h 0.77459 v -1.54916 h 0.77458 v 0.77458 h 0.77458 v 0.77458 h 0.77458 v -0.77458 h -0.77458 v -3.09818 h 0.77458 v -2.32374 l 0.77458,-0.77459 v -1.54899 l 0.77458,-0.77458 v -2.32375 h 0.77444 v -1.54916 h 0.77458 v -1.54902 h 0.77458 v -1.54916 h 1.54916 v -0.77458 h -0.77458 v -1.54916 h 0.77458 v -1.549 h 0.77459 v -1.54916 h 0.77458 v -1.54917 h 0.77458 v -0.77458 h 0.77458 v -1.54901 h 0.77458 v -1.54917 h 0.77442 v 0.77459 h 0.77458 v -0.77459 h -0.77458 v -2.32357 h 0.77458 v -2.32375 h 0.77458 v -0.77458 h 0.77458 v -1.54901 h 0.77458 v -0.77459 h 0.77458 v -0.77458 h 0.7746 v -0.77458 h 0.7744 v -0.77458 h 0.7746 v -0.77458 h 0.7746 v -0.77458 h 0.7746 v -0.77459 h 0.7745 v -1.54916 h 0.7746 v -0.77458 l 0.7746,-0.77458 v -0.77456 h 0.7746 v -0.77458 h 1.5492 v -1.54932 h 0.7744 v -0.77458 h 0.7745 v 0.77458 h 0.7746 v -0.77458 h -0.7746 v -0.77458 h 0.7746 v -0.77458 h 1.5492 v -0.77458 h 0.7746 v -0.77459 h 1.5458 l -0.7745,-0.77458 h 1.5491 v -0.77458 h 0.7744 V 101.471 h 0.7746 v -0.77458 h 0.7746 v -0.774578 h 1.5492 v -0.77458 h 0.7745 v -0.77459 h 1.5492 v -0.77458 h 1.5492 v -0.77458 h 1.549 v -0.77458 h 1.5491 v -0.77458 h 0.7746 v -0.77458 h 2.3236 v -0.77459 h 1.5492 v -0.77458 h 2.3237 v -0.77458 h 2.3238 v -0.77458 h 3.8727 v -0.77458 h 3.0982 v 0.77458 h 1.5491 v -0.77458 h 7.7425 v 0.77458 h 2.3238 v 0.77458 h 3.095 v 0.77458 h 1.5492 v 0.77458 h 2.3236 v 0.77459 h 1.5491 l 0.7746,0.77458 h 0.7746 v 0.77458 h 1.5491 v 0.77458 h 0.7746 v 1.54916 h 0.7746 v 1.54917 h 0.7744 V 101.471 h 0.7746 v 1.549 h -0.7746 v 0.77458 h -0.7744 v 0.77458 h 1.549 v -0.77458 h 0.7746 V 103.02 h 0.7746 v -0.77459 l 0.7745,0.77459 v 0.77458 h 0.7746 v 1.54916 h 0.7746 v 0.77458 h 0.7744 v 0.77458 h 0.7746 v 1.54902 h 0.7746 v 1.54916 h 0.7746 v 1.549 h 2.3237 v 0.77458 h 0.7745 v 0.77458 h 0.7745 v -0.77458 h 1.5492 l -0.7746,0.77458 h 0.7746 v 0.77458 h 0.7746 v -2.3236 h 3.0983 v -1.54914 h 0.7746 v 0.77456 h 0.7744 v -0.77456 h 0.7746 v -0.77458 h 1.5492 v -0.77458 h 0.7745 v 0.77458 h 0.7746 v 0.77458 h 1.549 v 0.77456 h 1.5492 v -0.77456 h -1.5492 v -0.77458 h -0.7744 v -0.77458 h -0.7746 v -0.77458 h 0.7746 v -1.54902 h 0.7744 v -0.77458 h 1.5492 v -0.77458 h 1.5491 V 103.02 h 3.8697 v -0.77459 h 1.5491 V 103.02 h 0.7746 v 0.77458 h 0.7744 v 0.77458 h 0.7746 v 2.32374 h 0.7746 v 0.77458 h 0.7746 v -0.77458 h 0.7745 v 0.77458 h 0.7746 v 0.77459 h 0.7746 l 0.7744,0.77458 h 3.0984 v 0.77458 h 0.7745 v 1.54899 h 0.7746 v 0.77459 h 0.7746 v -0.77459 h 0.7746 v 1.54917 h 2.3236 v 0.77458 h 0.7745 v 1.54901 h 0.7746 v -2.32359 l -0.7746,0.77458 v -0.77458 h -0.7745 l -0.7746,-0.77458 h -0.7744 v -0.77459 h -0.7746 v -0.77458 h -0.7746 v -0.77456 h -0.7746 v -1.54916 h -0.7746 v 0.77458 h -0.7745 v -1.54902 h -2.3238 v -0.77458 h -2.3236 v -0.77458 h -0.7746 v -0.77458 h -0.7745 v -0.77458 h 0.7745 V 103.02 h -0.7745 v -3.098158 h 1.5491 v 0.774578 h 0.7746 v -0.774578 h -0.7746 v -0.77458 h -2.3237 v -0.77459 h -0.7746 v -0.77458 h -1.549 v -0.77458 h 0.7744 v -1.54916 h 3.8729 v 1.54916 h 2.3236 v 0.77458 h 0.7746 v 0.77458 h 0.7746 v 0.77459 h 0.7746 v 1.548988 l -0.7746,0.77458 h 0.7746 v 0.77458 h -0.7746 v 1.54917 h 0.7746 v 0.77458 h 1.5491 v 1.54901 h 1.5492 v -1.54901 h -0.7746 v -0.77458 h -0.7746 V 103.02 h -0.7746 v -3.872738 h -0.7745 v -1.54917 h -0.7746 v -2.32374 h -0.7746 v -1.54917 h 0.7746 v -0.77458 h 0.7746 v -0.77458 h -0.7746 l -0.7746,-0.77458 h 0.7746 v -0.77458 h -0.7746 v -1.54902 h -0.7746 v -0.77458 h 0.7746 v -1.54916 h -1.5492 v -0.77458 h 0.7746 v -1.549 l 2.3238,1.549 0.7745,1.54916 1.5492,0.77458 -0.7746,2.3236 h 3.0982 l 1.5491,1.54916 2.3238,-0.77458 h 1.549 l 1.5492,1.54916 h 9.2945 l -1.5492,3.09816 5.4221,5.421918 h 2.3236 l 0.7746,-0.77458 1.5458,-0.774578 2.3237,0.774578 h 1.5492 l 1.5492,3.09833 v 2.32358 l 2.3236,0.77458 2.3237,-0.77458 1.549,2.32374 1.5492,0.77458 v 2.32375 l 3.8727,2.32357 1.5492,2.32375 3.0983,1.54901 0.7746,2.32375 -10.8438,7.74581 -3.0982,2.32375 -0.7746,2.32358 0.7746,3.87276 0.7746,3.09832 -0.7746,3.87274 -8.5201,8.52008 -0.7746,2.32375 0.7746,1.54916 1.549,2.3236 -1.549,0.77458 -0.7746,0.77458 v 0.77458 l -0.7746,1.54917 h -2.3237 z M 337.34455,276.52626 h -0.77459 v 0.77458 h 0.77459 z m -1.54917,0.77458 h -0.77458 v 1.54901 h 1.54916 v -0.77458 h -0.77458 z m -14.71657,-1.54916 h -0.77458 v 0.77458 h 0.77458 z M 651.79516,167.3142 v 0.77458 h 0.77441 z M 370.65518,276.52737 h -1.54916 v 0.77458 h 0.77458 v 0.77458 h 0.77458 z m 281.13998,-103.7903 h -0.77458 l 0.77458,0.77458 z M 331.14994,274.976 h -0.77458 v 0.77458 h 0.77458 z M 660.31398,173.50612 h -1.54917 v 0.77458 h 1.54917 z m -1.54917,1.54916 h -0.77458 v 0.77458 h 0.77458 z m -9.29434,1.54902 h -1.54917 v 0.77458 h -0.77458 v 0.77458 h 2.32375 z m -290.43496,97.59175 h -0.77458 v 0.77458 h -0.77458 v 0.77458 h 0.77458 v -0.77458 h 0.77458 z M 657.9956,178.92472 h -0.77459 v 0.77458 h -0.77443 v 1.54902 H 655.672 v 0.77458 h 0.77458 v -0.77458 h 0.77443 v -0.77459 l 0.77459,-0.77458 z m 0.77458,1.54901 h -0.77458 v 0.77459 h 0.77458 z m 0.77458,1.54917 h -0.77458 v 0.77458 h -0.77458 v 0.77458 h 0.77458 v -0.77458 h 0.77458 z m -312.90255,90.62414 h -0.77459 v 1.54917 h 0.77459 v 1.549 h 0.77458 v -1.549 h -0.77458 v -0.77458 h -0.77459 z m -33.30291,-0.77458 h -0.77458 v 1.54917 h 0.77458 z m 250.93761,-74.35557 h -0.77444 v 0.77459 h 0.77444 z m 26.33545,13.94231 h -0.77458 v 0.77459 h 0.77458 z m -242.42509,54.21945 h -0.77458 v 0.77458 h 0.77458 z m 2.32358,3.87275 h -0.77442 v 1.54901 h 0.77442 z m 24.78614,28.65889 h -0.77458 l 0.77458,0.77458 z m 2.32359,-0.77458 H 376.846 v 0.77458 h 0.77458 z m -9.29435,-3.09817 h -0.77458 v 0.77458 h 0.77458 z m -10.0694,-0.77458 h -0.77458 v 0.77458 h -0.77459 v 0.77458 h 0.77459 v 0.77458 h 0.77458 v -0.77458 h -0.77458 v -0.77458 h 0.77458 z m 11.61872,-0.77459 h -0.77458 v 0.77459 h 0.77458 z m 126.24417,-0.77458 h -0.77458 v 0.77458 h 0.77458 z m -137.08989,-0.77458 h -1.54916 v 0.77458 h -0.77458 v 0.77458 h -0.77458 v 0.77459 h -1.54917 v 2.32358 h 0.77458 v -1.549 h 0.77459 v -0.77458 h 0.77458 v -0.77459 h 0.77458 v -0.77458 h 0.77458 z m 9.29435,-3.09833 h -0.77458 v 0.77459 h 0.77458 v 1.54916 h -0.77458 v 1.549 h -0.77458 v 0.77459 h 0.77458 l -0.77458,0.77458 h -0.77443 v 0.77458 l 0.77443,-0.77458 h 0.77458 v -0.77458 h 0.77458 v -0.77459 h 0.77458 v -0.77458 h 0.77458 v 0.77458 h 0.77458 v -2.32358 h -0.77458 v 0.77458 h -0.77458 v -0.77458 h 0.77458 v -0.77458 h -1.54916 z m 6.97092,0 h -0.77458 v 0.77459 h -2.32375 v 0.77458 h 2.32375 v -0.77458 h 0.77458 z m -12.39315,-0.77458 h -0.77458 v 0.77458 h 0.77458 z m 135.53868,0 h -0.77458 v 0.77458 h 0.77458 z m -137.86558,-1.549 h -0.77458 v 0.77458 h 0.77458 z m 1.54916,0 h -0.77458 v 0.77458 h -0.77458 v 0.77458 h 0.77458 v -0.77458 h 0.77458 z m 1.54917,0 h -0.77458 v 0.77458 h 0.77458 z m 14.71657,0 h -0.77458 v 0.77458 h 0.77458 z m -28.65904,-1.54917 h -0.77458 v 0.77459 h 0.77458 z m 14.71673,0 h -0.77458 v 0.77459 h 0.77458 z M 497.65942,157.2418 v -0.77458 h 5.42191 v 0.77458 h 4.64733 v 0.77458 h 1.54917 v 0.77458 h 0.77458 v -0.77458 h 3.09817 v 0.77458 h 3.09832 l 0.77443,0.77458 h 0.77458 v 0.77459 h 0.77458 v 0.77458 h 2.32375 v 0.77458 h 0.77458 v 2.3236 h 0.77442 v 0.77458 h 0.77458 v 0.77458 h 0.77458 v 0.77458 h 0.77143 v 0.77458 h 0.77458 v 0.77458 h 0.77458 v 0.77459 h 1.54901 l 0.77458,0.77458 v 0.77458 h -1.549 v 2.32374 h -0.77459 v 0.77458 h -0.77458 v 0.77459 h -2.32374 v 0.77458 h -1.54917 v 0.77458 h -2.32374 v 0.77458 h -0.77442 v 0.77458 h -0.77459 v 0.77458 h -3.09832 v 0.77459 h -1.54901 v 0.77458 h -0.77458 v 0.77458 h -2.32374 v 0.77458 h -2.32359 v 0.77458 h -2.32375 v 0.77458 h -3.8729 v 0.77458 h -7.7425 v 0.77458 h -1.54901 v 0.77459 h -0.77458 v 0.77458 h -0.77458 v 1.54916 h -0.77458 v 2.32359 h -0.77459 v 1.54916 h -0.77458 v 1.54901 h -0.77458 v 0.77458 h -1.54585 v -0.77458 h -1.54916 v -0.77459 h -0.77458 v -1.549 h 0.77458 v -0.77458 h 0.77458 l 0.77458,-0.77458 v -0.77459 h 0.77458 v -0.77458 h 1.54917 v -0.77458 h 0.77442 v -3.09832 h 0.77458 l -0.77458,-0.77459 h 0.77458 v -0.77458 h -0.77458 v -3.87275 h -0.77442 v -2.32374 h -0.77459 v -1.54916 h -0.77458 v -1.54902 h 0.77458 v -2.32374 h -0.77458 v 2.32374 h -0.77458 v -1.54916 h -0.77458 v -5.42191 h 0.77458 v -0.77458 h 1.54916 v -0.77458 h 0.77459 v -2.32374 h 0.77442 v -0.77459 h 0.77458 v -1.54901 h 0.77458 v -0.77458 h 0.77458 v -0.77458 h 0.77459 v -0.77459 h 4.64733 z m -27.10972,-3.87274 v -0.77458 h 3.09817 v 0.77458 h 0.77458 v 0.77458 h 0.77458 v 0.77458 h 0.77458 v 1.549 h 0.77458 v 1.54916 h 1.54917 v 1.54916 h 0.77458 v 0.77459 h 0.77458 v 2.32359 h -0.77458 v 1.54917 h -0.77458 v 1.54916 l -0.77459,0.77458 v 0.77458 h -0.77458 v 1.549 h -1.54916 l -0.77458,-0.77458 h -0.77458 v -0.77459 h -0.77459 v -0.77458 h -1.549 v -0.77458 h -1.54916 v -0.77458 h -0.77459 v -0.77458 h -0.77458 v -0.77458 h -0.77458 v -1.549 h -0.77442 v -0.77458 h -0.77458 v -4.64749 h 0.77458 v -0.77458 h 0.77442 v -0.77458 h 0.77458 v -0.77458 h 0.77458 v -0.77459 h 0.77459 z m 187.43296,12.39282 v -2.32374 h 1.54916 v 0.77458 h 0.77442 v 1.54916 z m 8.52008,-5.4219 v -0.77458 h 0.77458 v 0.77458 h 6.97092 v 0.77458 h -9.29451 v 0.77458 h -1.54917 v -0.77458 h 0.77458 v -0.77458 h 1.54917 V 159.5654 Z M 378.38838,130.13207 v -1.54931 h 0.77442 v 0.77459 h 0.77458 v 0.77458 h 0.77458 v 0.77458 h 1.54917 v 1.54916 h 2.32374 v 0.77458 h 1.54916 v 0.77459 h 0.77458 v -0.77459 h 0.77443 v 2.32358 h 0.77458 v 1.54916 h 0.77458 v 3.87276 h 0.77458 v 0.77459 h 0.77459 l 0.77458,0.77458 v 3.09832 h -0.77458 v 0.77459 h -1.54917 v 0.77458 h -0.77458 v -0.77458 h -0.77458 v -0.77459 h -0.77443 v -0.77458 h -0.77458 v -2.32374 h -0.77458 v -1.54902 h -0.77458 v -1.54916 h -0.77458 v -1.54916 h -0.77458 v -0.77459 h -0.77458 v -0.77458 h -0.77459 v -0.77458 h -0.77458 v -2.32358 h -0.77458 v -1.54916 h -0.77458 v -1.54902 z m 20.13549,-25.56401 h -0.77458 v 0.77459 h 0.77458 z m 68.93287,-27.884148 v -0.77459 h 4.64733 v 0.77459 h 1.54916 v 1.54916 h -0.77458 v 0.77458 h -1.54916 v 0.77458 h 0.77458 v 3.87291 h -0.77458 l -0.77459,0.77458 h 1.54917 v 1.54902 h 1.54916 v 1.54916 h 0.77458 v 0.77458 h 3.09817 v 3.09816 h 0.77458 v 0.77458 l 0.77458,0.77458 v 0.77459 h 0.77458 v 6.970908 h -0.77458 v 0.77459 h -0.77458 v 0.77458 h -0.77458 v 1.54901 h -1.54916 v -0.77458 h -0.77458 v 0.77458 h -1.54901 v 0.77458 h -1.54916 v 1.54917 h -0.77458 v 0.77458 h -8.52009 v -0.77458 h -0.77458 v -0.77458 h -2.32374 v -0.77459 h -1.54901 v -1.54916 h -3.87291 v -0.77458 h -0.77442 v -0.77458 h -0.77458 v -1.549018 h -0.77458 v -0.77458 H 451.191 v -9.29449 h -0.77459 v -1.54902 h -0.77458 v -0.77458 h -1.54916 v -0.77458 h -1.54916 v 0.77458 h -3.09486 v 2.3236 h -2.32374 v 2.32374 h 2.32374 v 1.549 h -1.54916 v 0.77458 h 1.54916 v 1.54916 h -0.77458 v 0.77458 h -0.77458 v -0.77458 h -0.77458 v -1.54916 h -0.77459 v 1.54916 h 0.77459 v 1.54916 h 2.32374 l -0.77458,-0.77458 h 1.549 v 2.3236 h 0.77459 v 0.77458 h 0.77458 v 0.774578 h 1.54916 v 0.77458 h 0.77458 v 0.77459 h 0.77458 v 1.54916 h 1.54901 v 0.77458 h 0.77458 v 0.77458 h 0.77458 v 0.77458 l 0.77458,-0.77458 v 0.77458 h 3.87291 v 0.77458 h 0.77443 v 1.549 h 1.54916 v 0.77458 h 1.54916 v 0.77458 h 1.54916 v 0.77458 h 3.87275 v -0.77458 h 0.77459 v -0.77458 h 6.19649 v -0.77458 h 0.77458 v -0.77458 h 2.32359 v 0.77458 h 0.77458 l 0.77458,0.77458 h -0.77458 l 0.77458,0.77458 h -0.77458 v 2.32375 h -0.77458 v 0.77458 h -0.77442 v 0.77458 h -0.77459 v 0.77458 h -0.77458 v 0.77458 h -1.54916 v 2.32358 h -0.77458 v -0.77458 h -0.77458 v 3.87291 h 0.77458 v 1.54916 h -1.54917 v 0.77458 h -3.09816 v -0.77458 h -4.64734 v -1.54916 h -0.77458 v -1.54917 h 3.87275 v -0.77458 h -2.32374 v -0.77458 h -0.77443 v -0.77458 h -0.77458 v 1.54916 h -1.54916 v 0.77458 h -0.77458 v 0.77458 h -0.77458 v 2.32375 h -0.77458 v 1.54916 h 0.77458 v 0.77458 h -0.77458 v 0.77459 h -0.77443 v 0.77458 h -0.77458 v 0.77458 h -0.77458 v 0.77458 h -0.77458 v 1.54902 h -0.77458 v 0.77458 h -0.77459 v 0.77458 l -0.77458,0.77458 v 0.77458 h -0.77458 v 1.54917 h -0.77458 v 0.77458 h -0.77458 l 0.77458,0.77458 h -0.77458 v 1.54899 h -1.54901 v 0.77459 h -3.09832 v -1.549 h -2.32359 v -0.77458 h -0.77458 v -0.77458 h -3.09833 v 4.64732 h 0.77458 v 0.77458 h 0.77458 v 0.77458 h 1.54917 v 0.77458 h 0.77458 v 0.77458 h 0.77458 v 2.32375 h 0.77442 v 6.1965 h -0.77442 v 0.77459 h -0.77458 v 0.77458 h -1.54916 v -0.77458 h -0.77459 v 0.77458 h -0.77458 v -0.77458 h -3.87275 v 0.77458 h -3.09832 v 0.77458 h -1.54917 v 0.77458 h -0.77442 v -0.77458 h -1.54916 v -0.77458 h -1.54917 v -0.77458 h -1.549 v -0.77459 h -0.77458 v -0.77458 h -0.77459 L 423.31,149.49331 v -0.77458 h -3.87291 v -0.77458 h -2.32358 v 0.77458 h -0.77458 v -0.77458 h -2.32375 v -0.77458 h -2.32358 v -0.77458 h -1.54917 v -0.77459 h -0.77458 v -0.77458 h -1.54916 v -0.77458 h -1.54916 v -0.77458 h -1.54901 v -1.54916 h -0.77458 v -0.77459 h -0.77458 v -0.77458 h -0.77458 v -1.54901 h 0.77458 v -0.77458 h 0.77458 v 0.77458 h 3.09817 v -0.77458 h 0.77458 v -1.54917 h -0.77458 v -0.77458 h -0.77458 v -0.77458 h -1.54901 v 0.77458 h -0.77458 v 0.77458 h -0.77458 v -0.77458 h -0.77458 v -1.54916 h 0.77458 v -0.77458 h -0.77458 v -0.77459 h -0.77127 v -0.77458 h -0.77458 v -0.77458 h -1.54917 v -1.54899 h 0.77458 v -0.77459 h -1.54916 v -0.77458 h -0.77458 v -0.77458 h -0.77442 v -0.77458 h -0.77459 v -0.77458 h -1.54916 v -2.32375 h -0.77458 v -0.77458 h 0.77458 v -0.77458 h 3.09817 v -0.77458 h -0.77442 v -0.77458 h 2.32358 v 0.77458 h 0.77458 v -0.77458 h -0.77458 v -0.77458 h -2.32358 v -0.77459 h -1.54917 v -0.77458 h -1.54916 v -0.77458 h -1.54916 v -1.54901 h -0.77459 v -4.64749 h 1.54917 v -0.77456 h 0.77458 v -0.77459 h 1.54916 v -2.32359 h -0.77458 v -1.54917 h -0.77458 v -3.09815 h 0.77458 v 0.77458 h 1.54916 v 0.77458 h 0.77459 v -0.77458 h -0.77459 v -1.54917 h -0.77458 v -0.77458 h -0.77458 v -0.774578 h 0.77458 v -1.54902 h 0.77458 v -0.77458 h 0.77459 v -0.77458 h 0.77442 v -0.77458 h 1.54916 v 0.77458 h 0.77458 v 0.77458 h 1.54917 v 0.77458 h 1.549 v 0.77459 h 1.54917 v -0.77459 h 1.54916 v 0.77459 h 2.32359 l 0.77458,0.77458 h 0.77458 v -0.77458 h 3.87291 v 3.098178 h 2.32358 v 0.77458 h 1.54917 v -0.77458 h 0.77458 v 0.77458 h 1.54916 v -0.77458 h 0.77442 v -0.77459 h 3.09833 v 0.77459 h 0.77458 v 0.77458 h -0.77458 v 0.77458 h 0.77458 v 1.54916 h 1.54916 v 1.549 h 1.54917 v -2.32358 l -0.77458,-0.77458 h 2.32358 v 2.32357 h 0.77458 v -0.77458 h 0.77459 v -0.77458 h 0.77458 v -0.77458 h 0.77458 v -0.77458 h 0.77458 v -1.549 h -0.77458 v 1.549 h -0.77458 v -2.32358 h -0.77458 v -0.774578 h -0.77459 v 0.774578 h -0.77458 v -1.549158 h -0.77458 v -0.77458 h -0.77442 v -0.77458 h -0.77458 v -0.77459 h -1.54917 v -1.54901 h -0.77458 v -0.77458 h -1.54916 v -0.77458 h -0.77458 v -1.54917 h -0.77459 v -1.54916 h -0.77458 v -0.77458 l -0.77442,-0.77458 h 0.77442 v -3.09816 h -0.77442 v -0.77458 h 1.549 v 0.77458 h 0.77459 v -0.77458 h 0.77458 v 1.54899 h 1.54916 v -0.77458 h 2.32375 v -0.77458 h -3.09833 v -0.77458 h -0.77458 v -0.77459 h -0.77458 v -0.77458 h -1.54917 v -0.77458 h -1.549 v -0.77458 h 1.549 l 0.77458,0.77458 h 1.54917 v -0.77458 h 3.09832 v 0.77458 h 3.09817 v 0.77458 h 4.64733 v 0.77458 h 1.54917 v 0.77459 h 6.19334 v -0.77459 h 3.87275 v -0.77458 h 0.77458 v -1.54899 h 0.77458 v -0.77458 h -0.77458 v -0.77458 h 0.77458 v -1.54917 h 1.54916 v -0.77458 h 2.32359 v -0.77458 h 5.42207 v 0.77458 h 3.87275 v -0.77458 h 0.77458 v -0.77458 h 2.32359 v 0.77458 h 3.09833 v -0.77458 z m 2.32374,4.64749 h -0.77458 v 0.77458 h 0.77458 v 1.54901 h 1.54901 v -1.54901 h -1.54901 z m 381.82926,30.982458 h -0.7746 v 0.77458 h -0.7746 v -0.77458 h -1.5491 v 0.77458 h 1.5491 v 0.77458 h 0.7746 v 0.77458 h 0.7746 v 2.32375 h -0.7746 v -1.54916 h -0.7746 v -0.77459 h -0.7745 v -0.77458 h -0.7746 v 0.77458 h 0.7746 v 0.77459 h 0.7745 v 1.54916 h 0.7746 v 0.77458 h 1.549 v 0.77458 h -0.7744 v 0.77458 h 0.7744 v -0.77458 h 0.7746 v 2.32375 h 0.7746 v 1.54901 h 0.7746 v 0.77458 h 3.0981 v 1.54917 h 0.7746 v 0.77458 h -0.7746 v 0.77458 h 0.7746 v -0.77458 h 0.7746 v 1.54899 h 0.7746 v 0.77458 h 0.7746 v 0.77459 h 0.7746 v 1.54916 l 0.7745,0.77458 v -2.32374 h -0.7745 v -0.77459 h -0.7746 v -1.54899 h -0.7746 v -0.77458 h -0.7746 v -2.32375 h -0.7746 v -0.77458 h -3.0981 v -1.54901 h -0.7746 v -1.54917 h -0.7746 v -2.32374 l -0.7746,0.77458 v -0.77458 h -0.7746 v -2.32358 h 0.7746 v 1.549 h 0.7746 v -1.549 h -0.7746 v -0.77458 h -0.7746 v -0.77458 h -0.7744 z m -4.6475,1.54916 h -3.0982 v 0.77458 h -0.7745 v 0.77459 h 0.7745 v -0.77459 h 2.3236 v -0.77458 l 0.7746,0.77458 h -0.7746 v 0.77459 h 0.7746 z m -118.501,0.77458 h -0.7746 v 0.77459 h 0.7746 z m 89.842,-4.64732 v 0.77458 h 0.7745 z m 13.1674,-10.069388 h -0.7746 v 0.774578 h 0.7746 z m -21.6875,10.069388 h -0.7746 v 0.77458 h 0.7746 z m 31.7569,6.19649 h -0.7746 v 0.77458 h -0.7746 v -0.77458 h -0.7746 v 0.77458 h 0.7746 v 0.77458 h 0.7746 v -0.77458 h 0.7746 z m -11.6187,-15.49098 h -0.7746 v 0.77458 h 0.7746 z m 18.5896,14.71671 v 0.77458 h 0.7746 z m -17.8146,-12.39314 h -0.7746 v 0.77459 h 0.7746 z m -82.8745,-6.196478 h -0.7746 v 0.77458 h 0.7746 z m 77.4517,16.266038 h -0.7746 v 0.77459 h 0.7746 z m -10.8439,-6.97091 h -0.7746 v 0.77458 h 0.7746 z m 42.6008,20.1388 h -0.7746 v 0.77458 h 0.7746 z m -33.3063,-13.94232 h -2.3237 v 0.77458 h 2.3237 z m 13.9423,-6.97075 h -1.5491 v 1.54902 h 0.7746 v 0.77458 l 0.7745,0.77458 h 3.873 v 1.54916 h 1.549 v 0.77456 h 0.7746 v 0.77458 h 2.3237 v 0.77459 h 1.549 v -0.77459 h -0.7744 v -0.77458 h -2.3238 v -0.77456 h -0.7745 v -0.77458 h -1.5492 v -0.77458 h -0.7744 v -0.77458 h -3.0984 v -0.77458 h -0.7746 z m -12.3929,-11.618408 v -3.87291 l 0.7745,0.77459 h 0.7745 v 0.77458 h 0.7746 v 0.77458 h 2.3237 v 1.54916 h -0.7746 v 0.77458 h -1.5491 v -0.77458 h -0.7746 v 0.77458 h -0.7745 v -0.77458 z m -407.38576,-6.19648 v -1.54917 h 0.77442 v 0.77459 h 1.54916 v 0.77458 z M 530.9658,48.025822 h -0.77459 v -1.54902 h 2.32375 v 2.3236 h 0.77458 v 0.77458 l 0.77458,0.77458 v 1.54917 l 0.77458,0.77458 v 0.77458 h 1.54901 v 1.54899 h 0.77458 v 0.77459 h 0.77458 v 0.77458 h 0.77458 v 1.54916 h -0.77458 v 2.32375 h -0.77458 v 1.54916 h -0.77458 v 0.77458 h -0.77458 v 3.09818 h -0.77443 v 2.32374 l -0.77458,0.77459 v 0.77458 h -0.77458 v 1.54899 h -0.77458 v 0.77458 h -0.77458 v 1.54917 h -0.77458 v 0.77458 h -0.77459 v 0.77458 h -1.549 v 0.77458 h -0.77458 v 0.77458 h -0.77458 v 0.77458 h -1.54917 v 0.77459 h -1.549 v 0.77458 l -0.77458,-0.77458 v 0.77458 h -0.77459 v 0.77458 h -4.64749 v -0.77458 h -4.64733 v -0.77458 h -3.09817 v 0.77458 h -1.54916 v 0.77458 h -1.54916 v 0.77458 h -11.61872 v 0.77458 h -6.1965 v -3.87291 h -0.77458 v -0.77458 h -1.54916 v -0.77458 h -1.54585 v -1.54899 h -0.77458 v -2.32375 h -0.77459 v -1.54901 H 482.946 v -0.77459 h -0.77458 v -0.77458 h -0.77458 v -0.77458 h -0.77458 v -1.54916 l 0.77458,-0.77458 v 0.77458 h 3.87275 v 0.77458 h 0.77458 v 2.32374 h 0.77458 v 0.77459 h 2.32359 v 0.77458 h 0.77458 v 0.77458 h 3.09832 v -0.77458 h 1.54917 v -1.54917 h 0.77442 v -1.54916 h 0.77443 v -0.77458 h -0.77443 v -0.77458 h -0.77442 v 2.32374 h -0.77458 v -3.09832 h -0.77459 v -0.77459 h 0.77459 v -0.77458 h 0.77458 v -1.54899 h 1.549 v -0.77458 h 3.09833 v -0.77458 h 0.77458 v -0.77459 h 0.77458 v -0.77458 h 0.77442 v -0.77458 h 0.77459 v -0.77458 h 2.32374 v -0.77458 h 0.77458 v 1.54916 h 0.77458 v 1.549 h 1.54901 v 0.77458 h 0.77458 v 3.09832 h -0.77458 v 0.77458 h -0.77458 v 1.54917 h -0.77443 v -0.77458 h -0.77458 v 1.54901 h 0.77458 l 0.77443,-0.77458 v 0.77458 h 0.77458 l -0.77458,-0.77458 h 0.77458 v -1.54902 h 0.77458 v -0.77458 h 0.77458 v -1.54916 h 2.32375 v -0.77458 h 1.54916 v -1.54916 h 0.77458 v -0.77459 h -0.77458 v -0.77458 h 0.77458 v -0.77458 h 0.77443 v -0.77458 h -0.77443 v -0.77458 h 0.77443 v -1.549 h 0.77458 v -0.77458 h 1.54916 v -0.77458 h 2.32375 v -0.77458 h 1.549 v -0.77458 h 0.77458 v -0.77459 h 0.77458 v -0.77458 h 3.86644 v 0.77458 h 4.64734 v -2.32374 z m 236.22054,24.78612 v -0.77458 h 0.7746 v 0.77458 h 3.0983 v 1.54902 h -0.7746 v 1.54916 h -2.3237 v -1.54916 h -0.7746 v -0.77458 h -1.549 v 0.77458 h -0.7746 v -0.77458 h 0.7746 v -0.77458 h 0.7744 z m 10.8438,-9.29449 v -0.77458 h 1.549 v 0.77458 h 2.3238 v 0.77458 h -3.0982 v 0.77458 h -0.7746 v -0.77458 h -0.7745 v -0.77458 z M 463.5832,9.2948492 v -0.774582 h 0.77458 v 0.774582 h 0.77442 v 1.5489948 h 0.77458 v 0.774581 h 0.77458 v 0.774582 h -0.77458 v 0.774581 h -1.549 v 1.549164 h -0.77458 v 1.549015 h -0.77459 v 0.774582 h -0.77458 v 0.774582 h -0.77458 v -2.323598 h 0.77458 l -0.77458,-0.774581 h 0.77458 v -1.549164 h -0.77458 v -0.774581 h 0.77458 v -1.548995 h 0.77458 V 10.06943 h 0.77459 l -0.77459,-0.7745808 z m 44.14988,-6.971087 V 1.7241211e-5 h 2.32375 V 0.77459924 h 1.54916 V 2.3237622 Z"
     style="clip-rule:evenodd;fill:#000000;fill-rule:nonzero;stroke:none;stroke-width:1.61384px"
     id="path1244" />
</svg>
