<?xml version="1.0" encoding="UTF-8" standalone="no"?>
<svg
   xmlns:dc="http://purl.org/dc/elements/1.1/"
   xmlns:cc="http://creativecommons.org/ns#"
   xmlns:rdf="http://www.w3.org/1999/02/22-rdf-syntax-ns#"
   xmlns:svg="http://www.w3.org/2000/svg"
   xmlns="http://www.w3.org/2000/svg"
   xmlns:sodipodi="http://sodipodi.sourceforge.net/DTD/sodipodi-0.dtd"
   xmlns:inkscape="http://www.inkscape.org/namespaces/inkscape"
   version="1.0"
   width="1024pt"
   height="1024pt"
   viewBox="0 0 1024 1024"
   preserveAspectRatio="xMidYMid meet"
   id="svg2211"
   sodipodi:docname="vector.svg"
   inkscape:version="1.0.2-2 (e86c870879, 2021-01-15)">
  <defs
     id="defs2215" />
  <sodipodi:namedview
     pagecolor="#ffffff"
     bordercolor="#666666"
     borderopacity="1"
     objecttolerance="10"
     gridtolerance="10"
     guidetolerance="10"
     inkscape:pageopacity="0"
     inkscape:pageshadow="2"
     inkscape:window-width="1366"
     inkscape:window-height="697"
     id="namedview2213"
     showgrid="false"
     inkscape:zoom="0.1940918"
     inkscape:cx="1266.7524"
     inkscape:cy="760.26375"
     inkscape:window-x="-8"
     inkscape:window-y="-8"
     inkscape:window-maximized="1"
     inkscape:current-layer="svg2211"
     fit-margin-top="0"
     fit-margin-left="0"
     fit-margin-right="0"
     fit-margin-bottom="0" />
  <metadata
     id="metadata2205">
Created by potrace 1.10, written by Peter Selinger 2001-2011
<rdf:RDF>
  <cc:Work
     rdf:about="">
    <dc:format>image/svg+xml</dc:format>
    <dc:type
       rdf:resource="http://purl.org/dc/dcmitype/StillImage" />
    <dc:title></dc:title>
  </cc:Work>
</rdf:RDF>
</metadata>
  <path
     d="m 315.12443,78.765065 v -19.69277 z m 9.84638,9.84638 v -9.84638 h -9.84638 9.84638 z m -9.84638,-39.38554 v 9.84639 h -19.69277 v -9.84639 h -39.38354 v -9.84639 9.84639 -9.84639 h -9.84639 v 9.84639 -9.84639 9.84639 -9.84639 h -39.38554 v -9.84638 h -9.84639 v -9.84639 9.84639 -9.84639 9.84639 h 39.38555 v 9.84638 -9.84638 9.84638 h 29.53715 v 9.84639 -9.84639 9.84639 -9.84639 9.84639 z m 9.84638,39.38554 v -9.84638 z m 29.53715,39.385645 h -9.84638 v -9.84639 9.84639 -9.84639 h -9.84639 9.84639 -9.84639 9.84639 -9.84639 9.84639 l -9.84639,-9.84649 h 9.84639 v 9.84649 h 9.84638 v 9.84639 -9.84639 z m 29.53916,59.07617 v -9.84638 z m -9.84639,-29.53915 v 9.84638 h 9.84639 -9.84639 9.84639 v 9.84639 -9.84639 h -9.84639 z m 0,-19.69064 v 9.84639 -9.84639 h -9.84638 9.84638 l -9.84638,-9.84638 z m 19.69077,49.22979 h -9.84639 z m 423.34443,157.53815 -9.84639,9.84639 h 9.84639 -9.84639 v 9.84637 h -9.84638 v 9.8464 h -9.84639 v 9.8464 h -9.84638 l 9.84638,9.8464 h -9.84638 v 19.6927 h 9.84638 v 19.6909 h -9.84638 9.84638 v 19.6928 l -9.84638,9.8464 v 19.6906 H 768.004 v 49.232 h -9.84639 v 49.23 h 9.84639 v 9.8464 h 9.84639 v 9.8464 h -19.69278 v 9.8464 h -9.84638 v 29.5391 H 768.004 v 9.8464 h 9.84639 v 9.8464 h 9.84638 v 19.6906 h 9.84639 v 59.0783 h 9.84638 v 9.8464 h 9.84639 v 9.8464 h 9.84638 v 9.8464 h -9.84638 v 9.8464 h -9.84639 v 9.8464 h -9.84638 v 9.8463 l -9.84639,9.8464 v 9.8464 h -9.84638 19.69076 -9.84639 v 19.6909 l -9.84638,9.8464 v 9.8464 h -9.84639 v 39.3855 h -9.84638 v 9.8464 -9.8464 l -9.84639,9.8464 v -9.8464 9.8464 l -19.69076,19.6906 h -19.69277 l 9.84638,9.8464 h -9.84638 v -9.8464 h -29.53916 v -9.8463 h -9.84638 v -9.8464 9.8464 -9.8464 h -19.69277 v 9.8464 -9.8464 l -9.84639,9.8464 v 9.8463 h -19.69076 v 9.8464 h -9.84639 v -9.8464 9.8464 h -9.84638 v -9.8464 9.8464 h -9.84639 v -9.8464 h -9.84638 v 9.8464 h -9.84639 v 9.8464 h -29.53915 v 9.8464 h -9.84639 v 9.8464 H 512.002 v 19.6927 h -9.84639 v 9.8464 h -9.84639 v 9.84643 h -9.84638 v 9.8464 L 472.61645,1024 v -9.8464 h -9.84638 v -19.69283 l -9.84639,-9.8464 v -19.6906 h -9.84638 v -9.8464 l -9.84639,-9.8464 v -9.8463 l -9.84638,-19.6928 v -9.8464 l -9.84639,-9.8464 v -19.6909 l -19.69277,-19.6927 v -19.6928 l -9.84638,-9.8464 v -19.6906 l -9.84639,-9.8464 -9.84638,-19.6928 v -9.8464 l -9.84639,-9.8464 v -9.8463 l -9.84638,-39.3837 h -9.84639 v -19.6928 l -9.84638,-9.8464 v -9.8464 l -9.84639,-9.8463 v -19.6928 l -9.84638,-9.8464 v -19.6906 l -9.84639,-9.8464 v -29.5392 l -9.84638,-29.5373 v -19.6927 l -9.84639,-9.8464 v -29.537 l -9.84638,-9.8464 v -29.5392 l -9.84639,-9.8464 v -29.5391 l -9.84639,-9.8464 v -39.38366 l -9.84638,-9.84639 v -59.07617 h -9.84639 v -68.92469 l -9.84639,-9.84639 v -49.23005 h -9.84638 v -49.2299 l -9.84639,-9.846375 v -19.69277 h 29.53716 v 9.84638 h 9.84638 -9.84638 9.84638 v 19.690765 -9.846385 9.846385 -9.846385 h 9.84639 v 9.846385 h 19.69277 v -9.846385 h 29.53715 v 19.692745 h -9.84638 v 19.69089 -9.84638 9.84638 h 9.84638 v 9.84639 -9.84639 9.84639 h 29.53916 v 9.84638 h 9.84638 v 9.84639 h 9.84639 v 9.84638 h 9.84638 v 9.84639 -9.84639 9.84639 -9.84639 h 9.84639 v 9.84639 h 9.84638 -9.84638 v 9.84639 h 9.84638 l 9.84639,9.84638 h -9.84639 9.84639 v -19.6909 h 9.84638 v 19.6909 h 9.84639 v 9.84639 -9.84639 9.84639 -9.84639 9.84639 h 9.84638 -9.84638 v -9.84639 9.84639 -9.84639 h -9.84639 v -19.6909 h -9.84638 9.84638 -9.84638 v -29.53915 h -9.84639 v -9.84639 9.84639 -9.84639 h 9.84639 -9.84639 V 128.0011 h -19.69277 v -9.84639 9.84639 -9.84639 h -9.84638 9.84638 -9.84638 V 98.461845 h 19.69277 v -9.84639 h 9.84638 v -29.53915 h -39.38554 v 9.84638 h -9.84638 v 9.84639 h -9.84639 v -29.53715 h 78.77108 v -9.84639 h 19.69277 v -9.84638 h 9.84639 -9.84639 9.84639 v -9.84639 9.84639 -9.84639 h 9.84638 V 9.8463847 h 19.69077 V -5.2587875e-6 h 9.84638 -9.84638 49.22992 V 9.8463847 H 492.3012 V 29.537145 h 9.84639 v 29.53916 h 9.84638 v 9.84638 h 9.84639 v 19.69277 h 9.84638 -9.84638 v 39.383505 h 9.84638 v 9.84639 -9.84639 19.69277 h 19.69277 v 9.84639 h 9.84639 v 9.84638 h 9.84639 v 9.84639 h 29.53915 v 9.84638 -9.84638 9.84638 h 19.69077 v 9.84639 -9.84639 9.84639 h 59.0763 v 9.84638 -9.84638 9.84638 -9.84638 9.84638 h 49.22992 v 9.84639 -9.84639 9.84639 -9.84639 9.84639 -9.84639 9.84639 h 29.53916 l 9.84638,9.84638 h -9.84638 9.84638 -9.84638 v 9.84639 -9.84639 9.84639 -9.84639 h -19.69277 v -9.84638 H 689.2249 v 9.84638 -9.84638 9.84638 -9.84638 h -19.69077 v -9.84639 h -29.53915 v -9.84638 9.84638 -9.84638 9.84638 -9.84638 9.84638 -9.84638 h -29.53715 v -9.84639 h -29.53916 v -9.84638 H 561.2259 v -9.84639 h -19.69077 v 9.84639 -9.84639 h 9.84639 v 9.84639 h -9.84639 v 9.84638 -9.84638 19.6909 h 9.84639 -9.84639 9.84639 -9.84639 9.84639 v 39.38554 h 9.84639 v 9.84638 -9.84638 9.84638 h 9.84638 v 19.69277 h -9.84638 v 9.84639 h -9.84639 9.84639 -9.84639 v 19.69063 h 9.84639 v 39.38554 -9.84639 9.84639 h 9.84638 -9.84638 9.84638 -9.84638 v 9.84638 h 9.84638 v 9.84639 h 9.84639 v 9.84636 h 9.84638 v 9.8464 -9.8464 19.6928 h 9.84639 v 9.8464 -9.8464 9.8464 h 19.69076 v -9.8464 h 9.84639 v -9.8464 9.8464 -9.8464 h 9.84638 v -9.8464 h 19.69277 v -9.84636 h 19.69277 v -9.84639 h 9.84639 v -9.84638 h 19.69277 v -9.84639 h 9.84638 v -9.84638 h 9.84639 -9.84639 9.84639 -9.84639 19.69077 v -9.84639 h 9.84638 v 9.84639 h 9.84639 -9.84639 v 9.84638 h -9.84638 9.84638 v 9.84639 -9.84639 19.6909 -19.6909 h 9.84639 v 9.84639 h 19.69277 v -9.84639 h 19.69076 v 9.84639 h 9.84639 v 9.84638 z"
     style="clip-rule:evenodd;fill:#000000;fill-rule:nonzero;stroke:none;stroke-width:20.515px"
     id="path1308" />
</svg>
