<?xml version="1.0" encoding="UTF-8" standalone="no"?>
<svg
   xmlns:dc="http://purl.org/dc/elements/1.1/"
   xmlns:cc="http://creativecommons.org/ns#"
   xmlns:rdf="http://www.w3.org/1999/02/22-rdf-syntax-ns#"
   xmlns:svg="http://www.w3.org/2000/svg"
   xmlns="http://www.w3.org/2000/svg"
   xmlns:sodipodi="http://sodipodi.sourceforge.net/DTD/sodipodi-0.dtd"
   xmlns:inkscape="http://www.inkscape.org/namespaces/inkscape"
   version="1.0"
   width="1024pt"
   height="1024pt"
   viewBox="0 0 1024 1024"
   preserveAspectRatio="xMidYMid meet"
   id="svg2211"
   sodipodi:docname="vector.svg"
   inkscape:version="1.0.2-2 (e86c870879, 2021-01-15)">
  <defs
     id="defs2215" />
  <sodipodi:namedview
     pagecolor="#ffffff"
     bordercolor="#666666"
     borderopacity="1"
     objecttolerance="10"
     gridtolerance="10"
     guidetolerance="10"
     inkscape:pageopacity="0"
     inkscape:pageshadow="2"
     inkscape:window-width="1366"
     inkscape:window-height="697"
     id="namedview2213"
     showgrid="false"
     inkscape:zoom="0.1940918"
     inkscape:cx="1266.7524"
     inkscape:cy="760.26375"
     inkscape:window-x="-8"
     inkscape:window-y="-8"
     inkscape:window-maximized="1"
     inkscape:current-layer="svg2211"
     fit-margin-top="0"
     fit-margin-left="0"
     fit-margin-right="0"
     fit-margin-bottom="0" />
  <metadata
     id="metadata2205">
Created by potrace 1.10, written by Peter Selinger 2001-2011
<rdf:RDF>
  <cc:Work
     rdf:about="">
    <dc:format>image/svg+xml</dc:format>
    <dc:type
       rdf:resource="http://purl.org/dc/dcmitype/StillImage" />
    <dc:title></dc:title>
  </cc:Work>
</rdf:RDF>
</metadata>
  <path
     d="m 990.96645,459.14568 v 46.2473 l -6.60697,13.214 v 13.2139 l -6.60697,6.607 v 26.4266 l -6.60697,6.607 v 13.2139 l -6.60698,6.607 h -6.60697 l 6.60697,13.214 13.21395,13.2125 13.2126,6.6069 v 6.607 l -6.60697,13.214 6.60697,13.2126 13.21389,13.214 13.214,6.607 6.607,6.6069 -6.607,26.4265 -6.607,19.8209 v 19.8209 l -6.607,13.214 -13.21389,6.6057 -6.60697,13.2139 -6.60698,13.214 -26.42654,13.2139 -6.60697,6.6056 -6.60697,13.2139 -6.60698,6.607 h -6.60697 l -6.60697,6.6069 -13.21395,-6.6069 -19.81957,6.6069 -13.21394,-6.6069 h -13.2126 l -13.21395,6.6069 v 26.4279 l -13.21394,6.607 -13.21395,-19.8209 v -13.214 l -6.60697,-6.6069 h -19.81957 l -13.21395,-6.607 -19.81957,-6.607 v -19.8195 l -6.60697,-19.8209 -13.21395,-13.2139 h -13.21394 l -6.60697,-6.6057 -6.60697,-13.214 -6.60698,-6.6069 v 19.8209 l -13.2126,-13.214 -6.60697,-13.2139 -6.60697,-6.607 h -13.21395 l -19.8209,6.607 -13.18568,6.607 -13.2126,6.6069 H 607.7984 v -6.6069 l -13.21394,-19.821 -13.2126,-39.6404 v -6.6069 h -26.42789 v 13.2139 l 13.21394,13.2125 v 19.8209 h -13.21394 l -13.2126,-19.8209 -6.60697,-13.2125 v -6.607 h -19.82092 l -6.60697,6.607 v 19.8195 l -6.60697,6.607 -6.60698,13.2139 -6.60697,6.607 -6.60697,6.607 h -13.21395 l -13.2126,-39.6419 -19.82091,-6.6055 h -13.2126 l -13.21395,6.6055 h -13.2126 l -6.60697,6.607 -6.60697,19.8209 -6.60697,26.4279 6.60697,19.8197 -13.21395,6.6069 -6.60697,13.214 v 19.8195 l -19.82092,13.2139 -13.21259,6.607 v 13.2139 l 13.21259,6.607 h 6.60698 l 6.60697,13.2139 -6.60697,6.607 h -6.60698 l 13.21395,13.2127 6.60697,13.2139 6.60697,13.214 -6.60697,19.8195 -19.82092,6.6069 -26.42654,13.214 h -6.60697 l -13.21395,-6.607 v -19.8209 l -6.60697,-6.607 h -26.39963 l -13.21395,-19.8195 h -13.2126 l -19.82091,13.214 -13.2126,-13.214 v -19.8209 l -6.60697,-6.6057 h -19.82092 l -6.60697,6.6057 -6.60698,6.607 v 19.8209 l -6.60697,6.607 h -19.81957 v -19.8209 l -6.60697,-13.214 -6.60698,-6.6057 -13.21394,-6.607 H 79.28232 l -6.60697,-13.2139 -6.60697,-13.214 -13.21395,-13.2139 v -13.2139 l -6.60697,-6.6056 h -6.60697 l -13.2126,-6.607 6.60697,-6.6069 v -19.8209 l -6.60697,-13.2127 H 13.21394 L -2.5878899e-7,756.45258 v -13.2139 L 19.82092,730.02468 h 39.64049 l 13.21394,-13.2139 6.60697,-13.214 v -13.2125 l 13.2126,-13.2139 6.60697,-6.607 13.21395,-13.214 19.82092,-13.2126 6.60697,-13.214 26.42654,-13.2139 v -13.2125 l 6.60698,-13.214 v -6.607 l 13.21394,-6.6069 h 6.60697 l 13.2126,-6.607 v -13.2139 l 6.60697,-13.214 v -13.2127 l -6.60697,-13.2139 6.60697,-6.607 -6.60697,-19.8195 6.60697,-13.2139 -6.60697,-6.607 -26.42654,-13.2139 v -19.821 l 6.60697,-6.6069 6.60697,-13.2127 13.2126,-6.607 6.60697,-6.607 6.60698,-13.2139 v -52.8544 l 6.60697,-6.6069 v -19.8197 l 6.60697,-19.8209 13.21395,-13.214 6.60697,-26.4264 -6.60697,-13.214 v -19.8196 l -13.21395,-6.607 -19.81957,-6.607 v -13.2139 h 13.2126 l 13.21394,-6.607 h 13.2126 l 26.42789,-13.2139 19.82092,6.607 6.60697,6.6069 6.60698,6.607 19.81957,13.2139 19.82091,6.607 h 13.2126 l 13.21395,6.607 h 39.64049 l 6.60697,6.607 6.60697,6.6057 6.60698,-6.6057 h 6.60697 l 6.60697,-6.607 v -6.607 l 6.60697,-6.607 h -6.60697 l -6.60697,-6.6069 v -6.607 h -6.60697 v -13.2139 l 6.60697,-6.607 h 13.21394 l 6.60697,6.607 6.60698,-6.607 v -6.607 l -6.60698,-6.6055 h -13.21394 v -13.214 h 6.60697 l 6.60697,6.607 h 6.60698 l 6.60697,-6.607 v -13.2139 l -6.60697,-6.607 h -6.60698 v -6.607 h 33.03352 v -6.6057 l 6.60697,-6.607 V 95.771485 l 6.60698,-13.2139 v -6.607 l 13.21394,-6.607 v 46.248795 l 6.60697,13.2127 6.60698,6.607 6.60697,6.607 h 6.60697 v 6.6069 l -6.60697,6.607 v 13.2125 l 6.60697,6.607 h 19.81957 l 6.60697,-6.607 h 13.21395 l 6.60697,6.607 v 6.607 l 6.60697,6.6069 v 19.8209 h 6.58006 l 13.2126,-6.6069 6.60698,6.6069 v 39.6406 h -13.2126 l -6.60698,13.214 -13.21394,19.8194 h 6.60697 v 6.607 l 13.21395,-13.2125 6.60697,6.6055 v 13.214 l 6.60697,6.607 6.60697,6.6069 13.2126,-19.8209 19.8209,-6.607 h 26.42655 l 6.60697,-13.2125 13.21394,6.607 6.60698,13.2125 -13.21395,13.214 -6.60697,13.2139 v 19.8197 l 13.21394,-6.607 v -6.607 l 13.21395,-13.2127 h 6.60697 l 6.60697,6.607 v 6.6057 l 6.60698,6.607 19.81957,-6.607 h 6.60697 l 6.60697,6.607 h -6.60697 l 6.60697,13.2139 6.60697,6.607 h 6.60698 v 6.607 l -6.60698,6.607 -6.60697,6.6069 6.60697,13.214 6.60698,13.2125 v 33.0348 h 6.60697 l 6.60697,6.6058 19.82092,19.8209 13.2126,6.607 h 6.60697 v 6.6069 h 19.82092 v -6.6069 h 13.2126 l 6.60697,-6.607 h 26.42789 l 6.60697,-6.607 v 6.607 h 6.60698 l 6.60697,6.607 v 6.6069 h 6.60697 v -6.6069 l -6.60697,-6.607 -6.60697,-6.607 v -6.607 l 13.21394,6.607 6.60697,6.607 13.2126,-6.607 h 13.18569 v 13.214 l 19.82092,-6.607 z"
     style="clip-rule:evenodd;fill:#000000;fill-rule:nonzero;stroke:none;stroke-width:13.7656px"
     id="path1372" />
</svg>
