<?xml version="1.0" encoding="UTF-8" standalone="no"?>
<svg
   xmlns:dc="http://purl.org/dc/elements/1.1/"
   xmlns:cc="http://creativecommons.org/ns#"
   xmlns:rdf="http://www.w3.org/1999/02/22-rdf-syntax-ns#"
   xmlns:svg="http://www.w3.org/2000/svg"
   xmlns="http://www.w3.org/2000/svg"
   xmlns:sodipodi="http://sodipodi.sourceforge.net/DTD/sodipodi-0.dtd"
   xmlns:inkscape="http://www.inkscape.org/namespaces/inkscape"
   version="1.0"
   width="1024pt"
   height="1024pt"
   viewBox="0 0 1024 1024"
   preserveAspectRatio="xMidYMid meet"
   id="svg2211"
   sodipodi:docname="vector.svg"
   inkscape:version="1.0.2-2 (e86c870879, 2021-01-15)">
  <defs
     id="defs2215" />
  <sodipodi:namedview
     pagecolor="#ffffff"
     bordercolor="#666666"
     borderopacity="1"
     objecttolerance="10"
     gridtolerance="10"
     guidetolerance="10"
     inkscape:pageopacity="0"
     inkscape:pageshadow="2"
     inkscape:window-width="1366"
     inkscape:window-height="697"
     id="namedview2213"
     showgrid="false"
     inkscape:zoom="0.1940918"
     inkscape:cx="1052.9361"
     inkscape:cy="760.26375"
     inkscape:window-x="-8"
     inkscape:window-y="-8"
     inkscape:window-maximized="1"
     inkscape:current-layer="svg2211"
     fit-margin-top="0"
     fit-margin-left="0"
     fit-margin-right="0"
     fit-margin-bottom="0" />
  <metadata
     id="metadata2205">
Created by potrace 1.10, written by Peter Selinger 2001-2011
<rdf:RDF>
  <cc:Work
     rdf:about="">
    <dc:format>image/svg+xml</dc:format>
    <dc:type
       rdf:resource="http://purl.org/dc/dcmitype/StillImage" />
    <dc:title></dc:title>
  </cc:Work>
</rdf:RDF>
</metadata>
  <path
     d="m 597.32722,42.66545 6.09523,6.09525 6.09524,6.094 h 6.09525 v 6.09524 l 6.09524,12.19049 -6.09524,6.09525 -6.09525,12.19049 v 30.47499 l 6.09525,12.19049 h 6.09524 l 12.19049,-12.19049 h 6.09525 l 6.09524,-6.09525 h 12.18923 l 6.0953,6.09525 v 12.19049 h 6.0952 l 12.1905,24.37973 6.0952,6.09525 v 24.38096 l -6.0952,6.09525 -6.0952,6.094 -6.0953,6.09525 v 24.38101 l 6.0953,6.09525 v 12.19049 l 6.0952,6.09524 6.0952,6.09392 6.0953,6.09525 v 12.19049 l 6.0952,6.09525 12.1893,-6.09525 h 12.1905 v 12.19049 l 6.0952,6.09525 6.0953,6.09408 12.1904,12.19049 6.0953,12.19049 6.0952,6.09525 6.0704,6.0952 6.0953,6.094 6.0952,12.1905 6.0953,6.0952 v 6.0952 l 6.0952,12.1905 6.0952,6.0953 v 6.0952 l 6.0953,6.0953 v 6.0941 l 6.0952,12.1904 h 6.0953 v 18.2858 l 6.0952,6.0952 6.0953,12.1892 6.0952,6.0952 v 18.2858 l -6.0952,6.0952 h -6.0953 l -12.1905,12.1905 -12.1905,6.0953 -6.0952,12.1893 6.0952,6.0952 v 6.0953 l 12.1905,6.0952 6.0953,6.0953 6.0952,6.0939 h 6.0953 v 6.0952 l 6.0952,12.1905 h 6.0953 l 6.0952,-6.0952 h 18.2857 v 12.1905 l 6.0953,6.0952 v 12.1893 l 12.1893,12.1905 h 6.0953 l 6.0952,12.1905 v 36.5702 l 12.1905,6.0952 h 6.0952 v 42.6656 l 6.0953,6.0952 6.0952,6.0953 v 18.2857 l 6.0953,6.0953 h 6.0952 v -12.1905 h 18.2858 l 6.0952,12.1905 6.0953,12.1904 h -6.0953 l -6.0952,6.094 -6.0953,6.0952 v 18.2857 h 18.2844 l 6.0953,12.1905 v 30.4751 l -6.0953,6.0952 6.0953,18.2845 6.0952,12.1904 6.0953,12.1905 v 18.2858 l -6.0953,12.1893 v 12.1905 l -12.1891,6.0952 -12.1905,12.1905 -6.0953,12.1892 -6.0952,6.0952 -12.1894,-6.0952 -6.0952,-12.1892 -6.0953,-6.0952 h -18.2857 l -12.1905,6.0952 h -6.0952 l -12.1892,-12.1905 -6.0952,-6.0952 v -6.0952 l -6.0953,-6.0953 -12.1905,-6.0941 -12.1893,-6.0952 -6.0952,-6.0953 -12.1905,-6.0952 v -6.0953 l -6.0953,-6.0952 -6.0952,-12.1905 -6.0953,-12.1905 -6.0952,-12.1892 v -6.0952 l -24.381,-12.1905 -6.0952,6.0953 h -24.3797 l -6.0953,6.0952 -12.1905,6.0952 -6.0952,6.0953 h -12.1893 l -6.0952,-12.1905 h -18.2857 l -6.0953,-6.0952 v -6.0953 h -6.0952 l -12.18928,-6.0952 -12.19049,6.0952 -6.09525,6.0953 h -6.09525 l -6.09524,6.0952 v -6.0952 l -6.09525,-6.0953 h -12.19049 l -6.09522,-6.0952 h -6.09525 v -6.0953 h -12.19049 v 6.0953 l 6.09524,18.2857 v 30.4749 l -6.09524,6.0952 -6.09525,12.1905 v 18.2858 l 6.09525,6.0952 v 6.0941 l -6.09525,12.1905 -6.09524,-6.0952 h -6.09525 l -6.09524,-6.0953 -12.18925,6.0953 v 6.0952 h -6.09525 l -6.09524,12.1905 v 12.1905 l -12.19049,12.1891 -12.18925,6.0953 -24.38098,12.1905 -24.35491,6.0952 h -18.28574 l -6.09524,6.0953 -6.09525,12.2153 -12.18925,6.0952 h -30.47498 l -12.19049,-12.1905 H 347.4321 l -12.18925,6.0953 h -6.09525 l -12.19049,6.0952 -6.09524,6.09531 h -18.2845 l -6.09524,6.0952 -12.19049,6.0953 -12.19049,6.0941 h -6.09525 l -6.09524,-6.0941 -12.19049,-12.1905 h -12.18925 l -6.09525,-6.09531 -12.19049,-12.1905 h -24.37974 l -12.19049,-6.0952 -6.09524,-6.0952 v -12.1905 l -12.18925,-24.3797 -6.09525,-6.0952 -6.09524,-18.2846 h -6.09525 l -18.26091,6.0952 v -24.381 h 6.09525 v -6.0952 h -12.19049 v -6.0952 h -6.09525 v -6.0953 l -12.189245,-12.1905 h -18.28573 l -6.09525,-6.0952 v -12.1892 h -6.09524 l -6.09525,-6.0952 h 6.09525 v -24.3799 h -6.09525 v -18.2857 l 6.09525,-6.0952 h -6.09525 l 12.19049,-12.1905 v -6.094 l 6.09525,-6.0952 h 6.09524 l -6.09524,-6.0952 v -6.0953 h -6.09525 6.09525 v -6.0952 h -6.09525 v -12.1905 l -6.09524,-6.0953 h -12.19049 v -6.0952 h -6.09525 v -12.1893 l -6.09524,-6.0953 v -12.1905 h 6.09524 v -12.1905 l 6.09525,-6.0952 6.09524,6.0952 h 6.09525 l 12.19049,-12.1891 12.18925,-6.0953 h 24.380975 l 12.19049,-18.2857 6.09524,-12.1905 v -24.3798 l 6.09525,-12.1905 6.09524,-6.0953 18.28574,-18.2857 v -12.1892 l 6.09525,-6.0952 h 6.09524 l 12.18925,-6.0953 v -12.1904 l 6.09524,-12.1894 6.09525,-12.1905 h 30.47498 v -18.2857 l 6.09525,-6.0953 12.19049,6.0953 v 12.1905 h 6.09525 l 6.09524,-6.0953 v -18.2857 l -6.09524,-6.0952 -6.09525,-12.1892 6.09525,-6.0953 v -6.0952 l 6.09524,-12.1905 -12.19049,-6.0952 v -24.3799 l 6.09525,-12.1904 6.09524,-6.0953 h 6.09525 v -30.4749 l 6.09524,-6.0952 18.28574,-12.1905 6.09524,6.0952 v 18.2844 h 12.18925 l 6.09525,-6.0939 v -18.2857 h 6.09524 l 12.19049,-6.0953 6.09525,-6.09522 -6.09525,-12.18933 6.09525,-12.19049 v -6.09525 l -12.19049,-6.09524 h -24.37974 l -6.09525,-6.09525 -6.09524,-18.28441 -6.09525,-12.21532 v -12.19049 l 6.09525,-6.09524 6.09524,-12.19049 h 12.18925 l 6.09525,6.09524 h 6.09524 l 12.19049,-6.09524 6.09525,-6.09525 6.09524,-12.19052 -6.09524,-12.18925 -6.09525,-6.09525 -6.09524,-12.19049 v -6.09524 l 12.19049,-6.09523 h 6.09524 l 12.18925,-6.09525 v -12.18924 l 6.09525,-12.19049 6.09524,-6.09525 12.19049,-6.09524 6.09525,-12.1905 12.18925,-18.28449 6.09524,-18.28574 V 54.8547 l 6.09525,-6.094 12.19049,6.094 6.09524,6.09524 12.16442,12.19049 12.19049,12.1905 v 18.28449 l 6.09525,6.09524 h 24.37974 v -6.09524 l -6.09525,-6.09525 V 73.14043 L 499.81074,60.94994 V 54.8547 L 511.99999,36.57021 V 18.28447 L 505.90475,6.0952197 V -2.0258788e-5 h 12.19049 L 530.28573,6.0952197 h 18.28449 l 12.19049,6.0952503 v 12.18924 l 6.09525,18.28574 h 12.18925 l 6.09524,-6.09524 6.09525,-6.09525 h 6.09524 z"
     style="clip-rule:evenodd;fill:#000000;fill-rule:nonzero;stroke:none;stroke-width:12.6995px"
     id="path1302" />
</svg>
