<?xml version="1.0" encoding="UTF-8" standalone="no"?>
<svg
   xmlns:dc="http://purl.org/dc/elements/1.1/"
   xmlns:cc="http://creativecommons.org/ns#"
   xmlns:rdf="http://www.w3.org/1999/02/22-rdf-syntax-ns#"
   xmlns:svg="http://www.w3.org/2000/svg"
   xmlns="http://www.w3.org/2000/svg"
   xmlns:sodipodi="http://sodipodi.sourceforge.net/DTD/sodipodi-0.dtd"
   xmlns:inkscape="http://www.inkscape.org/namespaces/inkscape"
   version="1.0"
   width="1024pt"
   height="1024pt"
   viewBox="0 0 1024 1024"
   preserveAspectRatio="xMidYMid meet"
   id="svg2211"
   sodipodi:docname="vector.svg"
   inkscape:version="1.0.2-2 (e86c870879, 2021-01-15)">
  <defs
     id="defs2215" />
  <sodipodi:namedview
     pagecolor="#ffffff"
     bordercolor="#666666"
     borderopacity="1"
     objecttolerance="10"
     gridtolerance="10"
     guidetolerance="10"
     inkscape:pageopacity="0"
     inkscape:pageshadow="2"
     inkscape:window-width="1366"
     inkscape:window-height="697"
     id="namedview2213"
     showgrid="false"
     inkscape:zoom="0.1940918"
     inkscape:cx="1266.7524"
     inkscape:cy="760.26375"
     inkscape:window-x="-8"
     inkscape:window-y="-8"
     inkscape:window-maximized="1"
     inkscape:current-layer="svg2211"
     fit-margin-top="0"
     fit-margin-left="0"
     fit-margin-right="0"
     fit-margin-bottom="0" />
  <metadata
     id="metadata2205">
Created by potrace 1.10, written by Peter Selinger 2001-2011
<rdf:RDF>
  <cc:Work
     rdf:about="">
    <dc:format>image/svg+xml</dc:format>
    <dc:type
       rdf:resource="http://purl.org/dc/dcmitype/StillImage" />
    <dc:title></dc:title>
  </cc:Work>
</rdf:RDF>
</metadata>
  <path
     d="m 490.67253,618.67185 h 63.99757 v -21.3339 21.3339 -21.3339 21.3339 -21.3339 21.3339 -42.6679 h 21.33397 l 21.33398,21.334 v -21.334 h -21.33398 21.33398 v -21.334 21.334 -21.334 21.334 -21.334 21.334 -21.334 21.334 -21.334 21.334 -21.334 21.334 -42.6633 21.334 -42.668 21.334 -21.334 h -21.33398 v -63.9978 H 554.6701 576.00407 554.6701 v -21.334 l 42.66795,42.6639 -21.33398,-21.334 v -42.6639 h 21.33398 v -21.334 h 21.33397 v -21.3339 h 21.33397 v -21.334 h 42.6636 v -21.334 h 21.33397 v -170.6718 h -21.33397 v -63.9972 h -21.33397 21.33397 -21.33397 v -21.334 h -21.33397 v -21.334 H 618.66767 V 21.33399 H 597.3337 V 42.66795 21.33399 H 575.99973 L 597.3337,1.9741211e-5 h 64.00192 L 704.00356,21.33399 h 21.33398 l 42.6636,42.66326 v 85.3359 l 21.33397,42.668 -21.33397,42.6639 v 170.6671 l 21.33397,64.0019 v 42.668 l 21.33397,21.334 v 21.3339 h -21.33397 l -42.6636,21.334 -42.66795,42.6639 v 106.6652 l -21.33397,21.334 h -21.33397 l -64.00192,21.334 -21.33397,21.3339 h -21.33397 l -21.33398,21.334 V 1002.666 l -21.33397,21.3339 H 448.00024 L 426.66627,1002.666 H 405.3323 v -42.66795 h -21.33398 l -21.33397,-21.334 -21.33397,21.334 h -64.00192 l -42.6636,-42.6633 v -21.334 l -21.33397,-21.3339 v -127.9998 l 21.33397,-42.668 v -21.3339 l 21.33397,-21.334 21.33398,-42.668 v -21.3339 l 21.33397,-42.6633 v -64.002 l 42.6636,-21.3339 -21.33397,-21.334 v -85.3318 l 64.00191,-42.668 h 21.33398 l 21.33397,21.334 v 234.665 h 21.33397 v 42.6679 -21.3339 h 21.33397 v 21.3339 h 21.33398 -21.33398 21.33398 -21.33398 21.33398 v -21.3339 21.3339 -106.6652 h -21.33398 21.33398 -21.33398 21.33398 -21.33398 21.33398 -21.33398 21.33398 -21.33398 21.33398 -21.33398 v -277.3376 h -21.33397 21.33397 -21.33397 v -21.3339 l 21.33397,21.3339 v 42.6639 h 21.33398 v -21.3339 h 21.33397 v -21.334 h -21.33397 l 21.33397,-21.334 v 85.3359 h 21.33397 -21.33397 v 42.6633 h -42.66795 21.33398 -21.33398 v 127.9998 l 21.33398,21.334 z m 127.99949,-298.6669 h 21.33397 z m -42.66795,64.0019 v -21.3339 z m -42.6636,-64.0019 h 21.33398 v 21.334 -21.334 z m 21.33398,128.0039 h 21.33397 -21.33397 21.33397 z"
     style="clip-rule:evenodd;fill:#000000;fill-rule:nonzero;stroke:none;stroke-width:44.4494px"
     id="path1386" />
</svg>
