<?xml version="1.0" encoding="UTF-8" standalone="no"?>
<svg
   xmlns:dc="http://purl.org/dc/elements/1.1/"
   xmlns:cc="http://creativecommons.org/ns#"
   xmlns:rdf="http://www.w3.org/1999/02/22-rdf-syntax-ns#"
   xmlns:svg="http://www.w3.org/2000/svg"
   xmlns="http://www.w3.org/2000/svg"
   xmlns:sodipodi="http://sodipodi.sourceforge.net/DTD/sodipodi-0.dtd"
   xmlns:inkscape="http://www.inkscape.org/namespaces/inkscape"
   version="1.0"
   width="1024pt"
   height="1024pt"
   viewBox="0 0 1024 1024"
   preserveAspectRatio="xMidYMid meet"
   id="svg2211"
   sodipodi:docname="vector.svg"
   inkscape:version="1.0.2-2 (e86c870879, 2021-01-15)">
  <defs
     id="defs2215" />
  <sodipodi:namedview
     pagecolor="#ffffff"
     bordercolor="#666666"
     borderopacity="1"
     objecttolerance="10"
     gridtolerance="10"
     guidetolerance="10"
     inkscape:pageopacity="0"
     inkscape:pageshadow="2"
     inkscape:window-width="1366"
     inkscape:window-height="697"
     id="namedview2213"
     showgrid="false"
     inkscape:zoom="0.1940918"
     inkscape:cx="1266.7524"
     inkscape:cy="760.26375"
     inkscape:window-x="-8"
     inkscape:window-y="-8"
     inkscape:window-maximized="1"
     inkscape:current-layer="svg2211"
     fit-margin-top="0"
     fit-margin-left="0"
     fit-margin-right="0"
     fit-margin-bottom="0" />
  <metadata
     id="metadata2205">
Created by potrace 1.10, written by Peter Selinger 2001-2011
<rdf:RDF>
  <cc:Work
     rdf:about="">
    <dc:format>image/svg+xml</dc:format>
    <dc:type
       rdf:resource="http://purl.org/dc/dcmitype/StillImage" />
    <dc:title></dc:title>
  </cc:Work>
</rdf:RDF>
</metadata>
  <path
     d="m 918.84408,169.53777 20.34487,27.1265 13.56324,-13.5633 6.78162,6.7817 v 6.7816 l 20.34348,6.7801 6.78163,13.5647 13.56328,-6.7816 20.3448,13.5633 -6.7816,20.3433 v 13.5633 l -6.7816,13.5619 -6.7816,13.5633 -13.56328,13.5632 h -13.56187 l -6.78162,6.7817 -6.78162,13.5617 v 33.9081 l -6.78162,13.5633 v 40.6884 l -6.78162,20.3449 v 13.5617 l -13.56324,13.5633 -6.78163,13.5632 v 6.7817 l -6.78162,13.5632 -13.56186,6.7816 -20.34486,13.562 -6.78162,13.5632 -13.56325,13.5633 -6.75261,6.7816 h -13.56325 l -6.78162,13.5617 6.78162,6.7817 6.78163,13.5632 -6.78163,6.7816 6.78163,13.562 -6.78163,20.3449 h -20.34486 l -6.78024,6.7816 -20.34486,13.5632 v 13.5633 l 13.56324,6.7816 v 6.7801 l -6.78162,13.5633 -6.78162,6.7816 -6.78163,13.5632 v 13.562 l -6.78162,6.7816 h -13.56186 l -6.78162,13.5633 13.56186,13.5632 v 13.5632 h -27.12511 l -13.56324,-6.7816 h -20.34486 l -13.56187,6.7816 -20.34486,20.3434 -20.34486,6.7816 h -6.78024 l -13.56325,-6.7816 -6.78162,-6.7801 -13.56324,-6.7816 h -6.78024 l -6.78162,6.7816 -6.78162,6.7801 v 20.3449 l -13.56325,6.7816 -6.78162,13.562 -6.78162,13.5632 6.78162,6.7816 13.56324,-13.5632 13.56325,6.7816 h 13.56186 l 6.78162,6.7816 -13.56186,6.7817 -6.78162,13.5632 v 61.0304 l 6.78162,6.7816 v 6.7816 l -6.78162,6.7816 -6.78162,13.5633 v 6.7816 l -6.78163,20.3436 -6.78162,13.5632 -13.56324,6.78163 -20.34486,-6.78163 -6.78024,-6.7816 -13.56325,6.7816 -13.56324,6.78163 -20.34348,6.7816 -13.53562,6.7817 h -13.56325 l -27.1251,6.7816 -20.34486,-6.7816 h -6.78163 L 403.51131,1024 h -20.34486 l -40.68835,-13.5633 -40.68973,-6.7816 -6.78024,-13.56323 v -27.1252 l 13.56186,-6.7816 h 27.12649 l 6.78162,6.7816 13.56324,-6.7816 6.78162,-20.3449 h 20.34349 l 13.56324,6.7816 13.56322,-6.7816 v -13.5632 l 6.78024,-6.7817 h 6.78163 v -6.7801 l -6.78163,-20.3449 -6.78024,-13.5632 v -6.7816 l -13.56322,-6.7804 h -6.78162 l -13.56324,27.1252 v 20.3449 h -20.34349 l -13.56324,-13.5633 -6.78162,-27.1264 v -33.9069 l 6.78162,-13.5632 6.78162,-6.7816 20.34348,-20.3434 6.78163,-20.3449 6.78162,-6.7816 h 20.34486 l 13.56184,-13.5632 6.78163,-6.7804 v -6.7816 h -27.12509 l -6.78162,-6.7816 -6.78162,6.7816 -6.78162,13.562 -13.56187,13.5632 h -13.56324 l -27.12648,-13.5632 h -13.56325 l -6.78162,6.7816 h -33.90672 v 6.7816 l 6.78162,20.3449 13.56324,20.3434 6.78162,20.3448 -6.78162,6.7816 -13.56324,13.5633 v -13.5633 l -6.78162,-6.7816 v -6.7816 H 254.3184 l -6.78024,27.1265 -6.78162,13.5632 h -20.34486 v -13.5632 l 6.78162,-6.7816 v -13.5633 h -40.68973 v -13.5632 l 6.78162,-13.5633 v -13.5617 l -6.78162,-6.7817 h -27.1251 l -13.56325,6.7817 -6.78162,20.3434 -6.78024,13.5632 -6.78162,6.7816 H 98.374265 l 6.781615,-20.3448 -6.781615,-20.3434 -6.78162,-13.5633 h -13.56324 l -13.56325,-6.7816 -6.78162,-13.5632 -6.78162,-6.7804 -6.78024,-20.3448 h -13.56324 l -20.34487,-6.7817 -6.7816203,-6.7816 v -20.3434 l 6.7816203,-6.7816 27.12649,-6.7816 13.56186,-6.7816 h 40.68973 v -6.7817 l -27.12649,-6.7816 v -13.5632 h -20.34348 v -6.7816 l 13.56186,6.7816 13.56324,-6.7816 v -20.3436 l -6.78162,-13.5633 h 33.90811 l -6.78162,-13.5617 v -47.4714 l 6.78162,-6.7816 v -20.3436 l -6.78162,-13.5632 6.78162,-13.5633 6.781615,-6.7816 h 6.78162 l 6.78024,-13.5618 6.78162,-13.5632 13.56325,-6.7816 6.78162,-6.7816 13.56324,6.7816 6.78024,6.7816 v 13.5632 h 6.78162 l 13.56325,-6.7816 6.78162,-6.7816 13.56324,-6.7816 6.78024,-6.7816 13.56324,6.7816 h 6.78162 l 20.34487,-20.3436 -6.78162,-13.5632 v -20.3449 l 6.78162,-13.5632 6.78162,-13.5633 v -27.125 l 6.78162,-13.5632 6.78162,-13.562 13.56186,-20.3449 v -27.1264 l 6.78163,-27.1251 13.56324,-6.7816 6.78162,-6.7816 13.56186,-6.7816 20.34487,-6.7816 20.34486,6.7816 27.1251,13.5632 v 6.7816 l 6.78163,13.5618 h 13.56322 v 6.7816 l 13.56324,-13.5617 h 33.8501 l 13.56324,-6.7817 13.56325,-6.7816 h 20.34348 l 20.34486,-20.3448 h 6.78162 l 13.56187,-6.7817 13.56324,-20.3435 v -20.3449 l 20.34486,-13.5632 27.12649,-13.5633 v -6.7801 l -13.56324,-6.7817 v -13.5632 l 13.56324,-6.7816 6.78024,-13.563295 v -20.3435 l -6.78024,-6.7817 v -20.3434 h 6.78024 l 27.12648,-6.7816 13.56187,-13.56322 20.34486,-13.5632403 h 27.1251 L 722.21021,-5.2587895e-6 h 13.56324 L 749.33669,6.7816147 h 6.78162 l 6.78163,6.7816203 6.78162,6.78162 13.56186,20.34482 6.78162,6.7802 6.78163,20.3449 13.56324,13.5632 13.53424,13.562 13.56324,13.563195 6.78162,13.5632 6.78162,6.7817 h 20.34348 l 20.34487,-20.3449 h 20.34348 l 20.34487,13.5632 z"
     style="clip-rule:evenodd;fill:#000000;fill-rule:nonzero;stroke:none;stroke-width:14.1295px"
     id="path1254" />
</svg>
