<?xml version="1.0" encoding="UTF-8" standalone="no"?>
<svg
   xmlns:dc="http://purl.org/dc/elements/1.1/"
   xmlns:cc="http://creativecommons.org/ns#"
   xmlns:rdf="http://www.w3.org/1999/02/22-rdf-syntax-ns#"
   xmlns:svg="http://www.w3.org/2000/svg"
   xmlns="http://www.w3.org/2000/svg"
   xmlns:sodipodi="http://sodipodi.sourceforge.net/DTD/sodipodi-0.dtd"
   xmlns:inkscape="http://www.inkscape.org/namespaces/inkscape"
   version="1.0"
   width="1024pt"
   height="1024pt"
   viewBox="0 0 1024 1024"
   preserveAspectRatio="xMidYMid meet"
   id="svg2211"
   sodipodi:docname="vector.svg"
   inkscape:version="1.0.2-2 (e86c870879, 2021-01-15)">
  <defs
     id="defs2215" />
  <sodipodi:namedview
     pagecolor="#ffffff"
     bordercolor="#666666"
     borderopacity="1"
     objecttolerance="10"
     gridtolerance="10"
     guidetolerance="10"
     inkscape:pageopacity="0"
     inkscape:pageshadow="2"
     inkscape:window-width="1366"
     inkscape:window-height="697"
     id="namedview2213"
     showgrid="false"
     inkscape:zoom="0.1940918"
     inkscape:cx="1266.7524"
     inkscape:cy="760.26375"
     inkscape:window-x="-8"
     inkscape:window-y="-8"
     inkscape:window-maximized="1"
     inkscape:current-layer="svg2211"
     fit-margin-top="0"
     fit-margin-left="0"
     fit-margin-right="0"
     fit-margin-bottom="0" />
  <metadata
     id="metadata2205">
Created by potrace 1.10, written by Peter Selinger 2001-2011
<rdf:RDF>
  <cc:Work
     rdf:about="">
    <dc:format>image/svg+xml</dc:format>
    <dc:type
       rdf:resource="http://purl.org/dc/dcmitype/StillImage" />
    <dc:title></dc:title>
  </cc:Work>
</rdf:RDF>
</metadata>
  <path
     d="m 204.81459,127.94551 v 7.31491 -21.94325 7.31491 h 7.31492 v 7.31343 z m 592.43037,14.62982 -7.3149,14.62983 14.6299,14.62983 h 29.2582 v 7.31491 l -21.9433,14.62981 -7.3149,29.25816 21.9433,29.25816 h 14.6298 v 14.62983 l 7.3149,7.31491 21.9432,-14.62982 14.6298,21.94474 -14.6298,14.62982 v 7.31343 l -7.3149,14.62982 -7.3149,14.62983 7.3149,7.31491 14.6298,-14.62982 h 21.9448 l 14.6284,14.62982 v 29.25966 l -7.3149,14.62834 v 21.94474 h 21.9447 v 14.62833 l 14.6283,7.31492 -7.315,21.94474 h 14.6299 l 14.6284,14.62974 -14.6284,7.31492 -7.3149,36.57322 36.5731,7.3149 v 14.6298 l -14.6298,-7.3149 v 7.3149 l -21.9433,7.3149 v 7.3133 l 7.3149,7.3149 v 7.315 l 21.9433,36.5731 36.57464,7.3149 v 14.6299 H 1024 v 21.9447 h -21.9447 l -7.31494,14.6298 -14.6299,7.315 -7.3149,7.3133 -7.3149,14.6298 -7.3149,-14.6298 h -21.9434 v 14.6298 l -7.3149,14.6298 v 36.5732 l 7.3149,-7.3149 -7.3149,14.6298 7.3149,14.6298 h 7.315 v 7.315 l -14.6299,7.3149 -7.3149,14.6298 7.3149,14.6282 v 7.315 l -14.6282,-7.315 h -14.6298 l -7.315,14.6299 -7.3149,7.3149 -7.3149,-21.9448 -21.9447,14.6299 v 21.9447 l -7.3149,21.9434 h -7.3149 l -7.315,-21.9434 h -7.3149 l -21.9433,7.3135 h -14.6298 l -7.315,-7.3135 h -21.9431 l -14.6298,-7.3149 -7.315,-21.9447 -7.3149,21.9447 -7.3149,14.6284 v 7.3149 l 29.2597,14.6299 7.3149,-14.6299 h 14.6282 l 7.3149,7.315 -7.3149,29.2596 h 7.3149 l 14.6299,7.3133 7.3149,14.6299 -14.6298,29.2596 h -7.315 l -14.6282,-29.2596 -14.6298,-7.315 -7.3149,21.9448 h -7.315 l -7.3149,-7.3149 7.3149,-7.3149 v -7.315 l -29.2582,-7.3149 v -7.3133 l 14.6284,-7.3149 v -14.6298 l -14.6284,7.3149 h -7.3149 v 29.258 l -7.3149,7.315 7.3149,29.2596 -7.3149,14.6596 h -36.5745 l -29.2582,7.3149 -7.3149,-7.3149 h -14.6298 l -21.94328,-29.2596 -14.62983,-7.3149 -14.62983,-29.2581 -29.22836,-14.6298 7.31491,-7.3135 -14.62834,-14.6299 -7.31491,7.3149 -14.62983,-14.6298 7.31492,-14.6298 -21.94325,7.3149 -7.31492,-7.3149 -14.62982,-21.9432 -80.46107,58.5178 -7.31491,-7.315 -14.62983,14.6285 -7.31491,-7.3135 h -7.31492 v -14.6299 l -14.62982,14.6299 -7.31492,-7.315 -7.31491,14.6285 -7.31491,-14.6285 14.62982,-29.2596 -14.62982,-36.573 h -21.94325 v -7.3149 l 7.31491,-14.6298 v -14.6299 l 7.31491,-7.3149 -7.31491,-7.3135 -7.31491,-7.3149 -7.31492,7.3149 h -14.62982 l -14.62981,-7.3149 -14.62834,14.6284 v -14.6284 l 7.31492,-14.6298 -14.62983,-7.3149 -7.31491,14.6298 -14.62834,14.6298 -36.57457,-14.6298 7.31492,-21.9448 -29.22837,14.6299 -7.31492,-14.6299 -7.31491,-7.3149 7.31491,-14.6282 -7.31491,-7.3149 7.31491,-14.6299 -7.31491,-7.3149 7.31491,-7.3149 -14.62833,-7.3149 7.31491,-7.3149 v -21.9434 h 7.31491 l 7.31492,-14.6298 14.62833,-7.3149 v -29.2581 l -14.62833,-7.3149 7.31491,-14.6298 -51.20439,-14.6298 -29.258165,21.9447 h -7.31491 l -7.31491,-14.6298 -7.31492,-7.3149 h -14.62982 v -21.9434 l -14.62834,-14.6298 H 4.7412111e-6 L 7.3149147,457.13886 21.944745,449.82402 v -21.94325 l 14.62834,-14.62983 v -14.62982 l -14.62834,-7.31343 v -14.62982 l 21.94325,-21.94474 29.25965,-14.62983 h 21.94325 l -14.62833,-21.94325 7.31491,-14.62983 h 7.31491 L 102.4073,296.21531 87.777475,281.58548 H 102.4073 l 14.62833,-14.62833 h 29.25966 l -21.94474,-14.62983 7.31491,-7.31491 14.62983,-14.62983 -7.31492,-14.62983 h 14.62983 l -7.31491,-7.31491 V 193.8095 l 21.94325,-14.6298 7.31491,14.6298 21.94474,-7.31491 -7.31491,-14.62981 v -14.62982 l 21.94325,-14.62834 -7.31492,-7.31491 7.31492,7.31491 h 14.62982 v -7.31491 l 21.94474,-14.62983 7.31492,14.62983 14.62831,-7.31492 7.31492,7.31492 v 21.94325 l 14.62983,-7.31343 7.31491,7.31343 14.62834,-14.62834 -7.31492,-7.31491 -7.31491,-14.62983 V 98.71863 l 21.94474,-7.31491 h 7.31491 V 84.0888 h -7.31491 v -7.31491 h 14.62834 l 7.31491,-7.31491 v 7.31491 -7.31491 h 7.31491 v -7.31492 l 7.31492,7.31492 v 7.31491 h 14.62982 l -7.31491,14.62983 h 7.31491 -7.31491 7.31491 v 7.31491 l 14.62983,-7.31491 v 7.31491 h 7.31491 v 7.31342 h 7.31492 v 7.31492 h 14.62833 v 7.31491 h -7.31491 v 7.31491 h 7.31491 v 7.31492 h 7.31492 l 7.31491,-7.31492 h 7.31491 l -7.31491,-7.31491 h 7.31491 v -7.31491 h 7.31492 l 7.31491,7.31491 v 7.31491 h 21.94474 v -7.31491 h -7.31491 v -7.31491 h 36.57307 v -7.31492 h 7.28512 v 7.31492 -14.62834 h 29.25816 l 7.31492,-7.31491 h 29.25965 l 7.31491,7.31491 v 7.31342 h 7.31492 v -7.31342 h 14.62829 v -7.31491 7.31491 h 7.315 v 7.31342 h -7.315 v 7.31492 h 7.315 v 7.31491 l 7.3149,7.31491 v -7.31491 l 7.3149,7.31491 v -7.31491 14.62983 l 7.3149,-7.31492 h 14.6298 v -7.31491 h 14.6299 v -7.31491 h 7.3149 -7.3149 v -7.31492 h 7.3149 v -7.31342 h -14.6299 v -7.31491 h -7.3149 V 84.0888 h 29.2597 v -7.31491 h 7.3149 v 7.31491 l 21.9432,7.31492 v 7.31491 l 7.3149,7.31342 v 7.31492 h 14.6298 l 14.6284,7.31491 h 14.6299 v 7.31491 h 7.3149 v -7.31491 h 21.9431 v -7.31491 l 29.2597,29.25965 -7.3149,7.31342 -14.6299,-7.31342 z"
     style="clip-rule:evenodd;fill:#000000;fill-rule:nonzero;stroke:none;stroke-width:15.2406px"
     id="path1350" />
</svg>
