<?xml version="1.0" encoding="UTF-8" standalone="no"?>
<svg
   xmlns:dc="http://purl.org/dc/elements/1.1/"
   xmlns:cc="http://creativecommons.org/ns#"
   xmlns:rdf="http://www.w3.org/1999/02/22-rdf-syntax-ns#"
   xmlns:svg="http://www.w3.org/2000/svg"
   xmlns="http://www.w3.org/2000/svg"
   xmlns:sodipodi="http://sodipodi.sourceforge.net/DTD/sodipodi-0.dtd"
   xmlns:inkscape="http://www.inkscape.org/namespaces/inkscape"
   version="1.0"
   width="1024pt"
   height="1024pt"
   viewBox="0 0 1024 1024"
   preserveAspectRatio="xMidYMid meet"
   id="svg2211"
   sodipodi:docname="vector.svg"
   inkscape:version="1.0.2-2 (e86c870879, 2021-01-15)">
  <defs
     id="defs2215" />
  <sodipodi:namedview
     pagecolor="#ffffff"
     bordercolor="#666666"
     borderopacity="1"
     objecttolerance="10"
     gridtolerance="10"
     guidetolerance="10"
     inkscape:pageopacity="0"
     inkscape:pageshadow="2"
     inkscape:window-width="1366"
     inkscape:window-height="697"
     id="namedview2213"
     showgrid="false"
     inkscape:zoom="0.1940918"
     inkscape:cx="1266.7524"
     inkscape:cy="760.26375"
     inkscape:window-x="-8"
     inkscape:window-y="-8"
     inkscape:window-maximized="1"
     inkscape:current-layer="svg2211"
     fit-margin-top="0"
     fit-margin-left="0"
     fit-margin-right="0"
     fit-margin-bottom="0" />
  <metadata
     id="metadata2205">
Created by potrace 1.10, written by Peter Selinger 2001-2011
<rdf:RDF>
  <cc:Work
     rdf:about="">
    <dc:format>image/svg+xml</dc:format>
    <dc:type
       rdf:resource="http://purl.org/dc/dcmitype/StillImage" />
    <dc:title></dc:title>
  </cc:Work>
</rdf:RDF>
</metadata>
  <path
     d="m 700.85348,314.02688 9.1025,18.20489 9.1024,9.10152 9.1015,9.10244 4.5512,13.65367 9.1025,22.75519 4.5512,13.65366 4.5512,4.55122 v 27.30641 l -9.1024,13.65274 -4.5513,9.10245 v 9.10244 l -4.5512,13.65273 v 13.65366 l -4.5512,13.65367 v 18.20396 l 4.5512,13.65367 4.5512,18.20396 4.5513,13.65367 9.1024,13.65367 9.1016,9.10244 4.5512,13.65274 9.1024,9.10245 v 4.55122 l -4.5512,9.10244 9.1025,18.20396 4.5512,18.20397 9.1014,22.75611 4.5513,18.20489 9.1024,22.75518 v 9.10148 l 4.5512,9.1025 4.5513,18.2049 -4.5513,13.6536 -4.5512,9.1016 v 27.3063 h -9.1024 l -9.1015,4.5512 h -13.6537 l -9.1024,13.6537 v 9.1024 l -4.5512,4.5504 -9.1016,9.1024 h -9.1024 l -9.1015,4.5513 h -13.6537 l -9.1024,4.5512 h -13.6528 l -4.5512,-9.1025 h -18.2049 l -4.5513,4.5513 v 9.1024 h -4.5512 l -4.5512,4.5512 h -4.5512 v 4.5513 l 4.5512,9.1024 4.5512,4.5502 9.1025,9.1025 v 9.1024 l -9.1025,9.1025 -9.1014,4.5503 -4.5513,4.5513 h -9.1024 l -4.5512,-4.5513 -4.5512,-4.5503 h -13.6537 l -4.5512,-4.5513 h -4.5513 l -4.5512,-4.5512 h -4.5512 l -4.5512,4.5512 v 9.1016 l 9.1024,9.1025 v 13.6536 l 4.5512,4.5513 h 13.6527 l 9.1025,4.5512 4.5512,9.1024 v 13.6527 l -4.5512,4.5512 h -4.5513 l -4.5512,4.5513 -4.5512,9.1024 -4.5512,4.55042 -4.5512,4.5512 v -4.5512 h -9.1025 l -4.5512,4.5512 h -4.5512 l -4.5513,9.1024 v 4.5512 l -4.5512,4.5513 h -18.2039 l -4.5512,-9.1025 -13.6537,-13.6536 v -4.55042 l 13.6537,-13.6537 -4.5512,-4.5512 -9.1025,-9.1024 h -9.1024 l -4.5512,4.5512 -4.5513,9.1024 -4.5318,4.5513 -13.6536,13.65282 -9.1015,4.5512 -9.1024,-4.5512 h -13.6528 l -4.5513,-4.55042 v -27.3073 l 4.5513,-4.5503 -4.5513,-9.1024 -4.5512,-9.1025 -9.1024,-13.6536 -9.1025,-4.5512 -13.6527,-9.1016 -18.2048,-9.1025 v -9.1024 l 4.5512,-9.1025 4.5512,-4.5502 13.6537,-4.5512 h 9.1014 l 9.1025,-4.5512 4.5512,-4.5513 4.5512,-4.5512 h -9.1024 l -18.2039,4.5512 h -9.1025 l -4.5512,-9.1024 -4.5512,-9.1025 v -13.6528 l -9.1016,-4.5512 -4.5512,-4.5512 v -13.6537 l -4.5512,-9.1014 h -22.7562 l -18.2039,9.1014 -4.5512,4.5513 h -13.6536 v -9.1025 l -4.5513,-4.5502 -4.5512,-13.6537 -9.1016,-13.6537 -9.1024,-4.5503 -4.5512,-4.5512 -9.1015,-4.5512 h -4.5512 l -4.5512,-4.5512 v -13.6537 l 13.6526,-13.6537 v -13.6527 l -9.1014,-4.55122 -4.5512,4.55122 h -9.1025 l -4.5512,-9.10245 h -4.5327 l -18.2049,-9.10151 v -4.55123 l -4.5512,-4.55122 -9.1016,-4.55122 -4.5512,4.55122 -9.1024,-4.55122 -4.5513,-4.55122 -9.1014,-4.55122 v -13.65367 l 4.5512,-13.65274 4.5512,-4.55122 9.1015,-4.55123 v -18.20396 l 4.5512,-13.65366 -4.5512,-9.10245 h -9.1015 v 9.10245 l -4.5512,4.55122 -4.5512,-4.55122 -4.5512,-9.10245 V 582.5425 l -4.5513,-9.10245 h 9.1015 l 4.5512,-13.65367 h 9.1025 l 13.6528,4.55123 h 13.6536 l 9.1025,9.10244 h 18.2039 l 4.5512,9.10245 9.1024,-4.55123 v -27.3064 l 4.5513,-4.55123 v -4.55122 l -4.5513,-4.55122 v 4.55122 l -9.1024,9.10245 h -4.5512 l -4.5513,-9.10245 -4.5512,-4.55122 v -4.55122 l -4.5512,9.10244 h -9.1015 v -18.20489 l 4.5513,-4.55029 v -9.10245 l -9.1025,-9.10244 -9.1024,-13.65367 -4.5512,-9.10244 -9.1016,-9.10151 v -13.65366 l -4.5512,-9.10245 13.6528,-27.30641 -9.1016,-9.10244 -4.5512,-9.10244 -4.5513,4.55122 -9.1024,-4.55122 -4.5512,-27.30641 v -22.75519 l -4.5513,-18.20396 9.1025,-27.30733 9.1016,4.55122 9.1024,4.55122 13.6537,-4.55122 h 22.7551 l 13.6528,-13.65367 4.5512,-9.10151 v -13.65367 l -4.5512,-9.10244 -4.5512,-9.10152 v -9.10245 l 4.5512,-18.20489 v -13.65366 l 9.1025,-18.20396 9.1024,-4.55123 V 172.9427 l -9.1024,-4.55122 -4.5513,-4.55122 -9.1024,-9.10245 -9.1016,-13.65274 -4.5512,-9.10244 18.204,-13.65367 13.6537,-27.306405 v -22.75518 l 4.5512,-4.55122 4.5512,-4.55122 v -9.10245 l -4.5512,-4.55122 v -9.10245 l 9.1015,-4.55122 4.5512,-13.65274 h 4.5512 l 9.1024,-4.55122 9.1025,4.55122 9.1016,9.10245 4.5512,4.55029 v 18.20489 l 4.5512,4.55122 h 13.6537 l 9.1014,-9.10244 h 4.5513 l 9.1024,9.10244 h 9.1024 v -13.65366 l 4.5513,-9.10245 v -9.10152 l -4.5513,-4.55122 4.5513,-9.1024403 4.5512,-4.55121 9.1024,-4.551219958789 4.5513,9.102429958789 4.5512,9.1024403 9.1016,13.65274 4.5512,4.55122 4.5512,-4.55122 h 13.6537 l 4.5512,9.10245 13.6527,13.65366 18.2049,27.30641 13.6342,13.65367 4.5512,9.102435 4.5513,4.5503 v 27.30733 l 4.5512,4.55122 9.1024,4.55122 4.5513,-9.10244 4.5512,-9.10244 h 18.2049 v -13.65367 l 9.1014,-4.55122 4.5512,4.55122 9.1025,13.65367 v 4.55122 l -18.2049,18.20489 h -4.5512 l -4.5512,4.55029 v 4.55122 l 9.1024,9.10245 9.1016,9.10244 13.6536,9.10152 h 9.1015 l 13.6537,4.55122 h 13.6536 l 4.5513,4.55123 4.5512,4.55122 9.1016,-4.55122 h 9.1024 l 4.5512,-4.55123 h 18.2049 l 4.5512,9.10245 v 4.55122 l -4.5512,4.55122 v 9.10152 l 4.5512,18.20489 13.6527,22.75611 4.5512,22.75518 v 31.85763 z"
     style="clip-rule:evenodd;fill:#000000;fill-rule:nonzero;stroke:none;stroke-width:9.48249px"
     id="path1280" />
</svg>
